<svg width="848" height="200" viewBox="0 0 848 200" fill="none" xmlns="http://www.w3.org/2000/svg">
<g clip-path="url(#clip0_943_6622)">
<rect width="848" height="200" fill="url(#paint0_linear_943_6622)"/>
<path d="M851.419 1.63592C860.161 -6.98195 874.528 2.08316 869.944 12.9439L869.712 13.4615L842.876 69.8807C840.812 74.2212 841.642 79.2646 844.946 82.6992L845.273 83.0268L890.304 126.309C898.873 134.544 889.376 148.173 878.224 144.193L877.692 143.99L818.824 120.105C814.297 118.268 809.033 119.229 805.446 122.507L805.104 122.832L759.913 167.385C751.171 176.003 736.804 166.938 741.387 156.078L741.62 155.559L768.456 99.1402C770.52 94.7998 769.689 89.7562 766.386 86.3216L766.059 85.994L721.027 42.7122C712.459 34.4767 721.955 20.8472 733.108 24.8276L733.64 25.031L792.508 48.9159C797.035 50.7526 802.298 49.7921 805.886 46.5137L806.228 46.1888L851.419 1.63592Z" stroke="white" stroke-opacity="0.25"/>
<path d="M133.131 84.687C171.938 121.631 200.966 161.631 216.536 196.421C224.321 213.817 228.73 229.887 229.331 243.606C229.931 257.323 226.725 268.647 219.327 276.629C211.93 284.612 200.979 288.564 187.433 288.815C173.886 289.066 157.786 285.61 140.169 278.823C104.936 265.251 63.7301 238.391 24.9228 201.447C-13.8844 164.504 -42.9117 124.504 -58.4813 89.7138C-66.2665 72.3178 -70.6765 56.2484 -71.2772 42.5293C-71.8777 28.8124 -68.6706 17.4875 -61.2731 9.50539C-53.8757 1.52334 -42.9249 -2.42858 -29.3799 -2.67932C-15.8326 -2.9301 0.267741 0.524759 17.8854 7.3115C53.1182 20.8841 94.3236 47.7436 133.131 84.687Z" stroke="white" stroke-opacity="0.23"/>
<path d="M189.908 110.59C228.715 147.533 257.743 187.534 273.313 222.324C281.098 239.72 285.508 255.79 286.108 269.509C286.709 283.226 283.502 294.55 276.105 302.532C268.707 310.514 257.756 314.467 244.211 314.718C230.664 314.968 214.564 311.513 196.946 304.726C161.713 291.154 120.507 264.294 81.7001 227.35C42.8929 190.407 13.8656 150.407 -1.70393 115.617C-9.48915 98.2206 -13.8992 82.1512 -14.4999 68.4322C-15.1003 54.7153 -11.8933 43.3903 -4.49578 35.4082C2.90169 27.4262 13.8525 23.4743 27.3975 23.2235C40.9447 22.9727 57.0451 26.4276 74.6627 33.2143C109.896 46.7869 151.101 73.6464 189.908 110.59Z" stroke="white" stroke-opacity="0.23"/>
<path d="M229.002 122.995C267.809 159.939 296.837 199.939 312.407 234.729C320.192 252.125 324.601 268.195 325.202 281.914C325.802 295.631 322.596 306.955 315.198 314.937C307.801 322.92 296.85 326.872 283.305 327.123C269.757 327.374 253.657 323.918 236.04 317.131C200.807 303.559 159.601 276.699 120.794 239.755C81.9867 202.812 52.9594 162.812 37.3898 128.022C29.6046 110.626 25.1946 94.5565 24.5939 80.8374C23.9934 67.1205 27.2005 55.7956 34.598 47.8135C41.9954 39.8314 52.9462 35.8795 66.4912 35.6288C80.0385 35.378 96.1388 38.8329 113.756 45.6196C148.989 59.1922 190.195 86.0517 229.002 122.995Z" stroke="white" stroke-opacity="0.23"/>
</g>
<defs>
<linearGradient id="paint0_linear_943_6622" x1="0" y1="100" x2="848" y2="100" gradientUnits="userSpaceOnUse">
<stop stop-color="#177A56"/>
<stop offset="1" stop-color="#04B674"/>
</linearGradient>
<clipPath id="clip0_943_6622">
<rect width="848" height="200" fill="white"/>
</clipPath>
</defs>
</svg>
