<svg width="848" height="201" viewBox="0 0 848 201" fill="none" xmlns="http://www.w3.org/2000/svg">
<g clip-path="url(#clip0_979_3203)">
<rect width="848" height="200" transform="translate(0 0.741211)" fill="url(#paint0_linear_979_3203)"/>
<path d="M851.419 2.37713C860.161 -6.24074 874.528 2.82437 869.944 13.6851L869.712 14.2027L842.876 70.6219C840.812 74.9624 841.642 80.0058 844.946 83.4404L845.273 83.7681L890.304 127.05C898.873 135.285 889.376 148.914 878.224 144.934L877.692 144.731L818.824 120.846C814.297 119.009 809.033 119.97 805.446 123.248L805.104 123.573L759.913 168.126C751.171 176.744 736.804 167.68 741.387 156.819L741.62 156.301L768.456 99.8814C770.52 95.541 769.689 90.4974 766.386 87.0628L766.059 86.7352L721.027 43.4534C712.459 35.2179 721.955 21.5884 733.108 25.5689L733.64 25.7722L792.508 49.6572C797.035 51.4938 802.298 50.5333 805.886 47.2549L806.228 46.93L851.419 2.37713Z" stroke="#BDC5CF"/>
<path d="M133.131 85.4282C171.938 122.372 200.966 162.372 216.536 197.162C224.321 214.558 228.73 230.628 229.331 244.347C229.931 258.064 226.725 269.389 219.327 277.371C211.93 285.353 200.979 289.305 187.433 289.556C173.886 289.807 157.786 286.351 140.169 279.564C104.936 265.992 63.7301 239.132 24.9228 202.188C-13.8844 165.245 -42.9117 125.245 -58.4813 90.455C-66.2665 73.059 -70.6765 56.9896 -71.2772 43.2705C-71.8777 29.5536 -68.6706 18.2287 -61.2731 10.2466C-53.8757 2.26455 -42.9249 -1.68737 -29.3799 -1.93811C-15.8326 -2.18889 0.267741 1.26597 17.8854 8.05271C53.1182 21.6253 94.3236 48.4848 133.131 85.4282Z" stroke="#D5DCE5"/>
<path d="M189.908 111.331C228.715 148.275 257.743 188.275 273.313 223.065C281.098 240.461 285.508 256.531 286.108 270.25C286.709 283.967 283.502 295.291 276.105 303.273C268.707 311.256 257.756 315.208 244.211 315.459C230.664 315.71 214.564 312.254 196.946 305.467C161.713 291.895 120.507 265.035 81.7001 228.091C42.8929 191.148 13.8656 151.148 -1.70393 116.358C-9.48915 98.9618 -13.8992 82.8924 -14.4999 69.1734C-15.1003 55.4565 -11.8933 44.1316 -4.49578 36.1494C2.90169 28.1674 13.8525 24.2155 27.3975 23.9647C40.9447 23.7139 57.0451 27.1688 74.6627 33.9555C109.896 47.5281 151.101 74.3877 189.908 111.331Z" stroke="#D5DCE5"/>
<path d="M229.002 123.736C267.809 160.68 296.837 200.68 312.407 235.47C320.192 252.866 324.601 268.936 325.202 282.655C325.802 296.372 322.596 307.697 315.198 315.679C307.801 323.661 296.85 327.613 283.305 327.864C269.757 328.115 253.657 324.659 236.04 317.873C200.807 304.3 159.601 277.44 120.794 240.496C81.9867 203.553 52.9594 163.553 37.3898 128.763C29.6046 111.367 25.1946 95.2977 24.5939 81.5786C23.9934 67.8617 27.2005 56.5368 34.598 48.5547C41.9954 40.5727 52.9462 36.6207 66.4912 36.37C80.0385 36.1192 96.1388 39.5741 113.756 46.3608C148.989 59.9334 190.195 86.7929 229.002 123.736Z" stroke="#D5DCE5"/>
</g>
<defs>
<linearGradient id="paint0_linear_979_3203" x1="-3.29069e-07" y1="7.73024" x2="873.734" y2="200" gradientUnits="userSpaceOnUse">
<stop stop-color="#F1F5F9"/>
<stop offset="1" stop-color="#E0E4EA"/>
</linearGradient>
<clipPath id="clip0_979_3203">
<rect width="848" height="200" fill="white" transform="translate(0 0.741211)"/>
</clipPath>
</defs>
</svg>
