<svg width="96" height="96" viewBox="0 0 96 96" fill="none" xmlns="http://www.w3.org/2000/svg">
<rect width="96" height="96" fill="#F0FDFA"/>
<path d="M47.7306 37.0096C47.7306 34.7349 46.827 32.5533 45.2185 30.9448C43.61 29.3363 41.4285 28.4327 39.1537 28.4327H26.2883V60.5961H41.2979C43.004 60.5961 44.6402 61.2739 45.8465 62.4802C47.0529 63.6866 47.7306 65.3228 47.7306 67.0288M47.7306 37.0096V67.0288M47.7306 37.0096C47.7306 34.7349 48.6343 32.5533 50.2428 30.9448C51.8512 29.3363 54.0328 28.4327 56.3076 28.4327H69.1729V60.5961H54.1633C52.4573 60.5961 50.8211 61.2739 49.6147 62.4802C48.4084 63.6866 47.7306 65.3228 47.7306 67.0288" stroke="#059669" stroke-width="4.28846" stroke-linecap="round" stroke-linejoin="round"/>
</svg>

