<svg width="96" height="96" viewBox="0 0 96 96" fill="none" xmlns="http://www.w3.org/2000/svg">
<rect width="96" height="96" fill="#EEF2FF"/>
<path d="M38.0817 31.0272L47.7307 36.6022L57.3797 31.0272M38.0817 64.4343V53.3058L28.4326 47.7308M67.0288 47.7308L57.3797 53.3058V64.4343M29.0116 36.9238L47.7307 47.7522L66.4498 36.9238M47.7307 69.3446V47.7308M67.0288 56.3077V39.1538C67.028 38.4018 66.8295 37.6632 66.4531 37.0121C66.0768 36.361 65.5358 35.8203 64.8845 35.4443L49.8749 26.8674C49.223 26.491 48.4835 26.2928 47.7307 26.2928C46.9779 26.2928 46.2384 26.491 45.5865 26.8674L30.5768 35.4443C29.9256 35.8203 29.3846 36.361 29.0083 37.0121C28.6319 37.6632 28.4334 38.4018 28.4326 39.1538V56.3077C28.4334 57.0597 28.6319 57.7983 29.0083 58.4494C29.3846 59.1005 29.9256 59.6412 30.5768 60.0172L45.5865 68.5941C46.2384 68.9705 46.9779 69.1687 47.7307 69.1687C48.4835 69.1687 49.223 68.9705 49.8749 68.5941L64.8845 60.0172C65.5358 59.6412 66.0768 59.1005 66.4531 58.4494C66.8295 57.7983 67.028 57.0597 67.0288 56.3077Z" stroke="#4F46E5" stroke-width="4.28846" stroke-linecap="round" stroke-linejoin="round"/>
</svg>

