<svg width="96" height="96" viewBox="0 0 96 96" fill="none" xmlns="http://www.w3.org/2000/svg">
<rect width="96" height="96" fill="#F0FDFA"/>
<path d="M41.2979 64.8846H30.5768C29.4394 64.8846 28.3486 64.4328 27.5444 63.6286C26.7401 62.8243 26.2883 61.7335 26.2883 60.5962V32.7212C26.2883 31.5838 26.7401 30.493 27.5444 29.6888C28.3486 28.8845 29.4394 28.4327 30.5768 28.4327H38.9393C39.6565 28.4257 40.364 28.5986 40.9971 28.9358C41.6302 29.2729 42.1686 29.7635 42.563 30.3625L44.2999 32.9356C44.6904 33.5285 45.2219 34.0153 45.8469 34.3521C46.4719 34.6889 47.1708 34.8653 47.8807 34.8654H64.8845C66.0219 34.8654 67.1126 35.3172 67.9169 36.1215C68.7211 36.9257 69.1729 38.0165 69.1729 39.1539V49.875M49.8749 52.0192C52.2433 52.0192 54.1633 50.0992 54.1633 47.7308C54.1633 45.3623 52.2433 43.4423 49.8749 43.4423C47.5064 43.4423 45.5864 45.3623 45.5864 47.7308C45.5864 50.0992 47.5064 52.0192 49.8749 52.0192ZM49.8749 52.0192C49.8749 58.0231 54.5922 62.7404 60.596 62.7404M49.8749 52.0192V69.1731M60.596 62.7404C60.596 65.1088 62.516 67.0289 64.8845 67.0289C67.2529 67.0289 69.1729 65.1088 69.1729 62.7404C69.1729 60.3719 67.2529 58.4519 64.8845 58.4519C62.516 58.4519 60.596 60.3719 60.596 62.7404Z" stroke="#059669" stroke-width="4.28846" stroke-linecap="round" stroke-linejoin="round"/>
</svg>

