<svg width="96" height="96" viewBox="0 0 96 96" fill="none" xmlns="http://www.w3.org/2000/svg">
<rect width="96" height="96" fill="#F0FDFA"/>
<path d="M34.8653 28.4327V54.1635M34.8653 54.1635C31.3126 54.1635 28.4326 57.0435 28.4326 60.5962C28.4326 64.1488 31.3126 67.0289 34.8653 67.0289C38.418 67.0289 41.298 64.1488 41.298 60.5962M34.8653 54.1635C38.418 54.1635 41.298 57.0435 41.298 60.5962M60.5961 41.2981C64.1488 41.2981 67.0288 38.4181 67.0288 34.8654C67.0288 31.3127 64.1488 28.4327 60.5961 28.4327C57.0434 28.4327 54.1634 31.3127 54.1634 34.8654C54.1634 38.4181 57.0434 41.2981 60.5961 41.2981ZM60.5961 41.2981C60.5961 46.4163 58.5629 51.3248 54.9438 54.9439C51.3247 58.563 46.4162 60.5962 41.298 60.5962" stroke="#059669" stroke-width="4.28846" stroke-linecap="round" stroke-linejoin="round"/>
</svg>

