<svg width="96" height="96" viewBox="0 0 96 96" fill="none" xmlns="http://www.w3.org/2000/svg">
<rect width="96" height="96" fill="#EEF2FF"/>
<path d="M64.8847 56.3077V37.0096C64.8847 35.8723 64.4329 34.7815 63.6287 33.9772C62.8244 33.173 61.7336 32.7212 60.5963 32.7212H34.8655C33.7281 32.7212 32.6373 33.173 31.8331 33.9772C31.0289 34.7815 30.577 35.8723 30.577 37.0096V56.3077M64.8847 56.3077H30.577M64.8847 56.3077L67.6293 61.7755C67.7947 62.1035 67.8729 62.4685 67.8566 62.8355C67.8403 63.2025 67.7301 63.5591 67.5363 63.8712C67.3426 64.1833 67.072 64.4404 66.7503 64.6179C66.4287 64.7953 66.0669 64.8872 65.6995 64.8846H29.7622C29.3949 64.8872 29.0331 64.7953 28.7114 64.6179C28.3898 64.4404 28.1192 64.1833 27.9254 63.8712C27.7317 63.5591 27.6214 63.2025 27.6051 62.8355C27.5888 62.4685 27.6671 62.1035 27.8324 61.7755L30.577 56.3077" stroke="#4F46E5" stroke-width="4.28846" stroke-linecap="round" stroke-linejoin="round"/>
</svg>

