<svg width="23" height="23" viewBox="0 0 23 23" fill="none" xmlns="http://www.w3.org/2000/svg">
<g clip-path="url(#clip0_270_716)">
<path d="M21.1248 0V10.463H20.708V0.416762H1.44972V10.463H1.03296V0H21.1248ZM20.708 15.1048V18.8663L11.0789 22.2293L1.44972 18.8663V15.1048H1.03296V19.1622L11.0163 22.6488L11.0789 22.6707L21.1248 19.1622V15.1048H20.708Z" fill="url(#paint0_linear_270_716)"/>
<path d="M6.5219 17.2116C6.39421 17.2116 6.26527 17.1669 6.16406 17.0767L6.27373 16.9454C6.34971 17.008 6.42915 17.0478 6.52551 17.0478C6.60148 17.0478 6.64724 17.0178 6.64724 16.9683V16.9659C6.64724 16.9189 6.61826 16.8948 6.4774 16.8586C6.30756 16.8152 6.19789 16.7682 6.19789 16.6007V16.5984C6.19789 16.4453 6.32073 16.3441 6.49306 16.3441C6.61604 16.3441 6.72086 16.3826 6.8064 16.4514L6.71004 16.5911C6.63531 16.5393 6.56183 16.508 6.49071 16.508C6.41958 16.508 6.38229 16.5405 6.38229 16.5814V16.5838C6.38229 16.6393 6.41847 16.6573 6.56419 16.6947C6.73527 16.7394 6.83163 16.8008 6.83163 16.9477V16.9502C6.83163 17.1177 6.70394 17.2117 6.5219 17.2117V17.2116Z" fill="black"/>
<path d="M7.44122 17.2125C7.21468 17.2125 7.07617 17.086 7.07617 16.8377V16.3558H7.26168V16.833C7.26168 16.9704 7.33031 17.0414 7.44358 17.0414C7.55685 17.0414 7.62548 16.9727 7.62548 16.8389V16.3558H7.81098V16.8317C7.81098 17.0873 7.66763 17.2125 7.44108 17.2125H7.44122Z" fill="black"/>
<path d="M8.75579 17.1993V16.6486L8.51843 17.0088H8.51358L8.27858 16.6522V17.1993H8.09668V16.3558H8.29674L8.51843 16.7124L8.74012 16.3558H8.94019V17.1993H8.75579Z" fill="black"/>
<path d="M9.89812 17.1993V16.6486L9.66077 17.0088H9.65591L9.42091 16.6522V17.1993H9.23901V16.3558H9.43908L9.66077 16.7124L9.88246 16.3558H10.0825V17.1993H9.89812Z" fill="black"/>
<path d="M10.3812 17.1993V16.3558H11.0175V16.5209H10.5656V16.692H10.9633V16.8571H10.5656V17.0343H11.0236V17.1994H10.3814L10.3812 17.1993Z" fill="black"/>
<path d="M11.7969 17.1993L11.6161 16.9293H11.4703V17.1993H11.2848V16.3558H11.6704C11.8692 16.3558 11.9884 16.4606 11.9884 16.6342V16.6365C11.9884 16.7727 11.9149 16.8582 11.8076 16.898L12.0136 17.1993H11.7968H11.7969ZM11.8007 16.6437C11.8007 16.5642 11.7452 16.5233 11.6548 16.5233H11.4704V16.7655H11.6584C11.7488 16.7655 11.8007 16.7172 11.8007 16.6462V16.6439V16.6437Z" fill="black"/>
<path d="M12.8091 16.6233L12.6789 16.5185C12.7621 16.4053 12.8428 16.3438 12.9934 16.3438C13.1729 16.3438 13.2837 16.4474 13.2837 16.6053C13.2837 16.7463 13.2115 16.8173 13.062 16.9331L12.9246 17.0391H13.2921V17.1994H12.668V17.0524L12.9487 16.8223C13.0535 16.7355 13.0946 16.6898 13.0946 16.6199C13.0946 16.55 13.0476 16.5102 12.9813 16.5102C12.915 16.5102 12.8716 16.5464 12.809 16.6235L12.8091 16.6233Z" fill="black"/>
<path d="M13.8947 17.2137C13.6695 17.2137 13.5212 17.0246 13.5212 16.7788C13.5212 16.5329 13.6718 16.3413 13.8971 16.3413C14.1224 16.3413 14.2706 16.5304 14.2706 16.7763C14.2706 17.0221 14.12 17.2137 13.8946 17.2137H13.8947ZM13.8947 16.5088C13.7827 16.5088 13.7116 16.6208 13.7116 16.7763C13.7116 16.9317 13.7851 17.0462 13.8971 17.0462C14.0091 17.0462 14.0803 16.9329 14.0803 16.7788C14.0803 16.6246 14.0068 16.5088 13.8947 16.5088Z" fill="black"/>
<path d="M14.6201 16.6233L14.49 16.5185C14.5731 16.4053 14.6538 16.3438 14.8044 16.3438C14.9839 16.3438 15.0947 16.4474 15.0947 16.6053C15.0947 16.7463 15.0225 16.8173 14.873 16.9331L14.7356 17.0391H15.1032V17.1994H14.479V17.0524L14.7598 16.8223C14.8646 16.7355 14.9056 16.6898 14.9056 16.6199C14.9056 16.55 14.8586 16.5102 14.7923 16.5102C14.7261 16.5102 14.6827 16.5464 14.62 16.6235L14.6201 16.6233Z" fill="black"/>
<path d="M15.9058 16.3498V16.8667H16.0191V17.0173H15.9058V17.1992H15.7286V17.0173H15.3166L15.2865 16.886L15.7492 16.3498H15.9058ZM15.7286 16.6041L15.5046 16.8667H15.7286V16.6041Z" fill="black"/>
<path d="M6.5219 17.2116C6.39421 17.2116 6.26527 17.1669 6.16406 17.0767L6.27373 16.9454C6.34971 17.008 6.42915 17.0478 6.52551 17.0478C6.60148 17.0478 6.64724 17.0178 6.64724 16.9683V16.9659C6.64724 16.9189 6.61826 16.8948 6.4774 16.8586C6.30756 16.8152 6.19789 16.7682 6.19789 16.6007V16.5984C6.19789 16.4453 6.32073 16.3441 6.49306 16.3441C6.61604 16.3441 6.72086 16.3826 6.8064 16.4514L6.71004 16.5911C6.63531 16.5393 6.56183 16.508 6.49071 16.508C6.41958 16.508 6.38229 16.5405 6.38229 16.5814V16.5838C6.38229 16.6393 6.41847 16.6573 6.56419 16.6947C6.73527 16.7394 6.83163 16.8008 6.83163 16.9477V16.9502C6.83163 17.1177 6.70394 17.2117 6.5219 17.2117V17.2116Z" fill="black"/>
<path d="M7.44122 17.2125C7.21468 17.2125 7.07617 17.086 7.07617 16.8377V16.3558H7.26168V16.833C7.26168 16.9704 7.33031 17.0414 7.44358 17.0414C7.55685 17.0414 7.62548 16.9727 7.62548 16.8389V16.3558H7.81098V16.8317C7.81098 17.0873 7.66763 17.2125 7.44108 17.2125H7.44122Z" fill="black"/>
<path d="M8.75579 17.1993V16.6486L8.51843 17.0088H8.51358L8.27858 16.6522V17.1993H8.09668V16.3558H8.29674L8.51843 16.7124L8.74012 16.3558H8.94019V17.1993H8.75579Z" fill="black"/>
<path d="M9.89812 17.1993V16.6486L9.66077 17.0088H9.65591L9.42091 16.6522V17.1993H9.23901V16.3558H9.43908L9.66077 16.7124L9.88246 16.3558H10.0825V17.1993H9.89812Z" fill="black"/>
<path d="M10.3812 17.1993V16.3558H11.0175V16.5209H10.5656V16.692H10.9633V16.8571H10.5656V17.0343H11.0236V17.1994H10.3814L10.3812 17.1993Z" fill="black"/>
<path d="M11.7969 17.1993L11.6161 16.9293H11.4703V17.1993H11.2848V16.3558H11.6704C11.8692 16.3558 11.9884 16.4606 11.9884 16.6342V16.6365C11.9884 16.7727 11.9149 16.8582 11.8076 16.898L12.0136 17.1993H11.7968H11.7969ZM11.8007 16.6437C11.8007 16.5642 11.7452 16.5233 11.6548 16.5233H11.4704V16.7655H11.6584C11.7488 16.7655 11.8007 16.7172 11.8007 16.6462V16.6439V16.6437Z" fill="black"/>
<path d="M12.8091 16.6233L12.6789 16.5185C12.7621 16.4053 12.8428 16.3438 12.9934 16.3438C13.1729 16.3438 13.2837 16.4474 13.2837 16.6053C13.2837 16.7463 13.2115 16.8173 13.062 16.9331L12.9246 17.0391H13.2921V17.1994H12.668V17.0524L12.9487 16.8223C13.0535 16.7355 13.0946 16.6898 13.0946 16.6199C13.0946 16.55 13.0476 16.5102 12.9813 16.5102C12.915 16.5102 12.8716 16.5464 12.809 16.6235L12.8091 16.6233Z" fill="black"/>
<path d="M13.8947 17.2137C13.6695 17.2137 13.5212 17.0246 13.5212 16.7788C13.5212 16.5329 13.6718 16.3413 13.8971 16.3413C14.1224 16.3413 14.2706 16.5304 14.2706 16.7763C14.2706 17.0221 14.12 17.2137 13.8946 17.2137H13.8947ZM13.8947 16.5088C13.7827 16.5088 13.7116 16.6208 13.7116 16.7763C13.7116 16.9317 13.7851 17.0462 13.8971 17.0462C14.0091 17.0462 14.0803 16.9329 14.0803 16.7788C14.0803 16.6246 14.0068 16.5088 13.8947 16.5088Z" fill="black"/>
<path d="M14.6201 16.6233L14.49 16.5185C14.5731 16.4053 14.6538 16.3438 14.8044 16.3438C14.9839 16.3438 15.0947 16.4474 15.0947 16.6053C15.0947 16.7463 15.0225 16.8173 14.873 16.9331L14.7356 17.0391H15.1032V17.1994H14.479V17.0524L14.7598 16.8223C14.8646 16.7355 14.9056 16.6898 14.9056 16.6199C14.9056 16.55 14.8586 16.5102 14.7923 16.5102C14.7261 16.5102 14.6827 16.5464 14.62 16.6235L14.6201 16.6233Z" fill="black"/>
<path d="M15.9058 16.3498V16.8667H16.0191V17.0173H15.9058V17.1992H15.7286V17.0173H15.3166L15.2865 16.886L15.7492 16.3498H15.9058ZM15.7286 16.6041L15.5046 16.8667H15.7286V16.6041Z" fill="black"/>
<path d="M3.37217 8.21074H2.47986V7.4884H5.08899V8.21074H4.19654V10.4629H3.37217V8.21074Z" fill="black"/>
<path d="M6.09607 7.46719H6.89077L8.15714 10.463H7.27329L7.05659 9.93186H5.90931L5.69677 10.463H4.82983L6.0962 7.46719H6.09607ZM6.81854 9.29008L6.48704 8.44449L6.15138 9.29008H6.81854Z" fill="black"/>
<path d="M8.44629 7.48842H9.27066V9.74055H10.7112V10.4629H8.44629V7.48828V7.48842Z" fill="black"/>
<path d="M11.064 7.48842H13.4564V8.18954H11.8799V8.63999H13.3076V9.29009H11.8799V9.76176H13.4776V10.4629H11.064V7.48828V7.48842Z" fill="black"/>
<path d="M13.8984 7.4884H14.6676L15.8914 9.06062V7.4884H16.7074V10.463H15.9849L14.7144 8.83117V10.463H13.8984V7.4884Z" fill="black"/>
<path d="M17.961 8.21074H17.0687V7.4884H19.6779V8.21074H18.7855V10.4629H17.9612V8.21074H17.961Z" fill="black"/>
<path d="M0.00012207 12.7924V12.7839C0.00012207 11.9297 0.688487 11.2371 1.60645 11.2371C2.52441 11.2371 3.20417 11.9213 3.20417 12.7753V12.7838C3.20417 13.638 2.51581 14.3306 1.59785 14.3306C0.679891 14.3306 0.00012207 13.6465 0.00012207 12.7924ZM2.36275 12.7924V12.7839C2.36275 12.3547 2.0526 11.9807 1.59785 11.9807C1.1431 11.9807 0.845709 12.3462 0.845709 12.7754V12.7839C0.845709 13.2131 1.15585 13.5871 1.60631 13.5871C2.05676 13.5871 2.36275 13.2216 2.36275 12.7924Z" fill="black"/>
<path d="M3.63354 11.2965H4.45792V13.5487H5.89843V14.2711H3.63354V11.2965Z" fill="black"/>
<path d="M6.55724 13.1578L5.42688 11.2965H6.36605L6.97802 12.3802L7.59416 11.2965H8.51627L7.38591 13.1451V14.2711H6.55724V13.1578Z" fill="black"/>
<path d="M8.77136 11.2965H9.64246L10.3522 12.4481L11.0619 11.2965H11.933V14.2711H11.1129V12.5629L10.3523 13.7272H10.3353L9.57882 12.5714V14.2711H8.7715V11.2965H8.77136Z" fill="black"/>
<path d="M12.46 11.2965H13.7348C14.4869 11.2965 14.9713 11.6832 14.9713 12.3419V12.3504C14.9713 13.0515 14.4317 13.4213 13.6922 13.4213H13.2843V14.2711H12.46V11.2965ZM13.6753 12.7753C13.9685 12.7753 14.147 12.6224 14.147 12.3886V12.3802C14.147 12.1252 13.9685 11.9892 13.671 11.9892H13.2843V12.7753H13.6753Z" fill="black"/>
<path d="M15.3369 11.2965H16.1656V14.2711H15.3369V11.2965Z" fill="black"/>
<path d="M16.6074 12.7924V12.7839C16.6074 11.917 17.2746 11.2371 18.1755 11.2371C18.7832 11.2371 19.1741 11.492 19.4376 11.8575L18.8171 12.3378C18.6471 12.1254 18.4517 11.9893 18.167 11.9893C17.7505 11.9893 17.4573 12.3421 17.4573 12.7754V12.7839C17.4573 13.2301 17.7505 13.5786 18.167 13.5786C18.4772 13.5786 18.6599 13.4341 18.8385 13.2174L19.4589 13.6594C19.1784 14.0461 18.8002 14.3309 18.1415 14.3309C17.2916 14.3309 16.6074 13.6808 16.6074 12.7926V12.7924Z" fill="black"/>
<path d="M19.5865 13.8293L20.0455 13.2811C20.3387 13.5148 20.6659 13.6381 21.01 13.6381C21.231 13.6381 21.35 13.5616 21.35 13.4342V13.4257C21.35 13.3024 21.2522 13.2345 20.8485 13.1409C20.2153 12.9965 19.7267 12.818 19.7267 12.2061V12.1976C19.7267 11.6451 20.1644 11.2457 20.8783 11.2457C21.3839 11.2457 21.7792 11.3817 22.1021 11.6409L21.6899 12.2231C21.4179 12.0319 21.1205 11.9299 20.8571 11.9299C20.6574 11.9299 20.5597 12.0149 20.5597 12.1211V12.1295C20.5597 12.2655 20.6616 12.325 21.0739 12.4185C21.7581 12.5672 22.1831 12.7882 22.1831 13.3449V13.3533C22.1831 13.961 21.7028 14.3222 20.9805 14.3222C20.4535 14.3222 19.952 14.1565 19.5867 13.8293H19.5865Z" fill="black"/>
<path d="M0.00012207 12.7924V12.7839C0.00012207 11.9297 0.688487 11.2371 1.60645 11.2371C2.52441 11.2371 3.20417 11.9213 3.20417 12.7753V12.7838C3.20417 13.638 2.51581 14.3306 1.59785 14.3306C0.679891 14.3306 0.00012207 13.6465 0.00012207 12.7924ZM2.36275 12.7924V12.7839C2.36275 12.3547 2.0526 11.9807 1.59785 11.9807C1.1431 11.9807 0.845709 12.3462 0.845709 12.7754V12.7839C0.845709 13.2131 1.15585 13.5871 1.60631 13.5871C2.05676 13.5871 2.36275 13.2216 2.36275 12.7924Z" fill="black"/>
<path d="M3.63354 11.2965H4.45792V13.5487H5.89843V14.2711H3.63354V11.2965Z" fill="black"/>
<path d="M6.55724 13.1578L5.42688 11.2965H6.36605L6.97802 12.3802L7.59416 11.2965H8.51627L7.38591 13.1451V14.2711H6.55724V13.1578Z" fill="black"/>
<path d="M8.77136 11.2965H9.64246L10.3522 12.4481L11.0619 11.2965H11.933V14.2711H11.1129V12.5629L10.3523 13.7272H10.3353L9.57882 12.5714V14.2711H8.7715V11.2965H8.77136Z" fill="black"/>
<path d="M12.46 11.2965H13.7348C14.4869 11.2965 14.9713 11.6832 14.9713 12.3419V12.3504C14.9713 13.0515 14.4317 13.4213 13.6922 13.4213H13.2843V14.2711H12.46V11.2965ZM13.6753 12.7753C13.9685 12.7753 14.147 12.6224 14.147 12.3886V12.3802C14.147 12.1252 13.9685 11.9892 13.671 11.9892H13.2843V12.7753H13.6753Z" fill="black"/>
<path d="M15.3369 11.2965H16.1656V14.2711H15.3369V11.2965Z" fill="black"/>
<path d="M16.6074 12.7924V12.7839C16.6074 11.917 17.2746 11.2371 18.1755 11.2371C18.7832 11.2371 19.1741 11.492 19.4376 11.8575L18.8171 12.3378C18.6471 12.1254 18.4517 11.9893 18.167 11.9893C17.7505 11.9893 17.4573 12.3421 17.4573 12.7754V12.7839C17.4573 13.2301 17.7505 13.5786 18.167 13.5786C18.4772 13.5786 18.6599 13.4341 18.8385 13.2174L19.4589 13.6594C19.1784 14.0461 18.8002 14.3309 18.1415 14.3309C17.2916 14.3309 16.6074 13.6808 16.6074 12.7926V12.7924Z" fill="black"/>
<path d="M19.5865 13.8293L20.0455 13.2811C20.3387 13.5148 20.6659 13.6381 21.01 13.6381C21.231 13.6381 21.35 13.5616 21.35 13.4342V13.4257C21.35 13.3024 21.2522 13.2345 20.8485 13.1409C20.2153 12.9965 19.7267 12.818 19.7267 12.2061V12.1976C19.7267 11.6451 20.1644 11.2457 20.8783 11.2457C21.3839 11.2457 21.7792 11.3817 22.1021 11.6409L21.6899 12.2231C21.4179 12.0319 21.1205 11.9299 20.8571 11.9299C20.6574 11.9299 20.5597 12.0149 20.5597 12.1211V12.1295C20.5597 12.2655 20.6616 12.325 21.0739 12.4185C21.7581 12.5672 22.1831 12.7882 22.1831 13.3449V13.3533C22.1831 13.961 21.7028 14.3222 20.9805 14.3222C20.4535 14.3222 19.952 14.1565 19.5867 13.8293H19.5865Z" fill="black"/>
<path d="M9.81451 4.88428H9.31151V4.71693H9.94553V4.54959H9.31026C9.26617 4.54959 9.22402 4.56706 9.19283 4.59826C9.16163 4.62945 9.14417 4.6716 9.14417 4.71569V4.88539C9.14417 4.90715 9.14846 4.92878 9.15678 4.94888C9.1651 4.96899 9.1773 4.98729 9.19283 5.00282C9.22402 5.03401 9.26617 5.05148 9.31026 5.05148H9.81326V5.21882H9.15609V5.38617H9.81451C9.8586 5.38617 9.90074 5.3687 9.93194 5.3375C9.96313 5.30631 9.9806 5.26416 9.9806 5.22007V5.05037C9.9806 5.0286 9.9763 5.00698 9.96799 4.98687C9.95967 4.96677 9.94747 4.94847 9.93194 4.93294C9.91655 4.91755 9.89825 4.90535 9.87801 4.89689C9.8579 4.88857 9.83627 4.88428 9.81437 4.88428H9.81451Z" fill="#231F20"/>
<path d="M10.788 4.54971H10.2836C10.2396 4.54971 10.1974 4.56718 10.1662 4.59838C10.135 4.62957 10.1176 4.67172 10.1176 4.71581V5.22005C10.1176 5.26414 10.135 5.30629 10.1662 5.33749C10.1974 5.36868 10.2396 5.38615 10.2836 5.38615H10.788C10.8098 5.38615 10.8314 5.38185 10.8515 5.37353C10.8716 5.36521 10.8899 5.35301 10.9053 5.33749C10.9207 5.3221 10.9329 5.3038 10.9412 5.28355C10.9496 5.26345 10.9539 5.24182 10.9539 5.22005V4.71581C10.9539 4.69404 10.9496 4.67241 10.9412 4.65231C10.9329 4.63221 10.9207 4.61391 10.9053 4.59838C10.8899 4.58299 10.8716 4.57065 10.8515 4.56233C10.8314 4.55401 10.8098 4.54971 10.788 4.54971ZM10.7868 5.21881H10.2849V4.71692H10.7868V5.21881Z" fill="#231F20"/>
<path d="M12.5555 4.54971H12.0626C12.0408 4.54971 12.0192 4.55401 11.9991 4.56233C11.979 4.57065 11.9607 4.58285 11.9451 4.59838C11.9298 4.61377 11.9174 4.63207 11.9091 4.65231C11.9008 4.67241 11.8965 4.69404 11.8965 4.71581V5.38615H12.0638V5.11136H12.5538V5.38615H12.7211V4.71581C12.7211 4.67186 12.7037 4.62971 12.6727 4.59852C12.6417 4.56732 12.5997 4.54985 12.5557 4.54971H12.5555ZM12.5543 4.94402H12.0644V4.71692H12.5543V4.94402Z" fill="#231F20"/>
<path d="M14.5142 4.54971H14.0214C13.9774 4.54985 13.9353 4.56746 13.9043 4.59852C13.8733 4.62971 13.856 4.67186 13.856 4.71581V5.38615H14.0233V5.11136H14.5133V5.38615H14.6806V4.71581C14.6806 4.69404 14.6763 4.67241 14.668 4.65231C14.6597 4.63221 14.6475 4.61391 14.6319 4.59838C14.6166 4.58299 14.5983 4.57079 14.578 4.56233C14.5579 4.55401 14.5363 4.54971 14.5145 4.54971H14.5142ZM14.513 4.94402H14.023V4.71692H14.513V4.94402Z" fill="#231F20"/>
<path d="M13.5397 5.21881H13.4727L13.2337 4.61931C13.2254 4.59866 13.2111 4.58091 13.1925 4.56857C13.1741 4.55609 13.1523 4.54958 13.13 4.54972H12.9806C12.9513 4.54972 12.9231 4.56136 12.9023 4.58216C12.8815 4.60295 12.8699 4.6311 12.8699 4.66035V5.38615H13.0372V4.71706H13.1042L13.344 5.31655C13.3522 5.33721 13.3665 5.35482 13.3849 5.3673C13.4034 5.37977 13.425 5.38629 13.4472 5.38615H13.5965C13.6111 5.38615 13.6255 5.38324 13.6388 5.37769C13.6522 5.37215 13.6644 5.36397 13.6747 5.35371C13.685 5.34345 13.6931 5.33125 13.6987 5.3178C13.7042 5.30435 13.7071 5.28993 13.7071 5.27551V4.54972H13.5398L13.5394 5.21881H13.5397Z" fill="#231F20"/>
<path d="M11.2702 4.54971H11.1029V5.22005C11.1029 5.26414 11.1204 5.30629 11.1516 5.33749C11.1828 5.36868 11.2249 5.38615 11.269 5.38615H11.772V5.21881H11.2701V4.54971H11.2702Z" fill="#231F20"/>
<path d="M8.67366 5.27815L8.47512 5.49069C8.47083 5.4954 8.46556 5.49901 8.45973 5.50164C8.45391 5.50428 8.44767 5.50553 8.4413 5.50566H7.50032C7.49588 5.50566 7.49145 5.50428 7.4877 5.50178C7.48396 5.49929 7.48105 5.49582 7.47925 5.49166C7.47745 5.4875 7.47689 5.48307 7.47758 5.47863C7.47828 5.47419 7.48036 5.47003 7.48341 5.46684L7.68194 5.25403C7.68624 5.24931 7.69151 5.24571 7.69733 5.24307C7.70316 5.24044 7.7094 5.23919 7.71577 5.23905H8.65675C8.66132 5.23905 8.66576 5.2403 8.6695 5.2428C8.67325 5.24529 8.6763 5.2489 8.6781 5.25306C8.6799 5.25722 8.68046 5.26179 8.67962 5.26637C8.67879 5.2708 8.67671 5.27496 8.67352 5.27829L8.67366 5.27815ZM8.47512 4.84946C8.47083 4.84475 8.46556 4.84101 8.45973 4.83851C8.45391 4.83588 8.44767 4.83463 8.4413 4.83449H7.50032C7.49588 4.83449 7.49145 4.83574 7.4877 4.83823C7.48396 4.84073 7.48105 4.8442 7.47925 4.84836C7.47745 4.85251 7.47689 4.85695 7.47772 4.86139C7.47842 4.86582 7.4805 4.86984 7.48355 4.87317L7.68208 5.08627C7.68638 5.09098 7.69165 5.09472 7.69747 5.09722C7.7033 5.09985 7.70953 5.1011 7.71591 5.10124H8.65689C8.66132 5.10124 8.66576 5.09999 8.6695 5.0975C8.67325 5.095 8.67616 5.09154 8.67796 5.08738C8.67976 5.08322 8.68032 5.07878 8.67948 5.07434C8.67879 5.06991 8.67671 5.06589 8.67366 5.06256L8.47512 4.84946ZM7.50046 4.69654H8.44143C8.44781 4.69654 8.45405 4.69515 8.45987 4.69252C8.4657 4.68989 8.47096 4.68628 8.47526 4.68157L8.6738 4.46903C8.67685 4.4657 8.67879 4.46168 8.67962 4.45724C8.68032 4.4528 8.67976 4.44823 8.6781 4.44421C8.6763 4.44005 8.67338 4.43658 8.66964 4.43409C8.6659 4.43159 8.66146 4.43034 8.65702 4.43021H7.71605C7.70967 4.43021 7.70343 4.43159 7.69761 4.43423C7.69179 4.43686 7.68652 4.44047 7.68222 4.44518L7.48368 4.65772C7.48063 4.66105 7.47869 4.66507 7.47786 4.6695C7.47717 4.67394 7.47772 4.67852 7.47952 4.68254C7.48133 4.6867 7.48424 4.69016 7.48798 4.69266C7.49173 4.69515 7.49616 4.6964 7.5006 4.69654H7.50046Z" fill="url(#paint1_linear_270_716)"/>
</g>
<defs>
<linearGradient id="paint0_linear_270_716" x1="1.1863" y1="19.0381" x2="20.9739" y2="0.12145" gradientUnits="userSpaceOnUse">
<stop offset="0.08" stop-color="#9945FF"/>
<stop offset="0.3" stop-color="#8752F3"/>
<stop offset="0.5" stop-color="#5497D5"/>
<stop offset="0.6" stop-color="#43B4CA"/>
<stop offset="0.72" stop-color="#28E0B9"/>
<stop offset="0.97" stop-color="#19FB9B"/>
</linearGradient>
<linearGradient id="paint1_linear_270_716" x1="7.57879" y1="5.53131" x2="8.56566" y2="4.41884" gradientUnits="userSpaceOnUse">
<stop offset="0.08" stop-color="#9945FF"/>
<stop offset="0.3" stop-color="#8752F3"/>
<stop offset="0.5" stop-color="#5497D5"/>
<stop offset="0.6" stop-color="#43B4CA"/>
<stop offset="0.72" stop-color="#28E0B9"/>
<stop offset="0.97" stop-color="#19FB9B"/>
</linearGradient>
<clipPath id="clip0_270_716">
<rect width="22.183" height="22.6706" fill="white"/>
</clipPath>
</defs>
</svg>
