<svg width="31" height="32" viewBox="0 0 31 32" fill="none" xmlns="http://www.w3.org/2000/svg">
<g clip-path="url(#clip0_270_716)">
<path d="M4.71255 11.5897H3.46558V10.5701H7.11176V11.5897H5.86459V14.7686H4.71255V11.5897Z" fill="#6366F1"/>
<path d="M8.51915 10.5401H9.62973L11.3994 14.7688H10.1643L9.86145 14.0191H8.25817L7.96115 14.7688H6.74963L8.51935 10.5401H8.51915ZM9.52878 13.1132L9.06553 11.9196L8.59646 13.1132H9.52878Z" fill="#6366F1"/>
<path d="M11.8033 10.5701H12.9554V13.749H14.9684V14.7686H11.8033V10.5699V10.5701Z" fill="#6366F1"/>
<path d="M15.4615 10.5701H18.8049V11.5597H16.6018V12.1956H18.597V13.1132H16.6018V13.7789H18.8345V14.7686H15.4615V10.5699V10.5701Z" fill="#6366F1"/>
<path d="M19.4226 10.5701H20.4975L22.2078 12.7893V10.5701H23.348V14.7688H22.3383L20.5628 12.4654V14.7688H19.4226V10.5701Z" fill="#6366F1"/>
<path d="M25.1 11.5897H23.853V10.5701H27.4992V11.5897H26.2522V14.7686H25.1002V11.5897H25.1Z" fill="#6366F1"/>
<path d="M0.00012207 18.0567V18.0448C0.00012207 16.8391 0.962091 15.8614 2.24491 15.8614C3.52773 15.8614 4.47768 16.8271 4.47768 18.0326V18.0446C4.47768 19.2503 3.51572 20.228 2.2329 20.228C0.950078 20.228 0.00012207 19.2624 0.00012207 18.0567ZM3.30182 18.0567V18.0448C3.30182 17.4389 2.8684 16.9111 2.2329 16.9111C1.5974 16.9111 1.1818 17.4269 1.1818 18.0328V18.0448C1.1818 18.6506 1.61522 19.1784 2.24472 19.1784C2.87421 19.1784 3.30182 18.6626 3.30182 18.0567Z" fill="#6366F1"/>
<path d="M5.07764 15.9453H6.22967V19.1242H8.24274V20.144H5.07764V15.9453Z" fill="#6366F1"/>
<path d="M9.16338 18.5726L7.58374 15.9453H8.8962L9.75141 17.4749L10.6124 15.9453H11.9011L10.3214 18.5546V20.144H9.16338V18.5726Z" fill="#6366F1"/>
<path d="M12.2577 15.9453H13.475L14.4668 17.5708L15.4586 15.9453H16.676V20.144H15.5299V17.7328L14.467 19.3763H14.4432L13.3861 17.7448V20.144H12.2579V15.9453H12.2577Z" fill="#6366F1"/>
<path d="M17.4124 15.9453H19.1939C20.245 15.9453 20.9219 16.4911 20.9219 17.4209V17.4328C20.9219 18.4225 20.1679 18.9444 19.1344 18.9444H18.5644V20.144H17.4124V15.9453ZM19.1108 18.0326C19.5205 18.0326 19.7699 17.8168 19.7699 17.4868V17.4749C19.7699 17.115 19.5205 16.923 19.1048 16.923H18.5644V18.0326H19.1108Z" fill="#6366F1"/>
<path d="M21.4329 15.9453H22.5909V20.144H21.4329V15.9453Z" fill="#6366F1"/>
<path d="M23.2084 18.0567V18.0448C23.2084 16.8211 24.1407 15.8614 25.3997 15.8614C26.2489 15.8614 26.7953 16.2212 27.1634 16.7371L26.2964 17.415C26.0588 17.1152 25.7856 16.9232 25.3879 16.9232C24.8058 16.9232 24.3961 17.4211 24.3961 18.0328V18.0448C24.3961 18.6745 24.8058 19.1665 25.3879 19.1665C25.8213 19.1665 26.0766 18.9626 26.3262 18.6567L27.1932 19.2806C26.8013 19.8264 26.2727 20.2284 25.3522 20.2284C24.1645 20.2284 23.2084 19.3107 23.2084 18.0571V18.0567Z" fill="#6366F1"/>
<path d="M27.3715 19.5203L28.0128 18.7466C28.4226 19.0765 28.8798 19.2505 29.3607 19.2505C29.6695 19.2505 29.8358 19.1424 29.8358 18.9626V18.9507C29.8358 18.7767 29.6992 18.6808 29.135 18.5487C28.2501 18.3448 27.5673 18.0929 27.5673 17.2291V17.2172C27.5673 16.4373 28.179 15.8735 29.1766 15.8735C29.8832 15.8735 30.4356 16.0655 30.8869 16.4314L30.3108 17.2532C29.9307 16.9833 29.5151 16.8393 29.147 16.8393C28.868 16.8393 28.7314 16.9592 28.7314 17.1091V17.1211C28.7314 17.3131 28.8738 17.397 29.45 17.5289C30.4062 17.7389 31 18.0508 31 18.8366V18.8485C31 19.7063 30.3289 20.2161 29.3194 20.2161C28.583 20.2161 27.8822 19.9822 27.3717 19.5203H27.3715Z" fill="#6366F1"/>
<path d="M0.00012207 18.0567V18.0448C0.00012207 16.8391 0.962091 15.8614 2.24491 15.8614C3.52773 15.8614 4.47768 16.8271 4.47768 18.0326V18.0446C4.47768 19.2503 3.51572 20.228 2.2329 20.228C0.950078 20.228 0.00012207 19.2624 0.00012207 18.0567ZM3.30182 18.0567V18.0448C3.30182 17.4389 2.8684 16.9111 2.2329 16.9111C1.5974 16.9111 1.1818 17.4269 1.1818 18.0328V18.0448C1.1818 18.6506 1.61522 19.1784 2.24472 19.1784C2.87421 19.1784 3.30182 18.6626 3.30182 18.0567Z" fill="#6366F1"/>
<path d="M5.07764 15.9453H6.22967V19.1242H8.24274V20.144H5.07764V15.9453Z" fill="#6366F1"/>
<path d="M9.16338 18.5726L7.58374 15.9453H8.8962L9.75141 17.4749L10.6124 15.9453H11.9011L10.3214 18.5546V20.144H9.16338V18.5726Z" fill="#6366F1"/>
<path d="M12.2577 15.9453H13.475L14.4668 17.5708L15.4586 15.9453H16.676V20.144H15.5299V17.7328L14.467 19.3763H14.4432L13.3861 17.7448V20.144H12.2579V15.9453H12.2577Z" fill="#6366F1"/>
<path d="M17.4124 15.9453H19.1939C20.245 15.9453 20.9219 16.4911 20.9219 17.4209V17.4328C20.9219 18.4225 20.1679 18.9444 19.1344 18.9444H18.5644V20.144H17.4124V15.9453ZM19.1108 18.0326C19.5205 18.0326 19.7699 17.8168 19.7699 17.4868V17.4749C19.7699 17.115 19.5205 16.923 19.1048 16.923H18.5644V18.0326H19.1108Z" fill="#6366F1"/>
<path d="M21.4329 15.9453H22.5909V20.144H21.4329V15.9453Z" fill="#6366F1"/>
<path d="M23.2084 18.0567V18.0448C23.2084 16.8211 24.1407 15.8614 25.3997 15.8614C26.2489 15.8614 26.7953 16.2212 27.1634 16.7371L26.2964 17.415C26.0588 17.1152 25.7856 16.9232 25.3879 16.9232C24.8058 16.9232 24.3961 17.4211 24.3961 18.0328V18.0448C24.3961 18.6745 24.8058 19.1665 25.3879 19.1665C25.8213 19.1665 26.0766 18.9626 26.3262 18.6567L27.1932 19.2806C26.8013 19.8264 26.2727 20.2284 25.3522 20.2284C24.1645 20.2284 23.2084 19.3107 23.2084 18.0571V18.0567Z" fill="#6366F1"/>
<path d="M27.3715 19.5203L28.0128 18.7466C28.4226 19.0765 28.8798 19.2505 29.3607 19.2505C29.6695 19.2505 29.8358 19.1424 29.8358 18.9626V18.9507C29.8358 18.7767 29.6992 18.6808 29.135 18.5487C28.2501 18.3448 27.5673 18.0929 27.5673 17.2291V17.2172C27.5673 16.4373 28.179 15.8735 29.1766 15.8735C29.8832 15.8735 30.4356 16.0655 30.8869 16.4314L30.3108 17.2532C29.9307 16.9833 29.5151 16.8393 29.147 16.8393C28.868 16.8393 28.7314 16.9592 28.7314 17.1091V17.1211C28.7314 17.3131 28.8738 17.397 29.45 17.5289C30.4062 17.7389 31 18.0508 31 18.8366V18.8485C31 19.7063 30.3289 20.2161 29.3194 20.2161C28.583 20.2161 27.8822 19.9822 27.3717 19.5203H27.3715Z" fill="#6366F1"/>
</g>
<defs>
<clipPath id="clip0_270_716">
<rect width="31" height="32" fill="white"/>
</clipPath>
</defs>
</svg>
