<svg width="75" height="12" viewBox="0 0 75 12" fill="none" xmlns="http://www.w3.org/2000/svg">
<path d="M1.32619 2.7831H0.134617V1.74695H3.65752V2.7831H2.46595V9H1.32619V2.7831ZM4.6145 1.74695H6.15837L7.33958 9H6.19981L5.99258 7.55975V7.58048H4.6974L4.49017 9H3.43329L4.6145 1.74695ZM5.85788 6.59613L5.35017 3.01106H5.32945L4.8321 6.59613H5.85788ZM7.89254 1.74695H9.03231V7.96385H10.9077V9H7.89254V1.74695ZM11.4543 1.74695H14.5628V2.7831H12.5941V4.69998H14.1587V5.73613H12.5941V7.96385H14.5628V9H11.4543V1.74695ZM15.2184 1.74695H16.6483L17.757 6.08842H17.7777V1.74695H18.7932V9H17.6223L16.2546 3.70528H16.2339V9H15.2184V1.74695ZM20.5314 2.7831H19.3398V1.74695H22.8627V2.7831H21.6711V9H20.5314V2.7831Z" fill="#6366F1"/>
<path d="M29.3286 3.831L28.9944 6.54136H31.7047L32.039 3.831H29.3286ZM27.7431 2.02409H34.0672L33.2903 8.34827H26.9661L27.7431 2.02409ZM34.519 2.02409H36.3259L35.7703 6.54136H40.2875L40.0662 8.34827H33.742L34.519 2.02409ZM40.8612 5.56111L38.8781 3.30248L39.0362 2.02409H40.3146L41.9679 3.90779L44.082 2.02409H46.6388L42.6681 5.56111L42.3248 8.34827H40.5179L40.8612 5.56111ZM51.3594 8.34827H49.5524L50.1081 3.831H49.6563L49.1007 8.34827H47.2938L47.8494 3.831H47.3977L46.8421 8.34827H45.0352L45.8121 2.02409H52.1363L51.3594 8.34827ZM52.5881 2.02409H58.9122L58.4108 6.08963H53.8935L53.618 8.34827H51.8111L52.5881 2.02409ZM54.1736 3.831L54.1194 4.28272H56.8298L56.884 3.831H54.1736ZM60.3939 8.34827H58.587L59.364 2.02409H61.1709L60.3939 8.34827ZM62.8739 6.54136H67.3911L67.1698 8.34827H60.8456L61.6226 2.02409H67.9468L67.7254 3.831H63.2082L62.8739 6.54136ZM74.7227 2.02409L74.5013 3.831H69.9841L69.9298 4.28272H74.4471L73.9457 8.34827H67.6215L67.8429 6.54136H72.3601L72.4143 6.08963H67.8971L68.3985 2.02409H74.7227Z" fill="#64748B"/>
</svg>
