<svg width="96" height="96" viewBox="0 0 96 96" fill="none" xmlns="http://www.w3.org/2000/svg">
<rect width="96" height="96" fill="#EEF2FF"/>
<path d="M64.8846 43.4423V37.0096L54.1634 26.2885H34.8654C33.728 26.2885 32.6372 26.7403 31.833 27.5445C31.0287 28.3488 30.5769 29.4396 30.5769 30.5769V64.8846C30.5769 66.022 31.0287 67.1128 31.833 67.917C32.6372 68.7213 33.728 69.1731 34.8654 69.1731H43.4423M52.0192 26.2885V34.8654C52.0192 36.0028 52.471 37.0935 53.2753 37.8978C54.0795 38.702 55.1703 39.1539 56.3077 39.1539H64.8846M56.3077 52.0192C55.1703 52.0192 54.0795 52.4711 53.2753 53.2753C52.471 54.0795 52.0192 55.1703 52.0192 56.3077M64.8846 52.0192C66.022 52.0192 67.1128 52.4711 67.917 53.2753C68.7212 54.0795 69.1731 55.1703 69.1731 56.3077M64.8846 69.1731C66.022 69.1731 67.1128 68.7213 67.917 67.917C68.7212 67.1128 69.1731 66.022 69.1731 64.8846M56.3077 69.1731C55.1703 69.1731 54.0795 68.7213 53.2753 67.917C52.471 67.1128 52.0192 66.022 52.0192 64.8846" stroke="#4F46E5" stroke-width="4.28846" stroke-linecap="round" stroke-linejoin="round"/>
</svg>
