<svg width="18" height="18" viewBox="0 0 18 18" fill="none" xmlns="http://www.w3.org/2000/svg">
<path fill-rule="evenodd" clip-rule="evenodd" d="M4.3802 6C3.27563 6 2.3802 6.89543 2.3802 8V13C2.3802 14.1046 3.27563 15 4.3802 15H13.6199C14.7244 15 15.6199 14.1046 15.6199 13V8C15.6199 6.89543 14.7244 6 13.6199 6H4.3802ZM8 7.5C7.72385 7.5 7.5 7.72386 7.5 8V8.5C7.5 8.77614 7.72385 9 8 9H10C10.2761 9 10.5 8.77614 10.5 8.5V8C10.5 7.72386 10.2761 7.5 10 7.5H8Z" fill="#5855FF"/>
<path opacity="0.3" d="M7.5 6H6V5.25C6 4.00736 7.00736 3 8.25 3H9.75C10.9926 3 12 4.00736 12 5.25V6H10.5V5.25C10.5 4.83579 10.1642 4.5 9.75 4.5H8.25C7.83579 4.5 7.5 4.83579 7.5 5.25V6Z" fill="#5855FF"/>
</svg>
