
<svg width="20" height="20" viewBox="0 0 20 20" fill="none" xmlns="http://www.w3.org/2000/svg">
<path fill-rule="evenodd" clip-rule="evenodd" d="M9.99998 3.33333C8.15831 3.33333 6.66665 4.82499 6.66665 6.66666C6.66665 8.50833 8.15831 10 9.99998 10C11.8416 10 13.3333 8.50833 13.3333 6.66666C13.3333 4.82499 11.8416 3.33333 9.99998 3.33333ZM11.75 6.66666C11.75 5.69999 10.9666 4.91666 9.99998 4.91666C9.03331 4.91666 8.24998 5.69999 8.24998 6.66666C8.24998 7.63333 9.03331 8.41666 9.99998 8.41666C10.9666 8.41666 11.75 7.63333 11.75 6.66666ZM15.0833 14.1667C15.0833 13.6333 12.475 12.4167 9.99998 12.4167C7.52498 12.4167 4.91665 13.6333 4.91665 14.1667V15.0833H15.0833V14.1667ZM3.33331 14.1667C3.33331 11.95 7.77498 10.8333 9.99998 10.8333C12.225 10.8333 16.6666 11.95 16.6666 14.1667V16.6667H3.33331V14.1667Z" fill="#6562FF"/>
</svg>
