<svg width="65" height="65" viewBox="0 0 65 65" fill="none" xmlns="http://www.w3.org/2000/svg">
<circle cx="32.5" cy="32.5" r="32.5" fill="#ABFAFF"/>
<path fill-rule="evenodd" clip-rule="evenodd" d="M36.0833 24.75V22.1667H30.9167V24.75H36.0833ZM23.1667 27.3333V41.5417H43.8333V27.3333H23.1667ZM43.8333 24.75C45.2671 24.75 46.4167 25.8996 46.4167 27.3333V41.5417C46.4167 42.9754 45.2671 44.125 43.8333 44.125H23.1667C21.7329 44.125 20.5833 42.9754 20.5833 41.5417L20.5962 27.3333C20.5962 25.8996 21.7329 24.75 23.1667 24.75H28.3333V22.1667C28.3333 20.7329 29.4829 19.5833 30.9167 19.5833H36.0833C37.5171 19.5833 38.6667 20.7329 38.6667 22.1667V24.75H43.8333Z" fill="#1D87B5"/>
</svg>
