
<svg width="25" height="25" viewBox="0 0 25 25" fill="none" xmlns="http://www.w3.org/2000/svg">
<g clip-path="url(#clip0_2513_15387)">
<path d="M12.5317 25C12.1375 25 11.8042 24.7145 11.7087 24.332C11.4044 23.1129 10.8218 21.8164 9.96094 20.4428C8.94098 18.7934 7.48697 17.2635 5.59896 15.8529C3.95686 14.6117 2.31476 13.7654 0.672673 13.3139C0.283756 13.207 0 12.8621 0 12.4588C0 12.0633 0.272841 11.7224 0.653091 11.6139C2.26306 11.1542 3.81402 10.4079 5.30599 9.375C7.0204 8.18143 8.45269 6.74913 9.60286 5.07812C10.6204 3.58956 11.3188 2.11735 11.6983 0.661509C11.7977 0.280119 12.1335 0 12.5276 0C12.9261 0 13.2642 0.286322 13.3612 0.672912C13.5802 1.54568 13.9225 2.439 14.388 3.35286C14.974 4.48134 15.7226 5.5664 16.6341 6.60808C17.5672 7.62804 18.609 8.55035 19.7591 9.375C21.2621 10.4404 22.79 11.1889 24.343 11.6205C24.724 11.7264 25 12.0655 25 12.4609C25 12.8623 24.7156 13.2043 24.3286 13.3104C23.3442 13.5802 22.331 14.0155 21.2891 14.6159C20.0304 15.3538 18.8585 16.2326 17.7734 17.2526C16.6884 18.2509 15.7986 19.3034 15.1041 20.4101C14.2416 21.7866 13.6584 23.0931 13.3546 24.3299C13.2604 24.7135 12.9266 25 12.5317 25Z" fill="white"/>
</g>
<defs>
<clipPath id="clip0_2513_15387">
<rect width="25" height="25" fill="white"/>
</clipPath>
</defs>
</svg>
