<svg width="14" height="25" viewBox="0 0 14 25" fill="none" xmlns="http://www.w3.org/2000/svg">
<path d="M7.24166 11.0792C4.30958 10.3171 3.36666 9.52917 3.36666 8.30208C3.36666 6.89417 4.67125 5.9125 6.85416 5.9125C9.15333 5.9125 10.0058 7.01042 10.0833 8.625H12.9379C12.8475 6.40333 11.4912 4.3625 8.79166 3.70375V0.875H4.91666V3.665C2.41083 4.2075 0.39583 5.835 0.39583 8.32792C0.39583 11.3117 2.86291 12.7971 6.46666 13.6625C9.69583 14.4375 10.3417 15.5742 10.3417 16.7754C10.3417 17.6667 9.70875 19.0875 6.85416 19.0875C4.19333 19.0875 3.14708 17.8992 3.005 16.375H0.16333C0.31833 19.2037 2.43666 20.7925 4.91666 21.3221V24.125H8.79166V21.3479C11.3104 20.87 13.3125 19.4104 13.3125 16.7625C13.3125 13.0942 10.1737 11.8412 7.24166 11.0792Z" fill="#6366F1"/>
</svg>
