<svg width="7" height="11" viewBox="0 0 7 11" fill="none" xmlns="http://www.w3.org/2000/svg">
<path d="M3.84469 9.00625C3.07397 9.00625 2.40182 8.86577 1.82826 8.58496C1.25469 8.30407 0.806598 7.91896 0.483903 7.42943C0.161277 6.93996 0 6.37828 0 5.74437C0 5.25489 0.0895902 4.80553 0.268842 4.3963C0.448094 3.98707 0.699033 3.634 1.02166 3.3371C1.34428 3.03218 1.72515 2.79948 2.16433 2.63899C2.61242 2.47048 3.0964 2.38623 3.61618 2.38623C4.10008 2.38623 4.54825 2.46647 4.96047 2.62695C5.37275 2.77941 5.72673 3.00008 6.02246 3.28895C6.32718 3.5698 6.56022 3.90281 6.7215 4.28797C6.88284 4.67314 6.95453 5.09441 6.93662 5.55179L6.92318 6.08138H1.20983L0.900648 5.03422H5.35032L5.13526 5.25088V4.98608C5.11728 4.76943 5.03668 4.57283 4.89324 4.3963C4.75885 4.21977 4.58406 4.08336 4.369 3.98706C4.15387 3.89077 3.91191 3.84263 3.64307 3.84263C3.24869 3.84263 2.91262 3.91083 2.63479 4.04725C2.36594 4.18366 2.1598 4.38426 2.01643 4.64906C1.87305 4.91386 1.80137 5.23483 1.80137 5.61197C1.80137 5.99713 1.89096 6.33014 2.07021 6.61099C2.25845 6.89181 2.5183 7.1125 2.84992 7.27299C3.19045 7.42544 3.58929 7.50166 4.04637 7.50166C4.36001 7.50166 4.64683 7.45756 4.90668 7.3693C5.16661 7.28098 5.44444 7.12853 5.74017 6.91189L6.65427 8.05532C6.39441 8.26397 6.10759 8.44049 5.79396 8.58496C5.48025 8.72137 5.15762 8.82567 4.82601 8.8979C4.49447 8.97013 4.16731 9.00625 3.84469 9.00625Z" fill="#6366F1"/>
<path d="M4.6955 1L4.06982 3.42645" stroke="#6366F1" stroke-width="2.09"/>
<path d="M2.66795 7.64111L1.93799 10.472" stroke="#6366F1" stroke-width="2.09"/>
</svg>

