<svg width="18" height="18" viewBox="0 0 18 18" fill="none" xmlns="http://www.w3.org/2000/svg">
<path fill-rule="evenodd" clip-rule="evenodd" d="M9.00002 0.666626C4.40002 0.666626 0.666687 4.39996 0.666687 8.99996C0.666687 13.6 4.40002 17.3333 9.00002 17.3333C13.6 17.3333 17.3334 13.6 17.3334 8.99996C17.3334 4.39996 13.6 0.666626 9.00002 0.666626ZM8.16669 14.8333V13.1666H9.83335V14.8333H8.16669ZM10.8084 9.14163L11.5584 8.37496C12.0334 7.89996 12.3334 7.23329 12.3334 6.49996C12.3334 4.65829 10.8417 3.16663 9.00002 3.16663C7.15835 3.16663 5.66669 4.65829 5.66669 6.49996H7.33335C7.33335 5.58329 8.08335 4.83329 9.00002 4.83329C9.91669 4.83329 10.6667 5.58329 10.6667 6.49996C10.6667 6.95829 10.4834 7.37496 10.175 7.67496L9.14169 8.72496C8.54169 9.33329 8.16669 10.1666 8.16669 11.0833V11.5H9.83335C9.83335 10.25 10.2084 9.74996 10.8084 9.14163Z" fill="#1F7AFA"/>
</svg>
