
<svg width="16" height="16" viewBox="0 0 16 16" fill="none" xmlns="http://www.w3.org/2000/svg">
<path d="M11.9333 11.5933C11.76 11.06 11.26 10.6666 10.6666 10.6666H9.99998V8.66665C9.99998 8.48983 9.92974 8.32027 9.80472 8.19524C9.67969 8.07022 9.51012 7.99998 9.33331 7.99998H5.33331V6.66665H6.66665C6.84346 6.66665 7.01303 6.59641 7.13805 6.47138C7.26307 6.34636 7.33331 6.17679 7.33331 5.99998V4.66665H8.66665C9.02027 4.66665 9.35941 4.52617 9.60945 4.27612C9.8595 4.02607 9.99998 3.68693 9.99998 3.33331V3.05998C10.7976 3.38156 11.5055 3.89163 12.0629 4.54654C12.6204 5.20144 13.0108 5.98168 13.2009 6.82045C13.3909 7.65923 13.3749 8.53156 13.1541 9.36278C12.9334 10.194 12.5145 10.9593 11.9333 11.5933ZM7.33331 13.2866C4.69998 12.96 2.66665 10.72 2.66665 7.99998C2.66665 7.58665 2.71998 7.18665 2.80665 6.80665L5.99998 9.99998V10.6666C5.99998 11.0203 6.14046 11.3594 6.3905 11.6095C6.64055 11.8595 6.97969 12 7.33331 12M7.99998 1.33331C7.1245 1.33331 6.25759 1.50575 5.44876 1.84078C4.63992 2.17581 3.90499 2.66688 3.28593 3.28593C2.03569 4.53618 1.33331 6.23187 1.33331 7.99998C1.33331 9.76809 2.03569 11.4638 3.28593 12.714C3.90499 13.3331 4.63992 13.8241 5.44876 14.1592C6.25759 14.4942 7.1245 14.6666 7.99998 14.6666C9.76809 14.6666 11.4638 13.9643 12.714 12.714C13.9643 11.4638 14.6666 9.76809 14.6666 7.99998C14.6666 7.1245 14.4942 6.25759 14.1592 5.44876C13.8241 4.63992 13.3331 3.90499 12.714 3.28593C12.095 2.66688 11.36 2.17581 10.5512 1.84078C9.74236 1.50575 8.87546 1.33331 7.99998 1.33331Z" fill="#94A3B8"/>
</svg>