
<svg width="9" height="13" viewBox="0 0 9 13" fill="none" xmlns="http://www.w3.org/2000/svg">
<path fill-rule="evenodd" clip-rule="evenodd" d="M7.20832 4.60417H7.74999C8.34582 4.60417 8.83332 5.09167 8.83332 5.6875V11.1042C8.83332 11.7 8.34582 12.1875 7.74999 12.1875H1.24999C0.654156 12.1875 0.166656 11.7 0.166656 11.1042V5.6875C0.166656 5.09167 0.654156 4.60417 1.24999 4.60417H1.79166V3.52083C1.79166 2.02583 3.00499 0.8125 4.49999 0.8125C5.99499 0.8125 7.20832 2.02583 7.20832 3.52083V4.60417ZM4.49999 1.89583C3.60082 1.89583 2.87499 2.62167 2.87499 3.52083V4.60417H6.12499V3.52083C6.12499 2.62167 5.39916 1.89583 4.49999 1.89583ZM1.24999 11.1042V5.6875H7.74999V11.1042H1.24999ZM5.58332 8.39583C5.58332 8.99167 5.09582 9.47917 4.49999 9.47917C3.90416 9.47917 3.41666 8.99167 3.41666 8.39583C3.41666 7.8 3.90416 7.3125 4.49999 7.3125C5.09582 7.3125 5.58332 7.8 5.58332 8.39583Z" fill="#64758B"/>
</svg>
