
<svg width="45" height="45" viewBox="0 0 45 45" fill="none" xmlns="http://www.w3.org/2000/svg">
<path fill-rule="evenodd" clip-rule="evenodd" d="M22.5001 0.0416565C10.097 0.0416565 0.041748 10.0969 0.041748 22.5C0.041748 34.9031 10.097 44.9583 22.5001 44.9583C34.9032 44.9583 44.9584 34.9031 44.9584 22.5C44.9584 10.0969 34.9032 0.0416565 22.5001 0.0416565ZM32.2347 18.7025C32.414 18.4976 32.5505 18.2589 32.6361 18.0005C32.7218 17.7421 32.7549 17.4691 32.7335 17.1978C32.7121 16.9264 32.6366 16.662 32.5116 16.4202C32.3865 16.1784 32.2143 15.964 32.0052 15.7897C31.796 15.6154 31.5541 15.4847 31.2937 15.4053C31.0333 15.3259 30.7597 15.2994 30.4889 15.3273C30.2181 15.3552 29.9556 15.4369 29.7169 15.5678C29.4781 15.6986 29.268 15.8759 29.0987 16.0892L20.3196 26.6221L15.7769 22.0774C15.3918 21.7055 14.8761 21.4997 14.3408 21.5043C13.8054 21.509 13.2934 21.7237 12.9148 22.1022C12.5363 22.4808 12.3216 22.9929 12.3169 23.5282C12.3123 24.0635 12.5181 24.5792 12.89 24.9643L19.015 31.0893C19.2156 31.2898 19.4557 31.4463 19.7202 31.5488C19.9846 31.6513 20.2675 31.6976 20.5508 31.6847C20.8342 31.6719 21.1117 31.6001 21.3658 31.474C21.6198 31.348 21.8448 31.1703 22.0264 30.9525L32.2347 18.7025Z" fill="#21CAA1"/>
</svg>
