
<svg width="25" height="25" viewBox="0 0 25 25" fill="none" xmlns="http://www.w3.org/2000/svg">
<path fill-rule="evenodd" clip-rule="evenodd" d="M9.37467 12.5002C11.3851 12.5002 13.0205 10.8647 13.0205 8.85433C13.0205 6.84391 11.3851 5.2085 9.37467 5.2085C7.36426 5.2085 5.72884 6.84391 5.72884 8.85433C5.72884 10.8647 7.36426 12.5002 9.37467 12.5002ZM2.08301 17.9689C2.08301 15.5418 6.93717 14.3231 9.37467 14.3231C11.8122 14.3231 16.6663 15.5418 16.6663 17.9689V19.7918H2.08301V17.9689ZM9.37467 16.4064C7.51009 16.4064 5.39551 17.1043 4.52051 17.7085H14.2288C13.3538 17.1043 11.2393 16.4064 9.37467 16.4064ZM10.9372 8.85433C10.9372 7.98975 10.2393 7.29183 9.37467 7.29183C8.51009 7.29183 7.81217 7.98975 7.81217 8.85433C7.81217 9.71891 8.51009 10.4168 9.37467 10.4168C10.2393 10.4168 10.9372 9.71891 10.9372 8.85433ZM16.708 14.3856C17.9163 15.2606 18.7497 16.4272 18.7497 17.9689V19.7918H22.9163V17.9689C22.9163 15.8647 19.2705 14.6668 16.708 14.3856ZM19.2705 8.85433C19.2705 10.8647 17.6351 12.5002 15.6247 12.5002C15.0622 12.5002 14.5413 12.3647 14.0622 12.1356C14.7184 11.2085 15.1038 10.0731 15.1038 8.85433C15.1038 7.63558 14.7184 6.50016 14.0622 5.57308C14.5413 5.34391 15.0622 5.2085 15.6247 5.2085C17.6351 5.2085 19.2705 6.84391 19.2705 8.85433Z" fill="#6562FF"/>
</svg>
