<svg width="15" height="15" viewBox="0 0 15 15" fill="none" xmlns="http://www.w3.org/2000/svg">
<path fill-rule="evenodd" clip-rule="evenodd" d="M7.49996 0.416504C3.58996 0.416504 0.416626 3.58984 0.416626 7.49984C0.416626 11.4098 3.58996 14.5832 7.49996 14.5832C11.41 14.5832 14.5833 11.4098 14.5833 7.49984C14.5833 3.58984 11.41 0.416504 7.49996 0.416504ZM6.79163 12.4582V11.0415H8.20829V12.4582H6.79163ZM9.03704 7.62025L9.67454 6.96859C10.0783 6.56484 10.3333 5.99817 10.3333 5.37484C10.3333 3.80942 9.06538 2.5415 7.49996 2.5415C5.93454 2.5415 4.66663 3.80942 4.66663 5.37484H6.08329C6.08329 4.59567 6.72079 3.95817 7.49996 3.95817C8.27913 3.95817 8.91663 4.59567 8.91663 5.37484C8.91663 5.76442 8.76079 6.11859 8.49871 6.37359L7.62038 7.26609C7.11038 7.78317 6.79163 8.4915 6.79163 9.27067V9.62484H8.20829C8.20829 8.56234 8.52704 8.13734 9.03704 7.62025Z" fill="#94A3B8"/>
</svg>
