<svg width="34" height="24" viewBox="0 0 34 24" fill="none" xmlns="http://www.w3.org/2000/svg">
<path d="M17.7083 11.9292C18.3931 11.1737 18.9186 10.3119 19.2851 9.34383C19.6506 8.37578 19.8333 7.3723 19.8333 6.33342C19.8333 5.29453 19.6506 4.29105 19.2851 3.323C18.9186 2.35494 18.3931 1.49314 17.7083 0.737582C19.125 0.926471 20.3056 1.55216 21.25 2.61466C22.1944 3.67716 22.6667 4.91675 22.6667 6.33342C22.6667 7.75008 22.1944 8.98967 21.25 10.0522C20.3056 11.1147 19.125 11.7404 17.7083 11.9292ZM25.5 23.3334V19.0834C25.5 18.2334 25.3111 17.425 24.9333 16.6581C24.5556 15.8902 24.0597 15.2112 23.4458 14.6209C24.65 15.0459 25.7659 15.5946 26.7934 16.2671C27.82 16.9405 28.3333 17.8792 28.3333 19.0834V23.3334H25.5ZM28.3333 13.4167V10.5834H25.5V7.75008H28.3333V4.91675H31.1667V7.75008H34V10.5834H31.1667V13.4167H28.3333ZM11.3333 12.0001C9.775 12.0001 8.44097 11.4452 7.33125 10.3355C6.22153 9.22578 5.66667 7.89175 5.66667 6.33342C5.66667 4.77508 6.22153 3.44105 7.33125 2.33133C8.44097 1.22161 9.775 0.666748 11.3333 0.666748C12.8917 0.666748 14.2257 1.22161 15.3354 2.33133C16.4451 3.44105 17 4.77508 17 6.33342C17 7.89175 16.4451 9.22578 15.3354 10.3355C14.2257 11.4452 12.8917 12.0001 11.3333 12.0001ZM0 23.3334V19.3668C0 18.564 0.206833 17.8259 0.6205 17.1525C1.03322 16.4801 1.58194 15.9667 2.26667 15.6126C3.73056 14.8806 5.21806 14.3314 6.72917 13.965C8.24028 13.5995 9.775 13.4167 11.3333 13.4167C12.8917 13.4167 14.4264 13.5995 15.9375 13.965C17.4486 14.3314 18.9361 14.8806 20.4 15.6126C21.0847 15.9667 21.6334 16.4801 22.0462 17.1525C22.4598 17.8259 22.6667 18.564 22.6667 19.3668V23.3334H0ZM11.3333 9.16675C12.1125 9.16675 12.7797 8.88908 13.3351 8.33375C13.8895 7.77936 14.1667 7.11258 14.1667 6.33342C14.1667 5.55425 13.8895 4.88747 13.3351 4.33308C12.7797 3.77775 12.1125 3.50008 11.3333 3.50008C10.5542 3.50008 9.88739 3.77775 9.333 4.33308C8.77767 4.88747 8.5 5.55425 8.5 6.33342C8.5 7.11258 8.77767 7.77936 9.333 8.33375C9.88739 8.88908 10.5542 9.16675 11.3333 9.16675ZM2.83333 20.5001H19.8333V19.3668C19.8333 19.107 19.7686 18.8709 19.6392 18.6584C19.5089 18.4459 19.3375 18.2806 19.125 18.1626C17.85 17.5251 16.5632 17.0467 15.2646 16.7275C13.966 16.4092 12.6556 16.2501 11.3333 16.2501C10.0111 16.2501 8.70069 16.4092 7.40208 16.7275C6.10347 17.0467 4.81667 17.5251 3.54167 18.1626C3.32917 18.2806 3.15822 18.4459 3.02883 18.6584C2.8985 18.8709 2.83333 19.107 2.83333 19.3668V20.5001Z" fill="#6366F1"/>
</svg>
