<svg width="21" height="11" viewBox="0 0 21 11" fill="none" xmlns="http://www.w3.org/2000/svg">
<path fill-rule="evenodd" clip-rule="evenodd" d="M9.54199 8.37467H5.70866C4.12741 8.37467 2.83366 7.08092 2.83366 5.49967C2.83366 3.91842 4.12741 2.62467 5.70866 2.62467H9.54199V0.708008H5.70866C3.06366 0.708008 0.916992 2.85467 0.916992 5.49967C0.916992 8.14467 3.06366 10.2913 5.70866 10.2913H9.54199V8.37467ZM15.292 0.708008H11.4587V2.62467H15.292C16.8732 2.62467 18.167 3.91842 18.167 5.49967C18.167 7.08092 16.8732 8.37467 15.292 8.37467H11.4587V10.2913H15.292C17.937 10.2913 20.0837 8.14467 20.0837 5.49967C20.0837 2.85467 17.937 0.708008 15.292 0.708008ZM14.3337 4.54134H6.66699V6.45801H14.3337V4.54134Z" fill="#CBD5E1"/>
</svg>
