<svg width="12" height="17" viewBox="0 0 12 17" fill="none" xmlns="http://www.w3.org/2000/svg">
<path fill-rule="evenodd" clip-rule="evenodd" d="M6.33748 0.556213C3.32615 0.556213 0.890625 2.99174 0.890625 6.00307C0.890625 10.0882 6.33748 16.1187 6.33748 16.1187C6.33748 16.1187 11.7843 10.0882 11.7843 6.00307C11.7843 2.99174 9.34882 0.556213 6.33748 0.556213ZM2.44672 6.00307C2.44672 3.85545 4.18972 2.11246 6.33734 2.11246C8.48495 2.11246 10.2279 3.85545 10.2279 6.00307C10.2279 8.24406 7.98696 11.5978 6.33734 13.6909C4.71884 11.6133 2.44672 8.22072 2.44672 6.00307ZM4.3921 6.00309C4.3921 4.92872 5.26304 4.05778 6.33741 4.05778C7.0324 4.05778 7.6746 4.42855 8.02209 5.03043C8.36959 5.63231 8.36959 6.37386 8.02209 6.97574C7.6746 7.57762 7.0324 7.9484 6.33741 7.9484C5.26304 7.9484 4.3921 7.07745 4.3921 6.00309Z" fill="#94A3B8"/>
</svg>
