
<svg width="15" height="19" viewBox="0 0 15 19" fill="none" xmlns="http://www.w3.org/2000/svg">
<path fill-rule="evenodd" clip-rule="evenodd" d="M11.875 6.4375H12.75C13.7125 6.4375 14.5 7.225 14.5 8.1875V16.9375C14.5 17.9 13.7125 18.6875 12.75 18.6875H2.25C1.2875 18.6875 0.5 17.9 0.5 16.9375V8.1875C0.5 7.225 1.2875 6.4375 2.25 6.4375H3.125V4.6875C3.125 2.2725 5.085 0.3125 7.5 0.3125C9.915 0.3125 11.875 2.2725 11.875 4.6875V6.4375ZM7.5 2.0625C6.0475 2.0625 4.875 3.235 4.875 4.6875V6.4375H10.125V4.6875C10.125 3.235 8.9525 2.0625 7.5 2.0625ZM2.25 16.9375V8.1875H12.75V16.9375H2.25ZM9.25 12.5625C9.25 13.525 8.4625 14.3125 7.5 14.3125C6.5375 14.3125 5.75 13.525 5.75 12.5625C5.75 11.6 6.5375 10.8125 7.5 10.8125C8.4625 10.8125 9.25 11.6 9.25 12.5625Z" fill="#CBD5E1"/>
</svg>
