<svg width="12904" height="1454" viewBox="0 0 12904 1454" fill="none" xmlns="http://www.w3.org/2000/svg">
<path d="M12429.1 -0.000125146L10049.5 -2.08181e-05C9787.2 -9.32058e-06 9574.6 213.545 9574.6 476.966L9574.6 977.034C9574.6 1240.45 9787.2 1454 10049.5 1454L12429.1 1454C12691.4 1454 12904 1240.45 12904 977.033L12904 476.966C12904 213.545 12691.4 -0.000136643 12429.1 -0.000125146Z" fill="#CBD5E1"/>
<path d="M10656.6 981.446L10656.6 907.769L10341.7 907.769L10341.7 761.934L10645.5 761.934L10645.5 689.017L10341.7 689.017L10341.7 546.224L10656.6 546.224L10656.6 472.548L10262.2 472.548L10262.2 981.446L10656.6 981.446Z" fill="#64758B"/>
<path d="M10770 981.446L10826.6 849.282L11087.1 849.282L11143.7 981.446L11233.5 981.446L11013.5 472.548L10901.6 472.548L10681.7 981.446L10770 981.446ZM10925.2 620.656L10953.9 548.502L10959.8 548.502L10988.5 620.656L11055.4 775.607L10858.3 775.607L10925.2 620.656Z" fill="#64758B"/>
<path d="M11349.8 981.446L11349.8 783.964L11440.2 783.964C11502.1 783.964 11524.9 800.674 11546.9 840.93L11625.7 981.446L11716.9 981.446L11634.5 834.093C11616.8 802.19 11599.2 779.407 11560.9 768.77L11560.9 763.455C11653.7 758.139 11707.4 706.489 11707.4 622.177C11707.4 527.234 11638.2 472.548 11526.4 472.548L11270.3 472.548L11270.3 981.446L11349.8 981.446ZM11349.8 546.223L11525.6 546.223C11591.8 546.223 11625 571.29 11625 633.571C11625 697.374 11591.8 720.92 11525.6 720.92L11349.8 720.92L11349.8 546.223Z" fill="#64758B"/>
<path d="M11844.1 981.446L11844.1 682.943L11841.2 594.837L11847 594.837L11908.9 684.464L12131 981.446L12216.4 981.446L12216.4 472.548L12137 472.548L12137 773.328L12140.7 865.234L12134.7 865.234L12070.7 770.291L11850 472.548L11764.7 472.548L11764.7 981.446L11844.1 981.446Z" fill="#64758B"/>
<path d="M1977.24 1194.31C1925.29 1194.31 1877.06 1188.94 1832.82 1178.35C1788.59 1167.61 1750 1152.44 1717.2 1132.37C1684.4 1112.47 1658.72 1087.66 1640.46 1058.12C1622.21 1028.41 1613 994.288 1613 955.422C1613 951.473 1613 947.679 1613 943.731C1613 939.783 1613.45 936.465 1614.34 933.46L1812.94 933.46C1812.94 935.357 1812.94 937.567 1812.94 940.095C1812.94 942.469 1812.94 944.679 1812.94 946.73C1813.83 970.115 1821.99 989.075 1837.57 1003.61C1853.01 1018.15 1873.64 1028.57 1899.17 1034.89C1924.7 1041.21 1951.72 1044.37 1979.92 1044.37C2006.34 1044.37 2032.16 1042.48 2057.25 1038.53C2082.33 1034.58 2103.41 1026.84 2120.18 1015.14C2137.1 1003.45 2145.56 987.969 2145.56 968.536C2145.56 944.202 2135.47 926.353 2115.43 914.662C2095.39 902.971 2067.79 893.808 2032.61 887.014C1997.43 880.22 1957.95 872.477 1914.16 863.627C1877.65 856.833 1842.77 848.147 1809.37 837.404C1776.12 826.657 1746.14 812.915 1719.72 795.85C1693.3 778.785 1672.23 756.983 1656.79 730.283C1641.2 703.584 1633.49 670.249 1633.49 630.433C1633.49 588.725 1642.1 552.698 1659.46 522.522C1676.83 492.346 1701.47 467.697 1733.38 448.269C1765.29 428.835 1802.99 414.457 1846.33 405.294C1889.67 396.131 1936.43 391.388 1986.6 391.388C2033.2 391.388 2076.99 395.972 2118.1 405.294C2159.22 414.457 2194.84 428.199 2224.82 446.054C2254.96 464.067 2278.85 486.659 2296.66 513.836C2314.47 541.007 2323.38 571.66 2323.38 605.625C2323.38 611.471 2323.38 616.845 2323.38 621.582C2323.38 626.485 2322.93 630.274 2322.04 633.279L2123.59 633.279L2123.59 623.008C2123.59 604.523 2117.36 589.514 2105.04 577.823C2092.72 566.127 2075.8 557.123 2054.43 550.806C2032.91 544.484 2008.56 541.325 1981.1 541.325C1967.45 541.325 1951.86 542.274 1934.5 544.171C1917.13 546.063 1900.51 549.539 1884.48 554.436C1868.45 559.338 1855.68 566.127 1846.18 574.819C1836.68 583.51 1831.79 594.724 1831.79 608.312C1831.79 625.849 1840.39 639.596 1857.76 649.867C1875.13 660.137 1898.13 668.034 1926.93 673.879C1955.72 679.725 1986.89 686.047 2020.73 692.841C2059.03 701.527 2097.47 710.537 2135.77 719.853C2174.06 729.022 2209.24 741.502 2241.15 756.982C2273.06 772.468 2298.15 794.901 2316.4 823.975C2334.66 853.044 2343.71 892.07 2343.71 940.572C2343.71 987.18 2334.81 1026.84 2316.99 1059.38C2299.19 1091.93 2273.95 1118.16 2241 1138.06C2208.2 1157.97 2169.31 1172.35 2124.63 1181.04C2080.4 1189.88 2031.12 1194.31 1977.24 1194.31Z" fill="#334254"/>
<path d="M2753.54 1194.31C2667.75 1194.31 2601.4 1170.92 2554.35 1124.32C2507.3 1077.71 2483.85 1004.4 2483.85 904.231L2483.85 410.189L2683.78 410.189L2683.78 869.158C2683.78 897.437 2686.9 920.978 2693.43 939.781C2699.81 958.738 2709.46 974.066 2722.22 985.757C2734.99 997.449 2750.28 1005.98 2768.09 1011.19C2785.9 1016.41 2806.24 1019.25 2828.94 1019.25C2861.75 1019.25 2891.73 1011.51 2918.6 995.869C2945.46 980.386 2967.13 958.738 2983.6 931.09C3000.08 903.441 3008.24 872.004 3008.24 837.085L3008.24 410.03L3209.51 410.03L3209.51 1176.61L3045.2 1176.61L3030.21 1060.01L3020.56 1060.01C2998.6 1090.19 2973.96 1115.15 2946.65 1135.06C2919.19 1154.97 2888.91 1169.82 2855.66 1179.46C2822.26 1189.41 2788.28 1194.31 2753.54 1194.31Z" fill="#334254"/>
<path d="M3390.14 1443.45L3390.14 410.181L3553.12 410.181L3570.93 520.933L3580.57 520.933C3608.92 474.328 3644.69 441.306 3688.04 421.872C3731.38 402.438 3778.58 392.804 3829.78 392.804C3896.43 392.804 3954.17 406.864 4003 435.142C4051.83 463.268 4089.53 507.032 4115.95 566.276C4142.37 625.526 4155.58 701.364 4155.58 793.63C4155.58 883.999 4142.07 958.889 4115.21 1018.14C4088.35 1077.38 4051.09 1121.62 4003.6 1150.69C3956.09 1179.76 3900.44 1194.46 3836.61 1194.46C3804.7 1194.46 3773.83 1190.51 3744.14 1182.76C3714.46 1175.02 3687.29 1163.02 3662.65 1147.06C3638.01 1131.1 3616.94 1111.35 3599.72 1087.97L3591.56 1087.97L3591.56 1443.61L3390.14 1443.61L3390.14 1443.45ZM3772.19 1020.82C3813.31 1020.82 3847 1012.77 3873.57 996.808C3899.99 980.851 3919.58 956.52 3932.5 923.975C3945.26 891.424 3951.64 852.875 3951.64 808.167L3951.64 779.093C3951.64 732.488 3945.26 693.144 3932.5 661.076C3919.73 629.003 3900.14 604.985 3873.57 588.874C3847 572.911 3812.86 564.856 3770.86 564.856C3731.67 564.856 3698.43 573.547 3671.56 591.084C3644.69 608.62 3624.06 633.582 3609.96 666.127C3595.72 698.677 3588.74 737.385 3588.74 781.939L3588.74 802.322C3588.74 835.338 3592.89 865.673 3601.06 893.322C3609.22 920.97 3620.95 944.352 3635.94 963.313C3650.93 982.272 3669.63 996.649 3692.04 1006.29C3714.46 1016.08 3741.17 1020.82 3772.19 1020.82Z" fill="#334254"/>
<path d="M4679.81 1194.31C4593.12 1194.31 4519.36 1179.93 4458.65 1151.33C4397.94 1122.74 4351.63 1078.66 4319.72 1019.41C4287.81 960.163 4271.78 884.797 4271.78 793.479C4271.78 702.162 4287.66 626.796 4319.72 567.551C4351.63 508.301 4397.49 464.383 4457.31 435.628C4517.13 407.031 4589.41 392.653 4674.31 392.653C4757.43 392.653 4827.93 406.713 4885.82 434.997C4943.71 463.117 4987.64 506.091 5017.18 563.916C5046.86 621.745 5061.71 694.26 5061.71 781.788L5061.71 841.51L4478.54 841.51C4480.32 886.223 4489.08 923.352 4504.51 953.051C4519.95 982.755 4542.66 1004.4 4572.35 1017.99C4602.03 1031.57 4638.69 1038.37 4682.62 1038.37C4704.45 1038.37 4725.52 1035.68 4745.56 1030.31C4765.6 1024.94 4783.85 1016.72 4800.33 1005.51C4816.8 994.289 4830.46 980.544 4841.44 963.954C4852.43 947.524 4858.36 928.562 4859.25 907.077L5060.52 907.077C5060.52 951.79 5051.17 992.077 5032.47 1028.1C5013.77 1064.12 4987.94 1094.14 4955.14 1118.47C4922.34 1142.8 4882.56 1161.45 4835.95 1174.56C4789.34 1187.67 4737.4 1194.31 4679.81 1194.31ZM4481.36 708.956L4850.94 708.956C4850.94 681.779 4846.64 657.92 4837.88 637.543C4829.12 617.161 4817.1 600.096 4801.66 586.508C4786.08 572.925 4767.82 562.967 4746.89 556.65C4725.97 550.327 4702.66 547.169 4677.13 547.169C4637.95 547.169 4604.4 553.173 4576.5 565.341C4548.6 577.504 4526.92 595.671 4511.49 620.007C4495.9 644.491 4485.81 674.037 4481.36 708.956Z" fill="#334254"/>
<path d="M5209.69 1176.77L5209.69 410.188L5374 410.188L5390.47 535.476L5400.12 535.476C5409.18 509.248 5422.54 484.918 5439.75 462.643C5457.12 440.364 5478.34 422.827 5503.43 410.188C5528.51 397.548 5557.01 391.226 5589.07 391.226C5605.54 391.226 5620.53 392.651 5634.19 395.651C5647.85 398.497 5659.72 401.973 5669.81 405.921L5669.81 592.511L5590.41 592.511C5559.38 592.511 5532.67 597.566 5510.26 607.837C5487.84 618.103 5469.14 632.639 5454.15 651.602C5439.16 670.558 5428.18 692.679 5421.35 717.958C5414.52 743.237 5411.11 771.834 5411.11 803.902L5411.11 1176.92L5209.69 1176.92L5209.69 1176.77Z" fill="#334254"/>
<path d="M6037.93 1194.3C5987.77 1194.3 5946.65 1186.09 5914.74 1169.5C5882.83 1153.07 5859.23 1128.42 5844.23 1095.87C5829.24 1063.33 5821.67 1022.72 5821.67 974.218L5821.67 570.548L5710.8 570.548L5710.8 410.187L5829.84 410.187L5868.13 187.258L6022.79 187.258L6022.79 410.187L6184.28 410.187L6184.28 570.548L6022.79 570.548L6022.79 943.568C6022.79 972.638 6028.44 994.758 6039.86 1009.92C6051.29 1024.93 6072.96 1032.52 6104.88 1032.52L6184.28 1032.52L6184.28 1170.92C6172.41 1174.87 6157.86 1178.5 6140.5 1181.82C6123.13 1185.14 6105.32 1188.14 6087.06 1190.51C6068.96 1193.04 6052.63 1194.3 6037.93 1194.3Z" fill="#334254"/>
<path d="M6695.15 1194.31C6608.47 1194.31 6534.7 1179.93 6473.99 1151.33C6413.28 1122.74 6366.97 1078.66 6335.06 1019.41C6303.15 960.163 6287.12 884.797 6287.12 793.479C6287.12 702.162 6303.15 626.796 6335.06 567.551C6366.97 508.301 6412.84 464.383 6472.66 435.628C6532.47 407.031 6604.75 392.653 6689.66 392.653C6772.63 392.653 6843.28 406.713 6901.14 434.997C6959.08 463.117 7002.97 506.091 7032.68 563.916C7062.38 621.745 7077.21 694.26 7077.21 781.788L7077.21 841.51L6494.03 841.51C6495.81 886.223 6504.57 923.352 6520 953.051C6535.44 982.755 6558.15 1004.4 6587.83 1017.99C6617.52 1031.57 6654.18 1038.37 6698.12 1038.37C6720.08 1038.37 6741.01 1035.68 6761.05 1030.31C6781.09 1024.94 6799.35 1016.72 6815.82 1005.51C6832.3 994.289 6845.95 980.544 6856.93 963.954C6867.92 947.524 6873.86 928.562 6874.75 907.077L7076 907.077C7076 951.79 7066.66 992.077 7047.98 1028.1C7029.25 1064.12 7003.45 1094.14 6970.63 1118.47C6937.81 1142.8 6898.03 1161.45 6851.59 1174.56C6804.69 1187.67 6752.59 1194.31 6695.15 1194.31ZM6496.55 708.956L6866.28 708.956C6866.28 681.779 6861.98 657.92 6853.23 637.543C6844.62 617.161 6832.44 600.096 6817 586.508C6801.42 572.925 6783.17 562.967 6762.24 556.65C6741.16 550.327 6718.01 547.169 6692.48 547.169C6653.29 547.169 6619.75 553.173 6591.84 565.341C6563.94 577.504 6542.27 595.671 6526.83 620.007C6511.25 644.491 6501.15 674.037 6496.55 708.956Z" fill="#334254"/>
<path d="M7452.31 1194.3C7420.39 1194.3 7388.47 1190.83 7356.39 1184.03C7324.47 1177.24 7295.98 1166.02 7270.91 1150.54C7245.85 1135.06 7225.49 1112.94 7210.08 1084.18C7194.46 1055.59 7186.76 1018.93 7186.76 974.218C7186.76 916.868 7199.53 870.576 7225.06 835.026C7250.6 799.635 7287.53 772.936 7335.92 754.928C7384.3 736.914 7441.6 725.064 7507.81 719.219C7573.98 713.373 7646.74 710.527 7726.14 710.527L7726.14 665.343C7726.14 639.115 7720.92 617.471 7710.42 600.566C7699.87 583.506 7683.56 570.23 7661.14 560.437C7638.72 550.797 7608.9 545.9 7571.5 545.9C7538.68 545.9 7510.61 549.535 7487.34 556.801C7464.02 564.072 7446.19 573.548 7433.89 585.239C7421.55 596.93 7415.32 610.518 7415.32 626.004L7415.32 643.54L7218.2 643.54C7217.31 637.695 7216.57 632.798 7216.15 629.003C7215.67 625.055 7215.41 620.317 7215.41 614.472C7215.41 569.759 7229.5 530.732 7257.83 497.239C7286.21 463.745 7327.47 437.994 7381.77 419.981C7436.11 401.973 7501.11 392.963 7576.83 392.963C7652.54 392.963 7716.17 401.655 7767.82 419.191C7819.37 436.728 7858.84 463.904 7886.27 500.874C7913.6 537.844 7927.43 584.926 7927.43 642.279L7927.43 978.959C7927.43 996.496 7931.7 1009.77 7940.46 1019.09C7949.06 1028.25 7959.93 1032.99 7972.7 1032.99L8030.1 1032.99L8030.1 1169.97C8020.02 1174.87 8004.14 1179.93 7982.19 1185.3C7960.19 1190.67 7934.66 1193.35 7905.43 1193.35C7871.61 1193.35 7843.85 1188.77 7821.85 1179.45C7799.9 1170.29 7782.86 1157.65 7770.51 1141.53C7758.22 1125.42 7749.3 1106.77 7743.82 1085.45L7732.84 1085.45C7713.69 1106.77 7690.05 1126.05 7662.3 1142.96C7634.39 1160.02 7602.94 1172.82 7567.75 1181.51C7532.72 1189.88 7494.15 1194.3 7452.31 1194.3ZM7512.4 1036.94C7538.84 1036.94 7564.64 1033.31 7589.75 1026.04C7614.81 1018.77 7637.4 1008.5 7657.55 995.39C7677.6 982.276 7694.06 965.687 7706.83 945.778C7719.6 925.872 7725.98 904.229 7725.98 881.006L7725.98 838.821C7654.75 838.821 7594.03 842.451 7543.85 849.722C7493.73 856.988 7455.1 869.156 7428.25 886.215C7401.39 903.28 7387.89 926.821 7387.89 956.838C7387.89 976.272 7393.37 991.756 7404.35 1003.45C7415.32 1015.14 7430.31 1023.67 7449.46 1028.88C7468.61 1034.26 7489.72 1036.94 7512.4 1036.94Z" fill="#334254"/>
<path d="M8124.39 1176.77L8124.39 410.185L8288.69 410.185L8305.16 525.362L8314.81 525.362C8333.96 495.186 8356.97 470.224 8383.98 450.319C8410.84 430.408 8439.91 415.877 8470.93 406.555C8501.96 397.392 8533.88 392.648 8566.85 392.648C8622.52 392.648 8669.53 403.078 8707.83 423.932C8746.14 444.786 8775.37 478.598 8795.42 525.203L8805.07 525.203C8825.12 495.027 8848.71 470.065 8875.56 450.16C8902.42 430.249 8932.12 415.718 8964.62 406.396C8996.97 397.233 9030.1 392.495 9063.92 392.495C9117.79 392.495 9163.64 402.288 9201.53 421.563C9239.36 440.997 9268.74 472.122 9289.85 514.778C9310.74 557.594 9321.29 611.942 9321.29 677.986L9321.29 1176.45L9118.69 1176.45L9118.69 714.479C9118.69 687.308 9115.73 663.92 9109.77 644.492C9103.86 625.058 9095.37 609.573 9084.39 597.882C9073.42 586.191 9059.49 577.976 9042.71 573.08C9025.78 568.177 9007.84 565.808 8988.68 565.808C8958.56 565.808 8930.91 573.392 8905.85 588.401C8880.79 603.409 8860.74 624.899 8845.59 652.547C8830.61 680.196 8823.01 711.638 8823.01 746.552L8823.01 1176.45L8623.1 1176.45L8623.1 714.479C8623.1 687.308 8619.83 663.92 8613.44 644.487C8607.06 625.058 8598.14 609.573 8586.74 597.882C8575.3 586.191 8561.63 577.976 8545.59 573.08C8529.6 568.177 8511.19 565.809 8490.09 565.809C8459.96 565.809 8432.36 573.392 8407.3 588.401C8382.19 603.409 8362.3 624.899 8347.73 652.547C8333.22 680.196 8325.79 711.638 8325.79 746.552L8325.79 1176.45L8124.39 1176.45L8124.39 1176.77Z" fill="#334254"/>
<path d="M1081.51 357.109H1371.05V468.181C1371.05 618.822 1248.49 740.577 1096.85 740.577H1081.51V357.109ZM669.453 195.785H1081.51V1244.3H1032.48C733.782 1244.3 674.034 1037.35 674.034 853.191L669.453 195.785ZM0 433.201C0 620.365 134.791 688.859 284.918 711.69H0V1247.34H274.203C549.958 1247.34 582.103 1125.59 582.103 1009.93C582.103 868.387 484.076 769.502 332.397 731.436H582.103V195.785H307.9C32.1838 195.785 0 317.539 0 433.201Z" fill="#334254"/>
</svg>
