<svg width="15" height="15" viewBox="0 0 15 15" fill="none" xmlns="http://www.w3.org/2000/svg">
<path d="M7.74375 6.8125C6.325 6.44375 5.86875 6.0625 5.86875 5.46875C5.86875 4.7875 6.5 4.3125 7.55625 4.3125C8.66875 4.3125 9.08125 4.84375 9.11875 5.625H10.5C10.4563 4.55 9.8 3.5625 8.49375 3.24375V1.875H6.61875V3.225C5.40625 3.4875 4.43125 4.275 4.43125 5.48125C4.43125 6.925 5.625 7.64375 7.36875 8.0625C8.93125 8.4375 9.24375 8.9875 9.24375 9.56875C9.24375 10 8.9375 10.6875 7.55625 10.6875C6.26875 10.6875 5.7625 10.1125 5.69375 9.375H4.31875C4.39375 10.7438 5.41875 11.5125 6.61875 11.7687V13.125H8.49375V11.7813C9.7125 11.55 10.6812 10.8438 10.6812 9.5625C10.6812 7.7875 9.1625 7.18125 7.74375 6.8125Z" fill="#94A3B8"/>
</svg>
