<svg width="84" height="84" viewBox="0 0 84 84" fill="none" xmlns="http://www.w3.org/2000/svg">
<circle cx="42" cy="42" r="41.5" stroke="#6562FF"/>
<circle cx="42" cy="42" r="27.5" stroke="#6562FF"/>
<path d="M46.9195 76.5337L46.3317 73.0067L46.975 72.901L47.5628 76.428L46.9195 76.5337Z" fill="#6562FF"/>
<path d="M41.0703 76.9863L40.9636 73.4128L41.5433 73.3958L43.3114 75.7799L43.3413 75.779L43.2686 73.3449L43.9204 73.3257L44.0271 76.8992L43.4439 76.9164L41.6775 74.5305L41.6458 74.5314L41.7186 76.9672L41.0703 76.9863Z" fill="#6562FF"/>
<path d="M37.4042 76.7586L36.8788 73.8412L36.8422 73.836L35.5147 76.4897L34.8048 76.3887L36.5717 73.0286L37.3685 73.142L38.1123 76.8594L37.4042 76.7586Z" fill="#6562FF"/>
<path d="M29.3356 73.0225C29.4555 72.6562 29.6273 72.3648 29.851 72.1482C30.0732 71.9324 30.3256 71.7936 30.6083 71.7319C30.8898 71.6699 31.1804 71.6872 31.4802 71.784C31.78 71.8808 32.0259 72.0367 32.218 72.2517C32.4086 72.4674 32.5304 72.7276 32.5834 73.0323C32.635 73.3378 32.601 73.6731 32.4814 74.0383C32.3615 74.4046 32.1904 74.6957 31.9682 74.9115C31.7445 75.1281 31.4919 75.2674 31.2104 75.3295C30.9277 75.3912 30.6365 75.3736 30.3368 75.2768C30.037 75.18 29.7917 75.0243 29.6007 74.8097C29.4086 74.5947 29.2868 74.3345 29.2353 74.0291C29.1822 73.7244 29.2157 73.3889 29.3356 73.0225ZM29.9591 73.2239C29.8746 73.4817 29.8441 73.7123 29.8675 73.9157C29.8894 74.1198 29.9568 74.2902 30.0698 74.427C30.1823 74.5649 30.3317 74.6639 30.5178 74.724C30.7038 74.7841 30.8833 74.7913 31.056 74.7455C31.2283 74.7008 31.3843 74.6025 31.524 74.4505C31.6622 74.2994 31.7735 74.0949 31.8579 73.837C31.9423 73.5791 31.9736 73.3482 31.9517 73.1441C31.9283 72.9407 31.8603 72.7701 31.7478 72.6322C31.6349 72.4954 31.4853 72.3969 31.2992 72.3368C31.1131 72.2767 30.9339 72.269 30.7616 72.3137C30.5889 72.3595 30.4334 72.458 30.2952 72.6092C30.1555 72.7611 30.0435 72.966 29.9591 73.2239Z" fill="#6562FF"/>
<path d="M25.6016 73.318L27.1632 70.0969L27.7507 70.3778L26.1892 73.5989L25.6016 73.318Z" fill="#6562FF"/>
<path d="M21.1206 69.2731L21.6694 69.6326C21.6257 69.7322 21.6019 69.8303 21.5982 69.9268C21.5938 70.0243 21.6068 70.1178 21.6371 70.2074C21.6675 70.297 21.7147 70.3802 21.7787 70.457C21.8412 70.5342 21.9184 70.6029 22.0103 70.6631C22.1737 70.7701 22.3456 70.8242 22.5259 70.8252C22.7057 70.8272 22.8832 70.7734 23.0585 70.6638C23.2331 70.5552 23.3949 70.3886 23.544 70.1642C23.6956 69.9359 23.7876 69.7202 23.8201 69.517C23.851 69.3142 23.8302 69.1319 23.7579 68.9702C23.684 68.8089 23.5659 68.675 23.4035 68.5687C23.3135 68.5097 23.2216 68.4663 23.1279 68.4383C23.0325 68.4107 22.9381 68.3997 22.8445 68.4053C22.75 68.4103 22.6586 68.4327 22.5704 68.4725C22.4812 68.5117 22.3993 68.5695 22.3246 68.6461L21.7777 68.2837C21.8925 68.1553 22.0254 68.0514 22.1764 67.9719C22.3265 67.8917 22.4879 67.84 22.6607 67.8165C22.8329 67.7941 23.01 67.8042 23.1922 67.8468C23.3738 67.8905 23.5541 67.971 23.7331 68.0882C23.9972 68.2612 24.1926 68.4764 24.3193 68.7336C24.4461 68.9909 24.4929 69.2733 24.46 69.5807C24.4271 69.8881 24.3042 70.2022 24.0913 70.5227C23.8777 70.8443 23.635 71.0798 23.363 71.2293C23.0904 71.3797 22.8101 71.4477 22.5221 71.4333C22.2341 71.4189 21.959 71.3259 21.6969 71.1541C21.5296 71.0446 21.3896 70.9194 21.2768 70.7785C21.1639 70.6377 21.0813 70.4853 21.0288 70.3213C20.9757 70.1582 20.9561 69.9879 20.9702 69.8103C20.9827 69.633 21.0328 69.454 21.1206 69.2731Z" fill="#6562FF"/>
<path d="M20.5095 65.7751L18.0708 68.4047L16.3487 66.8294L16.7191 66.4301L17.9615 67.5666L18.6236 66.8527L17.4704 65.7978L17.8407 65.3985L18.9939 66.4534L19.6596 65.7357L18.4068 64.5897L18.7772 64.1904L20.5095 65.7751Z" fill="#6562FF"/>
<path d="M15.1489 59.9705L12.1258 61.9112L11.393 60.7853C11.2429 60.5546 11.1602 60.3333 11.1451 60.1213C11.1292 59.9084 11.171 59.7132 11.2704 59.5358C11.3682 59.358 11.513 59.2075 11.7049 59.0843C11.8988 58.9599 12.0974 58.8899 12.3008 58.8744C12.5041 58.8588 12.7006 58.9024 12.8903 59.0052C13.0789 59.1085 13.2487 59.276 13.3994 59.5077L13.8851 60.2539L13.4349 60.5429L12.9969 59.87C12.9091 59.7351 12.8136 59.6398 12.7104 59.5841C12.6072 59.5285 12.5009 59.5066 12.3915 59.5186C12.2815 59.5297 12.1729 59.5696 12.0656 59.6385C11.9583 59.7074 11.8775 59.789 11.8232 59.8835C11.7682 59.977 11.7464 60.0817 11.7578 60.1978C11.7675 60.3135 11.8166 60.4392 11.905 60.5751L12.2294 61.0735L14.7949 59.4266L15.1489 59.9705Z" fill="#6562FF"/>
<path d="M12.3082 55.1333L12.5839 55.768L8.77663 56.0282L8.45781 55.2941L11.2606 52.721L11.5362 53.3557L9.28951 55.358L9.30064 55.3836L12.3082 55.1333ZM11.0032 55.6676L10.2514 53.9365L10.7323 53.7305L11.4841 55.4616L11.0032 55.6676Z" fill="#6562FF"/>
<path d="M6.87492 50.7405L10.3415 49.7772L10.5172 50.4008L7.05063 51.3642L6.87492 50.7405Z" fill="#6562FF"/>
<path d="M9.59194 46.2314L9.76029 47.4312L6.19504 47.9246L6.02329 46.7005C5.97397 46.349 6.00298 46.0371 6.11031 45.765C6.21632 45.4918 6.39267 45.2688 6.63935 45.096C6.88604 44.9232 7.19449 44.8112 7.56471 44.76C7.93609 44.7086 8.26487 44.733 8.55104 44.8332C8.83705 44.9323 9.06947 45.1005 9.24828 45.3378C9.42693 45.5739 9.54148 45.8717 9.59194 46.2314ZM9.11148 46.8671L9.03749 46.3398C9.00289 46.0932 8.92876 45.8937 8.81511 45.7414C8.7003 45.5892 8.54655 45.4842 8.35386 45.4263C8.16 45.3685 7.92671 45.3585 7.65398 45.3962C7.38125 45.434 7.16076 45.5068 6.99252 45.6147C6.82311 45.7227 6.70513 45.8642 6.63857 46.0391C6.57069 46.213 6.55356 46.4198 6.5872 46.6595L6.66385 47.2059L9.11148 46.8671Z" fill="#6562FF"/>
<path d="M6.3294 34.4849L9.86471 35.158L9.74193 35.7941L6.20662 35.1209L6.3294 34.4849Z" fill="#6562FF"/>
<path d="M7.92664 28.8782L11.3393 30.0157L11.1547 30.5618L8.29055 31.384L8.28104 31.4121L10.6056 32.1869L10.3981 32.8009L6.98545 31.6634L7.17112 31.114L10.0364 30.294L10.0465 30.2642L7.72028 29.4889L7.92664 28.8782Z" fill="#6562FF"/>
<path d="M9.41071 25.5412L12.3486 26.0615L12.3661 26.0292L10.3188 23.8737L10.66 23.2472L13.2225 26.0566L12.8395 26.7598L9.07039 26.1661L9.41071 25.5412Z" fill="#6562FF"/>
<path d="M15.7328 19.3164C16.0374 19.555 16.2532 19.8159 16.3804 20.0993C16.5073 20.381 16.551 20.6643 16.5115 20.949C16.4727 21.2328 16.3556 21.4976 16.1604 21.7434C15.9653 21.9892 15.7329 22.1644 15.4633 22.2689C15.1935 22.3718 14.9056 22.3953 14.5994 22.3392C14.293 22.2815 13.988 22.1338 13.6844 21.896C13.3798 21.6574 13.1641 21.3973 13.0371 21.1155C12.9099 20.8322 12.8658 20.5486 12.9046 20.2648C12.9442 19.9801 13.0615 19.7148 13.2567 19.469C13.4519 19.2232 13.6839 19.0485 13.9528 18.9448C14.2223 18.8403 14.5103 18.8169 14.8167 18.8745C15.1229 18.9306 15.4283 19.0779 15.7328 19.3164ZM15.3268 19.8277C15.1124 19.6598 14.9052 19.5515 14.705 19.5029C14.5046 19.4527 14.3203 19.4565 14.1519 19.5143C13.9827 19.5715 13.8375 19.6764 13.7163 19.829C13.5951 19.9816 13.5263 20.1462 13.5098 20.323C13.4923 20.4991 13.5312 20.6785 13.6263 20.8612C13.7213 21.0423 13.876 21.2168 14.0903 21.3847C14.3047 21.5526 14.5121 21.6617 14.7125 21.7119C14.9127 21.7605 15.0974 21.7563 15.2666 21.6991C15.4349 21.6413 15.5797 21.536 15.7009 21.3834C15.8221 21.2308 15.8914 21.0665 15.9088 20.8904C15.9253 20.7137 15.8861 20.5347 15.7911 20.3536C15.696 20.1709 15.5412 19.9956 15.3268 19.8277Z" fill="#6562FF"/>
<path d="M16.7462 15.735L19.2485 18.305L18.7797 18.7552L16.2774 16.1852L16.7462 15.735Z" fill="#6562FF"/>
<path d="M22.1184 12.9599L21.5889 13.3467C21.5099 13.2715 21.4255 13.2155 21.3356 13.1786C21.245 13.1407 21.1521 13.1204 21.057 13.1177C20.9619 13.115 20.8669 13.1302 20.7722 13.1633C20.6777 13.1948 20.5861 13.2429 20.4973 13.3077C20.3397 13.4229 20.2292 13.5643 20.1657 13.732C20.1016 13.8988 20.091 14.0828 20.1339 14.2841C20.1761 14.4844 20.2774 14.6928 20.4378 14.9094C20.6009 15.1297 20.7729 15.2901 20.9536 15.3907C21.1345 15.4896 21.3139 15.5334 21.4916 15.522C21.6696 15.509 21.837 15.4452 21.9937 15.3308C22.0805 15.2673 22.1533 15.1968 22.2122 15.1191C22.2713 15.0398 22.3144 14.9556 22.3414 14.8665C22.3695 14.7766 22.3799 14.6838 22.3729 14.5878C22.3667 14.4911 22.3405 14.3948 22.294 14.2987L22.8256 13.9146C22.9072 14.066 22.9593 14.2258 22.9822 14.394C23.0059 14.5616 22.9989 14.7299 22.9613 14.899C22.9229 15.0672 22.852 15.2288 22.7486 15.3838C22.6446 15.5378 22.5061 15.678 22.3334 15.8042C22.0786 15.9904 21.8077 16.098 21.5208 16.127C21.2339 16.156 20.9509 16.102 20.6719 15.9649C20.3929 15.8278 20.1388 15.6046 19.9097 15.2952C19.6798 14.9849 19.5414 14.6772 19.4943 14.3721C19.4465 14.0661 19.4793 13.7814 19.5926 13.518C19.7059 13.2546 19.889 13.0305 20.142 12.8457C20.3034 12.7278 20.4702 12.6406 20.6422 12.5843C20.8143 12.5279 20.9869 12.5036 21.16 12.5115C21.3325 12.5184 21.5001 12.5592 21.663 12.6338C21.8262 12.7067 21.978 12.8154 22.1184 12.9599Z" fill="#6562FF"/>
<path d="M25.6343 13.6014L23.9944 10.4189L26.0785 9.35961L26.3276 9.84289L24.8239 10.6071L25.2691 11.4711L26.6648 10.7618L26.9138 11.245L25.5181 11.9544L25.9657 12.823L27.4819 12.0525L27.7309 12.5358L25.6343 13.6014Z" fill="#6562FF"/>
<path d="M32.9732 10.6158L32.1863 7.12725L33.5035 6.83419C33.7734 6.77415 34.011 6.77375 34.2165 6.83298C34.4232 6.89196 34.5931 6.99846 34.7263 7.15248C34.8604 7.30511 34.9524 7.49215 35.0024 7.71359C35.0528 7.9373 35.0502 8.14659 34.9945 8.34145C34.9388 8.53631 34.8296 8.70431 34.6669 8.84546C34.5039 8.98547 34.2869 9.08561 34.0159 9.1459L33.1429 9.34013L33.0257 8.82059L33.813 8.64545C33.9708 8.61034 34.0938 8.55434 34.1822 8.47745C34.2705 8.40055 34.3279 8.30907 34.3544 8.20299C34.3821 8.09666 34.3819 7.98161 34.354 7.85783C34.3261 7.73405 34.2769 7.6305 34.2065 7.54718C34.1372 7.46361 34.0458 7.40703 33.9323 7.37743C33.8196 7.34645 33.6838 7.34863 33.5249 7.38399L32.9417 7.51373L33.6095 10.4742L32.9732 10.6158Z" fill="#6562FF"/>
<path d="M38.526 9.64329L37.831 9.68042L38.903 6.04295L39.7069 6L41.1674 9.50214L40.4724 9.53928L39.3586 6.75282L39.3306 6.75433L38.526 9.64329ZM38.473 8.24236L40.3685 8.14108L40.3966 8.66052L38.5011 8.7618L38.473 8.24236Z" fill="#6562FF"/>
<path d="M44.5563 6.10135L44.2664 9.66476L43.6164 9.6126L43.9063 6.0492L44.5563 6.10135Z" fill="#6562FF"/>
<path d="M47.8754 10.1937L46.6837 9.93529L47.4517 6.44258L48.6675 6.70625C49.0166 6.78198 49.3012 6.91695 49.5212 7.11117C49.7425 7.3045 49.8921 7.54599 49.9699 7.83565C50.0478 8.12531 50.0468 8.45148 49.9671 8.81417C49.8871 9.17799 49.7502 9.47588 49.5565 9.70783C49.3639 9.94004 49.1246 10.0984 48.8386 10.1829C48.5537 10.2676 48.2326 10.2712 47.8754 10.1937ZM47.4412 9.52601L47.9649 9.6396C48.2099 9.69273 48.424 9.69271 48.6072 9.63953C48.7907 9.58522 48.9431 9.47832 49.0645 9.31883C49.1862 9.15821 49.2764 8.9443 49.3352 8.67712C49.3939 8.40994 49.4014 8.17929 49.3578 7.98519C49.3143 7.78995 49.2215 7.63105 49.0794 7.5085C48.9386 7.38506 48.7492 7.29752 48.511 7.24587L47.9684 7.12819L47.4412 9.52601Z" fill="#6562FF"/>
<path d="M60.1011 11.2199L58.2415 14.2809L57.6832 13.9463L59.5428 10.8853L60.1011 11.2199Z" fill="#6562FF"/>
<path d="M64.8447 14.6487L62.589 17.4347L62.137 17.0737L62.3517 14.1204L62.3284 14.1018L60.7919 15.9995L60.2837 15.5937L62.5395 12.8077L62.9942 13.1708L62.777 16.1244L62.8017 16.1441L64.3393 14.245L64.8447 14.6487Z" fill="#6562FF"/>
<path d="M67.4833 17.1865L65.9749 19.7438L65.9993 19.7713L68.7442 18.6098L69.2179 19.1445L65.677 20.5598L65.1453 19.9595L67.0108 16.6531L67.4833 17.1865Z" fill="#6562FF"/>
<path d="M71.1753 25.2319C70.8446 25.4331 70.5234 25.5439 70.2117 25.5643C69.9016 25.585 69.6189 25.5277 69.3636 25.3923C69.109 25.2579 68.8993 25.0572 68.7347 24.7903C68.57 24.5233 68.485 24.2462 68.4795 23.9588C68.4757 23.6718 68.5532 23.3954 68.7122 23.1295C68.8727 22.864 69.1179 22.6309 69.4476 22.4304C69.7784 22.2292 70.0988 22.1182 70.4089 22.0974C70.7206 22.077 71.0038 22.134 71.2584 22.2684C71.5137 22.4038 71.7237 22.605 71.8883 22.872C72.0529 23.1389 72.1377 23.4156 72.1425 23.702C72.148 23.9893 72.0704 24.2658 71.9099 24.5313C71.7509 24.7972 71.5061 25.0307 71.1753 25.2319ZM70.8329 24.6766C71.0658 24.535 71.2398 24.3794 71.355 24.2097C71.4718 24.0404 71.532 23.8673 71.5356 23.6904C71.5402 23.5129 71.4914 23.3413 71.3892 23.1756C71.287 23.0099 71.1552 22.8887 70.9939 22.8121C70.8337 22.7349 70.6508 22.7091 70.4452 22.7345C70.2413 22.7603 70.0229 22.844 69.79 22.9856C69.5572 23.1272 69.3824 23.2827 69.2656 23.452C69.1504 23.6217 69.0905 23.7953 69.0859 23.9728C69.0823 24.1496 69.1316 24.3209 69.2338 24.4867C69.336 24.6524 69.4672 24.7738 69.6275 24.851C69.7888 24.9276 69.9714 24.953 70.1754 24.9272C70.3809 24.9018 70.6001 24.8183 70.8329 24.6766Z" fill="#6562FF"/>
<path d="M74.2077 27.4158L70.9138 28.8578L70.6508 28.2652L73.9447 26.8232L74.2077 27.4158Z" fill="#6562FF"/>
<path d="M74.9697 33.3818L74.7875 32.7546C74.8859 32.707 74.9681 32.6477 75.0341 32.5767C75.1012 32.5054 75.1525 32.426 75.188 32.3383C75.2235 32.2506 75.242 32.1569 75.2435 32.0571C75.2465 31.9582 75.2327 31.8561 75.2022 31.751C75.148 31.5643 75.0526 31.4123 74.9162 31.2952C74.7808 31.1777 74.6107 31.1041 74.4057 31.0744C74.2019 31.0444 73.9699 31.0666 73.7098 31.1411C73.4452 31.2169 73.2342 31.3216 73.0766 31.4551C72.9205 31.5895 72.817 31.7414 72.7663 31.911C72.717 32.0814 72.7193 32.2593 72.7732 32.445C72.8031 32.5478 72.8445 32.6401 72.8975 32.7218C72.952 32.8043 73.0166 32.8736 73.0914 32.9297C73.1666 32.9869 73.2507 33.0288 73.3438 33.0555C73.4372 33.0832 73.5373 33.0921 73.6442 33.0821L73.823 33.7103C73.6518 33.7339 73.4828 33.7272 73.3159 33.6902C73.1494 33.6544 72.9928 33.5896 72.8461 33.496C72.7005 33.402 72.5724 33.2801 72.4618 33.1301C72.3523 32.9798 72.2678 32.8023 72.2084 32.5977C72.1207 32.2958 72.1128 32.0061 72.1847 31.7288C72.2566 31.4514 72.4056 31.2065 72.6317 30.9939C72.8578 30.7814 73.1566 30.6219 73.5281 30.5155C73.9008 30.4088 74.2394 30.3863 74.5439 30.448C74.8496 30.5094 75.1072 30.6385 75.3168 30.8353C75.5263 31.032 75.6746 31.2802 75.7617 31.5799C75.8172 31.7711 75.8418 31.9566 75.8355 32.1364C75.8292 32.3163 75.7924 32.4855 75.725 32.6441C75.6587 32.8024 75.5622 32.9445 75.4354 33.0704C75.31 33.1972 75.1548 33.301 74.9697 33.3818Z" fill="#6562FF"/>
<path d="M73.1468 36.4358L76.7208 36.0094L77 38.318L76.4573 38.3827L76.2558 36.7171L75.2855 36.8329L75.4725 38.3789L74.9298 38.4436L74.7428 36.8976L73.7673 37.014L73.9704 38.6934L73.4277 38.7582L73.1468 36.4358Z" fill="#6562FF"/>
<path d="M73.4269 44.3072L76.9948 44.7816L76.8157 46.1103C76.779 46.3826 76.6971 46.6041 76.57 46.7751C76.4428 46.9472 76.2833 47.0687 76.0917 47.1395C75.9011 47.2116 75.6926 47.2326 75.4661 47.2025C75.2373 47.1721 75.0405 47.0972 74.8757 46.9778C74.7109 46.8585 74.59 46.6986 74.513 46.4981C74.4372 46.2978 74.4177 46.061 74.4545 45.7876L74.5732 44.907L75.1046 44.9776L74.9975 45.7718C74.9761 45.9309 74.9864 46.065 75.0284 46.1739C75.0705 46.2828 75.137 46.368 75.2281 46.4294C75.3189 46.492 75.4277 46.5317 75.5543 46.5485C75.6809 46.5653 75.7957 46.5553 75.8988 46.5186C76.0017 46.4829 76.0868 46.4173 76.1541 46.3218C76.2223 46.2275 76.2673 46.1003 76.2889 45.9399L76.3682 45.3517L73.3404 44.9491L73.4269 44.3072Z" fill="#6562FF"/>
<path d="M72.4235 49.8177L72.629 49.1572L75.6941 51.4152L75.4564 52.179L71.6425 52.3277L71.848 51.6672L74.8658 51.594L74.8741 51.5673L72.4235 49.8177ZM73.7653 50.2532L73.2048 52.0544L72.7044 51.9008L73.2648 50.0996L73.7653 50.2532Z" fill="#6562FF"/>
<path d="M73.6821 56.6625L70.4162 55.1589L70.6905 54.5714L73.9563 56.0749L73.6821 56.6625Z" fill="#6562FF"/>
<path d="M68.6673 58.3385L69.3239 57.3176L72.3575 59.2421L71.6876 60.2836C71.4952 60.5828 71.2692 60.8012 71.0096 60.9389C70.7504 61.0782 70.4705 61.134 70.1699 61.1063C69.8693 61.0786 69.5615 60.9648 69.2465 60.7649C68.9305 60.5645 68.6965 60.3338 68.5444 60.073C68.3917 59.8132 68.325 59.5354 68.3442 59.2397C68.3628 58.9449 68.4705 58.6445 68.6673 58.3385ZM69.4484 58.165L69.1598 58.6137C69.0248 58.8236 68.9507 59.0231 68.9375 59.2122C68.9253 59.4019 68.9736 59.5809 69.0822 59.7493C69.1918 59.9182 69.3626 60.0763 69.5947 60.2236C69.8268 60.3708 70.042 60.4576 70.2405 60.4841C70.44 60.5113 70.6222 60.4798 70.7872 60.3897C70.9525 60.3013 71.1008 60.1551 71.232 59.9511L71.531 59.4862L69.4484 58.165Z" fill="#6562FF"/>
<path d="M66.0777 67.1251L63.5687 64.5616L64.0363 64.1102L66.5453 66.6737L66.0777 67.1251Z" fill="#6562FF"/>
<path d="M61.534 70.8112L59.3934 67.9369L59.8598 67.5944L62.6815 68.5505L62.7055 68.5328L61.2475 66.575L61.7717 66.1899L63.9123 69.0641L63.4432 69.4088L60.6218 68.4503L60.5964 68.4689L62.0555 70.4281L61.534 70.8112Z" fill="#6562FF"/>
<path d="M58.3925 72.7016L56.285 70.6033L56.252 70.6198L56.6862 73.5514L56.0452 73.8707L55.5659 70.11L56.2855 69.7516L59.032 72.3831L58.3925 72.7016Z" fill="#6562FF"/>
<path d="M49.6198 74.2053C49.5078 73.8365 49.4814 73.4998 49.5407 73.1952C49.5992 72.8921 49.7268 72.6351 49.9235 72.4242C50.1191 72.2138 50.3677 72.0633 50.6695 71.973C50.9713 71.8826 51.2628 71.8713 51.5441 71.939C51.8245 72.0081 52.0741 72.1528 52.2927 72.373C52.5105 72.5946 52.6752 72.8893 52.7868 73.257C52.8988 73.6258 52.9255 73.9618 52.867 74.2649C52.8078 74.5695 52.6803 74.8271 52.4848 75.0376C52.2881 75.2484 52.0389 75.399 51.7371 75.4894C51.4353 75.5797 51.1443 75.5909 50.8642 75.5228C50.583 75.4551 50.3334 75.3104 50.1156 75.0888C49.897 74.8686 49.7317 74.5741 49.6198 74.2053ZM50.2475 74.0174C50.3263 74.277 50.4337 74.4837 50.5697 74.6374C50.7049 74.7926 50.8582 74.8944 51.0296 74.9428C51.2012 74.9922 51.3808 74.9889 51.5681 74.9328C51.7555 74.8767 51.9069 74.7809 52.0224 74.6454C52.1383 74.5111 52.21 74.3419 52.2374 74.138C52.264 73.9356 52.238 73.7045 52.1592 73.4449C52.0803 73.1853 51.9733 72.9779 51.8381 72.8227C51.7021 72.669 51.5482 72.5674 51.3765 72.5179C51.2052 72.4695 51.0258 72.4734 50.8385 72.5295C50.6511 72.5856 50.4995 72.6808 50.3837 72.8152C50.2681 72.9507 50.197 73.1196 50.1704 73.3221C50.1429 73.526 50.1686 73.7578 50.2475 74.0174Z" fill="#6562FF"/>
<path d="M46.7228 76.5638L46.1548 73.0336L46.7987 72.9314L47.3668 76.4616L46.7228 76.5638Z" fill="#6562FF"/>
<path d="M40.7189 75.7811L41.3761 75.7654C41.3974 75.872 41.4343 75.966 41.4867 76.0474C41.5391 76.1299 41.6035 76.1994 41.6799 76.2558C41.7562 76.3121 41.8428 76.3537 41.9396 76.3805C42.0352 76.4085 42.1381 76.4212 42.2482 76.4185C42.4438 76.4138 42.616 76.3608 42.7647 76.2595C42.9135 76.1593 43.0284 76.0145 43.1094 75.8252C43.1904 75.637 43.2276 75.4085 43.2211 75.1398C43.2144 74.8664 43.1661 74.637 43.076 74.4518C42.9848 74.2677 42.8631 74.1298 42.7108 74.038C42.5574 73.9473 42.3835 73.9044 42.1891 73.909C42.0813 73.9116 41.9809 73.928 41.8878 73.9581C41.7937 73.9895 41.7098 74.034 41.6361 74.0916C41.5614 74.1493 41.4992 74.2195 41.4496 74.3021C41.3989 74.3848 41.3648 74.4788 41.3474 74.584L40.6902 74.5962C40.7107 74.4257 40.7601 74.2651 40.8385 74.1142C40.9157 73.9634 41.0185 73.8294 41.147 73.7122C41.2754 73.5962 41.4267 73.5041 41.6009 73.4359C41.7751 73.3689 41.9694 73.3328 42.1837 73.3277C42.5 73.3201 42.7841 73.3861 43.036 73.5256C43.2879 73.665 43.4886 73.8704 43.6382 74.1415C43.7877 74.4126 43.8672 74.7402 43.8765 75.1241C43.8858 75.5092 43.8218 75.8401 43.6843 76.117C43.5469 76.395 43.3558 76.6097 43.111 76.7611C42.8662 76.9124 42.5868 76.9919 42.2728 76.9994C42.0725 77.0042 41.8856 76.9807 41.712 76.929C41.5385 76.8773 41.383 76.7989 41.2457 76.694C41.1084 76.5901 40.9945 76.4613 40.904 76.3075C40.8124 76.1549 40.7507 75.9794 40.7189 75.7811Z" fill="#6562FF"/>
<path d="M38.2076 73.2546L37.7154 76.796L35.3962 76.4781L35.471 75.9403L37.1442 76.1697L37.2778 75.2082L35.7247 74.9954L35.7995 74.4576L37.3526 74.6705L37.4869 73.7038L35.7997 73.4725L35.8745 72.9348L38.2076 73.2546Z" fill="#6562FF"/>
<path d="M28.3104 58.2546L22.1285 47.5473L26.5515 44.9937C27.3532 44.5309 28.1356 44.2883 28.8988 44.2659C29.6634 44.2381 30.3653 44.4114 31.0045 44.7859C31.6416 45.157 32.1725 45.7103 32.5971 46.4457C33.0237 47.1846 33.2349 47.9247 33.2307 48.666C33.228 49.4019 33.0162 50.0934 32.5952 50.7408C32.1743 51.3881 31.5543 51.9482 30.7352 52.4211L28.0061 53.9968L26.8289 51.9578L29.077 50.6599C29.4674 50.4345 29.754 50.1784 29.9369 49.8915C30.1234 49.6026 30.2141 49.297 30.2092 48.9745C30.2022 48.6486 30.1042 48.3218 29.915 47.9942C29.7239 47.663 29.4909 47.4165 29.2161 47.2545C28.9393 47.089 28.6302 47.0165 28.2889 47.0369C27.9475 47.0574 27.5834 47.1794 27.1965 47.4027L25.9208 48.1392L30.8983 56.7604L28.3104 58.2546ZM38.9365 52.1195L36.1552 53.7254L33.586 40.9324L37.0313 38.9432L46.8258 47.5647L44.0444 49.1705L36.9054 42.6129L36.8218 42.6612L38.9365 52.1195ZM36.1325 48.12L41.9462 44.7634L43.0811 46.7292L37.2674 50.0857L36.1325 48.12ZM44.3847 34.6977L50.5665 45.405L47.9786 46.8991L41.7968 36.1919L44.3847 34.6977ZM56.1489 42.182L52.1912 44.467L46.0094 33.7597L49.9618 31.4778C51.0528 30.8479 52.1158 30.52 53.1511 30.4939C54.1878 30.4623 55.1519 30.7236 56.0434 31.2777C56.9329 31.8284 57.6987 32.6596 58.3406 33.7715C58.9845 34.8868 59.3236 35.9691 59.3577 37.0182C59.3953 38.0654 59.1423 39.0317 58.5986 39.9172C58.0529 40.7992 57.2363 41.5542 56.1489 42.182ZM53.5053 40.7666L54.7758 40.0331C55.3752 39.687 55.824 39.2931 56.1221 38.8515C56.4216 38.4043 56.5448 37.8894 56.4918 37.3065C56.4403 36.7182 56.1922 36.0389 55.7474 35.2686C55.3027 34.4984 54.8405 33.9473 54.3608 33.6155C53.8791 33.2802 53.369 33.1332 52.8305 33.1745C52.2936 33.2104 51.7184 33.4054 51.1049 33.7595L49.8711 34.4719L53.5053 40.7666Z" fill="#6562FF"/>
<path d="M38.8035 31.7344L34.5703 31.2874L32.737 35.1301L31.8845 30.9794L27.6607 30.4565L31.367 28.3382L30.5898 24.1724L33.7329 27.0139L37.4764 24.9622L35.7126 28.8366L38.8035 31.7344Z" fill="#6562FF"/>
</svg>
