<svg width="15" height="15" viewBox="0 0 15 15" fill="none" xmlns="http://www.w3.org/2000/svg">
<path fill-rule="evenodd" clip-rule="evenodd" d="M7.33333 0C5.3075 0 3.66667 1.64083 3.66667 3.66667C3.66667 5.6925 5.3075 7.33333 7.33333 7.33333C9.35917 7.33333 11 5.6925 11 3.66667C11 1.64083 9.35917 0 7.33333 0ZM9.25833 3.66667C9.25833 2.60333 8.39667 1.74167 7.33333 1.74167C6.27 1.74167 5.40833 2.60333 5.40833 3.66667C5.40833 4.73 6.27 5.59167 7.33333 5.59167C8.39667 5.59167 9.25833 4.73 9.25833 3.66667ZM12.925 11.9167C12.925 11.33 10.0558 9.99167 7.33333 9.99167C4.61083 9.99167 1.74167 11.33 1.74167 11.9167V12.925H12.925V11.9167ZM0 11.9167C0 9.47833 4.88583 8.25 7.33333 8.25C9.78083 8.25 14.6667 9.47833 14.6667 11.9167V14.6667H0V11.9167Z" fill="#CBD5E1"/>
</svg>
