<svg width="100" height="100" viewBox="0 0 100 100" fill="none" xmlns="http://www.w3.org/2000/svg">
<path opacity="0.3" d="M50 45.8333C40.7952 45.8333 33.3333 38.3714 33.3333 29.1667C33.3333 19.9619 40.7952 12.5 50 12.5C59.2047 12.5 66.6667 19.9619 66.6667 29.1667C66.6667 38.3714 59.2047 45.8333 50 45.8333Z" fill="#6562FF"/>
<path d="M12.5027 84.1634C14.1177 64.2771 30.258 54.1667 49.9306 54.1667C69.8801 54.1667 86.2703 63.7216 87.4913 84.1667C87.54 84.9811 87.4913 87.5 84.3612 87.5C68.9213 87.5 45.978 87.5 15.5313 87.5C14.4863 87.5 12.4147 85.2466 12.5027 84.1634Z" fill="#6562FF"/>
</svg>
