
<svg width="13" height="13" viewBox="0 0 13 13" fill="none" xmlns="http://www.w3.org/2000/svg">
<path fill-rule="evenodd" clip-rule="evenodd" d="M9.20835 4.60417H9.75002C10.3459 4.60417 10.8334 5.09167 10.8334 5.6875V11.1042C10.8334 11.7 10.3459 12.1875 9.75002 12.1875H3.25002C2.65419 12.1875 2.16669 11.7 2.16669 11.1042V5.6875C2.16669 5.09167 2.65419 4.60417 3.25002 4.60417H3.79169V3.52083C3.79169 2.02583 5.00502 0.8125 6.50002 0.8125C7.99502 0.8125 9.20835 2.02583 9.20835 3.52083V4.60417ZM6.50002 1.89583C5.60085 1.89583 4.87502 2.62167 4.87502 3.52083V4.60417H8.12502V3.52083C8.12502 2.62167 7.39919 1.89583 6.50002 1.89583ZM3.25002 11.1042V5.6875H9.75002V11.1042H3.25002ZM7.58335 8.39583C7.58335 8.99167 7.09585 9.47917 6.50002 9.47917C5.90419 9.47917 5.41669 8.99167 5.41669 8.39583C5.41669 7.8 5.90419 7.3125 6.50002 7.3125C7.09585 7.3125 7.58335 7.8 7.58335 8.39583Z" fill="#918FFF"/>
</svg>
