<svg width="20" height="20" viewBox="0 0 20 20" fill="none" xmlns="http://www.w3.org/2000/svg">
<path fill-rule="evenodd" clip-rule="evenodd" d="M5.83333 2.5C3.99238 2.5 2.5 3.99238 2.5 5.83333C2.5 7.67428 3.99238 9.16667 5.83333 9.16667H14.1667C16.0076 9.16667 17.5 7.67428 17.5 5.83333C17.5 3.99238 16.0076 2.5 14.1667 2.5H5.83333ZM7.5 5.83333C7.5 6.75381 6.75381 7.5 5.83333 7.5C4.91286 7.5 4.16667 6.75381 4.16667 5.83333C4.16667 4.91286 4.91286 4.16667 5.83333 4.16667C6.75381 4.16667 7.5 4.91286 7.5 5.83333Z" fill="#1F7AFA"/>
<path opacity="0.3" fill-rule="evenodd" clip-rule="evenodd" d="M5.83333 10.8335C3.99238 10.8335 2.5 12.3259 2.5 14.1668C2.5 16.0078 3.99238 17.5002 5.83333 17.5002H14.1667C16.0076 17.5002 17.5 16.0078 17.5 14.1668C17.5 12.3259 16.0076 10.8335 14.1667 10.8335H5.83333ZM15.8333 14.1668C15.8333 15.0873 15.0871 15.8335 14.1667 15.8335C13.2462 15.8335 12.5 15.0873 12.5 14.1668C12.5 13.2464 13.2462 12.5002 14.1667 12.5002C15.0871 12.5002 15.8333 13.2464 15.8333 14.1668Z" fill="#1F7AFA"/>
</svg>
