<svg width="14" height="14" viewBox="0 0 14 14" fill="none" xmlns="http://www.w3.org/2000/svg">
<path fill-rule="evenodd" clip-rule="evenodd" d="M6.99999 11.9999L3.59634 13.7893C3.18897 14.0034 2.68511 13.8468 2.47094 13.4395C2.38566 13.2772 2.35623 13.0914 2.38721 12.9108L3.03725 9.12078L0.28364 6.43667C-0.0459299 6.11542 -0.0526735 5.58783 0.268578 5.25826C0.396501 5.12702 0.56412 5.04162 0.745484 5.01526L4.55088 4.46231L6.25271 1.01403C6.45639 0.601319 6.95608 0.43187 7.36879 0.635556C7.53314 0.716664 7.66616 0.849687 7.74727 1.01403L9.44909 4.46231L13.2545 5.01526C13.7099 5.08144 14.0255 5.50431 13.9593 5.95977C13.933 6.14113 13.8476 6.30875 13.7163 6.43667L10.9627 9.12078L11.6128 12.9108C11.6906 13.3644 11.3859 13.7952 10.9323 13.873C10.7517 13.904 10.5659 13.8746 10.4036 13.7893L6.99999 11.9999Z" fill="#1F7AFA"/>
</svg>
