<svg width="50" height="50" viewBox="0 0 50 50" fill="none" xmlns="http://www.w3.org/2000/svg">
<rect opacity="0.19" width="50" height="50" rx="4" fill="#6562FF"/>
<path opacity="0.3" fill-rule="evenodd" clip-rule="evenodd" d="M23.5 32.25L28.0949 34.6657C28.3139 34.7808 28.5648 34.8206 28.8086 34.7787C29.421 34.6737 29.8323 34.0921 29.7272 33.4798L28.8497 28.3632L32.5671 24.7397C32.7442 24.567 32.8595 24.3407 32.8951 24.0959C32.9845 23.481 32.5584 22.9101 31.9436 22.8208L26.8063 22.0743L24.5088 17.4191C24.3993 17.1972 24.2198 17.0177 23.9979 16.9082C23.8375 16.829 23.6675 16.7916 23.5 16.7917V32.25Z" fill="#6562FF"/>
<path fill-rule="evenodd" clip-rule="evenodd" d="M23.5 16.7917C23.0855 16.7921 22.687 17.0223 22.4912 17.4191L20.1937 22.0743L15.0564 22.8208C14.8116 22.8564 14.5853 22.9716 14.4126 23.1488C13.9789 23.5937 13.988 24.306 14.4329 24.7397L18.1503 28.3632L17.2728 33.4798C17.2309 33.7236 17.2707 33.9744 17.3858 34.1934C17.6749 34.7434 18.3551 34.9548 18.9051 34.6657L23.5 32.25V16.7917Z" fill="#6562FF"/>
</svg>
