<svg width="17" height="15" viewBox="0 0 17 15" fill="none" xmlns="http://www.w3.org/2000/svg">
<path d="M16.747 2.4972C16.1555 2.75928 15.5202 2.93636 14.8522 3.01641C15.5414 2.60401 16.057 1.95494 16.3029 1.19032C15.6553 1.57494 14.9467 1.84567 14.2076 1.99074C13.7106 1.4601 13.0524 1.10839 12.335 0.9902C11.6177 0.872013 10.8814 0.993967 10.2404 1.33713C9.59947 1.68029 9.08975 2.22545 8.79039 2.88799C8.49104 3.55052 8.41879 4.29335 8.58487 5.00116C7.27281 4.93528 5.98927 4.59425 4.81754 4.00021C3.64581 3.40617 2.61209 2.5724 1.78345 1.55299C1.50012 2.04174 1.3372 2.60841 1.3372 3.21191C1.33688 3.75519 1.47067 4.29016 1.7267 4.76934C1.98272 5.24852 2.35306 5.6571 2.80487 5.95882C2.2809 5.94215 1.76848 5.80057 1.31028 5.54586V5.58836C1.31023 6.35035 1.57381 7.08888 2.05629 7.67865C2.53877 8.26842 3.21044 8.67311 3.95732 8.82403C3.47125 8.95558 2.96165 8.97495 2.46699 8.8807C2.67772 9.53634 3.0882 10.1097 3.64096 10.5204C4.19372 10.9312 4.8611 11.1588 5.54966 11.1714C4.38079 12.089 2.93724 12.5868 1.45124 12.5846C1.18801 12.5846 0.925003 12.5693 0.663574 12.5385C2.17195 13.5084 3.92782 14.0231 5.72107 14.0211C11.7915 14.0211 15.11 8.99332 15.11 4.63282C15.11 4.49116 15.1065 4.34807 15.1001 4.20641C15.7456 3.7396 16.3028 3.16154 16.7456 2.49932L16.747 2.4972V2.4972Z" fill="#E2E8EF"/>
</svg>
