<svg width="19" height="14" viewBox="0 0 19 14" fill="none" xmlns="http://www.w3.org/2000/svg">
<path fill-rule="evenodd" clip-rule="evenodd" d="M15.3188 5.15667C14.7804 2.42542 12.3817 0.375 9.5 0.375C7.21208 0.375 5.225 1.67333 4.23542 3.57333C1.8525 3.82667 0 5.84542 0 8.29167C0 10.9121 2.12958 13.0417 4.75 13.0417H15.0417C17.2267 13.0417 19 11.2683 19 9.08333C19 6.99333 17.3771 5.29917 15.3188 5.15667ZM15.0417 11.4583H4.75C3.00042 11.4583 1.58333 10.0413 1.58333 8.29167C1.58333 6.66875 2.79458 5.315 4.40167 5.14875L5.24875 5.06167L5.64458 4.30958C6.39667 2.86083 7.86917 1.95833 9.5 1.95833C11.5742 1.95833 13.3633 3.43083 13.7671 5.46542L14.0046 6.65292L15.2158 6.74C16.4508 6.81917 17.4167 7.85625 17.4167 9.08333C17.4167 10.3896 16.3479 11.4583 15.0417 11.4583ZM8.35208 7.5H6.33333L9.5 4.33333L12.6667 7.5H10.6479V9.875H8.35208V7.5Z" fill="#CBD5E1"/>
</svg>
