<svg width="20" height="20" viewBox="0 0 20 20" fill="none" xmlns="http://www.w3.org/2000/svg">
<path opacity="0.3" d="M10 9.16667C8.15907 9.16667 6.66669 7.67428 6.66669 5.83333C6.66669 3.99238 8.15907 2.5 10 2.5C11.841 2.5 13.3334 3.99238 13.3334 5.83333C13.3334 7.67428 11.841 9.16667 10 9.16667Z" fill="#1F7AFA"/>
<path d="M2.50054 16.8328C2.82355 12.8556 6.05159 10.8335 9.98612 10.8335C13.976 10.8335 17.2541 12.7445 17.4983 16.8335C17.508 16.9964 17.4983 17.5002 16.8722 17.5002C13.7843 17.5002 9.1956 17.5002 3.10625 17.5002C2.89726 17.5002 2.48295 17.0495 2.50054 16.8328Z" fill="#1F7AFA"/>
</svg>
