<svg width="17" height="17" viewBox="0 0 17 17" fill="none" xmlns="http://www.w3.org/2000/svg">
<path fill-rule="evenodd" clip-rule="evenodd" d="M16.4166 5.72919C16.4166 4.85044 15.712 4.14585 14.8333 4.14585H11.6666V2.56252C11.6666 1.68377 10.962 0.979187 10.0833 0.979187H6.91658C6.03784 0.979187 5.33325 1.68377 5.33325 2.56252V4.14585H2.16659C1.28784 4.14585 0.591169 4.85044 0.591169 5.72919L0.583252 14.4375C0.583252 15.3163 1.28784 16.0209 2.16659 16.0209H14.8333C15.712 16.0209 16.4166 15.3163 16.4166 14.4375V5.72919ZM10.0833 4.14585V2.56252H6.91658V4.14585H10.0833ZM2.16659 5.72919V14.4375H14.8333V5.72919H2.16659Z" fill="#DADADA"/>
</svg>
