<svg width="108" height="28" viewBox="0 0 108 28" fill="none" xmlns="http://www.w3.org/2000/svg">
<g clip-path="url(#clip0_167_142)">
<path d="M14 28C21.732 28 28 21.732 28 14C28 6.26801 21.732 0 14 0C6.26801 0 0 6.26801 0 14C0 21.732 6.26801 28 14 28Z" fill="#94A3B8"/>
<path d="M18.3323 10.0143H21.5V11.229C21.5 12.8764 20.1591 14.208 18.5001 14.208H18.3323V10.0143ZM13.8241 8.25H18.3323V19.7166H17.7959C14.528 19.7166 13.8743 17.4534 13.8743 15.4394L13.8241 8.25ZM6.5 10.8464C6.5 12.8933 7.97468 13.6424 9.61715 13.892H6.5V19.75H9.49992C12.5168 19.75 12.8685 18.4185 12.8685 17.1536C12.8685 15.6057 11.796 14.5242 10.1366 14.108H12.8685V8.25H9.86859C6.85211 8.25 6.5 9.58152 6.5 10.8464Z" fill="white"/>
<path d="M46.1363 22.7892C44.2818 22.7892 42.6643 22.4119 41.2842 21.6571C39.9041 20.9023 38.8258 19.8672 38.0495 18.5518C37.2731 17.2363 36.885 15.7268 36.885 14.0232C36.885 12.7077 37.1007 11.5001 37.5319 10.4003C37.9633 9.30046 38.5671 8.35162 39.3434 7.55372C40.1198 6.73426 41.0362 6.10888 42.0929 5.67758C43.1711 5.22473 44.3357 4.99829 45.5865 4.99829C46.7509 4.99829 47.8291 5.21394 48.8211 5.64524C49.8131 6.05497 50.6649 6.648 51.3766 7.42433C52.1098 8.1791 52.6705 9.07404 53.0586 10.1091C53.4467 11.1443 53.6193 12.2764 53.5762 13.5056L53.5438 14.9288H39.7963L39.0523 12.1147H49.7593L49.2417 12.6969V11.9853C49.1985 11.403 49.0045 10.8747 48.6594 10.4003C48.3359 9.92585 47.9154 9.55925 47.3978 9.30046C46.8803 9.04169 46.2981 8.9123 45.6511 8.9123C44.7022 8.9123 43.8935 9.09561 43.2251 9.46221C42.5781 9.82881 42.0822 10.3679 41.7371 11.0796C41.3921 11.7912 41.2195 12.6538 41.2195 13.6674C41.2195 14.7024 41.4351 15.5974 41.8665 16.3522C42.3194 17.107 42.9447 17.6999 43.7426 18.1312C44.5621 18.541 45.5217 18.7459 46.6215 18.7459C47.3763 18.7459 48.0663 18.6272 48.6918 18.39C49.3171 18.1528 49.9857 17.7431 50.6973 17.1608L52.8969 20.2338C52.2715 20.7946 51.5814 21.269 50.8266 21.6571C50.0719 22.0238 49.2955 22.304 48.4977 22.4982C47.6998 22.6922 46.9126 22.7892 46.1363 22.7892Z" fill="#94A3B8"/>
<path d="M63.3755 22.7892C61.9522 22.7892 60.6691 22.4011 59.5262 21.6247C58.3832 20.8484 57.4775 19.7918 56.809 18.4547C56.1404 17.1178 55.8062 15.5866 55.8062 13.8614C55.8062 12.1362 56.1404 10.6159 56.809 9.30046C57.4991 7.96345 58.4263 6.91756 59.5908 6.1628C60.7554 5.38646 62.0815 4.99829 63.5695 4.99829C64.4106 4.99829 65.1762 5.12768 65.8662 5.38646C66.5778 5.62368 67.1924 5.95793 67.71 6.38922C68.2491 6.82052 68.7019 7.3165 69.0686 7.8772C69.4351 8.43788 69.6939 9.04169 69.8448 9.68864L68.8744 9.52691V5.35412H73.4354V22.4658H68.8098V18.3576L69.8448 18.2607C69.6723 18.8644 69.392 19.4359 69.0039 19.9751C68.6156 20.5142 68.1304 20.9994 67.5482 21.4307C66.9875 21.8404 66.3514 22.1747 65.6398 22.4335C64.9282 22.6707 64.1734 22.7892 63.3755 22.7892ZM64.637 18.8106C65.4996 18.8106 66.2543 18.6056 66.9012 18.1959C67.5482 17.7862 68.0442 17.2147 68.3892 16.4815C68.7559 15.7268 68.9391 14.8534 68.9391 13.8614C68.9391 12.891 68.7559 12.0392 68.3892 11.306C68.0442 10.5728 67.5482 10.0013 66.9012 9.5916C66.2543 9.1603 65.4996 8.94465 64.637 8.94465C63.7959 8.94465 63.052 9.1603 62.405 9.5916C61.7796 10.0013 61.2836 10.5728 60.9171 11.306C60.5504 12.0392 60.3671 12.891 60.3671 13.8614C60.3671 14.8534 60.5504 15.7268 60.9171 16.4815C61.2836 17.2147 61.7796 17.7862 62.405 18.1959C63.052 18.6056 63.7959 18.8106 64.637 18.8106Z" fill="#94A3B8"/>
<path d="M78.0405 22.4658V5.35412H82.4721L82.6339 10.8531L81.8576 9.72098C82.1163 8.83682 82.5368 8.03893 83.1191 7.32729C83.7013 6.59409 84.3807 6.02262 85.1569 5.61289C85.9548 5.20316 86.7851 4.99829 87.6477 4.99829C88.0143 4.99829 88.3701 5.03064 88.7152 5.09533C89.0601 5.16002 89.3513 5.2355 89.5885 5.32177L88.3593 10.3679C88.1005 10.2385 87.7879 10.1307 87.4212 10.0445C87.0547 9.93664 86.6772 9.88272 86.2891 9.88272C85.7716 9.88272 85.2863 9.97976 84.8335 10.1738C84.4021 10.3464 84.0248 10.6051 83.7013 10.9502C83.3779 11.2737 83.1191 11.6618 82.9249 12.1147C82.7525 12.5675 82.6663 13.0635 82.6663 13.6027V22.4658H78.0405Z" fill="#94A3B8"/>
<path d="M92.2241 22.4658V5.35412H96.6233L96.7528 8.84761L95.8471 9.23577C96.0843 8.45944 96.5048 7.75858 97.1087 7.13321C97.734 6.48626 98.478 5.9687 99.3405 5.58054C100.203 5.19238 101.109 4.99829 102.058 4.99829C103.352 4.99829 104.43 5.25708 105.292 5.77462C106.177 6.29218 106.834 7.07929 107.266 8.13597C107.719 9.17108 107.945 10.4542 107.945 11.9853V22.4658H103.352V12.3411C103.352 11.5648 103.244 10.9178 103.028 10.4003C102.813 9.88272 102.478 9.50533 102.025 9.26812C101.594 9.00934 101.055 8.90152 100.408 8.94465C99.8904 8.94465 99.4052 9.0309 98.9524 9.20342C98.5211 9.35438 98.1437 9.58081 97.8203 9.88272C97.5184 10.1846 97.2704 10.5297 97.0763 10.9178C96.9037 11.306 96.8175 11.7265 96.8175 12.1794V22.4658H94.5532C94.0572 22.4658 93.6151 22.4658 93.2269 22.4658C92.8388 22.4658 92.5045 22.4658 92.2241 22.4658Z" fill="#94A3B8"/>
<path fill-rule="evenodd" clip-rule="evenodd" d="M44.73 7.3438L46.2354 0.822815L50.1329 1.7226L48.6275 8.24359L44.73 7.3438Z" fill="#94A3B8"/>
<path fill-rule="evenodd" clip-rule="evenodd" d="M39.6001 26.2774L41.3565 18.6696L45.254 19.5694L43.4976 27.1772L39.6001 26.2774Z" fill="#94A3B8"/>
</g>
<defs>
<clipPath id="clip0_167_142">
<rect width="108" height="28" fill="white"/>
</clipPath>
</defs>
</svg>
