<svg width="136" height="36" viewBox="0 0 136 36" fill="none" xmlns="http://www.w3.org/2000/svg">
<path d="M57.4014 28.3537C55.094 28.3537 53.0818 27.884 51.3647 26.9451C49.6476 26.0059 48.3061 24.7182 47.34 23.0814C46.3742 21.4448 45.8914 19.5667 45.8914 17.4472C45.8914 15.8105 46.1596 14.308 46.6962 12.9397C47.2328 11.5714 47.9841 10.3909 48.9499 9.39815C49.9158 8.37861 51.056 7.60054 52.3708 7.06392C53.7123 6.50049 55.1612 6.21878 56.7173 6.21878C58.166 6.21878 59.5077 6.48708 60.7417 7.02367C61.976 7.53344 63.0357 8.27128 63.9211 9.23716C64.8333 10.1762 65.531 11.2897 66.0138 12.5775C66.4968 13.8654 66.7115 15.2739 66.6579 16.8033L66.6176 18.574H49.5133L48.5877 15.0727H61.9089L61.265 15.7971V14.9117C61.2112 14.1873 60.9699 13.53 60.5405 12.9397C60.1382 12.3495 59.6149 11.8933 58.971 11.5714C58.327 11.2494 57.6026 11.0884 56.7978 11.0884C55.6171 11.0884 54.611 11.3165 53.7792 11.7726C52.9744 12.2287 52.3573 12.8995 51.928 13.7849C51.4988 14.6702 51.2842 15.7435 51.2842 17.0045C51.2842 18.2923 51.5524 19.4058 52.089 20.3448C52.6526 21.2838 53.4305 22.0217 54.4233 22.5583C55.4427 23.0681 56.6368 23.3229 58.0052 23.3229C58.9441 23.3229 59.8028 23.1755 60.5807 22.8804C61.3589 22.585 62.1906 22.0753 63.076 21.3509L65.8125 25.1741C65.0346 25.8718 64.1759 26.462 63.237 26.9451C62.2978 27.4012 61.332 27.7499 60.3392 27.9914C59.3466 28.2329 58.3672 28.3537 57.4014 28.3537Z" fill="white"/>
<path d="M78.8492 28.3537C77.0785 28.3537 75.4821 27.8707 74.0601 26.9048C72.6381 25.9389 71.5113 24.6242 70.6795 22.9606C69.8478 21.2973 69.4319 19.3923 69.4319 17.2459C69.4319 15.0995 69.8478 13.208 70.6795 11.5714C71.538 9.90792 72.6917 8.60665 74.1406 7.66761C75.5893 6.70173 77.2395 6.21878 79.0907 6.21878C80.1371 6.21878 81.0896 6.37975 81.948 6.70173C82.8336 6.99685 83.5982 7.41273 84.242 7.94932C84.9128 8.48591 85.4763 9.10301 85.9324 9.8006C86.3886 10.4982 86.7104 11.2494 86.8983 12.0543L85.6909 11.8531V6.66148H91.3655V27.9512H85.6104V22.8401L86.8983 22.7193C86.6837 23.4706 86.3347 24.1816 85.8519 24.8523C85.3689 25.5231 84.7653 26.1266 84.041 26.6633C83.3433 27.173 82.5518 27.5889 81.6665 27.9109C80.7811 28.206 79.8419 28.3537 78.8492 28.3537ZM80.4188 23.4034C81.4921 23.4034 82.4311 23.1486 83.2359 22.6388C84.041 22.1291 84.6579 21.4181 85.0873 20.5058C85.5435 19.5667 85.7714 18.4801 85.7714 17.2459C85.7714 16.0386 85.5435 14.9788 85.0873 14.0666C84.6579 13.1543 84.041 12.4434 83.2359 11.9336C82.4311 11.397 81.4921 11.1287 80.4188 11.1287C79.3725 11.1287 78.4469 11.397 77.6418 11.9336C76.8639 12.4434 76.2467 13.1543 75.7906 14.0666C75.3345 14.9788 75.1065 16.0386 75.1065 17.2459C75.1065 18.4801 75.3345 19.5667 75.7906 20.5058C76.2467 21.4181 76.8639 22.1291 77.6418 22.6388C78.4469 23.1486 79.3725 23.4034 80.4188 23.4034Z" fill="white"/>
<path d="M97.0957 27.9512V6.66148H102.609L102.811 13.5031L101.845 12.0946C102.167 10.9945 102.69 10.0018 103.414 9.11642C104.139 8.2042 104.984 7.49321 105.95 6.98344C106.942 6.47367 107.975 6.21878 109.049 6.21878C109.505 6.21878 109.947 6.25903 110.377 6.33952C110.806 6.42 111.168 6.51392 111.463 6.62123L109.934 12.8995C109.612 12.7385 109.223 12.6043 108.767 12.497C108.311 12.3629 107.841 12.2958 107.358 12.2958C106.714 12.2958 106.111 12.4165 105.547 12.658C105.011 12.8726 104.541 13.1946 104.139 13.6239C103.736 14.0263 103.414 14.5093 103.173 15.0727C102.958 15.6361 102.851 16.2532 102.851 16.924V27.9512H97.0957Z" fill="white"/>
<path d="M114.742 27.9512V6.66148H120.215L120.376 11.008L119.249 11.4909C119.544 10.525 120.068 9.65304 120.819 8.87495C121.597 8.07006 122.522 7.42614 123.596 6.94319C124.669 6.46026 125.796 6.21878 126.976 6.21878C128.586 6.21878 129.927 6.54074 131.001 7.18466C132.101 7.82858 132.919 8.80787 133.456 10.1226C134.019 11.4104 134.301 13.0068 134.301 14.9117V27.9512H128.586V15.3544C128.586 14.3885 128.452 13.5836 128.184 12.9397C127.915 12.2958 127.499 11.8263 126.936 11.5311C126.399 11.2092 125.729 11.075 124.924 11.1287C124.28 11.1287 123.676 11.236 123.113 11.4506C122.576 11.6385 122.107 11.9202 121.704 12.2958C121.329 12.6714 121.02 13.1007 120.779 13.5836C120.564 14.0666 120.457 14.5898 120.457 15.1532V27.9512H117.639C117.022 27.9512 116.472 27.9512 115.989 27.9512C115.506 27.9512 115.09 27.9512 114.742 27.9512Z" fill="white"/>
<path d="M59.9486 1.58374L58.0754 9.69691" stroke="white" stroke-width="2.51031"/>
<path d="M53.8787 23.788L51.6934 33.2534" stroke="white" stroke-width="2.51031"/>
<path fill-rule="evenodd" clip-rule="evenodd" d="M34.8365 17.4183C34.8365 27.0381 27.0381 34.8365 17.4183 34.8365C7.79842 34.8365 0 27.0381 0 17.4183C0 7.79842 7.79842 0 17.4183 0C27.0381 0 34.8365 7.79842 34.8365 17.4183ZM26.7506 12.4592H22.8095V10.2641H17.2006L17.2629 19.209C17.2629 21.7147 18.0762 24.5305 22.1419 24.5305H22.8095V17.6767H23.0181C25.0823 17.6767 26.7506 16.0201 26.7506 13.9704V12.4592ZM11.9664 17.2837C9.92289 16.9731 8.08813 16.0411 8.08813 13.4945C8.08813 11.9208 8.52622 10.2641 12.2792 10.2641H16.0116V17.5524H12.6127C14.6773 18.0703 16.0116 19.4158 16.0116 21.3416C16.0116 22.9154 15.574 24.5721 11.8205 24.5721H8.08813V17.2837H11.9664Z" fill="white"/>
</svg>

