<svg width="408" height="150" viewBox="0 0 408 150" fill="none" xmlns="http://www.w3.org/2000/svg">
<path d="M66.0494 131.334C62.2339 131.334 58.5746 129.818 55.8766 127.12C53.1787 124.422 51.6629 120.763 51.6629 116.947C51.6629 113.132 53.1787 109.473 55.8766 106.775C58.5746 104.077 62.2339 102.561 66.0494 102.561V83.9136C57.2883 83.9136 48.886 87.3939 42.6909 93.589C36.4958 99.784 33.0155 108.186 33.0155 116.947C33.0155 125.709 36.4958 134.111 42.6909 140.306C48.886 146.501 57.2883 149.981 66.0494 149.981V131.334Z" fill="#A3F52C"/>
<path d="M0 131.334C3.81553 131.334 7.47484 129.818 10.1728 127.12C12.8708 124.422 14.3865 120.763 14.3865 116.947C14.3865 113.132 12.8708 109.473 10.1728 106.775C7.47484 104.077 3.81553 102.561 0 102.561V83.9136C8.76114 83.9136 17.1634 87.3939 23.3585 93.589C29.5536 99.784 33.034 108.186 33.034 116.947C33.034 125.709 29.5536 134.111 23.3585 140.306C17.1634 146.501 8.76114 149.981 0 149.981V131.334Z" fill="#A3F52C"/>
<path d="M79.251 0.010498V149.989C98.9212 149.659 117.674 141.613 131.468 127.586C145.261 113.558 152.991 94.6729 152.991 74.9999C152.991 55.3268 145.261 36.4415 131.468 22.4142C117.674 8.38689 98.9212 0.340951 79.251 0.010498Z" fill="#A3F52C"/>
<path d="M229.23 42.3356V0.0105817C219.276 -0.156637 209.388 1.65951 200.144 5.35301C190.899 9.04651 182.482 14.5434 175.384 21.5234C168.286 28.5034 162.648 36.8267 158.8 46.0079C154.952 55.1892 152.97 65.0448 152.97 75C152.97 84.9551 154.952 94.8107 158.8 103.992C162.648 113.173 168.286 121.497 175.384 128.477C182.482 135.457 190.899 140.954 200.144 144.647C209.388 148.341 219.276 150.157 229.23 149.989V107.664C224.87 107.775 220.532 107.012 216.472 105.421C212.412 103.829 208.712 101.441 205.589 98.3968C202.467 95.3527 199.985 91.7142 198.29 87.6959C196.596 83.6777 195.723 79.3609 195.723 75C195.723 70.6391 196.596 66.3223 198.29 62.304C199.985 58.2857 202.467 54.6473 205.589 51.6031C208.712 48.559 212.412 46.1708 216.472 44.5791C220.532 42.9875 224.87 42.2246 229.23 42.3356Z" fill="#A3F52C"/>
<path d="M0 0V66.0678L66.0772 0H0Z" fill="#A3F52C"/>
<path d="M33.0431 66.0678L66.077 33.0339H33.0431V66.0678Z" fill="#A3F52C"/>
<path d="M242.421 0.00506499V35.8938C244.814 35.9506 247.193 35.5285 249.42 34.6523C251.647 33.776 253.676 32.4634 255.388 30.7914C257.1 29.1195 258.461 27.1221 259.39 24.9167C260.319 22.7113 260.797 20.3425 260.797 17.9494C260.797 15.5564 260.319 13.1875 259.39 10.9821C258.461 8.77673 257.1 6.77933 255.388 5.10742C253.676 3.43551 251.647 2.12282 249.42 1.24658C247.193 0.37034 244.814 -0.0517793 242.421 0.00506499V0.00506499Z" fill="#A3F52C"/>
<path d="M278.31 0.00524902V35.894C273.625 35.7826 269.169 33.8432 265.894 30.4901C262.62 27.137 260.787 22.6363 260.787 17.9496C260.787 13.263 262.62 8.76221 265.894 5.40913C269.169 2.05604 273.625 0.116576 278.31 0.00524902V0.00524902Z" fill="#A3F52C"/>
<path d="M314.209 0.00524902H278.31C278.31 4.76573 280.201 9.33124 283.567 12.6974C286.933 16.0636 291.499 17.9547 296.259 17.9547C301.02 17.9547 305.585 16.0636 308.951 12.6974C312.317 9.33124 314.209 4.76573 314.209 0.00524902V0.00524902Z" fill="#A3F52C"/>
<path d="M314.209 35.8939H278.31C278.31 31.1334 280.201 26.5679 283.567 23.2017C286.933 19.8355 291.499 17.9445 296.259 17.9445C301.02 17.9445 305.585 19.8355 308.951 23.2017C312.317 26.5679 314.209 31.1334 314.209 35.8939V35.8939Z" fill="#A3F52C"/>
<path d="M314.209 35.8938V71.8433C309.448 71.8433 304.882 69.9522 301.516 66.586C298.15 63.2198 296.259 58.6543 296.259 53.8939C296.259 49.1334 298.15 44.5679 301.516 41.2017C304.882 37.8355 309.448 35.9444 314.209 35.9444V35.8938Z" fill="#A3F52C"/>
<path d="M278.31 35.8938V71.8433C283.07 71.8433 287.636 69.9522 291.002 66.586C294.368 63.2198 296.259 58.6543 296.259 53.8939C296.259 49.1334 294.368 44.5679 291.002 41.2017C287.636 37.8355 283.07 35.9444 278.31 35.9444V35.8938Z" fill="#A3F52C"/>
<path d="M242.421 71.8433H278.31C278.367 69.451 277.944 67.0714 277.068 64.8445C276.192 62.6177 274.879 60.5886 273.207 58.8764C271.535 57.1643 269.538 55.8038 267.333 54.875C265.127 53.9461 262.758 53.4675 260.365 53.4675C257.972 53.4675 255.603 53.9461 253.398 54.875C251.193 55.8038 249.195 57.1643 247.523 58.8764C245.851 60.5886 244.539 62.6177 243.663 64.8445C242.786 67.0714 242.364 69.451 242.421 71.8433V71.8433Z" fill="#A3F52C"/>
<path d="M304.243 133.469L324.855 149.991L324.855 133.469L304.243 116.948L283.63 133.469L263.029 116.948L242.416 133.469L242.416 149.991L263.029 133.469L283.63 149.991L304.243 133.469Z" fill="#A3F52C"/>
<path d="M283.63 116.948L304.243 100.426L324.855 116.948L324.855 100.426L304.243 83.9136L283.63 100.426L263.029 83.9136L242.416 100.426L242.416 116.948L263.029 100.426L283.63 116.948Z" fill="#A3F52C"/>
<path d="M386.833 133.469L407.446 149.991L407.446 133.469L386.833 116.948L366.22 133.469L345.619 116.948L325.007 133.469L325.007 149.991L345.619 133.469L366.22 149.991L386.833 133.469Z" fill="#A3F52C"/>
<path d="M366.22 116.948L386.833 100.426L407.446 116.948L407.446 100.426L386.833 83.9136L366.22 100.426L345.619 83.9136L325.007 100.426L325.007 116.948L345.619 100.426L366.22 116.948Z" fill="#A3F52C"/>
<path d="M333.789 66.0959L352.436 66.0959C352.436 62.2804 353.952 58.6211 356.65 55.9231C359.348 53.2251 363.007 51.7095 366.822 51.7095C370.638 51.7095 374.297 53.2251 376.995 55.9231C379.693 58.6211 381.209 62.2804 381.209 66.0959L399.856 66.0959C399.856 57.3348 396.376 48.9325 390.181 42.7374C383.986 36.5424 375.584 33.062 366.822 33.062C358.061 33.062 349.659 36.5424 343.464 42.7374C337.269 48.9325 333.789 57.3348 333.789 66.0959Z" fill="#A3F52C"/>
<path d="M333.789 33.0339L352.436 33.0339C352.436 29.2184 353.952 25.5592 356.65 22.8612C359.348 20.1632 363.007 18.6474 366.822 18.6474C370.638 18.6474 374.297 20.1632 376.995 22.8612C379.693 25.5592 381.209 29.2184 381.209 33.0339L399.856 33.0339C399.856 24.2728 396.376 15.8705 390.181 9.67542C383.986 3.48036 375.584 2.05165e-05 366.822 2.08994e-05C358.061 2.12824e-05 349.659 3.48036 343.464 9.67542C337.269 15.8705 333.789 24.2728 333.789 33.0339Z" fill="#A3F52C"/>
</svg>
