<svg
  width="16"
  height="14"
  viewBox="0 0 16 14"
  fill="none"
  xmlns="http://www.w3.org/2000/svg"
  >
  <g clipPath="url(#clip0_2_520)">
    <path
      d="M6.51944 1.16758L5.47222 1.55313C5.38889 1.5832 5.33333 1.6625 5.33333 1.75C5.33333 1.8375 5.38889 1.9168 5.47222 1.94687L6.51944 2.33242L6.91111 3.36328C6.94167 3.44531 7.02222 3.5 7.11111 3.5C7.2 3.5 7.28056 3.44531 7.31111 3.36328L7.70278 2.33242L8.75 1.94687C8.83333 1.9168 8.88889 1.8375 8.88889 1.75C8.88889 1.6625 8.83333 1.5832 8.75 1.55313L7.70278 1.16758L7.31111 0.136719C7.28056 0.0546875 7.2 0 7.11111 0C7.02222 0 6.94167 0.0546875 6.91111 0.136719L6.51944 1.16758ZM1.28056 10.8117C0.761111 11.323 0.761111 12.1543 1.28056 12.6684L2.24167 13.6145C2.76111 14.1258 3.60556 14.1258 4.12778 13.6145L14.7194 3.18555C15.2389 2.67422 15.2389 1.84297 14.7194 1.32891L13.7583 0.385547C13.2389 -0.125781 12.3944 -0.125781 11.8722 0.385547L1.28056 10.8117ZM13.4611 2.25859L10.5444 5.12969L9.89722 4.49258L12.8139 1.62148L13.4611 2.25859ZM0.208333 3.20469C0.0833333 3.25117 0 3.36875 0 3.5C0 3.63125 0.0833333 3.74883 0.208333 3.79531L1.77778 4.375L2.36667 5.91992C2.41389 6.04297 2.53333 6.125 2.66667 6.125C2.8 6.125 2.91944 6.04297 2.96667 5.91992L3.55556 4.375L5.125 3.79531C5.25 3.74883 5.33333 3.63125 5.33333 3.5C5.33333 3.36875 5.25 3.25117 5.125 3.20469L3.55556 2.625L2.96667 1.08008C2.91944 0.957031 2.8 0.875 2.66667 0.875C2.53333 0.875 2.41389 0.957031 2.36667 1.08008L1.77778 2.625L0.208333 3.20469ZM9.98611 10.2047C9.86111 10.2512 9.77778 10.3687 9.77778 10.5C9.77778 10.6313 9.86111 10.7488 9.98611 10.7953L11.5556 11.375L12.1444 12.9199C12.1917 13.043 12.3111 13.125 12.4444 13.125C12.5778 13.125 12.6972 13.043 12.7444 12.9199L13.3333 11.375L14.9028 10.7953C15.0278 10.7488 15.1111 10.6313 15.1111 10.5C15.1111 10.3687 15.0278 10.2512 14.9028 10.2047L13.3333 9.625L12.7444 8.08008C12.6972 7.95703 12.5778 7.875 12.4444 7.875C12.3111 7.875 12.1917 7.95703 12.1444 8.08008L11.5556 9.625L9.98611 10.2047Z"
      fill="#90A1B9"
      />
  </g>
  <defs>
    <clipPath id="clip0_2_520">
      <rect width="16" height="14" fill="white" />
    </clipPath>
  </defs>
</svg>
