<svg width="20" height="20" viewBox="0 0 20 20" fill="none" xmlns="http://www.w3.org/2000/svg">
<rect width="20" height="20" rx="10" fill="#D49000"/>
<path d="M7.28288 5.93132C7.79414 5.41589 8.47961 5.11018 9.20471 5.07422V4.2396C9.20471 4.02872 9.28848 3.82647 9.4376 3.67735C9.58672 3.52823 9.78896 3.44446 9.99985 3.44446C10.2107 3.44446 10.413 3.52823 10.5621 3.67735C10.7112 3.82647 10.795 4.02872 10.795 4.2396V5.01783C11.423 5.06316 12.0206 5.30565 12.5027 5.71072C12.9847 6.11579 13.3265 6.66275 13.4793 7.27356C13.5065 7.39462 13.4851 7.52151 13.4197 7.62697C13.3543 7.73242 13.2502 7.80801 13.1297 7.83749H12.5996C12.429 7.8366 12.2622 7.78739 12.1185 7.69557C11.9748 7.60374 11.86 7.47306 11.7875 7.31867C11.6087 7.00952 11.3442 6.75875 11.026 6.59664C10.7078 6.43452 10.3494 6.368 9.99421 6.4051C8.86635 6.4051 8.18963 7.10438 8.18963 7.73598C8.18963 8.36759 8.71972 8.73978 9.84759 9.02175L10.9755 9.26988C12.9267 9.68719 13.75 10.5105 13.75 11.9429C13.7383 12.713 13.4264 13.448 12.8808 13.9915C12.3352 14.535 11.5989 14.8441 10.8288 14.8528V15.8115C10.8288 16.0224 10.7451 16.2246 10.5959 16.3737C10.4468 16.5229 10.2446 16.6066 10.0337 16.6066C9.8228 16.6066 9.62055 16.5229 9.47143 16.3737C9.32232 16.2246 9.23854 16.0224 9.23854 15.8115V14.8641C8.5575 14.8537 7.89911 14.6178 7.36645 14.1933C6.83378 13.7688 6.45691 13.1797 6.29482 12.5181C6.28502 12.467 6.28544 12.4145 6.29603 12.3635C6.30662 12.3126 6.32718 12.2642 6.35653 12.2212C6.38588 12.1782 6.42344 12.1415 6.46705 12.1131C6.51065 12.0847 6.55944 12.0652 6.61062 12.0557H7.27606C7.42052 12.0568 7.56175 12.0986 7.68347 12.1765C7.80518 12.2543 7.90245 12.3649 7.96405 12.4956C8.17199 12.84 8.47267 13.1189 8.8317 13.3004C9.19073 13.4819 9.59359 13.5587 9.99421 13.5219C11.1221 13.5219 11.9905 12.8452 11.9905 12.1572C11.9905 11.4692 11.4943 11.0632 10.2875 10.7812L9.0468 10.488C7.27606 10.1158 6.44144 9.22476 6.44144 7.86005C6.4715 7.13468 6.77162 6.44675 7.28288 5.93132Z" fill="#FFC843"/>
<circle cx="10" cy="10" r="9.375" stroke="#FFC843" stroke-width="1.25"/>
</svg>
