<svg width="16" height="16" viewBox="0 0 16 16" fill="none" xmlns="http://www.w3.org/2000/svg">
<path d="M12.3558 2.83357C12.5077 3.20109 12.7994 3.49321 13.1667 3.64572L14.4546 4.17919C14.8221 4.33143 15.1142 4.62344 15.2664 4.99098C15.4186 5.35852 15.4186 5.77149 15.2664 6.13903L14.7333 7.42599C14.581 7.7937 14.5808 8.20708 14.7338 8.57461L15.266 9.86119C15.3414 10.0432 15.3803 10.2384 15.3803 10.4354C15.3804 10.6325 15.3416 10.8276 15.2661 11.0097C15.1907 11.1918 15.0802 11.3572 14.9408 11.4965C14.8014 11.6358 14.636 11.7463 14.4539 11.8217L13.1669 12.3547C12.7994 12.5067 12.5073 12.7984 12.3548 13.1657L11.8213 14.4536C11.6691 14.8211 11.3771 15.1131 11.0095 15.2654C10.642 15.4176 10.229 15.4176 9.86148 15.2654L8.57452 14.7323C8.20697 14.5804 7.79415 14.5807 7.42683 14.7331L6.13894 15.2658C5.7716 15.4177 5.35899 15.4176 4.99175 15.2655C4.62451 15.1134 4.33266 14.8217 4.18031 14.4545L3.64669 13.1663C3.49473 12.7988 3.20305 12.5066 2.83576 12.3541L1.54787 11.8207C1.18049 11.6685 0.888568 11.3767 0.736271 11.0093C0.583974 10.642 0.583767 10.2292 0.735696 9.86174L1.26877 8.57478C1.42064 8.20723 1.42033 7.79441 1.26791 7.42709L0.735599 6.13827C0.660128 5.95624 0.621266 5.76111 0.621235 5.56405C0.621203 5.36698 0.660002 5.17184 0.735415 4.98978C0.810828 4.80772 0.921377 4.6423 1.06074 4.50298C1.20011 4.36365 1.36557 4.25316 1.54765 4.1778L2.83462 3.64472C3.20181 3.4929 3.49376 3.20158 3.64639 2.83472L4.17985 1.54683C4.33209 1.17929 4.6241 0.887276 4.99164 0.735035C5.35918 0.582794 5.77215 0.582794 6.13969 0.735035L7.42666 1.26811C7.79421 1.41998 8.20703 1.41967 8.57435 1.26725L9.86278 0.735862C10.2303 0.583706 10.6431 0.583737 11.0106 0.735948C11.3781 0.888159 11.6701 1.18009 11.8223 1.54753L12.3559 2.8358L12.3558 2.83357Z" fill="#FF9500"/>
<rect x="4" y="7" width="2" height="2" rx="1" fill="white"/>
<rect x="7" y="7" width="2" height="2" rx="1" fill="white"/>
<rect x="10" y="7" width="2" height="2" rx="1" fill="white"/>
</svg>
