<svg width="16" height="16" viewBox="0 0 16 16" fill="none" xmlns="http://www.w3.org/2000/svg">
<path d="M15.7419 12.4546L9.71126 1.98152C9.53659 1.68279 9.28674 1.435 8.98658 1.2628C8.68641 1.09061 8.34639 1 8.00035 1C7.6543 1 7.31428 1.09061 7.01411 1.2628C6.71395 1.435 6.4641 1.68279 6.28943 1.98152L0.258819 12.4546C0.0893271 12.7445 0 13.0742 0 13.41C0 13.7458 0.0893271 14.0756 0.258819 14.3655C0.431557 14.6657 0.681058 14.9146 0.981721 15.0865C1.28238 15.2585 1.62338 15.3474 1.96973 15.344H14.031C14.3771 15.3471 14.7178 15.2581 15.0182 15.0862C15.3186 14.9142 15.5679 14.6655 15.7405 14.3655C15.9102 14.0757 15.9998 13.746 16 13.4102C16.0002 13.0744 15.9112 12.7446 15.7419 12.4546ZM14.3075 13.5373C14.2794 13.5851 14.239 13.6244 14.1904 13.6511C14.1419 13.6778 14.087 13.6909 14.0316 13.689H1.96973C1.91435 13.6909 1.85948 13.6778 1.81093 13.6511C1.76238 13.6244 1.72194 13.5851 1.69389 13.5373C1.6701 13.4986 1.65751 13.4541 1.65751 13.4087C1.65751 13.3632 1.6701 13.3187 1.69389 13.28L7.7245 2.80698C7.75436 2.76102 7.79524 2.72324 7.84341 2.69709C7.89159 2.67094 7.94553 2.65724 8.00035 2.65724C8.05516 2.65724 8.1091 2.67094 8.15728 2.69709C8.20545 2.72324 8.24633 2.76102 8.27619 2.80698L14.3061 13.28C14.3301 13.3186 14.3429 13.363 14.3432 13.4085C14.3434 13.4539 14.3311 13.4985 14.3075 13.5373ZM7.17282 8.99965V6.79291C7.17282 6.57343 7.26 6.36295 7.41519 6.20776C7.57039 6.05257 7.78087 5.96538 8.00035 5.96538C8.21982 5.96538 8.4303 6.05257 8.58549 6.20776C8.74069 6.36295 8.82787 6.57343 8.82787 6.79291V8.99965C8.82787 9.21912 8.74069 9.42961 8.58549 9.5848C8.4303 9.73999 8.21982 9.82718 8.00035 9.82718C7.78087 9.82718 7.57039 9.73999 7.41519 9.5848C7.26 9.42961 7.17282 9.21912 7.17282 8.99965ZM9.10372 11.7581C9.10372 11.9763 9.039 12.1896 8.91776 12.3711C8.79652 12.5525 8.6242 12.6939 8.42259 12.7775C8.22097 12.861 7.99912 12.8828 7.78509 12.8402C7.57106 12.7977 7.37445 12.6926 7.22014 12.5383C7.06584 12.384 6.96075 12.1874 6.91818 11.9733C6.8756 11.7593 6.89745 11.5375 6.98096 11.3358C7.06447 11.1342 7.2059 10.9619 7.38734 10.8407C7.56879 10.7194 7.78212 10.6547 8.00035 10.6547C8.29298 10.6547 8.57362 10.771 8.78055 10.9779C8.98747 11.1848 9.10372 11.4654 9.10372 11.7581Z" fill="#D95C4A"/>
</svg>
