<svg width="81" height="21" fill="none" xmlns="http://www.w3.org/2000/svg"><circle cx="10.5" cy="10.5" r="10.5" fill="#6366F1"/><path d="M13.75 7.51h2.375v.912a2.24 2.24 0 01-2.25 2.234h-.126V7.511zm-3.382-1.322h3.381v8.6h-.402c-2.451 0-2.941-1.698-2.941-3.208l-.038-5.392zM4.875 8.135c0 1.535 1.106 2.097 2.338 2.284H4.875v4.393h2.25c2.263 0 2.526-.998 2.526-1.947 0-1.16-.804-1.972-2.049-2.284h2.05V6.188h-2.25c-2.263 0-2.527.998-2.527 1.947z" fill="#fff"/><path d="M34.602 17.092c-1.39 0-2.604-.283-3.639-.85a6.225 6.225 0 01-2.426-2.328c-.582-.987-.873-2.119-.873-3.397 0-.986.162-1.892.485-2.717a6.344 6.344 0 011.359-2.135 5.855 5.855 0 012.062-1.407 6.698 6.698 0 012.62-.51c.873 0 1.682.162 2.426.486a5.323 5.323 0 011.916 1.334c.55.566.97 1.238 1.262 2.014.291.776.42 1.625.388 2.547l-.024 1.068h-10.31l-.559-2.111h8.03l-.388.437v-.534a2.269 2.269 0 00-.436-1.189 2.455 2.455 0 00-.947-.825 2.888 2.888 0 00-1.31-.29c-.711 0-1.318.137-1.82.412-.484.275-.856.679-1.115 1.213-.259.533-.388 1.18-.388 1.94 0 .777.161 1.448.485 2.014.34.566.809 1.01 1.407 1.334.615.308 1.334.461 2.16.461.565 0 1.083-.089 1.552-.266.469-.178.97-.486 1.504-.922l1.65 2.304c-.47.42-.987.777-1.553 1.068a8.687 8.687 0 01-1.747.63 7.477 7.477 0 01-1.77.219zM47.532 17.092a5.02 5.02 0 01-2.887-.873c-.858-.583-1.537-1.375-2.038-2.378-.502-1.003-.752-2.151-.752-3.445s.25-2.434.752-3.42c.517-1.003 1.213-1.788 2.086-2.354.873-.582 1.868-.873 2.984-.873.63 0 1.205.097 1.723.29.533.179.994.43 1.383.753A4.76 4.76 0 0151.8 5.908c.275.42.47.873.583 1.358l-.728-.12v-3.13h3.42v12.833h-3.469v-3.08l.777-.074c-.13.453-.34.882-.631 1.286a4.993 4.993 0 01-1.092 1.092c-.42.307-.898.558-1.431.752-.534.178-1.1.267-1.698.267zm.946-2.984c.647 0 1.213-.154 1.698-.461a2.99 2.99 0 001.116-1.286c.275-.566.412-1.221.412-1.965 0-.728-.137-1.367-.412-1.917a2.99 2.99 0 00-1.116-1.285c-.485-.324-1.051-.486-1.698-.486-.631 0-1.189.162-1.674.486a3.217 3.217 0 00-1.116 1.285c-.275.55-.413 1.19-.413 1.917 0 .744.138 1.4.413 1.965.275.55.647.979 1.116 1.286.485.307 1.043.46 1.674.46zM58.53 16.85V4.015h3.324l.121 4.124-.582-.85c.194-.662.51-1.26.946-1.795.437-.55.947-.978 1.529-1.285a4.039 4.039 0 011.868-.461c.275 0 .542.024.8.072.26.049.477.106.655.17l-.922 3.785a3.239 3.239 0 00-.703-.243 2.994 2.994 0 00-.85-.121c-.387 0-.751.073-1.09.218-.324.13-.607.324-.85.583a2.754 2.754 0 00-.582.873c-.13.34-.194.712-.194 1.116v6.647h-3.47zM69.168 16.85V4.015h3.3l.096 2.62-.679.29a3.888 3.888 0 01.946-1.576 5.36 5.36 0 011.674-1.165 4.912 4.912 0 012.038-.436c.97 0 1.78.194 2.426.582.663.388 1.157.978 1.48 1.771.34.776.51 1.739.51 2.887v7.86h-3.445V9.256c0-.582-.081-1.068-.243-1.456-.162-.388-.412-.671-.752-.849-.324-.194-.728-.275-1.213-.243a3.04 3.04 0 00-1.092.195 2.382 2.382 0 00-.849.509 2.967 2.967 0 00-.558.776c-.13.291-.194.607-.194.947v7.714H69.168z" fill="#334155"/><path d="M36.138.955l-1.129 4.89M32.479 14.34l-1.317 5.706" stroke="#334155" stroke-width="3"/></svg>