<svg width="81" height="21" viewBox="0 0 81 21" fill="none" xmlns="http://www.w3.org/2000/svg">
<g clip-path="url(#clip0_76_1271)">
<rect width="81" height="21" fill="white"/>
<path d="M12.6468 0.603966C12.7861 -0.201324 13.9423 -0.201321 14.0817 0.603969L14.8653 5.13203C14.9168 5.42946 15.1464 5.6643 15.4427 5.72239L19.9194 6.60031C20.7034 6.75406 20.7034 7.8756 19.9194 8.02935L15.4427 8.90728C15.1464 8.96537 14.9168 9.2002 14.8653 9.49764L14.0817 14.0257C13.9423 14.831 12.7861 14.831 12.6468 14.0257L11.8632 9.49764C11.8117 9.2002 11.582 8.96537 11.2858 8.90728L6.80903 8.02935C6.02502 7.8756 6.02502 6.75406 6.80904 6.60031L11.2858 5.72239C11.582 5.6643 11.8117 5.42946 11.8632 5.13203L12.6468 0.603966Z" fill="black"/>
<path d="M19.4514 20.134C17.4452 22.4079 11.617 20.0495 6.43375 14.8662C1.25049 9.68296 -1.32502 3.63767 0.681182 1.3637C2.68739 -0.910283 8.5156 1.44816 13.6989 6.63142C18.8821 11.8147 21.4576 17.86 19.4514 20.134Z" fill="#02D688"/>
<path d="M12.6468 0.603966C12.7861 -0.201324 13.9423 -0.201321 14.0817 0.603969L14.8653 5.13203C14.9168 5.42946 15.1464 5.6643 15.4427 5.72239L19.9194 6.60031C20.7034 6.75406 20.7034 7.8756 19.9194 8.02935L15.4427 8.90728C15.1464 8.96537 14.9168 9.2002 14.8653 9.49764L14.0817 14.0257C13.9423 14.831 12.7861 14.831 12.6468 14.0257L11.8632 9.49764C11.8117 9.2002 11.582 8.96537 11.2858 8.90728L6.80903 8.02935C6.02502 7.8756 6.02502 6.75406 6.80904 6.60031L11.2858 5.72239C11.582 5.6643 11.8117 5.42946 11.8632 5.13203L12.6468 0.603966Z" fill="black"/>
<path d="M73.2209 8.74667V16H70.8548V3.78386H73.126V5.77216H73.2763C73.556 5.1253 73.9938 4.60569 74.59 4.21333C75.1914 3.82097 75.9485 3.62479 76.8612 3.62479C77.6895 3.62479 78.4149 3.79977 79.0374 4.14971C79.6599 4.49435 80.1427 5.00865 80.4856 5.69263C80.8285 6.37661 81 7.2223 81 8.22971V16H78.6338V8.51602C78.6338 7.63056 78.4043 6.93863 77.9453 6.44023C77.4863 5.93653 76.8559 5.68468 76.054 5.68468C75.5053 5.68468 75.0173 5.80398 74.59 6.04257C74.1679 6.28117 73.8329 6.63111 73.585 7.0924C73.3423 7.54838 73.2209 8.0998 73.2209 8.74667Z" fill="black"/>
<path d="M62.7479 16V3.78386H65.0349V5.72445H65.1616C65.3831 5.06698 65.7735 4.55002 66.3328 4.17357C66.8973 3.79181 67.5356 3.60094 68.2478 3.60094C68.3956 3.60094 68.5697 3.60624 68.7701 3.61684C68.9759 3.62745 69.1368 3.6407 69.2529 3.65661V5.93123C69.1579 5.90472 68.9891 5.87556 68.7464 5.84374C68.5037 5.80663 68.261 5.78807 68.0183 5.78807C67.4591 5.78807 66.9606 5.90737 66.5227 6.14597C66.0901 6.37926 65.7472 6.70534 65.4939 7.12421C65.2407 7.53778 65.1141 8.00967 65.1141 8.53989V16H62.7479Z" fill="black"/>
<path d="M54.0436 16.2704C53.2733 16.2704 52.577 16.1273 51.9544 15.8409C51.3319 15.5493 50.8386 15.1278 50.4746 14.5764C50.1158 14.025 49.9365 13.3489 49.9365 12.5483C49.9365 11.859 50.0684 11.2917 50.3321 10.8463C50.5959 10.4009 50.952 10.0483 51.4005 9.78854C51.8489 9.52873 52.3501 9.33255 52.904 9.2C53.458 9.06745 54.0225 8.96671 54.5975 8.89778C55.3256 8.81294 55.9165 8.74402 56.3702 8.69099C56.8239 8.63267 57.1536 8.53988 57.3594 8.41263C57.5651 8.28538 57.668 8.0786 57.668 7.79228V7.73661C57.668 7.04203 57.4728 6.50386 57.0824 6.1221C56.6973 5.74035 56.1222 5.54947 55.3572 5.54947C54.5606 5.54947 53.9328 5.72709 53.4738 6.08234C53.0201 6.43228 52.7062 6.82199 52.5321 7.25146L50.3084 6.74246C50.5722 6.00016 50.9573 5.40101 51.4638 4.94503C51.9755 4.48374 52.5638 4.14971 53.2285 3.94292C53.8932 3.73084 54.5923 3.62479 55.3256 3.62479C55.811 3.62479 56.3253 3.68312 56.8687 3.79977C57.4174 3.91111 57.9291 4.11789 58.404 4.42011C58.884 4.72234 59.2771 5.15446 59.5831 5.71649C59.8891 6.27322 60.0421 6.99696 60.0421 7.88772V16H57.7313V14.3298H57.6363C57.4834 14.6373 57.2539 14.9396 56.9479 15.2365C56.6419 15.5334 56.2488 15.78 55.7688 15.9761C55.2887 16.1723 54.7136 16.2704 54.0436 16.2704ZM54.558 14.3616C55.2122 14.3616 55.7714 14.2317 56.2356 13.9719C56.7052 13.7121 57.0613 13.3728 57.304 12.9539C57.5519 12.5297 57.6759 12.0764 57.6759 11.5939V10.0192C57.5915 10.104 57.428 10.1835 57.1853 10.2578C56.9479 10.3267 56.6762 10.3877 56.3702 10.4407C56.0642 10.4884 55.7661 10.5335 55.4759 10.5759C55.1858 10.613 54.9431 10.6448 54.7479 10.6713C54.2889 10.7297 53.8695 10.8278 53.4896 10.9656C53.1151 11.1035 52.8144 11.3023 52.5875 11.5621C52.3659 11.8166 52.2551 12.1559 52.2551 12.5801C52.2551 13.1687 52.4714 13.614 52.904 13.9163C53.3367 14.2132 53.888 14.3616 54.558 14.3616Z" fill="black"/>
<path d="M43.1116 16.2465C41.914 16.2465 40.8826 15.9894 40.0174 15.4751C39.1575 14.9555 38.4927 14.2264 38.0232 13.288C37.5589 12.3442 37.3268 11.2387 37.3268 9.97146C37.3268 8.72015 37.5589 7.61731 38.0232 6.66292C38.4927 5.70854 39.1469 4.96359 39.9857 4.42807C40.8298 3.89255 41.8164 3.62479 42.9454 3.62479C43.6312 3.62479 44.296 3.73879 44.9396 3.96678C45.5833 4.19477 46.1609 4.55267 46.6727 5.04047C47.1844 5.52826 47.588 6.16187 47.8835 6.94129C48.1789 7.7154 48.3266 8.65653 48.3266 9.76468V10.6077H38.6642V8.8262H46.0079C46.0079 8.20055 45.8813 7.64647 45.6281 7.16398C45.3749 6.67618 45.0188 6.29177 44.5598 6.01076C44.1061 5.72975 43.5732 5.58924 42.9612 5.58924C42.2965 5.58924 41.7162 5.75361 41.2202 6.08234C40.7296 6.40577 40.3498 6.82994 40.0807 7.35485C39.8169 7.87446 39.685 8.43914 39.685 9.04889V10.4407C39.685 11.2572 39.8275 11.9518 40.1124 12.5244C40.4025 13.0971 40.8061 13.5345 41.3231 13.8367C41.8401 14.1336 42.4442 14.2821 43.1353 14.2821C43.5838 14.2821 43.9926 14.2185 44.3619 14.0912C44.7312 13.9587 45.0504 13.7625 45.3195 13.5027C45.5885 13.2429 45.7943 12.9221 45.9367 12.5403L48.1763 12.946C47.9969 13.6087 47.6751 14.1893 47.2108 14.6877C46.7518 15.1808 46.1741 15.5652 45.4777 15.8409C44.7866 16.1113 43.9979 16.2465 43.1116 16.2465Z" fill="black"/>
<path d="M27.3662 8.74667V16H25V3.78386H27.2712V5.77216H27.4215C27.7012 5.1253 28.139 4.60569 28.7352 4.21333C29.3366 3.82097 30.0937 3.62479 31.0064 3.62479C31.8347 3.62479 32.5601 3.79977 33.1826 4.14971C33.8051 4.49435 34.2879 5.00865 34.6308 5.69263C34.9737 6.37661 35.1452 7.2223 35.1452 8.22971V16H32.779V8.51602C32.779 7.63056 32.5495 6.93863 32.0905 6.44023C31.6316 5.93653 31.0011 5.68468 30.1992 5.68468C29.6505 5.68468 29.1625 5.80398 28.7352 6.04257C28.3131 6.28117 27.9781 6.63111 27.7302 7.0924C27.4875 7.54838 27.3662 8.0998 27.3662 8.74667Z" fill="black"/>
</g>
<defs>
<clipPath id="clip0_76_1271">
<rect width="81" height="21" fill="white"/>
</clipPath>
</defs>
</svg>
