<svg width="73" height="20" viewBox="0 0 73 20" fill="none" xmlns="http://www.w3.org/2000/svg">
<g clip-path="url(#clip0_0_3)">
<path d="M30.4981 15.9996C29.232 15.9996 28.1278 15.7419 27.1855 15.2266C26.2433 14.7113 25.5072 14.0047 24.9771 13.1065C24.4471 12.2085 24.1821 11.1779 24.1821 10.0148C24.1821 9.11674 24.3293 8.29226 24.6238 7.54142C24.9182 6.79057 25.3305 6.14277 25.8605 5.59804C26.3905 5.03858 27.0162 4.61163 27.7376 4.31717C28.4737 4.00799 29.2688 3.85341 30.1227 3.85341C30.9176 3.85341 31.6539 4.00063 32.331 4.29508C33.0083 4.57481 33.5898 4.97969 34.0757 5.5097C34.5762 6.02499 34.9591 6.63597 35.224 7.34266C35.4891 8.04935 35.6068 8.82229 35.5774 9.66148L35.5553 10.6332H26.1696L25.6617 8.71186H32.9715L32.6182 9.10938V8.62353C32.5887 8.22602 32.4562 7.86531 32.2206 7.54142C31.9998 7.21752 31.7127 6.96724 31.3594 6.79057C31.006 6.6139 30.6085 6.52556 30.1669 6.52556C29.519 6.52556 28.9669 6.6507 28.5105 6.90099C28.0688 7.15127 27.7302 7.51933 27.4947 8.00518C27.2591 8.49102 27.1414 9.07993 27.1414 9.7719C27.1414 10.4786 27.2885 11.0896 27.583 11.6049C27.8922 12.1201 28.3191 12.525 28.8639 12.8195C29.4233 13.0992 30.0785 13.239 30.8294 13.239C31.3446 13.239 31.8158 13.1581 32.2427 12.9962C32.6697 12.8341 33.1261 12.5544 33.6119 12.157L35.1136 14.2549C34.6867 14.6377 34.2155 14.9616 33.7003 15.2266C33.1849 15.4769 32.6549 15.6683 32.1102 15.8008C31.5655 15.9333 31.0281 15.9996 30.4981 15.9996Z" fill="#212B34"/>
<path d="M42.2673 15.9996C41.2956 15.9996 40.4197 15.7345 39.6394 15.2045C38.8591 14.6745 38.2407 13.9531 37.7843 13.0403C37.3279 12.1275 37.0997 11.0822 37.0997 9.90439C37.0997 8.72659 37.3279 7.68864 37.7843 6.79057C38.2554 5.87777 38.8885 5.16371 39.6835 4.64843C40.4785 4.11842 41.384 3.85341 42.3998 3.85341C42.974 3.85341 43.4967 3.94174 43.9677 4.11842C44.4537 4.28036 44.8732 4.50857 45.2265 4.80301C45.5946 5.09746 45.9038 5.43609 46.1541 5.81887C46.4044 6.20166 46.581 6.6139 46.6841 7.05557L46.0216 6.94515V4.09633H49.1354V15.7787H45.9774V12.9741L46.6841 12.9078C46.5663 13.3201 46.3749 13.7102 46.1099 14.0783C45.8449 14.4463 45.5137 14.7775 45.1162 15.072C44.7334 15.3517 44.299 15.5799 43.8132 15.7566C43.3274 15.9186 42.812 15.9996 42.2673 15.9996ZM43.1286 13.2832C43.7175 13.2832 44.2328 13.1434 44.6744 12.8637C45.1162 12.584 45.4547 12.1938 45.6904 11.6932C45.9407 11.1779 46.0657 10.5816 46.0657 9.90439C46.0657 9.24188 45.9407 8.66034 45.6904 8.15977C45.4547 7.65919 45.1162 7.26905 44.6744 6.98932C44.2328 6.69487 43.7175 6.54765 43.1286 6.54765C42.5544 6.54765 42.0465 6.69487 41.6047 6.98932C41.1779 7.26905 40.8392 7.65919 40.5889 8.15977C40.3386 8.66034 40.2135 9.24188 40.2135 9.90439C40.2135 10.5816 40.3386 11.1779 40.5889 11.6932C40.8392 12.1938 41.1779 12.584 41.6047 12.8637C42.0465 13.1434 42.5544 13.2832 43.1286 13.2832Z" fill="#212B34"/>
<path d="M52.2797 15.7787V4.09633H55.3052L55.4156 7.85059L54.8856 7.07766C55.0623 6.47403 55.3494 5.92929 55.7469 5.44344C56.1444 4.94288 56.6081 4.55273 57.1381 4.273C57.6829 3.99327 58.2498 3.85341 58.8386 3.85341C59.0889 3.85341 59.3319 3.8755 59.5674 3.91966C59.8029 3.96383 60.0017 4.01536 60.1637 4.07424L59.3245 7.51933C59.1478 7.431 58.9344 7.35739 58.6841 7.29849C58.4338 7.22488 58.1762 7.18808 57.9111 7.18808C57.5578 7.18808 57.2265 7.25433 56.9174 7.38683C56.6229 7.50461 56.3653 7.68128 56.1444 7.91685C55.9235 8.13768 55.7469 8.40269 55.6144 8.71186C55.4966 9.02104 55.4377 9.35966 55.4377 9.72772V15.7787H52.2797Z" fill="#212B34"/>
<path d="M61.9626 15.7787V4.09633H64.966L65.0544 6.48139L64.436 6.74639C64.598 6.21638 64.8851 5.7379 65.2974 5.31094C65.7243 4.86927 66.2322 4.51593 66.8211 4.25091C67.41 3.98591 68.0284 3.85341 68.6762 3.85341C69.5595 3.85341 70.2956 4.03008 70.8845 4.38342C71.4881 4.73676 71.9372 5.27413 72.2317 5.99554C72.5408 6.70223 72.6954 7.57822 72.6954 8.62353V15.7787H69.5595V8.86645C69.5595 8.33644 69.4859 7.89476 69.3387 7.54142C69.1914 7.18808 68.9632 6.93043 68.6541 6.76848C68.3596 6.59181 67.9915 6.5182 67.5499 6.54765C67.1965 6.54765 66.8653 6.60653 66.556 6.72432C66.2617 6.82738 66.004 6.98196 65.7832 7.18808C65.5771 7.39419 65.4077 7.62976 65.2753 7.89476C65.1574 8.15977 65.0986 8.44686 65.0986 8.75604V15.7787H63.5526C63.2141 15.7787 62.9123 15.7787 62.6472 15.7787C62.3822 15.7787 62.154 15.7787 61.9626 15.7787Z" fill="#212B34"/>
<path d="M31.8958 1.31L30.868 5.76198" stroke="#212B34" stroke-width="2.51031"/>
<path d="M28.565 13.4942L27.3658 18.6883" stroke="#212B34" stroke-width="2.51031"/>
<rect width="20" height="20" rx="3" fill="#6366F1"/>
<path d="M13.4659 6.53414H16V7.59039C16 9.02294 14.9273 10.1808 13.6 10.1808H13.4659V6.53414ZM9.85932 5H13.4659V14.971H13.0366C10.4224 14.971 9.89942 13.003 9.89942 11.2517L9.85932 5ZM4 7.25774C4 9.0376 5.17976 9.68897 6.49371 9.90607H4V15H6.39993C8.81346 15 9.0948 13.8422 9.0948 12.7422C9.0948 11.3962 8.23684 10.4559 6.90928 10.0939H9.0948V5H6.69487C4.28169 5 4 6.15784 4 7.25774Z" fill="white"/>
</g>
<defs>
<clipPath id="clip0_0_3">
<rect width="73" height="20" fill="white"/>
</clipPath>
</defs>
</svg>
