<svg width="15" height="15" fill="none" xmlns="http://www.w3.org/2000/svg"><path fill-rule="evenodd" clip-rule="evenodd" d="M3.333 4.784c-.792 0-1.435.643-1.435 1.436v4.305c0 .793.643 1.436 1.435 1.436h7.687c.793 0 1.435-.643 1.435-1.436V6.22c0-.793-.643-1.436-1.435-1.436H3.333zM6.34 5.98a.359.359 0 00-.359.36v.478c0 .198.161.358.36.358h1.674c.198 0 .359-.16.359-.358v-.479a.359.359 0 00-.36-.359H6.34z" fill="#64758B"/><path opacity=".3" d="M5.98 4.784H4.784v-.598c0-.99.804-1.794 1.794-1.794h1.197c.99 0 1.794.803 1.794 1.794v.598H8.373v-.598a.598.598 0 00-.598-.598H6.578a.598.598 0 00-.598.598v.598z" fill="#64758B"/></svg>