<svg width="421" height="421" viewBox="0 0 421 421" fill="none" xmlns="http://www.w3.org/2000/svg">
<rect width="421" height="421" rx="210.5" fill="#FF5555" fill-opacity="0.65"/>
<rect x="30.2578" y="30.2578" width="360.487" height="360.487" rx="180.243" fill="#FF5555" fill-opacity="0.65"/>
<rect x="59.6484" y="59.6484" width="301.702" height="301.702" rx="150.851" fill="#FF5555"/>
<g clip-path="url(#clip0_2842_4793)">
<path d="M209.623 300.437C261.576 300.437 303.692 258.928 303.692 207.723C303.692 156.518 261.576 115.008 209.623 115.008C157.671 115.008 115.555 156.518 115.555 207.723C115.555 258.928 157.671 300.437 209.623 300.437Z" fill="#C7B299" stroke="#161616" stroke-width="0.23431" stroke-miterlimit="10"/>
<path d="M104.855 215.857C104.855 155.356 148.396 105.418 215.127 105.418C277.468 105.418 316.376 149.179 316.376 204.015C316.376 264.504 272.835 314.455 206.629 314.455C144.019 314.455 104.868 270.693 104.868 215.857H104.855ZM207.653 298.482C262.008 298.482 296.794 256.524 296.794 205.038C296.794 191.956 296.525 154.972 269.124 140.445C244.743 127.529 216.893 141.941 213.476 143.783C207.819 140.637 184.603 128.526 161.681 137.325C123.618 151.929 124.45 209.591 124.45 214.821C124.45 261.678 156.139 298.482 207.665 298.482H207.653Z" fill="#161616"/>
<path d="M149.469 245.848C149.469 247.906 175.898 261.168 209.122 261.168C242.347 261.168 269.774 247.906 269.774 245.848C269.774 243.789 242.334 253.712 209.122 253.712C175.898 253.712 149.469 243.789 149.469 245.848Z" fill="#161616"/>
<path d="M208.985 249.927C220.647 249.927 230.102 243.629 230.102 235.86C230.102 228.091 220.647 221.793 208.985 221.793C197.322 221.793 187.867 228.091 187.867 235.86C187.867 243.629 197.322 249.927 208.985 249.927Z" fill="#161616"/>
<path d="M203.415 240.872C203.006 241.793 201.227 242.24 199.461 241.869C197.694 241.499 196.594 240.463 197.016 239.542C197.438 238.621 199.205 238.174 200.971 238.544C202.737 238.915 203.838 239.951 203.415 240.872Z" fill="#FFF9EF"/>
<path d="M214.946 240.872C215.355 241.793 217.134 242.24 218.9 241.869C220.667 241.499 221.767 240.463 221.345 239.542C220.923 238.621 219.156 238.174 217.39 238.544C215.624 238.915 214.523 239.951 214.946 240.872Z" fill="#FFF9EF"/>
<path d="M167.58 215.511C175.518 215.511 181.952 209.082 181.952 201.15C181.952 193.219 175.518 186.789 167.58 186.789C159.642 186.789 153.207 193.219 153.207 201.15C153.207 209.082 159.642 215.511 167.58 215.511Z" fill="#FFF9EF" stroke="#161616" stroke-width="0.23431" stroke-miterlimit="10"/>
<path d="M167.579 211.342C173.213 211.342 177.78 206.778 177.78 201.149C177.78 195.52 173.213 190.957 167.579 190.957C161.946 190.957 157.379 195.52 157.379 201.149C157.379 206.778 161.946 211.342 167.579 211.342Z" fill="#161616" stroke="#161616" stroke-width="0.23431" stroke-miterlimit="10"/>
<path d="M162.012 201.61C163.291 201.61 164.328 200.574 164.328 199.295C164.328 198.017 163.291 196.98 162.012 196.98C160.732 196.98 159.695 198.017 159.695 199.295C159.695 200.574 160.732 201.61 162.012 201.61Z" fill="#FFF9EF"/>
<path d="M252.048 215.511C259.986 215.511 266.421 209.082 266.421 201.15C266.421 193.219 259.986 186.789 252.048 186.789C244.111 186.789 237.676 193.219 237.676 201.15C237.676 209.082 244.111 215.511 252.048 215.511Z" fill="#FFF9EF" stroke="#101010" stroke-width="0.23431" stroke-miterlimit="10"/>
<path d="M252.052 211.342C257.685 211.342 262.252 206.778 262.252 201.149C262.252 195.52 257.685 190.957 252.052 190.957C246.418 190.957 241.852 195.52 241.852 201.149C241.852 206.778 246.418 211.342 252.052 211.342Z" fill="#161616" stroke="#161616" stroke-width="0.23431" stroke-miterlimit="10"/>
<path d="M246.484 201.61C247.764 201.61 248.801 200.574 248.801 199.295C248.801 198.017 247.764 196.98 246.484 196.98C245.205 196.98 244.168 198.017 244.168 199.295C244.168 200.574 245.205 201.61 246.484 201.61Z" fill="#FFF9EF"/>
<path d="M335.049 175.23H329.93H324.119H313.177L216.894 175.269H214.744H203.814H192.871L107.518 175.294H96.5755H85.6328V186.228V197.162H96.5755V208.096H107.518V219.017H118.461V229.926H129.404V234.785V235.386V240.847H140.346H151.289H162.232H173.174V235.399V229.939H184.117V219.005H195.047V208.083H216.919V197.15H205.977H210.367H216.907V186.216V197.137V208.058H227.849V218.979H238.779V229.887H249.709V240.821H258.502V240.847H269.444H280.387H291.33V235.386V229.926V229.887H302.26V218.966H313.189V208.032H324.119V197.137H335.062V175.256L335.049 175.23ZM253.613 229.887H255.75H250.695H253.6H253.613Z" fill="#161616"/>
<path d="M134.624 195.024L123.684 195.227L123.886 206.159L134.827 205.956L134.624 195.024Z" fill="#FFF9EF"/>
<path d="M145.753 205.763L134.812 205.965L135.015 216.897L145.956 216.695L145.753 205.763Z" fill="#FFF9EF"/>
<path d="M123.488 184.298L112.547 184.5L112.749 195.432L123.69 195.23L123.488 184.298Z" fill="#FFF9EF"/>
<path d="M252.745 192.852L241.805 193.055L242.007 203.987L252.948 203.784L252.745 192.852Z" fill="#FFF9EF"/>
<path d="M263.898 203.567L252.957 203.77L253.159 214.702L264.1 214.499L263.898 203.567Z" fill="#FFF9EF"/>
<path d="M241.62 182.114L230.68 182.316L230.882 193.248L241.823 193.046L241.62 182.114Z" fill="#FFF9EF"/>
<path d="M134.624 195.024L123.684 195.227L123.886 206.159L134.827 205.956L134.624 195.024Z" fill="#FFF9EF"/>
<path d="M145.753 205.763L134.812 205.965L135.015 216.897L145.956 216.695L145.753 205.763Z" fill="#FFF9EF"/>
<path d="M123.267 184.302L112.531 184.5L112.73 195.228L123.466 195.029L123.267 184.302Z" fill="#FFF9EF"/>
<path d="M156.476 194.634L145.535 194.836L145.738 205.768L156.678 205.566L156.476 194.634Z" fill="#FFF9EF"/>
<path d="M167.628 205.345L156.688 205.547L156.89 216.479L167.831 216.277L167.628 205.345Z" fill="#FFF9EF"/>
<path d="M145.347 183.907L134.406 184.109L134.609 195.041L145.549 194.839L145.347 183.907Z" fill="#FFF9EF"/>
<path d="M274.62 192.45L263.68 192.652L263.882 203.584L274.823 203.382L274.62 192.45Z" fill="#FFF9EF"/>
<path d="M285.761 203.161L274.82 203.363L275.023 214.295L285.964 214.093L285.761 203.161Z" fill="#FFF9EF"/>
<path d="M263.495 181.724L252.555 181.926L252.757 192.858L263.698 192.656L263.495 181.724Z" fill="#FFF9EF"/>
</g>
<defs>
<clipPath id="clip0_2842_4793">
<rect width="249.404" height="209.024" fill="white" transform="translate(85.6445 105.418)"/>
</clipPath>
</defs>
</svg>
