<svg width="94" height="19" viewBox="0 0 94 19" fill="none" xmlns="http://www.w3.org/2000/svg">
<path d="M16.8465 13H14.7785V5.63H16.8465V8.369H20.2785V5.63H22.3465V13H20.2785V10.228H16.8465V13ZM27.891 13H25.823V10.657L22.512 5.63H25.075L26.186 7.379L26.813 8.413H26.956L27.583 7.379L28.694 5.63H31.268L27.891 10.668V13ZM33.4969 13H31.4289V5.63H35.5099C37.2589 5.63 38.3589 6.631 38.3589 8.38C38.3589 10.129 37.2589 11.141 35.5099 11.141H33.4969V13ZM35.2789 7.489H33.4969V9.282H35.2789C36.0049 9.282 36.3019 9.139 36.3019 8.38C36.3019 7.632 36.0049 7.489 35.2789 7.489ZM45.343 13H38.798V5.63H45.343V7.489H40.866V8.369H45.178V10.217H40.866V11.141H45.343V13ZM47.9989 13H45.9309V5.63H50.2319C52.1789 5.63 53.2019 6.444 53.2019 7.885C53.2019 9.051 52.6189 9.744 51.2109 9.92V10.03C51.9699 10.228 52.2119 10.591 52.4869 11.152L53.3999 13H51.0129L50.1329 11.196C49.8689 10.646 49.6489 10.492 48.8459 10.492H47.9989V13ZM47.9989 7.489V8.952H50.2099C50.8149 8.952 51.0349 8.842 51.0349 8.215C51.0349 7.632 50.8149 7.489 50.2099 7.489H47.9989ZM57.5797 13H53.8507V5.63H57.5797C60.0107 5.63 61.5507 6.983 61.5507 9.315C61.5507 11.647 60.0107 13 57.5797 13ZM57.5797 7.489H55.9187V11.141H57.5797C58.8887 11.141 59.3397 10.976 59.3397 9.315C59.3397 7.654 58.8887 7.489 57.5797 7.489ZM64.1658 13H62.0978V5.63H66.3988C68.3458 5.63 69.3688 6.444 69.3688 7.885C69.3688 9.051 68.7858 9.744 67.3778 9.92V10.03C68.1368 10.228 68.3788 10.591 68.6538 11.152L69.5668 13H67.1798L66.2998 11.196C66.0358 10.646 65.8158 10.492 65.0128 10.492H64.1658V13ZM64.1658 7.489V8.952H66.3768C66.9818 8.952 67.2018 8.842 67.2018 8.215C67.2018 7.632 66.9818 7.489 66.3768 7.489H64.1658ZM71.9647 13H69.8967V5.63H71.9647V13ZM78.1142 13H75.1442L72.1852 5.63H74.6822L76.5852 10.91H76.7282L78.5872 5.63H81.0732L78.1142 13ZM87.8391 13H81.2941V5.63H87.8391V7.489H83.3621V8.369H87.6741V10.217H83.3621V11.141H87.8391V13Z" fill="#70ED9D"/>
<g clip-path="url(#clip0_2_18)">
<path d="M8.50146 11.2362L7.09076 12.7163C7.0601 12.7485 7.02299 12.7741 6.98176 12.7917C6.94053 12.8092 6.89605 12.8182 6.85111 12.8182H0.163771C0.131861 12.8182 0.100648 12.8091 0.0739649 12.7919C0.0472817 12.7748 0.0262912 12.7505 0.0135726 12.7218C0.000853894 12.6932 -0.00303898 12.6616 0.00237227 12.6308C0.0077835 12.6 0.0222631 12.5715 0.0440321 12.5486L1.45578 11.0685C1.48637 11.0364 1.52335 11.0109 1.56444 10.9933C1.60555 10.9758 1.64988 10.9667 1.69472 10.9667H8.38169C8.41359 10.9667 8.4448 10.9758 8.47151 10.9929C8.49816 11.01 8.51914 11.0344 8.53192 11.063C8.54461 11.0917 8.5485 11.1233 8.54309 11.1541C8.53767 11.1848 8.5232 11.2134 8.50146 11.2362ZM7.09076 8.25562C7.0601 8.22347 7.02299 8.19783 6.98176 8.18031C6.94053 8.1628 6.89605 8.15377 6.85111 8.15379H0.163771C0.131861 8.15379 0.100648 8.16291 0.0739649 8.18003C0.0472817 8.19715 0.0262912 8.22152 0.0135726 8.25015C0.000853894 8.27878 -0.00303898 8.31043 0.00237227 8.34119C0.0077835 8.37195 0.0222631 8.4005 0.0440321 8.42333L1.45578 9.90348C1.48637 9.93554 1.52335 9.96112 1.56444 9.97864C1.60555 9.99615 1.64988 10.0052 1.69472 10.0053H8.38169C8.41359 10.0053 8.4448 9.99619 8.47151 9.97906C8.49816 9.96194 8.51914 9.93757 8.53192 9.90895C8.54461 9.88031 8.5485 9.84867 8.54309 9.8179C8.53767 9.78714 8.5232 9.75859 8.50146 9.73576L7.09076 8.25562ZM0.163771 7.19243H6.85111C6.89605 7.19245 6.94053 7.18342 6.98176 7.1659C7.02299 7.14838 7.0601 7.12275 7.09076 7.09059L8.50146 5.61045C8.5232 5.58763 8.53767 5.55908 8.54309 5.52831C8.5485 5.49755 8.54461 5.4659 8.53192 5.43727C8.51914 5.40864 8.49816 5.38427 8.47151 5.36715C8.4448 5.35003 8.41359 5.34091 8.38169 5.34091H1.69472C1.64988 5.34099 1.60555 5.35006 1.56444 5.36758C1.52335 5.3851 1.48637 5.41068 1.45578 5.44275L0.044396 6.92289C0.0226481 6.94569 0.00817485 6.97421 0.00275134 7.00494C-0.00267218 7.03567 0.0011898 7.06729 0.0138636 7.0959C0.0265374 7.12452 0.0474722 7.14889 0.0741004 7.16604C0.100729 7.18318 0.131893 7.19235 0.163771 7.19243Z" fill="url(#paint0_linear_2_18)"/>
</g>
<defs>
<linearGradient id="paint0_linear_2_18" x1="0.721336" y1="12.9964" x2="7.56275" y2="5.11341" gradientUnits="userSpaceOnUse">
<stop offset="0.08" stop-color="#9945FF"/>
<stop offset="0.3" stop-color="#8752F3"/>
<stop offset="0.5" stop-color="#5497D5"/>
<stop offset="0.6" stop-color="#43B4CA"/>
<stop offset="0.72" stop-color="#28E0B9"/>
<stop offset="0.97" stop-color="#19FB9B"/>
</linearGradient>
<clipPath id="clip0_2_18">
<rect width="8.54545" height="7.47727" fill="white" transform="translate(0 5.34091)"/>
</clipPath>
</defs>
</svg>
