<svg width="25" height="25" viewBox="0 0 25 25" fill="none" xmlns="http://www.w3.org/2000/svg">
<path opacity="0.15" fill-rule="evenodd" clip-rule="evenodd" d="M12.5 25C19.4036 25 25 19.4036 25 12.5C25 5.59644 19.4036 0 12.5 0C5.59644 0 0 5.59644 0 12.5C0 19.4036 5.59644 25 12.5 25Z" fill="#6D61FF"/>
<path d="M10.8317 16.4835L7.4341 13.1063C7.33916 13.0113 7.29169 12.8893 7.29169 12.7401C7.29169 12.5909 7.33916 12.4688 7.4341 12.3739L8.18687 11.6414C8.28181 11.5329 8.40049 11.4787 8.5429 11.4787C8.68532 11.4787 8.81078 11.5329 8.91929 11.6414L11.1979 13.9201L16.0807 9.03727C16.1892 8.92877 16.3147 8.87451 16.4571 8.87451C16.5995 8.87451 16.7182 8.92877 16.8131 9.03727L17.5659 9.76969C17.6609 9.86464 17.7083 9.98671 17.7083 10.1359C17.7083 10.2851 17.6609 10.4072 17.5659 10.5021L11.5641 16.4835C11.4692 16.592 11.3471 16.6463 11.1979 16.6463C11.0487 16.6463 10.9267 16.592 10.8317 16.4835Z" fill="#6D61FF"/>
</svg>

