<svg width="21" height="21" viewBox="0 0 21 21" fill="none" xmlns="http://www.w3.org/2000/svg">
<path d="M10.5 21C16.3188 21 21 16.3188 21 10.5C21 4.68122 16.3188 0 10.5 0C4.68122 0 0 4.68122 0 10.5C0 16.3188 4.68122 21 10.5 21Z" fill="#2775CA"/>
<path d="M13.3876 12.1614C13.3876 10.6302 12.4689 10.1052 10.6314 9.8865C9.31888 9.71146 9.05638 9.3615 9.05638 8.74893C9.05638 8.13636 9.49391 7.74271 10.3689 7.74271C11.1564 7.74271 11.5939 8.00521 11.8126 8.66146C11.8564 8.79271 11.9877 8.88018 12.1189 8.88018H12.8188C12.9939 8.88018 13.1251 8.74893 13.1251 8.574V8.53021C12.9501 7.56768 12.1626 6.82396 11.1564 6.7365V5.6865C11.1564 5.51146 11.0251 5.38021 10.8064 5.33643H10.1502C9.97513 5.33643 9.84388 5.46768 9.80009 5.6865V6.69271C8.48759 6.86775 7.65641 7.74271 7.65641 8.8365C7.65641 10.2802 8.53138 10.8489 10.3689 11.0677C11.5939 11.2865 11.9877 11.549 11.9877 12.249C11.9877 12.949 11.3751 13.4302 10.5439 13.4302C9.40634 13.4302 9.01259 12.9489 8.88134 12.2927C8.83766 12.1177 8.70641 12.0302 8.57516 12.0302H7.83134C7.65641 12.0302 7.52516 12.1614 7.52516 12.3365V12.3802C7.70009 13.4739 8.40013 14.2614 9.84388 14.4802V15.5302C9.84388 15.7052 9.97513 15.8364 10.1938 15.8802H10.8501C11.0251 15.8802 11.1564 15.749 11.2002 15.5302V14.4802C12.5127 14.2614 13.3876 13.3427 13.3876 12.1614V12.1614Z" fill="white"/>
<path fill-rule="evenodd" clip-rule="evenodd" d="M4.37468 8.3552C3.10586 11.724 4.8559 15.5303 8.2684 16.7552C8.39965 16.8428 8.5309 17.0177 8.5309 17.149V17.7615C8.5309 17.849 8.5309 17.8928 8.48711 17.9365C8.44343 18.1115 8.2684 18.199 8.09336 18.1115C5.6434 17.324 3.76211 15.4427 2.97461 12.9927C1.66211 8.83652 3.93715 4.4177 8.09336 3.1052C8.13715 3.06152 8.22461 3.06152 8.2684 3.06152C8.44343 3.1052 8.5309 3.23645 8.5309 3.41149V4.02395C8.5309 4.24277 8.44343 4.37402 8.2684 4.46149C6.47468 5.11774 5.03093 6.5177 4.37468 8.3552ZM12.5125 3.28095C12.5562 3.10592 12.7312 3.01845 12.9062 3.10592C15.3124 3.89342 17.2375 5.7747 18.025 8.26845C19.3375 12.4247 17.0624 16.8435 12.9062 18.156C12.8624 18.1997 12.775 18.1997 12.7312 18.1997C12.5562 18.156 12.4687 18.0247 12.4687 17.8497V17.2372C12.4687 17.0184 12.5562 16.8872 12.7312 16.7997C14.5249 16.1435 15.9687 14.7435 16.6249 12.906C17.8937 9.53716 16.1437 5.73092 12.7312 4.50599C12.5999 4.41842 12.4687 4.24349 12.4687 4.06845V3.45599C12.4687 3.36842 12.4687 3.32474 12.5125 3.28095Z" fill="white"/>
</svg>
