<svg width="236" height="142" viewBox="0 0 236 142" fill="none" xmlns="http://www.w3.org/2000/svg">
<path d="M0 3C0 1.34314 1.34315 0 3 0H233C234.657 0 236 1.34315 236 3V142H0V3Z" fill="#E2E2E2"/>
<path d="M118.5 51.0834C115.819 51.0834 113.164 51.6115 110.687 52.6375C108.21 53.6635 105.959 55.1674 104.063 57.0633C100.234 60.8921 98.0834 66.0852 98.0834 71.5C98.0834 80.5242 103.943 88.1805 112.048 90.8959C113.069 91.0592 113.396 90.4263 113.396 89.875V86.4246C107.74 87.6496 106.536 83.6888 106.536 83.6888C105.597 81.3205 104.27 80.6875 104.27 80.6875C102.412 79.4217 104.413 79.4625 104.413 79.4625C106.454 79.6055 107.536 81.5655 107.536 81.5655C109.313 84.6688 112.314 83.75 113.478 83.26C113.661 81.933 114.192 81.0346 114.764 80.5242C110.231 80.0138 105.474 78.258 105.474 70.4792C105.474 68.213 106.25 66.3959 107.577 64.9463C107.373 64.4359 106.658 62.3125 107.781 59.5563C107.781 59.5563 109.496 59.005 113.396 61.6388C115.009 61.1896 116.765 60.965 118.5 60.965C120.235 60.965 121.991 61.1896 123.604 61.6388C127.504 59.005 129.219 59.5563 129.219 59.5563C130.342 62.3125 129.627 64.4359 129.423 64.9463C130.75 66.3959 131.526 68.213 131.526 70.4792C131.526 78.2784 126.748 79.9934 122.195 80.5038C122.93 81.1367 123.604 82.3821 123.604 84.2809V89.875C123.604 90.4263 123.931 91.0796 124.972 90.8959C133.078 88.16 138.917 80.5242 138.917 71.5C138.917 68.8189 138.389 66.164 137.363 63.6869C136.337 61.2099 134.833 58.9591 132.937 57.0633C131.041 55.1674 128.79 53.6635 126.313 52.6375C123.836 51.6115 121.181 51.0834 118.5 51.0834Z" fill="black"/>
</svg>
