<svg width="237" height="142" viewBox="0 0 237 142" fill="none" xmlns="http://www.w3.org/2000/svg">
<path d="M0 3C0 1.34314 1.34315 0 3 0H234C235.657 0 237 1.34315 237 3V142H0V3Z" fill="#F9E8FF"/>
<path fill-rule="evenodd" clip-rule="evenodd" d="M115.917 77.25H107.583C104.146 77.25 101.333 74.4375 101.333 71C101.333 67.5625 104.146 64.75 107.583 64.75H115.917V60.5834H107.583C101.833 60.5834 97.1666 65.25 97.1666 71C97.1666 76.75 101.833 81.4167 107.583 81.4167H115.917V77.25ZM128.417 60.5834H120.083V64.75H128.417C131.854 64.75 134.667 67.5625 134.667 71C134.667 74.4375 131.854 77.25 128.417 77.25H120.083V81.4167H128.417C134.167 81.4167 138.833 76.75 138.833 71C138.833 65.25 134.167 60.5834 128.417 60.5834ZM126.333 68.9167H109.667V73.0834H126.333V68.9167Z" fill="#FF60F9" fill-opacity="0.54"/>
</svg>
