<svg width="240" height="142" viewBox="0 0 240 142" fill="none" xmlns="http://www.w3.org/2000/svg">
<path d="M0.445801 3C0.445801 1.34314 1.78895 0 3.4458 0H236.145C237.802 0 239.145 1.34315 239.145 3V142H0.445801V3Z" fill="#8BFFC7" fill-opacity="0.29"/>
<path fill-rule="evenodd" clip-rule="evenodd" d="M118.917 77.25H110.583C107.146 77.25 104.333 74.4375 104.333 71C104.333 67.5625 107.146 64.75 110.583 64.75H118.917V60.5834H110.583C104.833 60.5834 100.167 65.25 100.167 71C100.167 76.75 104.833 81.4167 110.583 81.4167H118.917V77.25ZM131.417 60.5834H123.083V64.75H131.417C134.854 64.75 137.667 67.5625 137.667 71C137.667 74.4375 134.854 77.25 131.417 77.25H123.083V81.4167H131.417C137.167 81.4167 141.833 76.75 141.833 71C141.833 65.25 137.167 60.5834 131.417 60.5834ZM129.333 68.9167H112.667V73.0834H129.333V68.9167Z" fill="#339837" fill-opacity="0.54"/>
</svg>
