<svg width="19" height="20" viewBox="0 0 19 20" fill="none" xmlns="http://www.w3.org/2000/svg">
<g clip-path="url(#clip0_2510_12992)">
<path fill-rule="evenodd" clip-rule="evenodd" d="M9.30682 0.886368C4.1648 0.886368 0 5.05117 0 10.1932C0 14.3115 2.66408 17.7899 6.36354 19.023C6.82888 19.1045 7.00338 18.8253 7.00338 18.581C7.00338 18.3599 6.99175 17.627 6.99175 16.8476C4.65341 17.278 4.04847 16.2775 3.86233 15.754C3.75763 15.4864 3.30392 14.6605 2.90838 14.4394C2.58264 14.2649 2.1173 13.8345 2.89675 13.8228C3.62966 13.8112 4.15317 14.4976 4.32767 14.7768C5.16528 16.1844 6.50314 15.7889 7.03828 15.5446C7.11972 14.9397 7.36402 14.5325 7.63159 14.2998C5.56082 14.0671 3.39699 13.2644 3.39699 9.70458C3.39699 8.69246 3.75763 7.85485 4.35094 7.20337C4.25787 6.9707 3.93213 6.01675 4.44401 4.73706C4.44401 4.73706 5.22345 4.49276 7.00338 5.69101C7.74793 5.48161 8.53901 5.37691 9.33008 5.37691C10.1212 5.37691 10.9122 5.48161 11.6568 5.69101C13.4367 4.48113 14.2162 4.73706 14.2162 4.73706C14.728 6.01675 14.4023 6.9707 14.3092 7.20337C14.9025 7.85485 15.2632 8.68083 15.2632 9.70458C15.2632 13.2761 13.0877 14.0671 11.0169 14.2998C11.3543 14.5907 11.6452 15.1491 11.6452 16.0216C11.6452 17.2664 11.6335 18.2668 11.6335 18.581C11.6335 18.8253 11.808 19.1161 12.2734 19.023C14.1209 18.3993 15.7263 17.2118 16.8637 15.6279C18.0011 14.0439 18.6131 12.1432 18.6136 10.1932C18.6136 5.05117 14.4488 0.886368 9.30682 0.886368Z" fill="#CBD5E1"/>
</g>
<defs>
<clipPath id="clip0_2510_12992">
<rect width="18.6136" height="18.6136" fill="white" transform="translate(0 0.886368)"/>
</clipPath>
</defs>
</svg>
