<svg width="18" height="18" viewBox="0 0 18 18" fill="none" xmlns="http://www.w3.org/2000/svg">
<path d="M9.13634 0C4.24103 0 0.272705 3.96832 0.272705 8.86364C0.272705 13.7589 4.24103 17.7273 9.13634 17.7273C14.0317 17.7273 18 13.7589 18 8.86364C18 3.96832 14.0317 0 9.13634 0ZM6.9666 12.5374H5.17171V6.76129H6.9666V12.5374ZM6.05807 6.0522C5.49117 6.0522 5.12462 5.65057 5.12462 5.15383C5.12462 4.64695 5.50225 4.25732 6.08116 4.25732C6.66006 4.25732 7.01461 4.64695 7.02569 5.15383C7.02569 5.65057 6.66006 6.0522 6.05807 6.0522ZM13.522 12.5374H11.7271V9.33636C11.7271 8.59126 11.4667 8.0853 10.8177 8.0853C10.3219 8.0853 10.0273 8.42784 9.89714 8.75746C9.84913 8.87472 9.83712 9.04091 9.83712 9.20618V12.5365H8.04131V8.60327C8.04131 7.88217 8.01823 7.27926 7.99422 6.76037H9.55367L9.63584 7.56271H9.67185C9.90822 7.18601 10.4871 6.63018 11.4557 6.63018C12.6366 6.63018 13.522 7.42145 13.522 9.12216V12.5374Z" fill="#CBD5E1"/>
</svg>
