
<svg width="256" height="95" viewBox="0 0 256 95" fill="none" xmlns="http://www.w3.org/2000/svg">
<path d="M41.4092 82.3391C39.017 82.3391 36.7229 81.3888 35.0314 79.6973C33.3399 78.0058 32.3896 75.7117 32.3896 73.3196C32.3896 70.9274 33.3399 68.6333 35.0314 66.9418C36.7229 65.2503 39.017 64.3 41.4092 64.3V52.6091C35.9164 52.6091 30.6486 54.7911 26.7647 58.6751C22.8807 62.559 20.6987 67.8268 20.6987 73.3196C20.6987 78.8123 22.8807 84.0801 26.7647 87.964C30.6486 91.848 35.9164 94.03 41.4092 94.03V82.3391Z" fill="#CD62FF"/>
<path d="M0 82.3391C2.39213 82.3391 4.68631 81.3888 6.3778 79.6973C8.06929 78.0058 9.01956 75.7117 9.01956 73.3196C9.01956 70.9274 8.06929 68.6333 6.3778 66.9418C4.68631 65.2503 2.39213 64.3 0 64.3V52.6091C5.49275 52.6091 10.7605 54.7911 14.6445 58.6751C18.5284 62.559 20.7105 67.8268 20.7105 73.3196C20.7105 78.8123 18.5284 84.0801 14.6445 87.964C10.7605 91.848 5.49275 94.03 0 94.03V82.3391Z" fill="#CD62FF"/>
<path d="M49.686 0.00665283V94.035C62.0182 93.8278 73.7751 88.7834 82.4229 79.9891C91.0707 71.1948 95.9169 59.3547 95.9169 47.0208C95.9169 34.6869 91.0707 22.8468 82.4229 14.0525C73.7751 5.25818 62.0182 0.213828 49.686 0.00665283Z" fill="#CD62FF"/>
<path d="M143.714 26.5421V0.0066952C137.474 -0.0981418 131.275 1.04048 125.479 3.3561C119.683 5.67172 114.406 9.11797 109.956 13.494C105.506 17.8701 101.971 23.0883 99.5587 28.8445C97.146 34.6006 95.9036 40.7795 95.9036 47.0209C95.9036 53.2622 97.146 59.4411 99.5587 65.1972C101.971 70.9534 105.506 76.1716 109.956 80.5477C114.406 84.9237 119.683 88.3701 125.479 90.6857C131.275 93.0013 137.474 94.1398 143.714 94.035V67.4996C140.981 67.5691 138.262 67.0909 135.716 66.093C133.171 65.0952 130.851 63.5979 128.893 61.6894C126.935 59.7808 125.379 57.4997 124.317 54.9805C123.255 52.4613 122.708 49.7549 122.708 47.0209C122.708 44.2868 123.255 41.5804 124.317 39.0612C125.379 36.542 126.935 34.2609 128.893 32.3523C130.851 30.4438 133.171 28.9465 135.716 27.9487C138.262 26.9508 140.981 26.4726 143.714 26.5421Z" fill="#CD62FF"/>
<path d="M0 6.10352e-05V41.4209L41.4267 6.10352e-05H0Z" fill="#CD62FF"/>
<path d="M20.7161 41.4208L41.4265 20.7104H20.7161V41.4208Z" fill="#CD62FF"/>
<path d="M151.985 0.0032365V22.5035C153.484 22.5391 154.976 22.2745 156.372 21.7251C157.769 21.1758 159.041 20.3528 160.114 19.3046C161.188 18.2564 162.04 17.0041 162.623 15.6215C163.205 14.2388 163.505 12.7537 163.505 11.2534C163.505 9.75306 163.205 8.2679 162.623 6.88524C162.04 5.50258 161.188 4.25032 160.114 3.20213C159.041 2.15393 157.769 1.33095 156.372 0.781597C154.976 0.232244 153.484 -0.0324017 151.985 0.0032365Z" fill="#CD62FF"/>
<path d="M174.485 0.0032959V22.5035C171.547 22.4337 168.754 21.2178 166.701 19.1156C164.648 17.0134 163.499 14.1917 163.499 11.2534C163.499 8.31516 164.648 5.49342 166.701 3.39123C168.754 1.28903 171.547 0.0730916 174.485 0.0032959Z" fill="#CD62FF"/>
<path d="M196.991 0.0032959H174.485C174.485 2.98785 175.67 5.85017 177.781 7.96057C179.891 10.071 182.753 11.2566 185.738 11.2566C188.722 11.2566 191.585 10.071 193.695 7.96057C195.806 5.85017 196.991 2.98785 196.991 0.0032959Z" fill="#CD62FF"/>
<path d="M196.991 22.5035H174.485C174.485 19.519 175.67 16.6567 177.781 14.5463C179.891 12.4359 182.753 11.2502 185.738 11.2502C188.722 11.2502 191.585 12.4359 193.695 14.5463C195.806 16.6567 196.991 19.519 196.991 22.5035Z" fill="#CD62FF"/>
<path d="M196.991 22.5035V45.0418C194.007 45.0418 191.144 43.8562 189.034 41.7458C186.923 39.6354 185.738 36.7731 185.738 33.7885C185.738 30.804 186.923 27.9416 189.034 25.8312C191.144 23.7208 194.007 22.5352 196.991 22.5352V22.5035Z" fill="#CD62FF"/>
<path d="M174.485 22.5035V45.0418C177.469 45.0418 180.331 43.8562 182.442 41.7458C184.552 39.6354 185.738 36.7731 185.738 33.7885C185.738 30.804 184.552 27.9416 182.442 25.8312C180.331 23.7208 177.469 22.5352 174.485 22.5352V22.5035Z" fill="#CD62FF"/>
<path d="M151.985 22.5035H174.485C174.52 24.0034 174.256 25.4952 173.706 26.8913C173.157 28.2874 172.334 29.5596 171.286 30.633C170.238 31.7064 168.986 32.5593 167.603 33.1417C166.22 33.7241 164.735 34.0241 163.235 34.0241C161.734 34.0241 160.249 33.7241 158.867 33.1417C157.484 32.5593 156.232 31.7064 155.183 30.633C154.135 29.5596 153.312 28.2874 152.763 26.8913C152.214 25.4952 151.949 24.0034 151.985 22.5035Z" fill="#CD62FF"/>
<path d="M151.985 45.0418H174.485C174.52 43.542 174.256 42.0501 173.706 40.654C173.157 39.2579 172.334 37.9857 171.286 36.9123C170.238 35.8389 168.986 34.986 167.603 34.4036C166.22 33.8213 164.735 33.5212 163.235 33.5212C161.734 33.5212 160.249 33.8213 158.867 34.4036C157.484 34.986 156.232 35.8389 155.183 36.9123C154.135 37.9857 153.312 39.2579 152.763 40.654C152.214 42.0501 151.949 43.542 151.985 45.0418Z" fill="#CD62FF"/>
<path d="M190.743 83.6777L203.666 94.0359L203.666 83.6777L190.743 73.3196L177.82 83.6777L164.904 73.3196L151.981 83.6777L151.981 94.0358L164.904 83.6777L177.82 94.0358L190.743 83.6777Z" fill="#CD62FF"/>
<path d="M177.82 73.3196L190.743 62.9614L203.666 73.3196L203.666 62.9614L190.743 52.6091L177.82 62.9614L164.904 52.6091L151.981 62.9614L151.981 73.3196L164.904 62.9614L177.82 73.3196Z" fill="#CD62FF"/>
<path d="M242.523 83.6777L255.446 94.0359L255.446 83.6777L242.523 73.3196L229.6 83.6777L216.684 73.3196L203.761 83.6777L203.761 94.0358L216.684 83.6777L229.6 94.0358L242.523 83.6777Z" fill="#CD62FF"/>
<path d="M229.6 73.3196L242.523 62.9614L255.446 73.3196L255.446 62.9614L242.523 52.6091L229.6 62.9614L216.684 52.6091L203.761 62.9614L203.761 73.3196L216.684 62.9614L229.6 73.3196Z" fill="#CD62FF"/>
<path d="M209.267 41.4384L220.958 41.4384C220.958 39.0463 221.908 36.7521 223.6 35.0606C225.291 33.3691 227.585 32.4189 229.977 32.4189C232.369 32.4189 234.664 33.3691 236.355 35.0606C238.047 36.7521 238.997 39.0463 238.997 41.4384L250.688 41.4384C250.688 35.9457 248.506 30.6779 244.622 26.7939C240.738 22.91 235.47 20.728 229.977 20.728C224.485 20.728 219.217 22.91 215.333 26.7939C211.449 30.6779 209.267 35.9457 209.267 41.4384Z" fill="#CD62FF"/>
<path d="M209.267 20.7104L220.958 20.7104C220.958 18.3183 221.908 16.0242 223.6 14.3327C225.291 12.6412 227.585 11.6909 229.977 11.6909C232.369 11.6909 234.664 12.6412 236.355 14.3327C238.047 16.0242 238.997 18.3183 238.997 20.7104L250.688 20.7104C250.688 15.2177 248.506 9.94992 244.622 6.06596C240.738 2.18201 235.47 2.74649e-05 229.977 2.77049e-05C224.485 2.7945e-05 219.217 2.18201 215.333 6.06597C211.449 9.94992 209.267 15.2177 209.267 20.7104Z" fill="#CD62FF"/>
</svg>
