<svg width="19" height="20" viewBox="0 0 19 20" fill="none" xmlns="http://www.w3.org/2000/svg">
<path d="M9.44317 0.886368C4.30365 0.886368 0.136353 5.05366 0.136353 10.1932C0.136353 15.3327 4.30365 19.5 9.44317 19.5C14.5827 19.5 18.75 15.3327 18.75 10.1932C18.75 5.05366 14.5827 0.886368 9.44317 0.886368ZM13.9158 7.9018C13.9221 7.99944 13.9221 8.10123 13.9221 8.20094C13.9221 11.2506 11.5995 14.7635 7.35537 14.7635C6.0466 14.7635 4.83339 14.3833 3.8113 13.7289C3.99827 13.7497 4.17692 13.758 4.36805 13.758C5.4483 13.758 6.44131 13.3924 7.2328 12.7733C6.21902 12.7526 5.36728 12.0878 5.07644 11.1737C5.43168 11.2257 5.7516 11.2257 6.11723 11.1322C5.59523 11.0261 5.12604 10.7426 4.78938 10.3298C4.45272 9.91706 4.26934 9.40046 4.27041 8.86779V8.83871C4.57579 9.01114 4.93518 9.11708 5.31119 9.13163C4.9951 8.92097 4.73587 8.63556 4.55649 8.30072C4.37711 7.96588 4.28313 7.59196 4.28287 7.2121C4.28287 6.78207 4.39505 6.38944 4.59656 6.04874C5.17596 6.762 5.89896 7.34535 6.71857 7.76088C7.53818 8.17641 8.43606 8.41482 9.35384 8.46062C9.02769 6.89217 10.1993 5.62287 11.6078 5.62287C12.2726 5.62287 12.8709 5.90125 13.2926 6.34997C13.8141 6.25233 14.3126 6.05705 14.7572 5.7953C14.5848 6.32919 14.2233 6.77999 13.7434 7.0646C14.2088 7.01474 14.6575 6.88594 15.073 6.70521C14.7593 7.16639 14.3666 7.57564 13.9158 7.9018Z" fill="#CBD5E1"/>
</svg>
