<svg width="4" height="13" viewBox="0 0 4 13" fill="none" xmlns="http://www.w3.org/2000/svg">
<path fill-rule="evenodd" clip-rule="evenodd" d="M2.13461 3.35334C2.99055 3.35334 3.69086 2.65303 3.69086 1.79709C3.69086 0.941155 2.99055 0.240845 2.13461 0.240845C1.27868 0.240845 0.578369 0.941155 0.578369 1.79709C0.578369 2.65303 1.27868 3.35334 2.13461 3.35334ZM2.13466 4.9096C1.27873 4.9096 0.578417 5.60991 0.578417 6.46585C0.578417 7.32178 1.27873 8.02209 2.13466 8.02209C2.9906 8.02209 3.69091 7.32178 3.69091 6.46585C3.69091 5.60991 2.9906 4.9096 2.13466 4.9096ZM0.578417 11.1346C0.578417 10.2787 1.27873 9.57834 2.13466 9.57834C2.9906 9.57834 3.69091 10.2787 3.69091 11.1346C3.69091 11.9905 2.9906 12.6908 2.13466 12.6908C1.27873 12.6908 0.578417 11.9905 0.578417 11.1346Z" fill="#CBD5E1"/>
</svg>
