<svg width="108" height="108" viewBox="0 0 108 108" fill="none" xmlns="http://www.w3.org/2000/svg">
<circle cx="54" cy="54" r="54" fill="#F7FAFC"/>
<path opacity="0.3" d="M58.3724 64.5026C57.5425 63.6727 57.5425 62.3273 58.3724 61.4974C59.2023 60.6675 60.5477 60.6675 61.3776 61.4974L69.8776 69.9974C70.7075 70.8273 70.7075 72.1727 69.8776 73.0026C69.0477 73.8325 67.7023 73.8325 66.8724 73.0026L58.3724 64.5026Z" fill="#64758B"/>
<path fill-rule="evenodd" clip-rule="evenodd" d="M36.5 52.375C36.5 60.5902 43.1598 67.25 51.375 67.25C59.5902 67.25 66.25 60.5902 66.25 52.375C66.25 44.1598 59.5902 37.5 51.375 37.5C43.1598 37.5 36.5 44.1598 36.5 52.375ZM62 52.375C62 58.243 57.243 63 51.375 63C45.507 63 40.75 58.243 40.75 52.375C40.75 46.507 45.507 41.75 51.375 41.75C57.243 41.75 62 46.507 62 52.375Z" fill="#64758B"/>
</svg>
