<svg width="14" height="14" viewBox="0 0 14 14" fill="none" xmlns="http://www.w3.org/2000/svg">
<path d="M7.22743 6.35833C5.90326 6.01417 5.47743 5.65833 5.47743 5.10417C5.47743 4.46833 6.06659 4.025 7.05243 4.025C8.09076 4.025 8.47576 4.52083 8.51076 5.25H9.79993C9.7591 4.24667 9.14659 3.325 7.92743 3.0275V1.75H6.17743V3.01C5.04576 3.255 4.13576 3.99 4.13576 5.11583C4.13576 6.46333 5.24993 7.13417 6.87743 7.525C8.33576 7.875 8.62743 8.38833 8.62743 8.93083C8.62743 9.33333 8.34159 9.975 7.05243 9.975C5.85076 9.975 5.37826 9.43833 5.3141 8.75H4.03076C4.10076 10.0275 5.05743 10.745 6.17743 10.9842V12.25H7.92743V10.9958C9.06493 10.78 9.9691 10.1208 9.9691 8.925C9.9691 7.26833 8.55159 6.7025 7.22743 6.35833Z" fill="#64748B"/>
</svg>
