<svg width="247" height="27" viewBox="0 0 247 27" fill="none" xmlns="http://www.w3.org/2000/svg">
<mask id="path-1-outside-1_1601_1178" maskUnits="userSpaceOnUse" x="0" y="0" width="247" height="27" fill="black">
<rect fill="white" width="247" height="27"/>
<path d="M1 2H6.30426V26H1V2ZM19.7209 2H25.0252V26H19.7209V2ZM3.90174 11.472H22.0611V16.24H3.90174V11.472Z"/>
<path d="M38.7797 26V14.416H44.084V26H38.7797ZM27.7656 2H33.6627L42.6799 13.68H40.1214L49.1386 2H55.0357L43.1167 17.456L39.7158 17.488L27.7656 2Z"/>
<path d="M70.5885 2C72.4398 2 74.0415 2.33067 75.3935 2.992C76.7456 3.65333 77.7753 4.58133 78.4825 5.776C79.2105 6.97067 79.5745 8.35733 79.5745 9.936C79.5745 11.5147 79.2105 12.9013 78.4825 14.096C77.7753 15.2693 76.7456 16.1973 75.3935 16.88C74.0415 17.5413 72.4398 17.872 70.5885 17.872H60.2608V13.392H70.3077C71.5349 13.392 72.4918 13.0827 73.1782 12.464C73.8855 11.8453 74.2391 11.0027 74.2391 9.936C74.2391 8.848 73.8855 8.00533 73.1782 7.408C72.4918 6.78933 71.5349 6.48 70.3077 6.48H60.7288L63.1313 3.888V26H57.8271V2H70.5885Z"/>
<path d="M101.975 11.92V16.08H85.2196V11.92H101.975ZM88.7766 14L87.2165 24.176L84.9076 21.488H102.942V26H81.881L83.6907 14L81.881 2H102.786V6.512H84.9076L87.2165 3.824L88.7766 14Z"/>
<path d="M110.657 12.656H119.675C120.86 12.656 121.796 12.3787 122.483 11.824C123.19 11.248 123.544 10.4587 123.544 9.456C123.544 8.45333 123.19 7.67467 122.483 7.12C121.796 6.56533 120.86 6.288 119.675 6.288H109.877L112.28 3.504V26H106.976V2H120.299C122.004 2 123.502 2.32 124.792 2.96C126.081 3.57867 127.09 4.44267 127.818 5.552C128.546 6.66133 128.91 7.96267 128.91 9.456C128.91 10.928 128.546 12.2187 127.818 13.328C127.09 14.4373 126.081 15.312 124.792 15.952C123.502 16.5707 122.004 16.88 120.299 16.88H110.657V12.656ZM114.714 14.768H120.767L129.597 26H123.388L114.714 14.768Z"/>
<path d="M143.983 2C146.708 2 149.09 2.50133 151.128 3.504C153.188 4.50667 154.789 5.904 155.933 7.696C157.077 9.488 157.649 11.5893 157.649 14C157.649 16.3893 157.077 18.4907 155.933 20.304C154.789 22.096 153.188 23.4933 151.128 24.496C149.09 25.4987 146.708 26 143.983 26H132.875V2H143.983ZM138.148 23.856L135.465 21.2H144.389C145.97 21.2 147.353 20.9013 148.539 20.304C149.745 19.7067 150.671 18.864 151.315 17.776C151.96 16.688 152.283 15.4293 152.283 14C152.283 12.5493 151.96 11.2907 151.315 10.224C150.671 9.136 149.745 8.29333 148.539 7.696C147.353 7.09867 145.97 6.8 144.389 6.8H135.465L138.148 4.144V23.856Z"/>
<path d="M164.986 12.656H174.003C175.189 12.656 176.125 12.3787 176.811 11.824C177.518 11.248 177.872 10.4587 177.872 9.456C177.872 8.45333 177.518 7.67467 176.811 7.12C176.125 6.56533 175.189 6.288 174.003 6.288H164.206L166.608 3.504V26H161.304V2H174.627C176.333 2 177.831 2.32 179.12 2.96C180.41 3.57867 181.419 4.44267 182.147 5.552C182.875 6.66133 183.239 7.96267 183.239 9.456C183.239 10.928 182.875 12.2187 182.147 13.328C181.419 14.4373 180.41 15.312 179.12 15.952C177.831 16.5707 176.333 16.88 174.627 16.88H164.986V12.656ZM169.042 14.768H175.095L183.925 26H177.716L169.042 14.768Z"/>
<path d="M187.204 2H192.508V26H187.204V2Z"/>
<path d="M210.332 23.6H207.992L217.539 2H223.156L212.048 26H206.088L195.012 2H200.69L210.332 23.6Z"/>
<path d="M245.033 11.92V16.08H228.278V11.92H245.033ZM231.834 14L230.274 24.176L227.965 21.488H246V26H224.939L226.749 14L224.939 2H245.844V6.512H227.965L230.274 3.824L231.834 14Z"/>
</mask>
<path d="M1 2H6.30426V26H1V2ZM19.7209 2H25.0252V26H19.7209V2ZM3.90174 11.472H22.0611V16.24H3.90174V11.472Z" fill="white"/>
<path d="M38.7797 26V14.416H44.084V26H38.7797ZM27.7656 2H33.6627L42.6799 13.68H40.1214L49.1386 2H55.0357L43.1167 17.456L39.7158 17.488L27.7656 2Z" fill="white"/>
<path d="M70.5885 2C72.4398 2 74.0415 2.33067 75.3935 2.992C76.7456 3.65333 77.7753 4.58133 78.4825 5.776C79.2105 6.97067 79.5745 8.35733 79.5745 9.936C79.5745 11.5147 79.2105 12.9013 78.4825 14.096C77.7753 15.2693 76.7456 16.1973 75.3935 16.88C74.0415 17.5413 72.4398 17.872 70.5885 17.872H60.2608V13.392H70.3077C71.5349 13.392 72.4918 13.0827 73.1782 12.464C73.8855 11.8453 74.2391 11.0027 74.2391 9.936C74.2391 8.848 73.8855 8.00533 73.1782 7.408C72.4918 6.78933 71.5349 6.48 70.3077 6.48H60.7288L63.1313 3.888V26H57.8271V2H70.5885Z" fill="white"/>
<path d="M101.975 11.92V16.08H85.2196V11.92H101.975ZM88.7766 14L87.2165 24.176L84.9076 21.488H102.942V26H81.881L83.6907 14L81.881 2H102.786V6.512H84.9076L87.2165 3.824L88.7766 14Z" fill="white"/>
<path d="M110.657 12.656H119.675C120.86 12.656 121.796 12.3787 122.483 11.824C123.19 11.248 123.544 10.4587 123.544 9.456C123.544 8.45333 123.19 7.67467 122.483 7.12C121.796 6.56533 120.86 6.288 119.675 6.288H109.877L112.28 3.504V26H106.976V2H120.299C122.004 2 123.502 2.32 124.792 2.96C126.081 3.57867 127.09 4.44267 127.818 5.552C128.546 6.66133 128.91 7.96267 128.91 9.456C128.91 10.928 128.546 12.2187 127.818 13.328C127.09 14.4373 126.081 15.312 124.792 15.952C123.502 16.5707 122.004 16.88 120.299 16.88H110.657V12.656ZM114.714 14.768H120.767L129.597 26H123.388L114.714 14.768Z" fill="white"/>
<path d="M143.983 2C146.708 2 149.09 2.50133 151.128 3.504C153.188 4.50667 154.789 5.904 155.933 7.696C157.077 9.488 157.649 11.5893 157.649 14C157.649 16.3893 157.077 18.4907 155.933 20.304C154.789 22.096 153.188 23.4933 151.128 24.496C149.09 25.4987 146.708 26 143.983 26H132.875V2H143.983ZM138.148 23.856L135.465 21.2H144.389C145.97 21.2 147.353 20.9013 148.539 20.304C149.745 19.7067 150.671 18.864 151.315 17.776C151.96 16.688 152.283 15.4293 152.283 14C152.283 12.5493 151.96 11.2907 151.315 10.224C150.671 9.136 149.745 8.29333 148.539 7.696C147.353 7.09867 145.97 6.8 144.389 6.8H135.465L138.148 4.144V23.856Z" fill="white"/>
<path d="M164.986 12.656H174.003C175.189 12.656 176.125 12.3787 176.811 11.824C177.518 11.248 177.872 10.4587 177.872 9.456C177.872 8.45333 177.518 7.67467 176.811 7.12C176.125 6.56533 175.189 6.288 174.003 6.288H164.206L166.608 3.504V26H161.304V2H174.627C176.333 2 177.831 2.32 179.12 2.96C180.41 3.57867 181.419 4.44267 182.147 5.552C182.875 6.66133 183.239 7.96267 183.239 9.456C183.239 10.928 182.875 12.2187 182.147 13.328C181.419 14.4373 180.41 15.312 179.12 15.952C177.831 16.5707 176.333 16.88 174.627 16.88H164.986V12.656ZM169.042 14.768H175.095L183.925 26H177.716L169.042 14.768Z" fill="white"/>
<path d="M187.204 2H192.508V26H187.204V2Z" fill="white"/>
<path d="M210.332 23.6H207.992L217.539 2H223.156L212.048 26H206.088L195.012 2H200.69L210.332 23.6Z" fill="white"/>
<path d="M245.033 11.92V16.08H228.278V11.92H245.033ZM231.834 14L230.274 24.176L227.965 21.488H246V26H224.939L226.749 14L224.939 2H245.844V6.512H227.965L230.274 3.824L231.834 14Z" fill="white"/>
<path d="M1 2H6.30426V26H1V2ZM19.7209 2H25.0252V26H19.7209V2ZM3.90174 11.472H22.0611V16.24H3.90174V11.472Z" stroke="white" stroke-width="2" mask="url(#path-1-outside-1_1601_1178)"/>
<path d="M38.7797 26V14.416H44.084V26H38.7797ZM27.7656 2H33.6627L42.6799 13.68H40.1214L49.1386 2H55.0357L43.1167 17.456L39.7158 17.488L27.7656 2Z" stroke="white" stroke-width="2" mask="url(#path-1-outside-1_1601_1178)"/>
<path d="M70.5885 2C72.4398 2 74.0415 2.33067 75.3935 2.992C76.7456 3.65333 77.7753 4.58133 78.4825 5.776C79.2105 6.97067 79.5745 8.35733 79.5745 9.936C79.5745 11.5147 79.2105 12.9013 78.4825 14.096C77.7753 15.2693 76.7456 16.1973 75.3935 16.88C74.0415 17.5413 72.4398 17.872 70.5885 17.872H60.2608V13.392H70.3077C71.5349 13.392 72.4918 13.0827 73.1782 12.464C73.8855 11.8453 74.2391 11.0027 74.2391 9.936C74.2391 8.848 73.8855 8.00533 73.1782 7.408C72.4918 6.78933 71.5349 6.48 70.3077 6.48H60.7288L63.1313 3.888V26H57.8271V2H70.5885Z" stroke="white" stroke-width="2" mask="url(#path-1-outside-1_1601_1178)"/>
<path d="M101.975 11.92V16.08H85.2196V11.92H101.975ZM88.7766 14L87.2165 24.176L84.9076 21.488H102.942V26H81.881L83.6907 14L81.881 2H102.786V6.512H84.9076L87.2165 3.824L88.7766 14Z" stroke="white" stroke-width="2" mask="url(#path-1-outside-1_1601_1178)"/>
<path d="M110.657 12.656H119.675C120.86 12.656 121.796 12.3787 122.483 11.824C123.19 11.248 123.544 10.4587 123.544 9.456C123.544 8.45333 123.19 7.67467 122.483 7.12C121.796 6.56533 120.86 6.288 119.675 6.288H109.877L112.28 3.504V26H106.976V2H120.299C122.004 2 123.502 2.32 124.792 2.96C126.081 3.57867 127.09 4.44267 127.818 5.552C128.546 6.66133 128.91 7.96267 128.91 9.456C128.91 10.928 128.546 12.2187 127.818 13.328C127.09 14.4373 126.081 15.312 124.792 15.952C123.502 16.5707 122.004 16.88 120.299 16.88H110.657V12.656ZM114.714 14.768H120.767L129.597 26H123.388L114.714 14.768Z" stroke="white" stroke-width="2" mask="url(#path-1-outside-1_1601_1178)"/>
<path d="M143.983 2C146.708 2 149.09 2.50133 151.128 3.504C153.188 4.50667 154.789 5.904 155.933 7.696C157.077 9.488 157.649 11.5893 157.649 14C157.649 16.3893 157.077 18.4907 155.933 20.304C154.789 22.096 153.188 23.4933 151.128 24.496C149.09 25.4987 146.708 26 143.983 26H132.875V2H143.983ZM138.148 23.856L135.465 21.2H144.389C145.97 21.2 147.353 20.9013 148.539 20.304C149.745 19.7067 150.671 18.864 151.315 17.776C151.96 16.688 152.283 15.4293 152.283 14C152.283 12.5493 151.96 11.2907 151.315 10.224C150.671 9.136 149.745 8.29333 148.539 7.696C147.353 7.09867 145.97 6.8 144.389 6.8H135.465L138.148 4.144V23.856Z" stroke="white" stroke-width="2" mask="url(#path-1-outside-1_1601_1178)"/>
<path d="M164.986 12.656H174.003C175.189 12.656 176.125 12.3787 176.811 11.824C177.518 11.248 177.872 10.4587 177.872 9.456C177.872 8.45333 177.518 7.67467 176.811 7.12C176.125 6.56533 175.189 6.288 174.003 6.288H164.206L166.608 3.504V26H161.304V2H174.627C176.333 2 177.831 2.32 179.12 2.96C180.41 3.57867 181.419 4.44267 182.147 5.552C182.875 6.66133 183.239 7.96267 183.239 9.456C183.239 10.928 182.875 12.2187 182.147 13.328C181.419 14.4373 180.41 15.312 179.12 15.952C177.831 16.5707 176.333 16.88 174.627 16.88H164.986V12.656ZM169.042 14.768H175.095L183.925 26H177.716L169.042 14.768Z" stroke="white" stroke-width="2" mask="url(#path-1-outside-1_1601_1178)"/>
<path d="M187.204 2H192.508V26H187.204V2Z" stroke="white" stroke-width="2" mask="url(#path-1-outside-1_1601_1178)"/>
<path d="M210.332 23.6H207.992L217.539 2H223.156L212.048 26H206.088L195.012 2H200.69L210.332 23.6Z" stroke="white" stroke-width="2" mask="url(#path-1-outside-1_1601_1178)"/>
<path d="M245.033 11.92V16.08H228.278V11.92H245.033ZM231.834 14L230.274 24.176L227.965 21.488H246V26H224.939L226.749 14L224.939 2H245.844V6.512H227.965L230.274 3.824L231.834 14Z" stroke="white" stroke-width="2" mask="url(#path-1-outside-1_1601_1178)"/>
</svg>
