<svg width="13" height="13" viewBox="0 0 13 13" fill="none" xmlns="http://www.w3.org/2000/svg">
<path d="M3.0625 2.75C2.81386 2.75 2.5754 2.84877 2.39959 3.02459C2.22377 3.2004 2.125 3.43886 2.125 3.6875V9H10.875V3.6875C10.875 3.43886 10.7762 3.2004 10.6004 3.02459C10.4246 2.84877 10.1861 2.75 9.9375 2.75H3.0625ZM1.5 9.3125H11.5C11.5 9.56114 11.4012 9.7996 11.2254 9.97541C11.0496 10.1512 10.8111 10.25 10.5625 10.25H2.4375C2.18886 10.25 1.9504 10.1512 1.77459 9.97541C1.59877 9.7996 1.5 9.56114 1.5 9.3125Z" fill="#64758B"/>
</svg>
