<svg width="74" height="74" viewBox="0 0 74 74" fill="none" xmlns="http://www.w3.org/2000/svg">
<path fill-rule="evenodd" clip-rule="evenodd" d="M9.25 20.5C9.25 19.3954 10.1454 18.5 11.25 18.5H62.75C63.8546 18.5 64.75 19.3954 64.75 20.5V37.2558C63.7473 37.0876 62.7172 37 61.6667 37C51.4494 37 43.1667 45.2827 43.1667 55.5C43.1667 56.5505 43.2542 57.5806 43.4225 58.5833H11.25C10.1454 58.5833 9.25 57.6879 9.25 56.5833V20.5ZM55.9453 24.1722C57.0698 23.5667 58.4723 23.9875 59.0778 25.112C59.6833 26.2365 59.2625 27.6389 58.138 28.2444L38.0964 39.0361C37.4119 39.4046 36.5881 39.4046 35.9036 39.0361L15.862 28.2444C14.7375 27.6389 14.3167 26.2365 14.9222 25.112C15.5277 23.9875 16.9302 23.5667 18.0547 24.1722L37 34.3736L55.9453 24.1722Z" fill="#6562FF"/>
<path opacity="0.3" fill-rule="evenodd" clip-rule="evenodd" d="M60.1248 61.6667C64.382 61.6667 67.8332 58.2155 67.8332 53.9583C67.8332 49.7011 64.382 46.25 60.1248 46.25C55.8676 46.25 52.4165 49.7011 52.4165 53.9583C52.4165 58.2155 55.8676 61.6667 60.1248 61.6667Z" fill="#6562FF"/>
</svg>
