<svg width="27" height="27" viewBox="0 0 27 27" fill="none" xmlns="http://www.w3.org/2000/svg">
<path opacity="0.15" fill-rule="evenodd" clip-rule="evenodd" d="M13.5 27C20.9558 27 27 20.9558 27 13.5C27 6.04416 20.9558 0 13.5 0C6.04416 0 0 6.04416 0 13.5C0 20.9558 6.04416 27 13.5 27Z" fill="#645AFF"/>
<path d="M11.6982 17.8037L8.02881 14.1562C7.92627 14.0537 7.875 13.9219 7.875 13.7607C7.875 13.5996 7.92627 13.4678 8.02881 13.3652L8.84179 12.5742C8.94433 12.457 9.07251 12.3984 9.22632 12.3984C9.38012 12.3984 9.51562 12.457 9.63281 12.5742L12.0937 15.0351L17.3672 9.76172C17.4844 9.64453 17.6199 9.58594 17.7737 9.58594C17.9275 9.58594 18.0556 9.64453 18.1582 9.76172L18.9712 10.5527C19.0737 10.6553 19.125 10.7871 19.125 10.9482C19.125 11.1094 19.0737 11.2412 18.9712 11.3437L12.4892 17.8037C12.3867 17.9209 12.2549 17.9795 12.0937 17.9795C11.9326 17.9795 11.8008 17.9209 11.6982 17.8037Z" fill="#645AFF"/>
</svg>
