<svg width="13" height="13" viewBox="0 0 13 13" fill="none" xmlns="http://www.w3.org/2000/svg">
<path d="M12.9064 6.49999C12.8941 6.05954 12.7598 5.63067 12.5177 5.26181C12.2764 4.89363 11.9368 4.59908 11.5373 4.41226C11.6893 3.9984 11.7214 3.55045 11.6327 3.11885C11.5434 2.68658 11.3348 2.2884 11.0314 1.96863C10.7109 1.66522 10.3134 1.45726 9.88113 1.36726C9.44954 1.27863 9.00158 1.31067 8.58772 1.46272C8.40158 1.06249 8.10772 0.722264 7.73886 0.480901C7.36999 0.239537 6.94113 0.104537 6.49999 0.0936279C6.05954 0.105219 5.63204 0.238855 5.26386 0.480901C4.89567 0.722946 4.60317 1.06317 4.4184 1.46272C4.00386 1.31067 3.55454 1.27726 3.12158 1.36726C2.68863 1.4559 2.28976 1.66454 1.96931 1.96863C1.6659 2.28908 1.45863 2.68795 1.37067 3.11954C1.28204 3.55113 1.31613 3.99908 1.46886 4.41226C1.06863 4.59908 0.727719 4.89295 0.484992 5.26113C0.242264 5.62931 0.106582 6.05886 0.0936279 6.49999C0.107264 6.94113 0.242264 7.36999 0.484992 7.73886C0.727719 8.10704 1.06863 8.40158 1.46886 8.58772C1.31613 9.0009 1.28204 9.44886 1.37067 9.88045C1.45931 10.3127 1.6659 10.7109 1.96863 11.0314C2.28908 11.3334 2.68726 11.5407 3.11885 11.63C3.55045 11.72 3.9984 11.6873 4.41226 11.5373C4.59908 11.9368 4.89295 12.2764 5.26181 12.5184C5.62999 12.7598 6.05954 12.8941 6.49999 12.9064C6.94113 12.8954 7.36999 12.7611 7.73886 12.5198C8.10772 12.2784 8.40158 11.9375 8.58772 11.5379C8.99954 11.7009 9.4509 11.7398 9.88522 11.6498C10.3189 11.5598 10.717 11.345 11.0307 11.0314C11.3443 10.7177 11.5598 10.3195 11.6498 9.88522C11.7398 9.4509 11.7009 8.99954 11.5373 8.58772C11.9368 8.4009 12.2764 8.10704 12.5184 7.73817C12.7598 7.36999 12.8941 6.94045 12.9064 6.49999ZM5.58772 9.12499L3.24976 6.78772L4.13136 5.89999L5.54408 7.31272L8.54408 4.04408L9.46249 4.89363L5.58772 9.12499Z" fill="#3B82F6"/>
</svg>

