<svg width="20" height="20" viewBox="0 0 20 20" fill="none" xmlns="http://www.w3.org/2000/svg">
<path fill-rule="evenodd" clip-rule="evenodd" d="M9.625 0C4.30938 0 0 4.30938 0 9.625C0 14.9406 4.30938 19.25 9.625 19.25C14.9406 19.25 19.25 14.9406 19.25 9.625C19.25 4.30938 14.9406 0 9.625 0ZM13.797 7.9975C13.8738 7.90969 13.9323 7.8074 13.969 7.69665C14.0057 7.5859 14.0199 7.46892 14.0107 7.35261C14.0016 7.2363 13.9692 7.12299 13.9156 7.01936C13.862 6.91573 13.7882 6.82387 13.6986 6.74917C13.609 6.67448 13.5053 6.61847 13.3937 6.58443C13.2821 6.55039 13.1648 6.53902 13.0488 6.55097C12.9327 6.56293 12.8202 6.59798 12.7179 6.65405C12.6156 6.71013 12.5255 6.7861 12.453 6.8775L8.6905 11.3916L6.74362 9.44388C6.5786 9.28449 6.35757 9.19629 6.12815 9.19829C5.89873 9.20028 5.67927 9.2923 5.51703 9.45453C5.3548 9.61677 5.26278 9.83623 5.26079 10.0656C5.25879 10.2951 5.34699 10.5161 5.50638 10.6811L8.13138 13.3061C8.21735 13.392 8.32028 13.4591 8.43361 13.5031C8.54694 13.547 8.66819 13.5668 8.78961 13.5613C8.91103 13.5558 9.02998 13.525 9.13886 13.471C9.24774 13.417 9.34417 13.3409 9.422 13.2475L13.797 7.9975Z" fill="white"/>
</svg>
