<svg width="210" height="18" viewBox="0 0 210 18" fill="none" xmlns="http://www.w3.org/2000/svg">
<g clip-path="url(#clip0_1_2)">
<g style="mix-blend-mode:luminosity">
<mask id="mask0_1_2" style="mask-type:luminance" maskUnits="userSpaceOnUse" x="27" y="0" width="183" height="18">
<path d="M209.349 0.272827H27.8223V17.7273H209.349V0.272827Z" fill="white"/>
</mask>
<g mask="url(#mask0_1_2)">
<path d="M27.8223 17.592H31.1653V11.1187H43.7798V7.77521H31.1653V4.64554H43.7798V1.302H27.8223V17.592Z" fill="white"/>
<path d="M60.191 1.302H50.233C49.3053 1.30276 48.4158 1.6716 47.7599 2.32755C47.1039 2.9835 46.7351 3.87294 46.7344 4.8006V14.0948C46.7353 15.0221 47.1042 15.9111 47.7599 16.5667C48.4157 17.2223 49.3047 17.5911 50.232 17.592H60.1901C61.1173 17.5909 62.0062 17.2222 62.6618 16.5666C63.3175 15.9109 63.6862 15.022 63.6873 14.0948V4.8006C63.6865 3.87335 63.3179 2.98427 62.6625 2.32839C62.0071 1.6725 61.1182 1.30338 60.191 1.302ZM60.3446 4.64554V14.2484H50.0774V4.64554H60.3446Z" fill="white"/>
<path d="M80.2568 11.4386C80.2559 12.1835 79.9597 12.8977 79.4328 13.4244C78.906 13.9512 78.1917 14.2474 77.4468 14.2481H72.7978C72.0531 14.2469 71.3393 13.9505 70.8128 13.4238C70.2863 12.8972 69.9902 12.1833 69.9891 11.4386V1.30127H66.6465V12.1024C66.6481 13.5574 67.2268 14.9524 68.2554 15.9813C69.2842 17.0103 70.6789 17.5892 72.1338 17.5913H78.1088C79.5644 17.5901 80.9601 17.0115 81.9897 15.9825C83.0192 14.9535 83.5985 13.5581 83.6004 12.1024V1.30127H80.2568V11.4386Z" fill="white"/>
<path d="M100.174 14.2477H99.5525L93.2799 2.45214C93.0954 2.10426 92.8195 1.81328 92.4819 1.6105C92.1444 1.40771 91.7579 1.3008 91.3641 1.30127H88.7319C88.1567 1.30203 87.6052 1.53089 87.1985 1.93769C86.7919 2.34447 86.5631 2.89595 86.5625 3.47117V17.5913H89.905V4.64576H90.6595L96.9297 16.4409C97.114 16.7889 97.3899 17.0801 97.7275 17.2829C98.0651 17.4858 98.4516 17.5928 98.8455 17.5922H101.346C101.921 17.5917 102.473 17.363 102.88 16.9563C103.287 16.5496 103.516 15.998 103.516 15.4227V1.30127H100.173L100.174 14.2477Z" fill="white"/>
<path d="M117.943 1.302H106.479V17.592H117.943C119.398 17.5908 120.794 17.0123 121.824 15.9833C122.853 14.9543 123.432 13.5588 123.434 12.1031V6.7922C123.433 5.33633 122.854 3.94054 121.824 2.91121C120.794 1.88188 119.398 1.30313 117.943 1.302ZM109.822 4.64554H117.279C118.024 4.64641 118.738 4.94271 119.265 5.46942C119.792 5.99612 120.088 6.71025 120.089 7.45513V11.4393C120.088 12.1842 119.792 12.8983 119.265 13.425C118.738 13.9517 118.024 14.2481 117.279 14.2489H109.822V4.64554Z" fill="white"/>
<path d="M140.516 1.30127H129.228C128.477 1.30215 127.756 1.601 127.225 2.13226C126.694 2.66352 126.395 3.3838 126.395 4.13505V17.5913H129.738V12.2803H140.005V17.5913H143.348V4.13599C143.348 3.38478 143.049 2.66448 142.518 2.13307C141.987 1.60166 141.267 1.30253 140.516 1.30127ZM140.006 4.6448V8.93673H129.739V4.6448H140.006Z" fill="white"/>
<path d="M146.312 4.64554H152.786V17.592H156.129V4.64554H162.602V1.302H146.312V4.64554Z" fill="white"/>
<path d="M169.076 1.302H165.732V17.592H169.076V1.302Z" fill="white"/>
<path d="M185.85 1.302H175.892C174.964 1.30276 174.074 1.6716 173.419 2.32755C172.763 2.9835 172.394 3.87294 172.393 4.8006V14.0948C172.394 15.0221 172.763 15.9111 173.419 16.5667C174.074 17.2223 174.963 17.5911 175.89 17.592H185.849C186.776 17.5909 187.664 17.2222 188.32 16.5666C188.976 15.9109 189.344 15.022 189.346 14.0948V4.8006C189.346 3.87335 188.977 2.98427 188.322 2.32839C187.665 1.6725 186.776 1.30338 185.85 1.302ZM186.004 4.64554V14.2484H175.736V4.64554H186.004Z" fill="white"/>
<path d="M205.921 1.30127V14.2467H205.299L199.026 2.45262C198.842 2.10455 198.567 1.81339 198.229 1.6105C197.892 1.40761 197.504 1.30069 197.111 1.30127H194.479C193.903 1.30202 193.352 1.53089 192.945 1.93769C192.539 2.34447 192.31 2.89595 192.309 3.47117V17.5913H195.652V4.64576H196.407L202.677 16.4409C202.86 16.7888 203.136 17.0798 203.475 17.2827C203.812 17.4855 204.199 17.5925 204.592 17.5922H207.093C207.669 17.5915 208.22 17.3628 208.626 16.9561C209.034 16.5495 209.262 15.998 209.263 15.4227V1.30127H205.921Z" fill="white"/>
</g>
</g>
<mask id="mask1_1_2" style="mask-type:luminance" maskUnits="userSpaceOnUse" x="0" y="0" width="21" height="19">
<path d="M20.53 0H0V18.3943H20.53V0Z" fill="white"/>
</mask>
<g mask="url(#mask1_1_2)">
<path d="M20.4242 14.5026L17.0352 18.1438C16.9615 18.2229 16.8724 18.286 16.7733 18.3291C16.6742 18.3722 16.5674 18.3944 16.4594 18.3943H0.393449C0.316789 18.3943 0.241801 18.3719 0.177696 18.3298C0.113591 18.2877 0.0631631 18.2277 0.0326074 18.1573C0.00205143 18.0868 -0.00730097 18.009 0.00569924 17.9333C0.0186994 17.8576 0.0534859 17.7874 0.105785 17.7312L3.49742 14.0901C3.5709 14.0112 3.65976 13.9482 3.7585 13.9051C3.85724 13.8621 3.96374 13.8397 4.07144 13.8395H20.1365C20.2132 13.8396 20.2882 13.862 20.3523 13.9041C20.4164 13.9462 20.4668 14.0062 20.4974 14.0766C20.5279 14.147 20.5373 14.2249 20.5243 14.3006C20.5113 14.3762 20.4765 14.4465 20.4242 14.5026ZM17.0352 7.17028C16.9615 7.09117 16.8724 7.02811 16.7733 6.98502C16.6742 6.94193 16.5674 6.91971 16.4594 6.91977H0.393449C0.316789 6.91977 0.241801 6.94222 0.177696 6.98432C0.113591 7.02643 0.0631631 7.08639 0.0326074 7.15683C0.00205143 7.22724 -0.00730097 7.30508 0.00569924 7.38078C0.0186994 7.45647 0.0534859 7.52669 0.105785 7.58285L3.49742 11.224C3.5709 11.3029 3.65976 11.3659 3.7585 11.4089C3.85724 11.452 3.96374 11.4744 4.07144 11.4745H20.1365C20.2132 11.4745 20.2882 11.4521 20.3523 11.41C20.4164 11.3679 20.4668 11.3079 20.4974 11.2375C20.5279 11.1671 20.5373 11.0892 20.5243 11.0135C20.5113 10.9379 20.4765 10.8676 20.4242 10.8115L17.0352 7.17028ZM0.393449 4.55479H16.4594C16.5674 4.55483 16.6742 4.53263 16.7733 4.48951C16.8724 4.44643 16.9615 4.38337 17.0352 4.30428L20.4242 0.663071C20.4765 0.606922 20.5113 0.536692 20.5243 0.461007C20.5373 0.385322 20.5279 0.307485 20.4974 0.237052C20.4668 0.166619 20.4164 0.106665 20.3523 0.0645507C20.2882 0.0224392 20.2132 3.1658e-06 20.1365 0H4.07144C3.96374 0.000183616 3.85724 0.022512 3.7585 0.0656017C3.65976 0.108691 3.5709 0.171628 3.49742 0.250513L0.106659 3.89172C0.0544106 3.94781 0.0196397 4.01797 0.00660994 4.09357C-0.00641977 4.16917 0.00285843 4.24692 0.0333068 4.31733C0.0637548 4.38773 0.114049 4.44769 0.178022 4.48986C0.241995 4.53206 0.316865 4.5546 0.393449 4.55479Z" fill="url(#paint0_linear_1_2)"/>
</g>
</g>
<defs>
<linearGradient id="paint0_linear_1_2" x1="1.73297" y1="18.8327" x2="18.6146" y2="-0.163734" gradientUnits="userSpaceOnUse">
<stop offset="0.08" stop-color="#9945FF"/>
<stop offset="0.3" stop-color="#8752F3"/>
<stop offset="0.5" stop-color="#5497D5"/>
<stop offset="0.6" stop-color="#43B4CA"/>
<stop offset="0.72" stop-color="#28E0B9"/>
<stop offset="0.97" stop-color="#19FB9B"/>
</linearGradient>
<clipPath id="clip0_1_2">
<rect width="210" height="18" fill="white"/>
</clipPath>
</defs>
</svg>
