<svg width="157" height="48" viewBox="0 0 157 48" fill="none" xmlns="http://www.w3.org/2000/svg">
<g clip-path="url(#clip0_1_46)">
<path d="M4.66583 37.7499C6.70672 40.5706 9.32464 42.9307 12.3479 44.6757C15.3712 46.4205 18.7315 47.5107 22.2086 47.8747C20.4197 45.1999 17.8193 42.7392 14.5731 40.8657C11.3269 38.9922 7.88911 37.9687 4.66583 37.7499Z" fill="url(#paint0_linear_1_46)"/>
<path d="M18.9351 33.4057C12.681 29.7954 5.91184 28.8753 1.0683 30.5007C1.53588 32.0362 2.15255 33.523 2.9096 34.9401C7.11781 34.8432 11.7124 35.9788 15.9877 38.4462C20.2631 40.9135 23.5331 44.3188 25.5341 48C27.1488 47.9508 28.755 47.7463 30.3301 47.3898C29.3508 42.4047 25.1878 37.0168 18.9351 33.4057Z" fill="url(#paint1_linear_1_46)"/>
<path d="M48.7382 18.7514C47.9431 15.5376 46.5043 12.516 44.5078 9.86706C42.5114 7.21808 39.9982 4.996 37.1183 3.33352C34.2384 1.67104 31.0508 0.602255 27.7461 0.190964C24.4413 -0.220327 21.0869 0.034319 17.8834 0.939698C23.2352 1.59049 29.1759 3.58683 35.0018 6.94986C40.8278 10.3129 45.5199 14.4512 48.7382 18.7514Z" fill="url(#paint2_linear_1_46)"/>
<path d="M40.9515 30.5374C38.212 26.0169 33.5192 21.6882 27.7381 18.3513C21.9572 15.0142 15.8496 13.1082 10.5451 12.9821C5.87844 12.8723 2.37597 14.2203 0.9383 16.6795C0.930112 16.6941 0.91865 16.7079 0.909645 16.7226C0.780287 17.1838 0.668941 17.6458 0.567421 18.1096C2.57492 17.3221 4.90089 16.8837 7.48723 16.8348C13.2387 16.7275 19.6754 18.5554 25.6153 21.9843C31.555 25.4133 36.3454 30.0657 39.0995 35.0817C40.3342 37.3416 41.1046 39.5665 41.41 41.6922C41.7653 41.3766 42.114 41.0503 42.4522 40.7112C42.4613 40.6957 42.467 40.6794 42.4759 40.6632C43.9137 38.2015 43.3577 34.5114 40.9515 30.5374Z" fill="url(#paint3_linear_1_46)"/>
<path d="M23.34 25.8728C14.4872 20.7624 4.70435 19.9618 0 23.5282C0.00924029 24.6445 0.0951309 25.7589 0.257076 26.8636C1.64094 26.4468 3.06719 26.1843 4.50949 26.0811C9.76647 25.6881 15.5622 27.1435 20.8217 30.181C26.081 33.2187 30.227 37.5027 32.4883 42.2314C33.1134 43.527 33.5902 44.8881 33.9096 46.2892C34.9559 45.8817 35.9732 45.4041 36.9545 44.8599C37.742 39.0319 32.1953 30.984 23.34 25.8728Z" fill="url(#paint4_linear_1_46)"/>
<path d="M45.5049 22.9711C42.7345 18.4554 38.0006 14.1145 32.1787 10.7556C26.3568 7.39663 20.2254 5.46049 14.9038 5.30511C10.847 5.18878 7.70481 6.16579 6.07555 8.01163C12.8406 6.87273 21.7638 8.78691 30.4127 13.7794C39.0617 18.7719 45.1579 25.5271 47.5109 31.9302C48.3174 29.6109 47.6157 26.4147 45.5049 22.9711Z" fill="url(#paint5_linear_1_46)"/>
<path d="M70.4454 14.8636H74.5754V28.5553C74.5754 29.821 74.2891 30.9204 73.7166 31.8537C73.1505 32.787 72.3625 33.5061 71.3524 34.011C70.3425 34.516 69.1685 34.7685 67.8303 34.7685C66.6403 34.7685 65.5596 34.5607 64.5881 34.1452C63.6232 33.7233 62.8577 33.0841 62.2916 32.2276C61.7255 31.3647 61.4456 30.2812 61.4521 28.9773H65.6111C65.6239 29.4951 65.73 29.9392 65.9294 30.31C66.1353 30.6744 66.4151 30.9556 66.7689 31.1538C67.1291 31.3455 67.5538 31.4413 68.0427 31.4413C68.5574 31.4413 68.9915 31.3327 69.3454 31.1154C69.7056 30.8917 69.979 30.5656 70.1656 30.1374C70.3521 29.7091 70.4454 29.1817 70.4454 28.5553V14.8636ZM87.4576 28.2294V19.7727H91.5683V34.5H87.6215V31.8249H87.4671C87.1327 32.6878 86.5761 33.3814 85.7978 33.9055C85.0259 34.4296 84.0835 34.6917 82.9706 34.6917C81.9798 34.6917 81.1082 34.468 80.3555 34.0206C79.6028 33.5731 79.0142 32.9371 78.5897 32.1126C78.1715 31.288 77.9593 30.3004 77.9528 29.1498V19.7727H82.0634V28.4211C82.0699 29.2905 82.3047 29.9776 82.7678 30.4825C83.231 30.9876 83.8519 31.24 84.6302 31.24C85.1255 31.24 85.5887 31.1281 86.0197 30.9045C86.4508 30.6744 86.7982 30.3355 87.0619 29.8881C87.3322 29.4406 87.4639 28.8877 87.4576 28.2294ZM94.8564 40.0227V19.7727H98.9091V22.2465H99.0925C99.2726 21.8502 99.5332 21.4474 99.874 21.0384C100.221 20.6229 100.672 20.2777 101.225 20.0028C101.785 19.7215 102.479 19.581 103.309 19.581C104.39 19.581 105.387 19.8622 106.301 20.4247C107.214 20.9808 107.944 21.8214 108.491 22.9464C109.038 24.0649 109.311 25.468 109.311 27.1555C109.311 28.7983 109.044 30.1854 108.51 31.3167C107.983 32.4417 107.262 33.295 106.349 33.8767C105.442 34.452 104.425 34.7397 103.3 34.7397C102.502 34.7397 101.823 34.6086 101.264 34.3465C100.71 34.0845 100.257 33.7554 99.903 33.3589C99.5492 32.9563 99.2789 32.5504 99.0925 32.1414H98.9671V40.0227H94.8564ZM98.8801 27.1363C98.8801 28.012 99.0024 28.7758 99.2468 29.4279C99.4914 30.0799 99.845 30.588 100.308 30.9523C100.771 31.3104 101.334 31.4893 101.997 31.4893C102.666 31.4893 103.232 31.3071 103.695 30.9429C104.158 30.5721 104.509 30.0607 104.747 29.4087C104.991 28.7503 105.114 27.9928 105.114 27.1363C105.114 26.2861 104.995 25.5384 104.757 24.8928C104.519 24.2472 104.168 23.7421 103.705 23.3778C103.242 23.0134 102.672 22.8313 101.997 22.8313C101.328 22.8313 100.762 23.0071 100.299 23.3586C99.8419 23.7102 99.4914 24.2088 99.2468 24.8544C99.0024 25.5 98.8801 26.2606 98.8801 27.1363ZM112.052 34.5V19.7727H116.162V34.5H112.052ZM114.117 17.8743C113.506 17.8743 112.981 17.673 112.544 17.2702C112.113 16.8612 111.897 16.3722 111.897 15.8032C111.897 15.2407 112.113 14.7582 112.544 14.3555C112.981 13.9464 113.506 13.7418 114.117 13.7418C114.728 13.7418 115.249 13.9464 115.68 14.3555C116.117 14.7582 116.336 15.2407 116.336 15.8032C116.336 16.3722 116.117 16.8612 115.68 17.2702C115.249 17.673 114.728 17.8743 114.117 17.8743ZM127.339 19.7727V22.8409H118.413V19.7727H127.339ZM120.44 16.2442H124.55V29.9745C124.55 30.3516 124.608 30.6456 124.724 30.8565C124.84 31.0611 125.001 31.2049 125.206 31.288C125.419 31.3711 125.663 31.4127 125.94 31.4127C126.133 31.4127 126.326 31.3966 126.519 31.3647C126.712 31.3263 126.86 31.2976 126.963 31.2784L127.609 34.3179C127.403 34.3818 127.114 34.4553 126.741 34.5384C126.368 34.6278 125.914 34.6822 125.38 34.7013C124.389 34.7397 123.521 34.6086 122.775 34.3083C122.035 34.0078 121.459 33.5412 121.048 32.9083C120.636 32.2755 120.433 31.4766 120.44 30.5113V16.2442ZM136.612 34.7877C135.088 34.7877 133.775 34.4808 132.675 33.8671C131.582 33.2472 130.739 32.3715 130.147 31.24C129.555 30.1023 129.259 28.7568 129.259 27.2035C129.259 25.6885 129.555 24.3589 130.147 23.2149C130.739 22.0707 131.572 21.1789 132.646 20.5398C133.727 19.9005 134.994 19.581 136.448 19.581C137.426 19.581 138.336 19.7376 139.179 20.0508C140.028 20.3575 140.768 20.821 141.398 21.441C142.035 22.0611 142.531 22.8409 142.884 23.7805C143.238 24.7138 143.415 25.8067 143.415 27.0597V28.1814H130.9V25.6501H139.546C139.546 25.0621 139.417 24.5412 139.16 24.0873C138.902 23.6335 138.545 23.2788 138.089 23.023C137.638 22.761 137.114 22.6299 136.516 22.6299C135.892 22.6299 135.339 22.7737 134.856 23.0614C134.38 23.3427 134.007 23.7229 133.737 24.2023C133.466 24.6754 133.328 25.2027 133.322 25.7844V28.191C133.322 28.9197 133.457 29.5494 133.727 30.0799C134.004 30.6105 134.393 31.0195 134.895 31.3072C135.396 31.5948 135.991 31.7386 136.68 31.7386C137.136 31.7386 137.555 31.6747 137.934 31.5469C138.314 31.419 138.639 31.2273 138.909 30.9715C139.179 30.7159 139.385 30.4027 139.526 30.0319L143.328 30.2812C143.135 31.1889 142.74 31.9815 142.141 32.659C141.55 33.3303 140.784 33.8544 139.845 34.2315C138.912 34.6023 137.835 34.7877 136.612 34.7877ZM146.098 34.5V19.7727H150.083V22.3423H150.237C150.508 21.4282 150.961 20.7379 151.599 20.2713C152.234 19.7983 152.968 19.5618 153.798 19.5618C154.003 19.5618 154.225 19.5745 154.464 19.6002C154.702 19.6257 154.911 19.6608 155.092 19.7056V23.3299C154.899 23.2723 154.631 23.2212 154.29 23.1765C153.949 23.1318 153.637 23.1094 153.354 23.1094C152.749 23.1094 152.208 23.2404 151.733 23.5024C151.263 23.7582 150.89 24.1161 150.614 24.5763C150.343 25.0366 150.208 25.567 150.208 26.1679V34.5H146.098Z" fill="white"/>
</g>
<defs>
<linearGradient id="paint0_linear_1_46" x1="32.4567" y1="9.75" x2="10.2772" y2="48.1232" gradientUnits="userSpaceOnUse">
<stop offset="0.0001" stop-color="#A4D756"/>
<stop offset="1" stop-color="#00B6E7"/>
</linearGradient>
<linearGradient id="paint1_linear_1_46" x1="32.4567" y1="9.75" x2="10.2773" y2="48.1232" gradientUnits="userSpaceOnUse">
<stop offset="0.0001" stop-color="#A4D756"/>
<stop offset="1" stop-color="#00B6E7"/>
</linearGradient>
<linearGradient id="paint2_linear_1_46" x1="32.4567" y1="9.75" x2="10.2772" y2="48.1232" gradientUnits="userSpaceOnUse">
<stop offset="0.0001" stop-color="#A4D756"/>
<stop offset="1" stop-color="#00B6E7"/>
</linearGradient>
<linearGradient id="paint3_linear_1_46" x1="32.4567" y1="9.75" x2="10.2773" y2="48.1232" gradientUnits="userSpaceOnUse">
<stop offset="0.0001" stop-color="#A4D756"/>
<stop offset="1" stop-color="#00B6E7"/>
</linearGradient>
<linearGradient id="paint4_linear_1_46" x1="32.4567" y1="9.75" x2="10.2773" y2="48.1232" gradientUnits="userSpaceOnUse">
<stop offset="0.0001" stop-color="#A4D756"/>
<stop offset="1" stop-color="#00B6E7"/>
</linearGradient>
<linearGradient id="paint5_linear_1_46" x1="32.4567" y1="9.75" x2="10.2773" y2="48.1232" gradientUnits="userSpaceOnUse">
<stop offset="0.0001" stop-color="#A4D756"/>
<stop offset="1" stop-color="#00B6E7"/>
</linearGradient>
<clipPath id="clip0_1_46">
<rect width="157" height="48" fill="white"/>
</clipPath>
</defs>
</svg>
