<svg width="340" height="262" viewBox="0 0 340 262" fill="none" xmlns="http://www.w3.org/2000/svg">
<path d="M267.636 40.6465H339.15V68.2701C339.15 105.728 308.88 136.003 271.417 136.003H267.632V40.6465H267.636ZM165.852 0.537109H267.636V261.241H255.53C181.744 261.241 166.991 209.779 166.991 163.996L165.852 0.537109ZM0.5 59.565C0.5 106.107 33.7972 123.133 70.88 128.811H0.5V262H68.233C136.341 262 144.287 231.729 144.287 202.972C144.287 167.782 120.069 143.19 82.6117 133.726H144.287V0.537109H76.5536C8.44597 0.537109 0.5 30.8077 0.5 59.565Z" fill="url(#paint0_linear_604_645)"/>
<defs>
<linearGradient id="paint0_linear_604_645" x1="170.078" y1="19.0434" x2="169.7" y2="261.891" gradientUnits="userSpaceOnUse">
<stop stop-color="#050505"/>
<stop offset="0.827569" stop-color="#050505" stop-opacity="0"/>
</linearGradient>
</defs>
</svg>
