<svg width="128" height="13" viewBox="0 0 128 13" fill="none" xmlns="http://www.w3.org/2000/svg">
<path d="M97.1896 0H91.1878C88.8817 0 87.0136 1.87322 87.0136 4.18593V7.83184C87.0136 10.1446 88.8817 12.0178 91.1878 12.0178H97.3318V12.0116C99.5711 11.9362 101.365 10.0965 101.365 7.83185V4.18594C101.365 1.87321 99.4965 0 97.1896 0ZM96.5425 10.0211H91.8349V1.9967H96.5425V10.0211ZM30.5227 0H24.5213C22.2146 0 20.3464 1.87322 20.3464 4.18593V7.83184C20.3464 10.1446 22.2146 12.0178 24.5213 12.0178H30.6646V12.0116C32.9045 11.9362 34.6976 10.0965 34.6976 7.83185V4.18594C34.6976 1.87321 32.8293 0 30.5227 0ZM29.8756 10.0211H25.1684V1.9967H29.8756V10.0211ZM64.1119 2.09296H64.114L60.6279 8.14579V0H58.2127C56.7202 0 55.3425 0.797422 54.5972 2.09296L49.5456 10.8646L47.3225 7.00516C48.9194 6.98631 50.2094 5.6824 50.2094 4.07708V2.93015C50.2094 1.31228 48.9006 0 47.287 0H35.8583V12.0178H40.6802V7.00725H41.7574L44.6422 12.0178H51.1092L55.8059 3.85942V12.0178H60.6279V12.0136L65.3038 3.89292V12.0178H70.1258V0H67.7274C66.2348 0 64.8571 0.797422 64.1119 2.09296ZM45.3875 5.01055H40.6802V1.9967H45.3875V5.01055ZM81.0011 0H85.8232V12.0178H81.0011V7.00725H76.2943V12.0178H71.4722V0H76.2943V5.01056H81.0011V0ZM107.376 10.0211H113.601V12.0178H106.729C104.422 12.0178 102.554 10.1446 102.554 7.83184V0H107.376V10.0211ZM119.663 1.99668V5.01055H126.261V7.00725H119.663V10.0211H128V12.0178H114.841V0H128V1.9967L119.663 1.99668ZM21.2461 0L15.5306 9.92486C14.7854 11.2204 13.4077 12.0178 11.9152 12.0178H9.5V3.87199L6.01394 9.92486C5.26873 11.2204 3.89101 12.0178 2.39847 12.0178H0V0H4.8241V8.12489L9.5 0.00417778V0H14.322V8.15839L19.0187 0H21.2461Z" fill="white"/>
</svg>
