<svg width="60" height="14" fill="none" xmlns="http://www.w3.org/2000/svg"><g filter="url(#prefix__filter0_d_2003_7920)" shape-rendering="crispEdges"><path d="M11.187 5.859v.275c0 1.81-.637 2.982-1.91 3.488l1.461 2.1c.188.303.073.52-.275.52H8.51c-.246 0-.42-.101-.52-.29l-1.275-2.04H3.935v1.896c0 .29-.144.434-.434.434H1.793c-.29 0-.434-.145-.434-.434v-9.35c0-.29.145-.435.434-.435h5.254c2.765 0 4.14 1.274 4.14 3.836zM6.83 4.484H3.935V7.48H6.83c1.23 0 1.766-.231 1.766-1.375v-.232c0-1.143-.507-1.39-1.766-1.39z" fill="url(#prefix__paint0_linear_2003_7920)"/><path d="M23.32 12.242h-1.94c-.246 0-.42-.116-.506-.333l-.522-1.259h-4.964l-.521 1.26c-.087.216-.26.332-.507.332h-1.94c-.332 0-.463-.203-.332-.506l4.27-9.38c.1-.217.26-.333.506-.333h2.012c.246 0 .405.116.507.333l4.27 9.38c.13.303 0 .506-.333.506zm-5.443-7.584l-1.62 3.908h3.241l-1.62-3.908z" fill="url(#prefix__paint1_linear_2003_7920)"/><path d="M46.572 12.242h-1.94c-.246 0-.42-.116-.506-.333l-.521-1.259H38.64l-.521 1.26c-.087.216-.26.332-.507.332h-1.94c-.332 0-.462-.203-.332-.506l4.27-9.38c.101-.217.26-.333.506-.333h2.012c.246 0 .405.116.507.333l4.27 9.38c.13.303 0 .506-.333.506zm-5.443-7.584l-1.62 3.908h3.242L41.13 4.658z" fill="url(#prefix__paint2_linear_2003_7920)"/><path d="M57.79 5.859v.275c0 1.81-.637 2.982-1.91 3.488l1.462 2.1c.188.303.072.52-.276.52h-1.954c-.246 0-.42-.101-.52-.29l-1.274-2.04h-2.78v1.896c0 .29-.144.434-.434.434h-1.708c-.29 0-.434-.145-.434-.434v-9.35c0-.29.145-.435.434-.435h5.255c2.764 0 4.14 1.274 4.14 3.836zm-4.357-1.375H50.54V7.48h2.894c1.23 0 1.766-.231 1.766-1.375v-.232c0-1.143-.506-1.39-1.766-1.39z" fill="url(#prefix__paint3_linear_2003_7920)"/></g><g filter="url(#prefix__filter1_d_2003_7920)"><path d="M24.566 2.357c0-.197.16-.357.357-.357h5.197a4.464 4.464 0 014.464 4.464v1.322a4.464 4.464 0 01-4.464 4.464h-5.197a.357.357 0 01-.357-.357V2.357z" fill="url(#prefix__paint4_angular_2003_7920)"/></g><mask id="prefix__a" style="mask-type:alpha" maskUnits="userSpaceOnUse" x="1" y="2" width="57" height="11"><path d="M11.086 5.867v.275c0 1.809-.636 2.981-1.91 3.488l1.462 2.099c.188.304.072.52-.275.52H8.409c-.246 0-.42-.1-.521-.289L6.614 9.92h-2.78v1.896c0 .29-.144.434-.433.434H1.693c-.29 0-.435-.145-.435-.434v-9.35c0-.29.145-.435.435-.435h5.254c2.764 0 4.14 1.274 4.14 3.836zM6.73 4.492H3.835v2.996H6.73c1.23 0 1.765-.232 1.765-1.375V5.88c0-1.143-.506-1.39-1.765-1.39zM23.22 12.25h-1.94c-.247 0-.42-.116-.507-.333l-.521-1.26h-4.965l-.52 1.26c-.088.217-.261.333-.508.333h-1.94c-.332 0-.462-.203-.332-.507l4.27-9.38c.101-.216.26-.332.506-.332h2.012c.247 0 .406.116.507.333l4.27 9.38c.13.303 0 .506-.333.506zm-5.443-7.585l-1.621 3.908h3.242l-1.621-3.908zM46.471 12.25h-1.94c-.245 0-.42-.116-.506-.333l-.521-1.26h-4.965l-.52 1.26c-.088.217-.261.333-.507.333h-1.94c-.333 0-.463-.203-.333-.507l4.27-9.38c.101-.216.26-.332.507-.332h2.012c.246 0 .405.116.506.333l4.27 9.38c.13.303 0 .506-.333.506zM41.03 4.665l-1.621 3.908h3.242l-1.621-3.908zM57.69 5.867v.275c0 1.809-.637 2.981-1.911 3.488l1.462 2.099c.188.304.072.52-.275.52h-1.954c-.246 0-.42-.1-.521-.289l-1.274-2.04h-2.779v1.896c0 .29-.145.434-.434.434h-1.708c-.29 0-.434-.145-.434-.434v-9.35c0-.29.144-.435.434-.435h5.254c2.765 0 4.14 1.274 4.14 3.836zm-4.357-1.375h-2.895v2.996h2.895c1.23 0 1.766-.232 1.766-1.375V5.88c0-1.143-.507-1.39-1.766-1.39zM24.583 2.357c0-.197.16-.357.357-.357h5.197A4.464 4.464 0 0134.6 6.464v1.322a4.464 4.464 0 01-4.464 4.464H24.94a.357.357 0 01-.357-.357V2.357z" fill="#fff" fill-opacity=".5"/></mask><g mask="url(#prefix__a)" stroke="#fff" stroke-opacity=".1" stroke-width=".067"><path d="M-1.646 2.958h62.24M-1.646 4.123h62.24M-1.646 5.289h62.24M-1.646 6.454h62.24M-1.646 7.62h62.24M-1.646 8.785h62.24M-1.646 9.95h62.24M-1.646 11.116h62.24M-1.646 12.282h62.24M1.91.627v13.986M3.133.627v13.986M4.298.627v13.986M5.522.627v13.986M6.688.627v13.986M7.912.627v13.986M9.077.626v13.987M10.301.627v13.986M11.466.627v13.986M12.69.626v13.987M13.856.627v13.986M15.08.627v13.986M16.245.627v13.986M17.469.627v13.986M18.634.626v13.987M19.858.627v13.986M21.024.627v13.986M22.248.627v13.986M23.471.626v13.987M24.637.627v13.986M25.86.627v13.986M27.026.627v13.986M28.25.627v13.986M29.416.627v13.986M30.64.627v13.986M31.805.627v13.986M33.03.627v13.986M34.194.627v13.986M35.418.627v13.986M36.584.627v13.986M37.807.627v13.986M38.973.627v13.986M40.197.627v13.986M41.362.627v13.986M42.586.627v13.986M43.752.627v13.986M44.976.627v13.986M46.141.627v13.986M47.365.627v13.986M48.53.627v13.986M49.754.627v13.986M50.92.627v13.986M52.144.627v13.986M53.31.627v13.986M54.533.627v13.986M55.699.627v13.986M56.922.627v13.986"/></g><defs><linearGradient id="prefix__paint0_linear_2003_7920" x1="1.359" y1="7.133" x2="57.79" y2="7.133" gradientUnits="userSpaceOnUse"><stop stop-color="#393939"/><stop offset=".33" stop-color="#393939"/><stop offset=".5" stop-color="#ADD3FF" stop-opacity=".678"/><stop offset=".66" stop-color="#393939"/><stop offset="1" stop-color="#393939"/></linearGradient><linearGradient id="prefix__paint1_linear_2003_7920" x1="1.359" y1="7.133" x2="57.79" y2="7.133" gradientUnits="userSpaceOnUse"><stop stop-color="#393939"/><stop offset=".33" stop-color="#393939"/><stop offset=".5" stop-color="#ADD3FF" stop-opacity=".678"/><stop offset=".66" stop-color="#393939"/><stop offset="1" stop-color="#393939"/></linearGradient><linearGradient id="prefix__paint2_linear_2003_7920" x1="1.359" y1="7.133" x2="57.79" y2="7.133" gradientUnits="userSpaceOnUse"><stop stop-color="#393939"/><stop offset=".33" stop-color="#393939"/><stop offset=".5" stop-color="#ADD3FF" stop-opacity=".678"/><stop offset=".66" stop-color="#393939"/><stop offset="1" stop-color="#393939"/></linearGradient><linearGradient id="prefix__paint3_linear_2003_7920" x1="1.359" y1="7.133" x2="57.79" y2="7.133" gradientUnits="userSpaceOnUse"><stop stop-color="#393939"/><stop offset=".33" stop-color="#393939"/><stop offset=".5" stop-color="#ADD3FF" stop-opacity=".678"/><stop offset=".66" stop-color="#393939"/><stop offset="1" stop-color="#393939"/></linearGradient><filter id="prefix__filter0_d_2003_7920" x=".01" y=".675" width="59.129" height="12.916" filterUnits="userSpaceOnUse" color-interpolation-filters="sRGB"><feFlood flood-opacity="0" result="BackgroundImageFix"/><feColorMatrix in="SourceAlpha" values="0 0 0 0 0 0 0 0 0 0 0 0 0 0 0 0 0 0 127 0" result="hardAlpha"/><feOffset/><feGaussianBlur stdDeviation=".674"/><feComposite in2="hardAlpha" operator="out"/><feColorMatrix values="0 0 0 0 0.945098 0 0 0 0 0.701961 0 0 0 0 0.0784314 0 0 0 0.1 0"/><feBlend in2="BackgroundImageFix" result="effect1_dropShadow_2003_7920"/><feBlend in="SourceGraphic" in2="effect1_dropShadow_2003_7920" result="shape"/></filter><filter id="prefix__filter1_d_2003_7920" x="23.217" y=".651" width="12.715" height="12.947" filterUnits="userSpaceOnUse" color-interpolation-filters="sRGB"><feFlood flood-opacity="0" result="BackgroundImageFix"/><feColorMatrix in="SourceAlpha" values="0 0 0 0 0 0 0 0 0 0 0 0 0 0 0 0 0 0 127 0" result="hardAlpha"/><feOffset/><feGaussianBlur stdDeviation=".674"/><feComposite in2="hardAlpha" operator="out"/><feColorMatrix values="0 0 0 0 0.945098 0 0 0 0 0.701961 0 0 0 0 0.0784314 0 0 0 0.1 0"/><feBlend in2="BackgroundImageFix" result="effect1_dropShadow_2003_7920"/><feBlend in="SourceGraphic" in2="effect1_dropShadow_2003_7920" result="shape"/></filter><radialGradient id="prefix__paint4_angular_2003_7920" cx="0" cy="0" r="1" gradientUnits="userSpaceOnUse" gradientTransform="matrix(5.10282 -5.12492 5.0305 5.0088 29.575 7.125)"><stop stop-color="#8C8D8F"/><stop offset="1" stop-color="#393939"/></radialGradient></defs></svg>