<svg width="20" height="20" viewBox="0 0 20 20" fill="none" xmlns="http://www.w3.org/2000/svg">
<path d="M9.0659 13.2705C9.61267 13.7052 10.3871 13.7049 10.9336 13.2699L16.1333 9.13044V9.13044C16.8319 8.57731 16.833 7.51775 16.1356 6.96314L10.9337 2.82595C10.3871 2.39126 9.61288 2.39126 9.06631 2.82595L3.85926 6.9672C3.16372 7.52037 3.16327 8.57667 3.85833 9.13044V9.13044L9.0659 13.2705Z" fill="#1F7AFA"/>
<path opacity="0.3" fill-rule="evenodd" clip-rule="evenodd" d="M10.9252 15.435C10.3787 15.8696 9.60459 15.8697 9.05802 15.4352L4.44862 11.7707C4.11925 11.5088 3.63939 11.5667 3.38176 11.8994V11.8994C3.12535 12.2305 3.18739 12.707 3.52003 12.9614L9.08755 17.2198C9.62534 17.6311 10.372 17.6312 10.9099 17.2199L16.4747 12.9653C16.8101 12.7089 16.8725 12.2282 16.6137 11.8946V11.8946C16.3539 11.5598 15.8707 11.5018 15.539 11.7655L10.9252 15.435Z" fill="#1F7AFA"/>
</svg>
