<svg width="20" height="20" viewBox="0 0 20 20" fill="none" xmlns="http://www.w3.org/2000/svg">
<path d="M4.16667 15.8333H16.6667C17.1269 15.8333 17.5 16.2064 17.5 16.6667C17.5 17.1269 17.1269 17.5 16.6667 17.5H3.33333C2.8731 17.5 2.5 17.1269 2.5 16.6667V3.33333C2.5 2.8731 2.8731 2.5 3.33333 2.5C3.79357 2.5 4.16667 2.8731 4.16667 3.33333V15.8333Z" fill="#1F7AFA"/>
<path opacity="0.3" d="M7.27466 12.2366C6.95988 12.5724 6.43252 12.5894 6.09676 12.2746C5.761 11.9598 5.74399 11.4325 6.05876 11.0967L9.18376 7.76338C9.48819 7.43866 9.99406 7.4105 10.3326 7.69942L12.7991 9.80412L16.0126 5.73362C16.2978 5.37239 16.8218 5.31074 17.1831 5.59592C17.5443 5.88111 17.606 6.40513 17.3208 6.76636L13.5708 11.5164C13.2779 11.8874 12.7354 11.9407 12.3758 11.6339L9.85573 9.48346L7.27466 12.2366Z" fill="#1F7AFA"/>
</svg>
