<svg width="20" height="20" viewBox="0 0 20 20" fill="none" xmlns="http://www.w3.org/2000/svg">
<path fill-rule="evenodd" clip-rule="evenodd" d="M4.16667 11.6667C5.08714 11.6667 5.83333 10.9205 5.83333 10C5.83333 9.07957 5.08714 8.33337 4.16667 8.33337C3.24619 8.33337 2.5 9.07957 2.5 10C2.5 10.9205 3.24619 11.6667 4.16667 11.6667Z" fill="#1F7AFA"/>
<path fill-rule="evenodd" clip-rule="evenodd" d="M10 11.6667C10.9205 11.6667 11.6667 10.9205 11.6667 10C11.6667 9.07957 10.9205 8.33337 10 8.33337C9.07954 8.33337 8.33334 9.07957 8.33334 10C8.33334 10.9205 9.07954 11.6667 10 11.6667Z" fill="#1F7AFA"/>
<path fill-rule="evenodd" clip-rule="evenodd" d="M15.8333 11.6667C16.7538 11.6667 17.5 10.9205 17.5 10C17.5 9.07957 16.7538 8.33337 15.8333 8.33337C14.9128 8.33337 14.1667 9.07957 14.1667 10C14.1667 10.9205 14.9128 11.6667 15.8333 11.6667Z" fill="#1F7AFA"/>
</svg>
