<svg width="20" height="20" viewBox="0 0 20 20" fill="none" xmlns="http://www.w3.org/2000/svg">
<path opacity="0.3" fill-rule="evenodd" clip-rule="evenodd" d="M9.99999 18.3333C14.6024 18.3333 18.3333 14.6023 18.3333 9.99996C18.3333 5.39759 14.6024 1.66663 9.99999 1.66663C5.39762 1.66663 1.66666 5.39759 1.66666 9.99996C1.66666 14.6023 5.39762 18.3333 9.99999 18.3333Z" fill="#1F7AFA"/>
<path fill-rule="evenodd" clip-rule="evenodd" d="M9.16668 13.4897C9.16668 14.2811 10.2336 14.5329 10.5875 13.8251L12.7906 9.41878C13.04 8.92011 12.6774 8.33337 12.1198 8.33337H10V6.51042C10 5.71901 8.93312 5.46715 8.57919 6.17501L6.37605 10.5813C6.12671 11.08 6.48933 11.6667 7.04687 11.6667H9.16668V13.4897Z" fill="#1F7AFA"/>
</svg>
