<svg width="15" height="11" viewBox="0 0 15 11" fill="none" xmlns="http://www.w3.org/2000/svg">
 <path d="M14.8374 0.00134413L11.2287 0.439956C11.1092 0.454577 11.0584 0.602608 11.1436 0.688503L12.2179 1.77224L8.12365 5.9025L6.27944 4.04389C6.16531 3.92875 5.98234 3.93058 5.87002 4.04389L0.0421017 9.92494C0.0151302 9.95242 0 9.98953 0 10.0282C0 10.0669 0.0151302 10.104 0.0421017 10.1315L0.857321 10.9575C0.913481 11.0142 1.00587 11.0142 1.06203 10.9575L6.07473 5.9025L7.91712 7.76112C8.03126 7.87443 8.21423 7.87443 8.32655 7.76112L13.2432 2.80481L14.3175 3.88854C14.3368 3.90787 14.361 3.92136 14.3875 3.92747C14.4139 3.93359 14.4416 3.93208 14.4673 3.92314C14.4929 3.91419 14.5156 3.89815 14.5327 3.87685C14.5498 3.85555 14.5606 3.82984 14.5639 3.80265L14.9987 0.162168C15.0113 0.0689633 14.9316 -0.0114487 14.8374 0.00134413Z" fill="#6366F1"/>
 </svg>

