<svg width="340" height="120" viewBox="0 0 340 120" fill="none" xmlns="http://www.w3.org/2000/svg">
<rect width="340" height="120" rx="8" fill="black"/>
<rect x="1" y="1" width="338" height="118" rx="7" stroke="white" stroke-opacity="0.12" stroke-width="2"/>
<path d="M245.494 53.7369V55.2841H234.615V59.0938H244.88V60.6424H234.615V64.9262H245.996V66.4748H232.773V53.7369H245.492H245.494Z" fill="#EFE9E6"/>
<path d="M222.36 53.453C226.024 53.453 228.844 55.1488 229.843 57.7471L228.276 58.5214C227.434 56.3648 225.281 55.0384 222.381 55.0384C218.717 55.0384 215.878 56.9933 215.878 60.1068C215.878 63.2202 218.717 65.1751 222.381 65.1751C225.281 65.1751 227.434 63.8488 228.276 61.6922L229.843 62.4665C228.844 65.0647 226.024 66.7606 222.36 66.7606C217.678 66.7606 213.977 64.0681 213.977 60.1068C213.977 56.1454 217.678 53.453 222.36 53.453Z" fill="#EFE9E6"/>
<path d="M210.946 66.4748H209.28L197.944 55.8935V66.4748H196.141V53.7369H198.139L209.144 63.9502V53.7369H210.947V66.4748H210.946Z" fill="#EFE9E6"/>
<path d="M183.379 53.7369H185.651L193.508 66.4748H191.314L189.06 63.0434H179.872L177.639 66.4748H175.543L183.379 53.7369ZM188.14 61.4948L185.847 57.6806C185.377 56.9063 184.927 55.948 184.456 55.1752C183.986 55.9495 183.515 56.9078 183.064 57.6806L180.792 61.4948H188.138H188.14Z" fill="#EFE9E6"/>
<path d="M172.963 66.4748H171.082V53.7369H172.963V66.4748Z" fill="#EFE9E6"/>
<path d="M155.469 53.7369H157.35V64.9262H168.026V66.4748H155.469V53.7369Z" fill="#EFE9E6"/>
<path d="M139.859 53.7369H141.741V64.9262H152.417V66.4748H139.859V53.7369Z" fill="#EFE9E6"/>
<path d="M127.047 53.7369H129.319L137.176 66.4748H134.982L132.728 63.0434H123.54L121.306 66.4748H119.211L127.047 53.7369ZM131.808 61.4948L129.515 57.6806C129.045 56.9063 128.595 55.948 128.124 55.1752C127.654 55.9495 127.183 56.9078 126.732 57.6806L124.46 61.4948H131.806H131.808Z" fill="#EFE9E6"/>
<path d="M103.569 52H102.997C101.827 58.2946 98.1661 63.781 93 67.5304L93.2864 68C96.3757 66.8253 99.7468 66.1732 103.284 66.1732C106.821 66.1732 110.192 66.8253 113.281 68L113.567 67.5304C108.401 63.781 104.739 58.2946 103.569 52Z" fill="#EFE9E6"/>
</svg>
