<svg width="340" height="120" viewBox="0 0 340 120" fill="none" xmlns="http://www.w3.org/2000/svg">
<g clip-path="url(#clip0_2_3)">
<path d="M332 0H8C3.58172 0 0 3.58172 0 8V112C0 116.418 3.58172 120 8 120H332C336.418 120 340 116.418 340 112V8C340 3.58172 336.418 0 332 0Z" fill="black"/>
<path d="M332 1H8C4.13401 1 1 4.13401 1 8V112C1 115.866 4.13401 119 8 119H332C335.866 119 339 115.866 339 112V8C339 4.13401 335.866 1 332 1Z" stroke="white" stroke-opacity="0.12" stroke-width="2"/>
<path d="M332 1H8C4.13401 1 1 4.13401 1 8V112C1 115.866 4.13401 119 8 119H332C335.866 119 339 115.866 339 112V8C339 4.13401 335.866 1 332 1Z" stroke="white" stroke-opacity="0.12" stroke-width="2"/>
<g clip-path="url(#clip1_2_3)">
<path d="M194.462 54H130V66H194.462V54Z" fill="#003F7F"/>
<path d="M210 40H130V52H210V40Z" fill="#003F7F"/>
<path d="M171.156 68H130V80H171.156V68Z" fill="#007FBF"/>
<path d="M138.506 73.1648V78H136.776V76.9645C136.541 77.6591 136.023 78.0825 134.917 78.0825C132.941 78.0825 131.624 76.5767 131.624 73.8824C131.624 71.1881 132.988 69.7416 135.188 69.7416C137.011 69.7416 138.247 70.6825 138.482 72.4589H136.341C136.223 71.7295 135.859 71.4941 135.188 71.4941C134.247 71.4941 133.764 72.1649 133.764 73.8824C133.764 75.5885 134.2 76.3295 135.141 76.3295C135.882 76.3295 136.317 75.906 136.423 74.9179H135.035V73.1648H138.506Z" fill="white"/>
<path d="M143.058 76.4352H145.387V78H139.916V76.4352H141.187V73.5648H139.916V72H143.058V73.1059C143.505 72.294 144.375 71.8587 146.057 71.8587V73.7649C143.081 73.5647 143.058 74.3176 143.058 75.8469V76.4352Z" fill="white"/>
<path d="M153.879 74.9763C153.879 76.8825 152.491 78.1413 150.621 78.1413C148.75 78.1413 147.362 76.8827 147.362 74.9763C147.362 73.1059 148.75 71.8587 150.621 71.8587C152.491 71.8587 153.879 73.1059 153.879 74.9763ZM149.245 74.9763C149.245 75.9413 149.797 76.5765 150.609 76.5765C151.432 76.5765 151.986 75.9415 151.986 74.9763C151.986 74.0471 151.432 73.4235 150.609 73.4235C149.797 73.4235 149.245 74.0471 149.245 74.9763Z" fill="white"/>
<path d="M161.361 78H159.49V77.1057C159.114 77.8237 158.455 78.1412 157.549 78.1412C156.149 78.1412 155.361 77.1765 155.361 75.7531V72H157.231V75.2589C157.231 76.0353 157.643 76.4707 158.232 76.4707C158.949 76.4707 159.49 76.0119 159.49 75.0117V72H161.361V78H161.361Z" fill="white"/>
<path d="M169.454 75.0237C169.454 76.8941 168.324 78.1413 166.713 78.1413C166.042 78.1413 165.36 77.9296 164.901 77.3295H164.889V80H163.019V72H164.889V72.7649H164.913C165.36 72.1528 165.971 71.8587 166.748 71.8587C168.301 71.8587 169.454 73.1413 169.454 75.0237ZM167.559 75.0117C167.559 74.0471 167.018 73.4235 166.207 73.4235C165.383 73.4235 164.83 74.0471 164.83 74.9883V75.0707C164.842 75.9764 165.383 76.5765 166.207 76.5765C167.03 76.5765 167.559 75.9529 167.559 75.0117Z" fill="white"/>
<path d="M134.094 57.7531V59.3649H138.164V61.1295H134.094V64H132.035V56H138.435V57.7531H134.094Z" fill="white"/>
<path d="M146.128 60.9763C146.128 62.8825 144.74 64.1413 142.869 64.1413C140.999 64.1413 139.61 62.8827 139.61 60.9763C139.61 59.1059 140.998 57.8587 142.869 57.8587C144.74 57.8587 146.128 59.1059 146.128 60.9763ZM141.493 60.9763C141.493 61.9413 142.045 62.5765 142.857 62.5765C143.681 62.5765 144.234 61.9415 144.234 60.9763C144.234 60.0471 143.681 59.4235 142.857 59.4235C142.045 59.4235 141.493 60.0471 141.493 60.9763Z" fill="white"/>
<path d="M153.609 64H151.738V63.1057C151.362 63.8237 150.703 64.1412 149.797 64.1412C148.397 64.1412 147.609 63.1765 147.609 61.7531V58H149.48V61.2589C149.48 62.0353 149.892 62.4707 150.48 62.4707C151.197 62.4707 151.739 62.0119 151.739 61.0117V58H153.609V64H153.609Z" fill="white"/>
<path d="M161.384 60.2473V64H159.514V60.7411C159.514 59.9647 159.102 59.5293 158.513 59.5293C157.796 59.5293 157.255 59.9881 157.255 60.9883V64H155.384V58H157.255V58.8943C157.631 58.1768 158.29 57.8588 159.196 57.8588C160.596 57.8587 161.384 58.8233 161.384 60.2473Z" fill="white"/>
<path d="M162.795 60.9763C162.795 59.1059 163.924 57.8587 165.536 57.8587C166.207 57.8587 166.889 58.0704 167.348 58.6705H167.36V56H169.23V64H167.36V63.2351H167.336C166.889 63.8472 166.277 64.1413 165.501 64.1413C163.948 64.1413 162.795 62.8587 162.795 60.9763ZM164.689 60.9883C164.689 61.9529 165.23 62.5765 166.042 62.5765C166.865 62.5765 167.419 61.9529 167.419 61.0117V60.9293C167.407 60.0236 166.865 59.4235 166.042 59.4235C165.218 59.4235 164.689 60.0471 164.689 60.9883Z" fill="white"/>
<path d="M170.664 61.0117C170.664 59.1883 171.958 57.8587 173.934 57.8587C175.911 57.8587 177.028 59.2117 177.028 61.1764V61.4585H172.629V61.4705C172.699 62.2235 173.181 62.6469 173.923 62.6469C174.511 62.6469 174.887 62.4117 175.076 62.0823H176.981C176.617 63.1647 175.746 64.1413 174.029 64.1413C171.946 64.1413 170.664 62.8352 170.664 61.0117ZM175.134 60.4001C175.063 59.7061 174.629 59.2707 173.923 59.2707C173.24 59.2707 172.77 59.706 172.652 60.4001H175.134Z" fill="white"/>
<path d="M181.816 62.4352H184.145V64H178.674V62.4352H179.945V59.5648H178.674V58H181.815V59.1059C182.262 58.294 183.133 57.8587 184.815 57.8587V59.7649C181.839 59.5647 181.815 60.3176 181.815 61.8469V62.4352H181.816Z" fill="white"/>
<path d="M189.403 59.1997C188.767 59.1997 188.344 59.3884 188.344 59.7529C188.344 60.0824 188.697 60.1529 189.191 60.2233L190.579 60.4001C191.52 60.518 192.438 61.0003 192.438 62.1297C192.438 63.3765 191.308 64.1179 189.497 64.1179C187.52 64.1179 186.391 63.2471 186.309 61.894H188.167C188.214 62.4352 188.72 62.7293 189.52 62.7293C190.203 62.7293 190.579 62.5296 190.579 62.2001C190.579 61.9884 190.426 61.8117 189.897 61.7532L188.579 61.5884C187.379 61.4351 186.485 60.9648 186.485 59.8235C186.485 58.5883 187.567 57.8827 189.308 57.8827C191.12 57.8827 192.261 58.6471 192.379 59.8944H190.532C190.438 59.3765 189.92 59.1997 189.403 59.1997Z" fill="white"/>
<path d="M138.517 47.788C138.517 49.1531 137.447 50 135.941 50H132V42H135.729C137.2 42 138.306 42.7651 138.306 44.0707C138.306 45.0473 137.671 45.5765 136.635 45.8587C137.788 46.0944 138.517 46.6585 138.517 47.788ZM134.059 45.1532H135.164C135.894 45.1532 136.282 44.9295 136.282 44.4003C136.282 43.8825 135.917 43.6473 135.211 43.6473H134.058V45.1532H134.059ZM136.482 47.5059C136.482 46.9527 136.094 46.7175 135.329 46.7175H134.059V48.3412H135.211C136.035 48.3412 136.482 48.0821 136.482 47.5059Z" fill="white"/>
<path d="M146.281 48.4352V50H139.622V48.4352H141.975V43.5648H139.951V42H143.834V48.4352H146.281Z" fill="white"/>
<path d="M153.879 46.9763C153.879 48.8825 152.491 50.1413 150.621 50.1413C148.75 50.1413 147.362 48.8827 147.362 46.9763C147.362 45.1059 148.75 43.8587 150.621 43.8587C152.491 43.8587 153.879 45.1059 153.879 46.9763ZM149.245 46.9763C149.245 47.9413 149.797 48.5765 150.609 48.5765C151.432 48.5765 151.986 47.9415 151.986 46.9763C151.986 46.0471 151.432 45.4235 150.609 45.4235C149.797 45.4235 149.245 46.0471 149.245 46.9763Z" fill="white"/>
<path d="M158.502 50.1413C156.596 50.1413 155.208 48.8117 155.208 46.9763C155.208 45.1528 156.596 43.8587 158.49 43.8587C160.184 43.8587 161.537 44.8823 161.584 46.3531H159.69C159.596 45.7884 159.184 45.4233 158.502 45.4233C157.643 45.4233 157.102 46.0349 157.102 46.9761C157.102 47.9412 157.643 48.5764 158.502 48.5764C159.161 48.5764 159.62 48.2119 159.702 47.5528H161.584C161.549 49.0823 160.208 50.1413 158.502 50.1413Z" fill="white"/>
<path d="M166.324 47.5295H165.019V50H163.16V42H165.019V45.9647H166.289L167.383 44H169.619L167.889 46.6707L169.807 50H167.559L166.324 47.5295Z" fill="white"/>
<path d="M174.005 50.1413C172.099 50.1413 170.711 48.8117 170.711 46.9763C170.711 45.1528 172.099 43.8587 173.993 43.8587C175.687 43.8587 177.04 44.8823 177.087 46.3531H175.193C175.099 45.7884 174.687 45.4233 174.005 45.4233C173.146 45.4233 172.605 46.0349 172.605 46.9761C172.605 47.9412 173.146 48.5764 174.005 48.5764C174.664 48.5764 175.123 48.2119 175.205 47.5528H177.087C177.052 49.0823 175.711 50.1413 174.005 50.1413Z" fill="white"/>
<path d="M184.651 46.2473V50H182.78V46.7411C182.78 45.9647 182.368 45.5293 181.78 45.5293C181.063 45.5293 180.521 45.9881 180.521 46.9883V50H178.651V42H180.521V44.8943C180.898 44.1768 181.557 43.8588 182.463 43.8588C183.851 43.8587 184.651 44.8239 184.651 46.2473Z" fill="white"/>
<path d="M186.049 46.9763C186.049 45.1059 187.285 43.8472 188.897 43.8472C189.579 43.8472 190.238 44.0709 190.602 44.6705H190.614V44H192.485V50H190.614V49.2351H190.591C190.249 49.8472 189.638 50.1413 188.861 50.1413C187.309 50.1413 186.049 48.8587 186.049 46.9763ZM187.944 46.9883C187.944 47.9529 188.485 48.5765 189.297 48.5765C190.12 48.5765 190.673 47.9529 190.673 47.0117V46.9293C190.661 46.0236 190.12 45.4235 189.297 45.4235C188.473 45.4235 187.944 46.0471 187.944 46.9883Z" fill="white"/>
<path d="M207.894 46.2473V50H206.023V46.7411C206.023 45.9647 205.612 45.5293 205.023 45.5293C204.306 45.5293 203.765 45.9881 203.765 46.9883V50H201.894V44H203.765V44.8943C204.141 44.1768 204.8 43.8588 205.706 43.8588C207.106 43.8587 207.894 44.8239 207.894 46.2473Z" fill="white"/>
<path d="M200.472 48.4352V50H194.001V48.4352H196.307V45.5648H194.366V44H198.178V48.4352H200.472Z" fill="white"/>
<path d="M198.178 41H196.307V43H198.178V41Z" fill="white"/>
</g>
</g>
<defs>
<clipPath id="clip0_2_3">
<rect width="340" height="120" fill="white"/>
</clipPath>
<clipPath id="clip1_2_3">
<rect width="80" height="40" fill="white" transform="translate(130 40)"/>
</clipPath>
</defs>
</svg>
