<svg width="130" height="38" viewBox="0 0 130 38" fill="none" xmlns="http://www.w3.org/2000/svg">
<rect width="130" height="38" rx="8" fill="white"/>
<path d="M18.304 25H16.176L20.4 13.304H22.496L26.72 25H24.56L23.616 22.296H19.248L18.304 25ZM21.184 16.792L19.856 20.568H23.024L21.68 16.792C21.584 16.488 21.472 16.136 21.44 15.896C21.392 16.12 21.296 16.472 21.184 16.792ZM27.2586 28.664V17.096H29.0666L29.1946 18.296C29.6746 17.384 30.7146 16.856 31.9146 16.856C34.1386 16.856 35.6106 18.472 35.6106 20.952C35.6106 23.416 34.2666 25.208 31.9146 25.208C30.7306 25.208 29.7066 24.744 29.2106 23.944V28.664H27.2586ZM29.2266 21.048C29.2266 22.472 30.1066 23.448 31.4506 23.448C32.8266 23.448 33.6426 22.456 33.6426 21.048C33.6426 19.64 32.8266 18.632 31.4506 18.632C30.1066 18.632 29.2266 19.624 29.2266 21.048ZM36.5249 28.664V17.096H38.3329L38.4609 18.296C38.9409 17.384 39.9809 16.856 41.1809 16.856C43.4049 16.856 44.8769 18.472 44.8769 20.952C44.8769 23.416 43.5329 25.208 41.1809 25.208C39.9969 25.208 38.9729 24.744 38.4769 23.944V28.664H36.5249ZM38.4929 21.048C38.4929 22.472 39.3729 23.448 40.7169 23.448C42.0929 23.448 42.9089 22.456 42.9089 21.048C42.9089 19.64 42.0929 18.632 40.7169 18.632C39.3729 18.632 38.4929 19.624 38.4929 21.048ZM47.7591 25H45.8231V13.096H47.7591V25ZM48.4787 28.664V27.032H49.6467C50.4147 27.032 50.8947 26.856 51.2307 25.928L51.4547 25.336L48.2707 17.096H50.3347L52.3667 22.856L54.5107 17.096H56.5267L52.6547 26.76C52.0627 28.232 51.2307 28.84 49.9347 28.84C49.3907 28.84 48.9107 28.776 48.4787 28.664ZM62.62 25H60.668V17.096H62.476L62.636 18.12C63.132 17.32 64.092 16.856 65.164 16.856C67.148 16.856 68.172 18.088 68.172 20.136V25H66.22V20.6C66.22 19.272 65.564 18.632 64.556 18.632C63.356 18.632 62.62 19.464 62.62 20.744V25ZM68.9859 21.032C68.9859 18.568 70.7619 16.872 73.2099 16.872C75.6579 16.872 77.4339 18.568 77.4339 21.032C77.4339 23.496 75.6579 25.192 73.2099 25.192C70.7619 25.192 68.9859 23.496 68.9859 21.032ZM70.9379 21.032C70.9379 22.472 71.8659 23.448 73.2099 23.448C74.5539 23.448 75.4819 22.472 75.4819 21.032C75.4819 19.592 74.5539 18.616 73.2099 18.616C71.8659 18.616 70.9379 19.592 70.9379 21.032ZM79.6945 25L77.1345 17.096H79.1665L80.2065 20.488C80.3825 21.112 80.5425 21.8 80.6865 22.536C80.8305 21.768 80.9745 21.272 81.2305 20.488L82.3185 17.096H84.3025L85.3585 20.488C85.4545 20.808 85.7745 21.992 85.8705 22.52C85.9985 21.928 86.2545 20.984 86.3985 20.488L87.4545 17.096H89.5185L86.7825 25H84.9585L83.8705 21.576C83.5505 20.536 83.3745 19.784 83.3105 19.384C83.2305 19.752 83.0865 20.312 82.6865 21.608L81.5985 25H79.6945Z" fill="black"/>
<path fill-rule="evenodd" clip-rule="evenodd" d="M106.646 13.6464C106.842 13.4512 107.158 13.4512 107.354 13.6464L112.354 18.6464C112.447 18.7402 112.5 18.8674 112.5 19C112.5 19.1326 112.447 19.2598 112.354 19.3536L107.354 24.3536C107.158 24.5488 106.842 24.5488 106.646 24.3536C106.451 24.1583 106.451 23.8417 106.646 23.6464L110.793 19.5H100C99.7239 19.5 99.5 19.2761 99.5 19C99.5 18.7239 99.7239 18.5 100 18.5H110.793L106.646 14.3536C106.451 14.1583 106.451 13.8417 106.646 13.6464Z" fill="black" stroke="black" stroke-linecap="round" stroke-linejoin="round"/>
</svg>
