<svg width="100" height="32" viewBox="0 0 100 32" fill="none" xmlns="http://www.w3.org/2000/svg">
<path fill-rule="evenodd" clip-rule="evenodd" d="M10 7.875C5.51269 7.875 1.875 11.5127 1.875 16C1.875 20.4873 5.51269 24.125 10 24.125C14.4873 24.125 18.125 20.4873 18.125 16C18.125 11.5127 14.4873 7.875 10 7.875ZM10.625 11C10.625 10.6548 10.3452 10.375 10 10.375C9.65482 10.375 9.375 10.6548 9.375 11V16C9.375 16.3452 9.65482 16.625 10 16.625H13.75C14.0952 16.625 14.375 16.3452 14.375 16C14.375 15.6548 14.0952 15.375 13.75 15.375H10.625V11Z" fill="#F5A60B"/>
<path d="M34.46 24H29.68V9.54H34.38C38.7 9.54 41.62 12.46 41.62 16.78C41.62 21.08 38.74 24 34.46 24ZM34.24 11.34H31.64V22.18H34.32C37.54 22.18 39.58 20.1 39.58 16.78C39.58 13.42 37.54 11.34 34.24 11.34ZM49.7536 14.22H51.6136V24H49.9336L49.7336 22.52C49.1736 23.54 47.8736 24.24 46.4336 24.24C44.1536 24.24 42.8736 22.7 42.8736 20.3V14.22H44.7536V19.68C44.7536 21.78 45.6536 22.58 47.0936 22.58C48.8136 22.58 49.7536 21.48 49.7536 19.38V14.22ZM59.1413 14.14V15.86H58.3013C56.5212 15.86 55.4212 16.94 55.4212 18.82V24H53.5412V14.24H55.3012L55.4212 15.72C55.8212 14.7 56.8012 14.02 58.1412 14.02C58.4813 14.02 58.7613 14.06 59.1413 14.14ZM62.5739 24.24C60.4739 24.24 59.2339 23.06 59.2339 21.28C59.2339 19.48 60.5739 18.36 62.8739 18.18L65.9539 17.94V17.66C65.9539 16.02 64.9739 15.44 63.6539 15.44C62.0739 15.44 61.1739 16.14 61.1739 17.32H59.5339C59.5339 15.28 61.2139 13.94 63.7339 13.94C66.1539 13.94 67.7939 15.22 67.7939 17.86V24H66.1939L65.9939 22.42C65.4939 23.54 64.1539 24.24 62.5739 24.24ZM63.1139 22.78C64.8939 22.78 65.9739 21.62 65.9739 19.78V19.26L63.4739 19.46C61.8139 19.62 61.1339 20.26 61.1339 21.22C61.1339 22.26 61.8939 22.78 63.1139 22.78ZM72.2012 24H70.3212V15.8H68.4012V14.22H70.3212V11.16H72.2012V14.22H74.1212V15.8H72.2012V24ZM75.9284 11.9C75.2484 11.9 74.6884 11.34 74.6884 10.66C74.6884 9.96 75.2484 9.42 75.9284 9.42C76.6084 9.42 77.1684 9.96 77.1684 10.66C77.1684 11.34 76.6084 11.9 75.9284 11.9ZM75.0084 24V14.22H76.8884V24H75.0084ZM78.1778 19.1C78.1778 16.08 80.3378 13.96 83.2778 13.96C86.1978 13.96 88.3578 16.08 88.3578 19.1C88.3578 22.12 86.1978 24.24 83.2778 24.24C80.3378 24.24 78.1778 22.12 78.1778 19.1ZM80.0778 19.1C80.0778 21.14 81.3778 22.56 83.2778 22.56C85.1578 22.56 86.4778 21.14 86.4778 19.1C86.4778 17.06 85.1578 15.64 83.2778 15.64C81.3778 15.64 80.0778 17.06 80.0778 19.1ZM91.5189 24H89.6389V14.22H91.3389L91.5389 15.72C92.1589 14.6 93.3989 13.94 94.7789 13.94C97.3589 13.94 98.5389 15.52 98.5389 18.02V24H96.6589V18.44C96.6589 16.46 95.7389 15.66 94.2989 15.66C92.5389 15.66 91.5189 16.92 91.5189 18.82V24Z" fill="#F5A60B"/>
</svg>
