<svg width="98" height="32" viewBox="0 0 98 32" fill="none" xmlns="http://www.w3.org/2000/svg">
<path d="M10.0362 23.4255L10.0307 23.4226L10.0119 23.4124C9.99578 23.4037 9.97279 23.3911 9.94334 23.3746C9.88446 23.3418 9.79973 23.2937 9.69283 23.2308C9.47911 23.105 9.17634 22.9199 8.81415 22.6791C8.09098 22.1984 7.12471 21.4917 6.15586 20.5886C4.23854 18.8013 2.20703 16.1459 2.20703 12.875C2.20703 10.435 4.26003 8.5 6.73828 8.5C8.19568 8.5 9.50063 9.16591 10.332 10.2097C11.1634 9.16591 12.4684 8.5 13.9258 8.5C16.404 8.5 18.457 10.435 18.457 12.875C18.457 16.1459 16.4255 18.8013 14.5082 20.5886C13.5394 21.4917 12.5731 22.1984 11.8499 22.6791C11.4877 22.9199 11.1849 23.105 10.9712 23.2308C10.8643 23.2937 10.7796 23.3418 10.7207 23.3746C10.6913 23.3911 10.6683 23.4037 10.6522 23.4124L10.6333 23.4226L10.6279 23.4255L10.6256 23.4268C10.4423 23.5241 10.2218 23.5241 10.0385 23.4268L10.0362 23.4255Z" fill="#F5A60B"/>
<path d="M37.652 17.86H31.972V24H30.012V9.54H38.732V11.34H31.972V16.08H37.652V17.86ZM46.1403 14.22H48.0003V24H46.3203L46.1203 22.52C45.5603 23.54 44.2603 24.24 42.8203 24.24C40.5403 24.24 39.2603 22.7 39.2603 20.3V14.22H41.1403V19.68C41.1403 21.78 42.0403 22.58 43.4803 22.58C45.2003 22.58 46.1403 21.48 46.1403 19.38V14.22ZM51.808 24H49.928V14.22H51.628L51.828 15.72C52.448 14.6 53.688 13.94 55.068 13.94C57.648 13.94 58.828 15.52 58.828 18.02V24H56.948V18.44C56.948 16.46 56.028 15.66 54.588 15.66C52.828 15.66 51.808 16.92 51.808 18.82V24ZM64.5519 24.24C61.7119 24.24 59.9919 22.12 59.9919 19.14C59.9919 16.14 61.7319 13.94 64.6319 13.94C66.1319 13.94 67.3919 14.6 68.0519 15.8V9.28H69.9119V24H68.2319L68.0719 22.22C67.4319 23.56 66.1119 24.24 64.5519 24.24ZM64.9319 22.54C66.8519 22.54 68.0319 21.12 68.0319 19.08C68.0319 17.08 66.8519 15.64 64.9319 15.64C63.0119 15.64 61.8919 17.08 61.8919 19.08C61.8919 21.1 63.0119 22.54 64.9319 22.54ZM72.7441 11.9C72.0641 11.9 71.5041 11.34 71.5041 10.66C71.5041 9.96 72.0641 9.42 72.7441 9.42C73.4241 9.42 73.9841 9.96 73.9841 10.66C73.9841 11.34 73.4241 11.9 72.7441 11.9ZM71.8241 24V14.22H73.7041V24H71.8241ZM77.5134 24H75.6334V14.22H77.3334L77.5334 15.72C78.1534 14.6 79.3934 13.94 80.7734 13.94C83.3534 13.94 84.5334 15.52 84.5334 18.02V24H82.6534V18.44C82.6534 16.46 81.7334 15.66 80.2934 15.66C78.5334 15.66 77.5134 16.92 77.5134 18.82V24ZM85.7173 18.86C85.7173 16.1 87.4973 13.94 90.3373 13.94C91.9173 13.94 93.1373 14.66 93.7573 15.88L93.8973 14.22H95.5773V23.6C95.5773 26.68 93.6773 28.64 90.6773 28.64C88.0173 28.64 86.1973 27.14 85.8373 24.66H87.7173C87.9573 26.1 89.0373 26.94 90.6773 26.94C92.5173 26.94 93.7173 25.74 93.7173 23.88V21.92C93.0773 23.06 91.7973 23.74 90.2573 23.74C87.4773 23.74 85.7173 21.6 85.7173 18.86ZM87.5973 18.82C87.5973 20.66 88.7373 22.1 90.5773 22.1C92.4773 22.1 93.6373 20.74 93.6373 18.82C93.6373 16.94 92.5173 15.58 90.5973 15.58C88.7173 15.58 87.5973 17.02 87.5973 18.82Z" fill="#F5A60B"/>
</svg>
