<svg width="340" height="120" viewBox="0 0 340 120" fill="none" xmlns="http://www.w3.org/2000/svg">
<g clip-path="url(#clip0_7_2)">
<path d="M332 0H8C3.58172 0 0 3.58172 0 8V112C0 116.418 3.58172 120 8 120H332C336.418 120 340 116.418 340 112V8C340 3.58172 336.418 0 332 0Z" fill="black"/>
<path d="M332 1H8C4.13401 1 1 4.13401 1 8V112C1 115.866 4.13401 119 8 119H332C335.866 119 339 115.866 339 112V8C339 4.13401 335.866 1 332 1Z" stroke="white" stroke-opacity="0.12" stroke-width="2"/>
<path d="M332 1H8C4.13401 1 1 4.13401 1 8V112C1 115.866 4.13401 119 8 119H332C335.866 119 339 115.866 339 112V8C339 4.13401 335.866 1 332 1Z" stroke="white" stroke-opacity="0.12" stroke-width="2"/>
<g clip-path="url(#clip1_7_2)">
<path d="M143.158 53.7181C142.362 52.8565 141.366 52.1624 140.199 51.6501C139.031 51.1402 137.668 50.8829 136.149 50.8829C134.631 50.8829 133.244 51.1402 132.076 51.6501C130.908 52.1601 129.913 52.8565 129.117 53.7158C128.323 54.5751 127.718 55.55 127.32 56.61C126.923 57.67 126.722 58.763 126.722 59.8631V60.3801C126.722 61.3692 126.915 62.4032 127.297 63.4537C127.678 64.5042 128.267 65.4934 129.044 66.3928C129.823 67.2946 130.814 68.0312 131.991 68.5788C133.166 69.1289 134.567 69.4075 136.152 69.4075C137.736 69.4075 139.111 69.1289 140.288 68.5788C141.463 68.0288 142.454 67.2946 143.236 66.3928C144.013 65.4934 144.604 64.5066 144.992 63.4537C145.381 62.4032 145.578 61.3692 145.578 60.3801V59.8631C145.578 58.763 145.374 57.6676 144.969 56.61C144.564 55.55 143.956 54.5774 143.161 53.7158L143.158 53.7181ZM140.811 60.1464C140.811 60.8286 140.705 61.4707 140.493 62.0515C140.281 62.6322 139.97 63.1468 139.568 63.5812C139.165 64.0156 138.671 64.3579 138.101 64.5987C137.531 64.8395 136.874 64.9622 136.152 64.9622C135.429 64.9622 134.77 64.8395 134.2 64.5987C133.632 64.3602 133.138 64.0179 132.733 63.5812C132.328 63.1445 132.017 62.6298 131.808 62.0515C131.596 61.4707 131.49 60.831 131.49 60.1464C131.49 59.4145 131.596 58.7465 131.808 58.1563C132.017 57.5732 132.326 57.0633 132.731 56.6431C133.136 56.2229 133.628 55.8971 134.195 55.6728C134.767 55.4462 135.424 55.3329 136.149 55.3329C136.874 55.3329 137.508 55.4485 138.08 55.6728C138.647 55.8971 139.142 56.2252 139.544 56.6431C139.947 57.0633 140.262 57.5732 140.481 58.1586C140.7 58.7488 140.811 59.4169 140.811 60.1464Z" fill="white"/>
<path d="M157.958 60.4651H157.729L154.207 51.4023H147.853V68.94H152.197V56.8909L155.613 65.4792H159.818L163.257 56.7871V68.94H167.928V51.4023H161.456L157.958 60.4651Z" fill="white"/>
<path d="M185.162 58.0052V57.6275C185.162 56.3126 184.861 55.1653 184.268 54.2139C183.672 53.2625 182.813 52.5236 181.715 52.0161C180.625 51.5132 179.316 51.2583 177.826 51.2583H171.053V68.94H175.771V64.372H177.826C179.316 64.372 180.625 64.1124 181.715 63.6025C182.813 63.0878 183.672 62.3466 184.268 61.3952C184.861 60.4438 185.162 59.3036 185.162 58.0052ZM180.091 56.4896C180.293 56.8532 180.397 57.2993 180.397 57.8163C180.397 58.3333 180.293 58.7559 180.091 59.1195C179.888 59.4806 179.604 59.7639 179.246 59.9575C178.881 60.1534 178.443 60.255 177.944 60.255H175.771V55.3801H177.944C178.443 55.3801 178.883 55.4769 179.248 55.6657C179.606 55.8522 179.888 56.1284 180.091 56.4896Z" fill="white"/>
<path d="M189.647 51.4023L184.042 68.94H188.781L189.991 64.9622H196.576L197.819 68.94H202.7L196.899 51.4023H189.647ZM191.185 61.0316L192.932 55.2856H193.548L195.345 61.0316H191.185Z" fill="white"/>
<path d="M214.406 58.8928C213.407 58.4396 212.242 58.1539 210.945 58.043L209.841 57.9485C209.153 57.8919 208.67 57.7195 208.404 57.4386C208.138 57.1553 208.007 56.8272 208.007 56.4306C208.007 56.1308 208.079 55.8687 208.228 55.628C208.374 55.3919 208.593 55.2054 208.88 55.0708C209.177 54.9339 209.551 54.8631 209.991 54.8631C210.462 54.8631 210.865 54.9481 211.192 55.1133C211.512 55.2786 211.762 55.5052 211.931 55.7885C212.101 56.0741 212.188 56.3928 212.188 56.7351V56.9122H216.765V56.7351C216.765 55.5784 216.496 54.5444 215.964 53.6662C215.432 52.7856 214.653 52.094 213.648 51.61C212.649 51.1308 211.418 50.8853 209.991 50.8853C208.673 50.8853 207.512 51.1048 206.54 51.5368C205.558 51.9736 204.786 52.6133 204.244 53.4372C203.703 54.2611 203.43 55.2691 203.43 56.4282C203.43 58.0595 203.978 59.3862 205.061 60.373C206.135 61.3527 207.59 61.9311 209.391 62.0892L210.495 62.1837C211.463 62.2616 212.155 62.4292 212.55 62.6865C212.922 62.9297 213.104 63.2625 213.104 63.704C213.104 64.0581 213.005 64.3532 212.802 64.6058C212.598 64.8607 212.291 65.0637 211.894 65.2101C211.484 65.3588 210.978 65.4344 210.391 65.4344C209.713 65.4344 209.151 65.3447 208.72 65.1652C208.301 64.9906 207.983 64.7474 207.778 64.4405C207.569 64.1313 207.467 63.796 207.467 63.4207V63.2436H202.891V63.4207C202.891 64.5798 203.18 65.6209 203.752 66.5179C204.324 67.4127 205.179 68.128 206.293 68.6426C207.399 69.1525 208.779 69.4122 210.391 69.4122C211.896 69.4122 213.203 69.1785 214.276 68.7158C215.359 68.2507 216.207 67.5779 216.793 66.7233C217.382 65.864 217.681 64.8489 217.681 63.704C217.681 62.559 217.384 61.5722 216.802 60.7743C216.223 59.9835 215.418 59.3508 214.408 58.8928H214.406Z" fill="white"/>
<path d="M232.273 60.772C231.694 59.9811 230.889 59.3484 229.878 58.8905C228.88 58.4372 227.715 58.1516 226.418 58.0406L225.313 57.9462C224.626 57.8895 224.143 57.7172 223.877 57.4363C223.611 57.153 223.479 56.8248 223.479 56.4282C223.479 56.1284 223.552 55.8664 223.701 55.6256C223.847 55.3895 224.066 55.203 224.353 55.0685C224.649 54.9315 225.024 54.8607 225.464 54.8607C225.935 54.8607 226.338 54.9457 226.665 55.111C226.985 55.2762 227.235 55.5028 227.404 55.7861C227.574 56.0718 227.661 56.3905 227.661 56.7328V56.9098H232.238V56.7328C232.238 55.576 231.969 54.542 231.437 53.6638C230.905 52.7833 230.126 52.0916 229.12 51.6076C228.122 51.1284 226.891 50.8829 225.464 50.8829C224.146 50.8829 222.985 51.1025 222.013 51.5345C221.031 51.9712 220.259 52.611 219.717 53.4348C219.176 54.2587 218.902 55.2668 218.902 56.4259C218.902 58.0571 219.451 59.3839 220.534 60.3706C221.608 61.3503 223.063 61.9287 224.864 62.0869L225.968 62.1813C226.936 62.2592 227.628 62.4268 228.023 62.6841C228.395 62.9273 228.577 63.2602 228.577 63.7016C228.577 64.0557 228.478 64.3508 228.275 64.6034C228.07 64.8584 227.764 65.0614 227.366 65.2077C226.957 65.3565 226.451 65.432 225.864 65.432C225.186 65.432 224.624 65.3423 224.193 65.1629C223.774 64.9882 223.456 64.745 223.251 64.4381C223.041 64.1289 222.94 63.7937 222.94 63.4183V63.2413H218.363V63.4183C218.363 64.5774 218.653 65.6185 219.225 66.5156C219.797 67.4103 220.652 68.1256 221.765 68.6402C222.872 69.1501 224.252 69.4098 225.864 69.4098C227.369 69.4098 228.675 69.1761 229.749 68.7134C230.832 68.2483 231.68 67.5755 232.266 66.721C232.854 65.8617 233.153 64.8466 233.153 63.7016C233.153 62.5567 232.857 61.5699 232.275 60.772H232.273Z" fill="white"/>
<path d="M124.966 51.4046H119.148V57.238H124.966V51.4046Z" fill="#F16122"/>
<path d="M119.148 57.2663H113.331V51.4046H107.513V68.933H113.331V63.0996H119.148V68.933H124.966V63.0996L119.148 57.2663Z" fill="white"/>
</g>
</g>
<defs>
<clipPath id="clip0_7_2">
<rect width="340" height="120" fill="white"/>
</clipPath>
<clipPath id="clip1_7_2">
<rect width="126.667" height="20" fill="white" transform="translate(107 50)"/>
</clipPath>
</defs>
</svg>
