<svg width="75" height="32" viewBox="0 0 75 32" fill="none" xmlns="http://www.w3.org/2000/svg">
<path fill-rule="evenodd" clip-rule="evenodd" d="M7.7625 12.3197C10.163 9.2358 13.9121 7.25018 18.125 7.25C18.2908 7.24999 18.4497 7.31584 18.5669 7.43305C18.6842 7.55026 18.75 7.70924 18.75 7.875C18.75 12.088 16.7644 15.8375 13.6804 18.2382C13.7262 18.5274 13.75 18.8236 13.75 19.125C13.75 22.2316 11.2316 24.75 8.125 24.75C7.77982 24.75 7.5 24.4702 7.5 24.125V20.682C7.49229 20.6765 7.48469 20.6707 7.4772 20.6648C6.68386 20.0357 5.96499 19.3169 5.33593 18.5235C5.32981 18.5158 5.32388 18.508 5.31816 18.5H1.875C1.52982 18.5 1.25 18.2202 1.25 17.875C1.25 14.7684 3.7684 12.25 6.875 12.25C7.17665 12.25 7.4731 12.2738 7.7625 12.3197ZM12.5 11.625C11.4645 11.625 10.625 12.4645 10.625 13.5C10.625 14.5355 11.4645 15.375 12.5 15.375C13.5355 15.375 14.375 14.5355 14.375 13.5C14.375 12.4645 13.5355 11.625 12.5 11.625Z" fill="#F5A60B"/>
<path d="M4.38364 20.3682C4.66031 20.1618 4.71728 19.7702 4.51089 19.4935C4.30449 19.2168 3.91288 19.1599 3.63621 19.3663C2.56841 20.1628 1.875 21.438 1.875 22.8749C1.875 23.1046 1.89274 23.3305 1.92705 23.5512C1.96882 23.8201 2.17979 24.0311 2.44869 24.0729C2.66947 24.1072 2.89537 24.1249 3.125 24.1249C4.56195 24.1249 5.8371 23.4315 6.63367 22.3637C6.84006 22.087 6.78309 21.6954 6.50642 21.489C6.22974 21.2826 5.83814 21.3396 5.63174 21.6163C5.06094 22.3814 4.15068 22.8749 3.125 22.8749C3.125 21.8493 3.61848 20.939 4.38364 20.3682Z" fill="#F5A60B"/>
<path d="M35.3 18.84H31.64V24H29.68V9.54H35.3C38.14 9.54 39.96 11.4 39.96 14.18C39.96 16.88 38.12 18.84 35.3 18.84ZM34.96 11.3H31.64V17.08H34.88C36.82 17.08 37.9 15.94 37.9 14.16C37.9 12.34 36.8 11.3 34.96 11.3ZM44.8308 24.24C41.9508 24.24 39.9708 22.16 39.9708 19.12C39.9708 16.06 41.9108 13.94 44.7508 13.94C47.5308 13.94 49.3508 15.86 49.3508 18.76V19.46L41.7908 19.48C41.9308 21.54 43.0108 22.68 44.8708 22.68C46.3308 22.68 47.2908 22.08 47.6108 20.96H49.3708C48.8908 23.06 47.2508 24.24 44.8308 24.24ZM44.7508 15.52C43.1108 15.52 42.0708 16.5 41.8308 18.22H47.4708C47.4708 16.6 46.4108 15.52 44.7508 15.52ZM56.2506 14.14V15.86H55.4106C53.6306 15.86 52.5306 16.94 52.5306 18.82V24H50.6506V14.24H52.4106L52.5306 15.72C52.9306 14.7 53.9106 14.02 55.2506 14.02C55.5906 14.02 55.8706 14.06 56.2506 14.14ZM59.1339 24H57.2539V9.28H59.1339V18.82L63.4739 14.22H65.8339L62.0939 18.12L65.8139 24H63.6539L60.7939 19.48L59.1339 21.22V24ZM65.8287 21.16H67.6287C67.6287 22.16 68.3887 22.76 69.6287 22.76C70.9487 22.76 71.7087 22.22 71.7087 21.32C71.7087 20.66 71.3887 20.26 70.3687 20L68.6487 19.6C66.9087 19.18 66.0887 18.32 66.0887 16.88C66.0887 15.08 67.6087 13.94 69.7687 13.94C71.9087 13.94 73.3087 15.14 73.3487 17H71.5487C71.5087 16.02 70.8487 15.4 69.7087 15.4C68.5287 15.4 67.8687 15.92 67.8687 16.82C67.8687 17.48 68.3487 17.92 69.3087 18.16L71.0287 18.58C72.6887 18.98 73.5087 19.74 73.5087 21.2C73.5087 23.06 71.9087 24.24 69.5887 24.24C67.2887 24.24 65.8287 23.02 65.8287 21.16Z" fill="#F5A60B"/>
</svg>
