<svg width="70" height="32" viewBox="0 0 70 32" fill="none" xmlns="http://www.w3.org/2000/svg">
<path fill-rule="evenodd" clip-rule="evenodd" d="M5.04297 7.875C3.66226 7.875 2.54297 8.99429 2.54297 10.375V13.9733C2.54297 14.6364 2.80636 15.2723 3.2752 15.7411L11.2595 23.7254C12.0256 24.4915 13.2504 24.7137 14.2158 24.0817C16.0215 22.8994 17.5674 21.3535 18.7496 19.5478C19.3816 18.5824 19.1594 17.3576 18.3933 16.5915L10.4091 8.60723C9.94024 8.13839 9.30436 7.875 8.64132 7.875H5.04297ZM5.98047 12.25C6.49824 12.25 6.91797 11.8303 6.91797 11.3125C6.91797 10.7947 6.49824 10.375 5.98047 10.375C5.4627 10.375 5.04297 10.7947 5.04297 11.3125C5.04297 11.8303 5.4627 12.25 5.98047 12.25Z" fill="#F5A60B"/>
<path d="M28.948 11.34V9.54H39.608V11.34H35.268V24H33.308V11.34H28.948ZM38.7372 28.38V26.84H39.9972C40.8972 26.84 41.6172 26.7 42.0772 25.46L42.4172 24.52L38.4772 14.22H40.4572L43.2972 22.1L46.1972 14.22H48.1372L43.5172 26.2C42.8572 27.88 41.8772 28.58 40.3772 28.58C39.7572 28.58 39.2372 28.5 38.7372 28.38ZM48.8381 28.38V14.22H50.5381L50.6781 15.98C51.3381 14.64 52.6581 13.94 54.2181 13.94C57.0181 13.94 58.7581 16.04 58.7581 19.04C58.7581 22.02 57.1181 24.26 54.2181 24.26C52.6581 24.26 51.3581 23.6 50.7181 22.4V28.38H48.8381ZM50.7381 19.12C50.7381 21.12 51.8981 22.56 53.8181 22.56C55.7381 22.56 56.8781 21.12 56.8781 19.12C56.8781 17.1 55.7381 15.66 53.8181 15.66C51.8981 15.66 50.7381 17.08 50.7381 19.12ZM64.2503 24.24C61.3703 24.24 59.3903 22.16 59.3903 19.12C59.3903 16.06 61.3303 13.94 64.1703 13.94C66.9503 13.94 68.7703 15.86 68.7703 18.76V19.46L61.2103 19.48C61.3503 21.54 62.4303 22.68 64.2903 22.68C65.7503 22.68 66.7103 22.08 67.0303 20.96H68.7903C68.3103 23.06 66.6703 24.24 64.2503 24.24ZM64.1703 15.52C62.5303 15.52 61.4903 16.5 61.2503 18.22H66.8903C66.8903 16.6 65.8303 15.52 64.1703 15.52Z" fill="#F5A60B"/>
</svg>
