<svg width="592" height="164" viewBox="0 0 592 164" fill="none" xmlns="http://www.w3.org/2000/svg">
<g clip-path="url(#clip0_36_39)">
<mask id="mask0_36_39" style="mask-type:luminance" maskUnits="userSpaceOnUse" x="0" y="25" width="592" height="114">
<path d="M592 25H0V139H592V25Z" fill="white"/>
</mask>
<g mask="url(#mask0_36_39)">
<path d="M108.176 119.146V45.1914H139.324C144.399 45.1914 148.75 46.0518 152.376 47.7724C156.002 49.4931 158.77 51.9748 160.682 55.2175C162.594 58.3941 163.55 62.2654 163.55 66.8318C163.55 70.0748 162.66 73.1852 160.88 76.1631C159.1 79.0751 156.166 81.5236 152.079 83.509V75.9647C155.969 77.4869 158.968 79.3067 161.078 81.4246C163.187 83.5421 164.637 85.8584 165.428 88.3732C166.22 90.8217 166.615 93.4028 166.615 96.1163C166.615 103.396 164.209 109.054 159.397 113.091C154.584 117.128 147.893 119.146 139.324 119.146H108.176ZM123.503 105.745H141.103C144.202 105.745 146.674 104.852 148.52 103.065C150.365 101.278 151.288 98.962 151.288 96.1163C151.288 93.2043 150.365 90.8549 148.52 89.0683C146.674 87.2813 144.202 86.3878 141.103 86.3878H123.503V105.745ZM123.503 72.9864H140.411C142.784 72.9864 144.663 72.3249 146.047 71.0014C147.498 69.6113 148.223 67.7916 148.223 65.5415C148.223 63.2914 147.498 61.5045 146.047 60.1809C144.663 58.7912 142.784 58.0963 140.411 58.0963H123.503V72.9864Z" fill="black"/>
<path d="M192.07 120.337C188.18 120.337 184.819 119.708 181.984 118.451C179.149 117.194 176.974 115.407 175.458 113.091C173.941 110.708 173.184 107.895 173.184 104.652C173.184 101.608 173.876 98.9282 175.26 96.6119C176.644 94.2293 178.754 92.2439 181.589 90.6558C184.489 89.0676 188.082 87.9426 192.367 87.2807L208.88 84.6002V95.52L195.037 98.0016C192.927 98.3989 191.312 99.0935 190.191 100.086C189.071 101.013 188.51 102.369 188.51 104.156C188.51 105.811 189.137 107.101 190.389 108.028C191.642 108.954 193.191 109.418 195.037 109.418C197.476 109.418 199.618 108.888 201.464 107.829C203.31 106.77 204.727 105.348 205.716 103.561C206.77 101.708 207.298 99.6892 207.298 97.5054V83.4093C207.298 81.3576 206.474 79.637 204.826 78.2472C203.244 76.8575 201.068 76.1624 198.3 76.1624C195.663 76.1624 193.323 76.8906 191.279 78.3466C189.301 79.8023 187.851 81.7217 186.928 84.104L175.062 78.4457C176.117 75.4015 177.798 72.7873 180.105 70.6035C182.412 68.4197 185.181 66.7322 188.411 65.5409C191.642 64.3496 195.168 63.7539 198.992 63.7539C203.54 63.7539 207.562 64.5811 211.055 66.2355C214.549 67.8903 217.252 70.2063 219.164 73.1846C221.141 76.0962 222.13 79.5044 222.13 83.4093V119.146H208.287V110.41L211.649 109.814C210.067 112.197 208.32 114.182 206.408 115.771C204.496 117.293 202.354 118.418 199.981 119.146C197.608 119.94 194.971 120.337 192.07 120.337Z" fill="black"/>
<path d="M259.508 120.337C254.102 120.337 249.224 119.113 244.873 116.664C240.588 114.149 237.16 110.741 234.589 106.439C232.085 102.138 230.832 97.3066 230.832 91.9461C230.832 86.5856 232.085 81.7876 234.589 77.5522C237.094 73.2508 240.522 69.8757 244.873 67.4268C249.224 64.9783 254.102 63.7539 259.508 63.7539C263.529 63.7539 267.254 64.449 270.681 65.8387C274.109 67.2284 277.043 69.1807 279.482 71.6954C281.921 74.1439 283.668 77.0559 284.723 80.431L271.868 85.99C270.945 83.2768 269.363 81.1261 267.122 79.5376C264.946 77.9494 262.408 77.1553 259.508 77.1553C256.937 77.1553 254.63 77.7841 252.586 79.0413C250.608 80.2989 249.026 82.0523 247.84 84.3024C246.719 86.5525 246.159 89.1335 246.159 92.0455C246.159 94.9575 246.719 97.5385 247.84 99.7886C249.026 102.039 250.608 103.792 252.586 105.05C254.63 106.307 256.937 106.936 259.508 106.936C262.474 106.936 265.045 106.142 267.221 104.553C269.396 102.965 270.945 100.814 271.868 98.101L284.723 103.759C283.734 106.936 282.02 109.781 279.581 112.296C277.142 114.811 274.208 116.796 270.78 118.252C267.352 119.642 263.595 120.337 259.508 120.337Z" fill="black"/>
<path d="M293.457 119.146V44H308.289V92.1454L302.752 90.3584L326.583 64.9457H344.876L325.297 86.7849L344.777 119.146H327.967L311.651 91.6488L320.254 89.4649L303.741 107.532L308.289 98.8956V119.146H293.457Z" fill="black"/>
<path d="M351.398 139V64.9452H365.24V75.269L363.956 72.2911C365.736 69.5779 368.143 67.4931 371.174 66.0371C374.274 64.5149 377.801 63.7539 381.756 63.7539C386.898 63.7539 391.545 65.0115 395.696 67.5262C399.851 70.041 403.146 73.4492 405.585 77.751C408.025 81.9864 409.244 86.7513 409.244 92.0455C409.244 97.2738 408.025 102.039 405.585 106.34C403.214 110.642 399.951 114.05 395.796 116.565C391.645 119.079 386.93 120.337 381.656 120.337C377.965 120.337 374.537 119.675 371.374 118.352C368.275 116.962 365.768 114.944 363.856 112.296L366.232 109.219V139H351.398ZM379.876 106.936C382.644 106.936 385.083 106.307 387.194 105.05C389.302 103.792 390.953 102.039 392.137 99.7886C393.325 97.5385 393.917 94.9575 393.917 92.0455C393.917 89.1335 393.325 86.5856 392.137 84.4018C390.953 82.1517 389.302 80.3979 387.194 79.1407C385.083 77.8169 382.644 77.1553 379.876 77.1553C377.241 77.1553 374.866 77.7841 372.758 79.0413C370.714 80.2989 369.099 82.0523 367.911 84.3024C366.792 86.5525 366.232 89.1335 366.232 92.0455C366.232 94.9575 366.792 97.5385 367.911 99.7886C369.099 102.039 370.714 103.792 372.758 105.05C374.866 106.307 377.241 106.936 379.876 106.936Z" fill="black"/>
<path d="M434.641 120.337C430.75 120.337 427.387 119.708 424.555 118.451C421.72 117.194 419.545 115.407 418.029 113.091C416.51 110.708 415.754 107.895 415.754 104.652C415.754 101.608 416.446 98.9282 417.829 96.6119C419.213 94.2293 421.324 92.2439 424.16 90.6558C427.059 89.0676 430.65 87.9426 434.937 87.2807L451.449 84.6002V95.52L437.608 98.0016C435.497 98.3989 433.881 99.0935 432.761 100.086C431.642 101.013 431.082 102.369 431.082 104.156C431.082 105.811 431.706 107.101 432.958 108.028C434.213 108.954 435.761 109.418 437.608 109.418C440.047 109.418 442.187 108.888 444.034 107.829C445.878 106.77 447.298 105.348 448.285 103.561C449.341 101.708 449.869 99.6892 449.869 97.5054V83.4093C449.869 81.3576 449.045 79.637 447.397 78.2472C445.814 76.8575 443.639 76.1624 440.871 76.1624C438.232 76.1624 435.893 76.8906 433.849 78.3466C431.87 79.8023 430.422 81.7217 429.498 84.104L417.633 78.4457C418.685 75.4015 420.369 72.7873 422.676 70.6035C424.983 68.4197 427.751 66.7322 430.982 65.5409C434.213 64.3496 437.74 63.7539 441.563 63.7539C446.11 63.7539 450.133 64.5811 453.624 66.2355C457.119 67.8903 459.822 70.2063 461.734 73.1846C463.713 76.0962 464.701 79.5044 464.701 83.4093V119.146H450.857V110.41L454.22 109.814C452.636 112.197 450.889 114.182 448.977 115.771C447.066 117.293 444.922 118.418 442.551 119.146C440.179 119.94 437.54 120.337 434.641 120.337Z" fill="black"/>
<path d="M502.079 120.337C496.672 120.337 491.794 119.113 487.443 116.664C483.16 114.149 479.732 110.741 477.161 106.439C474.654 102.138 473.402 97.3066 473.402 91.9461C473.402 86.5856 474.654 81.7876 477.161 77.5522C479.665 73.2508 483.092 69.8757 487.443 67.4268C491.794 64.9783 496.672 63.7539 502.079 63.7539C506.098 63.7539 509.825 64.449 513.252 65.8387C516.679 67.2284 519.614 69.1807 522.053 71.6954C524.493 74.1439 526.24 77.0559 527.292 80.431L514.439 85.99C513.516 83.2768 511.932 81.1261 509.693 79.5376C507.517 77.9494 504.978 77.1553 502.079 77.1553C499.507 77.1553 497.2 77.7841 495.157 79.0413C493.177 80.2989 491.597 82.0523 490.41 84.3024C489.29 86.5525 488.73 89.1335 488.73 92.0455C488.73 94.9575 489.29 97.5385 490.41 99.7886C491.597 102.039 493.177 103.792 495.157 105.05C497.2 106.307 499.507 106.936 502.079 106.936C505.046 106.936 507.617 106.142 509.793 104.553C511.968 102.965 513.516 100.814 514.439 98.101L527.292 103.759C526.304 106.936 524.589 109.781 522.15 112.296C519.714 114.811 516.779 116.796 513.352 118.252C509.925 119.642 506.166 120.337 502.079 120.337Z" fill="black"/>
<path d="M536.027 119.146V44H550.859V92.1454L545.325 90.3584L569.154 64.9457H587.446L567.871 86.7849L587.349 119.146H570.538L554.222 91.6488L562.824 89.4649L546.312 107.532L550.859 98.8956V119.146H536.027Z" fill="black"/>
<mask id="mask1_36_39" style="mask-type:luminance" maskUnits="userSpaceOnUse" x="0" y="25" width="69" height="100">
<path d="M68.6506 25H0V124.75H68.6506V25Z" fill="white"/>
</mask>
<g mask="url(#mask1_36_39)">
<path fill-rule="evenodd" clip-rule="evenodd" d="M40.8284 32.8432C44.4578 32.8432 47.8621 33.3292 51.0144 34.2306C47.9285 27.0459 41.521 25 34.3901 25C27.2452 25 20.8267 27.054 17.7477 34.2729C20.8766 33.3398 24.2664 32.8432 27.8834 32.8432H40.8284ZM27.0532 40.0563C9.81925 40.0563 0 53.5998 0 70.3064V87.4684C0 89.1393 1.39709 90.4609 3.12048 90.4609H65.5301C67.2533 90.4609 68.6506 89.1393 68.6506 87.4684V70.3064C68.6506 53.5998 57.2321 40.0563 39.9982 40.0563H27.0532ZM34.3009 70.455C40.3327 70.455 45.2227 65.5701 45.2227 59.5448C45.2227 53.5193 40.3327 48.6346 34.3009 48.6346C28.269 48.6346 23.3792 53.5193 23.3792 59.5448C23.3792 65.5701 28.269 70.455 34.3009 70.455ZM0 100.549C0 98.8777 1.39709 97.5232 3.12048 97.5232H65.5301C67.2533 97.5232 68.6506 98.8777 68.6506 100.549V118.698C68.6506 122.04 65.8564 124.749 62.4096 124.749H6.24096C2.79417 124.749 0 122.04 0 118.698V100.549Z" fill="#E33E3F"/>
</g>
</g>
</g>
<defs>
<clipPath id="clip0_36_39">
<rect width="592" height="114" fill="white" transform="translate(0 25)"/>
</clipPath>
</defs>
</svg>
