<svg width="3414" height="541" viewBox="0 0 3414 541" fill="none" xmlns="http://www.w3.org/2000/svg">
<path d="M254.911 205.049C251.994 221.488 245.232 235.142 234.626 246.013C224.019 256.884 211.291 264.441 196.442 268.683C209.7 271.599 220.174 278.096 227.864 288.171C235.554 298.246 239.399 310.045 239.399 323.568C239.399 327.81 239.001 331.92 238.205 335.897C234.228 359.229 222.826 377.789 203.999 391.577C185.172 405.099 161.175 411.86 132.007 411.86H1.94336L51.264 132.665H176.952C202.143 132.665 221.633 137.835 235.421 148.176C249.21 158.516 256.104 172.834 256.104 191.129C256.104 195.636 255.706 200.276 254.911 205.049ZM143.541 246.013C154.944 246.013 164.092 243.494 170.986 238.457C177.88 233.419 182.123 226.128 183.714 216.582C183.979 214.992 184.112 212.87 184.112 210.219C184.112 202.53 181.593 196.697 176.554 192.72C171.516 188.477 164.092 186.356 154.281 186.356H109.733L99.3914 246.013H143.541ZM170.588 326.749C171.119 323.568 171.384 321.181 171.384 319.59C171.384 311.901 168.6 305.936 163.031 301.693C157.463 297.186 149.773 294.932 139.962 294.932H90.641L79.5041 357.771H129.62C141.288 357.771 150.568 355.119 157.463 349.817C164.357 344.514 168.732 336.825 170.588 326.749ZM430.785 362.544H326.577L301.121 411.86H229.924L380.273 132.665H459.025L510.732 411.86H438.74L430.785 362.544ZM422.83 310.841L406.524 207.435L353.226 310.841H422.83ZM775.359 411.86H707.344L624.215 239.65L593.588 411.86H525.573L574.894 132.665H642.909L726.038 305.67L756.665 132.665H824.68L775.359 411.86ZM962.677 132.665C988.398 132.665 1010.54 137.305 1029.1 146.585C1047.93 155.6 1062.25 168.459 1072.06 185.163C1082.13 201.602 1087.17 220.957 1087.17 243.229C1087.17 250.918 1086.24 260.596 1084.39 272.262C1079.61 299.572 1069.27 323.833 1053.36 345.044C1037.72 366.256 1017.7 382.694 993.304 394.361C969.174 406.027 942.525 411.86 913.357 411.86H808.749L858.07 132.665H962.677ZM919.323 353.794C945.044 353.794 966.39 346.635 983.36 332.317C1000.33 317.999 1010.94 297.981 1015.18 272.262C1016.51 264.308 1017.17 257.68 1017.17 252.377C1017.17 232.756 1011.2 217.643 999.27 207.037C987.338 196.166 970.367 190.731 948.358 190.731H915.743L887.105 353.794H919.323ZM1199.16 132.665L1149.84 411.86H1081.83L1131.15 132.665H1199.16ZM1433.41 132.665L1424.26 186.356H1349.88L1310.11 411.86H1242.09L1281.87 186.356H1207.88L1217.43 132.665H1433.41ZM1728.24 411.86H1660.23L1577.1 239.65L1546.47 411.86H1478.46L1527.78 132.665H1595.79L1678.92 305.67L1709.55 132.665H1777.56L1728.24 411.86ZM1869.43 186.356L1859.48 244.422H1950.57L1941.42 295.727H1850.33L1839.2 358.169H1942.21L1932.67 411.86H1761.64L1810.96 132.665H1981.99L1972.44 186.356H1869.43ZM2211.1 132.665L2201.95 186.356H2127.57L2087.79 411.86H2019.78L2059.55 186.356H1985.57L1995.12 132.665H2211.1ZM2613.54 132.665L2491.44 411.86H2409.1L2396.77 228.514L2318.42 411.86H2236.08L2214.6 132.665H2287.39L2291.77 335.897L2377.28 132.665H2452.46L2464.39 334.703L2540.36 132.665H2613.54ZM2715.27 414.644C2691.67 414.644 2670.86 409.739 2652.83 399.929C2635.06 390.118 2621.27 376.331 2611.46 358.566C2601.65 340.802 2596.74 320.386 2596.74 297.318C2596.74 264.706 2603.77 235.673 2617.82 210.219C2631.88 184.5 2651.37 164.482 2676.29 150.164C2701.48 135.846 2729.99 128.688 2761.81 128.688C2785.67 128.688 2806.62 133.593 2824.65 143.403C2842.68 152.948 2856.61 166.603 2866.42 184.368C2876.23 201.867 2881.13 222.018 2881.13 244.82C2881.13 277.433 2874.11 306.731 2860.05 332.715C2846 358.434 2826.38 378.585 2801.19 393.167C2776 407.485 2747.36 414.644 2715.27 414.644ZM2725.61 351.805C2743.12 351.805 2758.49 347.298 2771.75 338.283C2785.01 329.268 2795.22 317.204 2802.38 302.091C2809.8 286.713 2813.52 270.141 2813.52 252.377C2813.52 233.286 2808.21 218.306 2797.61 207.435C2787 196.564 2772.15 191.129 2753.06 191.129C2735.56 191.129 2720.05 195.636 2706.52 204.651C2693.26 213.666 2682.92 225.73 2675.5 240.843C2668.34 255.691 2664.76 272.13 2664.76 290.16C2664.76 309.25 2670.06 324.363 2680.67 335.499C2691.28 346.37 2706.26 351.805 2725.61 351.805ZM3042.67 132.665C3071.57 132.665 3093.58 139.293 3108.7 152.55C3123.81 165.542 3131.37 182.511 3131.37 203.458C3131.37 209.556 3130.84 215.257 3129.78 220.56C3126.59 239.12 3118.51 255.691 3105.51 270.274C3092.52 284.857 3075.15 295.197 3053.41 301.296L3098.35 411.86H3021.59L2982.21 306.466H2965.9L2947.21 411.86H2879.19L2928.52 132.665H3042.67ZM3060.17 223.344C3060.7 219.101 3060.97 216.317 3060.97 214.992C3060.97 206.507 3058.18 200.011 3052.61 195.503C3047.31 190.731 3039.35 188.345 3028.75 188.345H2986.59L2974.26 258.342H3016.42C3028.88 258.342 3038.69 255.293 3045.85 249.195C3053.28 243.097 3058.05 234.48 3060.17 223.344ZM3280.66 269.478L3367.77 411.86H3284.64L3212.64 288.569L3190.77 411.86H3122.75L3172.07 132.665H3240.09L3218.61 255.161L3333.56 132.665H3413.11L3280.66 269.478Z" fill="black"/>
</svg>
