<svg width="699" height="182" viewBox="0 0 699 182" fill="none" xmlns="http://www.w3.org/2000/svg">
<path d="M52.1918 49.608C51.5946 59.9248 50.2102 68.4944 48.0385 75.3168C45.8669 82.1392 43.2609 86.8816 40.2206 89.544C42.9351 91.3744 45.0796 95.4512 46.6541 101.774C48.2285 108.098 49.0158 115.502 49.0158 123.989C49.0158 126.651 48.9343 129.23 48.7714 131.726C47.9571 146.37 45.6226 158.018 41.7679 166.67C37.9132 175.157 32.9998 179.4 27.0278 179.4H0.397949L10.4961 4.18082H36.2302C41.3878 4.18082 45.3782 7.42562 48.2014 13.9152C51.0245 20.4048 52.4361 29.3904 52.4361 40.872C52.4361 43.7008 52.3547 46.6128 52.1918 49.608ZM29.3895 75.3168C31.724 75.3168 33.597 73.736 35.0086 70.5744C36.4202 67.4128 37.2888 62.8368 37.6146 56.8464C37.6689 55.848 37.696 54.5168 37.696 52.8528C37.696 48.0272 37.1803 44.3664 36.1487 41.8704C35.1172 39.208 33.597 37.8768 31.5883 37.8768H22.4673L20.35 75.3168H29.3895ZM34.9272 125.986C35.0358 123.989 35.09 122.491 35.09 121.493C35.09 116.667 34.52 112.923 33.3799 110.261C32.2398 107.432 30.6653 106.018 28.6565 106.018H18.5584L16.2781 145.454H26.5392C28.928 145.454 30.8282 143.79 32.2398 140.462C33.6513 137.134 34.5471 132.309 34.9272 125.986ZM88.2012 148.45H66.8651L61.6531 179.4H47.076L77.8591 4.18082H93.9833L104.57 179.4H89.83L88.2012 148.45ZM86.5725 116.002L83.2339 51.1056L72.3214 116.002H86.5725ZM158.751 179.4H144.825L127.805 71.3232L121.534 179.4H107.609L117.707 4.18082H131.633L148.653 112.757L154.924 4.18082H168.849L158.751 179.4ZM197.104 4.18082C202.37 4.18082 206.903 7.09282 210.704 12.9168C214.558 18.5744 217.49 26.6448 219.499 37.128C221.562 47.4448 222.593 59.592 222.593 73.5696C222.593 78.3952 222.403 84.4688 222.023 91.7904C221.046 108.93 218.929 124.155 215.671 137.467C212.468 150.779 208.369 161.096 203.374 168.418C198.434 175.739 192.977 179.4 187.005 179.4H165.587L175.686 4.18082H197.104ZM188.227 142.958C193.493 142.958 197.864 138.466 201.338 129.48C204.813 120.494 206.985 107.931 207.853 91.7904C208.125 86.7984 208.26 82.6384 208.26 79.3104C208.26 66.9968 207.039 57.512 204.596 50.856C202.153 44.0336 198.678 40.6224 194.172 40.6224H187.494L181.631 142.958H188.227ZM245.523 4.18082L235.425 179.4H221.499L231.597 4.18082H245.523ZM293.483 4.18082L291.61 37.8768H276.382L268.238 179.4H254.312L262.456 37.8768H247.309L249.263 4.18082H293.483ZM353.849 179.4H339.924L322.903 71.3232L316.633 179.4H302.707L312.805 4.18082H326.731L343.751 112.757L350.022 4.18082H363.947L353.849 179.4ZM382.756 37.8768L380.72 74.3184H399.369L397.496 106.517H378.847L376.567 145.704H397.659L395.704 179.4H360.687L370.785 4.18082H405.803L403.848 37.8768H382.756ZM452.711 4.18082L450.838 37.8768H435.609L427.466 179.4H413.54L421.684 37.8768H406.536L408.491 4.18082H452.711ZM535.111 4.18082L510.11 179.4H493.252L490.728 64.3344L474.685 179.4H457.827L453.43 4.18082H468.333L469.228 131.726L486.737 4.18082H502.129L504.572 130.978L520.126 4.18082H535.111ZM555.939 181.147C551.107 181.147 546.845 178.069 543.154 171.912C539.516 165.755 536.693 157.102 534.684 145.954C532.675 134.805 531.671 121.992 531.671 107.515C531.671 87.048 533.11 68.8272 535.987 52.8528C538.865 36.712 542.855 24.1488 547.958 15.1632C553.116 6.17762 558.952 1.68481 565.467 1.68481C570.353 1.68481 574.642 4.76322 578.334 10.92C582.026 16.9104 584.876 25.48 586.885 36.6288C588.894 47.6112 589.898 60.2576 589.898 74.568C589.898 95.0352 588.46 113.422 585.582 129.73C582.705 145.87 578.687 158.517 573.529 167.669C568.372 176.654 562.508 181.147 555.939 181.147ZM558.056 141.71C561.64 141.71 564.789 138.882 567.503 133.224C570.218 127.566 572.308 119.995 573.774 110.51C575.294 100.859 576.054 90.4592 576.054 79.3104C576.054 67.3296 574.968 57.928 572.797 51.1056C570.625 44.2832 567.585 40.872 563.676 40.872C560.092 40.872 556.916 43.7008 554.148 49.3584C551.433 55.016 549.316 62.5872 547.795 72.072C546.33 81.3904 545.597 91.7072 545.597 103.022C545.597 115.003 546.682 124.488 548.854 131.477C551.026 138.299 554.093 141.71 558.056 141.71ZM622.972 4.18082C628.89 4.18082 633.396 8.34082 636.49 16.6608C639.585 24.8144 641.132 35.464 641.132 48.6096C641.132 52.4368 641.024 56.0144 640.807 59.3424C640.155 70.9904 638.499 81.3904 635.839 90.5424C633.179 99.6944 629.623 106.184 625.171 110.011L634.373 179.4H618.656L610.593 113.256H607.255L603.427 179.4H589.501L599.599 4.18082H622.972ZM626.555 61.0896C626.664 58.4272 626.718 56.68 626.718 55.848C626.718 50.5232 626.148 46.4464 625.008 43.6176C623.922 40.6224 622.293 39.1248 620.122 39.1248H611.489L608.965 83.0544H617.597C620.149 83.0544 622.157 81.1408 623.623 77.3136C625.143 73.4864 626.121 68.0784 626.555 61.0896ZM671.699 90.0432L689.534 179.4H672.513L657.773 102.024L653.294 179.4H639.369L649.467 4.18082H663.393L658.995 81.0576L682.53 4.18082H698.818L671.699 90.0432Z" fill="black"/>
</svg>
