<svg width="575" height="195" viewBox="0 0 575 195" fill="none" xmlns="http://www.w3.org/2000/svg">
<path d="M357.939 129.555C357.939 130.922 358.959 132.03 360.217 132.03C361.474 132.03 362.494 130.922 362.494 129.555V67.9153C362.494 66.5487 361.474 65.4409 360.217 65.4409C358.959 65.4409 357.939 66.5487 357.939 67.9153V129.555Z" fill="#091326"/>
<path d="M245.507 67.8907C245.507 66.5241 244.487 65.4164 243.229 65.4164C241.972 65.4164 240.951 66.5241 240.951 67.8907V129.53C240.951 130.897 241.972 132.005 243.229 132.005C244.487 132.005 245.507 130.897 245.507 129.53V67.8907Z" fill="#091326"/>
<path d="M317.958 67.8663C317.958 67.8663 317.958 67.7683 317.958 67.7193C317.913 67.1068 317.665 66.5433 317.282 66.1514C317.282 66.1514 317.057 65.9308 316.922 65.8574H316.877C316.877 65.8574 316.651 65.6859 316.538 65.6368C316.493 65.6368 316.47 65.6124 316.426 65.5879C316.335 65.5634 316.222 65.5144 316.11 65.4899C316.065 65.4899 315.997 65.4899 315.93 65.4899C315.862 65.4899 315.771 65.4653 315.703 65.4653H315.659C315.659 65.4653 315.546 65.4653 315.501 65.4653C315.411 65.4653 315.32 65.4653 315.23 65.5144C315.207 65.5144 315.163 65.5144 315.14 65.5389C315.027 65.5634 314.915 65.6124 314.802 65.6614C314.779 65.6614 314.734 65.7104 314.711 65.7104C314.621 65.7593 314.508 65.8084 314.419 65.8818C314.373 65.9308 314.328 65.9799 314.283 66.0043C314.215 66.0533 314.148 66.1269 314.08 66.1758C314.035 66.2248 313.99 66.2739 313.967 66.3473C313.923 66.4208 313.855 66.4944 313.809 66.5679L279.512 124.998L262.328 95.7707C261.652 94.6193 260.254 94.2763 259.194 95.0112C258.134 95.7463 257.819 97.2652 258.495 98.4166L277.595 130.927C277.595 130.927 277.707 131.098 277.753 131.171C277.798 131.221 277.843 131.27 277.866 131.319C277.91 131.368 277.978 131.417 278.023 131.466C278.091 131.514 278.158 131.588 278.226 131.638H278.249C278.249 131.638 278.339 131.712 278.406 131.735C278.474 131.784 278.542 131.809 278.61 131.857C278.677 131.882 278.767 131.907 278.835 131.931C278.902 131.931 278.97 131.981 279.015 131.981C279.106 131.981 279.173 132.005 279.263 132.005C279.331 132.005 279.398 132.005 279.444 132.005C279.534 132.005 279.602 132.005 279.692 132.005C279.76 132.005 279.828 132.005 279.894 131.981C279.985 131.981 280.053 131.931 280.142 131.907C280.21 131.907 280.256 131.882 280.324 131.834C280.413 131.784 280.504 131.735 280.593 131.687C280.639 131.687 280.661 131.662 280.707 131.638C280.707 131.638 280.864 131.491 280.932 131.417C280.977 131.368 281.022 131.344 281.045 131.295C281.089 131.245 281.157 131.171 281.203 131.098C281.248 131.025 281.293 130.976 281.337 130.902H281.36L313.381 76.3429V129.506C313.381 130.878 314.396 131.981 315.659 131.981C316.922 131.981 317.936 130.878 317.936 129.506V67.8663H317.958Z" fill="#091326"/>
<path d="M462.21 65.4164H462.074C460.854 65.4164 459.864 66.4912 459.864 67.8173V105.962C459.864 107.288 460.854 108.363 462.074 108.363H462.21C463.43 108.363 464.419 107.288 464.419 105.962V67.8173C464.419 66.4912 463.43 65.4164 462.21 65.4164Z" fill="#091326"/>
<path d="M463.721 127.791L406.985 66.1518C406.106 65.1963 404.663 65.1963 403.76 66.1518C403.309 66.6419 403.084 67.2788 403.084 67.9158V129.58C403.084 130.952 404.099 132.055 405.362 132.055C406.625 132.055 407.638 130.952 407.638 129.58V73.869L460.496 131.295C461.375 132.25 462.818 132.25 463.721 131.295C464.6 130.339 464.6 128.772 463.721 127.791Z" fill="#091326"/>
<path d="M209.157 128.379L197.949 104.713C197.362 103.488 196.01 103.022 194.882 103.635C193.755 104.272 193.327 105.742 193.89 106.967L194.792 108.878H161.058L179.955 69.0178C180.519 67.8174 180.09 66.3229 178.985 65.6859C177.88 65.0489 176.505 65.539 175.918 66.7394L146.716 128.379C146.153 129.58 146.581 131.074 147.685 131.712C148.791 132.348 150.166 131.857 150.753 130.658L158.713 113.851H197.137L205.097 130.658C205.684 131.882 207.036 132.348 208.165 131.735C209.292 131.098 209.72 129.628 209.157 128.404V128.379Z" fill="#091326"/>
<path d="M113.884 127.57L68.7172 94.8643V67.9153C68.7172 66.5434 67.7025 65.4409 66.4397 65.4409C65.1769 65.4409 64.1621 66.5434 64.1621 67.9153V129.555C64.1621 130.927 65.1769 132.03 66.4397 132.03C67.7025 132.03 68.7172 130.927 68.7172 129.555V100.818L111.359 131.712C112.396 132.446 113.794 132.152 114.471 131.025L114.516 130.976C115.192 129.849 114.921 128.33 113.884 127.595V127.57Z" fill="#091326"/>
<path d="M113.614 70.1001C114.661 69.342 114.944 67.8057 114.246 66.6686C113.548 65.5316 112.134 65.2243 111.088 65.9824L85.5332 84.4915C84.4867 85.2495 84.2038 86.7857 84.9016 87.9228C85.5993 89.0599 87.0133 89.3671 88.0599 88.6091L113.614 70.1001Z" fill="#091326"/>
<path d="M569.546 88.0292C568.983 88.6416 568.779 89.499 568.937 90.3566C569.388 92.6594 569.614 95.1338 569.614 97.8043C569.614 103.072 568.735 107.628 566.976 111.475C565.217 115.321 562.804 118.482 559.737 120.98C556.67 123.479 553.039 125.317 548.868 126.518C544.696 127.718 540.186 128.305 535.361 128.305C530.535 128.305 525.98 127.718 521.786 126.518C517.592 125.317 513.938 123.479 510.849 120.98C507.759 118.482 505.324 115.321 503.565 111.475C501.806 107.628 500.927 103.072 500.927 97.8043C500.927 94.301 501.333 91.116 502.145 88.2496C502.957 85.3832 504.106 82.8108 505.572 80.5569C507.038 78.2785 508.819 76.3186 510.917 74.6771C513.014 73.0113 515.314 71.6393 517.884 70.5368C520.433 69.4344 523.184 68.6258 526.138 68.0869C529.069 67.5479 532.159 67.3029 535.384 67.3029C540.209 67.3029 544.719 67.8909 548.89 69.0913C549.048 69.1404 549.206 69.1894 549.364 69.2383C549.928 69.4098 550.536 69.2383 550.943 68.7729L551.416 68.2584C552.295 67.3029 551.912 65.6369 550.716 65.2939H550.695C545.959 63.9221 540.862 63.2605 535.405 63.2605C531.752 63.2605 528.257 63.5545 524.92 64.1671C521.582 64.7549 518.471 65.686 515.585 66.9354C512.675 68.1849 510.06 69.7284 507.692 71.6147C505.324 73.5012 503.317 75.7061 501.649 78.2785C499.98 80.8509 498.695 83.7662 497.77 87.0001C496.845 90.2586 496.394 93.8599 496.394 97.8287C496.394 103.806 497.386 108.976 499.371 113.312C501.355 117.649 504.107 121.25 507.624 124.067C511.142 126.884 515.269 128.991 520.027 130.34C524.784 131.687 529.904 132.373 535.405 132.373C540.908 132.373 545.982 131.687 550.695 130.34C555.429 128.991 559.511 126.884 563.007 124.067C566.479 121.25 569.208 117.649 571.215 113.312C573.198 108.976 574.192 103.806 574.192 97.8287C574.192 94.7663 573.921 91.949 573.402 89.3275C573.018 87.3921 570.831 86.6817 569.568 88.0781L569.546 88.0292Z" fill="#091326"/>
<path d="M563.142 77.2739C564.399 77.2739 565.419 76.166 565.419 74.7994C565.419 73.4328 564.399 72.3251 563.142 72.3251C561.884 72.3251 560.865 73.4328 560.865 74.7994C560.865 76.166 561.884 77.2739 563.142 77.2739Z" fill="#091326"/>
<path d="M159.976 151.261C159.299 151.261 158.645 151.629 158.24 152.217C141.44 177.206 114.448 191.391 86.0576 190.166C42.0405 188.255 6.1865 149.302 4.49526 101.454C3.59327 76.0978 12.0269 52.0397 28.2176 33.7389C44.4309 15.4137 66.1913 5.34456 89.5076 5.34456C116.544 5.34456 142.228 19.554 158.24 43.3671C158.645 43.9551 159.299 44.3225 159.976 44.3225C160.787 44.3225 161.531 43.8326 161.892 43.0486C162.254 42.2647 162.186 41.3092 161.712 40.5987C144.303 14.7276 116.364 -0.192241 86.9822 0.714225C63.9363 1.4002 42.266 11.6898 25.9626 29.6476C9.6366 47.63 0.458868 71.3206 0.120623 96.3341C-0.240173 122.524 8.91501 147.218 25.8498 165.911C42.8072 184.604 65.4021 194.893 89.4851 194.893C117.875 194.893 144.867 179.974 161.69 154.984C162.186 154.275 162.254 153.319 161.87 152.535C161.508 151.751 160.764 151.261 159.953 151.261H159.976Z" fill="url(#paint0_radial_99_46)"/>
<defs>
<radialGradient id="paint0_radial_99_46" cx="0" cy="0" r="1" gradientUnits="userSpaceOnUse" gradientTransform="translate(174.881 49.6638) rotate(107.433) scale(109.134 247.171)">
<stop offset="0.139194" stop-color="#091326" stop-opacity="0"/>
<stop offset="0.620501" stop-color="#091326" stop-opacity="0.536145"/>
<stop offset="1" stop-color="#091326"/>
</radialGradient>
</defs>
</svg>

