<svg width="13981" height="4438" viewBox="0 0 13981 4438" fill="none" xmlns="http://www.w3.org/2000/svg">
<path d="M2164.89 1838.39C2433.49 1978.5 2641.05 2178.16 2787.6 2437.18C2932.84 2694.31 3006.11 2992.39 3007.22 3331.41H3902.6C3901.67 2888.15 3806.33 2498.6 3616.38 2162.58C3425.51 1825.05 3155.06 1564.91 2805.04 1382.35C2454.82 1199.78 2049.15 1108.5 1587.82 1108.5H53.0449V1628.21H1230.93C1584.86 1628.21 1896.3 1698.27 2164.89 1838.39Z" fill="url(#paint0_linear_2019_5)"/>
<path d="M1199.77 2521.91C1345.57 2597.97 1458.35 2706.35 1537.92 2847.03C1616.57 2986.39 1656.27 3147.93 1657.01 3331.44H2332.02C2331.09 3070.17 2274.71 2840.46 2162.67 2642.11C2049.7 2442.27 1889.62 2288.25 1682.24 2180.24C1474.85 2072.25 1234.64 2018.15 961.594 2018.15H53.0449V2407.89H692.628C884.798 2407.89 1053.97 2446.02 1199.77 2522.09V2521.91Z" fill="url(#paint1_linear_2019_5)"/>
<path d="M981.998 3331.49C981.444 3225.74 958.443 3132.39 912.994 3052C866.992 2970.49 801.7 2907.75 717.111 2863.61C632.528 2819.48 534.772 2797.5 423.29 2797.5H53.0449V3331.3H981.998V3331.49Z" fill="url(#paint2_linear_2019_5)"/>
<path d="M6113.88 1361.89C6276.92 1446.97 6403.06 1568.12 6491.91 1725.52C6580.77 1882.92 6625.28 2065.3 6625.28 2273.03C6625.28 2480.77 6580.77 2662.39 6491.91 2817.54C6403.06 2972.88 6276.92 3093.08 6113.88 3178.17C5950.64 3263.25 5761.62 3305.7 5546.82 3305.7H4831.74V1234.36H5546.82C5761.81 1234.36 5950.83 1276.99 6113.88 1361.89ZM6030.4 2774.53C6147.64 2655.82 6206.25 2488.66 6206.25 2273.03C6206.25 2057.41 6147.64 1888.74 6030.4 1767.03C5913.17 1645.32 5746.97 1584.46 5532.17 1584.46H5242.05V2952.59H5532.17C5747.16 2952.59 5913.17 2893.24 6030.4 2774.53Z" fill="url(#paint3_linear_2019_5)"/>
<path d="M6848.62 2034.53C6914.1 1905.87 7002.96 1807.07 7115.34 1737.76C7227.75 1668.45 7353.15 1633.89 7491.9 1633.89C7613.04 1633.89 7718.93 1658.69 7809.84 1708.09C7900.76 1757.67 7973.43 1819.84 8028.15 1895.16V1660.75H8441.47V3304.98H8028.15V3064.56C7975.34 3141.76 7902.6 3205.62 7809.84 3255.96C7717.09 3306.49 7610.06 3331.66 7488.92 3331.66C7352.23 3331.66 7227.61 3295.96 7115.19 3224.78C7002.77 3153.59 6913.92 3053.11 6848.44 2923.51C6782.96 2793.91 6750.31 2644.96 6750.31 2476.86C6750.31 2308.75 6782.96 2163.38 6848.44 2034.72L6848.62 2034.53ZM7969.74 2222.92C7930.63 2150.79 7877.9 2095.38 7811.55 2056.69C7745.12 2018.19 7673.72 1998.84 7597.64 1998.84C7521.56 1998.84 7451.09 2017.62 7386.58 2055.19C7322 2092.76 7269.69 2147.6 7229.81 2219.91C7189.71 2292.23 7169.7 2377.68 7169.7 2476.67C7169.7 2575.65 7189.71 2662.24 7229.81 2736.43C7269.91 2810.62 7322.57 2867.54 7388.07 2907.17C7453.5 2946.8 7523.27 2966.52 7597.64 2966.52C7672.02 2966.52 7745.12 2947.17 7811.55 2908.67C7877.9 2870.17 7930.78 2814.76 7969.74 2742.44C8008.7 2670.32 8028.36 2583.73 8028.36 2482.68C8028.36 2381.63 8008.7 2295.23 7969.74 2222.92Z" fill="url(#paint4_linear_2019_5)"/>
<path d="M9241.09 1708.04C9333.84 1658.64 9439.94 1633.85 9559.03 1633.85C9697.78 1633.85 9823.39 1668.41 9935.59 1737.71C10048 1807.02 10136.9 1905.45 10202.4 2032.97C10267.8 2160.51 10300.4 2308.52 10300.4 2476.62C10300.4 2644.73 10267.7 2793.67 10202.4 2923.28C10136.9 3052.87 10048 3153.36 9935.59 3224.54C9823.18 3295.73 9697.63 3331.41 9559.03 3331.41C9437.88 3331.41 9331.79 3307.19 9241.09 3258.73C9150.25 3210.27 9077.5 3147.35 9022.78 3070.34V3304.75H8612.44V1108.5H9022.78V1900.93C9075.44 1821.86 9148.33 1757.44 9241.09 1708.04ZM9821.55 2220.05C9781.45 2147.93 9728.79 2092.89 9663.28 2055.33C9597.85 2017.77 9526.95 1998.98 9450.73 1998.98C9374.51 1998.98 9306.59 2018.32 9241.09 2056.83C9175.65 2095.34 9122.92 2151.31 9082.89 2224.56C9042.8 2297.81 9022.78 2383.84 9022.78 2482.82C9022.78 2581.8 9042.8 2667.83 9082.89 2741.08C9122.92 2814.33 9175.65 2870.12 9241.09 2908.81C9306.59 2947.31 9376.35 2966.66 9450.73 2966.66C9525.11 2966.66 9597.64 2946.94 9663.28 2907.31C9728.79 2867.67 9781.45 2811.33 9821.55 2738.08C9861.57 2664.82 9881.66 2577.86 9881.66 2477C9881.66 2376.14 9861.57 2292.55 9821.55 2220.24V2220.05Z" fill="url(#paint5_linear_2019_5)"/>
<path d="M11089 1708.04C11181.7 1658.64 11287.8 1633.85 11406.9 1633.85C11545.7 1633.85 11671.3 1668.41 11783.5 1737.71C11895.9 1807.02 11984.8 1905.45 12050.2 2032.97C12115.7 2160.51 12148.4 2308.52 12148.4 2476.62C12148.4 2644.73 12115.5 2793.67 12050.2 2923.28C11984.8 3052.87 11895.9 3153.36 11783.5 3224.54C11671.1 3295.73 11545.5 3331.41 11406.9 3331.41C11285.8 3331.41 11179.7 3307.19 11089 3258.73C10998.1 3210.27 10925.4 3147.35 10870.7 3070.34V3304.75H10460.3V1108.5H10870.7V1900.93C10923.3 1821.86 10996.2 1757.44 11089 1708.04ZM11669.5 2220.05C11629.4 2147.93 11576.7 2092.89 11511.2 2055.33C11445.7 2017.77 11374.9 1998.98 11298.6 1998.98C11222.3 1998.98 11154.5 2018.32 11089 2056.83C11023.6 2095.34 10970.8 2151.31 10930.8 2224.56C10890.7 2297.81 10870.7 2383.84 10870.7 2482.82C10870.7 2581.8 10890.7 2667.83 10930.8 2741.08C10970.8 2814.33 11023.6 2870.12 11089 2908.81C11154.5 2947.31 11224.3 2966.66 11298.6 2966.66C11373 2966.66 11445.5 2946.94 11511.2 2907.31C11576.7 2867.67 11629.4 2811.33 11669.5 2738.08C11709.5 2664.82 11729.5 2577.86 11729.5 2477C11729.5 2376.14 11709.5 2292.55 11669.5 2220.24V2220.05Z" fill="url(#paint6_linear_2019_5)"/>
<path d="M12372 2034.53C12437.6 1905.87 12526.4 1807.07 12638.8 1737.76C12751.2 1668.45 12876.6 1633.89 13015.4 1633.89C13136.5 1633.89 13242.6 1658.69 13333.3 1708.09C13424.2 1757.67 13496.9 1819.84 13551.6 1895.16V1660.75H13964.9V3304.98H13551.6V3064.56C13499 3141.76 13426 3205.62 13333.3 3255.96C13240.6 3306.49 13133.6 3331.66 13012.4 3331.66C12875.7 3331.66 12751 3295.96 12638.6 3224.78C12526.2 3153.59 12437.3 3053.11 12371.9 2923.51C12306.4 2793.91 12273.8 2644.96 12273.8 2476.86C12273.8 2308.75 12306.4 2163.38 12371.9 2034.72L12372 2034.53ZM13493.2 2222.92C13454 2150.79 13401.4 2095.38 13335 2056.69C13268.5 2018.19 13197.1 1998.84 13121.1 1998.84C13045.1 1998.84 12974.6 2017.62 12910 2055.19C12845.5 2092.76 12793.1 2147.6 12753.3 2219.91C12713.2 2292.23 12693.2 2377.68 12693.2 2476.67C12693.2 2575.65 12713.2 2662.24 12753.3 2736.43C12793.3 2810.62 12846 2867.54 12911.5 2907.17C12977 2946.8 13046.7 2966.52 13121.1 2966.52C13195.5 2966.52 13268.5 2947.17 13335 2908.67C13401.4 2870.17 13454 2814.76 13493.2 2742.44C13532.3 2670.32 13551.8 2583.73 13551.8 2482.68C13551.8 2381.63 13532.3 2295.23 13493.2 2222.92Z" fill="url(#paint7_linear_2019_5)"/>
<defs>
<linearGradient id="paint0_linear_2019_5" x1="4099.45" y1="3825.4" x2="4099.45" y2="-960.055" gradientUnits="userSpaceOnUse">
<stop stop-color="#FFEE02"/>
<stop offset="1" stop-color="#FFC102"/>
</linearGradient>
<linearGradient id="paint1_linear_2019_5" x1="2448.56" y1="3623.28" x2="2448.56" y2="796.072" gradientUnits="userSpaceOnUse">
<stop stop-color="#FFEE02"/>
<stop offset="1" stop-color="#FFC102"/>
</linearGradient>
<linearGradient id="paint2_linear_2019_5" x1="1029.5" y1="3450.15" x2="1029.5" y2="2300.59" gradientUnits="userSpaceOnUse">
<stop stop-color="#FFEE02"/>
<stop offset="1" stop-color="#FFC102"/>
</linearGradient>
<linearGradient id="paint3_linear_2019_5" x1="6717" y1="3766" x2="6717" y2="-693.15" gradientUnits="userSpaceOnUse">
<stop stop-color="#FFEE02"/>
<stop offset="1" stop-color="#FFC102"/>
</linearGradient>
<linearGradient id="paint4_linear_2019_5" x1="8527.91" y1="3708.93" x2="8527.91" y2="54.0385" gradientUnits="userSpaceOnUse">
<stop stop-color="#FFEE02"/>
<stop offset="1" stop-color="#FFC102"/>
</linearGradient>
<linearGradient id="paint5_linear_2019_5" x1="10386.8" y1="3825.4" x2="10386.8" y2="-960.055" gradientUnits="userSpaceOnUse">
<stop stop-color="#FFEE02"/>
<stop offset="1" stop-color="#FFC102"/>
</linearGradient>
<linearGradient id="paint6_linear_2019_5" x1="12234.7" y1="3825.4" x2="12234.7" y2="-960.055" gradientUnits="userSpaceOnUse">
<stop stop-color="#FFEE02"/>
<stop offset="1" stop-color="#FFC102"/>
</linearGradient>
<linearGradient id="paint7_linear_2019_5" x1="14051.4" y1="3708.93" x2="14051.4" y2="54.0385" gradientUnits="userSpaceOnUse">
<stop stop-color="#FFEE02"/>
<stop offset="1" stop-color="#FFC102"/>
</linearGradient>
</defs>
</svg>
