<svg width="242" height="297" viewBox="0 0 242 297" fill="none" xmlns="http://www.w3.org/2000/svg">
<g clip-path="url(#clip0_99_15)">
<path d="M218.667 236.314C218.667 246.004 214.851 254.499 208.724 261.014C208.652 261.091 208.602 261.185 208.579 261.285C208.487 261.702 208.882 262.069 209.318 261.967C226.985 257.849 241.269 243.573 241.269 224.826V127.64C241.269 98.9115 224.306 72.365 196.771 58.0007L85.5911 0L63.5671 11.789L174.17 69.4881C201.705 83.8527 218.667 110.399 218.667 139.128V236.314Z" fill="url(#paint0_linear_99_15)"/>
<path d="M218.667 236.314C218.667 246.004 214.851 254.499 208.724 261.014C208.652 261.091 208.602 261.185 208.579 261.285C208.487 261.702 208.882 262.069 209.318 261.967C226.985 257.849 241.269 243.573 241.269 224.826V127.64C241.269 98.9115 224.306 72.365 196.771 58.0007L85.5911 0L63.5671 11.789L174.17 69.4881C201.705 83.8527 218.667 110.399 218.667 139.128V236.314Z" fill="url(#paint1_linear_99_15)"/>
<path d="M218.667 236.314C218.667 246.004 214.851 254.499 208.724 261.014C208.652 261.091 208.602 261.185 208.579 261.285C208.487 261.702 208.882 262.069 209.318 261.967C226.985 257.849 241.269 243.573 241.269 224.826V127.64C241.269 98.9115 224.306 72.365 196.771 58.0007L85.5911 0L63.5671 11.789L174.17 69.4881C201.705 83.8527 218.667 110.399 218.667 139.128V236.314Z" fill="url(#paint2_radial_99_15)" fill-opacity="0.2"/>
<path d="M218.667 236.314C218.667 246.004 214.851 254.499 208.724 261.014C208.652 261.091 208.602 261.185 208.579 261.285C208.487 261.702 208.882 262.069 209.318 261.967C226.985 257.849 241.269 243.573 241.269 224.826V127.64C241.269 98.9115 224.306 72.365 196.771 58.0007L85.5911 0L63.5671 11.789L174.17 69.4881C201.705 83.8527 218.667 110.399 218.667 139.128V236.314Z" fill="url(#paint3_radial_99_15)" fill-opacity="0.1"/>
<path d="M218.667 236.314C218.667 246.004 214.851 254.499 208.724 261.014C208.652 261.091 208.602 261.185 208.579 261.285C208.487 261.702 208.882 262.069 209.318 261.967C226.985 257.849 241.269 243.573 241.269 224.826V127.64C241.269 98.9115 224.306 72.365 196.771 58.0007L85.5911 0L63.5671 11.789L174.17 69.4881C201.705 83.8527 218.667 110.399 218.667 139.128V236.314Z" fill="url(#paint4_linear_99_15)" fill-opacity="0.2"/>
<path d="M187.59 252.907V155.721C187.59 126.993 170.627 100.446 143.093 86.0815L32.49 28.3822L54.5141 16.5933L165.694 74.5938C193.229 88.9584 210.191 115.505 210.191 144.234V241.42C210.191 260.166 195.908 274.442 178.241 278.56C177.804 278.662 177.41 278.295 177.502 277.879C177.525 277.778 177.575 277.685 177.647 277.608C183.774 271.092 187.59 262.597 187.59 252.907Z" fill="url(#paint5_linear_99_15)"/>
<path d="M187.59 252.907V155.721C187.59 126.993 170.627 100.446 143.093 86.0815L32.49 28.3822L54.5141 16.5933L165.694 74.5938C193.229 88.9584 210.191 115.505 210.191 144.234V241.42C210.191 260.166 195.908 274.442 178.241 278.56C177.804 278.662 177.41 278.295 177.502 277.879C177.525 277.778 177.575 277.685 177.647 277.608C183.774 271.092 187.59 262.597 187.59 252.907Z" fill="url(#paint6_linear_99_15)"/>
<path d="M187.59 252.907V155.721C187.59 126.993 170.627 100.446 143.093 86.0815L32.49 28.3822L54.5141 16.5933L165.694 74.5938C193.229 88.9584 210.191 115.505 210.191 144.234V241.42C210.191 260.166 195.908 274.442 178.241 278.56C177.804 278.662 177.41 278.295 177.502 277.879C177.525 277.778 177.575 277.685 177.647 277.608C183.774 271.092 187.59 262.597 187.59 252.907Z" fill="url(#paint7_radial_99_15)" fill-opacity="0.2"/>
<path d="M187.59 252.907V155.721C187.59 126.993 170.627 100.446 143.093 86.0815L32.49 28.3822L54.5141 16.5933L165.694 74.5938C193.229 88.9584 210.191 115.505 210.191 144.234V241.42C210.191 260.166 195.908 274.442 178.241 278.56C177.804 278.662 177.41 278.295 177.502 277.879C177.525 277.778 177.575 277.685 177.647 277.608C183.774 271.092 187.59 262.597 187.59 252.907Z" fill="url(#paint8_radial_99_15)" fill-opacity="0.1"/>
<path d="M187.59 252.907V155.721C187.59 126.993 170.627 100.446 143.093 86.0815L32.49 28.3822L54.5141 16.5933L165.694 74.5938C193.229 88.9584 210.191 115.505 210.191 144.234V241.42C210.191 260.166 195.908 274.442 178.241 278.56C177.804 278.662 177.41 278.295 177.502 277.879C177.525 277.778 177.575 277.685 177.647 277.608C183.774 271.092 187.59 262.597 187.59 252.907Z" fill="url(#paint9_linear_99_15)" fill-opacity="0.2"/>
<path fill-rule="evenodd" clip-rule="evenodd" d="M0 45.7671L22.311 33.8246L133.491 91.8253C161.026 106.19 177.988 132.736 177.988 161.465V259.13L177.985 259.128C177.606 288.326 142.52 306.471 114.421 291.813L13.6553 239.245L0 232.305V45.7671ZM155.387 173.256V229.676L80.5186 190.618V87.7722L110.89 103.616C138.425 117.98 155.387 144.527 155.387 173.256ZM52.2664 73.0335L63.5672 78.929V199.456L64.7536 200.058L155.387 247.339V258.254L52.4123 204.534L52.2664 204.612V73.0335ZM33.9026 63.4534V213.883L34.4337 214.158L33.9026 214.442L155.248 277.745C154.233 282.794 147.859 285.675 142.673 282.97L22.6017 220.33V57.558L33.9026 63.4534Z" fill="url(#paint10_linear_99_15)"/>
<path fill-rule="evenodd" clip-rule="evenodd" d="M0 45.7671L22.311 33.8246L133.491 91.8253C161.026 106.19 177.988 132.736 177.988 161.465V259.13L177.985 259.128C177.606 288.326 142.52 306.471 114.421 291.813L13.6553 239.245L0 232.305V45.7671ZM155.387 173.256V229.676L80.5186 190.618V87.7722L110.89 103.616C138.425 117.98 155.387 144.527 155.387 173.256ZM52.2664 73.0335L63.5672 78.929V199.456L64.7536 200.058L155.387 247.339V258.254L52.4123 204.534L52.2664 204.612V73.0335ZM33.9026 63.4534V213.883L34.4337 214.158L33.9026 214.442L155.248 277.745C154.233 282.794 147.859 285.675 142.673 282.97L22.6017 220.33V57.558L33.9026 63.4534Z" fill="url(#paint11_linear_99_15)"/>
<path fill-rule="evenodd" clip-rule="evenodd" d="M0 45.7671L22.311 33.8246L133.491 91.8253C161.026 106.19 177.988 132.736 177.988 161.465V259.13L177.985 259.128C177.606 288.326 142.52 306.471 114.421 291.813L13.6553 239.245L0 232.305V45.7671ZM155.387 173.256V229.676L80.5186 190.618V87.7722L110.89 103.616C138.425 117.98 155.387 144.527 155.387 173.256ZM52.2664 73.0335L63.5672 78.929V199.456L64.7536 200.058L155.387 247.339V258.254L52.4123 204.534L52.2664 204.612V73.0335ZM33.9026 63.4534V213.883L34.4337 214.158L33.9026 214.442L155.248 277.745C154.233 282.794 147.859 285.675 142.673 282.97L22.6017 220.33V57.558L33.9026 63.4534Z" fill="url(#paint12_radial_99_15)" fill-opacity="0.2"/>
<path fill-rule="evenodd" clip-rule="evenodd" d="M0 45.7671L22.311 33.8246L133.491 91.8253C161.026 106.19 177.988 132.736 177.988 161.465V259.13L177.985 259.128C177.606 288.326 142.52 306.471 114.421 291.813L13.6553 239.245L0 232.305V45.7671ZM155.387 173.256V229.676L80.5186 190.618V87.7722L110.89 103.616C138.425 117.98 155.387 144.527 155.387 173.256ZM52.2664 73.0335L63.5672 78.929V199.456L64.7536 200.058L155.387 247.339V258.254L52.4123 204.534L52.2664 204.612V73.0335ZM33.9026 63.4534V213.883L34.4337 214.158L33.9026 214.442L155.248 277.745C154.233 282.794 147.859 285.675 142.673 282.97L22.6017 220.33V57.558L33.9026 63.4534Z" fill="url(#paint13_radial_99_15)" fill-opacity="0.1"/>
<path fill-rule="evenodd" clip-rule="evenodd" d="M0 45.7671L22.311 33.8246L133.491 91.8253C161.026 106.19 177.988 132.736 177.988 161.465V259.13L177.985 259.128C177.606 288.326 142.52 306.471 114.421 291.813L13.6553 239.245L0 232.305V45.7671ZM155.387 173.256V229.676L80.5186 190.618V87.7722L110.89 103.616C138.425 117.98 155.387 144.527 155.387 173.256ZM52.2664 73.0335L63.5672 78.929V199.456L64.7536 200.058L155.387 247.339V258.254L52.4123 204.534L52.2664 204.612V73.0335ZM33.9026 63.4534V213.883L34.4337 214.158L33.9026 214.442L155.248 277.745C154.233 282.794 147.859 285.675 142.673 282.97L22.6017 220.33V57.558L33.9026 63.4534Z" fill="url(#paint14_linear_99_15)" fill-opacity="0.2"/>
</g>
<defs>
<linearGradient id="paint0_linear_99_15" x1="-4.01747" y1="148.5" x2="238.352" y2="125.596" gradientUnits="userSpaceOnUse">
<stop stop-color="#FF3873"/>
<stop offset="0.473958" stop-color="#711EFF"/>
<stop offset="1" stop-color="#3FE5FF"/>
</linearGradient>
<linearGradient id="paint1_linear_99_15" x1="14.9537" y1="13.6686" x2="176.382" y2="158.632" gradientUnits="userSpaceOnUse">
<stop stop-color="#F6F063"/>
<stop offset="1" stop-color="#E07774" stop-opacity="0"/>
</linearGradient>
<radialGradient id="paint2_radial_99_15" cx="0" cy="0" r="1" gradientUnits="userSpaceOnUse" gradientTransform="translate(6.36086 104.403) rotate(64.3656) scale(67.1952 59.755)">
<stop offset="0.925861" stop-color="white"/>
<stop offset="1" stop-color="white" stop-opacity="0"/>
</radialGradient>
<radialGradient id="paint3_radial_99_15" cx="0" cy="0" r="1" gradientUnits="userSpaceOnUse" gradientTransform="translate(41.4019 76.8602) rotate(57.581) scale(42.8807 60.0377)">
<stop offset="0.0864251" stop-color="white"/>
<stop offset="0.94115" stop-color="white" stop-opacity="0"/>
</radialGradient>
<linearGradient id="paint4_linear_99_15" x1="27.6197" y1="82.4924" x2="151.701" y2="128.796" gradientUnits="userSpaceOnUse">
<stop stop-color="white"/>
<stop offset="1" stop-opacity="0"/>
</linearGradient>
<linearGradient id="paint5_linear_99_15" x1="-4.01738" y1="148.5" x2="238.352" y2="125.596" gradientUnits="userSpaceOnUse">
<stop stop-color="#FF3873"/>
<stop offset="0.473958" stop-color="#711EFF"/>
<stop offset="1" stop-color="#3FE5FF"/>
</linearGradient>
<linearGradient id="paint6_linear_99_15" x1="14.9538" y1="13.6686" x2="176.382" y2="158.632" gradientUnits="userSpaceOnUse">
<stop stop-color="#F6F063"/>
<stop offset="1" stop-color="#E07774" stop-opacity="0"/>
</linearGradient>
<radialGradient id="paint7_radial_99_15" cx="0" cy="0" r="1" gradientUnits="userSpaceOnUse" gradientTransform="translate(6.36096 104.403) rotate(64.3656) scale(67.1952 59.755)">
<stop offset="0.925861" stop-color="white"/>
<stop offset="1" stop-color="white" stop-opacity="0"/>
</radialGradient>
<radialGradient id="paint8_radial_99_15" cx="0" cy="0" r="1" gradientUnits="userSpaceOnUse" gradientTransform="translate(41.402 76.8603) rotate(57.581) scale(42.8807 60.0377)">
<stop offset="0.0864251" stop-color="white"/>
<stop offset="0.94115" stop-color="white" stop-opacity="0"/>
</radialGradient>
<linearGradient id="paint9_linear_99_15" x1="27.6198" y1="82.4924" x2="151.701" y2="128.796" gradientUnits="userSpaceOnUse">
<stop stop-color="white"/>
<stop offset="1" stop-opacity="0"/>
</linearGradient>
<linearGradient id="paint10_linear_99_15" x1="-4.01743" y1="148.5" x2="238.352" y2="125.596" gradientUnits="userSpaceOnUse">
<stop stop-color="#FF3873"/>
<stop offset="0.473958" stop-color="#711EFF"/>
<stop offset="1" stop-color="#3FE5FF"/>
</linearGradient>
<linearGradient id="paint11_linear_99_15" x1="14.9537" y1="13.6686" x2="176.382" y2="158.632" gradientUnits="userSpaceOnUse">
<stop stop-color="#F6F063"/>
<stop offset="1" stop-color="#E07774" stop-opacity="0"/>
</linearGradient>
<radialGradient id="paint12_radial_99_15" cx="0" cy="0" r="1" gradientUnits="userSpaceOnUse" gradientTransform="translate(6.3609 104.403) rotate(64.3656) scale(67.1952 59.755)">
<stop offset="0.925861" stop-color="white"/>
<stop offset="1" stop-color="white" stop-opacity="0"/>
</radialGradient>
<radialGradient id="paint13_radial_99_15" cx="0" cy="0" r="1" gradientUnits="userSpaceOnUse" gradientTransform="translate(41.4019 76.8602) rotate(57.581) scale(42.8807 60.0377)">
<stop offset="0.0864251" stop-color="white"/>
<stop offset="0.94115" stop-color="white" stop-opacity="0"/>
</radialGradient>
<linearGradient id="paint14_linear_99_15" x1="27.6198" y1="82.4924" x2="151.701" y2="128.796" gradientUnits="userSpaceOnUse">
<stop stop-color="white"/>
<stop offset="1" stop-opacity="0"/>
</linearGradient>
<clipPath id="clip0_99_15">
<rect width="242" height="297" fill="white"/>
</clipPath>
</defs>
</svg>

