<svg width="6589" height="2077" viewBox="0 0 6589 2077" fill="none" xmlns="http://www.w3.org/2000/svg">
<path d="M2665.55 388.086H3202.46C3316.99 388.086 3420.47 413.934 3512.87 465.629C3606.59 516.094 3680.12 589.33 3733.49 685.337C3788.15 781.344 3815.49 893.967 3815.49 1023.21C3815.49 1161.06 3788.81 1279.84 3735.44 1379.54C3682.08 1478.01 3608.53 1553.09 3514.82 1604.79C3422.41 1655.25 3318.29 1680.48 3202.46 1680.48H2665.55V388.086ZM3175.12 1460.77C3280.54 1460.77 3367.76 1423.85 3436.74 1350C3505.71 1276.15 3540.21 1167.22 3540.21 1023.21C3540.21 934.586 3523.95 858.888 3491.39 796.115C3458.86 733.34 3414.61 686.568 3358.63 655.796C3303.97 623.795 3242.79 607.794 3175.12 607.794H2936.93V1460.77H3175.12Z" fill="black"/>
<path d="M4419.8 949.356C4365.12 949.356 4321.51 970.894 4288.98 1013.97C4256.45 1057.05 4240.18 1107.52 4240.18 1165.37V1680.48H3988.31V749.957H4240.18V871.81C4259.7 832.423 4286.37 802.267 4320.21 781.344C4354.07 760.418 4393.76 749.957 4439.32 749.957H4560.37V949.356H4419.8Z" fill="black"/>
<path d="M4697.57 749.957H4949.44V1680.48H4697.57V749.957ZM4961.15 371.469V615.177H4689.77V371.469H4961.15Z" fill="black"/>
<path d="M5262.21 949.356H5078.7V749.957H5262.21V622.564C5262.21 533.941 5285.64 466.245 5332.49 419.472C5379.37 372.7 5446.38 349.312 5533.59 349.312H5773.73V548.711H5617.56C5582.42 548.711 5556.38 557.328 5539.45 574.559C5522.54 590.56 5514.08 617.639 5514.08 655.796V749.957H5793.26V949.356H5514.08V1680.48H5262.21V949.356Z" fill="black"/>
<path d="M6278.7 425.012V749.958H6544.23V949.357H6278.7V1379.54C6278.7 1447.24 6311.25 1481.08 6376.32 1481.08H6538.37V1680.48H6302.13C6213.63 1680.48 6145.29 1658.33 6097.14 1614.02C6050.28 1568.48 6026.85 1498.93 6026.85 1405.39V949.357H5843.34V749.958H6026.85V524.712L6278.7 425.012Z" fill="black"/>
<path d="M1529.77 1652.61C1529.77 1720.37 1503.07 1779.78 1460.21 1825.34C1459.71 1825.88 1459.36 1826.53 1459.2 1827.24C1458.56 1830.15 1461.31 1832.72 1464.37 1832C1587.96 1803.21 1687.89 1703.37 1687.89 1572.27V892.623C1687.89 691.715 1569.23 506.068 1376.59 405.614L598.787 0L444.709 82.4433L1218.48 485.949C1411.11 586.404 1529.77 772.051 1529.77 972.96V1652.61Z" fill="url(#paint0_linear_2003_149)"/>
<path d="M1529.77 1652.61C1529.77 1720.37 1503.07 1779.78 1460.21 1825.34C1459.71 1825.88 1459.36 1826.53 1459.2 1827.24C1458.56 1830.15 1461.31 1832.72 1464.37 1832C1587.96 1803.21 1687.89 1703.37 1687.89 1572.27V892.623C1687.89 691.715 1569.23 506.068 1376.59 405.614L598.787 0L444.709 82.4433L1218.48 485.949C1411.11 586.404 1529.77 772.051 1529.77 972.96V1652.61Z" fill="url(#paint1_linear_2003_149)"/>
<path d="M1529.77 1652.61C1529.77 1720.37 1503.07 1779.78 1460.21 1825.34C1459.71 1825.88 1459.36 1826.53 1459.2 1827.24C1458.56 1830.15 1461.31 1832.72 1464.37 1832C1587.96 1803.21 1687.89 1703.37 1687.89 1572.27V892.623C1687.89 691.715 1569.23 506.068 1376.59 405.614L598.787 0L444.709 82.4433L1218.48 485.949C1411.11 586.404 1529.77 772.051 1529.77 972.96V1652.61Z" fill="url(#paint2_radial_2003_149)" fill-opacity="0.2"/>
<path d="M1529.77 1652.61C1529.77 1720.37 1503.07 1779.78 1460.21 1825.34C1459.71 1825.88 1459.36 1826.53 1459.2 1827.24C1458.56 1830.15 1461.31 1832.72 1464.37 1832C1587.96 1803.21 1687.89 1703.37 1687.89 1572.27V892.623C1687.89 691.715 1569.23 506.068 1376.59 405.614L598.787 0L444.709 82.4433L1218.48 485.949C1411.11 586.404 1529.77 772.051 1529.77 972.96V1652.61Z" fill="url(#paint3_radial_2003_149)" fill-opacity="0.1"/>
<path d="M1529.77 1652.61C1529.77 1720.37 1503.07 1779.78 1460.21 1825.34C1459.71 1825.88 1459.36 1826.53 1459.2 1827.24C1458.56 1830.15 1461.31 1832.72 1464.37 1832C1587.96 1803.21 1687.89 1703.37 1687.89 1572.27V892.623C1687.89 691.715 1569.23 506.068 1376.59 405.614L598.787 0L444.709 82.4433L1218.48 485.949C1411.11 586.404 1529.77 772.051 1529.77 972.96V1652.61Z" fill="url(#paint4_linear_2003_149)" fill-opacity="0.2"/>
<path d="M1312.36 1768.64V1089C1312.36 888.091 1193.69 702.442 1001.06 601.989L227.296 198.482L381.375 116.039L1159.18 521.652C1351.81 622.107 1470.48 807.754 1470.48 1008.66V1688.31C1470.48 1819.41 1370.55 1919.25 1246.96 1948.04C1243.9 1948.76 1241.14 1946.19 1241.79 1943.28C1241.94 1942.57 1242.29 1941.92 1242.8 1941.38C1285.66 1895.82 1312.36 1836.41 1312.36 1768.64Z" fill="url(#paint5_linear_2003_149)"/>
<path d="M1312.36 1768.64V1089C1312.36 888.091 1193.69 702.442 1001.06 601.989L227.296 198.482L381.375 116.039L1159.18 521.652C1351.81 622.107 1470.48 807.754 1470.48 1008.66V1688.31C1470.48 1819.41 1370.55 1919.25 1246.96 1948.04C1243.9 1948.76 1241.14 1946.19 1241.79 1943.28C1241.94 1942.57 1242.29 1941.92 1242.8 1941.38C1285.66 1895.82 1312.36 1836.41 1312.36 1768.64Z" fill="url(#paint6_linear_2003_149)"/>
<path d="M1312.36 1768.64V1089C1312.36 888.091 1193.69 702.442 1001.06 601.989L227.296 198.482L381.375 116.039L1159.18 521.652C1351.81 622.107 1470.48 807.754 1470.48 1008.66V1688.31C1470.48 1819.41 1370.55 1919.25 1246.96 1948.04C1243.9 1948.76 1241.14 1946.19 1241.79 1943.28C1241.94 1942.57 1242.29 1941.92 1242.8 1941.38C1285.66 1895.82 1312.36 1836.41 1312.36 1768.64Z" fill="url(#paint7_radial_2003_149)" fill-opacity="0.2"/>
<path d="M1312.36 1768.64V1089C1312.36 888.091 1193.69 702.442 1001.06 601.989L227.296 198.482L381.375 116.039L1159.18 521.652C1351.81 622.107 1470.48 807.754 1470.48 1008.66V1688.31C1470.48 1819.41 1370.55 1919.25 1246.96 1948.04C1243.9 1948.76 1241.14 1946.19 1241.79 1943.28C1241.94 1942.57 1242.29 1941.92 1242.8 1941.38C1285.66 1895.82 1312.36 1836.41 1312.36 1768.64Z" fill="url(#paint8_radial_2003_149)" fill-opacity="0.1"/>
<path d="M1312.36 1768.64V1089C1312.36 888.091 1193.69 702.442 1001.06 601.989L227.296 198.482L381.375 116.039L1159.18 521.652C1351.81 622.107 1470.48 807.754 1470.48 1008.66V1688.31C1470.48 1819.41 1370.55 1919.25 1246.96 1948.04C1243.9 1948.76 1241.14 1946.19 1241.79 1943.28C1241.94 1942.57 1242.29 1941.92 1242.8 1941.38C1285.66 1895.82 1312.36 1836.41 1312.36 1768.64Z" fill="url(#paint9_linear_2003_149)" fill-opacity="0.2"/>
<path fill-rule="evenodd" clip-rule="evenodd" d="M0 320.06L156.085 236.543L933.89 642.157C1126.52 742.611 1245.19 928.258 1245.19 1129.17V1812.16L1245.17 1812.15C1242.52 2016.34 997.058 2143.24 800.479 2040.72L95.5311 1673.1L0 1624.57V320.06ZM1087.07 1211.62V1606.18L563.3 1333.04V613.813L775.772 724.614C968.405 825.067 1087.07 1010.71 1087.07 1211.62ZM365.651 510.742L444.709 551.97V1394.85L453.01 1399.06L1087.07 1729.71V1806.04L366.671 1430.36L365.651 1430.91V510.742ZM237.179 443.745V1495.74L240.894 1497.66L237.179 1499.65L1086.1 1942.35C1079 1977.66 1034.4 1997.8 998.126 1978.88L158.119 1540.83V402.517L237.179 443.745Z" fill="url(#paint10_linear_2003_149)"/>
<path fill-rule="evenodd" clip-rule="evenodd" d="M0 320.06L156.085 236.543L933.89 642.157C1126.52 742.611 1245.19 928.258 1245.19 1129.17V1812.16L1245.17 1812.15C1242.52 2016.34 997.058 2143.24 800.479 2040.72L95.5311 1673.1L0 1624.57V320.06ZM1087.07 1211.62V1606.18L563.3 1333.04V613.813L775.772 724.614C968.405 825.067 1087.07 1010.71 1087.07 1211.62ZM365.651 510.742L444.709 551.97V1394.85L453.01 1399.06L1087.07 1729.71V1806.04L366.671 1430.36L365.651 1430.91V510.742ZM237.179 443.745V1495.74L240.894 1497.66L237.179 1499.65L1086.1 1942.35C1079 1977.66 1034.4 1997.8 998.126 1978.88L158.119 1540.83V402.517L237.179 443.745Z" fill="url(#paint11_linear_2003_149)"/>
<path fill-rule="evenodd" clip-rule="evenodd" d="M0 320.06L156.085 236.543L933.89 642.157C1126.52 742.611 1245.19 928.258 1245.19 1129.17V1812.16L1245.17 1812.15C1242.52 2016.34 997.058 2143.24 800.479 2040.72L95.5311 1673.1L0 1624.57V320.06ZM1087.07 1211.62V1606.18L563.3 1333.04V613.813L775.772 724.614C968.405 825.067 1087.07 1010.71 1087.07 1211.62ZM365.651 510.742L444.709 551.97V1394.85L453.01 1399.06L1087.07 1729.71V1806.04L366.671 1430.36L365.651 1430.91V510.742ZM237.179 443.745V1495.74L240.894 1497.66L237.179 1499.65L1086.1 1942.35C1079 1977.66 1034.4 1997.8 998.126 1978.88L158.119 1540.83V402.517L237.179 443.745Z" fill="url(#paint12_radial_2003_149)" fill-opacity="0.2"/>
<path fill-rule="evenodd" clip-rule="evenodd" d="M0 320.06L156.085 236.543L933.89 642.157C1126.52 742.611 1245.19 928.258 1245.19 1129.17V1812.16L1245.17 1812.15C1242.52 2016.34 997.058 2143.24 800.479 2040.72L95.5311 1673.1L0 1624.57V320.06ZM1087.07 1211.62V1606.18L563.3 1333.04V613.813L775.772 724.614C968.405 825.067 1087.07 1010.71 1087.07 1211.62ZM365.651 510.742L444.709 551.97V1394.85L453.01 1399.06L1087.07 1729.71V1806.04L366.671 1430.36L365.651 1430.91V510.742ZM237.179 443.745V1495.74L240.894 1497.66L237.179 1499.65L1086.1 1942.35C1079 1977.66 1034.4 1997.8 998.126 1978.88L158.119 1540.83V402.517L237.179 443.745Z" fill="url(#paint13_radial_2003_149)" fill-opacity="0.1"/>
<path fill-rule="evenodd" clip-rule="evenodd" d="M0 320.06L156.085 236.543L933.89 642.157C1126.52 742.611 1245.19 928.258 1245.19 1129.17V1812.16L1245.17 1812.15C1242.52 2016.34 997.058 2143.24 800.479 2040.72L95.5311 1673.1L0 1624.57V320.06ZM1087.07 1211.62V1606.18L563.3 1333.04V613.813L775.772 724.614C968.405 825.067 1087.07 1010.71 1087.07 1211.62ZM365.651 510.742L444.709 551.97V1394.85L453.01 1399.06L1087.07 1729.71V1806.04L366.671 1430.36L365.651 1430.91V510.742ZM237.179 443.745V1495.74L240.894 1497.66L237.179 1499.65L1086.1 1942.35C1079 1977.66 1034.4 1997.8 998.126 1978.88L158.119 1540.83V402.517L237.179 443.745Z" fill="url(#paint14_linear_2003_149)" fill-opacity="0.2"/>
<defs>
<linearGradient id="paint0_linear_2003_149" x1="-28.1055" y1="1038.5" x2="1667.47" y2="878.21" gradientUnits="userSpaceOnUse">
<stop stop-color="#FF3873"/>
<stop offset="0.473958" stop-color="#711EFF"/>
<stop offset="1" stop-color="#3FE5FF"/>
</linearGradient>
<linearGradient id="paint1_linear_2003_149" x1="104.615" y1="95.5881" x2="1233.57" y2="1109.78" gradientUnits="userSpaceOnUse">
<stop stop-color="#F6F063"/>
<stop offset="1" stop-color="#E07774" stop-opacity="0"/>
</linearGradient>
<radialGradient id="paint2_radial_2003_149" cx="0" cy="0" r="1" gradientUnits="userSpaceOnUse" gradientTransform="translate(44.5003 730.12) rotate(64.3572) scale(469.947 418.01)">
<stop offset="0.925861" stop-color="white"/>
<stop offset="1" stop-color="white" stop-opacity="0"/>
</radialGradient>
<radialGradient id="paint3_radial_2003_149" cx="0" cy="0" r="1" gradientUnits="userSpaceOnUse" gradientTransform="translate(289.644 537.504) rotate(57.5713) scale(299.908 419.972)">
<stop offset="0.0864251" stop-color="white"/>
<stop offset="0.94115" stop-color="white" stop-opacity="0"/>
</radialGradient>
<linearGradient id="paint4_linear_2003_149" x1="193.225" y1="576.891" x2="1061.21" y2="900.918" gradientUnits="userSpaceOnUse">
<stop stop-color="white"/>
<stop offset="1" stop-opacity="0"/>
</linearGradient>
<linearGradient id="paint5_linear_2003_149" x1="-28.1056" y1="1038.5" x2="1667.47" y2="878.208" gradientUnits="userSpaceOnUse">
<stop stop-color="#FF3873"/>
<stop offset="0.473958" stop-color="#711EFF"/>
<stop offset="1" stop-color="#3FE5FF"/>
</linearGradient>
<linearGradient id="paint6_linear_2003_149" x1="104.615" y1="95.5865" x2="1233.57" y2="1109.78" gradientUnits="userSpaceOnUse">
<stop stop-color="#F6F063"/>
<stop offset="1" stop-color="#E07774" stop-opacity="0"/>
</linearGradient>
<radialGradient id="paint7_radial_2003_149" cx="0" cy="0" r="1" gradientUnits="userSpaceOnUse" gradientTransform="translate(44.5001 730.118) rotate(64.3572) scale(469.947 418.01)">
<stop offset="0.925861" stop-color="white"/>
<stop offset="1" stop-color="white" stop-opacity="0"/>
</radialGradient>
<radialGradient id="paint8_radial_2003_149" cx="0" cy="0" r="1" gradientUnits="userSpaceOnUse" gradientTransform="translate(289.644 537.502) rotate(57.5713) scale(299.908 419.972)">
<stop offset="0.0864251" stop-color="white"/>
<stop offset="0.94115" stop-color="white" stop-opacity="0"/>
</radialGradient>
<linearGradient id="paint9_linear_2003_149" x1="193.225" y1="576.889" x2="1061.21" y2="900.916" gradientUnits="userSpaceOnUse">
<stop stop-color="white"/>
<stop offset="1" stop-opacity="0"/>
</linearGradient>
<linearGradient id="paint10_linear_2003_149" x1="-28.1055" y1="1038.5" x2="1667.47" y2="878.209" gradientUnits="userSpaceOnUse">
<stop stop-color="#FF3873"/>
<stop offset="0.473958" stop-color="#711EFF"/>
<stop offset="1" stop-color="#3FE5FF"/>
</linearGradient>
<linearGradient id="paint11_linear_2003_149" x1="104.615" y1="95.5867" x2="1233.57" y2="1109.78" gradientUnits="userSpaceOnUse">
<stop stop-color="#F6F063"/>
<stop offset="1" stop-color="#E07774" stop-opacity="0"/>
</linearGradient>
<radialGradient id="paint12_radial_2003_149" cx="0" cy="0" r="1" gradientUnits="userSpaceOnUse" gradientTransform="translate(44.5002 730.118) rotate(64.3572) scale(469.947 418.01)">
<stop offset="0.925861" stop-color="white"/>
<stop offset="1" stop-color="white" stop-opacity="0"/>
</radialGradient>
<radialGradient id="paint13_radial_2003_149" cx="0" cy="0" r="1" gradientUnits="userSpaceOnUse" gradientTransform="translate(289.644 537.502) rotate(57.5713) scale(299.909 419.972)">
<stop offset="0.0864251" stop-color="white"/>
<stop offset="0.94115" stop-color="white" stop-opacity="0"/>
</radialGradient>
<linearGradient id="paint14_linear_2003_149" x1="193.225" y1="576.89" x2="1061.21" y2="900.917" gradientUnits="userSpaceOnUse">
<stop stop-color="white"/>
<stop offset="1" stop-opacity="0"/>
</linearGradient>
</defs>
</svg>
