<svg width="64" height="28" viewBox="0 0 64 28" fill="none" xmlns="http://www.w3.org/2000/svg">
<g clip-path="url(#clip0_99_58)">
<path fill-rule="evenodd" clip-rule="evenodd" d="M10.1443 4.48227e-05L10.9486 2.8317L6.80671 11.9091L5.59351 9.97508L10.1443 4.48227e-05Z" fill="url(#paint0_linear_99_58)"/>
<path fill-rule="evenodd" clip-rule="evenodd" d="M9.92124 8.6516L10.7469 10.705L1.35267 27.9218L0 26.9113L9.92124 8.6516Z" fill="url(#paint1_linear_99_58)"/>
<path fill-rule="evenodd" clip-rule="evenodd" d="M4.31987 13.4532L5.64861 15.0712L2.51899 16.4358L0.880371 14.9519L4.31987 13.4532Z" fill="url(#paint2_linear_99_58)"/>
<path fill-rule="evenodd" clip-rule="evenodd" d="M3.16313 2.158L10.1485 0L10.16 0.0402144L5.60127 10.0129L9.92124 8.66194L9.93669 8.69782L0.0225494 26.9275L0 26.9075L4.33663 13.5028L0.91271 14.99L0.88331 14.9618L3.16313 2.158ZM3.59375 2.59916L1.55902 14.1199L5.17485 12.544L2.15215 21.9401L8.86303 9.59732L4.64891 10.8734L9.20765 0.900526L3.59375 2.59916Z" fill="white"/>
<path fill-rule="evenodd" clip-rule="evenodd" d="M3.57498 2.56485L1.54053 14.078L5.15585 12.5032L2.13341 21.8932L8.84331 9.55834L4.62998 10.8335L9.18807 0.867324L3.57498 2.56485Z" fill="url(#paint3_linear_99_58)"/>
<path fill-rule="evenodd" clip-rule="evenodd" d="M2.16406 13.8077L5.16337 12.4995L5.63139 13.0609L3.72962 18.9741L8.39303 10.3944L5.1057 11.3891L4.63768 10.8286L8.82123 1.67111L4.05122 3.11487L2.16406 13.8077Z" fill="url(#paint4_linear_99_58)"/>
<path fill-rule="evenodd" clip-rule="evenodd" d="M3.1495 2.11769L10.1417 0L5.586 9.97221L9.91441 8.66154L0 26.9063L4.32222 13.462L0.882717 14.9612L3.1495 2.11769ZM3.57983 2.55883L1.54647 14.0789L5.15987 12.503L2.13919 21.8987L8.84552 9.55651L4.63428 10.8325L9.18993 0.860276L3.57983 2.55883Z" fill="url(#paint5_linear_99_58)"/>
<path d="M31.5437 18.3395L37.6994 7.1497H40.4019L42.804 18.3395H39.9514L39.501 16.2577H35.6725L34.5465 18.3395H31.5437Z" stroke="#06D7A0" stroke-width="0.0821138"/>
<path d="M36.7888 13.7494L38.5305 10.4496L39.1363 13.7494H36.7888Z" fill="black" stroke="#221C00" stroke-width="0.036962"/>
<path d="M14.8549 18.3395L16.8069 7.1497H24.4647L23.9392 9.83874H19.2844L18.909 11.9206H23.0382L22.5878 14.6096H18.4585L17.7829 18.3395H14.8549Z" stroke="#06D7A0" stroke-width="0.102642"/>
<path d="M23.8778 18.4242L25.8301 7.1497H28.9087L27.4069 15.5622H31.8371L31.3115 18.4242H23.8778Z" stroke="#06D7A0" stroke-width="0.0821138"/>
<path d="M52.7256 18.3395L54.681 7.1497H57.6138L56.937 11.1399H60.246L60.9979 7.1497H63.931L61.9754 18.3395H59.0429L59.7198 14.0892H56.4105L55.6585 18.3395H52.7256Z" stroke="#06D7A0" stroke-width="0.0821138"/>
<path d="M45.9681 7.93694C48.5516 6.20475 51.5007 7.21519 52.6523 7.93694L51.5258 10.4486C50.5494 9.66915 48.8971 9.32273 47.9959 9.75569C47.2749 10.1022 47.345 10.5929 47.4702 10.795C47.6204 10.9682 48.1271 11.283 48.8971 11.4879C49.8735 11.7477 50.5244 12.0653 50.8498 12.2674C53.0128 13.7917 51.7511 16.309 50.8498 17.3773C48.2062 19.733 44.6413 18.3589 43.1892 17.3773L44.3909 14.779C44.9918 15.5585 48.2212 16.4246 48.8971 15.5585C49.4378 14.8657 48.8721 14.5192 48.5216 14.4326C46.2385 13.9476 45.3172 13.1912 45.1419 12.8736C43.6999 10.7258 45.0918 8.68756 45.9681 7.93694Z" stroke="#06D7A0" stroke-width="0.0821138"/>
<path d="M30.8835 18.3395L37.0492 7.1497H39.7561L42.1622 18.3395H39.3049L38.8538 16.2577H35.019L33.8911 18.3395H30.8835Z" fill="url(#paint6_linear_99_58)" stroke="url(#paint7_linear_99_58)" stroke-width="0.102642"/>
<path d="M36.1469 13.7494L37.8749 10.4496L38.476 13.7494H36.1469Z" fill="white" stroke="url(#paint8_linear_99_58)" stroke-width="0.036962"/>
<path d="M14.1947 18.3395L16.1504 7.1497H23.8228L23.2963 9.83874H18.6327L18.2566 11.9206H22.3937L21.9424 14.6096H17.8053L17.1283 18.3395H14.1947Z" fill="url(#paint9_linear_99_58)" stroke="url(#paint10_linear_99_58)" stroke-width="0.102642"/>
<path d="M23.2177 18.4242L25.1699 7.1497H28.2485L26.7467 15.5622H31.1769L30.6514 18.4242H23.2177Z" fill="url(#paint11_linear_99_58)" stroke="url(#paint12_linear_99_58)" stroke-width="0.102642"/>
<path d="M52.0654 18.3395L54.0207 7.1497H56.9536L56.2768 11.1399H59.5858L60.3376 7.1497H63.2708L61.3152 18.3395H58.3826L59.0595 14.0892H55.7504L54.9983 18.3395H52.0654Z" fill="url(#paint13_linear_99_58)" stroke="url(#paint14_linear_99_58)" stroke-width="0.102642"/>
<path d="M45.3078 7.93694C47.8914 6.20475 50.8405 7.21519 51.992 7.93694L50.8656 10.4486C49.8891 9.66915 48.2368 9.32273 47.3356 9.75569C46.6147 10.1022 46.6847 10.5929 46.8099 10.795C46.9601 10.9682 47.4668 11.283 48.2368 11.4879C49.2132 11.7477 49.8642 12.0653 50.1896 12.2674C52.3526 13.7917 51.0908 16.309 50.1896 17.3773C47.5459 19.733 43.9809 18.3589 42.5289 17.3773L43.7307 14.779C44.3314 15.5585 47.5609 16.4246 48.2368 15.5585C48.7776 14.8657 48.2118 14.5192 47.8613 14.4326C45.5782 13.9476 44.6569 13.1912 44.4816 12.8736C43.0396 10.7258 44.4316 8.68756 45.3078 7.93694Z" fill="url(#paint15_linear_99_58)" stroke="url(#paint16_linear_99_58)" stroke-width="0.102642"/>
<path d="M43.5376 19.7567L43.3769 20.4971H42.0705L41.3718 23.6065H40.1772L40.8758 20.4971H39.5763L39.744 19.7567H43.5376Z" fill="black"/>
<path d="M46.1461 19.7567C46.6527 19.7567 47.0384 19.8481 47.3033 20.031C47.5683 20.21 47.7007 20.4441 47.7007 20.733C47.7007 20.817 47.6914 20.8956 47.6728 20.9687C47.617 21.2246 47.4753 21.4531 47.2476 21.6543C47.0199 21.8553 46.7154 21.9979 46.3343 22.082L47.1221 23.6065H45.7766L45.0865 22.1532H44.8006L44.473 23.6065H43.2809L44.1454 19.7567H46.1461ZM46.4529 21.0071C46.4621 20.9486 46.4667 20.9102 46.4667 20.8919C46.4667 20.775 46.418 20.6854 46.3204 20.6233C46.2274 20.5574 46.088 20.5245 45.9021 20.5245H45.1632L44.947 21.4897H45.686C45.9045 21.4897 46.0764 21.4477 46.2018 21.3636C46.332 21.2794 46.4156 21.1607 46.4529 21.0071Z" fill="black"/>
<path d="M51.0461 22.9265H49.2153L48.7681 23.6065H47.5173L50.1587 19.7567H51.5422L52.4506 23.6065H51.1859L51.0461 22.9265ZM50.9064 22.2136L50.6198 20.7878L49.6835 22.2136H50.9064Z" fill="black"/>
<path d="M55.6978 19.7567C56.1485 19.7567 56.5364 19.8207 56.8617 19.9487C57.1915 20.073 57.4424 20.2504 57.6143 20.4806C57.7908 20.7074 57.8791 20.9742 57.8791 21.2814C57.8791 21.3873 57.8629 21.5208 57.8303 21.6816C57.7466 22.0582 57.5655 22.3927 57.2868 22.6853C57.0126 22.9777 56.6619 23.2044 56.2344 23.3653C55.8117 23.5261 55.3447 23.6065 54.8337 23.6065H53.0009L53.865 19.7567H55.6978ZM54.9382 22.8059C55.3889 22.8059 55.7629 22.7071 56.0602 22.5098C56.3575 22.3123 56.5434 22.0362 56.6177 21.6816C56.641 21.5719 56.6526 21.4806 56.6526 21.4074C56.6526 21.1369 56.548 20.9285 56.339 20.7822C56.1299 20.6323 55.8326 20.5574 55.4469 20.5574H54.8755L54.3737 22.8059H54.9382Z" fill="black"/>
<path d="M59.9735 20.4971L59.7988 21.2977H61.3984L61.2383 22.0052H59.6386L59.443 22.8662H61.2522L61.0844 23.6065H58.0808L58.9467 19.7567H61.9504L61.7827 20.4971H59.9735Z" fill="black"/>
<path d="M38.646 22.4432H39.7413L39.498 23.6065H38.4026L38.646 22.4432Z" fill="black"/>
</g>
<defs>
<linearGradient id="paint0_linear_99_58" x1="8.07619" y1="0.665158" x2="8.56105" y2="12.3081" gradientUnits="userSpaceOnUse">
<stop stop-color="#01E1E0"/>
<stop offset="0.5804" stop-color="#FFAA00"/>
<stop offset="0.9235" stop-color="#FF8400"/>
</linearGradient>
<linearGradient id="paint1_linear_99_58" x1="4.9823" y1="9.72785" x2="5.61528" y2="28.5789" gradientUnits="userSpaceOnUse">
<stop stop-color="#03CEA4"/>
<stop offset="0.5804" stop-color="#FFAA00"/>
<stop offset="0.9235" stop-color="#FF7A00"/>
</linearGradient>
<linearGradient id="paint2_linear_99_58" x1="2.02894" y1="17.6867" x2="5.64332" y2="13.8313" gradientUnits="userSpaceOnUse">
<stop stop-color="#2ED8BA"/>
<stop offset="0.5804" stop-color="#FFAA00"/>
<stop offset="0.9235" stop-color="#FF8400"/>
</linearGradient>
<linearGradient id="paint3_linear_99_58" x1="5.43142" y1="2.89998" x2="5.09023" y2="21.9496" gradientUnits="userSpaceOnUse">
<stop offset="0.3112" stop-color="#FFA500"/>
<stop offset="0.9541" stop-color="#FF8A00"/>
</linearGradient>
<linearGradient id="paint4_linear_99_58" x1="8.41765" y1="-2.59844" x2="2.13732" y2="20.9389" gradientUnits="userSpaceOnUse">
<stop offset="0.0469" stop-color="#FFF700"/>
<stop offset="0.380208" stop-color="#FAC400"/>
<stop offset="0.65625" stop-color="#FAA900"/>
<stop offset="0.9541" stop-color="#E04300"/>
</linearGradient>
<linearGradient id="paint5_linear_99_58" x1="5.42291" y1="2.73611" x2="4.73945" y2="20.7976" gradientUnits="userSpaceOnUse">
<stop stop-color="#FFF200"/>
<stop offset="0.0469" stop-color="#FFEB00"/>
<stop offset="0.3112" stop-color="#FFC500"/>
<stop offset="0.75" stop-color="#FFF200"/>
<stop offset="0.9541" stop-color="#FFCD00"/>
</linearGradient>
<linearGradient id="paint6_linear_99_58" x1="36.5229" y1="7.1497" x2="36.5229" y2="18.3395" gradientUnits="userSpaceOnUse">
<stop offset="0.0001"/>
</linearGradient>
<linearGradient id="paint7_linear_99_58" x1="36.5229" y1="7.1497" x2="36.5229" y2="18.3395" gradientUnits="userSpaceOnUse">
<stop stop-color="#FFC762"/>
<stop offset="0.432292" stop-color="#FFD384"/>
<stop offset="1" stop-color="#413726"/>
</linearGradient>
<linearGradient id="paint8_linear_99_58" x1="37.3114" y1="10.4496" x2="37.3114" y2="13.7494" gradientUnits="userSpaceOnUse">
<stop stop-color="#FFBE62"/>
<stop offset="0.432292" stop-color="#FFD384"/>
<stop offset="1" stop-color="#261900"/>
</linearGradient>
<linearGradient id="paint9_linear_99_58" x1="19.0088" y1="7.1497" x2="19.0088" y2="18.3395" gradientUnits="userSpaceOnUse">
<stop offset="0.0001"/>
</linearGradient>
<linearGradient id="paint10_linear_99_58" x1="19.0088" y1="7.1497" x2="19.0088" y2="18.3395" gradientUnits="userSpaceOnUse">
<stop stop-color="#FFC762"/>
<stop offset="0.432292" stop-color="#FFD384"/>
<stop offset="1" stop-color="#413726"/>
</linearGradient>
<linearGradient id="paint11_linear_99_58" x1="27.1973" y1="7.1497" x2="27.1973" y2="18.4242" gradientUnits="userSpaceOnUse">
<stop offset="0.411458" stop-opacity="0.92"/>
</linearGradient>
<linearGradient id="paint12_linear_99_58" x1="27.1973" y1="7.1497" x2="27.1973" y2="18.4242" gradientUnits="userSpaceOnUse">
<stop stop-color="#FFC762"/>
<stop offset="0.432292" stop-color="#FFD384"/>
<stop offset="1" stop-color="#413726"/>
</linearGradient>
<linearGradient id="paint13_linear_99_58" x1="57.6681" y1="7.1497" x2="57.6681" y2="18.3395" gradientUnits="userSpaceOnUse">
<stop offset="0.0001"/>
</linearGradient>
<linearGradient id="paint14_linear_99_58" x1="57.6681" y1="7.1497" x2="57.6681" y2="18.3395" gradientUnits="userSpaceOnUse">
<stop stop-color="#FCD501"/>
<stop offset="0.432292" stop-color="#FBB901"/>
<stop offset="1"/>
</linearGradient>
<linearGradient id="paint15_linear_99_58" x1="47.2604" y1="6.98052" x2="47.2604" y2="18.6781" gradientUnits="userSpaceOnUse">
<stop/>
</linearGradient>
<linearGradient id="paint16_linear_99_58" x1="47.2604" y1="6.98052" x2="47.2604" y2="18.6781" gradientUnits="userSpaceOnUse">
<stop stop-color="#FFC762"/>
<stop offset="0.432292" stop-color="#FFD384"/>
<stop offset="1" stop-color="#413726"/>
</linearGradient>
<clipPath id="clip0_99_58">
<rect width="64" height="28" fill="white"/>
</clipPath>
</defs>
</svg>

