<svg width="63" height="26" viewBox="0 0 63 26" fill="none" xmlns="http://www.w3.org/2000/svg">
<g clip-path="url(#clip0_379_23)">
<path d="M27.6008 18.6197C26.4588 18.6197 25.4786 18.3695 24.6589 17.8697C23.8393 17.3693 23.2093 16.6967 22.7689 15.8507C22.3279 15.0047 22.1074 14.0651 22.1074 13.0325C22.1074 11.9993 22.3329 11.0603 22.7856 10.2143C23.2377 9.36831 23.8789 8.69511 24.7096 8.19531C25.5403 7.69551 26.5156 7.44531 27.6341 7.44531C28.8441 7.44531 29.8923 7.73391 30.7792 8.31051C31.6668 8.88711 32.3196 9.63171 32.7378 10.5437H31.3474C31.0084 9.96171 30.5359 9.50031 29.9312 9.15951C29.3265 8.81931 28.5946 8.64831 27.7354 8.64831C26.8312 8.64831 26.0517 8.84391 25.3958 9.23391C24.7405 9.62391 24.2396 10.1483 23.8955 10.8077C23.5503 11.4665 23.3779 12.2087 23.3779 13.0325C23.3779 13.8563 23.5478 14.5841 23.8869 15.2489C24.2254 15.9137 24.7201 16.4417 25.3699 16.8317C26.0202 17.2217 26.7972 17.4167 27.7015 17.4167C28.3796 17.4167 29.0214 17.2739 29.6254 16.9883C30.2301 16.7021 30.7218 16.2905 31.101 15.7517C31.4796 15.2141 31.6692 14.5655 31.6692 13.8071H27.5656V12.6863H32.8391V18.4877H31.6692V16.5593C31.4314 16.9115 31.1263 17.2433 30.7533 17.5565C30.3802 17.8703 29.9312 18.1253 29.4049 18.3227C28.8793 18.5207 28.2777 18.6197 27.5996 18.6197H27.6008ZM38.3028 18.3383C37.477 18.3383 36.7568 18.1487 36.141 17.7701C35.5246 17.3909 35.0471 16.8773 34.7081 16.2287C34.3696 15.5807 34.1997 14.8667 34.1997 14.0867C34.1997 13.3067 34.3696 12.5783 34.7081 11.9357C35.0471 11.2925 35.5252 10.7819 36.141 10.4027C36.7568 10.0235 37.477 9.83451 38.3028 9.83451C39.0032 9.83451 39.6054 9.96591 40.1081 10.2299C40.6109 10.4939 41.021 10.8509 41.3373 11.3015V9.96651H42.609V18.2069H41.3373V16.8887C41.021 17.3279 40.6109 17.6795 40.1081 17.9435C39.6054 18.2069 39.0032 18.3389 38.3028 18.3389V18.3383ZM38.472 17.0993C39.1051 17.0993 39.6394 16.9565 40.0748 16.6709C40.5096 16.3853 40.8401 16.0031 41.0667 15.5255C41.2922 15.0479 41.4058 14.5289 41.4058 13.9679C41.4058 13.4075 41.2922 12.8747 41.0667 12.4025C40.8401 11.9303 40.5096 11.5511 40.0748 11.2655C39.6394 10.9793 39.1051 10.8365 38.472 10.8365C37.8389 10.8365 37.3133 10.9793 36.8612 11.2655C36.4091 11.5511 36.0644 11.9303 35.8272 12.4025C35.5894 12.8747 35.4709 13.3967 35.4709 13.9679C35.4709 14.5397 35.5894 15.0479 35.8272 15.5255C36.065 16.0037 36.4091 16.3859 36.8612 16.6709C37.3133 16.9565 37.8506 17.0993 38.472 17.0993ZM44.4471 18.5399V7.00311H45.7189V18.5399H44.4471ZM46.5928 18.1925L49.8657 13.9409L46.7966 9.95211H48.4248L50.6119 13.0667L52.7823 9.95211H54.4098L51.3413 13.9409L54.6303 18.1925H53.0021L50.6119 14.8307L48.2036 18.1925H46.5928ZM58.8432 18.3383C57.9841 18.3383 57.2324 18.1487 56.5882 17.7701C55.944 17.3909 55.4437 16.8773 55.0879 16.2287C54.7316 15.5807 54.5537 14.8667 54.5537 14.0867C54.5537 13.3067 54.7235 12.5783 55.062 11.9357C55.4011 11.2925 55.8872 10.7819 56.5203 10.4027C57.1534 10.0235 57.8995 9.83451 58.7586 9.83451C59.6178 9.83451 60.3775 10.0235 61.005 10.4027C61.6325 10.7819 62.1155 11.2925 62.4546 11.9357C62.7937 12.5783 62.9636 13.2953 62.9636 14.0867V14.5811H55.8588C55.9267 15.0647 56.0879 15.5063 56.3424 15.9077C56.5969 16.3091 56.9384 16.6277 57.3683 16.8635C57.7976 17.0993 58.2954 17.2175 58.8605 17.2175C59.4596 17.2175 59.9624 17.0885 60.3694 16.8305C60.7765 16.5725 61.0921 16.2401 61.3188 15.8333H62.7091C62.4151 16.5695 61.9488 17.1707 61.3101 17.6381C60.6715 18.1049 59.8494 18.3383 58.8432 18.3383ZM55.8761 13.3091H61.6406C61.5275 12.6065 61.2224 12.0179 60.7252 11.5457C60.2274 11.0735 59.5714 10.8371 58.758 10.8371C57.9446 10.8371 57.2911 11.0735 56.8001 11.5457C56.3078 12.0179 56.0002 12.6065 55.8761 13.3091ZM13.3443 8.41731L1.29274 15.1805L12.4894 7.14831C12.8644 6.87951 13.3968 6.98751 13.6296 7.37991C13.8452 7.74351 13.7173 8.20791 13.3436 8.41791L13.3443 8.41731ZM15.0663 13.5353C14.9044 13.2629 14.5462 13.1705 14.2664 13.3277L6.28765 17.8049L14.7846 14.3453C15.1101 14.2127 15.2423 13.8329 15.0663 13.5353ZM19.0915 8.19591C18.7542 7.62771 17.9939 7.45191 17.43 7.81131L0 18.9101L18.6029 9.78651C19.2057 9.49071 19.4293 8.76351 19.0915 8.19591Z" fill="black"/>
</g>
<defs>
<clipPath id="clip0_379_23">
<rect width="63" height="12" fill="white" transform="translate(0 7)"/>
</clipPath>
</defs>
</svg>
