<svg width="84" height="16" viewBox="0 0 84 16" fill="none" xmlns="http://www.w3.org/2000/svg">
<g clip-path="url(#clip0_41_492)">
<path d="M36.8011 15.4929C35.2784 15.4929 33.9714 15.1593 32.8786 14.4929C31.7858 13.8257 30.9458 12.9289 30.3586 11.8009C29.7706 10.6729 29.4766 9.42015 29.4766 8.04335C29.4766 6.66575 29.7772 5.41375 30.3808 4.28575C30.9836 3.15775 31.8385 2.26015 32.9461 1.59375C34.0538 0.927349 35.3541 0.593749 36.8455 0.593749C38.4588 0.593749 39.8564 0.978549 41.0389 1.74735C42.2224 2.51615 43.0928 3.50895 43.6504 4.72495H41.7966C41.3445 3.94895 40.7145 3.33375 39.9082 2.87935C39.102 2.42575 38.1261 2.19775 36.9806 2.19775C35.7749 2.19775 34.7356 2.45855 33.8611 2.97855C32.9873 3.49855 32.3194 4.19775 31.8607 5.07695C31.4004 5.95535 31.1706 6.94495 31.1706 8.04335C31.1706 9.14175 31.3971 10.1121 31.8492 10.9985C32.3005 11.8849 32.9601 12.5889 33.8265 13.1089C34.6936 13.6289 35.7296 13.8889 36.9353 13.8889C37.8395 13.8889 38.6952 13.6985 39.5006 13.3177C40.3068 12.9361 40.9624 12.3873 41.468 11.6689C41.9728 10.9521 42.2256 10.0873 42.2256 9.07615H36.7541V7.58175H43.7854V15.3169H42.2256V12.7457C41.9086 13.2153 41.5018 13.6577 41.0044 14.0753C40.5069 14.4937 39.9082 14.8337 39.2066 15.0969C38.5058 15.361 37.7036 15.4929 36.7994 15.4929H36.8011ZM51.0704 15.1177C49.9693 15.1177 49.0091 14.865 48.188 14.3602C47.3661 13.8546 46.7295 13.1697 46.2774 12.3049C45.8261 11.4409 45.5996 10.4889 45.5996 9.44895C45.5996 8.40895 45.8261 7.43775 46.2774 6.58095C46.7295 5.72335 47.3669 5.04255 48.188 4.53695C49.0091 4.03135 49.9693 3.77935 51.0704 3.77935C52.0042 3.77935 52.8072 3.95455 53.4775 4.30655C54.1479 4.65855 54.6947 5.13455 55.1164 5.73535V3.95535H56.812V14.9425H55.1164V13.185C54.6947 13.7706 54.1479 14.2394 53.4775 14.5913C52.8072 14.9425 52.0042 15.1186 51.0704 15.1186V15.1177ZM51.296 13.4658C52.1401 13.4658 52.8525 13.2753 53.4331 12.8945C54.0128 12.5138 54.4534 12.0041 54.7556 11.3673C55.0562 10.7305 55.2078 10.0385 55.2078 9.29055C55.2078 8.54335 55.0562 7.83295 54.7556 7.20335C54.4534 6.57375 54.0128 6.06815 53.4331 5.68735C52.8525 5.30575 52.1401 5.11535 51.296 5.11535C50.4519 5.11535 49.7511 5.30575 49.1482 5.68735C48.5454 6.06815 48.0859 6.57375 47.7696 7.20335C47.4526 7.83295 47.2945 8.52895 47.2945 9.29055C47.2945 10.0529 47.4526 10.7305 47.7696 11.3673C48.0867 12.0049 48.5454 12.5146 49.1482 12.8945C49.7511 13.2753 50.4675 13.4658 51.296 13.4658ZM59.2628 15.3865V0.00414878H60.9585V15.3865H59.2628ZM62.1238 14.9233L66.4876 9.25455L62.3955 3.93615H64.5664L67.4825 8.08895L70.3764 3.93615H72.5464L68.4551 9.25455L72.8404 14.9233H70.6695L67.4825 10.4409L64.2715 14.9233H62.1238ZM78.4576 15.1177C77.3121 15.1177 76.3099 14.865 75.4509 14.3602C74.592 13.8546 73.9249 13.1697 73.4506 12.3049C72.9754 11.4409 72.7382 10.4889 72.7382 9.44895C72.7382 8.40895 72.9647 7.43775 73.416 6.58095C73.8681 5.72335 74.5162 5.04255 75.3604 4.53695C76.2045 4.03135 77.1993 3.77935 78.3448 3.77935C79.4904 3.77935 80.5033 4.03135 81.34 4.53695C82.1767 5.04255 82.8207 5.72335 83.2728 6.58095C83.7249 7.43775 83.9514 8.39375 83.9514 9.44895V10.1081H74.4784C74.5689 10.7529 74.7839 11.3417 75.1232 11.8769C75.4625 12.4121 75.9179 12.8369 76.4911 13.1513C77.0634 13.4657 77.7272 13.6233 78.4807 13.6233C79.2795 13.6233 79.9499 13.4514 80.4926 13.1074C81.0353 12.7634 81.4561 12.3201 81.7584 11.7777H83.6121C83.2201 12.7593 82.5984 13.5609 81.7468 14.1841C80.8953 14.8065 79.7992 15.1177 78.4576 15.1177ZM74.5014 8.41215H82.1874C82.0367 7.47535 81.6299 6.69055 80.9669 6.06095C80.3032 5.43135 79.4286 5.11615 78.344 5.11615C77.2594 5.11615 76.3881 5.43135 75.7334 6.06095C75.0771 6.69055 74.6669 7.47535 74.5014 8.41215ZM17.7924 1.88975L1.72365 10.9073L16.6526 0.197749C17.1525 -0.160651 17.8624 -0.0166512 18.1728 0.506549C18.4602 0.991349 18.2898 1.61055 17.7915 1.89055L17.7924 1.88975ZM20.0884 8.71375C19.8726 8.35055 19.3949 8.22735 19.0219 8.43695L8.38353 14.4065L19.7128 9.79375C20.1468 9.61695 20.3231 9.11055 20.0884 8.71375ZM25.4553 1.59455C25.0056 0.836949 23.9919 0.602549 23.24 1.08175L0 15.8801L24.8039 3.71535C25.6076 3.32095 25.9058 2.35135 25.4553 1.59455Z" fill="black"/>
</g>
<defs>
<clipPath id="clip0_41_492">
<rect width="84" height="16" fill="white"/>
</clipPath>
</defs>
</svg>

