<svg width="50" height="18" viewBox="0 0 50 18" fill="none" xmlns="http://www.w3.org/2000/svg">
<g clip-path="url(#clip0_42_507)">
<path d="M7.98754 17.5909V10.2884C7.98754 8.62355 7.13159 8.10153 5.78813 8.10153C5.26391 8.11344 4.74931 8.24733 4.28387 8.49293C3.81843 8.73855 3.41446 9.08934 3.103 9.51842V17.5909H0V1.02273H3.103V7.15819C3.62294 6.56266 4.2628 6.08791 4.97911 5.76622C5.69544 5.44453 6.47145 5.28343 7.2544 5.29388C9.84238 5.29388 11.0887 6.73499 11.0887 9.07098V17.5909H7.98754Z" fill="black"/>
<path d="M19.108 17.7955C15.5146 17.7955 12.9032 15.2719 12.9032 11.3513C12.9032 7.43079 15.4476 4.90909 19.108 4.90909C22.6792 4.90909 25.2014 7.36507 25.2014 11.0809C25.2048 11.4883 25.175 11.8953 25.1121 12.2977H16.0726C16.2288 14.1453 17.4787 15.1818 19.0485 15.1818C20.3877 15.1818 21.1242 14.5058 21.526 13.6796H24.8963C24.2266 15.9704 22.1734 17.7955 19.108 17.7955ZM16.0949 10.1816H21.9724C21.9278 8.53673 20.6332 7.50025 19.0262 7.50025C17.5308 7.50025 16.3479 8.46912 16.1024 10.1816H16.0949Z" fill="black"/>
<path d="M26.8146 1.02273H29.8388V17.5909H26.8146V1.02273Z" fill="black"/>
<path d="M31.8549 1.84006C31.8549 0.807832 32.6581 0 33.7738 0C34.8895 0 35.6855 0.800352 35.6855 1.84006C35.6855 2.87978 34.8599 3.68012 33.7666 3.68012C32.673 3.68012 31.8549 2.8648 31.8549 1.84006ZM32.1895 5.16115H35.3135V17.5909H32.1895V5.16115Z" fill="black"/>
<path d="M47.2037 11.0455C47.1482 10.0988 46.7385 9.20933 46.0583 8.55896C45.3781 7.90857 44.4785 7.54634 43.5438 7.54634C42.6091 7.54634 41.7097 7.90857 41.0293 8.55896C40.349 9.20933 39.9393 10.0988 39.8839 11.0455H37.0968C37.0968 9.3095 37.7764 7.64464 38.9865 6.41712C40.1964 5.1896 41.8373 4.5 43.5484 4.5C45.2595 4.5 46.9004 5.1896 48.1103 6.41712C49.3204 7.64464 50 9.3095 50 11.0455H47.2037Z" fill="#F76C1B"/>
<path d="M43.684 18C42.4752 18.0002 41.2909 17.6513 40.2681 16.9937C39.2453 16.3361 38.4254 15.3966 37.9032 14.2836L40.4101 13.0909C40.7028 13.7054 41.1558 14.2257 41.7193 14.5944C42.2828 14.9632 42.9351 15.1661 43.6042 15.181C44.2736 15.1959 44.9336 15.0221 45.5125 14.6787C46.0913 14.3354 46.5661 13.8358 46.8847 13.2348L49.3951 14.4294C48.8556 15.5022 48.0375 16.4027 47.03 17.0325C46.0228 17.6623 44.8651 17.997 43.684 18Z" fill="#F76C1B"/>
</g>
<defs>
<clipPath id="clip0_42_507">
<rect width="50" height="18" fill="white"/>
</clipPath>
</defs>
</svg>

