<svg width="110" height="23" viewBox="0 0 110 23" fill="none" xmlns="http://www.w3.org/2000/svg">
<path d="M14.6065 4.81934C13.6986 4.43754 12.7007 4.22715 11.652 4.22715C10.6032 4.22715 9.60528 4.43754 8.69739 4.81934L11.4113 0.138307C11.5169 -0.0448042 11.7831 -0.0448042 11.8887 0.138307L14.6046 4.81934H14.6065Z" fill="url(#paint0_linear_42_517)"/>
<path d="M7.97531 5.16998C6.18692 6.15567 4.84268 7.83874 4.30851 9.85102L2.29119 4.73363C2.21292 4.53689 2.37924 4.3304 2.5886 4.36157L7.97531 5.16998Z" fill="url(#paint1_linear_42_517)"/>
<path d="M5.67426 16.4528L0.195589 14.7697C-0.00790407 14.7074 -0.0666041 14.4483 0.0879727 14.3061L4.15784 10.5465C4.09132 10.9497 4.0561 11.3646 4.0561 11.7873C4.0561 13.5483 4.66071 15.1691 5.67426 16.4528Z" fill="url(#paint2_linear_42_517)"/>
<path d="M11.5385 19.3475L6.73483 22.6065C6.55873 22.7253 6.32002 22.6123 6.30437 22.4L5.87585 16.6943C7.24552 18.2917 9.27263 19.3124 11.5385 19.3456V19.3475Z" fill="url(#paint3_linear_42_517)"/>
<path d="M17.4104 16.7177L16.9838 22.3942C16.9682 22.6046 16.7295 22.7195 16.5534 22.6007L11.7595 19.3475C14.0195 19.3163 16.0407 18.3034 17.4104 16.7177Z" fill="url(#paint4_linear_42_517)"/>
<path d="M23.1044 14.7522L17.6492 16.4275C18.651 15.1476 19.2478 13.5366 19.2478 11.7873C19.2478 11.3588 19.2106 10.938 19.1421 10.5289L23.21 14.2866C23.3666 14.4308 23.3059 14.6898 23.1044 14.7502V14.7522Z" fill="url(#paint5_linear_42_517)"/>
<path d="M21.0126 4.74337L18.9972 9.85881C18.465 7.84848 17.1247 6.16736 15.3422 5.17778L20.7152 4.37131C20.9245 4.34014 21.0909 4.54662 21.0126 4.74337Z" fill="url(#paint6_linear_42_517)"/>
<path d="M11.652 20.9799C10.5308 20.9799 9.62292 21.8838 9.62292 23H13.683C13.683 21.8838 12.7751 20.9799 11.6539 20.9799H11.652Z" fill="url(#paint7_linear_42_517)"/>
<path d="M19.0716 17.6703C18.3731 18.543 18.5159 19.815 19.3925 20.5105L21.9225 17.3508C21.0459 16.6554 19.7682 16.7976 19.0697 17.6703H19.0716Z" fill="url(#paint8_linear_42_517)"/>
<path d="M20.7349 9.85687C20.9833 10.9458 22.0732 11.6256 23.165 11.3763L22.2611 7.4355C21.1673 7.6829 20.4844 8.76794 20.7349 9.85492V9.85687Z" fill="url(#paint9_linear_42_517)"/>
<path d="M15.755 3.67587C16.7647 4.16092 17.9778 3.73821 18.465 2.73109L14.808 0.977895C14.3208 1.98306 14.7454 3.19082 15.757 3.67587H15.755Z" fill="url(#paint10_linear_42_517)"/>
<path d="M7.45681 3.67587C8.46645 3.19082 8.89105 1.98306 8.40384 0.977895L4.74683 2.73109C5.23404 3.73626 6.44717 4.15897 7.45681 3.67392V3.67587Z" fill="url(#paint11_linear_42_517)"/>
<path d="M2.62195 9.85686C2.87045 8.76793 2.18757 7.68485 1.0938 7.43745L0.191772 11.3783C1.28555 11.6256 2.37346 10.9458 2.62195 9.85686Z" fill="url(#paint12_linear_42_517)"/>
<path d="M1.66309 17.3508L4.19502 20.5105C5.0716 19.815 5.21444 18.543 4.51591 17.6703C3.81738 16.7976 2.53967 16.6554 1.66309 17.3508Z" fill="url(#paint13_linear_42_517)"/>
<path d="M34.7954 5.87321V11.6588H41.6144V6.20827H44.7216V19.1819H41.6144V14.4171H34.7954V19.1819H31.6882V6.7089L34.7954 5.87321Z" fill="#E84125"/>
<path d="M50.3471 16.4216H59.8526L59.0131 19.18H47.2418V6.20632H59.8545L59.0151 8.96468H50.349V11.3218H58.4261V14.0801H50.349V16.4216H50.3471Z" fill="#E84125"/>
<path d="M64.8401 6.20632V16.4216H74.009L73.1696 19.18H61.7329V6.20632H64.8401Z" fill="#E84125"/>
<path d="M78.4605 6.20632V19.18H75.3533V6.20632H78.4605Z" fill="#E84125"/>
<path d="M91.4918 6.20632H94.599V14.0314C94.599 17.8105 91.4918 19.4644 87.4787 19.4644C83.4656 19.4644 80.5756 17.6917 80.5756 14.0314V6.7089L83.6828 5.87321V14.0314C83.6828 15.9366 84.9585 16.6573 87.6294 16.6573C90.3002 16.6573 91.4918 15.8879 91.4918 14.0314V6.20632Z" fill="#E84125"/>
<path d="M96.1781 10.153C96.1781 8.16405 97.7571 6.20632 100.847 6.20632H109.714L108.875 8.96468H100.88C99.9232 8.96468 99.4516 9.56661 99.4516 10.151C99.4516 10.7354 99.9388 11.3218 100.88 11.3218H105.38C108.419 11.3218 109.998 13.2775 109.998 15.2684C109.998 17.2593 108.503 19.18 105.38 19.18H96.1781L97.0175 16.4216H105.347C106.288 16.4216 106.775 15.8703 106.775 15.2684C106.775 14.6665 106.306 14.0645 105.347 14.0645H100.847C97.7063 14.0645 96.1781 12.1087 96.1781 10.153Z" fill="#E84125"/>
<defs>
<linearGradient id="paint0_linear_42_517" x1="8.19452" y1="2.40967" x2="14.6065" y2="2.40967" gradientUnits="userSpaceOnUse">
<stop stop-color="#E35930"/>
<stop offset="1" stop-color="#E84125"/>
</linearGradient>
<linearGradient id="paint1_linear_42_517" x1="1.88224" y1="7.10435" x2="7.97531" y2="7.10435" gradientUnits="userSpaceOnUse">
<stop stop-color="#E35930"/>
<stop offset="1" stop-color="#E84125"/>
</linearGradient>
<linearGradient id="paint2_linear_42_517" x1="-0.180091" y1="13.4996" x2="5.67426" y2="13.4996" gradientUnits="userSpaceOnUse">
<stop stop-color="#E35930"/>
<stop offset="1" stop-color="#E84125"/>
</linearGradient>
<linearGradient id="paint3_linear_42_517" x1="5.76824" y1="19.6748" x2="11.5385" y2="19.6748" gradientUnits="userSpaceOnUse">
<stop stop-color="#E35930"/>
<stop offset="1" stop-color="#E84125"/>
</linearGradient>
<linearGradient id="paint4_linear_42_517" x1="11.5639" y1="19.6826" x2="17.4104" y2="19.6826" gradientUnits="userSpaceOnUse">
<stop stop-color="#E35930"/>
<stop offset="1" stop-color="#E84125"/>
</linearGradient>
<linearGradient id="paint5_linear_42_517" x1="17.2911" y1="13.4782" x2="23.2981" y2="13.4782" gradientUnits="userSpaceOnUse">
<stop stop-color="#E35930"/>
<stop offset="1" stop-color="#E84125"/>
</linearGradient>
<linearGradient id="paint6_linear_42_517" x1="14.8608" y1="7.11214" x2="21.0322" y2="7.11214" gradientUnits="userSpaceOnUse">
<stop stop-color="#E35930"/>
<stop offset="1" stop-color="#E84125"/>
</linearGradient>
<linearGradient id="paint7_linear_42_517" x1="12.5471" y1="21.1838" x2="11.0349" y2="23.8146" gradientUnits="userSpaceOnUse">
<stop stop-color="#E35930"/>
<stop offset="1" stop-color="#E84125"/>
</linearGradient>
<linearGradient id="paint8_linear_42_517" x1="19.7936" y1="17.0651" x2="20.8974" y2="19.8899" gradientUnits="userSpaceOnUse">
<stop stop-color="#E35930"/>
<stop offset="1" stop-color="#E84125"/>
</linearGradient>
<linearGradient id="paint9_linear_42_517" x1="20.7308" y1="8.93396" x2="23.6379" y2="9.83451" gradientUnits="userSpaceOnUse">
<stop stop-color="#E35930"/>
<stop offset="1" stop-color="#E84125"/>
</linearGradient>
<linearGradient id="paint10_linear_42_517" x1="15.0348" y1="3.10632" x2="17.5431" y2="1.38829" gradientUnits="userSpaceOnUse">
<stop stop-color="#E35930"/>
<stop offset="1" stop-color="#E84125"/>
</linearGradient>
<linearGradient id="paint11_linear_42_517" x1="6.60069" y1="3.89368" x2="6.82591" y2="0.8709" gradientUnits="userSpaceOnUse">
<stop stop-color="#E35930"/>
<stop offset="1" stop-color="#E84125"/>
</linearGradient>
<linearGradient id="paint12_linear_42_517" x1="2.28217" y1="10.6767" x2="0.0592567" y2="8.60545" gradientUnits="userSpaceOnUse">
<stop stop-color="#E35930"/>
<stop offset="1" stop-color="#E84125"/>
</linearGradient>
<linearGradient id="paint13_linear_42_517" x1="4.96959" y1="18.461" x2="1.95969" y2="18.9172" gradientUnits="userSpaceOnUse">
<stop stop-color="#E35930"/>
<stop offset="1" stop-color="#E84125"/>
</linearGradient>
</defs>
</svg>

