<svg width="9221" height="2484" viewBox="0 0 9221 2484" fill="none" xmlns="http://www.w3.org/2000/svg">
<g clip-path="url(#clip0_46_198)">
<path d="M1530.07 738.265V2458.75H1282.27V738.265H1530.07ZM1973.16 1712.82V2458.75H1729.28V1168.51H1961.66V1396.21H1971.99C1990.78 1322.38 2025.13 1259.83 2069.77 1218.09C2115.65 1173.79 2171.16 1151.64 2236.3 1151.64C2297.41 1151.64 2350.64 1171.27 2396.01 1210.54C2441.44 1249.79 2478.23 1308.19 2501.85 1378.52C2527.08 1450.76 2539.7 1537.01 2539.7 1637.27V2458.85H2295.82V1701.13C2296.19 1622.19 2282.47 1560.57 2254.67 1516.27C2226.83 1471.42 2188.47 1449 2139.62 1449C2106.82 1449 2077.82 1459.38 2052.64 1480.15C2027.86 1500.85 2008.41 1531.11 1994.28 1570.92C1980.52 1610.11 1973.45 1657.45 1973.09 1712.92M3204.5 1168.51V1437.3H2661.98V1168.51H3204.5ZM2786.12 2458.85V1075.16C2786.12 981.594 2798.53 904.003 2823.35 842.386C2847.79 781.776 2883.71 733.52 2926.5 703.8C2969.99 672.957 3019.37 657.57 3074.65 657.639C3108.99 657.228 3143.28 661.419 3177.12 670.162C3208.4 678.58 3231.69 686.17 3246.96 692.932L3203.47 961.722C3191.79 956.571 3179.94 952.356 3167.96 949.095C3154.01 945.143 3139.84 943.168 3125.64 943.195C3089.72 943.195 3064.72 955.546 3050.64 980.248C3036.55 1004.26 3029.51 1038.14 3029.51 1081.89V2458.75L2786.12 2458.85ZM3353.49 2458.85V1168.51H3589.86V1393.63H3599.01C3615.02 1313.59 3641.9 1253.11 3679.66 1212.19C3717.46 1170.79 3760.95 1150.09 3810.13 1150.09C3835.92 1150.29 3861.63 1154.45 3886.86 1162.51V1480.26C3871.26 1474.1 3855.39 1469.61 3839.38 1466.8C3820.98 1462.92 3802.42 1460.92 3783.84 1460.8C3750.39 1459.98 3717.33 1471.83 3687.71 1495.26C3659.82 1517.69 3637.68 1549.08 3621.31 1589.45C3605.25 1629.75 3597.22 1676.22 3597.22 1728.86V2458.85H3353.49ZM4238.43 2483.28C4182.27 2483.28 4132.27 2468.99 4088.41 2440.43C4046.29 2413.34 4010.17 2368.75 3984.3 2311.88C3959.07 2254.75 3946.45 2183.61 3946.45 2098.46C3946.45 2026.77 3955.44 1966.57 3973.43 1917.85C3991.32 1869.14 4015.72 1829.95 4046.64 1800.28C4079.11 1769.51 4114.66 1746.79 4151.93 1733C4191.61 1717.82 4233.2 1707.2 4276.69 1701.13C4317.99 1695.04 4359.22 1687.76 4400.34 1679.29C4431.63 1672.04 4454.34 1661.38 4468.47 1647.31C4482.55 1633.3 4489.59 1612.6 4489.59 1585.21V1580.13C4489.59 1526.94 4478.15 1485.78 4455.26 1456.66C4432.78 1427.47 4400.73 1412.91 4359.12 1412.98C4315.27 1412.98 4280.36 1427.26 4254.39 1455.83C4228.47 1483.78 4211.31 1519.07 4202.92 1561.71L3977.42 1534.8C3987.83 1459.36 4011.09 1389.28 4044.92 1331.42C4078.55 1273.81 4121.86 1229.58 4174.84 1198.74C4228.24 1167.34 4290.06 1151.64 4360.29 1151.64C4409.15 1151.64 4455.88 1160.06 4500.47 1176.9C4543.11 1192.13 4583.62 1218.58 4620.13 1255.04C4655.23 1290.23 4682.89 1335.6 4703.12 1391.14C4723.31 1446 4733.4 1511.79 4733.4 1588.52V2458.95H4502.19V2279.9H4495.31C4481.18 2320.26 4462.3 2355.83 4438.67 2386.61C4413.48 2418.25 4384.56 2442.47 4353.41 2458.02C4320.2 2474.86 4281.92 2483.28 4238.43 2483.28ZM4308.13 2236.22C4344.01 2236.22 4375.66 2225.87 4403.1 2205.17C4430.62 2183.85 4452.18 2155.28 4467.78 2119.47C4483.42 2083.59 4491.25 2042.99 4491.25 1997.65V1860.72C4483.63 1867.97 4473.15 1874.7 4459.8 1880.91C4445.25 1887.02 4430.56 1892.34 4415.76 1896.84C4399.37 1901.33 4382.94 1905.53 4366.49 1909.47L4321.83 1918.79C4293.25 1924.86 4268.27 1934.62 4246.89 1948.08C4225.51 1961.53 4208.93 1979.75 4197.14 2002.72C4185.3 2025.08 4179.38 2053.09 4179.38 2086.77C4179.38 2135.41 4191.4 2172.67 4215.44 2198.55C4239.85 2223.66 4270.75 2236.22 4308.13 2236.22Z" fill="#B8B8B8"/>
<path d="M5407.91 1168.41V1437.2H4878.6V1168.52L5407.91 1168.41ZM4998.75 859.257H5242.55V2062.24C5242.55 2095.36 5245.99 2121.13 5252.87 2139.55C5259.2 2156.74 5269.29 2170.09 5281.43 2177.33C5294.05 2184.64 5308.54 2188.3 5324.92 2188.3C5336.39 2188.3 5347.86 2186.92 5359.33 2184.16C5370.75 2180.71 5379.51 2178.16 5385.61 2176.5L5423.94 2442.81C5411.74 2448.33 5394.58 2454.78 5372.47 2462.16C5345.94 2470.9 5318.91 2475.69 5291.75 2476.44C5233.03 2479.76 5181.54 2468.27 5137.27 2441.98C5093.36 2415.62 5059.19 2374.74 5034.74 2319.33C5010.38 2263.92 4998.38 2193.89 4998.75 2109.23V859.257ZM5954.43 2484C5865.47 2484 5788.59 2456.26 5723.76 2400.79C5660.15 2346.07 5608.32 2265.03 5574.44 2167.29C5539.3 2067.03 5521.73 1950.8 5521.73 1818.6C5521.73 1685.29 5539.28 1568.82 5574.37 1469.18C5608.07 1371.19 5659.97 1290.03 5723.76 1235.58C5788.63 1179.56 5865.52 1151.54 5954.43 1151.54C6043.33 1151.54 6120.01 1179.56 6184.47 1235.58C6248.52 1289.81 6300.64 1371 6334.41 1469.18C6369.51 1568.82 6387.06 1685.29 6387.06 1818.6C6387.06 1950.8 6369.51 2067.03 6334.41 2167.29C6300.43 2265.22 6248.36 2346.3 6184.47 2400.79C6120.11 2456.26 6043.38 2484 5954.43 2484ZM5955.6 2206.72C5996.06 2206.72 6029.82 2189.92 6056.89 2156.32C6083.96 2122.16 6104.37 2075.69 6118.13 2016.9C6132.26 1958.12 6139.33 1891.19 6139.33 1816.11C6139.33 1741.04 6132.26 1674.11 6118.13 1615.32C6104.37 1556.54 6083.96 1510.07 6056.89 1475.91C6029.82 1441.76 5996.06 1424.64 5955.6 1424.57C5914.77 1424.57 5880.43 1441.69 5852.58 1475.91C5825.1 1510.07 5804.32 1556.54 5790.24 1615.32C5776.47 1674.11 5769.59 1741.04 5769.59 1816.11C5769.59 1891.19 5776.47 1958.12 5790.24 2016.9C5804.37 2075.69 5825.15 2122.16 5852.58 2156.32C5880.48 2189.92 5914.81 2206.72 5955.6 2206.72ZM6766.56 2087.49L6767.11 1658.17H6802.62L7084.21 1168.41H7364.07L6985.73 1816.94H6927.93L6766.56 2087.49ZM6545.67 2458.75V738.266H6789.48V2458.85L6545.67 2458.75ZM7095.08 2458.75L6836.34 1896.74L6998.95 1643.89L7380.65 2458.85L7095.08 2458.75ZM7848.03 2484C7757.61 2484 7679.79 2457.09 7614.55 2403.27C7550.64 2350.38 7498.49 2270.36 7464.61 2173.19C7429.51 2073.48 7411.96 1955.56 7411.96 1819.43C7411.96 1686.74 7429.51 1570.27 7464.61 1470.01C7498.16 1372.23 7549.58 1290.89 7612.83 1235.58C7676.96 1179.56 7752.13 1151.54 7838.33 1151.54C7896.32 1151.54 7950.31 1165.27 8000.32 1192.73C8050.64 1219.64 8094.52 1260.25 8131.96 1314.55C8169.67 1368.93 8199.03 1437.24 8220.04 1519.48C8241.01 1601.25 8251.49 1697.06 8251.49 1806.9V1905.23H7509.27V1683.43H8022.06C8022.06 1631.88 8014.43 1586.21 7999.15 1546.39C7984.14 1507.08 7962.14 1474.83 7935.63 1453.24C7908.93 1430.2 7877.83 1418.71 7842.32 1418.78C7805.35 1418.78 7772.55 1431.37 7743.92 1456.56C7715.66 1481.19 7693.53 1514.52 7677.51 1556.54C7661.41 1598.75 7652.92 1646.56 7652.88 1695.23V1906.06C7652.88 1969.88 7660.91 2025.05 7676.96 2071.55C7693.39 2118.06 7716.46 2153.87 7746.19 2178.99C7775.96 2204.24 7811.27 2216.87 7852.09 2216.87C7879.16 2216.87 7903.96 2211.24 7926.48 2200C7947.92 2189.57 7967.62 2172.39 7984.29 2149.59C8000.34 2127.24 8012.54 2099.81 8020.89 2067.31L8246.4 2089.04C8235.61 2166.67 8211.31 2238.6 8176 2297.49C8140.9 2356.28 8095.51 2402.2 8039.82 2435.25C7984.45 2467.68 7920.52 2484 7848.03 2484ZM8654.46 1712.72V2458.75H8410.65V1168.41H8642.97V1396.11H8653.29C8672.1 1322.26 8706.47 1259.71 8751.14 1217.99C8796.93 1173.69 8852.44 1151.54 8917.67 1151.54C8978.68 1151.54 9031.92 1171.17 9077.39 1210.43C9122.76 1249.62 9158.04 1305.62 9183.22 1378.41C9208.41 1450.66 9221 1536.91 9221 1637.16V2458.75H8977.19V1701.02C8977.61 1622.09 8963.87 1560.47 8935.98 1516.17C8908.13 1471.32 8869.8 1448.9 8820.99 1448.9C8788.19 1448.9 8759.19 1459.28 8734.01 1480.05C8709.14 1500.75 8689.67 1531.01 8675.58 1570.82C8661.87 1610.01 8654.83 1657.24 8654.46 1712.72Z" fill="#F5B805"/>
<path fill-rule="evenodd" clip-rule="evenodd" d="M0 626.383L239.402 417.52L1013.83 1092.86V2270.17L781.789 2462.68L771.467 1285.57L0 626.383Z" fill="#F5B805"/>
<path fill-rule="evenodd" clip-rule="evenodd" d="M35.0957 1500.13L35.3021 1092.96L519.473 1492.78L514.45 2314.57L282.067 2118.13L282.411 1699.99L35.0957 1500.13ZM496.352 209.277L734.791 0L1529.72 654.12L1530 1327.49L1282.2 1499.09V904.072L496.352 209.277Z" fill="#B8B8B8"/>
</g>
<defs>
<clipPath id="clip0_46_198">
<rect width="9221" height="2484" fill="white"/>
</clipPath>
</defs>
</svg>
