<svg width="323" height="143" viewBox="0 0 323 143" fill="none" xmlns="http://www.w3.org/2000/svg">
<path fill-rule="evenodd" clip-rule="evenodd" d="M204.045 32.6246C197.247 34.0536 189.503 38.2506 184.579 43.1746C166.483 61.2706 171.543 93.9076 194.16 104.974C214.85 115.096 239.387 106.944 248.819 86.8136C251.192 81.7486 251.498 79.8946 251.499 70.5746C251.5 60.7086 251.296 59.6396 248.226 53.4026C244.108 45.0396 236.448 37.8096 228.466 34.7556C221.869 32.2306 210.598 31.2476 204.045 32.6246ZM0 38.4536V44.3106L9 48.4336L18 52.5566V74.6436V96.7306L15.75 96.0326C14.513 95.6486 10.925 94.0436 7.779 92.4656C4.632 90.8866 1.594 89.5956 1.029 89.5956C0.395999 89.5956 0 93.2536 0 99.0956V108.596H9H18V104.596C18 102.396 18.271 100.596 18.603 100.596C18.934 100.596 23.046 102.396 27.741 104.596C35.794 108.37 36.806 108.596 45.638 108.596H55V103.033V97.4686L45.5 92.9686L36 88.4686V66.5316C36 52.1036 36.354 44.5956 37.033 44.5956C37.602 44.5956 40.189 45.6696 42.783 46.9816C45.377 48.2936 49.188 50.0706 51.25 50.9306L55 52.4936V42.5446V32.5956H46H37V36.5956C37 38.7956 36.595 40.5956 36.1 40.5956C35.604 40.5956 31.285 38.7956 26.5 36.5956C18.42 32.8806 17.168 32.5956 8.9 32.5956H0V38.4536ZM83 70.5956V108.596H92H101V70.5956V32.5956H92H83V70.5956ZM109 70.5106V108.596H117.973H126.945L127.223 94.3456L127.5 80.0956L132.031 79.7996C137.879 79.4176 143.818 81.4336 146.163 84.5956C147.182 85.9706 148.705 90.9206 149.546 95.5956C152.006 109.26 151.34 108.596 162.595 108.596C172.117 108.596 172.225 108.569 171.581 106.346C171.223 105.109 169.8 99.6466 168.42 94.2096C165.585 83.0426 163.958 79.3796 160.869 77.2166L158.726 75.7156L161.892 72.5496C166.227 68.2146 168.07 64.3126 168.71 58.1196C169.73 48.2326 165.094 39.7866 156 34.9636C152.968 33.3556 149.593 33.0616 130.75 32.7666L109 32.4266V70.5106ZM258 70.5956V108.596H267.66H277.319L276.713 84.8456C276.308 68.9846 276.437 61.5936 277.1 62.5956C277.646 63.4206 283.983 74.1076 291.183 86.3456L304.273 108.596H313.636H323V70.5956V32.5956H313.84H304.681L305.319 56.7376L305.957 80.8786L295.193 62.4876C289.273 52.3716 282.878 41.5086 280.981 38.3456L277.533 32.5956H267.766H258V70.5956ZM224.185 51.1596C240.329 62.5146 234.076 91.5366 215.092 93.3606C202.938 94.5286 193.644 86.2316 192.277 72.9936C191.221 62.7636 196.083 53.3376 204.429 49.4326C210.468 46.6076 218.741 47.3316 224.185 51.1596ZM146.477 49.7666C150.78 51.7276 151.557 58.6646 147.829 61.8456C146.192 63.2426 143.883 63.5956 136.389 63.5956H127V56.0956V48.5956H135.453C140.102 48.5956 145.063 49.1226 146.477 49.7666Z" fill="black"/>
</svg>
