<svg width="479" height="141" viewBox="0 0 479 141" fill="none" xmlns="http://www.w3.org/2000/svg">
<path d="M121.424 1.51465H148.409V139.46H121.424V1.51465Z" fill="#2A2A2A"/>
<path d="M160.641 1.51465H211.66C219.004 1.51465 225.459 3.26409 231.047 6.77603C236.635 10.288 240.942 15.2883 244 21.7899C247.048 28.2916 248.572 35.8899 248.572 44.5588C248.572 49.0238 247.947 53.4496 246.709 57.8496C245.471 62.2493 243.682 66.3356 241.354 70.0954C239.026 73.8553 236.37 77.0147 233.365 79.5609C236.571 81.8586 239.153 84.7958 241.121 88.3604C243.079 91.9374 244.529 96.2721 245.46 101.363L249.185 121.835C249.291 122.344 249.386 122.853 249.492 123.362C250.116 126.417 250.836 129.42 251.661 132.357C252.487 135.295 253.313 137.658 254.138 139.433H224.359C223.734 138.037 223.121 136.157 222.496 133.793C221.872 131.43 221.406 129.107 221.1 126.809L218.634 107.695C218.009 102.983 216.845 99.1181 215.141 96.1154C213.438 93.1256 211.057 90.919 208.009 89.509C204.961 88.112 201.162 87.407 196.612 87.407H187.617V139.447H160.631V1.51465H160.641ZM214.528 56.7135C216.644 55.6299 218.253 54.0372 219.332 51.9352C220.422 49.8333 220.962 47.3788 220.962 44.5719C220.962 40.2374 219.745 36.856 217.322 34.4277C214.887 32.0124 211.448 30.7983 207.014 30.7983H187.627V58.3453H207.014C209.903 58.3322 212.411 57.797 214.528 56.7135Z" fill="#2A2A2A"/>
<path d="M282.88 131.809C274.043 125.686 267.112 117.265 262.096 106.56C257.08 95.841 254.572 83.7903 254.572 70.3953C254.572 57.131 257.08 45.1461 262.096 34.4275C267.112 23.7089 274.065 15.3011 282.954 9.17807C291.843 3.055 301.717 0 312.574 0C323.527 0 333.401 3.02889 342.195 9.08669C350.978 15.1444 357.857 23.5261 362.82 34.2447C367.783 44.9633 370.26 57.0139 370.26 70.4089C370.26 83.8039 367.783 95.854 362.82 106.573C357.857 117.291 350.978 125.699 342.195 131.822C333.411 137.945 323.591 141 312.733 141C301.664 140.987 291.716 137.932 282.88 131.809ZM328.078 106.455C332.628 102.825 336.195 97.8513 338.776 91.5323C341.359 85.2139 342.65 78.1769 342.65 70.3953C342.65 62.6143 341.359 55.5643 338.776 49.2586C336.195 42.9397 332.628 38.0047 328.078 34.4275C323.527 30.8633 318.363 29.0747 312.574 29.0747C306.68 29.0747 301.431 30.8633 296.838 34.4275C292.235 38.0047 288.647 42.9397 286.065 49.2586C283.483 55.5773 282.192 62.6143 282.192 70.3953C282.192 78.1769 283.483 85.2269 286.065 91.5323C288.647 97.8513 292.245 102.825 296.838 106.455C301.442 110.085 306.691 111.912 312.574 111.912C318.363 111.912 323.527 110.085 328.078 106.455Z" fill="#2A2A2A"/>
<path d="M379.055 1.51465H407.437L435.195 59.2986C440.157 69.5081 444.604 79.3255 448.529 88.7649C448.116 78.0462 447.905 66.7662 447.905 54.8989V1.51465H474.891V139.46H446.362L418.761 82.0674C413.798 71.8709 409.353 62.04 405.427 52.601C405.84 63.3198 406.051 74.5998 406.051 86.4672V139.46H379.066V1.51465H379.055Z" fill="#2A2A2A"/>
<path d="M53.9706 22.7299L80.9457 38.253V1.51465H53.9706V17.0377L30.6257 3.61659L30.5623 3.57742L26.9854 1.51465H23.7154H0V22.7299L26.9854 38.253V102.721V118.244L0 102.721V139.46H26.9854V123.937L53.9706 139.46H59.3362H80.9457V118.244L55.9498 103.857L53.9706 102.721V38.253V22.7299Z" fill="#2A2A2A"/>
</svg>
