<svg width="2257" height="751" viewBox="0 0 2257 751" fill="none" xmlns="http://www.w3.org/2000/svg">
<g clip-path="url(#clip0_2019_19)">
<path d="M278.775 388.97C278.775 445.886 259.663 493.633 221.437 532.098C183.214 570.677 136.642 589.911 81.7214 589.911H0V507.386H81.7214C114.234 507.386 141.584 496.093 163.772 473.393C185.96 450.805 197.053 422.627 197.053 389.081L196.395 159.18H278.775V388.97Z" fill="black"/>
<path d="M337.538 163.096H419.258L417.94 244.277H336.878L337.538 163.096ZM337.538 277.152H419.258V589.8H336.878L337.538 277.152Z" fill="black"/>
<path d="M561.848 248.289H702.223V331.484H560.53V446.657C560.53 463.767 565.803 478.079 576.457 489.708C587.111 501.338 600.401 507.265 616.329 507.265H701.455V589.788H617.096C578.433 589.788 545.811 575.81 519.23 547.744C492.649 519.677 479.358 485.572 479.358 445.204V160.287H560.42L561.738 248.177L561.848 248.289Z" fill="black"/>
<path d="M1023.41 540.816C990.897 573.58 951.134 589.906 904.122 589.906C857.111 589.906 816.8 573.467 784.506 540.48C752.214 507.494 736.066 467.128 736.066 419.157C736.066 371.186 752.323 330.707 784.836 297.496C817.349 264.286 857.111 247.736 904.122 247.736C951.134 247.736 990.897 264.286 1023.41 297.496C1055.92 330.707 1072.18 371.186 1072.18 419.157C1072.18 467.128 1055.92 508.165 1023.41 540.816ZM964.425 355.532C948.388 339.093 928.287 330.931 904.122 330.931C879.958 330.931 859.527 339.428 842.832 356.537C826.136 373.645 817.788 394.445 817.788 419.157C817.788 443.869 826.136 464.778 842.832 481.775C859.527 498.884 879.958 507.383 904.122 507.383C928.287 507.383 949.267 498.997 965.743 482.111C982.219 465.227 990.457 444.316 990.457 419.157L988.481 415.801C988.481 391.984 980.461 371.968 964.425 355.532Z" fill="black"/>
<path d="M1366.23 553.975C1368.97 553.975 1371.12 554.771 1372.69 556.366C1374.25 557.959 1375.03 560.15 1375.03 562.939V580.268C1375.03 583.057 1374.25 585.248 1372.69 586.841C1371.12 588.435 1368.97 589.232 1366.23 589.232H1178.98C1176.24 589.232 1174.08 588.435 1172.52 586.841C1170.95 585.248 1170.17 583.057 1170.17 580.268V179.891C1170.17 177.103 1170.95 174.912 1172.52 173.318C1174.08 171.724 1176.24 170.928 1178.98 170.928H1198.35C1201.09 170.928 1203.24 171.724 1204.8 173.318C1206.37 174.912 1207.15 177.103 1207.15 179.891V553.975H1366.23Z" fill="black"/>
<path d="M1677.13 296.419C1679.87 296.419 1682.02 297.216 1683.59 298.81C1685.15 300.403 1685.93 302.594 1685.93 305.383V580.269C1685.93 583.057 1685.15 585.248 1683.59 586.842C1682.02 588.435 1679.87 589.232 1677.13 589.232H1661.28C1656.19 589.232 1653.26 586.244 1652.47 580.269L1649.54 541.425C1638.19 558.557 1623.51 572.101 1605.51 582.062C1587.51 591.623 1567.16 596.403 1544.47 596.403C1517.46 596.403 1493.2 589.63 1471.68 576.085C1450.15 562.541 1433.33 544.214 1421.2 521.109C1409.07 497.604 1403 471.709 1403 443.423C1403 415.138 1409.07 389.443 1421.2 366.336C1433.33 342.831 1450.15 324.306 1471.68 310.761C1493.2 297.216 1517.46 290.443 1544.47 290.443C1567.55 290.443 1588.1 295.423 1606.1 305.383C1624.1 314.944 1638.78 328.49 1650.13 346.018L1652.47 305.383C1653.26 299.407 1656.19 296.419 1661.28 296.419H1677.13ZM1546.81 563.537C1573.42 563.537 1596.51 554.573 1616.08 536.646C1635.65 518.718 1647.97 496.009 1653.06 468.521L1654.23 443.423L1653.06 417.727C1647.97 390.238 1635.65 367.531 1616.08 349.604C1596.51 331.676 1573.42 322.713 1546.81 322.713C1526.07 322.713 1507.29 327.892 1490.46 338.249C1473.63 348.608 1460.53 362.949 1451.13 381.275C1441.74 399.602 1437.05 420.118 1437.05 442.825C1437.05 465.534 1441.74 486.25 1451.13 504.973C1460.53 523.3 1473.63 537.641 1490.46 548C1507.29 558.357 1526.07 563.537 1546.81 563.537Z" fill="black"/>
<path d="M1882.77 290.443C1909.76 290.443 1934.03 297.215 1955.55 310.76C1977.06 324.305 1993.91 342.831 2006.03 366.335C2018.17 389.442 2024.22 415.138 2024.22 443.422C2024.22 471.708 2018.17 497.604 2006.03 521.108C1993.91 544.214 1977.06 562.54 1955.55 576.084C1934.03 589.63 1909.76 596.402 1882.77 596.402C1860.06 596.402 1839.71 591.622 1821.71 582.061C1803.72 572.1 1789.03 558.556 1777.7 541.425L1774.75 580.268C1773.97 586.243 1771.03 589.232 1765.95 589.232H1750.1C1747.36 589.232 1745.21 588.434 1743.63 586.841C1742.08 585.248 1741.29 583.057 1741.29 580.268V161.964C1741.29 159.175 1742.08 156.984 1743.63 155.39C1745.21 153.797 1747.36 153 1750.1 153H1767.71C1770.45 153 1772.6 153.797 1774.17 155.39C1775.73 156.984 1776.52 159.175 1776.52 161.964V338.249L1777.1 346.017C1788.45 328.489 1803.12 314.944 1821.13 305.382C1839.13 295.423 1859.67 290.443 1882.77 290.443ZM1880.41 563.536C1901.15 563.536 1919.94 558.357 1936.76 547.999C1953.59 537.641 1966.7 523.299 1976.09 504.972C1985.49 486.249 1990.18 465.533 1990.18 442.824C1990.18 420.117 1985.49 399.601 1976.09 381.274C1966.7 362.949 1953.59 348.608 1936.76 338.249C1919.94 327.892 1901.15 322.712 1880.41 322.712C1853.8 322.712 1830.72 331.676 1811.14 349.603C1791.58 367.531 1779.25 390.238 1774.17 417.726L1772.99 443.422L1774.17 468.52C1779.25 496.009 1791.58 518.718 1811.14 536.645C1830.72 554.572 1853.8 563.536 1880.41 563.536Z" fill="black"/>
<path d="M2093.81 367.531C2093.81 381.872 2099.49 393.027 2110.84 400.995C2122.57 408.963 2140.39 417.329 2164.26 426.093C2184.61 433.663 2200.85 440.634 2212.97 447.009C2225.11 453.384 2235.47 462.346 2244.09 473.9C2252.69 485.054 2257 499.396 2257 516.925C2257 532.462 2252.5 546.405 2243.49 558.755C2234.5 570.707 2222.56 580.069 2207.69 586.841C2192.83 593.614 2177.17 597 2160.74 597C2138.82 597 2118.47 592.221 2099.68 582.659C2080.9 573.098 2065.84 561.544 2054.49 548C2052.54 545.211 2051.54 543.218 2051.54 542.023C2051.54 540.828 2052.33 539.036 2053.9 536.645L2064.47 524.693C2066.42 522.303 2067.99 521.109 2069.16 521.109C2070.73 521.109 2073.07 522.702 2076.2 525.889C2084.82 535.45 2096.55 544.414 2111.42 552.78C2126.3 560.748 2142.54 564.732 2160.14 564.732C2179.32 564.732 2194.59 560.548 2205.93 552.182C2217.28 543.418 2222.96 531.666 2222.96 516.925C2222.96 505.77 2219.62 496.409 2212.97 488.839C2206.32 480.871 2198.11 474.497 2188.32 469.716C2178.54 464.936 2165.42 459.359 2148.99 452.984C2129.82 445.813 2114.16 439.24 2102.04 433.264C2090.29 426.89 2080.32 418.524 2072.1 408.166C2063.87 397.409 2059.77 383.865 2059.77 367.531C2059.77 352.79 2063.68 339.644 2071.52 328.09C2079.72 316.139 2090.68 306.777 2104.38 300.004C2118.47 293.232 2133.93 289.846 2150.75 289.846C2166.02 289.846 2181.87 293.83 2198.3 301.797C2215.13 309.366 2229.4 320.123 2241.15 334.067C2242.72 335.66 2243.49 337.453 2243.49 339.445C2243.49 341.436 2242.52 343.827 2240.57 346.615L2234.11 354.981C2232.55 357.372 2230.58 358.567 2228.24 358.567C2226.27 358.567 2223.93 357.172 2221.2 354.383C2209.06 342.831 2197.51 334.465 2186.55 329.286C2175.61 324.106 2163.08 321.517 2148.99 321.517C2135.29 321.517 2122.57 325.301 2110.84 332.872C2099.49 340.042 2093.81 351.595 2093.81 367.531Z" fill="black"/>
</g>
<defs>
<clipPath id="clip0_2019_19">
<rect width="2257" height="444" fill="white" transform="translate(0 153)"/>
</clipPath>
</defs>
</svg>
