<svg width="89" height="19" viewBox="0 0 89 19" fill="none" xmlns="http://www.w3.org/2000/svg">
<g clip-path="url(#clip0_99_170)">
<path d="M11.0604 10.0667C11.0604 12.4945 10.3081 14.5312 8.80352 16.172C7.29894 17.8175 5.46578 18.6379 3.30403 18.6379H0.0873413V15.1179H3.30403C4.58379 15.1179 5.66033 14.636 6.53367 13.6678C7.40703 12.7043 7.84372 11.5024 7.84372 10.0715L7.81777 0.26497H11.0604V10.0667Z" fill="black"/>
<path d="M13.3734 0.431977H16.59L16.5382 3.89479H13.3474L13.3734 0.431977ZM13.3734 5.29708H16.59V18.6332H13.3474L13.3734 5.29708Z" fill="black"/>
<path d="M22.2026 4.06597H27.7281V7.61463H22.1507V12.5274C22.1507 13.2572 22.3583 13.8677 22.7776 14.3638C23.197 14.8599 23.7202 15.1126 24.3471 15.1126H27.6978V18.6326H24.3773C22.8555 18.6326 21.5714 18.0365 20.5251 16.8393C19.4788 15.6421 18.9557 14.1873 18.9557 12.4654V0.312211H22.1464L22.1983 4.06119L22.2026 4.06597Z" fill="black"/>
<path d="M40.3705 16.5437C39.0907 17.9413 37.5256 18.6377 35.6752 18.6377C33.8247 18.6377 32.238 17.9366 30.9668 16.5295C29.6957 15.1224 29.0602 13.4005 29.0602 11.3543C29.0602 9.30812 29.7 7.5815 30.9798 6.16489C32.2596 4.74829 33.8247 4.04237 35.6752 4.04237C37.5256 4.04237 39.0907 4.74829 40.3705 6.16489C41.6502 7.5815 42.2901 9.30812 42.2901 11.3543C42.2901 13.4005 41.6502 15.151 40.3705 16.5437ZM38.0488 8.64037C37.4175 7.93922 36.6263 7.59103 35.6752 7.59103C34.7239 7.59103 33.9198 7.95351 33.2626 8.68328C32.6054 9.41304 32.2768 10.3002 32.2768 11.3543C32.2768 12.4084 32.6054 13.3003 33.2626 14.0253C33.9198 14.7551 34.7239 15.1176 35.6752 15.1176C36.6263 15.1176 37.4521 14.7599 38.1007 14.0397C38.7491 13.3194 39.0734 12.4275 39.0734 11.3543C39.0734 10.3384 38.6799 9.34151 38.0488 8.64037Z" fill="black"/>
<path d="M53.8645 17.1049C53.9723 17.1049 54.057 17.139 54.1187 17.207C54.1802 17.275 54.211 17.3684 54.211 17.4874V18.2265C54.211 18.3455 54.1802 18.439 54.1187 18.5069C54.057 18.5749 53.9723 18.6089 53.8645 18.6089H46.4938C46.386 18.6089 46.3013 18.5749 46.2397 18.5069C46.1781 18.439 46.1473 18.3455 46.1473 18.2265V1.14838C46.1473 1.02943 46.1781 0.935967 46.2397 0.867994C46.3013 0.80002 46.386 0.766034 46.4938 0.766034H47.2563C47.3642 0.766034 47.4489 0.80002 47.5105 0.867994C47.5721 0.935967 47.6029 1.02943 47.6029 1.14838V17.1049H53.8645Z" fill="black"/>
<path d="M66.102 6.11889C66.2099 6.11889 66.2946 6.15288 66.3562 6.22085C66.4177 6.28882 66.4486 6.38229 66.4486 6.50124V18.2265C66.4486 18.3455 66.4177 18.439 66.3562 18.5069C66.2946 18.5749 66.2099 18.6089 66.102 18.6089H65.4781C65.2779 18.6089 65.1624 18.4814 65.1316 18.2265L65.016 16.5698C64.5693 17.3004 63.9917 17.8782 63.2831 18.303C62.5746 18.7108 61.7736 18.9148 60.8802 18.9148C59.8174 18.9148 58.8624 18.6259 58.0152 18.0481C57.168 17.4703 56.5056 16.6887 56.0281 15.703C55.5506 14.7005 55.3118 13.5959 55.3118 12.3894C55.3118 11.1829 55.5506 10.0868 56.0281 9.1012C56.5056 8.0986 57.168 7.30841 58.0152 6.73065C58.8624 6.15288 59.8174 5.86399 60.8802 5.86399C61.789 5.86399 62.5977 6.07641 63.3062 6.50124C64.0148 6.90907 64.5924 7.48685 65.0391 8.23454L65.1316 6.50124C65.1624 6.24634 65.2779 6.11889 65.4781 6.11889H66.102ZM60.9726 17.5128C62.0201 17.5128 62.9289 17.1305 63.699 16.3658C64.4692 15.6011 64.9544 14.6325 65.1547 13.4599L65.2009 12.3894L65.1547 11.2934C64.9544 10.1208 64.4692 9.15218 63.699 8.38748C62.9289 7.62279 62.0201 7.24044 60.9726 7.24044C60.1563 7.24044 59.4169 7.46135 58.7546 7.90318C58.0921 8.345 57.5762 8.95675 57.2064 9.73844C56.8368 10.5201 56.6519 11.3953 56.6519 12.3638C56.6519 13.3325 56.8368 14.2162 57.2064 15.0148C57.5762 15.7965 58.0921 16.4083 58.7546 16.8501C59.4169 17.2919 60.1563 17.5128 60.9726 17.5128Z" fill="black"/>
<path d="M74.1961 5.86399C75.2589 5.86399 76.2139 6.15288 77.0611 6.73065C77.9083 7.30841 78.5707 8.0986 79.0481 9.1012C79.5257 10.0868 79.7644 11.1829 79.7644 12.3894C79.7644 13.5959 79.5257 14.7005 79.0481 15.703C78.5707 16.6887 77.9083 17.4703 77.0611 18.0481C76.2139 18.6259 75.2589 18.9148 74.1961 18.9148C73.3027 18.9148 72.5017 18.7108 71.7932 18.303C71.0845 17.8782 70.5069 17.3004 70.0602 16.5698L69.9447 18.2265C69.9139 18.4814 69.7983 18.6089 69.5981 18.6089H68.9742C68.8664 18.6089 68.7817 18.5749 68.7201 18.5069C68.6584 18.439 68.6277 18.3455 68.6277 18.2265V0.383687C68.6277 0.264735 68.6584 0.171273 68.7201 0.1033C68.7817 0.0353274 68.8664 0.00134087 68.9742 0.00134087H69.6674C69.7752 0.00134087 69.8599 0.0353274 69.9216 0.1033C69.9832 0.171273 70.0141 0.264735 70.0141 0.383687V7.90318L70.0371 8.23455C70.4838 7.48685 71.0614 6.90907 71.77 6.50124C72.4786 6.07641 73.2872 5.86399 74.1961 5.86399ZM74.1037 17.5128C74.92 17.5128 75.6594 17.2919 76.3217 16.8501C76.9841 16.4083 77.5001 15.7965 77.8698 15.0148C78.2395 14.2162 78.4244 13.3325 78.4244 12.3638C78.4244 11.3953 78.2395 10.5201 77.8698 9.73845C77.5001 8.95675 76.9841 8.345 76.3217 7.90318C75.6594 7.46136 74.92 7.24044 74.1037 7.24044C73.0562 7.24044 72.1474 7.62279 71.3772 8.38748C70.607 9.15218 70.1219 10.1208 69.9216 11.2934L69.8754 12.3894L69.9216 13.4599C70.1219 14.6325 70.607 15.6011 71.3772 16.3658C72.1474 17.1305 73.0562 17.5128 74.1037 17.5128Z" fill="black"/>
<path d="M82.5035 9.15218C82.5035 9.76393 82.7268 10.2397 83.1735 10.5796C83.6356 10.9195 84.3364 11.2763 85.2761 11.6502C86.0771 11.9731 86.7163 12.2704 87.1938 12.5423C87.6713 12.8142 88.0795 13.1965 88.4184 13.6893C88.7573 14.1652 88.9267 14.7769 88.9267 15.5246C88.9267 16.1873 88.7496 16.7822 88.3953 17.3089C88.041 17.8187 87.5712 18.218 86.9858 18.5069C86.4006 18.7958 85.7844 18.9403 85.1374 18.9403C84.2748 18.9403 83.4739 18.7363 82.7345 18.3285C81.9952 17.9206 81.4021 17.4278 80.9554 16.8501C80.8784 16.7311 80.8398 16.6462 80.8398 16.5952C80.8398 16.5442 80.8707 16.4677 80.9323 16.3658L81.3482 15.856C81.4252 15.7541 81.4868 15.703 81.533 15.703C81.5947 15.703 81.687 15.771 81.8103 15.907C82.1492 16.3148 82.6113 16.6972 83.1966 17.054C83.7819 17.3939 84.4211 17.5638 85.1143 17.5638C85.8691 17.5638 86.4698 17.3853 86.9165 17.0285C87.3632 16.6547 87.5866 16.1534 87.5866 15.5246C87.5866 15.0488 87.4557 14.6494 87.1938 14.3265C86.932 13.9867 86.6085 13.7148 86.2234 13.511C85.8383 13.307 85.3223 13.0691 84.6753 12.7972C83.9206 12.4913 83.3045 12.211 82.8269 11.9561C82.3648 11.6841 81.9721 11.3273 81.6485 10.8855C81.3251 10.4267 81.1633 9.8489 81.1633 9.15218C81.1633 8.52343 81.3174 7.96265 81.6254 7.46984C81.949 6.96005 82.3802 6.56071 82.9193 6.27183C83.4739 5.98295 84.0823 5.8385 84.7447 5.8385C85.3454 5.8385 85.9692 6.00844 86.6162 6.34829C87.2785 6.67117 87.8408 7.12998 88.3029 7.72475C88.3645 7.79272 88.3953 7.86918 88.3953 7.95416C88.3953 8.03912 88.3568 8.14108 88.2797 8.26003L88.0255 8.61688C87.964 8.71885 87.887 8.76983 87.7946 8.76983C87.7175 8.76983 87.6252 8.71036 87.5173 8.5914C87.0398 8.0986 86.5853 7.74174 86.1541 7.52083C85.7228 7.29992 85.2298 7.18946 84.6753 7.18946C84.1362 7.18946 83.6356 7.3509 83.1735 7.67377C82.7268 7.97965 82.5035 8.47245 82.5035 9.15218Z" fill="black"/>
</g>
<defs>
<clipPath id="clip0_99_170">
<rect width="89" height="19" fill="white"/>
</clipPath>
</defs>
</svg>
