<svg width="9499" height="3886" viewBox="0 0 9499 3886" fill="none" xmlns="http://www.w3.org/2000/svg">
<path d="M503.869 1648.29L704.245 1902.09L908.368 1794.72L638.016 1464.76L633.372 1467.92C580.515 1521.63 536.846 1582.45 503.869 1648.29ZM1827.92 2412.91L1832.62 2409.79C1885.47 2356.06 1929.14 2295.22 1962.12 2229.37L1761.69 1975.62L1557.62 2082.95L1827.92 2412.91Z" fill="black"/>
<path d="M2102.76 1148.65C2060.6 1110.71 2015.56 1075.57 1967.98 1043.52L1911.78 1288.61C2104.24 1451.33 2224.51 1682.42 2224.51 1938.8C2224.51 2431.67 1780.59 2831.22 1232.97 2831.22C1142.2 2831.22 1054.28 2820.18 970.745 2799.61L1048.16 2463.48L1047.48 2463.43L1316.83 1297.76L1085.21 1304.61L956.971 1860.31C890.478 1906.41 544.662 2141.4 482.18 2181.91C508.828 2247.42 545.873 2308.92 592.104 2364.42C656.539 2321.96 763.456 2251.35 885.148 2170.67L800.132 2538.66L800.555 2538.9L706.673 2947.64C871.643 3017.85 1051.26 3054.03 1232.97 3053.65C1561.21 3053.65 1870.14 2938.4 2102.76 2729C2336.96 2518.23 2465.94 2237.64 2465.94 1938.85C2465.94 1640.07 2336.96 1359.42 2102.76 1148.65Z" fill="black"/>
<path d="M241.433 1938.85C241.433 1445.99 685.353 1046.49 1233.02 1046.49C1324.21 1046.49 1412.55 1057.62 1496.46 1078.39L1444.11 1304.62H1443.8L1149.12 2580.05L1380.73 2573.14L1508.97 2017.44C1575.46 1971.34 1921.28 1736.36 1983.76 1695.85C1957.11 1630.34 1920.07 1568.83 1873.84 1513.34C1809.4 1555.79 1702.48 1626.36 1580.79 1707.08L1644.65 1430.76L1644.8 1430.81L1759.9 930.406C1594.77 859.981 1414.93 823.666 1232.97 824.002C904.727 824.002 595.798 939.305 363.178 1148.66C128.975 1359.42 0 1640.07 0 1938.85C0 2237.64 128.975 2518.24 363.178 2729C405.524 2767.14 450.778 2802.44 498.592 2834.63L554.742 2589.63C362.017 2426.86 241.433 2195.53 241.433 1938.85ZM9440.21 2277.08H9401.9C9399.68 2261.76 9391.5 2251.31 9374.56 2251.31C9354.72 2251.31 9345.64 2266.96 9345.64 2292.16C9345.64 2319.39 9356.94 2333.88 9375.51 2333.88C9389.29 2333.88 9399.68 2324.88 9401.58 2308.11H9439.9C9433.93 2338.5 9412.56 2359.02 9373.3 2359.02C9333.08 2359.02 9305.43 2333.54 9305.43 2292.74C9305.43 2252.18 9333.4 2226.11 9375.78 2226.11C9413.51 2226.11 9435.83 2246.69 9440.21 2277.13V2277.08ZM9274.93 2292.45C9274.93 2345.45 9316.72 2384.26 9373.3 2384.26C9429.82 2384.26 9471.61 2345.45 9471.61 2292.45C9471.61 2239.44 9429.82 2200.39 9373.3 2200.39C9316.72 2200.39 9274.93 2239.44 9274.93 2292.45ZM9498.95 2292.45C9498.95 2358.78 9445.54 2407.41 9373.3 2407.41C9301 2407.41 9247.59 2358.78 9247.59 2292.45C9247.59 2226.16 9301 2177.48 9373.3 2177.48C9445.54 2177.48 9498.95 2226.11 9498.95 2292.45ZM6061.36 1460.57H5717.34L5565.57 2124.19C5555.38 1963.22 5526.99 1522.29 5522.88 1460.14L4931.19 1458.87C4931.19 1458.87 4721.85 2373.03 4716.2 2399H5055.58L5209.78 1737.67L5250.68 2398.95H5845.79L6061.31 1460.53L6061.36 1460.57ZM8300.12 1461.26C8300.12 1461.26 8090.67 2379.59 8086.08 2401.28H8105.87C8406.19 2401.38 8727 2399.77 9027.32 2400.16C9027.32 2400.16 9077.93 2167.81 9082.31 2146.07H8497.75C8504.98 2114.7 8511.37 2085.91 8518.12 2057.9H9063.95L9123.37 1803.03H8576.49C8582.08 1780.47 8595.22 1715.35 8595.22 1715.35C8774.28 1715.93 9006.53 1715.5 9185.59 1716.08C9185.59 1716.08 9238.41 1482.85 9243.11 1461.74C9233.61 1461.74 8596.65 1461.89 8300.12 1461.26ZM4794.88 1460.57C4789.71 1460.57 4549.92 1460.77 4441.2 1460.33C4441.2 1460.33 4440.31 1465.92 4438.14 1475.41C4421.52 1548.4 4337.24 1916.1 4310.86 2026.78C4303.15 2059.12 4290.06 2090 4260.83 2112.22C4215.29 2146.9 4122.83 2155.65 4071.85 2127.93C4059.03 2120.93 4044.09 2109.79 4039.13 2097.63C4031.85 2079.64 4036.23 2051.05 4039.92 2029.94C4047.84 1984.91 4163.15 1490.43 4169.9 1460.57H4081.61C3999.92 1460.57 3897.55 1460.82 3815.91 1460.38C3815.91 1460.38 3815.38 1462.67 3812.58 1477.21C3805.83 1511.88 3796.49 1546.16 3788.47 1580.64C3759.6 1705.04 3730.57 1829.39 3702.24 1953.83C3685.77 2025.85 3671.94 2098.02 3685.08 2172.33C3698.01 2245.57 3734.16 2305.43 3800.18 2348.52C3870.1 2394.13 3950.58 2412.03 4033.96 2417.28C4125.54 2423.43 4217.6 2417.67 4307.43 2400.16C4439.73 2373.81 4540.15 2308.64 4602.32 2196.4C4647.17 2115.43 4664.48 2026.97 4684.85 1939.39C4708.87 1835.95 4732.67 1732.42 4756.62 1628.98C4769.24 1574.18 4781.8 1517.33 4794.88 1460.53V1460.57ZM3328.56 1460.57C3328.56 1460.57 3215.31 1952.71 3195.67 2031.54C3187.44 2064.76 3170.34 2094.72 3139.53 2115.53C3100.37 2141.98 3055.72 2146.12 3010.02 2137.22C2958.73 2127.25 2902.89 2093.55 2902.89 2093.55L2661.3 2316.18C2705.53 2356.69 2763.68 2382.46 2828.7 2400.45C2882.68 2415.38 2938.57 2418.93 2994.51 2419.52C3076.3 2420.3 3157.47 2415.72 3236.52 2393.11C3378.53 2352.41 3469.88 2263.32 3515.11 2136.15C3544.13 2054.55 3674.69 1490.34 3681.28 1460.53C3670.36 1460.43 3330.61 1460.53 3328.56 1460.53V1460.57ZM7760.47 1460.57C7752.98 1460.23 7516.72 1460.82 7406.79 1460.57L7191.22 2400.11C7200.19 2400.11 7712.98 2399.53 7952.88 2400.11C7952.88 2400.11 8011.72 2138.14 8018 2109.11H7610.92L7760.47 1460.57ZM6737.9 1742.83C6742.29 1743.8 6747.25 1745.06 6752.68 1746.62C6747.86 1745.03 6742.92 1743.77 6737.9 1742.83Z" fill="black"/>
<path d="M6621.23 1884.58C6621.23 1884.58 6585.87 2045.02 6579.01 2070.01H6775.48C6767.4 2109.79 6744.66 2137.36 6706.82 2153.27C6655.1 2175.05 6600.06 2179.48 6544.6 2172.38C6467.34 2162.46 6429.19 2122.48 6424.65 2050.27C6420.16 1979.22 6439.64 1912.45 6470.72 1848.55C6492.51 1803.71 6528.61 1770.55 6579.27 1752.41C6621.91 1737.14 6665.98 1734.9 6710.09 1739.18C6710.09 1739.18 6719.75 1738.84 6737.9 1742.83C6743.02 1743.8 6747.98 1745.06 6752.68 1746.62C6764.98 1750.17 6779.91 1755.37 6797.33 1763.15L7070.63 1511.25C7047.25 1498.62 7022.57 1488.13 6996.96 1479.93C6898.12 1447.44 6795.43 1437.38 6691.1 1441.22C6558.9 1446.03 6434.04 1474.48 6323.17 1543.98C6252.14 1588.47 6193.93 1644.35 6151.29 1713.75C6111.92 1777.89 6087.43 1846.7 6071.87 1918.58C6051.02 2014.96 6042.74 2111.25 6074.72 2207.1C6101.95 2288.8 6156.78 2349.39 6240.95 2386.06C6300 2411.83 6363.17 2420.78 6427.87 2419.57C6491.67 2418.35 6554.57 2409.99 6612.47 2383.58C6683.92 2350.9 6771.1 2285.2 6806.93 2222.23L6727.61 2400.16H7054.01C7054.01 2400.16 7072.8 2323.47 7080.03 2291.82C7105.09 2182.59 7130.11 2073.42 7155.07 1964.19C7160.87 1938.9 7166.84 1912.06 7172.85 1884.63C7162.72 1884.54 6665.18 1884.63 6621.23 1884.58Z" fill="black"/>
</svg>
