<svg width="13576" height="4229" viewBox="0 0 13576 4229" fill="none" xmlns="http://www.w3.org/2000/svg">
<mask id="mask0_2003_207" style="mask-type:luminance" maskUnits="userSpaceOnUse" x="0" y="0" width="13576" height="4229">
<path d="M13576 0H0V4228.75H13576V0Z" fill="white"/>
</mask>
<g mask="url(#mask0_2003_207)">
<path d="M8462.27 2805.83C8462.27 2835.59 8486.38 2859.71 8516.14 2859.71C8545.87 2859.71 8569.99 2835.59 8569.99 2805.83V1463.98C8569.99 1434.23 8545.87 1410.12 8516.14 1410.12C8486.38 1410.12 8462.27 1434.23 8462.27 1463.98V2805.83Z" fill="#091326"/>
<path d="M5803.28 1463.45C5803.28 1433.7 5779.17 1409.59 5749.41 1409.59C5719.68 1409.59 5695.54 1433.7 5695.54 1463.45V2805.29C5695.54 2835.05 5719.68 2859.16 5749.41 2859.16C5779.17 2859.16 5803.28 2835.05 5803.28 2805.29V1463.45Z" fill="#091326"/>
<path d="M7516.73 1462.92C7516.73 1462.92 7516.73 1460.78 7516.73 1459.72C7515.67 1446.38 7509.81 1434.12 7500.74 1425.59C7500.74 1425.59 7495.42 1420.78 7492.21 1419.18H7491.16C7491.16 1419.18 7485.81 1415.45 7483.15 1414.38C7482.09 1414.38 7481.54 1413.85 7480.48 1413.32C7478.34 1412.78 7475.68 1411.72 7473.02 1411.19C7471.96 1411.19 7470.36 1411.19 7468.75 1411.19C7467.15 1411.19 7465.01 1410.65 7463.41 1410.65H7462.35C7462.35 1410.65 7459.69 1410.65 7458.63 1410.65C7456.48 1410.65 7454.34 1410.65 7452.22 1411.72C7451.68 1411.72 7450.62 1411.72 7450.07 1412.25C7447.41 1412.78 7444.75 1413.85 7442.09 1414.92C7441.55 1414.92 7440.49 1415.99 7439.95 1415.99C7437.8 1417.05 7435.14 1418.12 7433.02 1419.72C7431.94 1420.78 7430.88 1421.85 7429.82 1422.38C7428.22 1423.45 7426.62 1425.05 7425.01 1426.12C7423.95 1427.18 7422.9 1428.25 7422.35 1429.85C7421.29 1431.45 7419.69 1433.05 7418.61 1434.65L6607.49 2706.64L6201.11 2070.38C6185.12 2045.31 6152.05 2037.84 6126.98 2053.84C6101.92 2069.85 6094.46 2102.91 6110.45 2127.98L6562.15 2835.7C6562.15 2835.7 6564.81 2839.42 6565.9 2841.03C6566.96 2842.11 6568.01 2843.17 6568.56 2844.23C6569.62 2845.32 6571.22 2846.37 6572.28 2847.43C6573.88 2848.49 6575.48 2850.09 6577.08 2851.18H6577.63C6577.63 2851.18 6579.74 2852.78 6581.35 2853.3C6582.95 2854.36 6584.55 2854.9 6586.15 2855.96C6587.75 2856.5 6589.87 2857.05 6591.47 2857.56C6593.08 2857.56 6594.68 2858.65 6595.74 2858.65C6597.88 2858.65 6599.48 2859.16 6601.6 2859.16C6603.2 2859.16 6604.81 2859.16 6605.89 2859.16C6608.01 2859.16 6609.61 2859.16 6611.76 2859.16C6613.36 2859.16 6614.96 2859.16 6616.54 2858.65C6618.68 2858.65 6620.28 2857.56 6622.4 2857.05C6624 2857.05 6625.09 2856.5 6626.69 2855.44C6628.81 2854.36 6630.95 2853.3 6633.07 2852.24C6634.16 2852.24 6634.67 2851.7 6635.76 2851.18C6635.76 2851.18 6639.48 2847.98 6641.08 2846.37C6642.14 2845.32 6643.2 2844.77 6643.74 2843.71C6644.8 2842.63 6646.4 2841.03 6647.49 2839.42C6648.55 2837.85 6649.61 2836.76 6650.67 2835.16H6651.21L7408.48 1647.45V2804.78C7408.48 2834.64 7432.48 2858.65 7462.35 2858.65C7492.21 2858.65 7516.22 2834.64 7516.22 2804.78V1462.92H7516.73Z" fill="#091326"/>
<path d="M10928.2 1409.59H10925C10896.2 1409.59 10872.7 1432.98 10872.7 1461.85V2292.24C10872.7 2321.11 10896.2 2344.51 10925 2344.51H10928.2C10957.1 2344.51 10980.5 2321.11 10980.5 2292.24V1461.85C10980.5 1432.98 10957.1 1409.59 10928.2 1409.59Z" fill="#091326"/>
<path d="M10964 2767.44L9622.18 1425.59C9601.38 1404.79 9567.25 1404.79 9545.91 1425.59C9535.24 1436.26 9529.92 1450.13 9529.92 1463.99V2806.38C9529.92 2836.25 9553.92 2860.25 9583.79 2860.25C9613.65 2860.25 9637.63 2836.25 9637.63 2806.38V1593.59L10887.7 2843.71C10908.5 2864.51 10942.6 2864.51 10964 2843.71C10984.7 2822.91 10984.7 2788.78 10964 2767.44Z" fill="#091326"/>
<path d="M4943.62 2780.23L4678.56 2265.04C4664.69 2238.38 4632.7 2228.24 4606.04 2241.58C4579.38 2255.44 4569.25 2287.44 4582.58 2314.11L4603.89 2355.71H3806.11L4253.01 1487.98C4266.34 1461.85 4256.21 1429.32 4230.06 1415.45C4203.94 1401.58 4171.42 1412.25 4157.54 1438.39L3466.93 2780.23C3453.6 2806.38 3463.73 2838.91 3489.85 2852.78C3515.99 2866.63 3548.52 2855.96 3562.4 2829.84L3750.64 2463.97H4659.36L4847.61 2829.84C4861.48 2856.5 4893.47 2866.63 4920.16 2853.3C4946.82 2839.42 4956.95 2807.44 4943.62 2780.77V2780.23Z" fill="#091326"/>
<path d="M2690.46 2762.63L1622.27 2050.64V1463.98C1622.27 1434.12 1598.28 1410.12 1568.41 1410.12C1538.55 1410.12 1514.55 1434.12 1514.55 1463.98V2805.83C1514.55 2835.7 1538.55 2859.71 1568.41 2859.71C1598.28 2859.71 1622.27 2835.7 1622.27 2805.83V2180.24L2630.73 2852.78C2655.26 2868.78 2688.32 2862.37 2704.32 2837.85L2705.39 2836.76C2721.39 2812.24 2714.99 2779.17 2690.46 2763.18V2762.63Z" fill="#091326"/>
<path d="M2684.08 1511.55C2708.84 1495.04 2715.53 1461.6 2699.02 1436.85C2682.52 1412.09 2649.08 1405.4 2624.33 1421.91L2019.97 1824.84C1995.22 1841.34 1988.53 1874.78 2005.04 1899.53C2021.54 1924.29 2054.98 1930.98 2079.73 1914.47L2684.08 1511.55Z" fill="#091326"/>
<path d="M13466.7 1901.85C13453.4 1915.18 13448.5 1933.85 13452.3 1952.51C13462.9 2002.65 13468.3 2056.51 13468.3 2114.64C13468.3 2229.31 13447.5 2328.51 13405.9 2412.24C13364.3 2495.97 13307.2 2564.77 13234.7 2619.17C13162.2 2673.57 13076.3 2713.57 12977.7 2739.71C12879 2765.84 12772.3 2778.63 12658.2 2778.63C12544.1 2778.63 12436.3 2765.84 12337.2 2739.71C12238 2713.57 12151.6 2673.57 12078.5 2619.17C12005.4 2564.77 11947.9 2495.97 11906.3 2412.24C11864.7 2328.51 11843.9 2229.31 11843.9 2114.64C11843.9 2038.38 11853.5 1969.05 11872.7 1906.65C11891.9 1844.25 11919 1788.25 11953.7 1739.18C11988.4 1689.58 12030.5 1646.92 12080.1 1611.18C12129.7 1574.92 12184.1 1545.05 12244.9 1521.05C12305.2 1497.05 12370.2 1479.45 12440.1 1467.72C12509.4 1455.98 12582.5 1450.65 12658.8 1450.65C12772.9 1450.65 12879.5 1463.45 12978.2 1489.58C12981.9 1490.65 12985.6 1491.72 12989.4 1492.78C13002.7 1496.52 13017.1 1492.78 13026.7 1482.65L13037.9 1471.45C13058.7 1450.65 13049.6 1414.38 13021.4 1406.92H13020.8C12908.8 1377.05 12788.3 1362.65 12659.3 1362.65C12572.9 1362.65 12490.2 1369.05 12411.3 1382.39C12332.4 1395.18 12258.8 1415.45 12190.5 1442.65C12121.7 1469.85 12059.9 1503.45 12003.8 1544.52C11947.9 1585.58 11900.4 1633.58 11860.9 1689.58C11821.5 1745.58 11791.1 1809.05 11769.2 1879.45C11747.3 1950.38 11736.7 2028.78 11736.7 2115.18C11736.7 2245.31 11760.1 2357.84 11807.1 2452.24C11854 2546.64 11919.1 2625.04 12002.2 2686.37C12085.4 2747.7 12183 2793.56 12295.6 2822.91C12408.1 2852.24 12529.2 2867.17 12659.3 2867.17C12789.4 2867.17 12909.4 2852.24 13020.8 2822.91C13132.8 2793.56 13229.4 2747.7 13312 2686.37C13394.1 2625.04 13458.7 2546.64 13506.1 2452.24C13553.1 2357.84 13576.5 2245.31 13576.5 2115.18C13576.5 2048.51 13570.1 1987.18 13557.9 1930.11C13548.8 1887.98 13497.1 1872.51 13467.2 1902.91L13466.7 1901.85Z" fill="#091326"/>
<path d="M13315.2 1667.72C13345 1667.72 13369.1 1643.6 13369.1 1613.85C13369.1 1584.1 13345 1559.98 13315.2 1559.98C13285.5 1559.98 13261.4 1584.1 13261.4 1613.85C13261.4 1643.6 13285.5 1667.72 13315.2 1667.72Z" fill="#091326"/>
<path d="M3780.51 3278.37C3764.52 3278.37 3749.04 3286.38 3739.46 3299.17C3342.14 3843.17 2703.79 4151.96 2032.38 4125.29C991.39 4083.69 143.457 3235.71 103.46 2194.11C82.1285 1642.11 281.58 1118.39 664.483 719.99C1047.92 321.062 1562.55 101.864 2113.97 101.864C2753.38 101.864 3360.79 411.194 3739.46 929.588C3749.04 942.388 3764.52 950.388 3780.51 950.388C3799.71 950.388 3817.3 939.722 3825.83 922.655C3834.38 905.589 3832.78 884.789 3821.56 869.323C3409.86 306.127 2749.11 -18.6681 2054.24 1.06503C1509.22 15.9982 996.723 239.996 611.153 630.925C225.051 1022.39 8.00107 1538.12 0.00170526 2082.64C-8.53097 2652.77 207.985 3190.36 608.487 3597.29C1009.52 4004.22 1543.88 4228.21 2113.44 4228.21C2784.84 4228.21 3423.19 3903.42 3821.05 3359.42C3832.78 3343.97 3834.38 3323.17 3825.31 3306.09C3816.76 3289.04 3799.16 3278.37 3779.97 3278.37H3780.51Z" fill="url(#paint0_radial_2003_207)"/>
</g>
<defs>
<radialGradient id="paint0_radial_2003_207" cx="0" cy="0" r="1" gradientUnits="userSpaceOnUse" gradientTransform="translate(4133.02 1066.66) rotate(108.837) scale(2394.91 5798.79)">
<stop offset="0.139194" stop-color="#091326" stop-opacity="0"/>
<stop offset="0.620501" stop-color="#091326" stop-opacity="0.536145"/>
<stop offset="1" stop-color="#091326"/>
</radialGradient>
</defs>
</svg>
