<svg width="590" height="136" viewBox="0 0 590 136" fill="none" xmlns="http://www.w3.org/2000/svg">
<path d="M71.3808 50.3962L58.2526 0H54.6743L42.7076 50.4788L56.3703 45.6725L71.3808 50.3962Z" fill="black"/>
<path d="M42.638 84.369L55.7898 134.766H59.3448L71.3114 84.2595L57.6485 89.093L42.638 84.369Z" fill="black"/>
<path d="M71.4271 84.3143L114.042 68.797V64.5677L71.3342 50.4513L75.4006 66.5999L71.4271 84.3143Z" fill="black"/>
<path d="M42.638 50.4513L0 65.9682V70.1978L42.7077 84.3143L38.6415 68.1656L42.638 50.4513Z" fill="black"/>
<path d="M372.797 27.7664H360.784V106.945H372.797V27.7664Z" fill="black"/>
<path d="M317.544 62.1786H269.444V27.7664H257.431V106.945H269.444V76.3501H317.544V106.945H329.534V27.7664H317.544V62.1786Z" fill="black"/>
<path d="M567.77 27.7659H533.035C527.425 27.7804 522.049 30.4222 518.086 35.1121C514.123 39.8017 511.896 46.1566 511.89 52.7853V106.999H523.88V76.3497H577.066V106.999H589.056V52.7853C589.053 49.4893 588.498 46.2263 587.427 43.1833C586.354 40.1407 584.785 37.3778 582.808 35.0536C580.831 32.7292 578.485 30.8888 575.903 29.6382C573.325 28.3877 570.559 27.7514 567.77 27.7659ZM523.88 62.1506V52.7853C523.914 49.9289 524.89 47.2015 526.599 45.1812C528.309 43.1612 530.617 42.0073 533.035 41.9648H567.77C570.188 42.0073 572.496 43.1612 574.205 45.1812C575.915 47.2015 576.891 49.9289 576.925 52.7853V62.1506H523.88Z" fill="black"/>
<path d="M224.878 27.7664L196.832 62.1786H171.063V27.7664H159.05V106.945H171.063V76.3501H198.133L222.903 106.725H238.308L207.102 68.4679L240.283 27.7664H224.878Z" fill="black"/>
<path d="M403.865 41.9649H471.134V45.2057C471.116 46.4274 470.78 47.6129 470.167 48.5972C469.557 49.5819 468.699 50.3163 467.717 50.6988L414.807 71.2691C411.598 72.506 408.804 74.9132 406.827 78.1453C404.846 81.3777 403.784 85.2679 403.796 89.2578V100.957V106.862H482.122V92.6908H414.738V89.3401C414.75 88.1175 415.087 86.9302 415.7 85.9452C416.313 84.9599 417.17 84.2262 418.155 83.8474L471.062 63.2771C474.268 62.0327 477.06 59.6231 479.037 56.3924C481.014 53.1621 482.079 49.2755 482.076 45.288V42.0475V27.8485H403.747L403.865 41.9649Z" fill="black"/>
</svg>
