<svg width="13627" height="3412" viewBox="0 0 13627 3412" fill="none" xmlns="http://www.w3.org/2000/svg">
<path d="M3619.59 1024.06H3327.73V2407.39H4286.21V2166.18H3619.59V1024.06Z" fill="#1C2D37"/>
<path d="M4731.12 1352.47H4442.46V2405.95H4731.12V1352.47Z" fill="#1C2D37"/>
<path d="M4734.38 980.489H4434.55V1228.97H4734.38V980.489Z" fill="#1C2D37"/>
<path d="M5791.67 1375.71C5724.28 1342.2 5648.32 1325.66 5571.59 1327.76C5477.5 1327.76 5397.76 1346.65 5332.37 1384.43C5270.9 1422 5222.7 1474.99 5193.62 1537L5180.86 1352.46H4909.75V2405.95H5198.41V1829.07C5198.41 1763.68 5207.98 1709.92 5230.31 1666.33C5248.95 1625.72 5281.36 1591.6 5322.8 1568.97C5365.44 1546.7 5414.02 1535.64 5463.15 1537C5508.36 1535.36 5553.14 1545.44 5592.32 1566.06C5627.42 1584.96 5654.42 1614.17 5668.87 1648.89C5686.23 1693.14 5694.34 1739.96 5692.8 1786.93V2407.39H5978.58V1738.98C5978.58 1650.34 5962.64 1576.23 5930.74 1515.21C5901.34 1456.72 5852.75 1407.98 5791.67 1375.71Z" fill="#1C2D37"/>
<path d="M6880.89 1927.87C6883.03 1983.43 6872.71 2038.8 6850.59 2090.61C6834.35 2130.36 6804.77 2164.42 6766.06 2187.97C6726.92 2210.21 6681.4 2221.34 6635.29 2219.94C6558.74 2219.94 6501.33 2201.05 6464.64 2163.27C6427.96 2125.49 6410.42 2065.91 6410.42 1983.08V1353.9H6124.95L6123.36 2029.58C6121.26 2105.7 6136.46 2181.4 6168.01 2251.9C6195.93 2308.41 6243.59 2354.9 6303.57 2384.13C6372.45 2414.95 6448.55 2429.91 6525.25 2427.73C6616.15 2427.73 6692.7 2408.84 6754.9 2371.06C6812.52 2333.82 6857.32 2282.41 6884.08 2222.84L6895.24 2408.84H7166.38V1355.36H6880.89V1927.87Z" fill="#1C2D37"/>
<path d="M8665.57 1326.3C8571.46 1326.3 8493.31 1345.19 8432.7 1382.97C8372.52 1424.03 8326.52 1480.03 8300.33 1544.27C8297.35 1533.89 8293.59 1523.69 8289.19 1513.75C8264.14 1456.44 8220.06 1407.69 8163.21 1374.25C8107.36 1342.29 8037.16 1326.3 7952.63 1326.3C7861.79 1326.3 7786.84 1345.19 7730.98 1382.97C7677.33 1418.67 7636.73 1468.3 7614.58 1525.37L7603.44 1352.46H7332.32V2405.94H7621.26V1795.65C7621.26 1709.92 7640.42 1645.98 7677.11 1603.85C7715.37 1558.8 7771.15 1537 7844.54 1537C7909.91 1537 7959.38 1555.89 7992.88 1593.67C8026.37 1631.45 8043.91 1688.12 8043.91 1760.77V2405.94H8332.56V1795.65C8332.56 1709.92 8351.72 1645.98 8388.34 1603.85C8426.67 1558.8 8482.45 1537 8555.84 1537C8622.84 1537 8672.24 1554.43 8705.74 1590.76C8739.24 1627.09 8755.21 1683.76 8755.21 1760.77V2405.94H9043.86V1737.52C9043.86 1600.94 9011.92 1499.22 8948.19 1429.47C8884.38 1359.73 8789.91 1326.3 8665.57 1326.3Z" fill="#1C2D37"/>
<path d="M9488.44 1024.06H9196.59V2407.39H10155.1V2166.18H9488.44V1024.06Z" fill="#1C2D37"/>
<path d="M10808.9 1329.21C10655.8 1329.21 10534.6 1359.72 10446.9 1422.21C10359.2 1484.69 10306.6 1570.42 10292.2 1682.31L10558.5 1712.82C10559.4 1687.82 10565.8 1663.22 10577.3 1640.51C10588.8 1617.79 10605.2 1597.42 10625.5 1580.59C10665.4 1550.08 10721.2 1534.1 10792.9 1534.1C10832.8 1532.82 10872.5 1539.25 10909.4 1552.99C10939 1565.03 10963.6 1585.4 10979.6 1611.11C10996.2 1640.8 11004.9 1673.66 11005.1 1707.01V1728.81L10665.4 1781.12C10529.8 1802.92 10429.3 1843.6 10360.8 1901.73C10327.4 1929.45 10301 1963.4 10283.4 2001.27C10265.8 2039.14 10257.4 2080.03 10258.7 2121.13C10257.2 2179.55 10274.4 2237.11 10308.2 2286.79C10340.2 2332.97 10386.2 2369.78 10440.6 2392.86C10501 2418.26 10567 2430.69 10633.5 2429.19C10727.6 2429.19 10805.7 2410.3 10868 2372.52C10930.6 2333.91 10979.5 2279.32 11008.3 2215.59C11008.1 2214.8 11008.3 2214 11008.6 2213.25C11008.8 2212.49 11009.3 2211.8 11009.8 2211.23L11021 2408.84H11293.7V1743.34C11293.7 1612.56 11252.3 1510.84 11172.5 1438.19C11092.8 1365.54 10971.6 1329.21 10808.9 1329.21ZM11005.1 2004.89C11003.5 2046.66 10989.7 2087.29 10965.2 2122.59C10941.5 2155.82 10907.7 2182.07 10868 2198.15C10823.8 2216.14 10775.9 2225.07 10727.6 2224.3C10671.8 2224.3 10628.7 2212.68 10598.4 2189.43C10583.3 2177.58 10571.1 2162.86 10562.8 2146.3C10554.6 2129.74 10550.4 2111.73 10550.6 2093.53C10548.7 2074.65 10552 2055.64 10560 2038.17C10568.1 2020.69 10580.7 2005.28 10596.8 1993.26C10630.3 1968.56 10682.9 1948.22 10756.3 1935.14L11005.1 1888.64V2004.89Z" fill="#1C2D37"/>
<path d="M12357.8 1391.98C12284 1347.84 12197.3 1325.05 12109 1326.59C12002.2 1326.59 11914.5 1349.85 11842.7 1396.34C11795.7 1426.37 11756.1 1464.97 11726.2 1509.68V1004.01H11437.6V2407.68H11689.6L11707.2 2231.86C11734 2279.98 11772.1 2322.14 11818.8 2355.38C11885.8 2403.33 11971.9 2426.57 12073.9 2426.57C12166.4 2427.52 12257.1 2404.33 12335.5 2359.73C12415.8 2312.53 12480.3 2246.19 12522.1 2167.93C12568.4 2085.1 12590.6 1987.75 12590.6 1874.4C12590.6 1761.06 12569.9 1663.71 12528.5 1580.88C12492.3 1504.47 12433.2 1438.96 12357.8 1391.98ZM12259 2058.94C12239.5 2105.03 12205.7 2144.94 12161.7 2173.74C12105.1 2207.28 12037 2220.77 11970.3 2211.67C11903.7 2202.56 11842.9 2171.49 11799.6 2124.33C11750.2 2066.21 11724.7 1984.84 11724.7 1881.67C11726.2 1774.14 11751.8 1691.32 11801.3 1631.74C11850.7 1572.17 11919.2 1543.1 12006.9 1543.1C12061.7 1541.65 12115.6 1555.33 12161.7 1582.34C12206.4 1610.48 12240.4 1650.59 12259 1697.13C12282.8 1754.16 12294.1 1814.87 12292.4 1875.86C12293.7 1938.17 12282.2 2000.16 12258.6 2058.65L12259 2058.94Z" fill="#1C2D37"/>
<path d="M13542.4 1882.84C13486.6 1831.98 13402.1 1795.65 13290.4 1772.41L13086.3 1730.27C13060.5 1724.99 13035.4 1717.2 13011.4 1707.02C12994.2 1698.62 12979.4 1686.68 12968.3 1672.15C12957.1 1656.66 12951.5 1638.36 12952.3 1619.83C12951.6 1599.05 12959.6 1578.79 12974.7 1563.16C12992.1 1547.58 13013.4 1536.11 13036.9 1529.74C13068.5 1521.54 13101.3 1517.62 13134.2 1518.12C13196.3 1518.12 13245.8 1529.74 13282.4 1554.45C13319.1 1579.15 13341.5 1619.84 13349.4 1676.51L13615.8 1640.18C13606.9 1578.41 13580.5 1519.81 13539.2 1470.17C13496.6 1421.61 13440.4 1384.46 13376.5 1362.64C13300.2 1336.42 13219 1323.59 13137.4 1324.86C12992.2 1324.86 12880.6 1352.47 12799.2 1407.69C12717.9 1462.9 12678 1538.46 12678 1634.36C12678 1718.64 12705.1 1788.39 12759.3 1840.7C12813.6 1893.01 12890.1 1929.34 12992.2 1948.23L13175.6 1983.1C13209.6 1988.26 13242.7 1997.05 13274.5 2009.26C13296.2 2016.83 13315.4 2029.33 13330.3 2045.58C13343.7 2062.99 13350.4 2083.92 13349.4 2105.16C13349.4 2147.3 13331.9 2179.27 13295.2 2198.16C13249.3 2219.22 13198.2 2229.22 13146.9 2227.22C13075.1 2227.22 13016.1 2212.69 12971.5 2183.63C12926.8 2154.57 12899.7 2108.07 12891.7 2042.68L12625.4 2081.91C12630.2 2149 12656.9 2213.26 12701.9 2266.45C12748.3 2320.39 12810.1 2361.62 12880.6 2385.6C13047.3 2437.04 13228.1 2436.02 13394.1 2382.7C13461.5 2360.19 13520.6 2320.92 13564.8 2269.36C13606.2 2220.27 13628.1 2159.82 13626.9 2097.9C13626.9 2004.9 13598.3 1933.7 13542.4 1882.84Z" fill="#1C2D37"/>
<path d="M2274.01 2137.13L1923.79 1584.96H1622.21L1972.43 2137.13H2274.01Z" fill="#1C2D37"/>
<path d="M1372.79 1192.62H2072.91L1923.95 955.766H1223.68L1372.79 1192.62Z" fill="#1C2D37"/>
<path d="M1622.42 1507.97H1922.24L2073.11 1269.66H1773.13L1622.42 1507.97Z" fill="#1C2D37"/>
<path d="M1898.02 2174.9L1547.96 1622.74L1397.09 1861.04L1747.31 2411.61L1898.02 2174.9Z" fill="#1C2D37"/>
<path d="M1674.38 1269.66H1372.81L1022.75 1823.28H1322.57L1674.38 1269.66Z" fill="#1C2D37"/>
<path d="M1873.73 877.304L1722.86 639H1022.75L1173.45 877.304H1873.73Z" fill="#1C2D37"/>
<path d="M2371.18 2137.13H2672.75L2322.53 1584.96H2020.96L2371.18 2137.13Z" fill="#1C2D37"/>
<path d="M943.981 1319.05L799.01 1545.73L949.723 1784.18L1299.94 1230.41L1149.07 993.562L943.981 1319.05Z" fill="#1C2D37"/>
<path d="M773.14 2138.57H1473.42L1322.55 1900.27H622.27L773.14 2138.57Z" fill="#1C2D37"/>
<path d="M875.378 1821.81L724.509 1583.5H422.932L573.8 1821.81H875.378Z" fill="#1C2D37"/>
<path d="M2274.01 2215.58H1972.43L1622.21 2767.75H1923.79L2138.93 2429.19L2274.01 2215.58Z" fill="#1C2D37"/>
<path d="M1547.73 2253.38L1398.62 2490.23L1549.48 2728.68L1698.6 2490.08L1547.73 2253.38Z" fill="#1C2D37"/>
<path d="M2156.01 2554.15L2021.1 2767.75H2322.51L2672.73 2215.58H2371.16L2156.01 2554.15Z" fill="#1C2D37"/>
<path d="M774.78 2215.58L625.666 2452.43H1325.94L1474.9 2215.58H774.78Z" fill="#1C2D37"/>
<path d="M350.219 1622.74L0 2176.36L150.869 2413.07L500.928 1861.04L350.219 1622.74Z" fill="#1C2D37"/>
<path d="M1100.6 916.537L949.893 678.232L599.674 1231.85L750.542 1468.71L1100.6 916.537Z" fill="#1C2D37"/>
<path d="M424.666 2767.76H1124.78L1275.65 2529.46H575.375L424.666 2767.76Z" fill="#1C2D37"/>
<path d="M549.555 1938.03L199.336 2490.2L350.045 2728.51L700.264 2176.34L549.555 1938.03Z" fill="#1C2D37"/>
</svg>
