<svg width="337" height="344" viewBox="0 0 337 344" fill="none" xmlns="http://www.w3.org/2000/svg">
<path fill-rule="evenodd" clip-rule="evenodd" d="M161.742 93.1088C161.743 93.1067 161.745 93.1043 161.746 93.1023C174.162 99.4694 187.748 101.651 200.749 101.613C208.304 108.548 214.589 116.693 220.494 125.057C222.942 128.551 225.151 132.207 227.104 136C231.62 144.691 234.941 153.886 238.301 163.19C239.286 165.919 240.276 168.657 241.299 171.395C241.619 172.566 241.954 173.738 242.304 174.911L242.322 174.907C247.512 192.698 255.09 211.704 265.245 227.396L265.235 227.4C268.593 232.555 272.356 237.436 276.487 241.997C277.3 242.876 278.131 243.746 278.964 244.618L278.964 244.618L278.964 244.619L278.966 244.62C282.855 248.692 286.772 252.794 288.992 257.925C291.756 264.319 291.544 271.675 289.882 278.442C282.036 310.339 251.303 318.72 221.931 319.493L221.945 319.456C210.932 319.675 199.995 318.855 190.297 317.862C190.297 317.862 143.524 313.023 103.878 284.053L102.599 283.102L102.599 283.102C97.9712 279.656 93.5563 275.932 89.3785 271.952C78.2661 261.351 68.3785 249.328 60.8174 236.129C60.868 236.078 60.9183 236.027 60.9689 235.977C60.0739 234.367 59.2158 232.741 58.3951 231.099C51.0803 216.467 46.6223 200.539 46.4205 183.609C46.0763 155.201 55.8 126.109 74.283 105.017C74.2762 104.999 74.2697 104.982 74.2632 104.964C84.2705 94.0084 96.7789 85.4016 111.586 80.5015C120.869 77.4014 130.615 75.9129 140.401 76.1006C146.355 83.089 153.602 88.8635 161.742 93.1088ZM138.958 278.979C145.649 276.537 151.989 273.254 157.9 269.209C151.951 273.227 145.603 276.512 138.958 278.979Z" fill="url(#paint0_linear_99_33)"/>
<path fill-rule="evenodd" clip-rule="evenodd" d="M258.822 69.9722C258.827 69.9722 258.832 69.9722 258.836 69.9718L259.24 69.712C207.092 -19.1946 138.906 50.8022 138.906 50.8022L139.003 50.9735C138.999 50.9745 138.995 50.9756 138.991 50.9766C178.201 119.685 252.721 73.8906 258.822 69.9722Z" fill="url(#paint1_linear_99_33)"/>
<path d="M194.18 223.101C179.811 257.432 152.221 280.165 118.795 283.609C118.077 283.704 108.928 284.426 103.878 284.053C143.524 313.023 190.297 317.861 190.297 317.861C200.312 318.887 211.646 319.729 223.022 319.431C227.029 308.978 229.283 297.009 228.637 283.431C227.135 251.893 245.432 235.702 265.245 227.396C255.09 211.704 247.512 192.698 242.322 174.907C226.851 179.02 207.202 191.956 194.18 223.101Z" fill="url(#paint2_linear_99_33)"/>
<path d="M228.01 283.208C228.66 296.787 225.937 309.039 221.931 319.493C251.303 318.72 282.036 310.339 289.882 278.442C291.544 271.675 291.756 264.319 288.992 257.925C286.296 251.694 281.099 246.982 276.487 241.997C272.172 237.233 268.26 232.121 264.79 226.712C244.994 235.021 226.508 251.674 228.01 283.208Z" fill="url(#paint3_linear_99_33)"/>
<path d="M241.299 171.395C236.786 159.324 232.944 147.24 227.104 136C225.151 132.207 222.943 128.551 220.494 125.057C214.589 116.693 208.304 108.548 200.749 101.613C187.748 101.651 174.162 99.4694 161.746 93.1023C149.17 110.931 134.78 141.177 147.952 175.7C167.402 226.684 127.93 261.529 102.599 283.102L103.878 284.053C108.628 284.423 113.401 284.355 118.138 283.848C151.561 280.401 180.748 257.121 195.118 222.793C208.143 191.648 227.09 179.817 242.541 175.7C242.105 174.264 241.691 172.829 241.299 171.395Z" fill="url(#paint4_linear_99_33)"/>
<path d="M75.6419 103.497C56.2773 124.698 46.0681 154.513 46.4204 183.609C46.6223 200.539 51.0803 216.467 58.3951 231.099C59.4923 233.294 60.6555 235.46 61.8848 237.596C102.595 196.754 87.8868 135.897 75.6419 103.497Z" fill="url(#paint5_linear_99_33)"/>
<path d="M148.636 175.7C135.464 141.163 149.532 111.116 162.092 93.2904C153.809 89.0287 146.441 83.1892 140.401 76.1006C130.615 75.9129 120.869 77.4014 111.586 80.5015C96.7789 85.4016 84.2705 94.0084 74.2632 104.964C86.2378 136.653 100.628 196.183 60.8174 236.129C68.3785 249.328 78.2661 261.351 89.3786 271.952C93.7616 276.128 98.4057 280.021 103.283 283.609C128.614 262.045 168.086 226.684 148.636 175.7Z" fill="url(#paint6_linear_99_33)"/>
<path d="M197.752 56.4659C225.318 67.3365 244.624 70.2806 258.621 69.86L259.025 69.6002C206.877 -19.3064 138.69 50.6904 138.69 50.6904L138.789 50.8648C153.497 48.2592 174.874 47.4488 197.752 56.4659Z" fill="url(#paint7_linear_99_33)"/>
<path d="M198.094 55.8504C175.23 46.8469 153.73 47.1888 138.776 50.8648C177.987 119.576 252.511 73.7753 258.607 69.86C244.6 70.2806 225.66 66.7209 198.094 55.8504Z" fill="url(#paint8_linear_99_33)"/>
<defs>
<linearGradient id="paint0_linear_99_33" x1="15.9092" y1="117.801" x2="334.686" y2="308.93" gradientUnits="userSpaceOnUse">
<stop stop-color="#E54033"/>
<stop offset="0.489583" stop-color="#FECA1A"/>
<stop offset="1" stop-color="#AFD803"/>
</linearGradient>
<linearGradient id="paint1_linear_99_33" x1="90243.1" y1="10677.5" x2="70292.1" y2="-9855.95" gradientUnits="userSpaceOnUse">
<stop offset="0.15" stop-color="#6CBF00"/>
<stop offset="1" stop-color="#AFD803"/>
</linearGradient>
<linearGradient id="paint2_linear_99_33" x1="70.9685" y1="286.46" x2="270.762" y2="237.854" gradientUnits="userSpaceOnUse">
<stop offset="0.21" stop-color="#E54033"/>
<stop offset="0.84" stop-color="#FECA1A"/>
</linearGradient>
<linearGradient id="paint3_linear_99_33" x1="228.387" y1="272.991" x2="290.039" y2="273.453" gradientUnits="userSpaceOnUse">
<stop stop-color="#FECA1A"/>
<stop offset="0.4" stop-color="#FECA1A"/>
<stop offset="1" stop-color="#AFD803"/>
</linearGradient>
<linearGradient id="paint4_linear_99_33" x1="88.8347" y1="287.705" x2="215.148" y2="116.608" gradientUnits="userSpaceOnUse">
<stop offset="0.16" stop-color="#E54033"/>
<stop offset="0.84" stop-color="#FECA1A"/>
</linearGradient>
<linearGradient id="paint5_linear_99_33" x1="70.4278" y1="117.764" x2="64.8366" y2="228.234" gradientUnits="userSpaceOnUse">
<stop stop-color="#FECA1A"/>
<stop offset="0.76" stop-color="#E54033"/>
</linearGradient>
<linearGradient id="paint6_linear_99_33" x1="132.261" y1="89.0776" x2="98.5371" y2="217.204" gradientUnits="userSpaceOnUse">
<stop offset="0.16" stop-color="#FECA1A"/>
<stop offset="1" stop-color="#E54033"/>
</linearGradient>
<linearGradient id="paint7_linear_99_33" x1="145.338" y1="27.7388" x2="270.313" y2="73.8292" gradientUnits="userSpaceOnUse">
<stop offset="0.15" stop-color="#6CBF00"/>
<stop offset="1" stop-color="#AFD803"/>
</linearGradient>
<linearGradient id="paint8_linear_99_33" x1="148.531" y1="68.3383" x2="245.587" y2="80.9757" gradientUnits="userSpaceOnUse">
<stop stop-color="#AFD803"/>
<stop offset="1" stop-color="#6CBF00"/>
</linearGradient>
</defs>
</svg>

