<svg width="324" height="83" viewBox="0 0 324 83" fill="none" xmlns="http://www.w3.org/2000/svg">
<path d="M13.7385 59.3952L26.18 46.9464L38.6216 59.3952L51.0632 46.9464L63.5048 59.3952L75.9464 46.9464L51.0632 22.0488L38.6216 34.4976L26.18 22.0488L1.29688 46.9464L13.7385 59.3952Z" fill="#032131"/>
<path d="M91.4961 58.8773H97.2504V32.1643L108.137 58.8773H113.165L124.052 32.1643V58.8773H129.806V22.5684H122.237L110.832 51.1488L99.2202 22.5684H91.4961V58.8773Z" fill="#032131"/>
<path d="M148.479 59.1877C155.062 59.1877 159.52 55.1936 160.454 49.955H154.855C154.077 52.9114 151.589 54.6233 148.168 54.6233C143.761 54.6233 140.91 51.6666 140.755 47.1538V46.7908H160.765C160.868 46.0646 160.92 45.3384 160.92 44.6641C160.765 36.8836 155.632 32.0078 147.96 32.0078C140.132 32.0078 134.896 37.4542 134.896 45.6496C134.896 53.7933 140.132 59.1877 148.479 59.1877ZM140.962 42.693C141.376 38.9065 144.435 36.5205 148.012 36.5205C151.9 36.5205 154.648 38.7509 155.114 42.693H140.962Z" fill="#032131"/>
<path d="M167.161 51.6673C167.161 56.4911 169.338 58.8772 174.418 58.8772H179.602V53.9495H175.663C173.537 53.9495 172.811 53.1715 172.811 51.0967V37.2474H179.291V32.3198H172.811V24.9023H167.161V32.3198H162.547V37.2474H167.161V51.6673Z" fill="#032131"/>
<path d="M207.122 54.0007C205.981 54.0007 205.411 53.6375 205.411 52.2891V41.6556C205.411 35.3794 201.368 32.0078 194.317 32.0078C187.63 32.0078 183.172 35.2238 182.602 40.4108H188.097C188.512 38.0766 190.741 36.5205 194.058 36.5205C197.739 36.5205 199.864 38.336 199.864 41.2925V42.9005H193.177C185.764 42.9005 181.824 45.9608 181.824 51.4072C181.824 56.3349 185.868 59.1877 191.674 59.1877C195.976 59.1877 198.672 57.3203 200.435 54.6233C200.435 57.2684 201.679 58.8764 205.308 58.8764H208.263V54.0007H207.122ZM199.864 47.9837C199.813 52.0814 197.117 54.8307 192.451 54.8307C189.393 54.8307 187.527 53.2746 187.527 51.044C187.527 48.3469 189.445 47.0502 192.918 47.0502H199.864V47.9837Z" fill="#032131"/>
<path d="M225.146 58.8773H231.108V45.7024H239.454C247.022 45.7024 251.999 41.1378 251.999 34.1354C251.999 27.081 247.022 22.5684 239.454 22.5684H225.146V58.8773ZM238.988 27.7554C243.239 27.7554 245.933 30.1932 245.933 34.1354C245.933 38.0256 243.187 40.5154 238.936 40.5154H231.108V27.7554H238.988Z" fill="#032131"/>
<path d="M267.292 59.1877C275.38 59.1877 280.822 53.7414 280.822 45.5978C280.822 37.506 275.38 32.0078 267.292 32.0078C259.206 32.0078 253.762 37.506 253.762 45.5978C253.762 53.7414 259.206 59.1877 267.292 59.1877ZM267.292 54.4156C262.575 54.4156 259.516 50.733 259.516 45.5978C259.516 40.4626 262.575 36.7799 267.292 36.7799C272.01 36.7799 275.121 40.4626 275.121 45.5978C275.121 50.733 272.01 54.4156 267.292 54.4156Z" fill="#032131"/>
<path d="M297.87 59.1877C305.958 59.1877 311.4 53.7414 311.4 45.5978C311.4 37.506 305.958 32.0078 297.87 32.0078C289.785 32.0078 284.34 37.506 284.34 45.5978C284.34 53.7414 289.785 59.1877 297.87 59.1877ZM297.87 54.4156C293.154 54.4156 290.094 50.733 290.094 45.5978C290.094 40.4626 293.154 36.7799 297.87 36.7799C302.589 36.7799 305.699 40.4626 305.699 45.5978C305.699 50.733 302.589 54.4156 297.87 54.4156Z" fill="#032131"/>
<path d="M315.902 58.8773H321.503V22.5684H315.902V58.8773Z" fill="#032131"/>
</svg>
