<svg width="358" height="159" viewBox="0 0 358 159" fill="none" xmlns="http://www.w3.org/2000/svg">
<g clip-path="url(#clip0_2019_27)">
<path d="M157.74 87.9785H154.485L145.336 71.0234H149.198L156.112 83.842L163.027 71.0234H166.889L157.74 87.9785Z" fill="#191919"/>
<path d="M192.636 71.0234V74.4115H175.354V71.0234H192.636ZM175.354 81.2015V77.8126H192.641V81.2015H175.354ZM192.641 84.5905V87.9785H175.354V84.5905H192.641Z" fill="#191919"/>
<path d="M204.495 75.0758V87.9785H201.096V71.0234H205.224L218.389 83.9355V71.0234H221.786V87.9785H217.664L204.495 75.0758Z" fill="#191919"/>
<path d="M249.226 71.0234V74.4115H241.289V87.9785H237.89V74.4115H230.238V71.0234H249.226Z" fill="#191919"/>
<path d="M264.484 87.9785C262.67 87.9785 261.07 87.3151 259.684 85.9884C258.352 84.6067 257.687 83.0111 257.688 81.2015V71.0234H261.086V81.2015C261.088 82.0997 261.447 82.9604 262.084 83.5954C262.72 84.2305 263.583 84.5883 264.484 84.5905H270.721C271.622 84.5878 272.484 84.2299 273.121 83.5949C273.758 82.9599 274.117 82.0995 274.119 81.2015V71.0234H277.518V81.2015C277.518 83.0105 276.856 84.6061 275.533 85.9884C274.139 87.3151 272.535 87.9785 270.721 87.9785H264.484Z" fill="#191919"/>
<path d="M289.373 82.3275V87.9789H285.975V71.0238H298.011C299.014 71.0124 300 71.2765 300.862 71.7873C301.708 72.287 302.413 72.9923 302.911 73.8373C303.431 74.7306 303.697 75.7488 303.678 76.7816C303.659 77.8144 303.357 78.8224 302.805 79.6964C302.241 80.5789 301.446 81.2908 300.506 81.7549L303.82 87.9162H299.96L296.957 82.3237L289.373 82.3275ZM289.373 74.4118V78.9385H298.011C298.613 78.9385 299.19 78.7001 299.616 78.2756C300.041 77.8511 300.281 77.2755 300.281 76.6752C300.281 76.0749 300.041 75.4992 299.616 75.0747C299.19 74.6503 298.613 74.4118 298.011 74.4118H289.373Z" fill="#191919"/>
<path d="M329.569 71.0234V74.4115H312.281V71.0234H329.569ZM312.281 81.2015V77.8126H329.569V81.2015H312.281ZM329.569 84.5905V87.9785H312.281V84.5905H329.569Z" fill="#191919"/>
<path d="M339.774 79.9106C338.882 79.14 338.289 78.0828 338.096 76.9219C337.902 75.761 338.122 74.5692 338.717 73.5528C339.166 72.7926 339.802 72.1586 340.564 71.7105C341.339 71.2522 342.224 71.0146 343.125 71.0237H357.292V74.4117H343.125C342.784 74.4088 342.451 74.5088 342.169 74.6986C341.887 74.8884 341.669 75.159 341.544 75.4748C341.42 75.7905 341.394 76.1366 341.47 76.4673C341.547 76.798 341.722 77.0978 341.973 77.3272C342.289 77.5687 342.668 77.7146 343.066 77.7473C343.559 77.8016 344.055 77.8275 344.551 77.825H344.847C346.178 77.8487 347.509 77.8524 348.84 77.8362H349.232C349.881 77.8287 350.526 77.8169 351.168 77.8007C351.39 77.8007 351.616 77.7969 351.846 77.7894C352.407 77.7748 352.969 77.7982 353.527 77.8596C354.139 77.9299 354.736 78.1022 355.292 78.3695C356.756 79.1181 357.659 80.307 358 81.9363C358.143 82.6865 358.119 83.459 357.929 84.1987C357.73 84.9787 357.343 85.6987 356.803 86.2964C356.325 86.8245 355.742 87.2479 355.092 87.5399C354.45 87.831 353.753 87.9807 353.048 87.9788H338.6V84.5907H353.048C353.508 84.5907 353.916 84.4036 354.273 84.0293C354.45 83.8351 354.578 83.6015 354.646 83.3479C354.714 83.0943 354.721 82.8282 354.665 82.5716C354.622 82.3235 354.522 82.089 354.371 81.8873C354.22 81.6856 354.023 81.5225 353.797 81.4114C353.29 81.2055 352.661 81.1263 351.908 81.1737C351.686 81.1821 351.465 81.1859 351.242 81.1859C350.593 81.2015 349.932 81.2133 349.259 81.2214H348.866C347.512 81.2458 346.15 81.2417 344.78 81.2093H344.514C343.728 81.2202 342.943 81.1576 342.169 81.0221C341.341 80.8893 340.543 80.5187 339.774 79.9106Z" fill="#191919"/>
<path d="M71.3118 99.8841L64.506 84.8462L57.7001 99.8841H45.4526L38.643 84.8462L31.8372 99.8841H19.5859L38.643 57.8047L51.5745 86.3666L64.506 57.8047L83.5622 99.8841H71.3118ZM107.142 99.8841H96.2534V84.9547H82.4992L77.8719 74.0954H96.2506V59.1623H107.144L107.142 99.8841Z" fill="#191919"/>
<path d="M126.729 135H0V24H126.729V135ZM8.08932 126.933H118.64V32.0672H8.08932V126.933Z" fill="#191919"/>
</g>
<defs>
<clipPath id="clip0_2019_27">
<rect width="358" height="159" fill="white"/>
</clipPath>
</defs>
</svg>
