<svg width="461" height="356" viewBox="0 0 461 356" fill="none" xmlns="http://www.w3.org/2000/svg">
<g clip-path="url(#clip0_99_179)">
<path d="M81.4698 355.827H76.32L61.8516 335.475H67.9627L78.9047 350.873L89.8468 335.475H95.9604L81.4698 355.827Z" fill="#191919"/>
<path d="M136.69 335.475V339.544H109.333V335.475H136.69ZM109.333 347.693V343.625H136.69V347.693H109.333ZM136.69 351.761V355.827H109.333V351.761H136.69Z" fill="#191919"/>
<path d="M155.455 340.339V355.827H150.08V335.475H156.603L177.447 350.978V335.475H182.822V355.827H176.299L155.455 340.339Z" fill="#191919"/>
<path d="M226.243 335.475V339.544H213.682V355.827H208.304V339.544H196.197V335.475H226.243Z" fill="#191919"/>
<path d="M250.378 355.827C247.509 355.827 244.975 355.031 242.776 353.438C240.671 351.78 239.617 349.863 239.615 347.687V335.47H245.008V347.687C245.01 348.765 245.577 349.799 246.583 350.562C247.589 351.325 248.953 351.756 250.378 351.761H260.249C261.674 351.758 263.039 351.328 264.046 350.566C265.054 349.804 265.622 348.771 265.627 347.693V335.475H271.004V347.693C271.004 349.863 269.958 351.78 267.866 353.444C265.659 355.037 263.12 355.833 260.249 355.833L250.378 355.827Z" fill="#191919"/>
<path d="M289.774 349.043V355.827H284.396V335.475H303.441C305.028 335.461 306.589 335.779 307.953 336.392C309.292 336.992 310.409 337.839 311.198 338.853C312.02 339.926 312.44 341.148 312.41 342.388C312.38 343.627 311.902 344.837 311.028 345.886C310.138 346.947 308.88 347.803 307.392 348.361L312.637 355.757H306.536L301.778 349.043H289.774ZM289.774 339.543V344.975H303.441C304.393 344.975 305.306 344.689 305.98 344.18C306.653 343.67 307.031 342.98 307.031 342.259C307.031 341.539 306.653 340.848 305.98 340.339C305.306 339.83 304.393 339.543 303.441 339.543H289.774Z" fill="#191919"/>
<path d="M353.374 335.475V339.544H326.022V335.475H353.374ZM326.017 347.693V343.625H353.374V347.693H326.017ZM353.374 351.761V355.827H326.022V351.761H353.374Z" fill="#191919"/>
<path d="M369.53 346.142C368.119 345.217 367.179 343.949 366.874 342.555C366.569 341.162 366.916 339.732 367.857 338.512C368.568 337.599 369.574 336.838 370.78 336.299C372.006 335.749 373.407 335.464 374.832 335.475H397.245V339.544H374.832C374.293 339.539 373.765 339.659 373.318 339.887C372.871 340.114 372.526 340.439 372.328 340.819C372.131 341.198 372.09 341.613 372.212 342.01C372.334 342.408 372.612 342.767 373.009 343.042C373.507 343.33 374.102 343.505 374.726 343.547C375.506 343.612 376.291 343.642 377.075 343.64H377.546C379.654 343.667 381.759 343.671 383.863 343.653H384.484C385.51 343.643 386.532 343.629 387.549 343.61C387.9 343.61 388.258 343.61 388.621 343.597C389.509 343.579 390.398 343.607 391.281 343.68C392.251 343.765 393.195 343.972 394.075 344.293C396.393 345.194 397.822 346.621 398.361 348.574C398.588 349.475 398.55 350.402 398.248 351.29C397.931 352.227 397.317 353.091 396.461 353.809C395.706 354.439 394.788 354.944 393.763 355.293C392.748 355.643 391.644 355.823 390.529 355.82H367.666V351.761H390.529C390.919 351.756 391.303 351.686 391.653 351.557C392.003 351.427 392.312 351.24 392.556 351.01C392.8 350.779 392.974 350.511 393.066 350.224C393.158 349.937 393.165 349.639 393.086 349.35C393.02 349.052 392.861 348.77 392.622 348.528C392.383 348.285 392.072 348.089 391.713 347.956C390.757 347.694 389.736 347.596 388.724 347.671C388.373 347.682 388.022 347.686 387.672 347.686C386.645 347.704 385.599 347.718 384.533 347.728H383.912C381.769 347.758 379.613 347.753 377.443 347.713H377.029C375.785 347.729 374.542 347.655 373.316 347.493C371.922 347.296 370.618 346.831 369.53 346.142Z" fill="#191919"/>
<path d="M259.41 209.563L234.642 168.06L209.874 209.563H165.343L140.575 168.06L115.807 209.563H71.2485L140.572 93.4443L187.612 172.256L234.652 93.4443L303.973 209.573L259.41 209.563ZM389.751 209.563H350.137V168.36H300.11L283.285 138.389H350.137V97.1897H389.751V209.563Z" fill="#191919"/>
<path d="M461 306.46H0V0.170654H461V306.46ZM29.4274 284.199H431.573V22.4317H29.4274V284.199Z" fill="#191919"/>
</g>
<defs>
<clipPath id="clip0_99_179">
<rect width="461" height="356" fill="white"/>
</clipPath>
</defs>
</svg>
