<svg width="99" height="20" viewBox="0 0 99 20" fill="none" xmlns="http://www.w3.org/2000/svg">
<g clip-path="url(#clip0_40_460)">
<mask id="mask0_40_460" style="mask-type:luminance" maskUnits="userSpaceOnUse" x="0" y="0" width="99" height="20">
<path d="M99 0H0V20H99V0Z" fill="white"/>
</mask>
<g mask="url(#mask0_40_460)">
<path d="M14.0872 14.9113L11.7831 13.3524L10.5191 12.4967C10.0405 12.1701 9.47624 11.9957 8.89865 11.9957C8.32115 11.9957 7.7568 12.1701 7.2782 12.4967L0.248441 17.2622C0.17359 17.3134 0.118568 17.3892 0.092693 17.4767C0.0668172 17.5642 0.0716788 17.658 0.106457 17.7423C0.272575 18.1477 0.525803 18.5108 0.847834 18.8053C1.16986 19.0998 1.55266 19.3184 1.96854 19.4452C2.38441 19.572 2.82299 19.6039 3.25255 19.5386C3.68212 19.4732 4.09195 19.3123 4.45241 19.0673L8.52518 16.3097C8.6354 16.2342 8.7655 16.1938 8.89865 16.1938C9.03181 16.1938 9.16191 16.2342 9.27213 16.3097L13.3449 19.0642C13.7287 19.325 14.168 19.4903 14.627 19.5468C15.0862 19.6033 15.552 19.5493 15.9864 19.3892C16.4209 19.2292 16.8117 18.9676 17.127 18.6258C17.4423 18.2841 17.673 17.8718 17.8005 17.4228L14.0872 14.9083V14.9113Z" fill="#BAD236"/>
<path d="M17.518 5.08868L15.4931 6.51196C15.059 6.81723 14.7043 7.22405 14.4596 7.69773C14.2147 8.17141 14.087 8.69792 14.0872 9.23225V14.9098L17.8004 17.4242C17.8771 17.1572 17.9161 16.8807 17.9161 16.6027V5.29913C17.9163 5.25229 17.9038 5.20631 17.8798 5.16619C17.8558 5.12607 17.8214 5.09337 17.7804 5.07166C17.7393 5.04994 17.6931 5.04004 17.6468 5.04305C17.6005 5.04605 17.556 5.06183 17.518 5.08868Z" fill="#BAD236"/>
<path d="M0.398175 14.9097L2.42299 13.4879C2.85711 13.1822 3.21164 12.7751 3.45644 12.3012C3.70124 11.8273 3.82903 11.3007 3.82895 10.7661V5.08863L0.114207 2.57568C0.0386133 2.84233 0.000174589 3.1183 1.77022e-06 3.39566V14.6992C-0.000171647 14.7461 0.0123995 14.792 0.0363402 14.8322C0.0602809 14.8722 0.094672 14.905 0.13576 14.9267C0.176847 14.9484 0.223052 14.9583 0.269329 14.9553C0.315606 14.9523 0.360176 14.9365 0.398175 14.9097Z" fill="#BAD236"/>
<path d="M3.82887 5.08713L6.13303 6.64603L7.397 7.50342C7.8759 7.82913 8.44015 8.00312 9.01748 8.00312C9.59482 8.00312 10.159 7.82913 10.6379 7.50342L17.6677 2.73633C17.7424 2.68538 17.7974 2.60987 17.8233 2.52263C17.8492 2.4354 17.8443 2.3418 17.8097 2.25774C17.6436 1.85229 17.3903 1.48919 17.0683 1.19468C16.7462 0.900183 16.3634 0.681628 15.9476 0.554829C15.5318 0.42803 15.0931 0.396148 14.6636 0.461494C14.234 0.52684 13.8242 0.687782 13.4637 0.932675L9.39096 3.69037C9.28041 3.76509 9.15047 3.80499 9.01748 3.80499C8.88449 3.80499 8.75447 3.76509 8.644 3.69037L4.5712 0.934242C4.18744 0.673166 3.74797 0.507525 3.2887 0.450862C2.82944 0.394197 2.36341 0.448117 1.92872 0.608212C1.49403 0.768305 1.10302 1.03003 0.787639 1.37199C0.472261 1.71396 0.241472 2.12645 0.114136 2.57576L3.82887 5.08869V5.08713Z" fill="#BAD236"/>
<path d="M48.6744 7.75439C47.9413 7.79323 47.2321 8.03128 46.6218 8.44342V8.17529C46.6218 8.12196 46.6008 8.07081 46.5635 8.03309C46.5262 7.99538 46.4755 7.97419 46.4227 7.97419H44.9258C44.873 7.97419 44.8223 7.99538 44.7849 8.03309C44.7476 8.07081 44.7267 8.12196 44.7267 8.17529V14.5512C44.7267 14.6045 44.7476 14.6557 44.7849 14.6933C44.8223 14.7311 44.873 14.7522 44.9258 14.7522H46.4227C46.4755 14.7522 46.5262 14.7311 46.5635 14.6933C46.6008 14.6557 46.6218 14.6045 46.6218 14.5512V10.8722C46.8965 10.4045 47.4984 9.73267 48.7022 9.66875C48.7527 9.66592 48.8002 9.64367 48.8349 9.60658C48.8697 9.56942 48.8891 9.52025 48.889 9.46917V7.95548C48.8888 7.92778 48.883 7.90041 48.872 7.87504C48.8609 7.84968 48.8449 7.82687 48.8248 7.80802C48.8047 7.78918 48.781 7.77468 48.7551 7.76547C48.7293 7.75624 48.7018 7.75248 48.6744 7.75439Z" fill="#BAD236"/>
<path d="M43.3931 7.75449C42.66 7.79333 41.9509 8.03138 41.3405 8.4435V8.17539C41.3405 8.12206 41.3196 8.07091 41.2822 8.03319C41.2449 7.99548 41.1943 7.97429 41.1415 7.97429H39.6429C39.5901 7.97429 39.5395 7.99548 39.5022 8.03319C39.4648 8.07091 39.4438 8.12206 39.4438 8.17539V14.5513C39.4438 14.6046 39.4648 14.6558 39.5022 14.6935C39.5395 14.7312 39.5901 14.7523 39.6429 14.7523H41.1415C41.1943 14.7523 41.2449 14.7312 41.2822 14.6935C41.3196 14.6558 41.3405 14.6046 41.3405 14.5513V10.8723C41.6152 10.4046 42.2156 9.73275 43.4209 9.66883C43.4713 9.666 43.5186 9.64367 43.5531 9.60658C43.5876 9.56942 43.6066 9.52025 43.6061 9.46925V7.95559C43.606 7.92803 43.6003 7.90078 43.5893 7.87553C43.5783 7.85028 43.5624 7.82754 43.5425 7.80872C43.5226 7.78989 43.4991 7.77538 43.4734 7.76606C43.4477 7.75673 43.4203 7.7528 43.3931 7.75449Z" fill="#BAD236"/>
<path d="M61.2909 7.75449C60.5578 7.79333 59.8486 8.03138 59.2383 8.4435V8.17539C59.2383 8.12206 59.2174 8.07091 59.18 8.03319C59.1427 7.99548 59.092 7.97429 59.0392 7.97429H57.5407C57.4879 7.97429 57.4373 7.99548 57.3999 8.03319C57.3626 8.07091 57.3416 8.12206 57.3416 8.17539V14.5513C57.3416 14.6046 57.3626 14.6558 57.3999 14.6935C57.4373 14.7312 57.4879 14.7523 57.5407 14.7523H59.0392C59.092 14.7523 59.1427 14.7312 59.18 14.6935C59.2174 14.6558 59.2383 14.6046 59.2383 14.5513V10.8723C59.513 10.4046 60.1134 9.73275 61.3187 9.66883C61.369 9.666 61.4164 9.64367 61.4509 9.60658C61.4854 9.56942 61.5043 9.52025 61.5039 9.46925V7.95559C61.5038 7.92803 61.498 7.90078 61.4871 7.87553C61.4761 7.85028 61.4602 7.82754 61.4402 7.80872C61.4204 7.78989 61.3968 7.77538 61.3711 7.76606C61.3454 7.75673 61.3181 7.7528 61.2909 7.75449Z" fill="#BAD236"/>
<path d="M87.5688 7.75449C86.8354 7.79333 86.1267 8.03138 85.5162 8.4435V8.17539C85.5162 8.12206 85.4956 8.07091 85.4576 8.03319C85.4205 7.99548 85.3702 7.97429 85.3174 7.97429H83.8183C83.7655 7.97429 83.7152 7.99548 83.6781 8.03319C83.6401 8.07091 83.6195 8.12206 83.6195 8.17539V14.5513C83.6195 14.6046 83.6401 14.6558 83.6781 14.6935C83.7152 14.7312 83.7655 14.7523 83.8183 14.7523H85.3174C85.3702 14.7523 85.4205 14.7312 85.4576 14.6935C85.4956 14.6558 85.5162 14.6046 85.5162 14.5513V10.8723C85.7909 10.4046 86.3915 9.73275 87.5968 9.66883C87.6472 9.666 87.6942 9.64367 87.7288 9.60658C87.7635 9.56942 87.7825 9.52025 87.7816 9.46925V7.95559C87.7816 7.92803 87.7759 7.90078 87.7651 7.87553C87.7536 7.85028 87.7379 7.82754 87.7181 7.80872C87.6983 7.78989 87.6744 7.77538 87.6488 7.76606C87.6232 7.75673 87.596 7.7528 87.5688 7.75449Z" fill="#BAD236"/>
<path d="M37.8943 7.97424H36.3957C36.2858 7.97424 36.1967 8.06427 36.1967 8.17534V14.5512C36.1967 14.6622 36.2858 14.7523 36.3957 14.7523H37.8943C38.0042 14.7523 38.0933 14.6622 38.0933 14.5512V8.17534C38.0933 8.06427 38.0042 7.97424 37.8943 7.97424Z" fill="#BAD236"/>
<path d="M37.1458 7.41618C37.7969 7.41618 38.3249 6.88295 38.3249 6.22518C38.3249 5.56741 37.7969 5.03418 37.1458 5.03418C36.4946 5.03418 35.9667 5.56741 35.9667 6.22518C35.9667 6.88295 36.4946 7.41618 37.1458 7.41618Z" fill="#BAD236"/>
<path d="M53.0204 7.74963C52.3136 7.74933 51.6226 7.96076 51.0348 8.35717C50.447 8.75358 49.9889 9.31725 49.7183 9.97675C49.4477 10.6362 49.3768 11.3619 49.5146 12.0622C49.6524 12.7623 49.9927 13.4055 50.4925 13.9103C50.9922 14.4151 51.629 14.7588 52.3222 14.8981C53.0153 15.0373 53.7338 14.9657 54.3867 14.6923C55.0396 14.419 55.5976 13.9562 55.99 13.3625C56.3825 12.7688 56.5919 12.0708 56.5915 11.3569C56.5903 10.4006 56.2137 9.48375 55.5442 8.80758C54.8747 8.13132 53.9671 7.75088 53.0204 7.74963ZM53.0204 13.0998C52.6791 13.0998 52.3455 12.9976 52.0617 12.806C51.778 12.6145 51.5568 12.3423 51.4262 12.0238C51.2956 11.7054 51.2615 11.355 51.328 11.0169C51.3946 10.6788 51.559 10.3683 51.8003 10.1245C52.0416 9.88083 52.349 9.71483 52.6837 9.64758C53.0184 9.58033 53.3653 9.61483 53.6806 9.74675C53.9959 9.87867 54.2654 10.102 54.4549 10.3887C54.6445 10.6753 54.7458 11.0123 54.7458 11.3569C54.7453 11.819 54.5634 12.2621 54.24 12.5888C53.9165 12.9156 53.4778 13.0993 53.0204 13.0998Z" fill="#BAD236"/>
<path d="M34.6487 10.0038L34.445 10.1472L33.6425 10.7131C33.461 10.8412 33.307 11.0053 33.19 11.1953C33.0731 11.3853 32.9955 11.5972 32.9619 11.8183C32.9486 11.9013 32.9413 11.9853 32.9403 12.0693V14.5308C32.9407 14.5894 32.9639 14.6455 33.005 14.6869C33.046 14.7283 33.1014 14.7518 33.1594 14.7522H34.6318C34.6896 14.7518 34.745 14.7283 34.7858 14.6868C34.8265 14.6453 34.8494 14.5893 34.8494 14.5308V10.1083C34.8501 10.0844 34.8442 10.0608 34.8322 10.0402C34.8202 10.0197 34.8027 10.003 34.7817 9.99208C34.7608 9.98117 34.7371 9.97642 34.7136 9.9785C34.69 9.98058 34.6675 9.98933 34.6487 10.0038Z" fill="#BAD236"/>
<path d="M34.7322 8.63517C34.7182 8.60242 34.7028 8.56975 34.6874 8.537C34.6828 8.52733 34.6777 8.51792 34.6719 8.50892C34.6392 8.44525 34.6015 8.38425 34.5593 8.32652L34.5191 8.27352L34.4837 8.23144L34.442 8.18622L34.3911 8.13322L34.3617 8.10672L34.3433 8.08957C34.3216 8.07087 34.3 8.05217 34.2768 8.03502L34.2599 8.02098L34.2182 7.98981L34.2043 7.98045L34.1164 7.92589L34.0994 7.91498L34.0716 7.89783C33.8377 7.77132 33.5742 7.71152 33.3092 7.7248C33.0436 7.7386 32.7865 7.82478 32.5653 7.97422L30.5359 9.34917C30.4779 9.38792 30.4094 9.4075 30.3399 9.40525C30.2773 9.40425 30.2164 9.38533 30.164 9.35075L28.1345 7.97422C27.9139 7.82497 27.6574 7.7388 27.3921 7.7248C27.3444 7.7248 27.2965 7.7248 27.2502 7.7248H27.1962C26.9975 7.74242 26.8043 7.8002 26.6283 7.89472C26.4554 7.98776 26.3029 8.1149 26.1796 8.26861C26.0563 8.42233 25.9648 8.59942 25.9106 8.7895C25.9106 8.80667 25.9106 8.82383 25.8998 8.841C25.8906 8.88308 25.8813 8.92358 25.8736 8.96567C25.8659 9.00775 25.8736 9.00617 25.8658 9.0265C25.8586 9.08333 25.8545 9.14058 25.8535 9.19792V14.5262C25.8539 14.5848 25.8771 14.6409 25.9181 14.6823C25.9591 14.7237 26.0146 14.7472 26.0726 14.7476H27.5449C27.6028 14.7472 27.6582 14.7237 27.699 14.6822C27.7397 14.6407 27.7626 14.5847 27.7626 14.5262V10.046L28.9108 10.8254L29.5404 11.251C29.5753 11.2739 29.6113 11.2947 29.6485 11.3133C29.8808 11.4442 30.1445 11.5077 30.4103 11.4967C30.6761 11.4857 30.9338 11.4007 31.1548 11.251L32.9357 10.0428L34.6596 8.87367C34.6972 8.84858 34.725 8.81108 34.7382 8.76758C34.7514 8.72408 34.7492 8.67725 34.7322 8.63517Z" fill="#BAD236"/>
<path d="M79.2982 14.9659C78.5917 14.9653 77.9012 14.7531 77.3141 14.3562C76.727 13.9593 76.2695 13.3954 75.9996 12.7359C75.7296 12.0764 75.6594 11.3509 75.7975 10.6511C75.9357 9.95125 76.2762 9.3085 76.776 8.80408C77.2758 8.29972 77.9124 7.95632 78.6053 7.81732C79.2983 7.67833 80.0165 7.74998 80.6692 8.02322C81.3218 8.29645 81.8797 8.759 82.2721 9.35242C82.6642 9.94583 82.8737 10.6434 82.8737 11.3571C82.8729 12.3143 82.4955 13.232 81.8252 13.9087C81.1547 14.5852 80.2459 14.9655 79.2982 14.9659ZM79.2982 9.61425C78.9569 9.61392 78.6231 9.71583 78.3392 9.90717C78.0552 10.0985 77.8338 10.3706 77.703 10.689C77.5722 11.0074 77.5378 11.3579 77.6042 11.6961C77.6705 12.0343 77.8348 12.345 78.076 12.5889C78.3173 12.8328 78.6247 12.9989 78.9594 13.0663C79.2942 13.1337 79.6412 13.0993 79.9565 12.9674C80.2719 12.8355 80.5415 12.6122 80.7311 12.3255C80.9208 12.0388 81.022 11.7018 81.022 11.3571C81.0216 10.8953 80.8399 10.4524 80.5168 10.1257C80.1936 9.799 79.7554 9.615 79.2982 9.61425Z" fill="#BAD236"/>
<path d="M90.8803 5.46285H89.1016C88.9911 5.46285 88.902 5.55288 88.902 5.66395V14.5497C88.902 14.6608 88.9911 14.7507 89.1016 14.7507H90.8803C90.9909 14.7507 91.08 14.6608 91.08 14.5497V5.66395C91.08 5.55288 90.9909 5.46285 90.8803 5.46285Z" fill="#BAD236"/>
<path d="M97.1017 5.65767V8.48392C96.5819 8.04589 95.8675 7.79023 94.9229 7.91807C93.1846 8.15346 91.8192 9.60325 91.8357 11.3726C91.8464 13.3508 93.4445 14.8177 95.4071 14.8177C96.0259 14.8308 96.629 14.6183 97.105 14.2191V14.5449C97.105 14.5983 97.1256 14.6494 97.1636 14.6872C97.2007 14.7248 97.251 14.746 97.3038 14.746H98.8012C98.854 14.746 98.9043 14.7248 98.9414 14.6872C98.9794 14.6494 99 14.5983 99 14.5449V5.65767C99 5.60433 98.9794 5.55318 98.9414 5.51547C98.9043 5.47776 98.854 5.45657 98.8012 5.45657H97.3038C97.2774 5.45615 97.251 5.46105 97.2271 5.47098C97.2023 5.48089 97.1801 5.49564 97.1611 5.51436C97.1421 5.53307 97.1273 5.55538 97.1174 5.57998C97.1066 5.60458 97.1017 5.63099 97.1017 5.65767ZM95.4038 13.0936C95.0747 13.0945 94.7521 13.0002 94.4741 12.8217C94.196 12.6431 93.9741 12.3879 93.8355 12.0863C93.6961 11.7846 93.6458 11.4489 93.6895 11.1191C93.7332 10.7893 93.8693 10.479 94.0822 10.225C94.295 9.97092 94.5755 9.78375 94.8899 9.6855C95.205 9.58733 95.5408 9.58217 95.8584 9.67075C96.176 9.75933 96.4623 9.93783 96.6826 10.1853C96.9029 10.4328 97.0481 10.7387 97.1017 11.067V11.636C97.0357 12.044 96.8286 12.4151 96.5176 12.6832C96.2057 12.9513 95.8106 13.0989 95.4014 13.0998L95.4038 13.0936Z" fill="#BAD236"/>
<path d="M66.1816 12.4965L66.3853 12.3531L67.1909 11.7872C67.3724 11.659 67.5264 11.495 67.6433 11.305C67.7603 11.115 67.838 10.9031 67.8715 10.6819C67.8843 10.5989 67.8911 10.515 67.8916 10.4309V7.96943C67.8916 7.94057 67.8859 7.91198 67.875 7.88532C67.864 7.85865 67.848 7.83443 67.8278 7.81401C67.8076 7.7936 67.7836 7.77741 67.7572 7.76637C67.7308 7.75532 67.7025 7.74963 67.674 7.74963H66.2063C66.1777 7.74963 66.1494 7.75532 66.123 7.76637C66.0966 7.77741 66.0726 7.7936 66.0524 7.81401C66.0322 7.83443 66.0162 7.85865 66.0052 7.88532C65.9943 7.91198 65.9886 7.94057 65.9886 7.96943V12.392C65.989 12.4146 65.9952 12.4367 66.0068 12.456C66.0184 12.4753 66.0349 12.4911 66.0546 12.5018C66.0743 12.5124 66.0965 12.5176 66.1188 12.5166C66.1411 12.5157 66.1628 12.5088 66.1816 12.4965Z" fill="#BAD236"/>
<path d="M66.0983 13.8652C66.1112 13.8988 66.1261 13.9316 66.143 13.9634L66.1569 13.9914C66.1907 14.0548 66.2289 14.1158 66.2711 14.1738L66.3112 14.2268L66.3467 14.2689L66.3884 14.3142L66.4393 14.3672C66.4483 14.3768 66.4581 14.3857 66.4686 14.3937L66.4872 14.4108C66.5088 14.4295 66.5304 14.4482 66.5535 14.4653L66.5705 14.4794L66.6121 14.5106L66.626 14.5199L66.714 14.5745L66.731 14.5854C66.7397 14.592 66.749 14.5978 66.7588 14.6025C66.9926 14.7292 67.2561 14.789 67.5211 14.7756C67.7869 14.7618 68.0439 14.6756 68.265 14.5262L70.2945 13.1512C70.3525 13.1123 70.4209 13.0927 70.4905 13.0951C70.5528 13.0965 70.6133 13.116 70.6649 13.1512L72.6959 14.5262C72.9164 14.6756 73.173 14.7618 73.4382 14.7756C73.4861 14.7756 73.5323 14.7756 73.5802 14.7756H73.6342C73.8324 14.7582 74.0251 14.7003 74.2006 14.6057C74.3736 14.5129 74.5264 14.3858 74.6496 14.2321C74.773 14.0783 74.8643 13.9011 74.9183 13.7108C74.9183 13.6937 74.9183 13.6766 74.9305 13.6594C74.9429 13.6423 74.9491 13.5768 74.9568 13.5347C74.9645 13.4926 74.9568 13.4942 74.9568 13.4739C74.9635 13.417 74.9672 13.3598 74.9676 13.3024V7.96943C74.9676 7.91114 74.9447 7.85523 74.9039 7.81401C74.8631 7.77279 74.8077 7.74963 74.75 7.74963H73.2777C73.2491 7.74963 73.2208 7.75532 73.1944 7.76637C73.168 7.77741 73.144 7.7936 73.1238 7.81401C73.1036 7.83443 73.0876 7.85865 73.0767 7.88532C73.0657 7.91198 73.0601 7.94057 73.0601 7.96943V12.4544L71.9103 11.6749L71.2822 11.2493C71.2476 11.2268 71.2114 11.2064 71.1742 11.1886C70.9419 11.0573 70.6782 10.9937 70.4123 11.0047C70.1464 11.0158 69.8887 11.1009 69.6679 11.2509L67.8869 12.4575L66.163 13.6267C66.1268 13.6529 66.1006 13.6909 66.0889 13.7343C66.0771 13.7778 66.0804 13.8239 66.0983 13.8652Z" fill="#BAD236"/>
</g>
</g>
<defs>
<clipPath id="clip0_40_460">
<rect width="99" height="20" fill="white"/>
</clipPath>
</defs>
</svg>

