<svg width="8490" height="3852" viewBox="0 0 8490 3852" fill="none" xmlns="http://www.w3.org/2000/svg">
<path d="M5337.02 2648.95V1128.03H4914.17L4582.6 2188.55H4578.87L4247.3 1128.03H3833.77V2648.95H4100.14V1535.74H4103.87L4450.34 2648.95H4699.95L5057.6 1503.68H5061.33V2648.95H5337.02Z" fill="black"/>
<path fill-rule="evenodd" clip-rule="evenodd" d="M5512.47 2110.67C5512.47 1780.83 5706.2 1549.49 5981.89 1549.49C6255.71 1549.49 6449.43 1780.83 6449.43 2110.67C6449.43 2438.22 6255.71 2671.85 5981.89 2671.85C5706.2 2671.85 5512.47 2438.22 5512.47 2110.67ZM6203.55 2110.67C6203.55 1936.59 6112.27 1815.19 5981.89 1815.19C5849.63 1815.19 5758.35 1936.59 5758.35 2110.67C5758.35 2284.74 5849.63 2406.15 5981.89 2406.15C6112.27 2406.15 6203.55 2284.74 6203.55 2110.67Z" fill="black"/>
<path fill-rule="evenodd" clip-rule="evenodd" d="M6845.09 1666.3C6904.7 1590.71 6990.39 1549.49 7098.43 1549.49C7346.18 1549.49 7526.86 1785.42 7526.86 2110.67C7526.86 2435.93 7346.18 2671.85 7098.43 2671.85C6969.9 2671.85 6869.3 2610 6813.42 2506.93H6809.7L6800.39 2648.95H6597.34V1128.03H6841.37V1666.3H6845.09ZM6835.78 2110.67C6835.78 2284.75 6925.19 2406.14 7057.45 2406.14C7191.57 2406.14 7280.98 2284.75 7280.98 2110.67C7280.98 1936.59 7191.57 1815.19 7057.45 1815.19C6925.19 1815.19 6835.78 1936.59 6835.78 2110.67Z" fill="black"/>
<path d="M7988.1 3088.27L8489.76 1576.52H8228.9L8021.14 2286.58H8017.39L7812.49 1576.52H7551.71L7888.87 2618.7L7723.08 3088.27H7988.1Z" fill="black"/>
<path fill-rule="evenodd" clip-rule="evenodd" d="M2542.25 2584.76V2961.11H1945.28V2960.69L1746.07 2584.76H1571.42L1870.5 3149.29H2691.79V2584.76H2542.25Z" fill="#C1D182"/>
<path fill-rule="evenodd" clip-rule="evenodd" d="M0 2584.76V3149.29H822.49L1121.58 2584.76H0Z" fill="#C1D182"/>
<path fill-rule="evenodd" clip-rule="evenodd" d="M2126.84 1079.35L1428.97 2396.58H2691.79V1079.35H2126.84Z" fill="#C1D182"/>
<path fill-rule="evenodd" clip-rule="evenodd" d="M1944.07 703L1346.49 1830.71L748.922 703L747.723 706.031V703H0V2021.06H149.544V892.002L674.156 891.175L1259.2 1995.45L1146.14 2208.82H0V2397L1221.28 2396.58L2018.85 891.175H2691.79V703H1944.07Z" fill="#C1D182"/>
</svg>
