<svg width="905" height="151" viewBox="0 0 905 151" fill="none" xmlns="http://www.w3.org/2000/svg">
<mask id="mask0_46_138" style="mask-type:luminance" maskUnits="userSpaceOnUse" x="0" y="0" width="905" height="151">
<path d="M904.095 0H0.716797V151H904.095V0Z" fill="white"/>
</mask>
<g mask="url(#mask0_46_138)">
<path d="M203.321 56.6882C208.469 53.4609 206.193 45.4785 200.124 45.4785H137.261C133.927 45.4785 131.223 48.1938 131.223 51.5432V90.9456C131.223 95.7073 136.437 98.6116 140.46 96.0903L203.321 56.6882Z" fill="url(#paint0_linear_46_138)"/>
<path d="M87.1367 7.2717C87.1367 3.92225 89.8405 1.20703 93.1758 1.20703H114.917C118.252 1.20703 120.955 3.92225 120.955 7.2717V114.616C120.955 117.966 118.252 120.681 114.917 120.681H93.1758C89.8405 120.681 87.1367 117.966 87.1367 114.616V7.2717Z" fill="url(#paint1_linear_46_138)"/>
<path d="M76.8685 51.5432C76.8685 48.1938 74.1647 45.4785 70.8298 45.4785H7.96774C1.89845 45.4785 -0.378531 53.4609 4.77014 56.6882L67.6322 96.0903C71.6544 98.6116 76.8685 95.7073 76.8685 90.9456V51.5432Z" fill="url(#paint2_linear_46_138)"/>
<path d="M93.1758 131.598C89.8405 131.598 87.1367 134.312 87.1367 137.662V143.727C87.1367 147.076 89.8405 149.791 93.1758 149.791H114.917C118.252 149.791 120.955 147.076 120.955 143.727V137.662C120.955 134.312 118.252 131.598 114.917 131.598H93.1758Z" fill="url(#paint3_linear_46_138)"/>
<path d="M203.321 56.6882C208.469 53.4609 206.193 45.4785 200.124 45.4785H137.261C133.927 45.4785 131.223 48.1938 131.223 51.5432V90.9456C131.223 95.7073 136.437 98.6116 140.46 96.0903L203.321 56.6882Z" stroke="url(#paint4_linear_46_138)"/>
<path d="M87.1367 7.2717C87.1367 3.92225 89.8405 1.20703 93.1758 1.20703H114.917C118.252 1.20703 120.955 3.92225 120.955 7.2717V114.616C120.955 117.966 118.252 120.681 114.917 120.681H93.1758C89.8405 120.681 87.1367 117.966 87.1367 114.616V7.2717Z" stroke="url(#paint5_linear_46_138)"/>
<path d="M76.8685 51.5432C76.8685 48.1938 74.1647 45.4785 70.8298 45.4785H7.96774C1.89845 45.4785 -0.378531 53.4609 4.77014 56.6882L67.6322 96.0903C71.6544 98.6116 76.8685 95.7073 76.8685 90.9456V51.5432Z" stroke="url(#paint6_linear_46_138)"/>
<path d="M93.1758 131.598C89.8405 131.598 87.1367 134.312 87.1367 137.662V143.727C87.1367 147.076 89.8405 149.791 93.1758 149.791H114.917C118.252 149.791 120.955 147.076 120.955 143.727V137.662C120.955 134.312 118.252 131.598 114.917 131.598H93.1758Z" stroke="url(#paint7_linear_46_138)"/>
<path d="M315.841 115.071H303.547L266.581 58.9032V115.071H254.287V39.7266H266.581L303.547 95.7853V39.7266H315.841V115.071Z" fill="#1C1E2C"/>
<path d="M386.009 89.8532H340.644C340.993 94.62 342.763 98.442 345.914 101.32C349.088 104.197 352.957 105.647 357.553 105.647C364.155 105.647 368.837 102.879 371.574 97.3215H384.827C383.033 102.813 379.776 107.295 375.074 110.787C370.371 114.28 364.531 116.037 357.553 116.037C351.887 116.037 346.788 114.763 342.305 112.193C337.822 109.623 334.3 106.02 331.74 101.363C329.181 96.7065 327.912 91.3248 327.912 85.1739C327.912 79.0238 329.16 73.6416 331.631 68.9847C334.102 64.328 337.603 60.7476 342.086 58.2214C346.57 55.6949 351.733 54.4434 357.553 54.4434C363.369 54.4434 368.16 55.6733 372.535 58.1336C376.909 60.5935 380.323 64.0425 382.773 68.4798C385.223 72.9168 386.447 78.0131 386.447 83.7906C386.447 86.0308 386.293 88.0518 386.009 89.8532ZM373.608 79.9023C373.539 75.3551 371.923 71.7085 368.752 68.963C365.58 66.2169 361.664 64.8552 357.003 64.8552C352.762 64.8552 349.129 66.2169 346.112 68.9188C343.094 71.621 341.3 75.2893 340.729 79.9023H373.608Z" fill="#1C1E2C"/>
<path d="M409.07 112.193C404.542 109.623 400.977 106.02 398.397 101.363C395.814 96.7065 394.525 91.3248 394.525 85.1739C394.525 79.0238 395.858 73.7298 398.507 69.0509C401.152 64.372 404.784 60.7476 409.398 58.2214C413.991 55.6949 419.134 54.4434 424.82 54.4434C430.506 54.4434 435.626 55.7172 440.242 58.2214C444.832 60.7476 448.465 64.3496 451.134 69.0509C453.779 73.7515 455.115 79.1116 455.115 85.1739C455.115 91.2369 453.758 96.6187 451.028 101.298C448.29 105.998 444.572 109.623 439.87 112.171C435.164 114.719 429.96 116.015 424.294 116.015C418.631 116.015 413.621 114.741 409.093 112.171L409.07 112.193ZM433.155 103.055C435.909 101.539 438.161 99.2766 439.89 96.2453C441.62 93.2136 442.471 89.5234 442.471 85.1962C442.471 80.8687 441.64 77.2001 440 74.213C438.336 71.2253 436.152 68.963 433.415 67.4472C430.684 65.9317 427.752 65.1626 424.581 65.1626C421.406 65.1626 418.498 65.9317 415.785 67.4472C413.095 68.963 410.953 71.2253 409.377 74.213C407.802 77.2001 407.016 80.8687 407.016 85.1962C407.016 91.6103 408.656 96.5748 411.913 100.09C415.173 103.582 419.308 105.339 424.249 105.339C427.421 105.339 430.373 104.593 433.155 103.055Z" fill="#1C1E2C"/>
<path d="M533.553 115.072H515.113L484.292 68.1954V115.072H465.855V39.0898H484.292L515.113 86.1641V39.0898H533.553V115.072Z" fill="#1C1E2C"/>
<path d="M558.398 112.15C553.695 109.623 549.998 106.021 547.288 101.32C544.598 96.6412 543.238 91.1496 543.238 84.867C543.238 78.5847 544.598 73.2029 547.329 68.4584C550.063 63.7356 553.805 60.1112 558.531 57.5851C563.274 55.0586 568.591 53.8066 574.476 53.8066C580.361 53.8066 585.675 55.0586 590.421 57.5851C595.168 60.1112 598.91 63.7356 601.62 68.4584C604.354 73.181 605.71 78.6506 605.71 84.867C605.71 91.0837 604.333 96.5311 601.555 101.254C598.777 105.977 595.014 109.601 590.244 112.128C585.477 114.653 580.139 115.906 574.237 115.906C568.328 115.906 563.035 114.653 558.333 112.128L558.398 112.15ZM583.289 96.0262C585.764 93.4342 587.007 89.722 587.007 84.867C587.007 80.0127 585.805 76.3221 583.399 73.7084C580.993 71.0941 578.02 69.8202 574.497 69.8202C570.973 69.8202 567.911 71.0941 565.55 73.6642C563.185 76.2343 561.982 79.9684 561.982 84.867C561.982 89.7659 563.144 93.4122 565.485 96.0262C567.826 98.6399 570.758 99.9141 574.278 99.9141C577.801 99.9141 580.798 98.6183 583.269 96.0262H583.289Z" fill="#1C1E2C"/>
<path d="M710.16 60.8361C714.579 65.3829 716.786 71.6875 716.786 79.7712V115.05H698.456V82.2534C698.456 78.3652 697.427 75.3338 695.373 73.2034C693.316 71.0722 690.493 70.0179 686.909 70.0179C683.32 70.0179 680.498 71.0945 678.44 73.2034C676.387 75.3338 675.378 78.3435 675.378 82.2534V115.05H657.048V82.2534C657.048 78.3652 656.019 75.3338 653.986 73.2034C651.932 71.0722 649.109 70.0179 645.521 70.0179C641.933 70.0179 639.11 71.0945 637.057 73.2034C635.003 75.3338 633.995 78.3435 633.995 82.2534V115.05H615.555V54.6413H633.995V62.2202C635.854 59.6937 638.304 57.695 641.321 56.2234C644.339 54.7512 647.753 54.0044 651.56 54.0044C656.088 54.0044 660.13 54.9711 663.674 56.9259C667.218 58.881 670.02 61.6488 672.033 65.2511C674.111 61.9343 676.954 59.2324 680.539 57.1239C684.127 55.037 688.043 53.9824 692.287 53.9824C699.768 53.9824 705.697 56.267 710.14 60.7922L710.16 60.8361Z" fill="#1C1E2C"/>
<path d="M729.557 68.4142C731.898 63.7356 735.069 60.1112 739.095 57.5851C743.117 55.0586 747.604 53.8066 752.569 53.8066C756.81 53.8066 760.528 54.6632 763.727 56.3987C766.919 58.1342 769.389 60.3964 771.119 63.2085V54.6632H789.558V115.071H771.119V106.526C769.324 109.338 766.83 111.622 763.638 113.336C760.443 115.071 756.725 115.928 752.48 115.928C747.604 115.928 743.141 114.653 739.119 112.084C735.09 109.513 731.922 105.889 729.581 101.144C727.24 96.4216 726.078 90.952 726.078 84.7575C726.078 78.5627 727.24 73.1151 729.581 68.4142H729.557ZM767.291 73.9277C764.728 71.2698 761.625 69.93 757.972 69.93C754.319 69.93 751.192 71.2482 748.653 73.8838C746.093 76.5198 744.826 80.1445 744.826 84.7575C744.826 89.3702 746.093 93.0388 748.653 95.7404C751.213 98.4426 754.319 99.8043 757.972 99.8043C761.625 99.8043 764.755 98.4642 767.291 95.8063C769.851 93.1487 771.119 89.502 771.119 84.867C771.119 80.2323 769.851 76.608 767.291 73.9277Z" fill="#1C1E2C"/>
<path d="M802.729 68.4141C805.07 63.7351 808.244 60.1104 812.267 57.5843C816.292 55.0581 820.776 53.8062 825.741 53.8062C829.702 53.8062 833.311 54.6411 836.567 56.2884C839.827 57.9577 842.407 60.1763 844.267 62.9884V34.959H862.71V115.071H844.267V106.416C842.544 109.293 840.091 111.622 836.875 113.335C833.683 115.071 829.965 115.927 825.717 115.927C820.755 115.927 816.272 114.653 812.246 112.083C808.224 109.513 805.049 105.889 802.708 101.144C800.367 96.4211 799.209 90.9512 799.209 84.7567C799.209 78.5623 800.367 73.1146 802.708 68.4141H802.729ZM840.463 73.9276C837.903 71.2697 834.801 69.9296 831.147 69.9296C827.494 69.9296 824.364 71.2474 821.828 73.8834C819.269 76.5197 818.001 80.144 818.001 84.7567C818.001 89.3698 819.269 93.038 821.828 95.7403C824.384 98.4421 827.494 99.8039 831.147 99.8039C834.801 99.8039 837.927 98.4641 840.463 95.8062C843.023 93.1482 844.29 89.5016 844.29 84.8669C844.29 80.2319 843.023 76.6072 840.463 73.9276Z" fill="#1C1E2C"/>
<path d="M889.481 115.073C897.019 115.073 903.13 108.936 903.13 101.366C903.13 93.7953 897.019 87.6582 889.481 87.6582C881.942 87.6582 875.832 93.7953 875.832 101.366C875.832 108.936 881.942 115.073 889.481 115.073Z" fill="#1C1E2C"/>
<path d="M889.481 89.8764C895.799 89.8764 900.943 95.0385 900.943 101.387C900.943 107.735 895.799 112.897 889.481 112.897C883.162 112.897 878.019 107.735 878.019 101.387C878.019 95.0385 883.162 89.8764 889.481 89.8764ZM889.481 87.6797C881.959 87.6797 875.832 93.8082 875.832 101.387C875.832 108.965 881.935 115.094 889.481 115.094C897.03 115.094 903.13 108.965 903.13 101.387C903.13 93.8082 897.03 87.6797 889.481 87.6797Z" fill="#1C1E2C"/>
</g>
<defs>
<linearGradient id="paint0_linear_46_138" x1="104.512" y1="1.20666" x2="77.708" y2="144.939" gradientUnits="userSpaceOnUse">
<stop stop-color="#EDAEFD"/>
<stop offset="0.495" stop-color="#8573FE"/>
<stop offset="1" stop-color="#2735D5"/>
</linearGradient>
<linearGradient id="paint1_linear_46_138" x1="104.512" y1="1.20703" x2="77.707" y2="144.939" gradientUnits="userSpaceOnUse">
<stop stop-color="#EDAEFD"/>
<stop offset="0.495" stop-color="#8573FE"/>
<stop offset="1" stop-color="#2735D5"/>
</linearGradient>
<linearGradient id="paint2_linear_46_138" x1="104.51" y1="1.20667" x2="77.7055" y2="144.939" gradientUnits="userSpaceOnUse">
<stop stop-color="#EDAEFD"/>
<stop offset="0.495" stop-color="#8573FE"/>
<stop offset="1" stop-color="#2735D5"/>
</linearGradient>
<linearGradient id="paint3_linear_46_138" x1="104.512" y1="1.20725" x2="77.707" y2="144.939" gradientUnits="userSpaceOnUse">
<stop stop-color="#EDAEFD"/>
<stop offset="0.495" stop-color="#8573FE"/>
<stop offset="1" stop-color="#2735D5"/>
</linearGradient>
<linearGradient id="paint4_linear_46_138" x1="104.512" y1="1.20666" x2="77.708" y2="144.939" gradientUnits="userSpaceOnUse">
<stop stop-color="#EDAEFD"/>
<stop offset="0.495" stop-color="#8573FE"/>
<stop offset="1" stop-color="#2735D5"/>
</linearGradient>
<linearGradient id="paint5_linear_46_138" x1="104.512" y1="1.20703" x2="77.707" y2="144.939" gradientUnits="userSpaceOnUse">
<stop stop-color="#EDAEFD"/>
<stop offset="0.495" stop-color="#8573FE"/>
<stop offset="1" stop-color="#2735D5"/>
</linearGradient>
<linearGradient id="paint6_linear_46_138" x1="104.51" y1="1.20667" x2="77.7055" y2="144.939" gradientUnits="userSpaceOnUse">
<stop stop-color="#EDAEFD"/>
<stop offset="0.495" stop-color="#8573FE"/>
<stop offset="1" stop-color="#2735D5"/>
</linearGradient>
<linearGradient id="paint7_linear_46_138" x1="104.512" y1="1.20725" x2="77.707" y2="144.939" gradientUnits="userSpaceOnUse">
<stop stop-color="#EDAEFD"/>
<stop offset="0.495" stop-color="#8573FE"/>
<stop offset="1" stop-color="#2735D5"/>
</linearGradient>
</defs>
</svg>
