<svg width="90" height="22" viewBox="0 0 90 22" fill="none" xmlns="http://www.w3.org/2000/svg">
<path d="M28.4072 10.2575V14.7221H26.5343V8.29125C26.5343 7.60375 26.9172 7.17475 27.5129 7.17475C27.7986 7.17475 28.0029 7.26687 28.2686 7.50337L32.95 11.6504V7.18575H34.8214V13.7087C34.8214 14.3962 34.4286 14.8252 33.8429 14.8252C33.7001 14.8255 33.5588 14.7963 33.4287 14.7396C33.2986 14.6829 33.1826 14.6001 33.0886 14.4966L28.4072 10.2575Z" fill="black"/>
<path d="M40.0286 14.7221C37.7829 14.7221 36.1343 13.0845 36.1343 10.923C36.1343 8.73125 37.7829 7.27788 40.0286 7.27788H41.9743C44.2843 7.27788 45.88 8.76288 45.88 10.923C45.88 13.0831 44.2414 14.7221 41.9743 14.7221H40.0286ZM41.9743 12.8288C43.1243 12.8288 43.9228 12.0698 43.9228 11.0151C43.9228 9.9605 43.1128 9.16163 41.9743 9.16163H40.0286C39.7737 9.1546 39.52 9.19774 39.2831 9.2884C39.0461 9.37906 38.8309 9.51533 38.6506 9.68886C38.4703 9.8624 38.3288 10.0695 38.2346 10.2976C38.1404 10.5256 38.0955 10.7698 38.1028 11.0151C38.1028 12.0808 38.9 12.8288 40.0286 12.8288H41.9743Z" fill="black"/>
<path d="M47.2243 14.7221V12.8288H53.1072C53.5643 12.8288 53.8415 12.6225 53.8415 12.254C53.8415 11.8855 53.5643 11.6504 53.1072 11.6504H49.66C48.0757 11.6504 47.0972 10.769 47.0972 9.47925C47.0972 8.21975 48.0115 7.27925 49.6815 7.27925H55.31V9.163H49.6815C49.6081 9.15713 49.5342 9.16693 49.4652 9.19171C49.3963 9.21649 49.3338 9.25563 49.2824 9.30634C49.2309 9.35704 49.1917 9.41806 49.1676 9.48503C49.1435 9.552 49.1351 9.62327 49.1429 9.69375C49.1356 9.76448 49.1445 9.8359 49.1689 9.90298C49.1933 9.97005 49.2327 10.0312 49.2844 10.082C49.336 10.1329 49.3985 10.1722 49.4676 10.1973C49.5367 10.2224 49.6107 10.2326 49.6843 10.2272H53.1129C54.8043 10.2272 55.71 10.9147 55.71 12.4272C55.71 13.7376 54.8529 14.7207 53.1129 14.7207L47.2243 14.7221Z" fill="black"/>
<path d="M58.3956 8.6075C58.5 8.24513 58.7038 7.91647 58.9856 7.656C59.2628 7.40438 59.6428 7.27788 60.1285 7.27788H62.4371C62.8667 7.25661 63.2889 7.39158 63.6199 7.656C63.9159 7.91011 64.1305 8.24018 64.2385 8.6075L66.1428 14.7221H64.0185L63.4999 12.9346L62.9799 11.1471L62.3842 9.064H60.2414L58.6071 14.7208H56.4828L58.3956 8.6075Z" fill="black"/>
<path d="M78.5542 8.6075C78.6582 8.24527 78.8615 7.91663 79.1428 7.656C79.4199 7.40438 79.7999 7.27788 80.2856 7.27788H82.5942C83.0238 7.25661 83.446 7.39158 83.7771 7.656C84.0731 7.91011 84.2876 8.24018 84.3956 8.6075L86.2956 14.7221H84.1771L83.6585 12.9346L83.1385 11.1471L82.5428 9.06538H80.3999L78.7656 14.7221H76.6414L78.5542 8.6075Z" fill="black"/>
<path d="M69.1957 10.2575V14.7221H67.3229V8.29125C67.3229 7.60375 67.7072 7.17475 68.3029 7.17475C68.5886 7.17475 68.7914 7.26687 69.0572 7.50337L73.7386 11.6504V7.18575H75.6115V13.7087C75.6115 14.3962 75.2172 14.8252 74.6329 14.8252C74.4899 14.8252 74.3486 14.7958 74.2183 14.7392C74.088 14.6825 73.9717 14.5998 73.8772 14.4966L69.1957 10.2575Z" fill="black"/>
<path d="M8.46142 5.14387C8.20801 4.65653 7.79103 4.26584 7.27807 4.03513C6.7651 3.80442 6.18622 3.74722 5.63525 3.87279C5.08429 3.99836 4.59353 4.29936 4.24252 4.72698C3.89152 5.15459 3.70085 5.68378 3.70142 6.22875V18.1912H5.36142V6.22875C5.36438 6.04521 5.43085 5.86786 5.55031 5.72477C5.66977 5.58168 5.8354 5.48103 6.02099 5.43874C6.20657 5.39645 6.40151 5.41494 6.57495 5.49129C6.74839 5.56763 6.89042 5.69747 6.97856 5.86025L12.5714 16.5935H10.7143L7.79856 11H5.94142L9.69142 18.1912H15.2628L8.46142 5.14387Z" fill="#10E80C"/>
<path d="M18.9757 3.80875V15.7713C18.9722 15.9543 18.9055 16.1311 18.7861 16.2736C18.6667 16.4162 18.5015 16.5165 18.3164 16.5587C18.1313 16.6009 17.9368 16.5826 17.7637 16.5068C17.5905 16.431 17.4485 16.3018 17.36 16.1397L11.7671 5.4065H13.6243L16.54 11H18.3971L14.6486 3.80875H9.07715L15.8757 16.8561C16.1296 17.343 16.5468 17.7332 17.0597 17.9636C17.5726 18.194 18.1513 18.251 18.702 18.1255C19.2528 18 19.7435 17.6993 20.0947 17.2721C20.4459 16.8448 20.637 16.316 20.6371 15.7713V3.80875H18.9757Z" fill="#10E80C"/>
</svg>

