<svg width="8109" height="1965" viewBox="0 0 8109 1965" fill="none" xmlns="http://www.w3.org/2000/svg">
<g clip-path="url(#clip0_2003_184)">
<mask id="mask0_2003_184" style="mask-type:luminance" maskUnits="userSpaceOnUse" x="0" y="0" width="8109" height="1965">
<path d="M8109 0H0V1965H8109V0Z" fill="white"/>
</mask>
<g mask="url(#mask0_2003_184)">
<path d="M3036.72 1316.76C2967.02 1405.82 2876.37 1454.71 2779.07 1454.71C2681.78 1454.71 2589.08 1405.82 2520.5 1316.76C2450.8 1227.71 2414.52 1112.32 2414.52 984.316C2414.52 856.304 2450.8 741.055 2520.5 650.659C2590.1 561.601 2680.86 513.917 2779.07 513.917C2877.29 513.917 2967.02 561.601 3036.72 650.659C3106.42 740.924 3143.63 857.645 3143.63 984.316C3143.63 1110.98 3106.42 1227.71 3036.72 1316.76ZM2954.65 746.027C2907.85 682.086 2844.89 648.108 2779.07 648.108C2713.25 648.108 2650.2 682.086 2602.46 746.027C2554.74 809.961 2529.9 894.051 2529.9 984.316C2529.9 1074.58 2554.74 1157.45 2602.46 1221.39C2650.2 1285.33 2712.23 1319.18 2779.07 1319.18C2845.91 1319.18 2906.93 1285.33 2954.65 1221.39C3002.38 1157.45 3028.14 1074.71 3028.14 984.316C3028.14 893.914 3002.38 809.961 2954.65 746.027ZM3421.72 1430.8H3317.67V534.066H3485.69C3555.4 534.066 3610.69 536.618 3656.57 580.541C3698.69 620.704 3725.36 694.712 3725.36 781.216C3725.36 867.72 3698.69 943.076 3656.57 983.106C3610.69 1025.82 3555.4 1028.24 3485.69 1028.24H3421.82V1430.8H3421.72ZM3457.08 908.96C3559.18 908.96 3610.69 893.914 3610.69 789.812C3610.69 685.717 3560.1 659.386 3457.08 659.386H3428.36V908.96H3457.08ZM3872.73 533.931H4253.64V658.182H3983.42V882.766H4253.64V1010.78H3983.42V1300.51H4253.64V1430.93H3872.73V534.066V533.931ZM4427.79 498.873L4861.13 1047.04C4888.72 1082.24 4912.64 1118.5 4935.53 1156.24V534.066H5037.63V1465.99L4595.81 907.887C4570.98 876.453 4549 842.605 4530 807.547V1430.93H4427.79V499.008V498.873ZM5241.22 533.931H5413.02C5485.58 533.931 5540.05 537.692 5581.97 579.064C5624.06 619.225 5648.77 688.268 5648.77 768.459C5648.77 863.69 5614.46 930.319 5550.47 955.303C5629.69 971.553 5678.34 1055.64 5678.34 1175.99C5678.34 1250 5657.27 1317.7 5623.07 1362.97C5574.41 1426.9 5509.39 1430.66 5414.04 1430.66H5241.22V534.066V533.931ZM5392.06 912.721C5492.22 912.721 5537.18 882.629 5537.18 788.608C5537.18 676.984 5490.38 655.625 5392.06 655.625H5349.96V912.721H5392.06ZM5388.18 1309.1C5450.32 1309.1 5494.17 1305.34 5520.85 1281.44C5547.49 1257.66 5563.88 1216.15 5563.88 1167.26C5563.88 1110.84 5545.67 1066.92 5511.44 1043.15C5485.58 1025.55 5455.12 1023 5421.6 1023H5349.96V1308.97H5388.08L5388.18 1309.1ZM6430.93 1316.63C6361.26 1405.68 6270.57 1454.57 6173.32 1454.57C6076.01 1454.57 5983.28 1405.68 5914.72 1316.63C5845.04 1227.57 5808.75 1112.19 5808.75 984.179C5808.75 856.173 5845.04 740.924 5914.72 650.522C5984.33 561.467 6075.07 513.783 6173.32 513.783C6271.51 513.783 6361.26 561.467 6430.93 650.522C6500.66 740.787 6537.84 857.514 6537.84 984.179C6537.84 1110.84 6500.66 1227.57 6430.93 1316.63ZM6348.91 745.89C6302.07 681.955 6239.13 647.97 6173.32 647.97C6107.46 647.97 6044.4 681.955 5996.69 745.89C5948.97 809.83 5924.15 893.913 5924.15 984.179C5924.15 1074.44 5948.97 1157.32 5996.69 1221.26C6044.4 1285.2 6106.46 1319.05 6173.32 1319.05C6240.12 1319.05 6301.13 1285.2 6348.91 1221.26C6396.62 1157.32 6422.38 1074.58 6422.38 984.179C6422.38 893.782 6396.62 809.83 6348.91 745.89ZM7304.55 1316.63C7234.88 1405.68 7144.19 1454.57 7046.94 1454.57C6949.63 1454.57 6856.9 1405.68 6788.34 1316.63C6718.66 1227.57 6682.37 1112.19 6682.37 984.179C6682.37 856.173 6718.66 740.924 6788.34 650.522C6857.95 561.467 6948.7 513.783 7046.94 513.783C7145.13 513.783 7234.88 561.467 7304.55 650.522C7374.28 740.787 7411.46 857.514 7411.46 984.179C7411.46 1110.84 7374.28 1227.57 7304.55 1316.63ZM7222.53 745.89C7175.69 681.955 7112.75 647.97 7046.94 647.97C6981.08 647.97 6918.02 681.955 6870.31 745.89C6822.59 809.83 6797.77 893.913 6797.77 984.179C6797.77 1074.44 6822.59 1157.32 6870.31 1221.26C6918.02 1285.2 6980.08 1319.05 7046.94 1319.05C7113.74 1319.05 7174.75 1285.2 7222.53 1221.26C7270.24 1157.32 7296 1074.58 7296 984.179C7296 893.782 7270.24 809.83 7222.53 745.89ZM7585.45 533.931H7696.1V905.329L7941.47 533.931H8077L7806.87 932.87L8109.33 1430.8H7966.24L7695.99 973.031V1430.8H7585.33V534.066L7585.45 533.931Z" fill="#091326"/>
<path d="M1795.28 346.418V1613.35L2093.81 1761.37V203.633L1795.28 346.418Z" fill="url(#paint0_linear_2003_184)"/>
<path d="M1439.72 229.958V1729.8L1638.5 1863.18V101.814L1439.72 229.958Z" fill="url(#paint1_linear_2003_184)"/>
<path d="M1125.34 128.144V1831.62L1282.84 1965V0L1125.34 128.144Z" fill="url(#paint2_linear_2003_184)"/>
<path d="M0 203.633V1761.37L298.531 1613.35V346.418L0 203.633Z" fill="url(#paint3_linear_2003_184)"/>
<path d="M455.411 101.814V1863.18L654.092 1729.8V229.958L455.411 101.814Z" fill="url(#paint4_linear_2003_184)"/>
<path d="M810.973 0V1965L968.464 1831.62V128.144L810.973 0Z" fill="url(#paint5_linear_2003_184)"/>
</g>
</g>
<defs>
<linearGradient id="paint0_linear_2003_184" x1="1657.1" y1="1431.74" x2="2525.5" y2="771.002" gradientUnits="userSpaceOnUse">
<stop stop-color="#A100FF"/>
<stop offset="1" stop-color="#00E9B2"/>
</linearGradient>
<linearGradient id="paint1_linear_2003_184" x1="1229.49" y1="1453.5" x2="2139.83" y2="760.841" gradientUnits="userSpaceOnUse">
<stop stop-color="#A100FF"/>
<stop offset="1" stop-color="#00E9B2"/>
</linearGradient>
<linearGradient id="paint2_linear_2003_184" x1="866.058" y1="1490.84" x2="1848.51" y2="743.32" gradientUnits="userSpaceOnUse">
<stop stop-color="#A100FF"/>
<stop offset="1" stop-color="#00E9B2"/>
</linearGradient>
<linearGradient id="paint3_linear_2003_184" x1="-249.781" y1="1433.08" x2="621.114" y2="770.347" gradientUnits="userSpaceOnUse">
<stop stop-color="#A100FF"/>
<stop offset="1" stop-color="#00E9B2"/>
</linearGradient>
<linearGradient id="paint4_linear_2003_184" x1="144.615" y1="1454.84" x2="1057.55" y2="760.215" gradientUnits="userSpaceOnUse">
<stop stop-color="#A100FF"/>
<stop offset="1" stop-color="#00E9B2"/>
</linearGradient>
<linearGradient id="paint5_linear_2003_184" x1="451.12" y1="1492.18" x2="1436.13" y2="742.819" gradientUnits="userSpaceOnUse">
<stop stop-color="#A100FF"/>
<stop offset="1" stop-color="#00E9B2"/>
</linearGradient>
<clipPath id="clip0_2003_184">
<rect width="8109" height="1965" fill="white"/>
</clipPath>
</defs>
</svg>
