<svg width="639" height="140" viewBox="0 0 639 140" fill="none" xmlns="http://www.w3.org/2000/svg">
<mask id="mask0_99_210" style="mask-type:luminance" maskUnits="userSpaceOnUse" x="0" y="1" width="639" height="138">
<path d="M639 1.09375H0V138.906H639V1.09375Z" fill="white"/>
</mask>
<g mask="url(#mask0_99_210)">
<path d="M239.298 93.443C233.805 99.6887 226.662 103.118 218.994 103.118C211.328 103.118 204.023 99.6887 198.619 93.443C193.126 87.1972 190.267 79.1048 190.267 70.1273C190.267 61.1493 193.126 53.0665 198.619 46.7267C204.104 40.4808 211.255 37.1365 218.994 37.1365C226.734 37.1365 233.805 40.4808 239.298 46.7267C244.79 53.0573 247.722 61.2434 247.722 70.1273C247.722 79.0107 244.79 87.1972 239.298 93.443ZM232.831 53.4152C229.142 48.9308 224.181 46.5478 218.994 46.5478C213.808 46.5478 208.839 48.9308 205.078 53.4152C201.317 57.8991 199.36 63.7967 199.36 70.1273C199.36 76.4579 201.317 82.2701 205.078 86.7545C208.839 91.2384 213.728 93.6123 218.994 93.6123C224.262 93.6123 229.07 91.2384 232.831 86.7545C236.592 82.2701 238.621 76.4671 238.621 70.1273C238.621 63.787 236.592 57.8991 232.831 53.4152ZM269.636 101.441H261.437V38.5496H274.677C280.17 38.5496 284.527 38.7286 288.143 41.8091C291.461 44.6258 293.563 49.8163 293.563 55.8832C293.563 61.95 291.461 67.235 288.143 70.0424C284.527 73.038 280.17 73.2077 274.677 73.2077H269.644V101.441H269.636ZM272.423 64.8423C280.468 64.8423 284.527 63.787 284.527 56.486C284.527 49.1855 280.541 47.3388 272.423 47.3388H270.159V64.8423H272.423ZM305.176 38.5402H335.192V47.2543H313.898V63.0052H335.192V71.9832H313.898V92.3028H335.192V101.45H305.176V38.5496V38.5402ZM348.916 36.0814L383.063 74.5263C385.238 76.9947 387.122 79.5383 388.926 82.1852V38.5496H396.972V103.909L362.156 64.767C360.199 62.5625 358.468 60.1886 356.97 57.7298V101.45H348.916V36.0909V36.0814ZM413.015 38.5402H426.553C432.271 38.5402 436.563 38.8039 439.867 41.7055C443.183 44.5222 445.131 49.3644 445.131 54.9885C445.131 61.6673 442.427 66.3403 437.385 68.0925C443.627 69.2322 447.461 75.1292 447.461 83.5703C447.461 88.7608 445.8 93.5086 443.105 96.6835C439.271 101.167 434.147 101.431 426.633 101.431H413.015V38.5496V38.5402ZM424.902 65.1061C432.795 65.1061 436.337 62.9956 436.337 56.4016C436.337 48.573 432.649 47.075 424.902 47.075H421.584V65.1061H424.902ZM424.596 92.9057C429.493 92.9057 432.948 92.6419 435.05 90.9654C437.15 89.2977 438.441 86.387 438.441 82.9578C438.441 79.0011 437.006 75.9207 434.309 74.2533C432.271 73.0192 429.871 72.8402 427.229 72.8402H421.584V92.8965H424.588L424.596 92.9057ZM506.766 93.4333C501.276 99.6791 494.13 103.108 486.466 103.108C478.798 103.108 471.491 99.6791 466.087 93.4333C460.597 87.1876 457.737 79.0956 457.737 70.1176C457.737 61.1401 460.597 53.0573 466.087 46.7171C471.573 40.4714 478.724 37.1271 486.466 37.1271C494.203 37.1271 501.276 40.4714 506.766 46.7171C512.261 53.0477 515.19 61.2342 515.19 70.1176C515.19 79.0011 512.261 87.1876 506.766 93.4333ZM500.302 53.4056C496.612 48.9216 491.652 46.5381 486.466 46.5381C481.276 46.5381 476.307 48.9216 472.547 53.4056C468.787 57.89 466.831 63.787 466.831 70.1176C466.831 76.4483 468.787 82.2609 472.547 86.7448C476.307 91.2292 481.197 93.6031 486.466 93.6031C491.73 93.6031 496.538 91.2292 500.302 86.7448C504.062 82.2609 506.092 76.4579 506.092 70.1176C506.092 63.7778 504.062 57.89 500.302 53.4056ZM575.609 93.4333C570.118 99.6791 562.972 103.108 555.308 103.108C547.64 103.108 540.333 99.6791 534.93 93.4333C529.44 87.1876 526.579 79.0956 526.579 70.1176C526.579 61.1401 529.44 53.0573 534.93 46.7171C540.416 40.4714 547.566 37.1271 555.308 37.1271C563.046 37.1271 570.118 40.4714 575.609 46.7171C581.103 53.0477 584.033 61.2342 584.033 70.1176C584.033 79.0011 581.103 87.1876 575.609 93.4333ZM569.145 53.4056C565.454 48.9216 560.494 46.5381 555.308 46.5381C550.118 46.5381 545.15 48.9216 541.389 53.4056C537.629 57.89 535.673 63.787 535.673 70.1176C535.673 76.4483 537.629 82.2609 541.389 86.7448C545.15 91.2292 550.04 93.6031 555.308 93.6031C560.572 93.6031 565.38 91.2292 569.145 86.7448C572.905 82.2609 574.935 76.4579 574.935 70.1176C574.935 63.7778 572.905 57.89 569.145 53.4056ZM597.743 38.5402H606.463V64.5877L625.798 38.5402H636.479L615.192 66.5192L639.026 101.441H627.75L606.454 69.3358V101.441H597.734V38.5496L597.743 38.5402Z" fill="black"/>
<path d="M141.47 25.3893V114.244L164.995 124.625V15.3752L141.47 25.3893Z" fill="url(#paint0_linear_99_210)"/>
<path d="M113.452 17.2217V122.411L129.116 131.765V8.2345L113.452 17.2217Z" fill="url(#paint1_linear_99_210)"/>
<path d="M88.6785 10.0809V129.552L101.089 138.906V1.09375L88.6785 10.0809Z" fill="url(#paint2_linear_99_210)"/>
<path d="M0 15.3752V124.625L23.5247 114.244V25.3893L0 15.3752Z" fill="url(#paint3_linear_99_210)"/>
<path d="M35.8871 8.2345V131.765L51.5434 122.411V17.2217L35.8871 8.2345Z" fill="url(#paint4_linear_99_210)"/>
<path d="M63.9056 1.09375V138.906L76.3161 129.552V10.0809L63.9056 1.09375Z" fill="url(#paint5_linear_99_210)"/>
</g>
<defs>
<linearGradient id="paint0_linear_99_210" x1="130.582" y1="101.507" x2="193.006" y2="48.1402" gradientUnits="userSpaceOnUse">
<stop stop-color="#A100FF"/>
<stop offset="1" stop-color="#00E9B2"/>
</linearGradient>
<linearGradient id="paint1_linear_99_210" x1="96.8855" y1="103.033" x2="162.325" y2="47.0884" gradientUnits="userSpaceOnUse">
<stop stop-color="#A100FF"/>
<stop offset="1" stop-color="#00E9B2"/>
</linearGradient>
<linearGradient id="paint2_linear_99_210" x1="68.2465" y1="105.652" x2="138.869" y2="45.276" gradientUnits="userSpaceOnUse">
<stop stop-color="#A100FF"/>
<stop offset="1" stop-color="#00E9B2"/>
</linearGradient>
<linearGradient id="paint3_linear_99_210" x1="-19.6831" y1="101.601" x2="42.9193" y2="48.074" gradientUnits="userSpaceOnUse">
<stop stop-color="#A100FF"/>
<stop offset="1" stop-color="#00E9B2"/>
</linearGradient>
<linearGradient id="paint4_linear_99_210" x1="11.396" y1="103.127" x2="77.0213" y2="47.0236" gradientUnits="userSpaceOnUse">
<stop stop-color="#A100FF"/>
<stop offset="1" stop-color="#00E9B2"/>
</linearGradient>
<linearGradient id="paint5_linear_99_210" x1="35.5487" y1="105.746" x2="106.356" y2="45.2203" gradientUnits="userSpaceOnUse">
<stop stop-color="#A100FF"/>
<stop offset="1" stop-color="#00E9B2"/>
</linearGradient>
</defs>
</svg>
