<svg width="8353" height="2467" viewBox="0 0 8353 2467" fill="none" xmlns="http://www.w3.org/2000/svg">
<g clip-path="url(#clip0_2003_170)">
<path d="M3418.82 1882.56C3314.35 1882.56 3220.13 1856.71 3136.16 1805.01C3052.19 1752.19 2986.28 1679.69 2938.44 1587.53C2890.6 1494.25 2866.68 1390.29 2866.68 1275.65C2866.68 1161.01 2890.6 1057.61 2938.44 965.445C2986.28 872.16 3052.19 799.667 3136.16 747.967C3220.13 695.143 3314.35 668.73 3418.82 668.73C3523.3 668.73 3617.52 695.143 3701.49 747.967C3785.46 799.667 3851.36 871.598 3899.21 963.759C3947.05 1055.92 3970.97 1159.88 3970.97 1275.65C3970.97 1391.41 3947.05 1495.37 3899.21 1587.53C3851.36 1679.69 3785.46 1752.19 3701.49 1805.01C3617.52 1856.71 3523.3 1882.56 3418.82 1882.56ZM3418.82 1690.37C3487.17 1690.37 3548.68 1672.95 3603.36 1638.11C3658.04 1602.14 3701 1552.69 3732.24 1489.75C3763.49 1425.69 3779.11 1354.32 3779.11 1275.65C3779.11 1196.97 3763.49 1126.17 3732.24 1063.23C3701 999.162 3658.04 949.71 3603.36 914.869C3548.68 878.903 3487.17 860.92 3418.82 860.92C3350.48 860.92 3288.96 878.903 3234.29 914.869C3179.61 949.71 3136.65 999.162 3105.4 1063.23C3074.16 1126.17 3058.54 1196.97 3058.54 1275.65C3058.54 1354.32 3074.16 1425.69 3105.4 1489.75C3136.65 1552.69 3179.61 1602.14 3234.29 1638.11C3288.96 1672.95 3350.48 1690.37 3418.82 1690.37ZM5224.36 1865.7L5014.92 1520.1C5006.14 1521.22 4992.96 1521.78 4975.38 1521.78H4743.97V1865.7H4553.58V685.589H4975.38C5064.23 685.589 5141.37 702.448 5206.78 736.166C5273.18 769.883 5323.95 818.212 5359.1 881.151C5394.25 944.09 5411.83 1018.83 5411.83 1105.37C5411.83 1194.16 5392.79 1270.59 5354.71 1334.65C5317.6 1398.72 5263.9 1446.48 5193.6 1477.95L5429.4 1865.7H5224.36ZM5219.97 1105.37C5219.97 1030.07 5198.49 972.188 5155.52 931.727C5112.56 891.266 5049.59 871.036 4966.59 871.036H4743.97V1341.4H4966.59C5049.59 1341.4 5112.56 1321.16 5155.52 1280.7C5198.49 1239.12 5219.97 1180.68 5219.97 1105.37ZM6480.14 1882.56C6376.64 1882.56 6282.91 1856.71 6198.94 1805.01C6115.95 1752.19 6050.53 1679.69 6002.69 1587.53C5955.82 1495.37 5932.39 1391.41 5932.39 1275.65C5932.39 1159.88 5956.31 1055.92 6004.15 963.759C6052 871.598 6117.41 799.667 6200.41 747.967C6284.38 695.143 6378.11 668.73 6481.61 668.73C6565.58 668.73 6642.22 685.589 6711.55 719.307C6780.87 753.024 6839.45 801.915 6887.3 865.978L6764.27 999.162C6690.06 907.001 6598.77 860.92 6490.39 860.92C6420.09 860.92 6357.12 878.903 6301.46 914.869C6245.81 949.71 6202.36 998.6 6171.11 1061.54C6139.87 1124.48 6124.25 1195.85 6124.25 1275.65C6124.25 1355.44 6139.87 1426.81 6171.11 1489.75C6202.36 1552.69 6245.81 1602.14 6301.46 1638.11C6357.12 1672.95 6420.09 1690.37 6490.39 1690.37C6598.77 1690.37 6690.06 1643.73 6764.27 1550.44L6887.3 1685.31C6839.45 1749.38 6780.38 1798.27 6710.08 1831.99C6640.76 1865.7 6564.11 1882.56 6480.14 1882.56ZM7897.22 668.73C7989 668.73 8069.07 689.523 8137.41 731.108C8205.76 772.693 8258.49 834.508 8295.59 916.554C8333.67 997.477 8352.71 1095.82 8352.71 1211.58V1865.7H8162.31V1562.25H7629.2V1865.7H7441.74V1211.58C7441.74 1095.82 7460.29 997.477 7497.39 916.554C7535.47 834.508 7588.68 772.693 7657.03 731.108C7725.38 689.523 7805.44 668.73 7897.22 668.73ZM8162.31 1378.48V1191.35C8162.31 1082.33 8138.88 1000.29 8092.01 945.214C8045.15 889.018 7979.73 860.92 7895.76 860.92C7811.79 860.92 7746.37 889.018 7699.5 945.214C7652.64 1000.29 7629.2 1082.33 7629.2 1191.35V1378.48H8162.31Z" fill="black"/>
<path d="M2143.17 1233.5C2143.17 1914.74 1663.4 2467 1071.59 2467C479.768 2467 0 1914.74 0 1233.5C0 552.26 479.768 0 1071.59 0C1663.4 0 2143.17 552.26 2143.17 1233.5Z" fill="#FFD15C"/>
<path d="M1860.15 1044.71C1805.94 957.327 1748.41 911.516 1712.39 889.268C1699.75 862.524 1685.74 836.185 1670.36 810.301C1626.03 735.696 1579.83 671.009 1533.08 618.033C1489.36 568.485 1443.74 527.606 1397.5 496.524C1317.03 442.42 1233.57 416.028 1142.34 415.832C1141.99 415.832 1141.65 415.832 1141.3 415.832C1057.78 415.832 981.509 437.704 917.878 459.118C899.615 465.258 881.068 471.908 863.093 478.363C817.159 494.825 773.763 510.386 737.149 517.324C712.202 522.054 692.645 532.885 679.044 549.516C666.199 565.22 658.545 586.215 656.309 611.919C652.135 659.983 666.946 724.383 699.148 798.163C763.56 945.739 886.936 1108.2 1013.47 1212.09C1026.46 1222.75 1038.77 1234.51 1050.35 1247.19C1050.18 1247.25 1050.01 1247.29 1049.83 1247.33C951.432 1263.5 900.161 1385.23 879.404 1451C873.989 1468.15 888.718 1483.52 903.759 1477.68C963.383 1454.54 1083.55 1417.52 1153.9 1461.63C1167.04 1533.99 1161.5 1604.93 1137.78 1660.37C1123.23 1694.37 1102.5 1721.55 1076.17 1741.15C1047.77 1762.31 1013.47 1774.13 974.201 1776.31C931.645 1778.68 883.407 1769.67 830.833 1749.51C773.626 1727.59 710.806 1692.29 644.118 1644.57L642.883 1643.7L641.599 1642.92C640.843 1642.44 640.047 1641.92 639.251 1641.38C734.708 1508.96 676.505 1308.98 653.213 1243.05C650.104 1234.26 639.568 1234.32 635.37 1242.5C580.829 1348.8 468.962 1340.91 470.949 1467.51C470.903 1467.41 470.858 1467.32 470.812 1467.23C385.288 1387.17 321.805 1493.67 215.384 1477.68C207.2 1476.45 200.674 1485.98 204.783 1494.21C235.474 1555.73 335.993 1730.73 484.637 1726.81C490.537 1734.22 497.362 1742.79 502.65 1749.51L520.586 1772.3C593.429 1864.83 673.21 1938.26 757.716 1990.54C836.428 2039.26 919.274 2069.74 1003.96 2081.17C1029.33 2084.59 1054.76 2086.29 1080.18 2086.29C1227.63 2086.29 1374.2 2029.22 1499.76 1921.56C1570.19 1861.18 1630.4 1788.3 1678.68 1704.96C1728.1 1619.67 1762.7 1527.37 1781.5 1430.62C1794.04 1366.17 1799.23 1301.16 1797.11 1236.31C1843.74 1220.35 1895.22 1267.67 1920.42 1295.45C1926.57 1302.22 1936.72 1298.02 1936.44 1288.22C1935.13 1243.8 1924.07 1147.75 1860.15 1044.71ZM1435.26 1852.74C1308.55 1956.13 1159.57 2002.16 1014.02 1982.51C940.159 1972.55 867.677 1945.81 798.578 1903.05C732.608 1862.23 669.509 1806.63 610.614 1737.46C742.231 1829.46 859.832 1876 960.658 1876C966.619 1876 972.522 1875.85 978.356 1875.52C1033.03 1872.48 1081.7 1855.33 1123.04 1824.54C1162.64 1795.05 1193.63 1754.57 1215.18 1704.26C1234.36 1659.44 1245.03 1609.04 1246.89 1554.41C1248.63 1503.42 1242.66 1451.3 1229.13 1399.51C1200.72 1290.82 1141.92 1195.54 1063.58 1131.21C1005.56 1083.58 947.355 1021.82 895.294 952.634C853.173 896.675 817.349 839.057 790.474 784.21L790.484 784.142C790.484 784.142 790.269 783.766 789.927 783.086C789.654 782.524 789.381 781.962 789.112 781.4C784.65 771.813 772.924 739.995 809.87 733.92C1158.89 676.538 1869.06 1439.79 1435.26 1852.74Z" fill="black"/>
<path d="M809.87 733.917C772.914 739.992 784.65 771.793 789.112 781.397C789.38 781.959 789.654 782.521 789.927 783.082C790.279 783.762 790.484 784.139 790.484 784.139L790.474 784.206C817.349 839.054 853.173 896.671 895.294 952.631C947.37 1021.81 1005.56 1083.57 1063.58 1131.21C1141.93 1195.53 1200.73 1290.82 1229.13 1399.51C1242.66 1451.3 1248.63 1503.41 1246.89 1554.41C1245.03 1609.02 1234.36 1659.44 1215.18 1704.26C1193.63 1754.57 1162.64 1795.05 1123.04 1824.53C1081.7 1855.32 1033.02 1872.47 978.355 1875.51C972.522 1875.85 966.605 1876 960.658 1876C859.832 1876 742.231 1829.46 610.614 1737.45C669.509 1806.62 732.608 1862.23 798.578 1903.04C867.677 1945.81 940.159 1972.54 1014.02 1982.51C1159.57 2002.15 1308.55 1956.12 1435.26 1852.73C1869.06 1439.79 1158.89 676.535 809.87 733.917Z" fill="white"/>
<path d="M564.806 1646.65C564.806 1646.66 564.972 1646.7 565.26 1646.74C564.943 1646.65 564.792 1646.64 564.806 1646.65Z" fill="black"/>
<path d="M578.993 1639.42C579.105 1639.23 579.164 1639.12 579.164 1639.12C579.149 1639.1 579.096 1639.21 578.993 1639.42Z" fill="black"/>
<path d="M1173.44 706.022C1161.33 686.494 1137.09 633.484 1212.23 633.484C1287.38 633.484 1402.19 731.423 1425.54 767.652C1418.26 789.737 1369.78 794.671 1345.55 792.53C1321.31 790.389 1280.1 785.803 1248.6 767.652C1217.07 749.506 1185.56 725.556 1173.44 706.022Z" fill="white"/>
<path d="M2143.17 1233.5C2143.17 1914.74 1663.4 2467 1071.59 2467C479.768 2467 0 1914.74 0 1233.5C0 552.26 479.768 0 1071.59 0C1663.4 0 2143.17 552.26 2143.17 1233.5Z" fill="#FFD15C"/>
<path d="M1860.15 1044.71C1805.94 957.327 1748.41 911.516 1712.39 889.268C1699.75 862.524 1685.74 836.185 1670.36 810.301C1626.03 735.696 1579.83 671.009 1533.08 618.033C1489.36 568.485 1443.74 527.606 1397.5 496.524C1317.03 442.42 1233.57 416.028 1142.34 415.832C1141.99 415.832 1141.65 415.832 1141.3 415.832C1057.78 415.832 981.509 437.704 917.878 459.118C899.615 465.258 881.068 471.908 863.093 478.363C817.159 494.825 773.763 510.386 737.149 517.324C712.202 522.054 692.645 532.885 679.044 549.516C666.199 565.22 658.545 586.215 656.309 611.919C652.135 659.983 666.946 724.383 699.148 798.163C763.56 945.739 886.936 1108.2 1013.47 1212.09C1026.46 1222.75 1038.77 1234.51 1050.35 1247.19C1050.18 1247.25 1050.01 1247.29 1049.83 1247.33C951.432 1263.5 900.161 1385.23 879.404 1451C873.989 1468.15 888.718 1483.52 903.759 1477.68C963.383 1454.54 1083.55 1417.52 1153.9 1461.63C1167.04 1533.99 1161.5 1604.93 1137.78 1660.37C1123.23 1694.37 1102.5 1721.55 1076.17 1741.15C1047.77 1762.31 1013.47 1774.13 974.201 1776.31C931.645 1778.68 883.407 1769.67 830.833 1749.51C773.626 1727.59 710.806 1692.29 644.118 1644.57L642.883 1643.7L641.599 1642.92C640.843 1642.44 640.047 1641.92 639.251 1641.38C734.708 1508.96 676.505 1308.98 653.213 1243.05C650.104 1234.26 639.568 1234.32 635.37 1242.5C580.829 1348.8 468.962 1340.91 470.949 1467.51C470.903 1467.41 470.858 1467.32 470.812 1467.23C385.288 1387.17 321.805 1493.67 215.384 1477.68C207.2 1476.45 200.674 1485.98 204.783 1494.21C235.474 1555.73 335.993 1730.73 484.637 1726.81C490.537 1734.22 497.362 1742.79 502.65 1749.51L520.586 1772.3C593.429 1864.83 673.21 1938.26 757.716 1990.54C836.428 2039.26 919.274 2069.74 1003.96 2081.17C1029.33 2084.59 1054.76 2086.29 1080.18 2086.29C1227.63 2086.29 1374.2 2029.22 1499.76 1921.56C1570.19 1861.18 1630.4 1788.3 1678.68 1704.96C1728.1 1619.67 1762.7 1527.37 1781.5 1430.62C1794.04 1366.17 1799.23 1301.16 1797.11 1236.31C1843.74 1220.35 1895.22 1267.67 1920.42 1295.45C1926.57 1302.22 1936.72 1298.02 1936.44 1288.22C1935.13 1243.8 1924.07 1147.75 1860.15 1044.71ZM1435.26 1852.74C1308.55 1956.13 1159.57 2002.16 1014.02 1982.51C940.159 1972.55 867.677 1945.81 798.578 1903.05C732.608 1862.23 669.509 1806.63 610.614 1737.46C742.231 1829.46 859.832 1876 960.658 1876C966.619 1876 972.522 1875.85 978.356 1875.52C1033.03 1872.48 1081.7 1855.33 1123.04 1824.54C1162.64 1795.05 1193.63 1754.57 1215.18 1704.26C1234.36 1659.44 1245.03 1609.04 1246.89 1554.41C1248.63 1503.42 1242.66 1451.3 1229.13 1399.51C1200.72 1290.82 1141.92 1195.54 1063.58 1131.21C1005.56 1083.58 947.355 1021.82 895.294 952.634C853.173 896.675 817.349 839.057 790.474 784.21L790.484 784.142C790.484 784.142 790.269 783.766 789.927 783.086C789.654 782.524 789.381 781.962 789.112 781.4C784.65 771.813 772.924 739.995 809.87 733.92C1158.89 676.538 1869.06 1439.79 1435.26 1852.74Z" fill="black"/>
<path d="M809.87 733.917C772.914 739.992 784.65 771.793 789.112 781.397C789.38 781.959 789.654 782.521 789.927 783.082C790.279 783.762 790.484 784.139 790.484 784.139L790.474 784.206C817.349 839.054 853.173 896.671 895.294 952.631C947.37 1021.81 1005.56 1083.57 1063.58 1131.21C1141.93 1195.53 1200.73 1290.82 1229.13 1399.51C1242.66 1451.3 1248.63 1503.41 1246.89 1554.41C1245.03 1609.02 1234.36 1659.44 1215.18 1704.26C1193.63 1754.57 1162.64 1795.05 1123.04 1824.53C1081.7 1855.32 1033.02 1872.47 978.355 1875.51C972.522 1875.85 966.605 1876 960.658 1876C859.832 1876 742.231 1829.46 610.614 1737.45C669.509 1806.62 732.608 1862.23 798.578 1903.04C867.677 1945.81 940.159 1972.54 1014.02 1982.51C1159.57 2002.15 1308.55 1956.12 1435.26 1852.73C1869.06 1439.79 1158.89 676.535 809.87 733.917Z" fill="white"/>
<path d="M564.806 1646.65C564.806 1646.66 564.972 1646.7 565.26 1646.74C564.943 1646.65 564.792 1646.64 564.806 1646.65Z" fill="black"/>
<path d="M578.993 1639.42C579.105 1639.23 579.164 1639.12 579.164 1639.12C579.149 1639.1 579.096 1639.21 578.993 1639.42Z" fill="black"/>
<path d="M1173.44 706.022C1161.33 686.494 1137.09 633.484 1212.23 633.484C1287.38 633.484 1402.19 731.423 1425.54 767.652C1418.26 789.737 1369.78 794.671 1345.55 792.53C1321.31 790.389 1280.1 785.803 1248.6 767.652C1217.07 749.506 1185.56 725.556 1173.44 706.022Z" fill="white"/>
</g>
<defs>
<clipPath id="clip0_2003_170">
<rect width="8353" height="2467" fill="white"/>
</clipPath>
</defs>
</svg>
