<svg width="273" height="300" viewBox="0 0 273 300" fill="none" xmlns="http://www.w3.org/2000/svg">
<path d="M272.739 150C272.739 232.842 211.684 300 136.37 300C61.0551 300 0 232.842 0 150C0 67.1576 61.0551 0 136.37 0C211.684 0 272.739 67.1576 272.739 150Z" fill="#FFD15C"/>
<path d="M236.722 127.041C229.824 116.416 222.502 110.845 217.919 108.139C216.31 104.887 214.527 101.684 212.57 98.5367C206.928 89.4642 201.049 81.5979 195.099 75.1558C189.535 69.1305 183.73 64.1595 177.845 60.3797C167.604 53.8004 156.984 50.591 145.374 50.5671C145.33 50.5671 145.286 50.5671 145.241 50.5671C134.613 50.5671 124.907 53.2268 116.809 55.8309C114.485 56.5776 112.124 57.3863 109.837 58.1712C103.991 60.1731 98.4688 62.0654 93.8093 62.909C90.6345 63.4842 88.1457 64.8014 86.4149 66.8239C84.7803 68.7335 83.8067 71.2865 83.5222 74.4123C82.9904 80.2572 84.8753 88.0886 88.9733 97.0606C97.1703 115.007 112.872 134.763 128.974 147.396C130.627 148.692 132.194 150.122 133.667 151.665C133.645 151.672 133.624 151.676 133.601 151.681C121.079 153.648 114.554 168.451 111.913 176.449C111.224 178.535 113.099 180.403 115.012 179.693C122.6 176.88 137.892 172.377 146.845 177.742C148.517 186.541 147.812 195.168 144.793 201.91C142.942 206.044 140.304 209.349 136.953 211.733C133.339 214.306 128.974 215.744 123.976 216.009C118.561 216.297 112.422 215.2 105.732 212.75C98.4514 210.084 90.4569 205.791 81.9709 199.989L81.8131 199.883L81.6497 199.787C81.5534 199.73 81.4521 199.666 81.3509 199.6C93.4986 183.497 86.0918 159.178 83.1277 151.161C82.7319 150.092 81.3912 150.1 80.8569 151.095C73.9167 164.021 59.6799 163.061 59.9327 178.457C59.927 178.445 59.9212 178.433 59.9154 178.422C49.0316 168.687 40.9528 181.638 27.4097 179.693C26.3683 179.544 25.5377 180.702 26.0606 181.703C29.9664 189.185 42.7584 210.465 61.6747 209.989C62.4256 210.89 63.2941 211.932 63.967 212.75L66.2495 215.521C75.5196 226.773 85.6724 235.702 96.4267 242.06C106.443 247.984 116.987 251.69 127.764 253.08C130.992 253.497 134.229 253.704 137.463 253.704C156.228 253.704 174.88 246.763 190.858 233.672C199.822 226.328 207.484 217.466 213.628 207.332C219.917 196.961 224.32 185.736 226.713 173.971C228.308 166.133 228.97 158.227 228.7 150.342C234.633 148.4 241.185 154.155 244.392 157.533C245.175 158.357 246.466 157.846 246.43 156.654C246.264 151.252 244.856 139.572 236.722 127.041ZM182.651 225.302C166.525 237.875 147.567 243.473 129.044 241.084C119.644 239.872 110.42 236.621 101.627 231.42C93.2315 226.457 85.2015 219.695 77.7065 211.283C94.456 222.472 109.422 228.131 122.253 228.131C123.012 228.131 123.763 228.113 124.505 228.072C131.463 227.703 137.657 225.618 142.917 221.873C147.957 218.287 151.901 213.365 154.643 207.247C157.084 201.797 158.442 195.667 158.679 189.025C158.9 182.823 158.14 176.485 156.419 170.187C152.803 156.97 145.321 145.383 135.351 137.561C127.968 131.768 120.56 124.258 113.935 115.845C108.574 109.04 104.016 102.033 100.595 95.3638L100.597 95.3556C100.597 95.3556 100.569 95.3098 100.526 95.2271C100.491 95.1588 100.456 95.0904 100.422 95.0221C99.8543 93.8563 98.362 89.987 103.064 89.2483C147.481 82.2704 237.856 175.086 182.651 225.302Z" fill="black"/>
<path d="M103.064 89.2482C98.3608 89.987 99.8544 93.8542 100.422 95.022C100.456 95.0904 100.491 95.1587 100.526 95.2271C100.571 95.3097 100.597 95.3555 100.597 95.3555L100.596 95.3637C104.016 102.033 108.575 109.04 113.935 115.845C120.562 124.258 127.968 131.768 135.351 137.561C145.322 145.383 152.804 156.97 156.419 170.187C158.14 176.485 158.9 182.823 158.679 189.025C158.442 195.666 157.084 201.797 154.643 207.247C151.902 213.365 147.957 218.287 142.917 221.873C137.657 225.616 131.462 227.703 124.505 228.072C123.763 228.113 123.01 228.131 122.253 228.131C109.422 228.131 94.4561 222.472 77.7065 211.283C85.2016 219.695 93.2316 226.457 101.627 231.42C110.42 236.621 119.644 239.871 129.044 241.084C147.567 243.471 166.525 237.874 182.651 225.302C237.856 175.086 147.481 82.2703 103.064 89.2482Z" fill="white"/>
<path d="M71.8771 200.241C71.8771 200.243 71.8982 200.248 71.9342 200.252C71.8939 200.241 71.8752 200.24 71.8771 200.241Z" fill="black"/>
<path d="M73.6824 199.363C73.6965 199.339 73.7039 199.325 73.7039 199.325C73.7021 199.323 73.6953 199.336 73.6824 199.363Z" fill="black"/>
<path d="M149.332 85.8561C147.791 83.4814 144.705 77.0352 154.267 77.0352C163.831 77.0352 178.442 88.945 181.413 93.3506C180.487 96.0363 174.318 96.6363 171.234 96.3759C168.149 96.1156 162.906 95.5579 158.896 93.3506C154.884 91.144 150.875 88.2315 149.332 85.8561Z" fill="white"/>
</svg>

