<svg width="64" height="36" viewBox="0 0 64 36" fill="none" xmlns="http://www.w3.org/2000/svg">
<g clip-path="url(#clip0_379_22)">
<path d="M24.2505 19.7525V18.2759H27.7276C28.2592 18.2759 28.6743 18.1239 28.9719 17.8199C29.2694 17.5159 29.4182 17.1151 29.4182 16.6197C29.4182 16.1242 29.2694 15.7155 28.9719 15.4194C28.6743 15.1233 28.2592 14.9752 27.7276 14.9752H23.1434V22.1797H21.6427V13.4483H27.7276C28.2279 13.4483 28.6743 13.5223 29.0678 13.6704C29.4603 13.8184 29.7922 14.0267 30.0624 14.2952C30.3325 14.5636 30.5391 14.8894 30.682 15.2733C30.8249 15.6573 30.8964 16.0896 30.8964 16.5703C30.8964 17.051 30.8249 17.4725 30.682 17.8614C30.5391 18.2492 30.3325 18.5839 30.0624 18.8642C29.7922 19.1445 29.4613 19.3626 29.0678 19.5186C28.6752 19.6745 28.2279 19.7525 27.7276 19.7525H24.2505Z" fill="#7142CF"/>
<path d="M35.821 22.1777V18.8632L31.225 13.4483H33.2611L36.6315 17.4705L40.0128 13.4483H41.9422L37.3334 18.8632V22.1777H35.821Z" fill="#7142CF"/>
<path d="M47.1589 22.1777V14.9733H43.1766V13.4483H52.6596V14.9733H48.6716V22.1777H47.1589Z" fill="#7142CF"/>
<path d="M62.1184 13.4483H63.625V22.1777H62.1184V13.4483Z" fill="#7142CF"/>
<path d="M55.6202 22.1777V18.3993H61.2251V17.048H55.6202V13.4483H54.1135V22.1777H55.6202Z" fill="#7142CF"/>
<path d="M10.8212 15.7327C10.8212 16.9379 9.85203 17.915 8.65677 17.915V20.0974C11.0473 20.0974 12.9855 18.1431 12.9855 15.7327C12.9855 13.3223 11.0473 11.368 8.65677 11.368C7.86875 11.368 7.12868 11.5802 6.49241 11.9523C5.19825 12.7064 4.328 14.1169 4.328 15.7327V26.6444L6.27409 28.6067L6.49241 28.8268V15.7327C6.49241 14.5275 7.46152 13.5503 8.65677 13.5503C9.85203 13.5503 10.8212 14.5275 10.8212 15.7327Z" fill="#7142CF"/>
<path d="M8.65754 7C7.08051 7 5.60233 7.42542 4.32877 8.16866C3.51334 8.64343 2.78307 9.24848 2.16439 9.95619C0.817397 11.495 0 13.5165 0 15.7294V22.2765L2.16439 24.4588V15.7294C2.16439 13.7909 3.00038 12.0487 4.32877 10.8495C4.95334 10.2869 5.68655 9.84268 6.49318 9.55644C7.16958 9.31363 7.89888 9.18235 8.65754 9.18235C12.2434 9.18235 15.1507 12.1139 15.1507 15.7294C15.1507 19.345 12.2434 22.2765 8.65754 22.2765V24.4588C13.4396 24.4588 17.3151 20.5501 17.3151 15.7294C17.3151 10.9087 13.4396 7 8.65754 7Z" fill="#7142CF"/>
</g>
<defs>
<clipPath id="clip0_379_22">
<rect width="64" height="22" fill="white" transform="translate(0 7)"/>
</clipPath>
</defs>
</svg>
