<svg width="87" height="29" viewBox="0 0 87 29" fill="none" xmlns="http://www.w3.org/2000/svg">
<g clip-path="url(#clip0_51_5)">
<path d="M44.7586 12.9253C44.7586 14.84 43.9052 15.5368 42.9105 16.0588L45.0275 20.3H42.4212L40.6203 16.6127H40.0359H37.4926V20.3H35.09V9.222H37.4912V9.23795L40.4767 9.222C41.8035 9.222 44.7586 9.222 44.7586 12.9253ZM40.2882 14.4601C40.9835 14.4601 42.5314 14.4761 42.5314 12.9253C42.5314 11.3905 41.0777 11.3905 40.3353 11.3905H37.4919V14.4609L40.2882 14.4601ZM48.5967 20.3H46.2115V11.4855H48.5967V20.3ZM48.5967 10.8525H46.2115V8.7H48.5967V10.8525ZM54.4301 14.9191C56.4361 15.2199 58.7112 15.5679 58.7112 17.6726C58.7112 19.8723 57.1314 20.3 54.4141 20.3C52.408 20.3 51.0334 19.9361 50.3222 19.2241C49.706 18.6071 49.126 17.8633 49.1419 17.4044V17.2304H52.1862V17.3094C52.1862 18.0692 52.7546 18.4172 54.3503 18.4172C55.3138 18.4172 56.2302 18.2903 56.2302 17.7052C56.2302 17.0404 55.3769 16.9143 54.4134 16.8033L54.0342 16.7555C51.4909 16.4234 49.9111 15.8536 49.9111 14.081C49.9111 12.8463 50.6224 11.3745 54.0342 11.3745C57.6991 11.3745 58.4734 13.0043 58.4734 14.3652V14.4442H56.0251V14.3652C56.0251 13.6692 55.4248 13.2893 54.0349 13.2893C52.6922 13.2893 52.408 13.7801 52.408 14.0491C52.408 14.4449 52.6763 14.666 54.2249 14.9038L54.4301 14.9198V14.9191ZM68.8996 16.4227H61.8222C61.9962 17.6095 62.7067 18.1953 64.2553 18.1953C65.6929 18.1953 66.4034 17.7995 66.6246 17.2144H68.9467C68.7104 19.1291 67.1618 20.3 64.2553 20.3C61.2219 20.3 59.5 18.7804 59.5 15.8217C59.5 12.9253 61.2697 11.3434 64.2553 11.3434C65.503 11.3434 66.5144 11.6602 67.2568 12.1822V12.1662C68.9627 13.3371 69.1207 15.2047 68.9946 16.4234L68.8996 16.4227ZM64.2553 13.4473C62.9285 13.4473 62.2013 13.9381 61.9171 14.84H66.5934C66.4042 14.1752 65.9612 13.4473 64.2553 13.4473ZM76.2453 20.3H73.8601V11.4855H76.2453V20.3ZM76.2453 10.8525H73.8601V8.7H76.2453V10.8525ZM83.1611 11.4217C86.9057 11.4217 87 14.5711 87 15.8688V20.3H84.6147V15.8688C84.6147 15.1728 84.7568 13.4952 82.4665 13.4952C80.3807 13.4952 80.0806 14.8248 80.0806 16.0269V20.3H77.6794V11.4217H80.0806V12.7354H80.1915C80.7599 11.9444 81.5661 11.4217 83.1611 11.4217Z" fill="white"/>
<path d="M22.3764 6.60403H14.9364V14.0694H22.3764V6.60403Z" fill="white" fill-opacity="0.75"/>
<path d="M14.8994 14.0694H7.45874V21.5347H14.8987V14.0694H14.8994Z" fill="white"/>
<path d="M14.9075 6.60403H7.46753V14.0694H14.9075V6.60403Z" fill="#FDF9FF" fill-opacity="0.38"/>
<path d="M7.43995 6.60403H0L3.43142 10.3371L7.44067 14.0694L7.43995 6.60403Z" fill="#E2FFFA"/>
<path d="M22.3764 14.0694H14.9364V21.5347H22.3764V14.0694Z" fill="#FDF9FF" fill-opacity="0.38"/>
<path d="M22.3764 21.5347H14.9364L18.9225 25.4113L22.3764 29V21.5347Z" fill="#E2FFFA"/>
<path fill-rule="evenodd" clip-rule="evenodd" d="M25.8143 4.67335L22.9498 3.7961L25.7041 2.89202L26.743 0L27.6812 2.79995L30.45 3.79537L27.5833 4.75745L26.743 7.50592L25.815 4.67263L25.8143 4.67335Z" fill="#F9F5FF"/>
</g>
<defs>
<clipPath id="clip0_51_5">
<rect width="87" height="29" fill="white"/>
</clipPath>
</defs>
</svg>

