<svg width="120" height="40" viewBox="0 0 120 40" fill="none" xmlns="http://www.w3.org/2000/svg">
<g clip-path="url(#clip0_13_42)">
<path d="M61.736 17.828C61.736 20.469 60.559 21.43 59.187 22.15L62.107 28H58.512L56.028 22.914H55.222H51.714V28H48.4V12.72H51.712V12.742L55.83 12.72C57.66 12.72 61.736 12.72 61.736 17.828ZM55.57 19.945C56.529 19.945 58.664 19.967 58.664 17.828C58.664 15.711 56.659 15.711 55.635 15.711H51.713V19.946L55.57 19.945ZM67.03 28H63.74V15.842H67.03V28ZM67.03 14.969H63.74V12H67.03V14.969ZM75.076 20.578C77.843 20.993 80.981 21.473 80.981 24.376C80.981 27.41 78.802 28 75.054 28C72.287 28 70.391 27.498 69.41 26.516C68.56 25.665 67.76 24.639 67.782 24.006V23.766H71.981V23.875C71.981 24.923 72.765 25.403 74.966 25.403C76.295 25.403 77.559 25.228 77.559 24.421C77.559 23.504 76.382 23.33 75.053 23.177L74.53 23.111C71.022 22.653 68.843 21.867 68.843 19.422C68.843 17.719 69.824 15.689 74.53 15.689C79.585 15.689 80.653 17.937 80.653 19.814V19.923H77.276V19.814C77.276 18.854 76.448 18.33 74.531 18.33C72.679 18.33 72.287 19.007 72.287 19.378C72.287 19.924 72.657 20.229 74.793 20.557L75.076 20.579V20.578ZM95.034 22.652H85.272C85.512 24.289 86.492 25.097 88.628 25.097C90.611 25.097 91.591 24.551 91.896 23.744H95.099C94.773 26.385 92.637 28 88.628 28C84.444 28 82.069 25.904 82.069 21.823C82.069 17.828 84.51 15.646 88.628 15.646C90.349 15.646 91.744 16.083 92.768 16.803V16.781C95.121 18.396 95.339 20.972 95.165 22.653L95.034 22.652ZM88.628 18.548C86.798 18.548 85.795 19.225 85.403 20.469H91.853C91.592 19.552 90.981 18.548 88.628 18.548ZM105.166 28H101.876V15.842H105.166V28ZM105.166 14.969H101.876V12H105.166V14.969ZM114.705 15.754C119.87 15.754 120 20.098 120 21.888V28H116.71V21.888C116.71 20.928 116.906 18.614 113.747 18.614C110.87 18.614 110.456 20.448 110.456 22.106V28H107.144V15.754H110.456V17.566H110.609C111.393 16.475 112.505 15.754 114.705 15.754Z" fill="black"/>
<path d="M30.8641 9.10901H20.6021V19.406H30.8641V9.10901Z" fill="#8427FD"/>
<path d="M20.551 19.406H10.288V29.703H20.55V19.406H20.551Z" fill="url(#paint0_linear_13_42)"/>
<path d="M20.562 9.10901H10.3V19.406H20.562V9.10901Z" fill="#CC45FF"/>
<path d="M10.262 9.10901H0L4.733 14.258L10.263 19.406L10.262 9.10901Z" fill="#41DABE"/>
<path d="M30.8641 19.406H20.6021V29.703H30.8641V19.406Z" fill="#CC45FF"/>
<path d="M30.8641 29.703H20.6021L26.1001 35.05L30.8641 40V29.703Z" fill="#41DABE"/>
<path fill-rule="evenodd" clip-rule="evenodd" d="M35.606 6.446L31.655 5.236L35.454 3.989L36.887 0L38.181 3.862L42 5.235L38.046 6.562L36.887 10.353L35.607 6.445L35.606 6.446Z" fill="#F9F5FF"/>
</g>
<defs>
<linearGradient id="paint0_linear_13_42" x1="10.288" y1="20.717" x2="19.103" y2="27.374" gradientUnits="userSpaceOnUse">
<stop stop-color="#41DABE"/>
<stop offset="1" stop-color="#B4FF24"/>
</linearGradient>
<clipPath id="clip0_13_42">
<rect width="120" height="40" fill="white"/>
</clipPath>
</defs>
</svg>
