<svg width="101" height="18" viewBox="0 0 101 18" fill="none" xmlns="http://www.w3.org/2000/svg">
<g clip-path="url(#clip0_42_494)">
<path d="M11.9178 17.9923C1.03073 17.7787 -2.27988e-07 13.965 0 8.99713C2.27988e-07 4.02928 1.19179 0.108779 11.9178 0.00202245C22.6439 -0.104734 23.8357 4.02928 23.8357 8.99713C23.8357 13.965 22.805 18.2058 11.9178 17.9923Z" fill="#6DC4FE"/>
<path fill-rule="evenodd" clip-rule="evenodd" d="M8.59516 14.8689C8.59233 14.8689 8.58949 14.8689 8.58666 14.8689C5.72911 14.8689 3.4126 12.6628 3.4126 9.94134C3.4126 7.58216 5.15347 5.61023 7.47855 5.12706C8.65186 3.56678 10.5714 2.55007 12.7403 2.55007C16.0833 2.55007 18.834 4.96563 19.1728 8.064C20.0637 8.76954 20.6308 9.83306 20.6308 11.0227C20.6308 13.1469 18.8226 14.869 16.5921 14.869C16.5856 14.869 16.5789 14.869 16.5724 14.8689H12.7692C12.7596 14.869 12.7499 14.869 12.7403 14.869C12.7307 14.869 12.721 14.869 12.7114 14.8689H8.59516ZM15.8232 7.53947C16.4365 7.53947 16.9336 7.06601 16.9336 6.48197C16.9336 5.89787 16.4365 5.42444 15.8232 5.42444C15.21 5.42444 14.7128 5.89787 14.7128 6.48197C14.7128 7.06601 15.21 7.53947 15.8232 7.53947ZM11.382 7.53947C11.9953 7.53947 12.4924 7.06601 12.4924 6.48197C12.4924 5.89793 11.9953 5.42445 11.382 5.42445C10.7687 5.42445 10.2716 5.89793 10.2716 6.48197C10.2716 7.06601 10.7687 7.53947 11.382 7.53947ZM15.6248 8.49707C16.0464 8.44059 16.4022 8.39289 16.6165 8.39289C17.142 8.39289 17.5682 8.79874 17.5682 9.29931C17.5682 11.3851 15.7927 13.0759 13.6027 13.0759C11.4126 13.0759 9.63718 11.3851 9.63718 9.29931C9.63718 8.79874 10.0633 8.39289 10.5889 8.39289C10.8032 8.39289 11.159 8.44059 11.5806 8.49707C12.1933 8.57919 12.945 8.67994 13.6027 8.67994C14.2604 8.67994 15.012 8.57919 15.6248 8.49707ZM13.6025 12.3206C14.4717 12.3206 15.2591 11.9877 15.832 11.4486C16.0869 11.2086 16.0032 10.7983 15.6742 10.663C15.1184 10.4345 14.3943 10.2963 13.6024 10.2963C12.8105 10.2963 12.0864 10.4345 11.5306 10.663C11.2016 10.7983 11.1181 11.2087 11.3731 11.4486C11.9461 11.9877 12.7334 12.3206 13.6025 12.3206Z" fill="#F7F9FB"/>
<path d="M86.6946 14.7239V5.23795H88.8114L88.9626 6.31794C89.2143 5.99394 89.4854 5.74796 89.7754 5.57995C90.0778 5.39995 90.3861 5.27395 90.7015 5.20195C91.0287 5.12995 91.3376 5.09395 91.6276 5.09395C92.2573 5.09395 92.793 5.21395 93.2342 5.45395C93.6878 5.69396 94.0404 6.05396 94.2926 6.53394C94.5442 6.19796 94.8277 5.92796 95.1431 5.72394C95.458 5.50795 95.7917 5.35194 96.1449 5.25595C96.4975 5.14795 96.869 5.09395 97.26 5.09395C98.0284 5.09395 98.6457 5.24995 99.1123 5.56195C99.5783 5.86192 99.9185 6.28194 100.133 6.82194C100.347 7.34996 100.454 7.95594 100.454 8.63994V14.7239H98.1483V9.34194C98.1483 9.10192 98.1353 8.84992 98.1105 8.58594C98.0851 8.32196 98.016 8.07592 97.9026 7.84794C97.8016 7.61996 97.6504 7.43394 97.449 7.28994C97.247 7.14594 96.9635 7.07394 96.5985 7.07394C96.2329 7.07394 95.9305 7.15196 95.6913 7.30794C95.4644 7.45194 95.2754 7.64994 95.1242 7.90194C94.9854 8.14196 94.8844 8.41196 94.8218 8.71194C94.771 8.99994 94.7462 9.28794 94.7462 9.57594V14.7239H92.4404V9.32394C92.4404 9.09596 92.4215 8.85594 92.3837 8.60394C92.3583 8.33996 92.2951 8.09392 92.1946 7.86594C92.1061 7.62592 91.9549 7.43394 91.741 7.28994C91.539 7.14594 91.2555 7.07394 90.8905 7.07394C90.3613 7.07394 89.9579 7.21192 89.6809 7.48794C89.4163 7.76396 89.2332 8.09994 89.1328 8.49594C89.0442 8.89194 89.0005 9.26994 89.0005 9.62994V14.7239H86.6946Z" fill="#1B1B1C"/>
<path d="M80.5762 14.85C79.1397 14.85 78.0376 14.496 77.2686 13.788C76.5131 13.08 76.1351 12 76.1351 10.548V5.23801H78.4404V10.404C78.4404 10.908 78.5101 11.346 78.6483 11.718C78.7995 12.09 79.0328 12.378 79.3476 12.582C79.6755 12.774 80.0848 12.87 80.5762 12.87C81.1054 12.87 81.5212 12.768 81.8236 12.564C82.139 12.348 82.3593 12.054 82.4851 11.682C82.6115 11.31 82.6742 10.884 82.6742 10.404V5.23801H84.98V10.548C84.98 12.036 84.5896 13.128 83.8082 13.824C83.0398 14.508 81.9624 14.85 80.5762 14.85Z" fill="#1B1B1C"/>
<path d="M72.6556 14.8319C71.5594 14.8319 70.7591 14.5439 70.2552 13.9679C69.7508 13.3919 69.4992 12.594 69.4992 11.5739V7.18194H67.9683V5.23796H69.4992V2.57396H71.8051V5.23796H74.8292V7.18194H71.8051V11.1599C71.8051 11.472 71.8429 11.7539 71.9185 12.0059C71.9941 12.2579 72.1323 12.4559 72.3343 12.5999C72.5357 12.7439 72.8127 12.822 73.1659 12.8339C73.4683 12.8339 73.7264 12.786 73.9408 12.6899C74.1547 12.594 74.3313 12.486 74.4701 12.3659L75.245 14.0399C75.0052 14.232 74.7347 14.388 74.4323 14.5079C74.1423 14.628 73.8463 14.712 73.5439 14.7599C73.2415 14.808 72.945 14.8319 72.6556 14.8319Z" fill="#1B1B1C"/>
<path d="M62.835 14.8499C61.8013 14.8499 60.9319 14.6519 60.2267 14.2559C59.5209 13.848 58.9854 13.2779 58.62 12.5459C58.2546 11.814 58.0719 10.968 58.0719 10.0079C58.0719 9.04792 58.2609 8.20192 58.6389 7.46994C59.0169 6.72592 59.5711 6.14396 60.3023 5.72394C61.0329 5.30395 61.9212 5.09395 62.9673 5.09395C63.7357 5.09395 64.4161 5.21995 65.0085 5.47195C65.6134 5.72394 66.0983 6.09592 66.4639 6.58794C66.8419 7.06792 67.0811 7.66794 67.1821 8.38794H64.914C64.7628 7.93192 64.5106 7.60196 64.158 7.39794C63.8178 7.18194 63.4079 7.07394 62.9295 7.07394C62.2868 7.07394 61.7765 7.22396 61.3985 7.52394C61.0329 7.81194 60.7683 8.17796 60.6047 8.62194C60.4405 9.06592 60.359 9.52796 60.359 10.0079C60.359 10.5119 60.447 10.986 60.6236 11.4299C60.7996 11.8619 61.0707 12.21 61.4363 12.4739C61.8143 12.7379 62.2993 12.8699 62.8917 12.8699C63.3701 12.8699 63.7989 12.768 64.1769 12.5639C64.5673 12.3599 64.8195 12.03 64.9329 11.5739H67.2766C67.188 12.3059 66.9299 12.9179 66.5017 13.4099C66.0859 13.8899 65.5566 14.2499 64.914 14.4899C64.2714 14.73 63.578 14.8499 62.835 14.8499Z" fill="#1B1B1C"/>
<path d="M47.4382 14.7239V5.23795H49.5929L49.7252 6.44394C49.9898 6.10796 50.2985 5.84392 50.6513 5.65194C51.0041 5.45994 51.3758 5.32195 51.7665 5.23795C52.1571 5.14195 52.5225 5.09395 52.8627 5.09395C53.8077 5.09395 54.5511 5.29195 55.0929 5.68794C55.6473 6.08394 56.0379 6.61196 56.2647 7.27194C56.4916 7.93192 56.605 8.66992 56.605 9.48594V14.7239H54.2991V9.84594C54.2991 9.49792 54.2739 9.16194 54.2235 8.83794C54.1731 8.50196 54.0723 8.20192 53.9211 7.93794C53.7825 7.67396 53.5809 7.46392 53.3163 7.30794C53.0517 7.15196 52.6989 7.07394 52.2579 7.07394C51.716 7.07394 51.2561 7.21192 50.8781 7.48794C50.5001 7.76396 50.2166 8.13594 50.0276 8.60394C49.8386 9.05996 49.7441 9.58196 49.7441 10.1699V14.7239H47.4382Z" fill="#1B1B1C"/>
<path d="M40.3899 14.8499C39.9236 14.8499 39.4827 14.7899 39.0669 14.6699C38.651 14.55 38.2793 14.3759 37.9517 14.1479C37.6241 13.9079 37.3595 13.614 37.1579 13.2659C36.9689 12.9059 36.8744 12.4859 36.8744 12.0059C36.8744 11.3939 37.0004 10.896 37.2524 10.5119C37.5044 10.1159 37.8446 9.81596 38.273 9.61194C38.714 9.40792 39.2117 9.26994 39.7662 9.19794C40.3206 9.11396 40.9002 9.07194 41.505 9.07194H43.4518C43.4518 8.65192 43.3824 8.29192 43.2439 7.99194C43.1053 7.67992 42.8848 7.43394 42.5824 7.25394C42.2925 7.07394 41.9145 6.98394 41.4483 6.98394C41.1459 6.98394 40.8624 7.01994 40.5978 7.09194C40.3458 7.15196 40.1253 7.25394 39.9363 7.39794C39.7599 7.52996 39.6339 7.70394 39.5583 7.91994H37.1957C37.2839 7.42792 37.4603 7.00796 37.7249 6.65994C38.0021 6.29994 38.336 6.00592 38.7266 5.77794C39.1298 5.54994 39.5709 5.38195 40.0497 5.27395C40.5285 5.15394 41.0136 5.09395 41.505 5.09395C42.9541 5.09395 44.0062 5.48995 44.6614 6.28194C45.3292 7.07394 45.6632 8.18392 45.6632 9.61194V14.7239H43.6219L43.5652 13.4999C43.2754 13.9079 42.9288 14.208 42.5257 14.3999C42.1224 14.5919 41.7318 14.712 41.3538 14.7599C40.9758 14.82 40.6545 14.8499 40.3899 14.8499ZM40.8435 13.0679C41.3475 13.0679 41.7948 12.9779 42.1855 12.7979C42.576 12.6179 42.8848 12.3659 43.1116 12.0419C43.351 11.7179 43.4707 11.346 43.4707 10.9259V10.6199H41.6562C41.3538 10.6199 41.0514 10.6319 40.749 10.6559C40.4592 10.6679 40.1946 10.716 39.9552 10.7999C39.7157 10.8719 39.5205 10.986 39.3693 11.1419C39.2306 11.2979 39.1614 11.5199 39.1614 11.8079C39.1614 12.0959 39.237 12.3299 39.3882 12.5099C39.552 12.6899 39.7599 12.8279 40.0119 12.9239C40.2765 13.02 40.5537 13.0679 40.8435 13.0679Z" fill="#1B1B1C"/>
<path d="M31.5953 14.8499C31.1165 14.8499 30.6377 14.802 30.1589 14.7059C29.6927 14.6099 29.2516 14.4539 28.8358 14.2379C28.42 14.01 28.0735 13.704 27.7963 13.3199C27.5191 12.9359 27.3364 12.4559 27.2482 11.8799H29.5729C29.6738 12.1439 29.8313 12.3599 30.0455 12.5279C30.2723 12.6839 30.5306 12.804 30.8204 12.8879C31.1228 12.9599 31.4189 12.9959 31.7087 12.9959C31.8851 12.9959 32.0741 12.984 32.2757 12.9599C32.49 12.9359 32.6853 12.8879 32.8616 12.8159C33.0506 12.7439 33.2019 12.642 33.3153 12.5099C33.4287 12.3659 33.4854 12.1799 33.4854 11.9519C33.4854 11.7359 33.4224 11.5679 33.2964 11.4479C33.1704 11.3159 33.0003 11.2139 32.786 11.1419C32.5719 11.058 32.3135 10.9919 32.0111 10.9439C31.4693 10.8359 30.8897 10.7219 30.2723 10.6019C29.6549 10.4699 29.1193 10.266 28.6657 9.98994C28.4767 9.88194 28.3129 9.75594 28.1743 9.61194C28.0357 9.46794 27.916 9.31196 27.8152 9.14394C27.727 8.96394 27.6577 8.77196 27.6073 8.56794C27.5695 8.36392 27.5506 8.14196 27.5506 7.90194C27.5506 7.39794 27.6577 6.97196 27.8719 6.62394C28.0987 6.26394 28.3948 5.97594 28.7602 5.75994C29.1382 5.53194 29.5667 5.36395 30.0455 5.25595C30.5243 5.14795 31.0157 5.09395 31.5197 5.09395C32.2001 5.09395 32.8176 5.19595 33.372 5.39995C33.9264 5.60394 34.3863 5.91592 34.7517 6.33594C35.1297 6.75596 35.3565 7.28994 35.4321 7.93794H33.2397C33.1767 7.63796 32.9814 7.39794 32.6537 7.21794C32.3387 7.03794 31.9355 6.94794 31.4441 6.94794C31.2677 6.94794 31.085 6.96594 30.896 7.00194C30.707 7.02596 30.5243 7.07394 30.3479 7.14594C30.1841 7.20596 30.0455 7.30192 29.9321 7.43394C29.8313 7.56596 29.7808 7.72796 29.7808 7.91994C29.7808 8.09994 29.825 8.25592 29.9132 8.38794C30.014 8.51996 30.1589 8.63392 30.3479 8.72994C30.5495 8.81392 30.7826 8.88592 31.0472 8.94594C31.4756 9.02992 31.9229 9.11396 32.3891 9.19794C32.8554 9.28192 33.2586 9.36596 33.5988 9.44994C34.002 9.55794 34.3674 9.71392 34.695 9.91794C35.0226 10.1099 35.2747 10.3679 35.451 10.6919C35.64 11.004 35.7345 11.4059 35.7345 11.8979C35.7345 12.4739 35.6085 12.9539 35.3565 13.3379C35.1171 13.722 34.7958 14.0219 34.3926 14.2379C33.9894 14.4539 33.5421 14.6099 33.0506 14.7059C32.5592 14.802 32.0741 14.8499 31.5953 14.8499Z" fill="#1B1B1C"/>
</g>
<defs>
<clipPath id="clip0_42_494">
<rect width="101" height="18" fill="white"/>
</clipPath>
</defs>
</svg>
