<svg width="232" height="216" viewBox="0 0 230 216" fill="none" xmlns="http://www.w3.org/2000/svg">
<g clip-path="url(#clip0_99_96)">
<path fill-rule="evenodd" clip-rule="evenodd" d="M117.091 0C178.294 0 227.909 49.2831 227.909 110.077C227.909 112.853 227.409 117.885 226.409 125.173C226.127 127.231 224.357 128.765 222.266 128.766L189.227 128.769C187.495 128.769 186.091 130.164 186.091 131.885C186.091 133.504 187.334 134.835 188.925 134.986L189.227 135L221.722 134.996C223.076 134.996 224.174 136.086 224.174 137.432C224.174 137.6 224.157 137.767 224.122 137.932C223.716 139.855 222.008 141.233 220.029 141.233H14.1522C12.4184 141.233 11.0129 139.837 11.0129 138.115C11.0129 136.392 12.4184 134.996 14.1522 134.996C14.1521 134.996 14.1523 134.996 14.1522 134.996L59.5906 135C61.3228 135 62.727 133.605 62.727 131.885C62.727 130.265 61.4832 128.934 59.8927 128.783L59.5906 128.769L11.4535 128.765C9.62543 128.765 8.06943 127.444 7.7855 125.65C7.55268 124.179 8.56438 122.799 10.0452 122.568C10.1848 122.546 10.3259 122.535 10.4673 122.535L28.227 122.538C29.9592 122.538 31.3634 121.144 31.3634 119.423C31.3634 117.804 30.1195 116.473 28.5291 116.322L28.227 116.308L10.5138 116.306C8.27893 116.305 6.43925 114.56 6.33704 112.342C6.29399 111.408 6.27246 110.653 6.27246 110.077C6.27246 49.2831 55.8874 0 117.091 0ZM210.136 116.308H187.136C185.404 116.308 184 117.702 184 119.423C184 121.042 185.244 122.373 186.834 122.524L187.136 122.538H210.136C211.868 122.538 213.272 121.144 213.272 119.423C213.272 117.804 212.029 116.473 210.438 116.322L210.136 116.308Z" fill="url(#paint0_linear_99_96)"/>
<path fill-rule="evenodd" clip-rule="evenodd" d="M141.136 184.846C142.869 184.846 144.273 186.241 144.273 187.962C144.273 189.682 142.869 191.077 141.136 191.077H59.5909C57.8587 191.077 56.4545 189.682 56.4545 187.962C56.4545 186.241 57.8587 184.846 59.5909 184.846H141.136ZM203.864 172.385C205.596 172.385 207 173.779 207 175.5C207 177.221 205.596 178.615 203.864 178.615H164.136C162.404 178.615 161 177.221 161 175.5C161 173.779 162.404 172.385 164.136 172.385H203.864ZM134.864 172.385C136.596 172.385 138 173.779 138 175.5C138 177.221 136.596 178.615 134.864 178.615H26.1364C24.4042 178.615 23 177.221 23 175.5C23 173.779 24.4042 172.385 26.1364 172.385H134.864ZM42.8636 159.923C44.5958 159.923 46 161.318 46 163.038C46 164.759 44.5958 166.154 42.8636 166.154H3.13636C1.4042 166.154 0 164.759 0 163.038C0 161.318 1.4042 159.923 3.13636 159.923H42.8636ZM147.409 159.923C149.141 159.923 150.545 161.318 150.545 163.038C150.545 164.759 149.141 166.154 147.409 166.154H78.4091C76.6769 166.154 75.2727 164.759 75.2727 163.038C75.2727 161.318 76.6769 159.923 78.4091 159.923H147.409ZM226.864 159.923C228.596 159.923 230 161.318 230 163.038C230 164.759 228.596 166.154 226.864 166.154H187.136C185.404 166.154 184 164.759 184 163.038C184 161.318 185.404 159.923 187.136 159.923H226.864ZM65.8636 159.923C67.5958 159.923 69 161.318 69 163.038C69 164.759 67.5958 166.154 65.8636 166.154H55.4091C53.6769 166.154 52.2727 164.759 52.2727 163.038C52.2727 161.318 53.6769 159.923 55.4091 159.923H65.8636ZM172.5 159.923C174.232 159.923 175.636 161.318 175.636 163.038C175.636 164.759 174.232 166.154 172.5 166.154H162.045C160.313 166.154 158.909 164.759 158.909 163.038C158.909 161.318 160.313 159.923 162.045 159.923H172.5ZM216.409 147.462C218.141 147.462 219.545 148.856 219.545 150.577C219.545 152.298 218.141 153.692 216.409 153.692H13.5909C11.8587 153.692 10.4545 152.298 10.4545 150.577C10.4545 148.856 11.8587 147.462 13.5909 147.462H216.409Z" fill="url(#paint1_linear_99_96)"/>
<path d="M149.5 197.308H95.1364C93.4042 197.308 92 198.703 92 200.423C92 202.144 93.4042 203.539 95.1364 203.539H149.5C151.232 203.539 152.636 202.144 152.636 200.423C152.636 198.703 151.232 197.308 149.5 197.308Z" fill="url(#paint2_linear_99_96)"/>
<path d="M128.59 209.769H107.681C105.949 209.769 104.545 211.164 104.545 212.885C104.545 214.605 105.949 216 107.681 216H128.59C130.323 216 131.727 214.605 131.727 212.885C131.727 211.164 130.323 209.769 128.59 209.769Z" fill="url(#paint3_linear_99_96)"/>
</g>
<defs>
<linearGradient id="paint0_linear_99_96" x1="11088.1" y1="-1824.45" x2="11088.1" y2="22236.1" gradientUnits="userSpaceOnUse">
<stop stop-color="#F7C300"/>
<stop offset="1" stop-color="#FA006A"/>
</linearGradient>
<linearGradient id="paint1_linear_99_96" x1="11500" y1="-16711.1" x2="11500" y2="25967.1" gradientUnits="userSpaceOnUse">
<stop stop-color="#F7C300"/>
<stop offset="1" stop-color="#FA006A"/>
</linearGradient>
<linearGradient id="paint2_linear_99_96" x1="3123.82" y1="-2211.06" x2="3123.82" y2="3885.83" gradientUnits="userSpaceOnUse">
<stop stop-color="#F7C300"/>
<stop offset="1" stop-color="#FA006A"/>
</linearGradient>
<linearGradient id="paint3_linear_99_96" x1="1463.64" y1="-2198.59" x2="1463.64" y2="3898.28" gradientUnits="userSpaceOnUse">
<stop stop-color="#F7C300"/>
<stop offset="1" stop-color="#FA006A"/>
</linearGradient>
<clipPath id="clip0_99_96">
<rect width="230" height="216" fill="white"/>
</clipPath>
</defs>
</svg>

