<svg width="9" height="8" viewBox="0 0 9 8" fill="none" xmlns="http://www.w3.org/2000/svg">
<g clip-path="url(#clip0_2_15)">
<path d="M8.50146 6.23621L7.09076 7.71635C7.0601 7.7485 7.02299 7.77414 6.98176 7.79166C6.94053 7.80918 6.89605 7.81821 6.85111 7.81818H0.163771C0.131861 7.81818 0.100648 7.80906 0.0739649 7.79195C0.0472817 7.77482 0.0262912 7.75046 0.0135726 7.72182C0.000853894 7.69319 -0.00303898 7.66155 0.00237227 7.63079C0.0077835 7.60002 0.0222631 7.57147 0.0440321 7.54865L1.45578 6.0685C1.48637 6.03644 1.52335 6.01085 1.56444 5.99334C1.60555 5.97582 1.64988 5.96674 1.69472 5.96667H8.38169C8.41359 5.96667 8.4448 5.97579 8.47151 5.99291C8.49816 6.01003 8.51914 6.0344 8.53192 6.06303C8.54461 6.09166 8.5485 6.1233 8.54309 6.15407C8.53767 6.18483 8.5232 6.21338 8.50146 6.23621ZM7.09076 3.25562C7.0601 3.22347 7.02299 3.19783 6.98176 3.18031C6.94053 3.1628 6.89605 3.15377 6.85111 3.15379H0.163771C0.131861 3.15379 0.100648 3.16291 0.0739649 3.18003C0.0472817 3.19715 0.0262912 3.22152 0.0135726 3.25015C0.000853894 3.27878 -0.00303898 3.31043 0.00237227 3.34119C0.0077835 3.37195 0.0222631 3.4005 0.0440321 3.42333L1.45578 4.90348C1.48637 4.93554 1.52335 4.96112 1.56444 4.97864C1.60555 4.99615 1.64988 5.00523 1.69472 5.0053H8.38169C8.41359 5.0053 8.4448 4.99619 8.47151 4.97906C8.49816 4.96194 8.51914 4.93757 8.53192 4.90895C8.54461 4.88031 8.5485 4.84867 8.54309 4.8179C8.53767 4.78714 8.5232 4.75859 8.50146 4.73576L7.09076 3.25562ZM0.163771 2.19243H6.85111C6.89605 2.19245 6.94053 2.18342 6.98176 2.1659C7.02299 2.14838 7.0601 2.12275 7.09076 2.09059L8.50146 0.61045C8.5232 0.587625 8.53767 0.559077 8.54309 0.528311C8.5485 0.497545 8.54461 0.465904 8.53192 0.437274C8.51914 0.408643 8.49816 0.384271 8.47151 0.367152C8.4448 0.350033 8.41359 0.340913 8.38169 0.340912H1.69472C1.64988 0.340987 1.60555 0.350063 1.56444 0.367579C1.52335 0.385096 1.48637 0.410679 1.45578 0.442746L0.044396 1.92289C0.0226481 1.94569 0.00817485 1.97421 0.00275134 2.00494C-0.00267218 2.03567 0.0011898 2.06729 0.0138636 2.0959C0.0265374 2.12452 0.0474722 2.14889 0.0741004 2.16604C0.100729 2.18318 0.131893 2.19235 0.163771 2.19243Z" fill="url(#paint0_linear_2_15)"/>
</g>
<defs>
<linearGradient id="paint0_linear_2_15" x1="0.721336" y1="7.99639" x2="7.56275" y2="0.113411" gradientUnits="userSpaceOnUse">
<stop offset="0.08" stop-color="#9945FF"/>
<stop offset="0.3" stop-color="#8752F3"/>
<stop offset="0.5" stop-color="#5497D5"/>
<stop offset="0.6" stop-color="#43B4CA"/>
<stop offset="0.72" stop-color="#28E0B9"/>
<stop offset="0.97" stop-color="#19FB9B"/>
</linearGradient>
<clipPath id="clip0_2_15">
<rect width="8.54545" height="7.47727" fill="white" transform="translate(0 0.340912)"/>
</clipPath>
</defs>
</svg>
