<svg width="332" height="115" viewBox="0 0 332 115" fill="none" xmlns="http://www.w3.org/2000/svg">
<g clip-path="url(#clip0_36_80)">
<path d="M81.6362 73.4087C78.4409 73.4087 75.7521 72.699 73.5707 71.2797C71.3892 69.8297 69.8529 67.8705 68.9618 65.4022L74.4003 62.2089C75.6602 65.5101 78.1332 67.1608 81.8207 67.1608C83.6028 67.1608 84.9084 66.8369 85.7382 66.189C86.568 65.541 86.9826 64.7234 86.9826 63.7361C86.9826 62.5945 86.4754 61.7152 85.4619 61.0981C84.4476 60.4502 82.6348 59.756 80.0229 59.0155C78.5791 58.5836 77.3497 58.1517 76.3362 57.7197C75.3525 57.2877 74.3542 56.7169 73.3403 56.0073C72.357 55.2669 71.6043 54.3412 71.0819 53.2305C70.5596 52.1198 70.2984 50.8239 70.2984 49.343C70.2984 46.4119 71.3277 44.0825 73.3864 42.3546C75.4757 40.596 77.9801 39.7167 80.899 39.7167C83.5109 39.7167 85.7995 40.3647 87.7661 41.6604C89.7633 42.9255 91.3154 44.6995 92.4215 46.9827L87.0752 50.0835C85.7845 47.3067 83.726 45.9183 80.899 45.9183C79.5777 45.9183 78.5328 46.2268 77.765 46.8438C77.027 47.43 76.6588 48.2014 76.6588 49.1579C76.6588 50.176 77.0734 51.009 77.9032 51.657C78.7636 52.2741 80.3919 52.9528 82.7887 53.6933C83.7716 54.0018 84.5096 54.2487 85.001 54.4338C85.5231 54.588 86.2147 54.8503 87.0752 55.2206C87.9662 55.56 88.6422 55.8839 89.103 56.1924C89.5945 56.501 90.1472 56.9175 90.7619 57.442C91.3766 57.9665 91.8375 58.5064 92.1444 59.0618C92.4828 59.6172 92.7591 60.2959 92.9742 61.0981C93.22 61.8695 93.3432 62.718 93.3432 63.6435C93.3432 66.6363 92.252 69.012 90.071 70.7707C87.9199 72.5293 85.1086 73.4087 81.6362 73.4087Z" fill="#14C686"/>
<path d="M117.479 69.8913C115.113 72.2362 112.225 73.4087 108.814 73.4087C105.403 73.4087 102.515 72.2362 100.15 69.8913C97.8141 67.5156 96.6467 64.6155 96.6467 61.1907C96.6467 57.7659 97.8141 54.8811 100.15 52.5363C102.515 50.1606 105.403 48.9727 108.814 48.9727C112.225 48.9727 115.113 50.1606 117.479 52.5363C119.845 54.8811 121.028 57.7659 121.028 61.1907C121.028 64.6155 119.845 67.5156 117.479 69.8913ZM104.344 65.7724C105.542 66.9757 107.032 67.5774 108.814 67.5774C110.596 67.5774 112.087 66.9757 113.285 65.7724C114.483 64.5691 115.083 63.0419 115.083 61.1907C115.083 59.3395 114.483 57.8122 113.285 56.609C112.087 55.4057 110.596 54.804 108.814 54.804C107.032 54.804 105.542 55.4057 104.344 56.609C103.176 57.8122 102.592 59.3395 102.592 61.1907C102.592 63.0419 103.176 64.5691 104.344 65.7724Z" fill="#14C686"/>
<path d="M138.023 48.9727C140.543 48.9727 142.617 49.8212 144.246 51.5181C145.904 53.2151 146.734 55.56 146.734 58.5527V72.7608H140.789V59.2932C140.789 57.7506 140.374 56.5781 139.545 55.7759C138.715 54.9429 137.609 54.5264 136.226 54.5264C134.69 54.5264 133.46 55.0046 132.539 55.9611C131.617 56.9175 131.156 58.3522 131.156 60.2651V72.7608H125.211V49.6206H131.156V52.2123C132.6 50.0526 134.889 48.9727 138.023 48.9727Z" fill="#14C686"/>
<path d="M169.324 49.6206H175.271V72.7608H169.324V70.0302C167.542 72.2825 165.039 73.4087 161.812 73.4087C158.739 73.4087 156.097 72.2362 153.885 69.8913C151.703 67.5156 150.612 64.6155 150.612 61.1907C150.612 57.7659 151.703 54.8811 153.885 52.5363C156.097 50.1606 158.739 48.9727 161.812 48.9727C165.039 48.9727 167.542 50.0989 169.324 52.3512V49.6206ZM158.355 65.9112C159.553 67.1145 161.075 67.7162 162.918 67.7162C164.762 67.7162 166.283 67.1145 167.481 65.9112C168.71 64.6771 169.324 63.1036 169.324 61.1907C169.324 59.2778 168.71 57.7197 167.481 56.5164C166.283 55.2822 164.762 54.6652 162.918 54.6652C161.075 54.6652 159.553 55.2822 158.355 56.5164C157.157 57.7197 156.558 59.2778 156.558 61.1907C156.558 63.1036 157.157 64.6771 158.355 65.9112Z" fill="#14C686"/>
<path d="M186.607 53.6007C187.16 52.1198 188.067 51.009 189.327 50.2686C190.617 49.5281 192.045 49.1579 193.612 49.1579V55.8222C191.8 55.6062 190.171 55.9764 188.727 56.9329C187.314 57.8894 186.607 59.4783 186.607 61.6998V72.7608H180.662V49.6206H186.607V53.6007Z" fill="#14C686"/>
<path d="M204.095 72.7608L195.062 40.3646H201.745L207.921 64.384L214.65 40.3646H220.089L226.864 64.384L233.039 40.3646H239.723L230.689 72.7608H223.453L217.369 51.3793L211.331 72.7608H204.095Z" fill="#14C686"/>
<path d="M257.902 49.6206H263.848V72.7608H257.902V70.0302C256.12 72.2825 253.616 73.4087 250.39 73.4087C247.317 73.4087 244.675 72.2362 242.462 69.8913C240.281 67.5156 239.19 64.6155 239.19 61.1907C239.19 57.7659 240.281 54.8811 242.462 52.5363C244.675 50.1606 247.317 48.9727 250.39 48.9727C253.616 48.9727 256.12 50.0989 257.902 52.3512V49.6206ZM246.933 65.9112C248.131 67.1145 249.653 67.7162 251.496 67.7162C253.339 67.7162 254.861 67.1145 256.059 65.9112C257.288 64.6771 257.902 63.1036 257.902 61.1907C257.902 59.2778 257.288 57.7197 256.059 56.5164C254.861 55.2822 253.339 54.6652 251.496 54.6652C249.653 54.6652 248.131 55.2822 246.933 56.5164C245.735 57.7197 245.135 59.2778 245.135 61.1907C245.135 63.1036 245.735 64.6771 246.933 65.9112Z" fill="#14C686"/>
<path d="M282.421 55.3594H277.213V64.9857C277.213 65.7879 277.412 66.3741 277.812 66.7444C278.211 67.1146 278.796 67.3306 279.563 67.3923C280.331 67.4231 281.284 67.4077 282.421 67.346V72.7608C278.334 73.2235 275.446 72.8379 273.756 71.6038C272.097 70.3696 271.267 68.1636 271.267 64.9857V55.3594H267.257V49.6207H271.267V44.9464L277.213 43.1415V49.6207H282.421V55.3594Z" fill="#14C686"/>
<path d="M296.862 73.4087C293.39 73.4087 290.486 72.2362 288.151 69.8913C285.846 67.5465 284.695 64.6463 284.695 61.1907C284.695 57.7351 285.846 54.8349 288.151 52.4901C290.486 50.1452 293.39 48.9727 296.862 48.9727C299.105 48.9727 301.148 49.5126 302.992 50.5926C304.836 51.6724 306.233 53.1225 307.186 54.9429L302.07 57.9511C301.609 56.9946 300.903 56.2387 299.95 55.6833C299.029 55.128 297.984 54.8503 296.816 54.8503C295.034 54.8503 293.559 55.452 292.392 56.6553C291.224 57.8277 290.64 59.3395 290.64 61.1907C290.64 63.0111 291.224 64.5228 292.392 65.7261C293.559 66.8986 295.034 67.4848 296.816 67.4848C298.014 67.4848 299.074 67.2225 299.996 66.6981C300.949 66.1427 301.655 65.3868 302.116 64.4303L307.278 67.3923C306.265 69.2126 304.836 70.6781 302.992 71.7888C301.148 72.8687 299.105 73.4087 296.862 73.4087Z" fill="#14C686"/>
<path d="M323.236 48.9727C325.755 48.9727 327.829 49.8212 329.458 51.5181C331.116 53.2151 331.946 55.56 331.946 58.5527V72.7608H326.001V59.2932C326.001 57.7506 325.586 56.5781 324.757 55.7759C323.927 54.9429 322.821 54.5264 321.438 54.5264C319.902 54.5264 318.673 55.0046 317.751 55.9611C316.829 56.9175 316.368 58.3522 316.368 60.2651V72.7608H310.423V40.3646H316.368V52.2123C317.813 50.0526 320.102 48.9727 323.236 48.9727Z" fill="#14C686"/>
<path d="M16.7253 36.7945C19.4332 34.0753 22.6493 31.9213 26.1861 30.4486C29.7228 28.976 33.5153 28.2192 37.3453 28.2192V20C32.441 20 27.5844 20.9692 23.0552 22.8562C18.5226 24.7397 14.4061 27.5 10.9376 30.9829C7.46907 34.4658 4.72017 38.5993 2.84438 43.1507C0.965183 47.6986 0 52.5754 0 57.5H8.18528C8.18528 53.6541 8.93898 49.8459 10.4055 46.2946C11.8721 42.7432 14.0173 39.5137 16.7253 36.7945Z" fill="#174C39"/>
<path d="M20.8042 50.6211C19.9038 52.8026 19.44 55.1416 19.44 57.5012C19.44 58.7821 19.1876 60.0526 18.6999 61.2375C18.2122 62.419 17.496 63.4978 16.5922 64.4019C15.6918 65.3095 14.6175 66.0286 13.4408 66.5183C12.2608 67.0081 10.9955 67.2615 9.71997 67.2615V75.4807C12.0698 75.4807 14.3992 75.0149 16.5717 74.1108C18.7442 73.2101 20.7189 71.8848 22.3799 70.2136C24.0442 68.5457 25.3641 66.5629 26.261 64.3813C27.1614 62.1998 27.6253 59.8608 27.6253 57.5012C27.6253 56.2204 27.8776 54.9499 28.3654 53.7649C28.853 52.5834 29.5692 51.5047 30.4731 50.6005C31.3735 49.693 32.4477 48.9738 33.6244 48.4841C34.8045 47.9944 36.0697 47.7409 37.3453 47.7409V39.5218C34.9954 39.5218 32.6661 39.9875 30.4935 40.8916C28.321 41.7923 26.3463 43.1176 24.6854 44.7889C23.021 46.4567 21.7012 48.4396 20.8042 50.6211Z" fill="#14C686"/>
<path d="M38.88 57.5C38.88 61.3459 38.1263 65.1541 36.6598 68.7055C35.1932 72.2569 33.048 75.4863 30.34 78.2055C27.6321 80.9247 24.416 83.0788 20.8792 84.5514C17.3425 86.024 13.55 86.7808 9.71997 86.7808V95C14.6243 95 19.4809 94.0309 24.0101 92.1439C28.5427 90.2603 32.6592 87.5 36.1278 84.0172C39.5962 80.5342 42.3452 76.4007 44.2209 71.8493C46.1002 67.3014 47.0653 62.4247 47.0653 57.5H38.88Z" fill="#174C39"/>
</g>
<defs>
<clipPath id="clip0_36_80">
<rect width="332" height="75" fill="white" transform="translate(0 20)"/>
</clipPath>
</defs>
</svg>
