<svg width="257" height="271" viewBox="0 0 257 271" fill="none" xmlns="http://www.w3.org/2000/svg">
<g clip-path="url(#clip0_99_31)">
<path d="M250.503 72.581L215.695 35.8752L188.228 6.86641C187.708 6.31767 187.159 5.79888 186.597 5.30949C182.628 1.88666 177.66 0.011417 172.533 0H84.4805C79.3527 0.00898816 74.3851 1.88452 70.4168 5.30949C69.8543 5.79888 69.3058 6.31767 68.7854 6.86641L41.3332 35.8158L6.52558 72.5216C4.45841 74.6979 2.81807 77.2824 1.6984 80.1274C0.578711 82.9723 0.00161002 86.0223 6.23118e-07 89.1025V181.958C-0.00069157 185.037 0.575318 188.088 1.69513 190.933C2.81495 193.779 4.45655 196.363 6.52558 198.537L68.7854 264.207C69.3058 264.756 69.8543 265.275 70.4168 265.691C74.3851 269.115 79.3527 270.991 84.4805 271H172.533C177.66 270.989 182.628 269.114 186.597 265.691C187.159 265.201 187.708 264.682 188.228 264.207L250.489 198.537C252.553 196.36 254.191 193.774 255.308 190.93C256.426 188.085 257 185.036 257 181.958V89.1025C256.983 82.9077 254.648 76.9701 250.503 72.581ZM223.05 135.641V213.487C223.045 216.354 222.503 219.193 221.457 221.839C220.41 224.486 218.879 226.888 216.952 228.91C215.023 230.933 212.736 232.534 210.221 233.622C207.706 234.712 205.011 235.267 202.292 235.258H54.6233C51.906 235.261 49.2151 234.697 46.7042 233.601C44.1935 232.506 41.9123 230.899 39.9909 228.873C38.0695 226.846 36.5457 224.441 35.5067 221.793C34.4677 219.145 33.9339 216.308 33.9357 213.442V57.7207C33.9339 54.8546 34.4676 52.0161 35.5063 49.3675C36.5451 46.719 38.0688 44.312 39.9901 42.2847C41.9113 40.2573 44.1924 38.6496 46.7032 37.5523C49.2141 36.4551 51.9054 35.8896 54.6233 35.8896H202.292C207.783 35.8896 213.048 38.1899 216.93 42.284C220.813 46.378 222.994 51.9308 222.994 57.7207V135.656L223.05 135.641Z" fill="black"/>
</g>
<defs>
<clipPath id="clip0_99_31">
<rect width="257" height="271" fill="white"/>
</clipPath>
</defs>
</svg>

