<svg width="584" height="171" viewBox="0 0 584 171" fill="none" xmlns="http://www.w3.org/2000/svg">
<g clip-path="url(#clip0_2072_36)">
<path d="M0 24.85V36.14L118.01 17.32L185.98 42.54V32.38L119.13 0L0 24.85Z" fill="white"/>
<path d="M0 42.5388V54.9688L109.05 42.5388L185.98 57.5987V47.0588L112.04 25.2188L0 42.5388Z" fill="white"/>
<path d="M0 60.2381V73.4081L101.95 67.9481L185.98 73.4081V62.4881L103.07 50.8281L0 60.2381Z" fill="white"/>
<path d="M0 79.0597V90.3597L92.84 93.3697L185.98 90.3597V79.0597L94.86 76.4297L0 79.0597Z" fill="white"/>
<path d="M0 96.3789V106.599L83.94 119.829L185.98 107.799V96.3789L84.83 102.689L0 96.3789Z" fill="white"/>
<path d="M0 112.012V122.842L75.29 144.792L185.98 126.442V114.722L76.18 128.402L0 112.012Z" fill="white"/>
<path d="M0 126.738V136.968L67.23 170.038L185.98 144.778V133.058L68.13 152.908L0 126.738Z" fill="white"/>
<path d="M231.381 81.659C234.735 82.794 238.262 83.3321 241.801 83.249C247.401 83.249 251.841 81.9924 255.121 79.479C258.401 76.9657 260.041 73.299 260.041 68.479C260.041 64.9057 259.168 62.1057 257.421 60.079C255.82 58.1587 253.754 56.6787 251.421 55.779C248.841 54.8469 246.184 54.1409 243.481 53.669L241.971 53.399C239.571 52.919 237.641 52.399 236.201 52.009C234.811 51.6003 233.513 50.9244 232.381 50.019C231.869 49.6285 231.456 49.1224 231.176 48.542C230.896 47.9615 230.758 47.3232 230.771 46.679C230.743 45.8828 230.961 45.0972 231.396 44.4297C231.831 43.7621 232.462 43.245 233.201 42.949C234.971 42.1457 236.898 41.7493 238.841 41.789C243.059 41.8338 247.186 43.0227 250.781 45.229C251.169 45.4876 251.625 45.6235 252.091 45.619C252.453 45.6467 252.815 45.5758 253.139 45.4138C253.463 45.2517 253.737 45.0047 253.931 44.699L256.481 41.189C256.751 40.8292 256.892 40.3888 256.881 39.939C256.893 39.5698 256.807 39.2041 256.631 38.8791C256.455 38.5541 256.197 38.2815 255.881 38.089C253.701 36.5432 251.306 35.3268 248.771 34.479C245.861 33.5647 242.821 33.1291 239.771 33.189C236.828 33.1814 233.904 33.6508 231.111 34.579C228.483 35.47 226.153 37.0728 224.381 39.209C222.49 41.5889 221.524 44.5725 221.661 47.609C221.661 51.179 222.661 53.979 224.741 56.009C226.592 57.9048 228.868 59.331 231.381 60.169C234.192 61.005 237.051 61.6728 239.941 62.169C241.909 62.5097 243.858 62.9503 245.781 63.489C247.132 63.8665 248.378 64.551 249.421 65.489C249.896 65.9407 250.266 66.4907 250.506 67.1004C250.747 67.7101 250.851 68.3649 250.811 69.019C250.809 69.8347 250.608 70.6374 250.224 71.3573C249.841 72.0772 249.287 72.6923 248.611 73.149C247.141 74.229 244.821 74.769 241.611 74.769C239.215 74.7387 236.844 74.278 234.611 73.409C232.256 72.5503 229.975 71.5002 227.791 70.269C227.375 70.0156 226.898 69.8808 226.411 69.879C226.034 69.8604 225.659 69.9434 225.325 70.1193C224.99 70.2952 224.709 70.5576 224.511 70.879L222.511 73.879C222.229 74.3376 222.071 74.8612 222.051 75.399C222.048 75.7931 222.142 76.182 222.325 76.5309C222.508 76.8799 222.775 77.1781 223.101 77.399C225.655 79.1885 228.441 80.6217 231.381 81.659Z" fill="white"/>
<path d="M263.531 42.1193H275.531V80.5393C275.516 80.7781 275.547 81.0176 275.625 81.2441C275.702 81.4706 275.823 81.6796 275.981 81.8593C276.159 82.0211 276.367 82.1452 276.594 82.2243C276.821 82.3033 277.061 82.3357 277.301 82.3193H282.941C283.179 82.3354 283.418 82.303 283.643 82.2239C283.869 82.1448 284.075 82.0208 284.251 81.8593C284.411 81.6804 284.534 81.4717 284.613 81.2452C284.692 81.0187 284.725 80.7788 284.711 80.5393V42.1193H296.651C296.889 42.1349 297.128 42.1021 297.353 42.0231C297.578 41.944 297.785 41.8203 297.961 41.6593C298.122 41.4789 298.245 41.2685 298.324 41.0403C298.403 40.812 298.436 40.5704 298.421 40.3293V35.7093C298.45 35.4691 298.423 35.2256 298.345 34.9969C298.266 34.7682 298.137 34.5601 297.967 34.3881C297.797 34.2162 297.59 34.0847 297.363 34.0035C297.135 33.9224 296.892 33.8936 296.651 33.9193H263.531C263.291 33.8936 263.047 33.9224 262.82 34.0035C262.592 34.0847 262.385 34.2162 262.215 34.3881C262.045 34.5601 261.916 34.7682 261.837 34.9969C261.759 35.2256 261.733 35.4691 261.761 35.7093V40.3293C261.744 40.5705 261.776 40.8128 261.855 41.0414C261.934 41.27 262.059 41.4802 262.221 41.6593C262.397 41.8208 262.604 41.9448 262.829 42.0239C263.054 42.103 263.293 42.1354 263.531 42.1193Z" fill="white"/>
<path d="M329.582 74.7189L332.672 81.0189C332.857 81.4181 333.154 81.7552 333.527 81.9895C333.899 82.2237 334.332 82.3451 334.772 82.3389H340.932C341.34 82.3638 341.745 82.2511 342.082 82.0189C342.22 81.9232 342.332 81.7943 342.407 81.644C342.482 81.4937 342.518 81.3268 342.512 81.1589C342.472 80.8397 342.381 80.5291 342.242 80.2389L319.552 34.9389C319.202 34.2389 318.782 33.8789 318.302 33.8789C317.822 33.8789 317.412 34.2389 317.062 34.9389L294.382 80.2089C294.25 80.5008 294.162 80.811 294.122 81.1289C294.115 81.2968 294.152 81.4637 294.227 81.614C294.302 81.7643 294.414 81.8932 294.552 81.9889C294.884 82.2246 295.285 82.3409 295.692 82.3189H301.862C302.306 82.3457 302.747 82.2329 303.124 81.9961C303.5 81.7594 303.793 81.4107 303.962 80.9989L306.962 74.7189H329.582ZM318.302 51.5089L325.122 66.6489H311.382L318.302 51.5089Z" fill="white"/>
<path d="M387.44 82.3193C387.828 82.3457 388.215 82.2552 388.55 82.0593C388.674 81.9821 388.776 81.8744 388.846 81.7466C388.916 81.6188 388.952 81.475 388.95 81.3293C388.918 80.8705 388.706 80.443 388.36 80.1393L368.74 59.0193L386.74 36.1393C387.028 35.8366 387.193 35.437 387.2 35.0193C387.2 34.3093 386.7 33.9593 385.69 33.9593H378.48C378.071 33.9544 377.666 34.0482 377.301 34.2327C376.935 34.4172 376.62 34.687 376.38 35.0193L358.12 58.5193V35.7093C358.148 35.4719 358.122 35.2313 358.046 35.0049C357.969 34.7786 357.842 34.5723 357.676 34.4009C357.509 34.2295 357.306 34.0974 357.082 34.0141C356.858 33.9308 356.618 33.8984 356.38 33.9193H350.73C350.49 33.8936 350.247 33.9224 350.019 34.0035C349.791 34.0847 349.584 34.2162 349.414 34.3881C349.244 34.5601 349.115 34.7682 349.037 34.9969C348.958 35.2256 348.932 35.4691 348.96 35.7093V80.5393C348.946 80.7788 348.98 81.0187 349.059 81.2452C349.138 81.4717 349.261 81.6804 349.42 81.8593C349.596 82.0203 349.803 82.144 350.028 82.2231C350.254 82.3021 350.492 82.3349 350.73 82.3193H356.38C356.618 82.3349 356.857 82.3021 357.082 82.2231C357.307 82.144 357.514 82.0203 357.69 81.8593C357.85 81.6804 357.973 81.4717 358.052 81.2452C358.131 81.0187 358.164 80.7788 358.15 80.5393V60.2993L377.43 81.2993C377.698 81.6131 378.031 81.865 378.406 82.0377C378.78 82.2103 379.188 82.2996 379.6 82.2993L387.44 82.3193Z" fill="white"/>
<path d="M398.718 82.3193H404.378C404.616 82.3366 404.856 82.3047 405.081 82.2256C405.306 82.1465 405.513 82.0218 405.688 81.8593C405.85 81.6817 405.974 81.4732 406.053 81.2463C406.132 81.0195 406.165 80.779 406.148 80.5393V35.7093C406.177 35.4691 406.151 35.2256 406.072 34.9969C405.993 34.7682 405.864 34.5601 405.694 34.3881C405.524 34.2162 405.317 34.0847 405.09 34.0035C404.862 33.9224 404.619 33.8936 404.378 33.9193H398.738C398.498 33.8936 398.255 33.9224 398.027 34.0035C397.799 34.0847 397.592 34.2162 397.422 34.3881C397.252 34.5601 397.123 34.7682 397.044 34.9969C396.966 35.2256 396.94 35.4691 396.968 35.7093V80.5393C396.952 80.779 396.984 81.0195 397.063 81.2463C397.142 81.4732 397.266 81.6817 397.428 81.8593C397.601 82.0192 397.804 82.1425 398.026 82.2215C398.248 82.3006 398.483 82.3339 398.718 82.3193Z" fill="white"/>
<path d="M425.941 81.8616C426.101 81.6827 426.224 81.474 426.303 81.2475C426.382 81.0209 426.416 80.781 426.401 80.5416V53.2916L457.101 81.5316C457.711 82.1016 458.101 82.3916 458.411 82.3916C458.721 82.3916 459.001 82.1516 459.001 81.6616V35.7116C459.03 35.4714 459.004 35.2279 458.925 34.9992C458.847 34.7705 458.717 34.5624 458.547 34.3904C458.377 34.2184 458.171 34.087 457.943 34.0058C457.715 33.9246 457.472 33.8959 457.231 33.9216H451.591C451.351 33.8939 451.107 33.9213 450.878 34.0018C450.649 34.0823 450.442 34.2137 450.271 34.3861C450.101 34.5585 449.972 34.7674 449.894 34.9971C449.816 35.2267 449.791 35.471 449.821 35.7116V63.4816L419.251 34.7816C418.638 34.1616 418.178 33.8516 417.871 33.8516C417.481 33.8516 417.281 34.1016 417.281 34.5816V80.5816C417.265 80.8212 417.297 81.0617 417.376 81.2886C417.456 81.5155 417.58 81.724 417.741 81.9016C417.917 82.0631 418.124 82.1871 418.349 82.2662C418.574 82.3453 418.813 82.3777 419.052 82.3616H424.631C424.872 82.3718 425.113 82.3328 425.338 82.2468C425.563 82.1608 425.769 82.0297 425.941 81.8616Z" fill="white"/>
<path d="M512.259 73.0707C514.346 69.7551 515.585 65.9777 515.869 62.0707C515.949 60.7507 515.999 59.8707 515.999 59.4207L515.929 57.5707C515.945 57.3365 515.909 57.1017 515.825 56.8825C515.741 56.6634 515.61 56.4652 515.442 56.3016C515.274 56.138 515.072 56.0129 514.85 55.9351C514.629 55.8572 514.393 55.8284 514.159 55.8507H490.159C489.921 55.837 489.682 55.8716 489.456 55.9523C489.231 56.0331 489.025 56.1584 488.849 56.3207C488.689 56.4995 488.566 56.7082 488.488 56.9348C488.409 57.1613 488.375 57.4012 488.389 57.6407V62.4207C488.375 62.6602 488.409 62.9001 488.488 63.1266C488.566 63.3531 488.689 63.5618 488.849 63.7407C489.025 63.903 489.231 64.0283 489.456 64.109C489.682 64.1898 489.921 64.2244 490.159 64.2107H506.099C505.845 66.1353 505.09 67.9594 503.909 69.5007C502.653 71.1235 501.019 72.4144 499.149 73.2607C497.094 74.2082 494.852 74.6832 492.589 74.6507C489.629 74.69 486.711 73.9485 484.129 72.5007C481.624 71.1201 479.548 69.0751 478.129 66.5907C476.722 64.0146 475.984 61.1262 475.984 58.1907C475.984 55.2552 476.722 52.3668 478.129 49.7907C479.484 47.3432 481.465 45.3 483.869 43.8707C486.246 42.4464 488.969 41.7027 491.739 41.7207C493.997 41.7267 496.218 42.2973 498.199 43.3807C500.267 44.4708 502.105 45.9514 503.609 47.7407C503.78 47.9668 503.996 48.1541 504.244 48.2903C504.493 48.4265 504.767 48.5084 505.049 48.5307C505.423 48.521 505.787 48.4067 506.099 48.2007L510.829 45.2007C511.105 45.0791 511.343 44.8861 511.518 44.6417C511.694 44.3973 511.802 44.1104 511.829 43.8107C511.791 43.3969 511.631 43.0038 511.369 42.6807C509.039 39.7146 506.082 37.3003 502.709 35.6107C499.048 33.7832 494.988 32.9017 490.899 33.0466C486.809 33.1916 482.822 34.3585 479.299 36.4407C475.541 38.6586 472.42 41.8106 470.239 45.5907C468.018 49.405 466.864 53.7469 466.899 58.1607C466.862 62.5769 468.031 66.9195 470.279 70.7207C472.493 74.5212 475.67 77.6705 479.489 79.8507C483.226 81.9375 487.412 83.0901 491.69 83.2102C495.968 83.3304 500.212 82.4145 504.059 80.5407C507.406 78.8206 510.236 76.2428 512.259 73.0707Z" fill="white"/>
<path d="M255.382 123.092V118.472C255.41 118.232 255.384 117.988 255.306 117.759C255.227 117.531 255.098 117.323 254.928 117.151C254.758 116.979 254.551 116.847 254.323 116.766C254.096 116.685 253.852 116.656 253.612 116.682H232.242V103.682H256.582C256.82 103.698 257.059 103.665 257.284 103.586C257.509 103.507 257.716 103.383 257.892 103.222C258.055 103.043 258.179 102.832 258.258 102.604C258.337 102.375 258.369 102.133 258.352 101.892V97.2718C258.38 97.0316 258.354 96.7881 258.276 96.5594C258.197 96.3307 258.068 96.1226 257.898 95.9506C257.728 95.7787 257.521 95.6472 257.293 95.566C257.066 95.4849 256.822 95.4561 256.582 95.4818H224.832C224.591 95.4561 224.348 95.4849 224.12 95.566C223.893 95.6472 223.686 95.7787 223.516 95.9506C223.346 96.1226 223.217 96.3307 223.138 96.5594C223.06 96.7881 223.034 97.0316 223.062 97.2718V142.102C223.046 142.341 223.078 142.582 223.157 142.809C223.236 143.036 223.36 143.244 223.522 143.422C223.698 143.583 223.904 143.707 224.13 143.786C224.355 143.865 224.594 143.898 224.832 143.882H230.472C230.71 143.899 230.949 143.867 231.175 143.788C231.4 143.709 231.607 143.584 231.782 143.422C231.944 143.244 232.068 143.036 232.147 142.809C232.226 142.582 232.258 142.341 232.242 142.102V124.882H253.632C253.87 124.898 254.109 124.865 254.334 124.786C254.559 124.707 254.766 124.583 254.942 124.422C255.101 124.241 255.222 124.03 255.297 123.802C255.373 123.573 255.402 123.332 255.382 123.092Z" fill="white"/>
<path d="M280.189 96.5092C279.839 95.8092 279.429 95.4492 278.949 95.4492C278.469 95.4492 278.049 95.8092 277.699 96.5092L254.999 141.809C254.867 142.101 254.779 142.411 254.739 142.729C254.733 142.897 254.769 143.064 254.844 143.214C254.919 143.365 255.031 143.494 255.169 143.589C255.502 143.831 255.909 143.948 256.319 143.919H262.479C262.924 143.949 263.366 143.838 263.743 143.6C264.121 143.363 264.413 143.013 264.579 142.599L267.579 136.319H290.209L293.289 142.599C293.474 142.998 293.771 143.336 294.144 143.57C294.516 143.804 294.949 143.925 295.389 143.919H301.559C301.966 143.946 302.369 143.829 302.699 143.589C302.837 143.494 302.949 143.365 303.024 143.214C303.099 143.064 303.135 142.897 303.129 142.729C303.089 142.411 303.001 142.101 302.869 141.809L280.189 96.5092ZM272.059 128.249L278.949 113.109L285.769 128.249H272.059Z" fill="white"/>
<path d="M348.869 131.229L344.379 129.379C344.064 129.229 343.726 129.138 343.379 129.109C342.914 129.144 342.466 129.297 342.076 129.552C341.686 129.807 341.367 130.157 341.149 130.569C339.886 132.27 338.251 133.658 336.369 134.629C334.022 135.802 331.416 136.361 328.795 136.254C326.174 136.147 323.622 135.378 321.379 134.019C318.982 132.555 317.012 130.486 315.669 128.019C314.291 125.495 313.569 122.665 313.569 119.789C313.569 116.913 314.291 114.083 315.669 111.559C317.025 109.102 318.992 107.035 321.379 105.559C323.733 104.072 326.464 103.291 329.249 103.309C331.642 103.283 334.006 103.834 336.141 104.917C338.275 106 340.117 107.582 341.509 109.529C341.682 109.843 341.94 110.103 342.252 110.279C342.565 110.456 342.92 110.542 343.279 110.529C343.596 110.531 343.911 110.463 344.199 110.329L348.859 108.409C349.239 108.316 349.576 108.095 349.815 107.784C350.053 107.474 350.178 107.091 350.169 106.699C350.154 106.252 350.02 105.816 349.779 105.439C347.759 102.223 344.946 99.5816 341.609 97.769C337.824 95.6988 333.561 94.664 329.249 94.769C324.866 94.7341 320.557 95.8884 316.779 98.109C311.064 101.516 306.914 107.03 305.222 113.465C303.53 119.899 304.43 126.741 307.729 132.519C309.905 136.297 313.042 139.431 316.822 141.604C320.602 143.776 324.889 144.91 329.249 144.889C333.48 144.946 337.656 143.921 341.379 141.909C344.794 140.091 347.694 137.439 349.809 134.199C350.062 133.853 350.202 133.438 350.209 133.009C350.213 132.621 350.07 132.246 349.809 131.959C349.552 131.65 349.231 131.401 348.869 131.229Z" fill="white"/>
<path d="M366.12 95.5208H360.48C360.24 95.4951 359.997 95.5239 359.769 95.6051C359.541 95.6863 359.334 95.8177 359.164 95.9897C358.994 96.1617 358.865 96.3697 358.787 96.5985C358.708 96.8272 358.682 97.0707 358.71 97.3108V142.141C358.694 142.381 358.726 142.621 358.805 142.848C358.884 143.075 359.009 143.283 359.17 143.461C359.345 143.623 359.552 143.748 359.778 143.827C360.003 143.906 360.242 143.938 360.48 143.921H366.12C366.359 143.938 366.598 143.906 366.823 143.827C367.049 143.748 367.255 143.623 367.43 143.461C367.592 143.283 367.716 143.075 367.795 142.848C367.874 142.621 367.907 142.381 367.89 142.141V97.3108C367.919 97.0707 367.893 96.8272 367.814 96.5985C367.736 96.3697 367.606 96.1617 367.436 95.9897C367.266 95.8177 367.06 95.6863 366.832 95.6051C366.604 95.5239 366.361 95.4951 366.12 95.5208Z" fill="white"/>
<path d="M411.838 135.721H388.218V97.3108C388.247 97.0707 388.221 96.8272 388.142 96.5985C388.064 96.3697 387.934 96.1617 387.764 95.9897C387.594 95.8177 387.388 95.6863 387.16 95.6051C386.932 95.5239 386.689 95.4951 386.448 95.5208H380.808C380.568 95.4951 380.325 95.5239 380.097 95.6051C379.869 95.6863 379.663 95.8177 379.493 95.9897C379.322 96.1617 379.193 96.3697 379.115 96.5985C379.036 96.8272 379.01 97.0707 379.038 97.3108V142.141C379.022 142.381 379.054 142.621 379.133 142.848C379.213 143.075 379.337 143.283 379.498 143.461C379.674 143.622 379.881 143.746 380.106 143.825C380.331 143.905 380.57 143.937 380.808 143.921H411.808C412.048 143.946 412.29 143.918 412.517 143.837C412.744 143.756 412.95 143.626 413.12 143.455C413.29 143.284 413.419 143.078 413.499 142.85C413.578 142.623 413.605 142.38 413.578 142.141V137.511C413.605 137.271 413.578 137.028 413.498 136.801C413.419 136.573 413.29 136.365 413.12 136.194C412.951 136.022 412.745 135.891 412.518 135.809C412.291 135.727 412.049 135.697 411.808 135.721H411.838Z" fill="white"/>
<path d="M427.448 95.5208H421.808C421.568 95.4951 421.325 95.5239 421.097 95.6051C420.869 95.6863 420.663 95.8177 420.493 95.9897C420.322 96.1617 420.193 96.3697 420.115 96.5985C420.036 96.8272 420.01 97.0707 420.038 97.3108V142.141C420.022 142.381 420.054 142.621 420.133 142.848C420.213 143.075 420.337 143.283 420.498 143.461C420.674 143.623 420.88 143.748 421.106 143.827C421.331 143.906 421.57 143.938 421.808 143.921H427.448C427.687 143.937 427.926 143.905 428.151 143.825C428.376 143.746 428.583 143.622 428.758 143.461C428.918 143.282 429.041 143.073 429.12 142.847C429.199 142.62 429.233 142.38 429.218 142.141V97.3108C429.233 97.0698 429.2 96.8281 429.121 96.5999C429.042 96.3716 428.919 96.1612 428.758 95.9808C428.581 95.8213 428.375 95.6984 428.15 95.6195C427.925 95.5405 427.686 95.507 427.448 95.5208Z" fill="white"/>
<path d="M471.979 95.5183H438.859C438.619 95.4926 438.376 95.5214 438.148 95.6025C437.92 95.6837 437.713 95.8151 437.543 95.9871C437.373 96.1591 437.244 96.3672 437.166 96.5959C437.087 96.8246 437.061 97.0681 437.089 97.3083V101.928C437.072 102.17 437.104 102.412 437.183 102.64C437.262 102.869 437.387 103.079 437.549 103.258C437.724 103.421 437.931 103.545 438.156 103.625C438.382 103.704 438.621 103.736 438.859 103.718H450.859V142.138C450.845 142.378 450.879 142.618 450.957 142.844C451.036 143.071 451.159 143.279 451.319 143.458C451.495 143.619 451.702 143.743 451.927 143.822C452.152 143.901 452.391 143.934 452.629 143.918H458.269C458.509 143.935 458.749 143.902 458.976 143.823C459.203 143.744 459.412 143.62 459.589 143.458C459.749 143.279 459.872 143.071 459.951 142.844C460.03 142.618 460.063 142.378 460.049 142.138V103.718H471.979C472.219 103.735 472.459 103.702 472.686 103.623C472.913 103.544 473.122 103.42 473.299 103.258C473.458 103.077 473.58 102.866 473.657 102.638C473.734 102.41 473.766 102.169 473.749 101.928V97.3083C473.78 97.0677 473.755 96.8234 473.677 96.5938C473.599 96.3641 473.47 96.1552 473.3 95.9828C473.129 95.8104 472.922 95.679 472.693 95.5985C472.464 95.518 472.22 95.4906 471.979 95.5183Z" fill="white"/>
<path d="M489.101 95.5181H483.461C483.223 95.5042 482.985 95.5377 482.76 95.6167C482.535 95.6956 482.328 95.8185 482.151 95.978C481.99 96.1584 481.867 96.3688 481.788 96.5971C481.709 96.8253 481.676 97.067 481.691 97.3081V142.138C481.677 142.378 481.71 142.617 481.789 142.844C481.868 143.071 481.991 143.279 482.151 143.458C482.327 143.62 482.533 143.744 482.759 143.823C482.984 143.902 483.223 143.934 483.461 143.918H489.101C489.341 143.934 489.581 143.902 489.808 143.823C490.035 143.744 490.243 143.62 490.421 143.458C490.581 143.279 490.704 143.071 490.783 142.844C490.862 142.617 490.895 142.378 490.881 142.138V97.3081C490.91 97.0669 490.883 96.8225 490.804 96.5929C490.725 96.3634 490.595 96.1547 490.424 95.9826C490.253 95.8104 490.045 95.6792 489.816 95.5987C489.587 95.5183 489.342 95.4907 489.101 95.5181Z" fill="white"/>
<path d="M535.539 95.5181H503.799C503.558 95.4907 503.313 95.5183 503.084 95.5987C502.855 95.6792 502.647 95.8104 502.476 95.9826C502.305 96.1547 502.175 96.3634 502.096 96.5929C502.017 96.8225 501.99 97.0669 502.019 97.3081V142.138C502.005 142.378 502.038 142.617 502.117 142.844C502.196 143.071 502.319 143.279 502.479 143.458C502.657 143.62 502.865 143.744 503.092 143.823C503.319 143.902 503.559 143.934 503.799 143.918H535.539C535.779 143.934 536.019 143.902 536.246 143.823C536.473 143.744 536.681 143.62 536.859 143.458C537.019 143.279 537.142 143.071 537.221 142.844C537.3 142.617 537.333 142.378 537.319 142.138V137.508C537.333 137.269 537.3 137.029 537.221 136.802C537.142 136.576 537.019 136.367 536.859 136.188C536.682 136.025 536.474 135.899 536.247 135.819C536.02 135.738 535.779 135.704 535.539 135.718H511.139V124.018H532.589C532.827 124.035 533.067 124.004 533.292 123.924C533.517 123.845 533.724 123.721 533.899 123.558C534.062 123.379 534.186 123.169 534.265 122.94C534.344 122.712 534.376 122.469 534.359 122.228V117.608C534.387 117.368 534.361 117.124 534.283 116.896C534.204 116.667 534.075 116.459 533.905 116.287C533.735 116.115 533.528 115.983 533.301 115.902C533.073 115.821 532.83 115.792 532.589 115.818H511.139V103.718H535.539C535.779 103.734 536.019 103.702 536.246 103.623C536.473 103.544 536.681 103.42 536.859 103.258C537.02 103.078 537.143 102.867 537.222 102.639C537.301 102.411 537.334 102.169 537.319 101.928V97.3081C537.348 97.0669 537.322 96.8225 537.242 96.5929C537.163 96.3634 537.033 96.1547 536.862 95.9826C536.691 95.8104 536.483 95.6792 536.254 95.5987C536.025 95.5183 535.78 95.4907 535.539 95.5181Z" fill="white"/>
<path d="M581.132 121.64C579.53 119.72 577.465 118.24 575.132 117.34C572.55 116.411 569.894 115.705 567.192 115.23L565.692 114.96C563.282 114.48 561.362 113.96 559.912 113.57C558.538 113.152 557.258 112.473 556.142 111.57C555.629 111.179 555.216 110.673 554.937 110.093C554.657 109.513 554.518 108.874 554.532 108.23C554.504 107.434 554.722 106.648 555.157 105.981C555.592 105.313 556.222 104.796 556.962 104.5C558.731 103.697 560.659 103.3 562.602 103.34C566.82 103.384 570.947 104.573 574.542 106.78C574.928 107.042 575.385 107.181 575.852 107.18C576.214 107.207 576.577 107.134 576.901 106.97C577.225 106.807 577.498 106.558 577.692 106.25L580.252 102.74C580.518 102.379 580.656 101.939 580.642 101.49C580.65 101.121 580.563 100.757 580.387 100.432C580.212 100.108 579.955 99.8348 579.642 99.64C577.458 98.0942 575.059 96.8779 572.522 96.03C569.612 95.1145 566.572 94.6788 563.522 94.74C560.579 94.7306 557.654 95.2001 554.862 96.13C552.19 97.0012 549.816 98.6055 548.012 100.76C546.117 103.138 545.148 106.122 545.282 109.16C545.282 112.733 546.308 115.533 548.362 117.56C550.22 119.456 552.503 120.882 555.022 121.72C557.831 122.575 560.69 123.26 563.582 123.77C565.55 124.11 567.499 124.55 569.422 125.09C570.774 125.464 572.021 126.149 573.062 127.09C573.528 127.53 573.895 128.064 574.139 128.658C574.382 129.251 574.495 129.889 574.472 130.53C574.476 131.347 574.277 132.152 573.893 132.873C573.509 133.594 572.952 134.208 572.272 134.66C570.812 135.74 568.478 136.28 565.272 136.28C562.876 136.25 560.505 135.789 558.272 134.92C555.917 134.059 553.637 133.009 551.452 131.78C551.04 131.526 550.566 131.39 550.082 131.39C549.698 131.377 549.319 131.467 548.982 131.652C548.646 131.837 548.366 132.109 548.172 132.44L546.172 135.44C545.885 135.896 545.726 136.421 545.712 136.96C545.707 137.354 545.8 137.744 545.983 138.093C546.167 138.442 546.434 138.74 546.762 138.96C549.263 140.758 551.998 142.205 554.892 143.26C558.249 144.395 561.779 144.933 565.322 144.85C570.922 144.85 575.358 143.593 578.632 141.08C581.905 138.567 583.548 134.9 583.562 130.08C583.695 126.48 582.885 123.667 581.132 121.64Z" fill="white"/>
<path d="M0 24.85V36.14L118.01 17.32L185.98 42.54V32.38L119.13 0L0 24.85Z" fill="#1D1D1B"/>
<path d="M0 42.5388V54.9688L109.05 42.5388L185.98 57.5987V47.0588L112.04 25.2188L0 42.5388Z" fill="#1D1D1B"/>
<path d="M0 60.2381V73.4081L101.95 67.9481L185.98 73.4081V62.4881L103.07 50.8281L0 60.2381Z" fill="#1D1D1B"/>
<path d="M0 79.0597V90.3597L92.84 93.3697L185.98 90.3597V79.0597L94.86 76.4297L0 79.0597Z" fill="#1D1D1B"/>
<path d="M0 96.3789V106.599L83.94 119.829L185.98 107.799V96.3789L84.83 102.689L0 96.3789Z" fill="#1D1D1B"/>
<path d="M0 112.012V122.842L75.29 144.792L185.98 126.442V114.722L76.18 128.402L0 112.012Z" fill="#1D1D1B"/>
<path d="M0 126.738V136.968L67.23 170.038L185.98 144.778V133.058L68.13 152.908L0 126.738Z" fill="#1D1D1B"/>
<path d="M231.381 81.659C234.735 82.794 238.262 83.3321 241.801 83.249C247.401 83.249 251.841 81.9924 255.121 79.479C258.401 76.9657 260.041 73.299 260.041 68.479C260.041 64.9057 259.168 62.1057 257.421 60.079C255.82 58.1587 253.754 56.6787 251.421 55.779C248.841 54.8469 246.184 54.1409 243.481 53.669L241.971 53.399C239.571 52.919 237.641 52.399 236.201 52.009C234.811 51.6003 233.513 50.9244 232.381 50.019C231.869 49.6285 231.456 49.1224 231.176 48.542C230.896 47.9615 230.758 47.3232 230.771 46.679C230.743 45.8828 230.961 45.0972 231.396 44.4297C231.831 43.7621 232.462 43.245 233.201 42.949C234.971 42.1457 236.898 41.7493 238.841 41.789C243.059 41.8338 247.186 43.0227 250.781 45.229C251.169 45.4876 251.625 45.6235 252.091 45.619C252.453 45.6467 252.815 45.5758 253.139 45.4138C253.463 45.2517 253.737 45.0047 253.931 44.699L256.481 41.189C256.751 40.8292 256.892 40.3888 256.881 39.939C256.893 39.5698 256.807 39.2041 256.631 38.8791C256.455 38.5541 256.197 38.2815 255.881 38.089C253.701 36.5432 251.306 35.3268 248.771 34.479C245.861 33.5647 242.821 33.1291 239.771 33.189C236.828 33.1814 233.904 33.6508 231.111 34.579C228.483 35.47 226.153 37.0728 224.381 39.209C222.49 41.5889 221.524 44.5725 221.661 47.609C221.661 51.179 222.661 53.979 224.741 56.009C226.592 57.9048 228.868 59.331 231.381 60.169C234.192 61.005 237.051 61.6728 239.941 62.169C241.909 62.5097 243.858 62.9503 245.781 63.489C247.132 63.8665 248.378 64.551 249.421 65.489C249.896 65.9407 250.266 66.4907 250.506 67.1004C250.747 67.7101 250.851 68.3649 250.811 69.019C250.809 69.8347 250.608 70.6374 250.224 71.3573C249.841 72.0772 249.287 72.6923 248.611 73.149C247.141 74.229 244.821 74.769 241.611 74.769C239.215 74.7387 236.844 74.278 234.611 73.409C232.256 72.5503 229.975 71.5002 227.791 70.269C227.375 70.0156 226.898 69.8808 226.411 69.879C226.034 69.8604 225.659 69.9434 225.325 70.1193C224.99 70.2952 224.709 70.5576 224.511 70.879L222.511 73.879C222.229 74.3376 222.071 74.8612 222.051 75.399C222.048 75.7931 222.142 76.182 222.325 76.5309C222.508 76.8799 222.775 77.1781 223.101 77.399C225.655 79.1885 228.441 80.6217 231.381 81.659Z" fill="#1D1D1B"/>
<path d="M263.531 42.1193H275.531V80.5393C275.516 80.7781 275.547 81.0176 275.625 81.2441C275.702 81.4706 275.823 81.6796 275.981 81.8593C276.159 82.0211 276.367 82.1452 276.594 82.2243C276.821 82.3033 277.061 82.3357 277.301 82.3193H282.941C283.179 82.3354 283.418 82.303 283.643 82.2239C283.869 82.1448 284.075 82.0208 284.251 81.8593C284.411 81.6804 284.534 81.4717 284.613 81.2452C284.692 81.0187 284.725 80.7788 284.711 80.5393V42.1193H296.651C296.889 42.1349 297.128 42.1021 297.353 42.0231C297.578 41.944 297.785 41.8203 297.961 41.6593C298.122 41.4789 298.245 41.2685 298.324 41.0403C298.403 40.812 298.436 40.5704 298.421 40.3293V35.7093C298.45 35.4691 298.423 35.2256 298.345 34.9969C298.266 34.7682 298.137 34.5601 297.967 34.3881C297.797 34.2162 297.59 34.0847 297.363 34.0035C297.135 33.9224 296.892 33.8936 296.651 33.9193H263.531C263.291 33.8936 263.047 33.9224 262.82 34.0035C262.592 34.0847 262.385 34.2162 262.215 34.3881C262.045 34.5601 261.916 34.7682 261.837 34.9969C261.759 35.2256 261.733 35.4691 261.761 35.7093V40.3293C261.744 40.5705 261.776 40.8128 261.855 41.0414C261.934 41.27 262.059 41.4802 262.221 41.6593C262.397 41.8208 262.604 41.9448 262.829 42.0239C263.054 42.103 263.293 42.1354 263.531 42.1193Z" fill="#1D1D1B"/>
<path d="M329.582 74.7189L332.672 81.0189C332.857 81.4181 333.154 81.7552 333.527 81.9895C333.899 82.2237 334.332 82.3451 334.772 82.3389H340.932C341.34 82.3638 341.745 82.2511 342.082 82.0189C342.22 81.9232 342.332 81.7943 342.407 81.644C342.482 81.4937 342.518 81.3268 342.512 81.1589C342.472 80.8397 342.381 80.5291 342.242 80.2389L319.552 34.9389C319.202 34.2389 318.782 33.8789 318.302 33.8789C317.822 33.8789 317.412 34.2389 317.062 34.9389L294.382 80.2089C294.25 80.5008 294.162 80.811 294.122 81.1289C294.115 81.2968 294.152 81.4637 294.227 81.614C294.302 81.7643 294.414 81.8932 294.552 81.9889C294.884 82.2246 295.285 82.3409 295.692 82.3189H301.862C302.306 82.3457 302.747 82.2329 303.124 81.9961C303.5 81.7594 303.793 81.4107 303.962 80.9989L306.962 74.7189H329.582ZM318.302 51.5089L325.122 66.6489H311.382L318.302 51.5089Z" fill="#1D1D1B"/>
<path d="M387.44 82.3193C387.828 82.3457 388.215 82.2552 388.55 82.0593C388.674 81.9821 388.776 81.8744 388.846 81.7466C388.916 81.6188 388.952 81.475 388.95 81.3293C388.918 80.8705 388.706 80.443 388.36 80.1393L368.74 59.0193L386.74 36.1393C387.028 35.8366 387.193 35.437 387.2 35.0193C387.2 34.3093 386.7 33.9593 385.69 33.9593H378.48C378.071 33.9544 377.666 34.0482 377.301 34.2327C376.935 34.4172 376.62 34.687 376.38 35.0193L358.12 58.5193V35.7093C358.148 35.4719 358.122 35.2313 358.046 35.0049C357.969 34.7786 357.842 34.5723 357.676 34.4009C357.509 34.2295 357.306 34.0974 357.082 34.0141C356.858 33.9308 356.618 33.8984 356.38 33.9193H350.73C350.49 33.8936 350.247 33.9224 350.019 34.0035C349.791 34.0847 349.584 34.2162 349.414 34.3881C349.244 34.5601 349.115 34.7682 349.037 34.9969C348.958 35.2256 348.932 35.4691 348.96 35.7093V80.5393C348.946 80.7788 348.98 81.0187 349.059 81.2452C349.138 81.4717 349.261 81.6804 349.42 81.8593C349.596 82.0203 349.803 82.144 350.028 82.2231C350.254 82.3021 350.492 82.3349 350.73 82.3193H356.38C356.618 82.3349 356.857 82.3021 357.082 82.2231C357.307 82.144 357.514 82.0203 357.69 81.8593C357.85 81.6804 357.973 81.4717 358.052 81.2452C358.131 81.0187 358.164 80.7788 358.15 80.5393V60.2993L377.43 81.2993C377.698 81.6131 378.031 81.865 378.406 82.0377C378.78 82.2103 379.188 82.2996 379.6 82.2993L387.44 82.3193Z" fill="#1D1D1B"/>
<path d="M398.718 82.3193H404.378C404.616 82.3366 404.856 82.3047 405.081 82.2256C405.306 82.1465 405.513 82.0218 405.688 81.8593C405.85 81.6817 405.974 81.4732 406.053 81.2463C406.132 81.0195 406.165 80.779 406.148 80.5393V35.7093C406.177 35.4691 406.151 35.2256 406.072 34.9969C405.993 34.7682 405.864 34.5601 405.694 34.3881C405.524 34.2162 405.317 34.0847 405.09 34.0035C404.862 33.9224 404.619 33.8936 404.378 33.9193H398.738C398.498 33.8936 398.255 33.9224 398.027 34.0035C397.799 34.0847 397.592 34.2162 397.422 34.3881C397.252 34.5601 397.123 34.7682 397.044 34.9969C396.966 35.2256 396.94 35.4691 396.968 35.7093V80.5393C396.952 80.779 396.984 81.0195 397.063 81.2463C397.142 81.4732 397.266 81.6817 397.428 81.8593C397.601 82.0192 397.804 82.1425 398.026 82.2215C398.248 82.3006 398.483 82.3339 398.718 82.3193Z" fill="#1D1D1B"/>
<path d="M425.941 81.8616C426.101 81.6827 426.224 81.474 426.303 81.2475C426.382 81.0209 426.416 80.781 426.401 80.5416V53.2916L457.101 81.5316C457.711 82.1016 458.101 82.3916 458.411 82.3916C458.721 82.3916 459.001 82.1516 459.001 81.6616V35.7116C459.03 35.4714 459.004 35.2279 458.925 34.9992C458.847 34.7705 458.717 34.5624 458.547 34.3904C458.377 34.2184 458.171 34.087 457.943 34.0058C457.715 33.9246 457.472 33.8959 457.231 33.9216H451.591C451.351 33.8939 451.107 33.9213 450.878 34.0018C450.649 34.0823 450.442 34.2137 450.271 34.3861C450.101 34.5585 449.972 34.7674 449.894 34.9971C449.816 35.2267 449.791 35.471 449.821 35.7116V63.4816L419.251 34.7816C418.638 34.1616 418.178 33.8516 417.871 33.8516C417.481 33.8516 417.281 34.1016 417.281 34.5816V80.5816C417.265 80.8212 417.297 81.0617 417.376 81.2886C417.456 81.5155 417.58 81.724 417.741 81.9016C417.917 82.0631 418.124 82.1871 418.349 82.2662C418.574 82.3453 418.813 82.3777 419.052 82.3616H424.631C424.872 82.3718 425.113 82.3328 425.338 82.2468C425.563 82.1608 425.769 82.0297 425.941 81.8616Z" fill="#1D1D1B"/>
<path d="M512.259 73.0707C514.346 69.7551 515.585 65.9777 515.869 62.0707C515.949 60.7507 515.999 59.8707 515.999 59.4207L515.929 57.5707C515.945 57.3365 515.909 57.1017 515.825 56.8825C515.741 56.6634 515.61 56.4652 515.442 56.3016C515.274 56.138 515.072 56.0129 514.85 55.9351C514.629 55.8572 514.393 55.8284 514.159 55.8507H490.159C489.921 55.837 489.682 55.8716 489.456 55.9523C489.231 56.0331 489.025 56.1584 488.849 56.3207C488.689 56.4995 488.566 56.7082 488.488 56.9348C488.409 57.1613 488.375 57.4012 488.389 57.6407V62.4207C488.375 62.6602 488.409 62.9001 488.488 63.1266C488.566 63.3531 488.689 63.5618 488.849 63.7407C489.025 63.903 489.231 64.0283 489.456 64.109C489.682 64.1898 489.921 64.2244 490.159 64.2107H506.099C505.845 66.1353 505.09 67.9594 503.909 69.5007C502.653 71.1235 501.019 72.4144 499.149 73.2607C497.094 74.2082 494.852 74.6832 492.589 74.6507C489.629 74.69 486.711 73.9485 484.129 72.5007C481.624 71.1201 479.548 69.0751 478.129 66.5907C476.722 64.0146 475.984 61.1262 475.984 58.1907C475.984 55.2552 476.722 52.3668 478.129 49.7907C479.484 47.3432 481.465 45.3 483.869 43.8707C486.246 42.4464 488.969 41.7027 491.739 41.7207C493.997 41.7267 496.218 42.2973 498.199 43.3807C500.267 44.4708 502.105 45.9514 503.609 47.7407C503.78 47.9668 503.996 48.1541 504.244 48.2903C504.493 48.4265 504.767 48.5084 505.049 48.5307C505.423 48.521 505.787 48.4067 506.099 48.2007L510.829 45.2007C511.105 45.0791 511.343 44.8861 511.518 44.6417C511.694 44.3973 511.802 44.1104 511.829 43.8107C511.791 43.3969 511.631 43.0038 511.369 42.6807C509.039 39.7146 506.082 37.3003 502.709 35.6107C499.048 33.7832 494.988 32.9017 490.899 33.0466C486.809 33.1916 482.822 34.3585 479.299 36.4407C475.541 38.6586 472.42 41.8106 470.239 45.5907C468.018 49.405 466.864 53.7469 466.899 58.1607C466.862 62.5769 468.031 66.9195 470.279 70.7207C472.493 74.5212 475.67 77.6705 479.489 79.8507C483.226 81.9375 487.412 83.0901 491.69 83.2102C495.968 83.3304 500.212 82.4145 504.059 80.5407C507.406 78.8206 510.236 76.2428 512.259 73.0707Z" fill="#1D1D1B"/>
<path d="M255.382 123.092V118.472C255.41 118.232 255.384 117.988 255.306 117.759C255.227 117.531 255.098 117.323 254.928 117.151C254.758 116.979 254.551 116.847 254.323 116.766C254.096 116.685 253.852 116.656 253.612 116.682H232.242V103.682H256.582C256.82 103.698 257.059 103.665 257.284 103.586C257.509 103.507 257.716 103.383 257.892 103.222C258.055 103.043 258.179 102.832 258.258 102.604C258.337 102.375 258.369 102.133 258.352 101.892V97.2718C258.38 97.0316 258.354 96.7881 258.276 96.5594C258.197 96.3307 258.068 96.1226 257.898 95.9506C257.728 95.7787 257.521 95.6472 257.293 95.566C257.066 95.4849 256.822 95.4561 256.582 95.4818H224.832C224.591 95.4561 224.348 95.4849 224.12 95.566C223.893 95.6472 223.686 95.7787 223.516 95.9506C223.346 96.1226 223.217 96.3307 223.138 96.5594C223.06 96.7881 223.034 97.0316 223.062 97.2718V142.102C223.046 142.341 223.078 142.582 223.157 142.809C223.236 143.036 223.36 143.244 223.522 143.422C223.698 143.583 223.904 143.707 224.13 143.786C224.355 143.865 224.594 143.898 224.832 143.882H230.472C230.71 143.899 230.949 143.867 231.175 143.788C231.4 143.709 231.607 143.584 231.782 143.422C231.944 143.244 232.068 143.036 232.147 142.809C232.226 142.582 232.258 142.341 232.242 142.102V124.882H253.632C253.87 124.898 254.109 124.865 254.334 124.786C254.559 124.707 254.766 124.583 254.942 124.422C255.101 124.241 255.222 124.03 255.297 123.802C255.373 123.573 255.402 123.332 255.382 123.092Z" fill="#1D1D1B"/>
<path d="M280.189 96.5092C279.839 95.8092 279.429 95.4492 278.949 95.4492C278.469 95.4492 278.049 95.8092 277.699 96.5092L254.999 141.809C254.867 142.101 254.779 142.411 254.739 142.729C254.733 142.897 254.769 143.064 254.844 143.214C254.919 143.365 255.031 143.494 255.169 143.589C255.502 143.831 255.909 143.948 256.319 143.919H262.479C262.924 143.949 263.366 143.838 263.743 143.6C264.121 143.363 264.413 143.013 264.579 142.599L267.579 136.319H290.209L293.289 142.599C293.474 142.998 293.771 143.336 294.144 143.57C294.516 143.804 294.949 143.925 295.389 143.919H301.559C301.966 143.946 302.369 143.829 302.699 143.589C302.837 143.494 302.949 143.365 303.024 143.214C303.099 143.064 303.135 142.897 303.129 142.729C303.089 142.411 303.001 142.101 302.869 141.809L280.189 96.5092ZM272.059 128.249L278.949 113.109L285.769 128.249H272.059Z" fill="#1D1D1B"/>
<path d="M348.869 131.229L344.379 129.379C344.064 129.229 343.726 129.138 343.379 129.109C342.914 129.144 342.466 129.297 342.076 129.552C341.686 129.807 341.367 130.157 341.149 130.569C339.886 132.27 338.251 133.658 336.369 134.629C334.022 135.802 331.416 136.361 328.795 136.254C326.174 136.147 323.622 135.378 321.379 134.019C318.982 132.555 317.012 130.486 315.669 128.019C314.291 125.495 313.569 122.665 313.569 119.789C313.569 116.913 314.291 114.083 315.669 111.559C317.025 109.102 318.992 107.035 321.379 105.559C323.733 104.072 326.464 103.291 329.249 103.309C331.642 103.283 334.006 103.834 336.141 104.917C338.275 106 340.117 107.582 341.509 109.529C341.682 109.843 341.94 110.103 342.252 110.279C342.565 110.456 342.92 110.542 343.279 110.529C343.596 110.531 343.911 110.463 344.199 110.329L348.859 108.409C349.239 108.316 349.576 108.095 349.815 107.784C350.053 107.474 350.178 107.091 350.169 106.699C350.154 106.252 350.02 105.816 349.779 105.439C347.759 102.223 344.946 99.5816 341.609 97.769C337.824 95.6988 333.561 94.664 329.249 94.769C324.866 94.7341 320.557 95.8884 316.779 98.109C311.064 101.516 306.914 107.03 305.222 113.465C303.53 119.899 304.43 126.741 307.729 132.519C309.905 136.297 313.042 139.431 316.822 141.604C320.602 143.776 324.889 144.91 329.249 144.889C333.48 144.946 337.656 143.921 341.379 141.909C344.794 140.091 347.694 137.439 349.809 134.199C350.062 133.853 350.202 133.438 350.209 133.009C350.213 132.621 350.07 132.246 349.809 131.959C349.552 131.65 349.231 131.401 348.869 131.229Z" fill="#1D1D1B"/>
<path d="M366.12 95.5208H360.48C360.24 95.4951 359.997 95.5239 359.769 95.6051C359.541 95.6863 359.334 95.8177 359.164 95.9897C358.994 96.1617 358.865 96.3697 358.787 96.5985C358.708 96.8272 358.682 97.0707 358.71 97.3108V142.141C358.694 142.381 358.726 142.621 358.805 142.848C358.884 143.075 359.009 143.283 359.17 143.461C359.345 143.623 359.552 143.748 359.778 143.827C360.003 143.906 360.242 143.938 360.48 143.921H366.12C366.359 143.938 366.598 143.906 366.823 143.827C367.049 143.748 367.255 143.623 367.43 143.461C367.592 143.283 367.716 143.075 367.795 142.848C367.874 142.621 367.907 142.381 367.89 142.141V97.3108C367.919 97.0707 367.893 96.8272 367.814 96.5985C367.736 96.3697 367.606 96.1617 367.436 95.9897C367.266 95.8177 367.06 95.6863 366.832 95.6051C366.604 95.5239 366.361 95.4951 366.12 95.5208Z" fill="#1D1D1B"/>
<path d="M411.838 135.721H388.218V97.3108C388.247 97.0707 388.221 96.8272 388.142 96.5985C388.064 96.3697 387.934 96.1617 387.764 95.9897C387.594 95.8177 387.388 95.6863 387.16 95.6051C386.932 95.5239 386.689 95.4951 386.448 95.5208H380.808C380.568 95.4951 380.325 95.5239 380.097 95.6051C379.869 95.6863 379.663 95.8177 379.493 95.9897C379.322 96.1617 379.193 96.3697 379.115 96.5985C379.036 96.8272 379.01 97.0707 379.038 97.3108V142.141C379.022 142.381 379.054 142.621 379.133 142.848C379.213 143.075 379.337 143.283 379.498 143.461C379.674 143.622 379.881 143.746 380.106 143.825C380.331 143.905 380.57 143.937 380.808 143.921H411.808C412.048 143.946 412.29 143.918 412.517 143.837C412.744 143.756 412.95 143.626 413.12 143.455C413.29 143.284 413.419 143.078 413.499 142.85C413.578 142.623 413.605 142.38 413.578 142.141V137.511C413.605 137.271 413.578 137.028 413.498 136.801C413.419 136.573 413.29 136.365 413.12 136.194C412.951 136.022 412.745 135.891 412.518 135.809C412.291 135.727 412.049 135.697 411.808 135.721H411.838Z" fill="#1D1D1B"/>
<path d="M427.448 95.5208H421.808C421.568 95.4951 421.325 95.5239 421.097 95.6051C420.869 95.6863 420.663 95.8177 420.493 95.9897C420.322 96.1617 420.193 96.3697 420.115 96.5985C420.036 96.8272 420.01 97.0707 420.038 97.3108V142.141C420.022 142.381 420.054 142.621 420.133 142.848C420.213 143.075 420.337 143.283 420.498 143.461C420.674 143.623 420.88 143.748 421.106 143.827C421.331 143.906 421.57 143.938 421.808 143.921H427.448C427.687 143.937 427.926 143.905 428.151 143.825C428.376 143.746 428.583 143.622 428.758 143.461C428.918 143.282 429.041 143.073 429.12 142.847C429.199 142.62 429.233 142.38 429.218 142.141V97.3108C429.233 97.0698 429.2 96.8281 429.121 96.5999C429.042 96.3716 428.919 96.1612 428.758 95.9808C428.581 95.8213 428.375 95.6984 428.15 95.6195C427.925 95.5405 427.686 95.507 427.448 95.5208Z" fill="#1D1D1B"/>
<path d="M471.979 95.5183H438.859C438.619 95.4926 438.376 95.5214 438.148 95.6025C437.92 95.6837 437.713 95.8151 437.543 95.9871C437.373 96.1591 437.244 96.3672 437.166 96.5959C437.087 96.8246 437.061 97.0681 437.089 97.3083V101.928C437.072 102.17 437.104 102.412 437.183 102.64C437.262 102.869 437.387 103.079 437.549 103.258C437.724 103.421 437.931 103.545 438.156 103.625C438.382 103.704 438.621 103.736 438.859 103.718H450.859V142.138C450.845 142.378 450.879 142.618 450.957 142.844C451.036 143.071 451.159 143.279 451.319 143.458C451.495 143.619 451.702 143.743 451.927 143.822C452.152 143.901 452.391 143.934 452.629 143.918H458.269C458.509 143.935 458.749 143.902 458.976 143.823C459.203 143.744 459.412 143.62 459.589 143.458C459.749 143.279 459.872 143.071 459.951 142.844C460.03 142.618 460.063 142.378 460.049 142.138V103.718H471.979C472.219 103.735 472.459 103.702 472.686 103.623C472.913 103.544 473.122 103.42 473.299 103.258C473.458 103.077 473.58 102.866 473.657 102.638C473.734 102.41 473.766 102.169 473.749 101.928V97.3083C473.78 97.0677 473.755 96.8234 473.677 96.5938C473.599 96.3641 473.47 96.1552 473.3 95.9828C473.129 95.8104 472.922 95.679 472.693 95.5985C472.464 95.518 472.22 95.4906 471.979 95.5183Z" fill="#1D1D1B"/>
<path d="M489.101 95.5181H483.461C483.223 95.5042 482.985 95.5377 482.76 95.6167C482.535 95.6956 482.328 95.8185 482.151 95.978C481.99 96.1584 481.867 96.3688 481.788 96.5971C481.709 96.8253 481.676 97.067 481.691 97.3081V142.138C481.677 142.378 481.71 142.617 481.789 142.844C481.868 143.071 481.991 143.279 482.151 143.458C482.327 143.62 482.533 143.744 482.759 143.823C482.984 143.902 483.223 143.934 483.461 143.918H489.101C489.341 143.934 489.581 143.902 489.808 143.823C490.035 143.744 490.243 143.62 490.421 143.458C490.581 143.279 490.704 143.071 490.783 142.844C490.862 142.617 490.895 142.378 490.881 142.138V97.3081C490.91 97.0669 490.883 96.8225 490.804 96.5929C490.725 96.3634 490.595 96.1547 490.424 95.9826C490.253 95.8104 490.045 95.6792 489.816 95.5987C489.587 95.5183 489.342 95.4907 489.101 95.5181Z" fill="#1D1D1B"/>
<path d="M535.539 95.5181H503.799C503.558 95.4907 503.313 95.5183 503.084 95.5987C502.855 95.6792 502.647 95.8104 502.476 95.9826C502.305 96.1547 502.175 96.3634 502.096 96.5929C502.017 96.8225 501.99 97.0669 502.019 97.3081V142.138C502.005 142.378 502.038 142.617 502.117 142.844C502.196 143.071 502.319 143.279 502.479 143.458C502.657 143.62 502.865 143.744 503.092 143.823C503.319 143.902 503.559 143.934 503.799 143.918H535.539C535.779 143.934 536.019 143.902 536.246 143.823C536.473 143.744 536.681 143.62 536.859 143.458C537.019 143.279 537.142 143.071 537.221 142.844C537.3 142.617 537.333 142.378 537.319 142.138V137.508C537.333 137.269 537.3 137.029 537.221 136.802C537.142 136.576 537.019 136.367 536.859 136.188C536.682 136.025 536.474 135.899 536.247 135.819C536.02 135.738 535.779 135.704 535.539 135.718H511.139V124.018H532.589C532.827 124.035 533.067 124.004 533.292 123.924C533.517 123.845 533.724 123.721 533.899 123.558C534.062 123.379 534.186 123.169 534.265 122.94C534.344 122.712 534.376 122.469 534.359 122.228V117.608C534.387 117.368 534.361 117.124 534.283 116.896C534.204 116.667 534.075 116.459 533.905 116.287C533.735 116.115 533.528 115.983 533.301 115.902C533.073 115.821 532.83 115.792 532.589 115.818H511.139V103.718H535.539C535.779 103.734 536.019 103.702 536.246 103.623C536.473 103.544 536.681 103.42 536.859 103.258C537.02 103.078 537.143 102.867 537.222 102.639C537.301 102.411 537.334 102.169 537.319 101.928V97.3081C537.348 97.0669 537.322 96.8225 537.242 96.5929C537.163 96.3634 537.033 96.1547 536.862 95.9826C536.691 95.8104 536.483 95.6792 536.254 95.5987C536.025 95.5183 535.78 95.4907 535.539 95.5181Z" fill="#1D1D1B"/>
<path d="M581.132 121.64C579.53 119.72 577.465 118.24 575.132 117.34C572.55 116.411 569.894 115.705 567.192 115.23L565.692 114.96C563.282 114.48 561.362 113.96 559.912 113.57C558.538 113.152 557.258 112.473 556.142 111.57C555.629 111.179 555.216 110.673 554.937 110.093C554.657 109.513 554.518 108.874 554.532 108.23C554.504 107.434 554.722 106.648 555.157 105.981C555.592 105.313 556.222 104.796 556.962 104.5C558.731 103.697 560.659 103.3 562.602 103.34C566.82 103.384 570.947 104.573 574.542 106.78C574.928 107.042 575.385 107.181 575.852 107.18C576.214 107.207 576.577 107.134 576.901 106.97C577.225 106.807 577.498 106.558 577.692 106.25L580.252 102.74C580.518 102.379 580.656 101.939 580.642 101.49C580.65 101.121 580.563 100.757 580.387 100.432C580.212 100.108 579.955 99.8348 579.642 99.64C577.458 98.0942 575.059 96.8779 572.522 96.03C569.612 95.1145 566.572 94.6788 563.522 94.74C560.579 94.7306 557.654 95.2001 554.862 96.13C552.19 97.0012 549.816 98.6055 548.012 100.76C546.117 103.138 545.148 106.122 545.282 109.16C545.282 112.733 546.308 115.533 548.362 117.56C550.22 119.456 552.503 120.882 555.022 121.72C557.831 122.575 560.69 123.26 563.582 123.77C565.55 124.11 567.499 124.55 569.422 125.09C570.774 125.464 572.021 126.149 573.062 127.09C573.528 127.53 573.895 128.064 574.139 128.658C574.382 129.251 574.495 129.889 574.472 130.53C574.476 131.347 574.277 132.152 573.893 132.873C573.509 133.594 572.952 134.208 572.272 134.66C570.812 135.74 568.478 136.28 565.272 136.28C562.876 136.25 560.505 135.789 558.272 134.92C555.917 134.059 553.637 133.009 551.452 131.78C551.04 131.526 550.566 131.39 550.082 131.39C549.698 131.377 549.319 131.467 548.982 131.652C548.646 131.837 548.366 132.109 548.172 132.44L546.172 135.44C545.885 135.896 545.726 136.421 545.712 136.96C545.707 137.354 545.8 137.744 545.983 138.093C546.167 138.442 546.434 138.74 546.762 138.96C549.263 140.758 551.998 142.205 554.892 143.26C558.249 144.395 561.779 144.933 565.322 144.85C570.922 144.85 575.358 143.593 578.632 141.08C581.905 138.567 583.548 134.9 583.562 130.08C583.695 126.48 582.885 123.667 581.132 121.64Z" fill="#1D1D1B"/>
<path d="M0 24.85V36.14L118.01 17.32L185.98 42.54V32.38L119.13 0L0 24.85Z" fill="url(#paint0_linear_2072_36)"/>
<path d="M0 42.5388V54.9688L109.05 42.5388L185.98 57.5987V47.0588L112.04 25.2188L0 42.5388Z" fill="url(#paint1_linear_2072_36)"/>
<path d="M0 60.2381V73.4081L101.95 67.9481L185.98 73.4081V62.4881L103.07 50.8281L0 60.2381Z" fill="url(#paint2_linear_2072_36)"/>
<path d="M0 79.0597V90.3597L92.84 93.3697L185.98 90.3597V79.0597L94.86 76.4297L0 79.0597Z" fill="url(#paint3_linear_2072_36)"/>
<path d="M0 96.3789V106.599L83.94 119.829L185.98 107.799V96.3789L84.83 102.689L0 96.3789Z" fill="url(#paint4_linear_2072_36)"/>
<path d="M0 112.012V122.842L75.29 144.792L185.98 126.442V114.722L76.18 128.402L0 112.012Z" fill="url(#paint5_linear_2072_36)"/>
<path d="M0 126.738V136.968L67.23 170.038L185.98 144.778V133.058L68.13 152.908L0 126.738Z" fill="url(#paint6_linear_2072_36)"/>
<path d="M231.381 81.659C234.735 82.794 238.262 83.3321 241.801 83.249C247.401 83.249 251.841 81.9924 255.121 79.479C258.401 76.9657 260.041 73.299 260.041 68.479C260.041 64.9057 259.168 62.1057 257.421 60.079C255.82 58.1587 253.754 56.6787 251.421 55.779C248.841 54.8469 246.184 54.1409 243.481 53.669L241.971 53.399C239.571 52.919 237.641 52.399 236.201 52.009C234.811 51.6003 233.513 50.9244 232.381 50.019C231.869 49.6285 231.456 49.1224 231.176 48.542C230.896 47.9615 230.758 47.3232 230.771 46.679C230.743 45.8828 230.961 45.0972 231.396 44.4297C231.831 43.7621 232.462 43.245 233.201 42.949C234.971 42.1457 236.898 41.7493 238.841 41.789C243.059 41.8338 247.186 43.0227 250.781 45.229C251.169 45.4876 251.625 45.6235 252.091 45.619C252.453 45.6467 252.815 45.5758 253.139 45.4138C253.463 45.2517 253.737 45.0047 253.931 44.699L256.481 41.189C256.751 40.8292 256.892 40.3888 256.881 39.939C256.893 39.5698 256.807 39.2041 256.631 38.8791C256.455 38.5541 256.197 38.2815 255.881 38.089C253.701 36.5432 251.306 35.3268 248.771 34.479C245.861 33.5647 242.821 33.1291 239.771 33.189C236.828 33.1814 233.904 33.6508 231.111 34.579C228.483 35.47 226.153 37.0728 224.381 39.209C222.49 41.5889 221.524 44.5725 221.661 47.609C221.661 51.179 222.661 53.979 224.741 56.009C226.592 57.9048 228.868 59.331 231.381 60.169C234.192 61.005 237.051 61.6728 239.941 62.169C241.909 62.5097 243.858 62.9503 245.781 63.489C247.132 63.8665 248.378 64.551 249.421 65.489C249.896 65.9407 250.266 66.4907 250.506 67.1004C250.747 67.7101 250.851 68.3649 250.811 69.019C250.809 69.8347 250.608 70.6374 250.224 71.3573C249.841 72.0772 249.287 72.6923 248.611 73.149C247.141 74.229 244.821 74.769 241.611 74.769C239.215 74.7387 236.844 74.278 234.611 73.409C232.256 72.5503 229.975 71.5002 227.791 70.269C227.375 70.0156 226.898 69.8808 226.411 69.879C226.034 69.8604 225.659 69.9434 225.325 70.1193C224.99 70.2952 224.709 70.5576 224.511 70.879L222.511 73.879C222.229 74.3376 222.071 74.8612 222.051 75.399C222.048 75.7931 222.142 76.182 222.325 76.5309C222.508 76.8799 222.775 77.1781 223.101 77.399C225.655 79.1885 228.441 80.6217 231.381 81.659Z" fill="url(#paint7_linear_2072_36)"/>
<path d="M263.531 42.1193H275.531V80.5393C275.516 80.7781 275.547 81.0176 275.625 81.2441C275.702 81.4706 275.823 81.6796 275.981 81.8593C276.159 82.0211 276.367 82.1452 276.594 82.2243C276.821 82.3033 277.061 82.3357 277.301 82.3193H282.941C283.179 82.3354 283.418 82.303 283.643 82.2239C283.869 82.1448 284.075 82.0208 284.251 81.8593C284.411 81.6804 284.534 81.4717 284.613 81.2452C284.692 81.0187 284.725 80.7788 284.711 80.5393V42.1193H296.651C296.889 42.1349 297.128 42.1021 297.353 42.0231C297.578 41.944 297.785 41.8203 297.961 41.6593C298.122 41.4789 298.245 41.2685 298.324 41.0403C298.403 40.812 298.436 40.5704 298.421 40.3293V35.7093C298.45 35.4691 298.423 35.2256 298.345 34.9969C298.266 34.7682 298.137 34.5601 297.967 34.3881C297.797 34.2162 297.59 34.0847 297.363 34.0035C297.135 33.9224 296.892 33.8936 296.651 33.9193H263.531C263.291 33.8936 263.047 33.9224 262.82 34.0035C262.592 34.0847 262.385 34.2162 262.215 34.3881C262.045 34.5601 261.916 34.7682 261.837 34.9969C261.759 35.2256 261.733 35.4691 261.761 35.7093V40.3293C261.744 40.5705 261.776 40.8128 261.855 41.0414C261.934 41.27 262.059 41.4802 262.221 41.6593C262.397 41.8208 262.604 41.9448 262.829 42.0239C263.054 42.103 263.293 42.1354 263.531 42.1193Z" fill="url(#paint8_linear_2072_36)"/>
<path d="M329.582 74.7189L332.672 81.0189C332.857 81.4181 333.154 81.7552 333.527 81.9895C333.899 82.2237 334.332 82.3451 334.772 82.3389H340.932C341.34 82.3638 341.745 82.2511 342.082 82.0189C342.22 81.9232 342.332 81.7943 342.407 81.644C342.482 81.4937 342.518 81.3268 342.512 81.1589C342.472 80.8397 342.381 80.5291 342.242 80.2389L319.552 34.9389C319.202 34.2389 318.782 33.8789 318.302 33.8789C317.822 33.8789 317.412 34.2389 317.062 34.9389L294.382 80.2089C294.25 80.5008 294.162 80.811 294.122 81.1289C294.115 81.2968 294.152 81.4637 294.227 81.614C294.302 81.7643 294.414 81.8932 294.552 81.9889C294.884 82.2246 295.285 82.3409 295.692 82.3189H301.862C302.306 82.3457 302.747 82.2329 303.124 81.9961C303.5 81.7594 303.793 81.4107 303.962 80.9989L306.962 74.7189H329.582ZM318.302 51.5089L325.122 66.6489H311.382L318.302 51.5089Z" fill="url(#paint9_linear_2072_36)"/>
<path d="M387.44 82.3193C387.828 82.3457 388.215 82.2552 388.55 82.0593C388.674 81.9821 388.776 81.8744 388.846 81.7466C388.916 81.6188 388.952 81.475 388.95 81.3293C388.918 80.8705 388.706 80.443 388.36 80.1393L368.74 59.0193L386.74 36.1393C387.028 35.8366 387.193 35.437 387.2 35.0193C387.2 34.3093 386.7 33.9593 385.69 33.9593H378.48C378.071 33.9544 377.666 34.0482 377.301 34.2327C376.935 34.4172 376.62 34.687 376.38 35.0193L358.12 58.5193V35.7093C358.148 35.4719 358.122 35.2313 358.046 35.0049C357.969 34.7786 357.842 34.5723 357.676 34.4009C357.509 34.2295 357.306 34.0974 357.082 34.0141C356.858 33.9308 356.618 33.8984 356.38 33.9193H350.73C350.49 33.8936 350.247 33.9224 350.019 34.0035C349.791 34.0847 349.584 34.2162 349.414 34.3881C349.244 34.5601 349.115 34.7682 349.037 34.9969C348.958 35.2256 348.932 35.4691 348.96 35.7093V80.5393C348.946 80.7788 348.98 81.0187 349.059 81.2452C349.138 81.4717 349.261 81.6804 349.42 81.8593C349.596 82.0203 349.803 82.144 350.028 82.2231C350.254 82.3021 350.492 82.3349 350.73 82.3193H356.38C356.618 82.3349 356.857 82.3021 357.082 82.2231C357.307 82.144 357.514 82.0203 357.69 81.8593C357.85 81.6804 357.973 81.4717 358.052 81.2452C358.131 81.0187 358.164 80.7788 358.15 80.5393V60.2993L377.43 81.2993C377.698 81.6131 378.031 81.865 378.406 82.0377C378.78 82.2103 379.188 82.2996 379.6 82.2993L387.44 82.3193Z" fill="url(#paint10_linear_2072_36)"/>
<path d="M398.718 82.3193H404.378C404.616 82.3366 404.856 82.3047 405.081 82.2256C405.306 82.1465 405.513 82.0218 405.688 81.8593C405.85 81.6817 405.974 81.4732 406.053 81.2463C406.132 81.0195 406.165 80.779 406.148 80.5393V35.7093C406.177 35.4691 406.151 35.2256 406.072 34.9969C405.993 34.7682 405.864 34.5601 405.694 34.3881C405.524 34.2162 405.317 34.0847 405.09 34.0035C404.862 33.9224 404.619 33.8936 404.378 33.9193H398.738C398.498 33.8936 398.255 33.9224 398.027 34.0035C397.799 34.0847 397.592 34.2162 397.422 34.3881C397.252 34.5601 397.123 34.7682 397.044 34.9969C396.966 35.2256 396.94 35.4691 396.968 35.7093V80.5393C396.952 80.779 396.984 81.0195 397.063 81.2463C397.142 81.4732 397.266 81.6817 397.428 81.8593C397.601 82.0192 397.804 82.1425 398.026 82.2215C398.248 82.3006 398.483 82.3339 398.718 82.3193Z" fill="url(#paint11_linear_2072_36)"/>
<path d="M425.941 81.8616C426.101 81.6827 426.224 81.474 426.303 81.2475C426.382 81.0209 426.416 80.781 426.401 80.5416V53.2916L457.101 81.5316C457.711 82.1016 458.101 82.3916 458.411 82.3916C458.721 82.3916 459.001 82.1516 459.001 81.6616V35.7116C459.03 35.4714 459.004 35.2279 458.925 34.9992C458.847 34.7705 458.717 34.5624 458.547 34.3904C458.377 34.2184 458.171 34.087 457.943 34.0058C457.715 33.9246 457.472 33.8959 457.231 33.9216H451.591C451.351 33.8939 451.107 33.9213 450.878 34.0018C450.649 34.0823 450.442 34.2137 450.271 34.3861C450.101 34.5585 449.972 34.7674 449.894 34.9971C449.816 35.2267 449.791 35.471 449.821 35.7116V63.4816L419.251 34.7816C418.638 34.1616 418.178 33.8516 417.871 33.8516C417.481 33.8516 417.281 34.1016 417.281 34.5816V80.5816C417.265 80.8212 417.297 81.0617 417.376 81.2886C417.456 81.5155 417.58 81.724 417.741 81.9016C417.917 82.0631 418.124 82.1871 418.349 82.2662C418.574 82.3453 418.813 82.3777 419.052 82.3616H424.631C424.872 82.3718 425.113 82.3328 425.338 82.2468C425.563 82.1608 425.769 82.0297 425.941 81.8616Z" fill="url(#paint12_linear_2072_36)"/>
<path d="M512.259 73.0707C514.346 69.7551 515.585 65.9777 515.869 62.0707C515.949 60.7507 515.999 59.8707 515.999 59.4207L515.929 57.5707C515.945 57.3365 515.909 57.1017 515.825 56.8825C515.741 56.6634 515.61 56.4652 515.442 56.3016C515.274 56.138 515.072 56.0129 514.85 55.9351C514.629 55.8572 514.393 55.8284 514.159 55.8507H490.159C489.921 55.837 489.682 55.8716 489.456 55.9523C489.231 56.0331 489.025 56.1584 488.849 56.3207C488.689 56.4995 488.566 56.7082 488.488 56.9348C488.409 57.1613 488.375 57.4012 488.389 57.6407V62.4207C488.375 62.6602 488.409 62.9001 488.488 63.1266C488.566 63.3531 488.689 63.5618 488.849 63.7407C489.025 63.903 489.231 64.0283 489.456 64.109C489.682 64.1898 489.921 64.2244 490.159 64.2107H506.099C505.845 66.1353 505.09 67.9594 503.909 69.5007C502.653 71.1235 501.019 72.4144 499.149 73.2607C497.094 74.2082 494.852 74.6832 492.589 74.6507C489.629 74.69 486.711 73.9485 484.129 72.5007C481.624 71.1201 479.548 69.0751 478.129 66.5907C476.722 64.0146 475.984 61.1262 475.984 58.1907C475.984 55.2552 476.722 52.3668 478.129 49.7907C479.484 47.3432 481.465 45.3 483.869 43.8707C486.246 42.4464 488.969 41.7027 491.739 41.7207C493.997 41.7267 496.218 42.2973 498.199 43.3807C500.267 44.4708 502.105 45.9514 503.609 47.7407C503.78 47.9668 503.996 48.1541 504.244 48.2903C504.493 48.4265 504.767 48.5084 505.049 48.5307C505.423 48.521 505.787 48.4067 506.099 48.2007L510.829 45.2007C511.105 45.0791 511.343 44.8861 511.518 44.6417C511.694 44.3973 511.802 44.1104 511.829 43.8107C511.791 43.3969 511.631 43.0038 511.369 42.6807C509.039 39.7146 506.082 37.3003 502.709 35.6107C499.048 33.7832 494.988 32.9017 490.899 33.0466C486.809 33.1916 482.822 34.3585 479.299 36.4407C475.541 38.6586 472.42 41.8106 470.239 45.5907C468.018 49.405 466.864 53.7469 466.899 58.1607C466.862 62.5769 468.031 66.9195 470.279 70.7207C472.493 74.5212 475.67 77.6705 479.489 79.8507C483.226 81.9375 487.412 83.0901 491.69 83.2102C495.968 83.3304 500.212 82.4145 504.059 80.5407C507.406 78.8206 510.236 76.2428 512.259 73.0707Z" fill="url(#paint13_linear_2072_36)"/>
<path d="M255.382 123.092V118.472C255.41 118.232 255.384 117.988 255.306 117.759C255.227 117.531 255.098 117.323 254.928 117.151C254.758 116.979 254.551 116.847 254.323 116.766C254.096 116.685 253.852 116.656 253.612 116.682H232.242V103.682H256.582C256.82 103.698 257.059 103.665 257.284 103.586C257.509 103.507 257.716 103.383 257.892 103.222C258.055 103.043 258.179 102.832 258.258 102.604C258.337 102.375 258.369 102.133 258.352 101.892V97.2718C258.38 97.0316 258.354 96.7881 258.276 96.5594C258.197 96.3307 258.068 96.1226 257.898 95.9506C257.728 95.7787 257.521 95.6472 257.293 95.566C257.066 95.4849 256.822 95.4561 256.582 95.4818H224.832C224.591 95.4561 224.348 95.4849 224.12 95.566C223.893 95.6472 223.686 95.7787 223.516 95.9506C223.346 96.1226 223.217 96.3307 223.138 96.5594C223.06 96.7881 223.034 97.0316 223.062 97.2718V142.102C223.046 142.341 223.078 142.582 223.157 142.809C223.236 143.036 223.36 143.244 223.522 143.422C223.698 143.583 223.904 143.707 224.13 143.786C224.355 143.865 224.594 143.898 224.832 143.882H230.472C230.71 143.899 230.949 143.867 231.175 143.788C231.4 143.709 231.607 143.584 231.782 143.422C231.944 143.244 232.068 143.036 232.147 142.809C232.226 142.582 232.258 142.341 232.242 142.102V124.882H253.632C253.87 124.898 254.109 124.865 254.334 124.786C254.559 124.707 254.766 124.583 254.942 124.422C255.101 124.241 255.222 124.03 255.297 123.802C255.373 123.573 255.402 123.332 255.382 123.092Z" fill="url(#paint14_linear_2072_36)"/>
<path d="M280.189 96.5092C279.839 95.8092 279.429 95.4492 278.949 95.4492C278.469 95.4492 278.049 95.8092 277.699 96.5092L254.999 141.809C254.867 142.101 254.779 142.411 254.739 142.729C254.733 142.897 254.769 143.064 254.844 143.214C254.919 143.365 255.031 143.494 255.169 143.589C255.502 143.831 255.909 143.948 256.319 143.919H262.479C262.924 143.949 263.366 143.838 263.743 143.6C264.121 143.363 264.413 143.013 264.579 142.599L267.579 136.319H290.209L293.289 142.599C293.474 142.998 293.771 143.336 294.144 143.57C294.516 143.804 294.949 143.925 295.389 143.919H301.559C301.966 143.946 302.369 143.829 302.699 143.589C302.837 143.494 302.949 143.365 303.024 143.214C303.099 143.064 303.135 142.897 303.129 142.729C303.089 142.411 303.001 142.101 302.869 141.809L280.189 96.5092ZM272.059 128.249L278.949 113.109L285.769 128.249H272.059Z" fill="url(#paint15_linear_2072_36)"/>
<path d="M348.869 131.229L344.379 129.379C344.064 129.229 343.726 129.138 343.379 129.109C342.914 129.144 342.466 129.297 342.076 129.552C341.686 129.807 341.367 130.157 341.149 130.569C339.886 132.27 338.251 133.658 336.369 134.629C334.022 135.802 331.416 136.361 328.795 136.254C326.174 136.147 323.622 135.378 321.379 134.019C318.982 132.555 317.012 130.486 315.669 128.019C314.291 125.495 313.569 122.665 313.569 119.789C313.569 116.913 314.291 114.083 315.669 111.559C317.025 109.102 318.992 107.035 321.379 105.559C323.733 104.072 326.464 103.291 329.249 103.309C331.642 103.283 334.006 103.834 336.141 104.917C338.275 106 340.117 107.582 341.509 109.529C341.682 109.843 341.94 110.103 342.252 110.279C342.565 110.456 342.92 110.542 343.279 110.529C343.596 110.531 343.911 110.463 344.199 110.329L348.859 108.409C349.239 108.316 349.576 108.095 349.815 107.784C350.053 107.474 350.178 107.091 350.169 106.699C350.154 106.252 350.02 105.816 349.779 105.439C347.759 102.223 344.946 99.5816 341.609 97.769C337.824 95.6988 333.561 94.664 329.249 94.769C324.866 94.7341 320.557 95.8884 316.779 98.109C311.064 101.516 306.914 107.03 305.222 113.465C303.53 119.899 304.43 126.741 307.729 132.519C309.905 136.297 313.042 139.431 316.822 141.604C320.602 143.776 324.889 144.91 329.249 144.889C333.48 144.946 337.656 143.921 341.379 141.909C344.794 140.091 347.694 137.439 349.809 134.199C350.062 133.853 350.202 133.438 350.209 133.009C350.213 132.621 350.07 132.246 349.809 131.959C349.552 131.65 349.231 131.401 348.869 131.229Z" fill="url(#paint16_linear_2072_36)"/>
<path d="M366.12 95.5208H360.48C360.24 95.4951 359.997 95.5239 359.769 95.6051C359.541 95.6863 359.334 95.8177 359.164 95.9897C358.994 96.1617 358.865 96.3697 358.787 96.5985C358.708 96.8272 358.682 97.0707 358.71 97.3108V142.141C358.694 142.381 358.726 142.621 358.805 142.848C358.884 143.075 359.009 143.283 359.17 143.461C359.345 143.623 359.552 143.748 359.778 143.827C360.003 143.906 360.242 143.938 360.48 143.921H366.12C366.359 143.938 366.598 143.906 366.823 143.827C367.049 143.748 367.255 143.623 367.43 143.461C367.592 143.283 367.716 143.075 367.795 142.848C367.874 142.621 367.907 142.381 367.89 142.141V97.3108C367.919 97.0707 367.893 96.8272 367.814 96.5985C367.736 96.3697 367.606 96.1617 367.436 95.9897C367.266 95.8177 367.06 95.6863 366.832 95.6051C366.604 95.5239 366.361 95.4951 366.12 95.5208Z" fill="url(#paint17_linear_2072_36)"/>
<path d="M411.838 135.721H388.218V97.3108C388.247 97.0707 388.221 96.8272 388.142 96.5985C388.064 96.3697 387.934 96.1617 387.764 95.9897C387.594 95.8177 387.388 95.6863 387.16 95.6051C386.932 95.5239 386.689 95.4951 386.448 95.5208H380.808C380.568 95.4951 380.325 95.5239 380.097 95.6051C379.869 95.6863 379.663 95.8177 379.493 95.9897C379.322 96.1617 379.193 96.3697 379.115 96.5985C379.036 96.8272 379.01 97.0707 379.038 97.3108V142.141C379.022 142.381 379.054 142.621 379.133 142.848C379.213 143.075 379.337 143.283 379.498 143.461C379.674 143.622 379.881 143.746 380.106 143.825C380.331 143.905 380.57 143.937 380.808 143.921H411.808C412.048 143.946 412.29 143.918 412.517 143.837C412.744 143.756 412.95 143.626 413.12 143.455C413.29 143.284 413.419 143.078 413.499 142.85C413.578 142.623 413.605 142.38 413.578 142.141V137.511C413.605 137.271 413.578 137.028 413.498 136.801C413.419 136.573 413.29 136.365 413.12 136.194C412.951 136.022 412.745 135.891 412.518 135.809C412.291 135.727 412.049 135.697 411.808 135.721H411.838Z" fill="url(#paint18_linear_2072_36)"/>
<path d="M427.448 95.5208H421.808C421.568 95.4951 421.325 95.5239 421.097 95.6051C420.869 95.6863 420.663 95.8177 420.493 95.9897C420.322 96.1617 420.193 96.3697 420.115 96.5985C420.036 96.8272 420.01 97.0707 420.038 97.3108V142.141C420.022 142.381 420.054 142.621 420.133 142.848C420.213 143.075 420.337 143.283 420.498 143.461C420.674 143.623 420.88 143.748 421.106 143.827C421.331 143.906 421.57 143.938 421.808 143.921H427.448C427.687 143.937 427.926 143.905 428.151 143.825C428.376 143.746 428.583 143.622 428.758 143.461C428.918 143.282 429.041 143.073 429.12 142.847C429.199 142.62 429.233 142.38 429.218 142.141V97.3108C429.233 97.0698 429.2 96.8281 429.121 96.5999C429.042 96.3716 428.919 96.1612 428.758 95.9808C428.581 95.8213 428.375 95.6984 428.15 95.6195C427.925 95.5405 427.686 95.507 427.448 95.5208Z" fill="url(#paint19_linear_2072_36)"/>
<path d="M471.979 95.5183H438.859C438.619 95.4926 438.376 95.5214 438.148 95.6025C437.92 95.6837 437.713 95.8151 437.543 95.9871C437.373 96.1591 437.244 96.3672 437.166 96.5959C437.087 96.8246 437.061 97.0681 437.089 97.3083V101.928C437.072 102.17 437.104 102.412 437.183 102.64C437.262 102.869 437.387 103.079 437.549 103.258C437.724 103.421 437.931 103.545 438.156 103.625C438.382 103.704 438.621 103.736 438.859 103.718H450.859V142.138C450.845 142.378 450.879 142.618 450.957 142.844C451.036 143.071 451.159 143.279 451.319 143.458C451.495 143.619 451.702 143.743 451.927 143.822C452.152 143.901 452.391 143.934 452.629 143.918H458.269C458.509 143.935 458.749 143.902 458.976 143.823C459.203 143.744 459.412 143.62 459.589 143.458C459.749 143.279 459.872 143.071 459.951 142.844C460.03 142.618 460.063 142.378 460.049 142.138V103.718H471.979C472.219 103.735 472.459 103.702 472.686 103.623C472.913 103.544 473.122 103.42 473.299 103.258C473.458 103.077 473.58 102.866 473.657 102.638C473.734 102.41 473.766 102.169 473.749 101.928V97.3083C473.78 97.0677 473.755 96.8234 473.677 96.5938C473.599 96.3641 473.47 96.1552 473.3 95.9828C473.129 95.8104 472.922 95.679 472.693 95.5985C472.464 95.518 472.22 95.4906 471.979 95.5183Z" fill="url(#paint20_linear_2072_36)"/>
<path d="M489.101 95.5181H483.461C483.223 95.5042 482.985 95.5377 482.76 95.6167C482.535 95.6956 482.328 95.8185 482.151 95.978C481.99 96.1584 481.867 96.3688 481.788 96.5971C481.709 96.8253 481.676 97.067 481.691 97.3081V142.138C481.677 142.378 481.71 142.617 481.789 142.844C481.868 143.071 481.991 143.279 482.151 143.458C482.327 143.62 482.533 143.744 482.759 143.823C482.984 143.902 483.223 143.934 483.461 143.918H489.101C489.341 143.934 489.581 143.902 489.808 143.823C490.035 143.744 490.243 143.62 490.421 143.458C490.581 143.279 490.704 143.071 490.783 142.844C490.862 142.617 490.895 142.378 490.881 142.138V97.3081C490.91 97.0669 490.883 96.8225 490.804 96.5929C490.725 96.3634 490.595 96.1547 490.424 95.9826C490.253 95.8104 490.045 95.6792 489.816 95.5987C489.587 95.5183 489.342 95.4907 489.101 95.5181Z" fill="url(#paint21_linear_2072_36)"/>
<path d="M535.539 95.5181H503.799C503.558 95.4907 503.313 95.5183 503.084 95.5987C502.855 95.6792 502.647 95.8104 502.476 95.9826C502.305 96.1547 502.175 96.3634 502.096 96.5929C502.017 96.8225 501.99 97.0669 502.019 97.3081V142.138C502.005 142.378 502.038 142.617 502.117 142.844C502.196 143.071 502.319 143.279 502.479 143.458C502.657 143.62 502.865 143.744 503.092 143.823C503.319 143.902 503.559 143.934 503.799 143.918H535.539C535.779 143.934 536.019 143.902 536.246 143.823C536.473 143.744 536.681 143.62 536.859 143.458C537.019 143.279 537.142 143.071 537.221 142.844C537.3 142.617 537.333 142.378 537.319 142.138V137.508C537.333 137.269 537.3 137.029 537.221 136.802C537.142 136.576 537.019 136.367 536.859 136.188C536.682 136.025 536.474 135.899 536.247 135.819C536.02 135.738 535.779 135.704 535.539 135.718H511.139V124.018H532.589C532.827 124.035 533.067 124.004 533.292 123.924C533.517 123.845 533.724 123.721 533.899 123.558C534.062 123.379 534.186 123.169 534.265 122.94C534.344 122.712 534.376 122.469 534.359 122.228V117.608C534.387 117.368 534.361 117.124 534.283 116.896C534.204 116.667 534.075 116.459 533.905 116.287C533.735 116.115 533.528 115.983 533.301 115.902C533.073 115.821 532.83 115.792 532.589 115.818H511.139V103.718H535.539C535.779 103.734 536.019 103.702 536.246 103.623C536.473 103.544 536.681 103.42 536.859 103.258C537.02 103.078 537.143 102.867 537.222 102.639C537.301 102.411 537.334 102.169 537.319 101.928V97.3081C537.348 97.0669 537.322 96.8225 537.242 96.5929C537.163 96.3634 537.033 96.1547 536.862 95.9826C536.691 95.8104 536.483 95.6792 536.254 95.5987C536.025 95.5183 535.78 95.4907 535.539 95.5181Z" fill="url(#paint22_linear_2072_36)"/>
<path d="M581.132 121.64C579.53 119.72 577.465 118.24 575.132 117.34C572.55 116.411 569.894 115.705 567.192 115.23L565.692 114.96C563.282 114.48 561.362 113.96 559.912 113.57C558.538 113.152 557.258 112.473 556.142 111.57C555.629 111.179 555.216 110.673 554.937 110.093C554.657 109.513 554.518 108.874 554.532 108.23C554.504 107.434 554.722 106.648 555.157 105.981C555.592 105.313 556.222 104.796 556.962 104.5C558.731 103.697 560.659 103.3 562.602 103.34C566.82 103.384 570.947 104.573 574.542 106.78C574.928 107.042 575.385 107.181 575.852 107.18C576.214 107.207 576.577 107.134 576.901 106.97C577.225 106.807 577.498 106.558 577.692 106.25L580.252 102.74C580.518 102.379 580.656 101.939 580.642 101.49C580.65 101.121 580.563 100.757 580.387 100.432C580.212 100.108 579.955 99.8348 579.642 99.64C577.458 98.0942 575.059 96.8779 572.522 96.03C569.612 95.1145 566.572 94.6788 563.522 94.74C560.579 94.7306 557.654 95.2001 554.862 96.13C552.19 97.0012 549.816 98.6055 548.012 100.76C546.117 103.138 545.148 106.122 545.282 109.16C545.282 112.733 546.308 115.533 548.362 117.56C550.22 119.456 552.503 120.882 555.022 121.72C557.831 122.575 560.69 123.26 563.582 123.77C565.55 124.11 567.499 124.55 569.422 125.09C570.774 125.464 572.021 126.149 573.062 127.09C573.528 127.53 573.895 128.064 574.139 128.658C574.382 129.251 574.495 129.889 574.472 130.53C574.476 131.347 574.277 132.152 573.893 132.873C573.509 133.594 572.952 134.208 572.272 134.66C570.812 135.74 568.478 136.28 565.272 136.28C562.876 136.25 560.505 135.789 558.272 134.92C555.917 134.059 553.637 133.009 551.452 131.78C551.04 131.526 550.566 131.39 550.082 131.39C549.698 131.377 549.319 131.467 548.982 131.652C548.646 131.837 548.366 132.109 548.172 132.44L546.172 135.44C545.885 135.896 545.726 136.421 545.712 136.96C545.707 137.354 545.8 137.744 545.983 138.093C546.167 138.442 546.434 138.74 546.762 138.96C549.263 140.758 551.998 142.205 554.892 143.26C558.249 144.395 561.779 144.933 565.322 144.85C570.922 144.85 575.358 143.593 578.632 141.08C581.905 138.567 583.548 134.9 583.562 130.08C583.695 126.48 582.885 123.667 581.132 121.64Z" fill="url(#paint23_linear_2072_36)"/>
</g>
<defs>
<linearGradient id="paint0_linear_2072_36" x1="98.2" y1="-73.35" x2="445.81" y2="274.26" gradientUnits="userSpaceOnUse">
<stop stop-color="#011731"/>
<stop offset="0.19" stop-color="#032144"/>
<stop offset="0.5" stop-color="#062F5F"/>
<stop offset="0.78" stop-color="#07376F"/>
<stop offset="1" stop-color="#083A75"/>
</linearGradient>
<linearGradient id="paint1_linear_2072_36" x1="98.2" y1="-73.3512" x2="445.81" y2="274.259" gradientUnits="userSpaceOnUse">
<stop stop-color="#011731"/>
<stop offset="0.19" stop-color="#032144"/>
<stop offset="0.5" stop-color="#062F5F"/>
<stop offset="0.78" stop-color="#07376F"/>
<stop offset="1" stop-color="#083A75"/>
</linearGradient>
<linearGradient id="paint2_linear_2072_36" x1="98.2" y1="-73.3519" x2="445.81" y2="274.258" gradientUnits="userSpaceOnUse">
<stop stop-color="#011731"/>
<stop offset="0.19" stop-color="#032144"/>
<stop offset="0.5" stop-color="#062F5F"/>
<stop offset="0.78" stop-color="#07376F"/>
<stop offset="1" stop-color="#083A75"/>
</linearGradient>
<linearGradient id="paint3_linear_2072_36" x1="98.2" y1="-73.3503" x2="445.81" y2="274.26" gradientUnits="userSpaceOnUse">
<stop stop-color="#011731"/>
<stop offset="0.19" stop-color="#032144"/>
<stop offset="0.5" stop-color="#062F5F"/>
<stop offset="0.78" stop-color="#07376F"/>
<stop offset="1" stop-color="#083A75"/>
</linearGradient>
<linearGradient id="paint4_linear_2072_36" x1="98.2" y1="-73.3511" x2="445.81" y2="274.259" gradientUnits="userSpaceOnUse">
<stop stop-color="#011731"/>
<stop offset="0.19" stop-color="#032144"/>
<stop offset="0.5" stop-color="#062F5F"/>
<stop offset="0.78" stop-color="#07376F"/>
<stop offset="1" stop-color="#083A75"/>
</linearGradient>
<linearGradient id="paint5_linear_2072_36" x1="98.2" y1="-73.3482" x2="445.81" y2="274.262" gradientUnits="userSpaceOnUse">
<stop stop-color="#011731"/>
<stop offset="0.19" stop-color="#032144"/>
<stop offset="0.5" stop-color="#062F5F"/>
<stop offset="0.78" stop-color="#07376F"/>
<stop offset="1" stop-color="#083A75"/>
</linearGradient>
<linearGradient id="paint6_linear_2072_36" x1="98.2" y1="-73.3517" x2="445.81" y2="274.258" gradientUnits="userSpaceOnUse">
<stop stop-color="#011731"/>
<stop offset="0.19" stop-color="#032144"/>
<stop offset="0.5" stop-color="#062F5F"/>
<stop offset="0.78" stop-color="#07376F"/>
<stop offset="1" stop-color="#083A75"/>
</linearGradient>
<linearGradient id="paint7_linear_2072_36" x1="84.5812" y1="-85.331" x2="432.191" y2="262.279" gradientUnits="userSpaceOnUse">
<stop stop-color="#011731"/>
<stop offset="0.19" stop-color="#032144"/>
<stop offset="0.5" stop-color="#062F5F"/>
<stop offset="0.78" stop-color="#07376F"/>
<stop offset="1" stop-color="#083A75"/>
</linearGradient>
<linearGradient id="paint8_linear_2072_36" x1="84.5811" y1="-85.3307" x2="432.191" y2="262.279" gradientUnits="userSpaceOnUse">
<stop stop-color="#011731"/>
<stop offset="0.19" stop-color="#032144"/>
<stop offset="0.5" stop-color="#062F5F"/>
<stop offset="0.78" stop-color="#07376F"/>
<stop offset="1" stop-color="#083A75"/>
</linearGradient>
<linearGradient id="paint9_linear_2072_36" x1="84.5818" y1="-85.3311" x2="432.192" y2="262.279" gradientUnits="userSpaceOnUse">
<stop stop-color="#011731"/>
<stop offset="0.19" stop-color="#032144"/>
<stop offset="0.5" stop-color="#062F5F"/>
<stop offset="0.78" stop-color="#07376F"/>
<stop offset="1" stop-color="#083A75"/>
</linearGradient>
<linearGradient id="paint10_linear_2072_36" x1="84.5802" y1="-85.3307" x2="432.19" y2="262.279" gradientUnits="userSpaceOnUse">
<stop stop-color="#011731"/>
<stop offset="0.19" stop-color="#032144"/>
<stop offset="0.5" stop-color="#062F5F"/>
<stop offset="0.78" stop-color="#07376F"/>
<stop offset="1" stop-color="#083A75"/>
</linearGradient>
<linearGradient id="paint11_linear_2072_36" x1="84.5783" y1="-85.3307" x2="432.188" y2="262.279" gradientUnits="userSpaceOnUse">
<stop stop-color="#011731"/>
<stop offset="0.19" stop-color="#032144"/>
<stop offset="0.5" stop-color="#062F5F"/>
<stop offset="0.78" stop-color="#07376F"/>
<stop offset="1" stop-color="#083A75"/>
</linearGradient>
<linearGradient id="paint12_linear_2072_36" x1="84.5815" y1="-85.3285" x2="432.192" y2="262.282" gradientUnits="userSpaceOnUse">
<stop stop-color="#011731"/>
<stop offset="0.19" stop-color="#032144"/>
<stop offset="0.5" stop-color="#062F5F"/>
<stop offset="0.78" stop-color="#07376F"/>
<stop offset="1" stop-color="#083A75"/>
</linearGradient>
<linearGradient id="paint13_linear_2072_36" x1="84.5792" y1="-85.3293" x2="432.189" y2="262.281" gradientUnits="userSpaceOnUse">
<stop stop-color="#011731"/>
<stop offset="0.19" stop-color="#032144"/>
<stop offset="0.5" stop-color="#062F5F"/>
<stop offset="0.78" stop-color="#07376F"/>
<stop offset="1" stop-color="#083A75"/>
</linearGradient>
<linearGradient id="paint14_linear_2072_36" x1="84.5819" y1="-85.3282" x2="432.192" y2="262.282" gradientUnits="userSpaceOnUse">
<stop stop-color="#011731"/>
<stop offset="0.19" stop-color="#032144"/>
<stop offset="0.5" stop-color="#062F5F"/>
<stop offset="0.78" stop-color="#07376F"/>
<stop offset="1" stop-color="#083A75"/>
</linearGradient>
<linearGradient id="paint15_linear_2072_36" x1="84.579" y1="-85.3308" x2="432.189" y2="262.279" gradientUnits="userSpaceOnUse">
<stop stop-color="#011731"/>
<stop offset="0.19" stop-color="#032144"/>
<stop offset="0.5" stop-color="#062F5F"/>
<stop offset="0.78" stop-color="#07376F"/>
<stop offset="1" stop-color="#083A75"/>
</linearGradient>
<linearGradient id="paint16_linear_2072_36" x1="84.5788" y1="-85.331" x2="432.189" y2="262.279" gradientUnits="userSpaceOnUse">
<stop stop-color="#011731"/>
<stop offset="0.19" stop-color="#032144"/>
<stop offset="0.5" stop-color="#062F5F"/>
<stop offset="0.78" stop-color="#07376F"/>
<stop offset="1" stop-color="#083A75"/>
</linearGradient>
<linearGradient id="paint17_linear_2072_36" x1="84.5797" y1="-85.3291" x2="432.19" y2="262.282" gradientUnits="userSpaceOnUse">
<stop stop-color="#011731"/>
<stop offset="0.19" stop-color="#032144"/>
<stop offset="0.5" stop-color="#062F5F"/>
<stop offset="0.78" stop-color="#07376F"/>
<stop offset="1" stop-color="#083A75"/>
</linearGradient>
<linearGradient id="paint18_linear_2072_36" x1="84.5784" y1="-85.3291" x2="432.188" y2="262.281" gradientUnits="userSpaceOnUse">
<stop stop-color="#011731"/>
<stop offset="0.19" stop-color="#032144"/>
<stop offset="0.5" stop-color="#062F5F"/>
<stop offset="0.78" stop-color="#07376F"/>
<stop offset="1" stop-color="#083A75"/>
</linearGradient>
<linearGradient id="paint19_linear_2072_36" x1="84.5788" y1="-85.3291" x2="432.189" y2="262.281" gradientUnits="userSpaceOnUse">
<stop stop-color="#011731"/>
<stop offset="0.19" stop-color="#032144"/>
<stop offset="0.5" stop-color="#062F5F"/>
<stop offset="0.78" stop-color="#07376F"/>
<stop offset="1" stop-color="#083A75"/>
</linearGradient>
<linearGradient id="paint20_linear_2072_36" x1="84.5792" y1="-85.3317" x2="432.189" y2="262.278" gradientUnits="userSpaceOnUse">
<stop stop-color="#011731"/>
<stop offset="0.19" stop-color="#032144"/>
<stop offset="0.5" stop-color="#062F5F"/>
<stop offset="0.78" stop-color="#07376F"/>
<stop offset="1" stop-color="#083A75"/>
</linearGradient>
<linearGradient id="paint21_linear_2072_36" x1="84.581" y1="-85.3319" x2="432.191" y2="262.278" gradientUnits="userSpaceOnUse">
<stop stop-color="#011731"/>
<stop offset="0.19" stop-color="#032144"/>
<stop offset="0.5" stop-color="#062F5F"/>
<stop offset="0.78" stop-color="#07376F"/>
<stop offset="1" stop-color="#083A75"/>
</linearGradient>
<linearGradient id="paint22_linear_2072_36" x1="84.5792" y1="-85.3319" x2="432.189" y2="262.278" gradientUnits="userSpaceOnUse">
<stop stop-color="#011731"/>
<stop offset="0.19" stop-color="#032144"/>
<stop offset="0.5" stop-color="#062F5F"/>
<stop offset="0.78" stop-color="#07376F"/>
<stop offset="1" stop-color="#083A75"/>
</linearGradient>
<linearGradient id="paint23_linear_2072_36" x1="84.5822" y1="-85.3299" x2="432.192" y2="262.28" gradientUnits="userSpaceOnUse">
<stop stop-color="#011731"/>
<stop offset="0.19" stop-color="#032144"/>
<stop offset="0.5" stop-color="#062F5F"/>
<stop offset="0.78" stop-color="#07376F"/>
<stop offset="1" stop-color="#083A75"/>
</linearGradient>
<clipPath id="clip0_2072_36">
<rect width="583.75" height="170.04" fill="white"/>
</clipPath>
</defs>
</svg>
