<svg width="119" height="16" viewBox="0 0 119 16" fill="none" xmlns="http://www.w3.org/2000/svg">
<path d="M25.2382 12.8139C24.5749 12.8139 23.9591 12.7455 23.3944 12.6108C22.8297 12.4741 22.337 12.2811 21.9182 12.0258C21.4994 11.7725 21.1715 11.4569 20.9385 11.0809C20.7054 10.703 20.5879 10.2688 20.5879 9.77424C20.5879 9.724 20.5879 9.67572 20.5879 9.62548C20.5879 9.57524 20.5936 9.53303 20.605 9.49479L23.1404 9.49479C23.1404 9.51893 23.1404 9.54705 23.1404 9.57922C23.1404 9.60943 23.1404 9.63755 23.1404 9.66365C23.1518 9.9612 23.256 10.2025 23.455 10.3874C23.6521 10.5723 23.9155 10.705 24.2414 10.7854C24.5674 10.8659 24.9122 10.9061 25.2723 10.9061C25.6096 10.9061 25.9393 10.8819 26.2596 10.8317C26.5798 10.7814 26.8489 10.6829 27.063 10.5341C27.2791 10.3854 27.3871 10.1884 27.3871 9.9411C27.3871 9.63148 27.2582 9.40437 27.0024 9.25561C26.7466 9.10685 26.3941 8.99026 25.945 8.90381C25.4959 8.81736 24.9918 8.71884 24.4328 8.60623C23.9666 8.51978 23.5213 8.40925 23.0949 8.27257C22.6705 8.13581 22.2877 7.96096 21.9504 7.74382C21.6131 7.52669 21.344 7.24927 21.1469 6.90954C20.9479 6.56981 20.8494 6.14566 20.8494 5.63903C20.8494 5.10833 20.9593 4.64992 21.181 4.26596C21.4027 3.88199 21.7173 3.56836 22.1247 3.32115C22.5321 3.07387 23.0135 2.89093 23.5668 2.77433C24.1201 2.65774 24.7171 2.59739 25.3576 2.59739C25.9526 2.59739 26.5116 2.65572 27.0365 2.77433C27.5615 2.89093 28.0162 3.06578 28.399 3.29296C28.7837 3.52217 29.0888 3.80964 29.3162 4.15543C29.5436 4.50116 29.6573 4.8912 29.6573 5.32338C29.6573 5.39775 29.6573 5.46613 29.6573 5.52642C29.6573 5.58879 29.6516 5.63701 29.6402 5.67524L27.1066 5.67524L27.1066 5.54456C27.1066 5.30935 27.027 5.11838 26.8698 4.96962C26.7125 4.8208 26.4964 4.70623 26.2236 4.62585C25.9488 4.5454 25.638 4.50521 25.2874 4.50521C25.1131 4.50521 24.9141 4.51728 24.6924 4.54142C24.4707 4.5655 24.2585 4.60973 24.0538 4.67204C23.8491 4.73441 23.6862 4.8208 23.5649 4.93139C23.4436 5.04198 23.3811 5.18467 23.3811 5.35757C23.3811 5.5807 23.491 5.75562 23.7127 5.88631C23.9344 6.01699 24.2282 6.11747 24.5958 6.19185C24.9634 6.26623 25.3614 6.34667 25.7934 6.43312C26.2823 6.54365 26.7731 6.65828 27.262 6.77683C27.7509 6.89349 28.2 7.05229 28.6074 7.24927C29.0149 7.44631 29.3351 7.73175 29.5682 8.10169C29.8013 8.47156 29.9169 8.96814 29.9169 9.58529C29.9169 10.1783 29.8032 10.6829 29.5758 11.097C29.3484 11.5112 29.0262 11.8449 28.6056 12.0982C28.1868 12.3515 27.6903 12.5344 27.1199 12.645C26.5552 12.7576 25.9261 12.8139 25.2382 12.8139Z" fill="white"/>
<path d="M35.1493 12.8139C34.0541 12.8139 33.207 12.5163 32.6063 11.9233C32.0056 11.3302 31.7062 10.3974 31.7062 9.12288L31.7062 2.83662L34.2587 2.83662L34.2587 8.6766C34.2587 9.03643 34.2985 9.33597 34.3819 9.57522C34.4633 9.81643 34.5865 10.0115 34.7495 10.1602C34.9125 10.309 35.1076 10.4175 35.3351 10.4839C35.5625 10.5502 35.8221 10.5864 36.112 10.5864C36.5308 10.5864 36.9136 10.4879 37.2566 10.2889C37.5995 10.0919 37.8763 9.81643 38.0866 9.46463C38.2969 9.11283 38.4011 8.71282 38.4011 8.2685L38.4011 2.8346L40.9708 2.8346L40.9708 12.5887L38.873 12.5887L38.6816 11.1051L38.5584 11.1051C38.278 11.4891 37.9634 11.8067 37.6147 12.06C37.2641 12.3133 36.8776 12.5023 36.4531 12.6249C36.0267 12.7515 35.5928 12.8139 35.1493 12.8139Z" fill="white"/>
<path d="M43.2767 15.984L43.2767 2.83651L45.3575 2.83651L45.5849 4.24573L45.708 4.24573C46.0699 3.65273 46.5266 3.23255 47.08 2.98527C47.6333 2.73799 48.2359 2.6154 48.8897 2.6154C49.7405 2.6154 50.4777 2.7943 51.1011 3.15412C51.7246 3.51199 52.2059 4.06886 52.5432 4.82269C52.8806 5.57659 53.0492 6.54156 53.0492 7.71557C53.0492 8.86545 52.8767 9.81834 52.5338 10.5722C52.1908 11.3261 51.7151 11.889 51.1088 12.2589C50.5023 12.6288 49.7917 12.8157 48.9768 12.8157C48.5694 12.8157 48.1753 12.7655 47.7963 12.667C47.4173 12.5685 47.0705 12.4157 46.7559 12.2126C46.4414 12.0096 46.1723 11.7583 45.9525 11.4608L45.8482 11.4608L45.8482 15.986L43.2767 15.986L43.2767 15.984ZM48.1544 10.6064C48.6794 10.6064 49.1095 10.5039 49.4487 10.3008C49.7861 10.0978 50.0362 9.7882 50.2011 9.37409C50.364 8.95992 50.4454 8.46941 50.4454 7.90054L50.4454 7.53061C50.4454 6.9376 50.364 6.43697 50.2011 6.02894C50.038 5.62083 49.7879 5.31522 49.4487 5.11023C49.1095 4.90712 48.6736 4.80462 48.1374 4.80462C47.6371 4.80462 47.2127 4.91521 46.8696 5.13835C46.5266 5.36148 46.2633 5.67909 46.0832 6.0932C45.9013 6.50737 45.8122 6.99991 45.8122 7.56682L45.8122 7.82617C45.8122 8.24627 45.8653 8.63226 45.9695 8.98406C46.0738 9.33586 46.2234 9.63337 46.4148 9.87464C46.6063 10.1159 46.845 10.2988 47.1311 10.4215C47.4173 10.5461 47.7584 10.6064 48.1544 10.6064Z" fill="white"/>
<path d="M59.742 12.8139C58.6353 12.8139 57.6936 12.6309 56.9185 12.267C56.1435 11.9032 55.5522 11.3423 55.1448 10.5884C54.7374 9.83456 54.5327 8.8756 54.5327 7.71366C54.5327 6.55172 54.7355 5.59275 55.1448 4.83892C55.5522 4.08501 56.1377 3.52619 56.9014 3.1603C57.6651 2.79643 58.588 2.61349 59.6719 2.61349C60.7331 2.61349 61.6332 2.79238 62.3723 3.15228C63.1113 3.51008 63.6722 4.05689 64.0493 4.79266C64.4283 5.52849 64.6178 6.45118 64.6178 7.5649L64.6178 8.32481L57.1724 8.32481C57.1952 8.89374 57.307 9.36618 57.504 9.74407C57.7011 10.122 57.991 10.3974 58.3701 10.5703C58.7491 10.7432 59.2171 10.8297 59.778 10.8297C60.0566 10.8297 60.3256 10.7955 60.5815 10.7271C60.8373 10.6588 61.0704 10.5543 61.2808 10.4115C61.4911 10.2688 61.6654 10.0939 61.8056 9.8828C61.9459 9.67374 62.0217 9.43246 62.033 9.15909L64.6027 9.15909C64.6027 9.72802 64.4832 10.2406 64.2445 10.699C64.0057 11.1573 63.676 11.5393 63.2572 11.8489C62.8384 12.1585 62.3306 12.3957 61.7355 12.5626C61.1405 12.7294 60.4773 12.8139 59.742 12.8139ZM57.2084 6.63817L61.927 6.63817C61.927 6.29237 61.872 5.98879 61.7602 5.72951C61.6483 5.47016 61.4949 5.25302 61.2978 5.08012C61.0988 4.90729 60.8657 4.78059 60.5985 4.70021C60.3314 4.61976 60.0338 4.57957 59.7079 4.57957C59.2076 4.57957 58.7794 4.65597 58.4231 4.8108C58.0669 4.96556 57.7902 5.19672 57.5931 5.50637C57.3941 5.81791 57.2653 6.19385 57.2084 6.63817Z" fill="white"/>
<path d="M66.5071 12.5907L66.5071 2.8366L68.6048 2.8366L68.8151 4.43079L68.9383 4.43079C69.0539 4.09706 69.2245 3.78748 69.4443 3.50406C69.6661 3.22057 69.937 2.99743 70.2573 2.8366C70.5775 2.67577 70.9413 2.59533 71.3507 2.59533C71.561 2.59533 71.7524 2.61346 71.9268 2.65163C72.1011 2.68784 72.2527 2.73208 72.3815 2.78232L72.3815 5.1565L71.3677 5.1565C70.9716 5.1565 70.6306 5.22084 70.3444 5.35152C70.0583 5.48214 69.8195 5.66711 69.6281 5.90839C69.4367 6.14959 69.2965 6.43106 69.2093 6.75272C69.1222 7.07437 69.0786 7.43824 69.0786 7.84628L69.0786 12.5927L66.5071 12.5927L66.5071 12.5907Z" fill="white"/>
<path d="M77.0813 12.8138C76.4408 12.8138 75.9159 12.7092 75.5085 12.4982C75.1011 12.2891 74.7998 11.9755 74.6083 11.5613C74.417 11.1472 74.3203 10.6306 74.3203 10.0134L74.3203 4.87704L72.9048 4.87704L72.9048 2.83658L74.4246 2.83658L74.9135 -1.04144e-06L76.8881 -1.12772e-06L76.8881 2.83658L78.9498 2.83658L78.9498 4.87704L76.8881 4.87704L76.8881 9.62339C76.8881 9.99329 76.9601 10.2747 77.106 10.4677C77.2519 10.6587 77.5285 10.7552 77.936 10.7552L78.9498 10.7552L78.9498 12.5162C78.7982 12.5665 78.6125 12.6127 78.3907 12.6549C78.1691 12.6972 77.9417 12.7354 77.7086 12.7655C77.4774 12.7977 77.2689 12.8138 77.0813 12.8138Z" fill="white"/>
<path d="M85.4719 12.8139C84.3653 12.8139 83.4235 12.6309 82.6484 12.267C81.8734 11.9032 81.2821 11.3423 80.8747 10.5884C80.4673 9.83456 80.2627 8.8756 80.2627 7.71366C80.2627 6.55172 80.4673 5.59275 80.8747 4.83892C81.2821 4.08501 81.8677 3.52619 82.6314 3.1603C83.3951 2.79643 84.3179 2.61349 85.4019 2.61349C86.4611 2.61349 87.3632 2.79238 88.1019 3.15228C88.8415 3.51008 89.402 4.05689 89.7812 4.79266C90.1605 5.52849 90.3498 6.45118 90.3498 7.5649L90.3498 8.32481L82.9043 8.32481C82.927 8.89374 83.0388 9.36618 83.2359 9.74407C83.433 10.122 83.7229 10.3974 84.1019 10.5703C84.4809 10.7432 84.9489 10.8297 85.5099 10.8297C85.7903 10.8297 86.0575 10.7955 86.3133 10.7271C86.5692 10.6588 86.8023 10.5543 87.0126 10.4115C87.2229 10.2688 87.3973 10.0939 87.5375 9.8828C87.6777 9.67374 87.7535 9.43246 87.7649 9.15909L90.3343 9.15909C90.3343 9.72802 90.215 10.2406 89.9766 10.699C89.7375 11.1573 89.4081 11.5393 88.9891 11.8489C88.5701 12.1585 88.0622 12.3957 87.4693 12.5626C86.8705 12.7294 86.2053 12.8139 85.4719 12.8139ZM82.9365 6.63817L87.6569 6.63817C87.6569 6.29237 87.602 5.98879 87.4901 5.72951C87.3802 5.47016 87.2248 5.25302 87.0277 5.08012C86.8288 4.90729 86.5957 4.78059 86.3285 4.70021C86.0594 4.61976 85.7638 4.57957 85.4379 4.57957C84.9376 4.57957 84.5093 4.65597 84.1531 4.8108C83.7968 4.96556 83.5201 5.19672 83.323 5.50637C83.1241 5.81791 82.9952 6.19385 82.9365 6.63817Z" fill="white"/>
<path d="M95.1387 12.8138C94.7312 12.8138 94.3236 12.7695 93.9141 12.6831C93.5065 12.5967 93.1428 12.4539 92.8228 12.2569C92.5029 12.0599 92.2428 11.7785 92.0462 11.4126C91.8468 11.0487 91.7484 10.5823 91.7484 10.0134C91.7484 9.28366 91.9114 8.69463 92.2375 8.24229C92.5635 7.79197 93.035 7.45224 93.6527 7.2231C94.2704 6.9939 95.002 6.84312 95.8473 6.76874C96.6921 6.69436 97.621 6.65815 98.6347 6.65815L98.6347 6.08321C98.6347 5.74949 98.5681 5.47409 98.434 5.25898C98.2993 5.04191 98.0911 4.87299 97.8049 4.74837C97.5186 4.62571 97.138 4.5634 96.6604 4.5634C96.2414 4.5634 95.883 4.60966 95.586 4.70211C95.2882 4.79463 95.0606 4.9152 94.9036 5.06396C94.746 5.21272 94.6665 5.38562 94.6665 5.58266L94.6665 5.80579L92.1499 5.80579C92.1384 5.73141 92.129 5.66911 92.1236 5.62082C92.1176 5.57059 92.1142 5.5103 92.1142 5.43592C92.1142 4.86699 92.294 4.37041 92.6558 3.94423C93.0182 3.51805 93.5449 3.1904 94.2381 2.96119C94.9319 2.73205 95.7618 2.61742 96.7284 2.61742C97.6951 2.61742 98.5074 2.72801 99.1669 2.95114C99.825 3.17428 100.329 3.52008 100.679 3.99049C101.028 4.46091 101.205 5.05998 101.205 5.78974L101.205 10.0737C101.205 10.2969 101.259 10.4657 101.371 10.5843C101.481 10.7009 101.62 10.7612 101.783 10.7612L102.515 10.7612L102.515 12.5042C102.387 12.5665 102.184 12.6308 101.904 12.6992C101.623 12.7675 101.297 12.8017 100.924 12.8017C100.492 12.8017 100.138 12.7434 99.8567 12.6248C99.5765 12.5082 99.3589 12.3474 99.2013 12.1423C99.0443 11.9373 98.9305 11.7001 98.8604 11.4287L98.7203 11.4287C98.4758 11.7001 98.174 11.9453 97.8197 12.1604C97.4633 12.3775 97.0619 12.5404 96.6126 12.6509C96.1653 12.7575 95.6729 12.8138 95.1387 12.8138ZM95.9059 10.8115C96.2434 10.8115 96.5728 10.7653 96.8935 10.6728C97.2134 10.5803 97.5017 10.4496 97.7591 10.2828C98.015 10.1159 98.2252 9.90483 98.3882 9.65151C98.5512 9.39823 98.6327 9.12283 98.6327 8.82734L98.6327 8.29057C97.7234 8.29057 96.948 8.33676 96.3074 8.42928C95.6675 8.52173 95.1744 8.67656 94.8315 8.89363C94.4887 9.11076 94.3162 9.4103 94.3162 9.79224C94.3162 10.0395 94.3863 10.2365 94.5264 10.3853C94.6665 10.5341 94.8578 10.6426 95.1023 10.709C95.3469 10.7773 95.6163 10.8115 95.9059 10.8115Z" fill="white"/>
<path d="M103.719 12.5907L103.719 2.83656L105.817 2.83656L106.027 4.30209L106.15 4.30209C106.395 3.91812 106.689 3.60051 107.033 3.34723C107.376 3.09389 107.747 2.90899 108.144 2.79037C108.54 2.67378 108.947 2.61343 109.368 2.61343C110.079 2.61343 110.679 2.74613 111.168 3.01148C111.657 3.27683 112.03 3.70706 112.286 4.30006L112.41 4.30006C112.665 3.9161 112.967 3.59849 113.309 3.34521C113.652 3.09186 114.032 2.90696 114.447 2.78835C114.859 2.67176 115.282 2.61147 115.714 2.61147C116.402 2.61147 116.987 2.73609 117.471 2.98134C117.954 3.22862 118.329 3.62465 118.599 4.16742C118.865 4.71222 119 5.40374 119 6.2441L119 12.5866L116.413 12.5866L116.413 6.70844C116.413 6.36271 116.376 6.06513 116.3 5.81792C116.224 5.57064 116.116 5.3736 115.976 5.22484C115.836 5.07609 115.658 4.97156 115.443 4.90926C115.227 4.84688 114.998 4.81674 114.754 4.81674C114.369 4.81674 114.016 4.91324 113.696 5.10421C113.376 5.29518 113.12 5.56862 112.927 5.92042C112.736 6.27222 112.639 6.6723 112.639 7.11655L112.639 12.5866L110.086 12.5866L110.086 6.70844C110.086 6.36271 110.044 6.06513 109.963 5.81785C109.881 5.57064 109.768 5.3736 109.622 5.22484C109.476 5.07609 109.301 4.97157 109.097 4.90926C108.893 4.84688 108.657 4.81674 108.388 4.81674C108.003 4.81674 107.651 4.91324 107.331 5.10421C107.011 5.29518 106.757 5.56862 106.571 5.92042C106.385 6.27222 106.29 6.6723 106.29 7.11655L106.29 12.5866L103.719 12.5866L103.719 12.5907Z" fill="white"/>
<path d="M13.8078 2.16117H17.5043V3.57447C17.5043 5.49125 15.9395 7.04047 14.0035 7.04047H13.8078V2.16117ZM8.54695 0.108459H13.8078V13.4499H13.1818C9.36824 13.4499 8.60543 10.8166 8.60543 8.4734L8.54695 0.108459ZM0 3.12938C0 5.51088 1.72089 6.38241 3.63756 6.67292H0V13.4886H3.50076C7.02135 13.4886 7.43174 11.9394 7.43174 10.4677C7.43174 8.66674 6.18023 7.40852 4.24374 6.92417H7.43174V0.108459H3.93098C0.410892 0.108459 0 1.65769 0 3.12938Z" fill="white"/>
</svg>

