<svg width="13036" height="3701" viewBox="0 0 13036 3701" fill="none" xmlns="http://www.w3.org/2000/svg">
<g clip-path="url(#clip0_2019_7)">
<mask id="mask0_2019_7" style="mask-type:luminance" maskUnits="userSpaceOnUse" x="0" y="658" width="13036" height="2011">
<path d="M13036 658H0V2669H13036V658Z" fill="white"/>
</mask>
<g mask="url(#mask0_2019_7)">
<path d="M1508.57 1661.01L1006.06 2163.39L1508.57 2665.78L2011.08 2163.39L1508.57 1661.01Z" fill="#170636"/>
<path d="M504.413 657.172L1.9043 1159.56L504.413 1661.95L1006.92 1159.56L504.413 657.172Z" fill="#170636"/>
<path d="M2512.73 657.172L2010.22 1159.56L2512.73 1661.95L3015.24 1159.56L2512.73 657.172Z" fill="#170636"/>
<path d="M2509.04 1661.71H1504.85L500.652 657.762H1504.85L2509.04 1661.71Z" fill="url(#paint0_linear_2019_7)"/>
<path d="M3556.44 1155.28H4780.02V1411.67H4313.45V2656.58H4023.01V1411.67H3556.44V1155.28Z" fill="#170636"/>
<path d="M5178.54 1560.08C5246.52 1519.92 5323.76 1501.39 5410.28 1498.3V1767.05C5292.87 1760.87 5197.08 1788.67 5126.01 1850.46C5054.95 1912.24 5020.96 1995.65 5020.96 2103.76V2656.71H4742.88V1510.65H5020.96V1729.98C5061.12 1655.84 5113.65 1600.24 5178.54 1560.08Z" fill="#170636"/>
<path d="M6257.04 2656.71V2517.7C6216.89 2567.12 6164.32 2604.19 6102.56 2632C6040.74 2656.71 5966.59 2669.06 5886.26 2669.06C5805.92 2669.06 5734.85 2653.62 5676.14 2622.73C5614.35 2591.84 5568 2548.59 5537.1 2496.07C5503.11 2440.47 5487.66 2381.78 5487.66 2313.82C5487.66 2205.7 5524.74 2122.3 5601.99 2060.52C5679.24 1998.73 5784.29 1967.84 5923.33 1967.84H6257.04V1936.95C6257.04 1868.99 6235.41 1816.48 6189.06 1779.41C6145.81 1742.34 6080.91 1723.8 5997.49 1723.8C5889.34 1723.8 5775.02 1760.87 5657.61 1831.92L5555.64 1640.4C5645.25 1590.97 5728.67 1553.9 5799.74 1532.28C5873.9 1510.65 5960.41 1498.3 6059.29 1498.3C6207.57 1498.3 6321.91 1535.37 6405.37 1606.42C6488.76 1677.47 6528.97 1776.32 6532.01 1906.06L6535.12 2656.71H6257.04ZM6158.17 2397.22C6213.79 2360.15 6247.78 2313.82 6253.93 2258.21V2156.28H5963.5C5889.34 2156.28 5833.73 2168.63 5799.74 2190.26C5765.75 2211.88 5747.21 2248.95 5747.21 2298.37C5747.21 2347.8 5765.75 2384.87 5802.83 2412.67C5839.9 2440.47 5889.34 2455.92 5951.14 2455.92C6031.48 2452.83 6099.45 2434.29 6158.17 2397.22Z" fill="#170636"/>
<path d="M7718.53 1618.77C7795.77 1699.09 7832.81 1804.12 7832.81 1940.04V2656.71H7551.68V2020.36C7551.68 1940.04 7530.06 1878.26 7483.7 1831.92C7437.34 1785.58 7375.51 1760.87 7298.27 1760.87C7205.62 1760.87 7131.42 1794.85 7078.91 1856.63C7026.4 1918.42 6998.57 1995.65 6998.57 2091.41V2653.62H6720.48V1510.65H6998.57V1723.8C7075.81 1575.52 7214.88 1501.39 7409.5 1498.3C7539.32 1498.3 7641.29 1538.45 7718.53 1618.77Z" fill="#170636"/>
<path d="M8620.76 1742.32C8562.03 1723.79 8506.42 1714.52 8457.01 1714.52C8410.66 1714.52 8373.56 1723.79 8345.78 1739.23C8317.94 1754.68 8302.53 1782.48 8302.53 1816.46C8302.53 1853.53 8321.05 1878.24 8355.04 1899.87C8389.03 1918.4 8444.65 1940.02 8521.89 1961.65C8602.24 1986.36 8667.11 2011.07 8719.62 2032.69C8772.19 2057.41 8815.44 2091.39 8852.48 2137.72C8889.58 2184.06 8908.1 2245.84 8908.1 2319.98C8908.1 2431.18 8864.85 2517.68 8778.35 2576.37C8691.85 2635.07 8583.72 2665.96 8453.91 2665.96C8364.3 2665.96 8277.8 2650.51 8194.35 2622.71C8110.95 2594.91 8039.86 2554.75 7981.2 2502.23L8076.96 2307.62C8129.47 2350.87 8191.3 2387.94 8262.33 2412.65C8333.42 2437.36 8401.4 2449.72 8466.27 2449.72C8518.78 2449.72 8558.99 2440.45 8589.87 2421.92C8620.76 2403.38 8636.23 2378.67 8636.23 2341.6C8636.23 2301.44 8617.65 2270.55 8583.66 2252.02C8546.62 2233.48 8491.01 2208.77 8410.66 2184.06C8333.42 2162.43 8271.59 2137.72 8222.18 2116.1C8172.72 2094.48 8132.58 2060.5 8095.48 2014.16C8058.44 1967.82 8042.97 1909.13 8042.97 1838.08C8042.97 1723.79 8083.11 1640.38 8166.57 1578.6C8249.96 1519.9 8351.93 1489.01 8475.53 1489.01C8552.77 1489.01 8626.97 1498.28 8701.1 1519.9C8775.24 1541.53 8840.18 1572.42 8895.79 1609.49L8793.82 1810.28C8738.2 1788.66 8679.48 1760.85 8620.76 1742.32Z" fill="#170636"/>
<path d="M9507.33 1328.31C9479.55 1353.03 9464.08 1390.09 9464.08 1436.43V1553.82H9751.42V1757.7H9464.08V2653.54H9186V1757.7H9034.56V1553.82H9186V1445.7C9186 1362.29 9204.51 1288.16 9241.61 1229.46C9278.71 1170.77 9328.11 1124.44 9389.94 1096.63C9451.71 1065.74 9519.69 1050.3 9593.83 1050.3C9664.92 1050.3 9736 1065.74 9803.99 1099.72L9754.52 1325.22C9695.8 1303.6 9649.44 1291.25 9612.41 1291.25C9572.2 1291.25 9535.17 1303.6 9507.33 1328.31Z" fill="#170636"/>
<path d="M10777.4 1655.84C10870.1 1760.87 10916.4 1906.06 10916.4 2094.5C10916.4 2131.56 10916.4 2159.37 10913.3 2177.9H10066.7C10085.3 2258.22 10122.3 2323.09 10181.1 2369.42C10239.8 2415.76 10310.8 2440.47 10394.3 2440.47C10453 2440.47 10508.6 2428.11 10561.1 2406.49C10613.6 2384.87 10660 2353.98 10700.1 2310.73L10851.6 2468.27C10792.8 2530.05 10724.9 2579.48 10641.5 2613.46C10558 2647.44 10468.4 2665.98 10369.5 2665.98C10252.1 2665.98 10150.2 2641.26 10060.6 2591.84C9970.96 2542.41 9902.97 2474.45 9853.51 2387.96C9804.11 2301.46 9779.38 2199.52 9779.38 2085.23C9779.38 1970.93 9804.11 1868.99 9853.51 1779.41C9902.97 1689.82 9970.96 1621.86 10060.6 1572.44C10150.2 1523.01 10249 1498.3 10363.4 1498.3C10548.7 1501.39 10684.7 1553.9 10777.4 1655.84ZM10660 1992.56C10656.9 1909.15 10629.1 1841.19 10576.6 1791.76C10524 1742.34 10453 1717.62 10366.4 1717.62C10286.1 1717.62 10218.2 1742.34 10162.5 1791.76C10106.9 1841.19 10072.9 1909.15 10060.6 1995.65H10660V1992.56Z" fill="#170636"/>
<path d="M11543.6 1560.08C11611.5 1519.92 11688.8 1501.39 11775.3 1498.3V1767.05C11657.8 1760.87 11562.1 1788.67 11491 1850.46C11420 1912.24 11386 1995.65 11386 2103.76V2656.71H11107.9V1510.65H11386V1729.98C11423 1655.84 11475.6 1600.24 11543.6 1560.08Z" fill="#170636"/>
<path d="M12748.7 1572.44C12838.3 1621.86 12909.4 1689.82 12961.9 1776.32C13011.3 1862.81 13039.1 1964.75 13039.1 2079.05C13039.1 2193.35 13014.4 2298.37 12961.9 2384.87C12912.5 2474.45 12841.4 2542.41 12748.7 2591.84C12659.1 2641.26 12554 2665.98 12433.5 2665.98C12313 2665.98 12208 2641.26 12115.3 2591.84C12022.5 2542.41 11951.5 2474.45 11902 2384.87C11852.6 2295.28 11824.8 2193.35 11824.8 2079.05C11824.8 1964.75 11849.5 1862.81 11902 1776.32C11951.5 1689.82 12022.5 1618.77 12115.3 1572.44C12208 1523.01 12313 1498.3 12433.5 1498.3C12550.9 1501.39 12656 1526.1 12748.7 1572.44ZM12198.7 1835.01C12140 1899.88 12109.1 1983.29 12109.1 2085.23C12109.1 2187.17 12140 2270.57 12198.7 2335.44C12257.4 2400.31 12337.7 2431.2 12433.5 2431.2C12529.3 2431.2 12603.4 2400.31 12665.3 2335.44C12724 2270.57 12754.9 2187.17 12754.9 2085.23C12754.9 1983.29 12724 1899.88 12665.3 1835.01C12606.5 1770.14 12529.3 1739.25 12433.5 1739.25C12337.7 1739.25 12257.4 1770.14 12198.7 1835.01Z" fill="#170636"/>
</g>
</g>
<defs>
<linearGradient id="paint0_linear_2019_7" x1="273.463" y1="-106.851" x2="4092.33" y2="3818.55" gradientUnits="userSpaceOnUse">
<stop stop-color="#7FFCED"/>
<stop offset="0.4497" stop-color="#3D3DFD"/>
<stop offset="1" stop-color="#170636"/>
</linearGradient>
<clipPath id="clip0_2019_7">
<rect width="13036" height="2011" fill="white" transform="translate(0 658)"/>
</clipPath>
</defs>
</svg>
