<svg width="667" height="201" viewBox="0 0 667 201" fill="none" xmlns="http://www.w3.org/2000/svg">
<g clip-path="url(#clip0_99_120)">
<path d="M87.4689 192.807C88.6523 193.577 90.1102 193.577 91.2936 192.807L159.344 148.52C160.527 147.75 161.256 146.327 161.256 144.787V56.2134C161.256 54.6732 160.527 53.2502 159.344 52.4799L91.2936 8.19342C90.1102 7.42332 88.6523 7.42332 87.4689 8.19342L19.4186 52.4799C18.2353 53.2502 17.5063 54.6732 17.5063 56.2134V144.787C17.5063 146.327 18.2353 147.75 19.4186 148.52L87.4689 192.807ZM87.4689 192.807L84.7995 198.018" stroke="black" stroke-width="30"/>
<path d="M89.1118 159.891V99.4461L42.0068 68.7901M135.197 69.4337L89.1136 99.4027" stroke="black" stroke-width="30" stroke-linecap="round" stroke-linejoin="round"/>
<path d="M232.663 86.5584V32.7822H215.624V24.028H258.26V32.7822H241.221V86.5584H232.663ZM257.359 86.5584V42.5189H265.363V47.7004H266.631C267.265 45.8541 268.268 44.5141 269.642 43.6804C271.068 42.7869 272.812 42.3404 274.872 42.3404H279.548V50.648H274.555C271.914 50.648 269.747 51.4817 268.057 53.1495C266.366 54.7571 265.521 57.2585 265.521 60.6531V86.5584H257.359ZM299.813 87.3624C296.855 87.3624 294.213 86.6178 291.888 85.1289C289.564 83.6405 287.741 81.5262 286.42 78.7868C285.1 76.0474 284.439 72.772 284.439 68.9607V42.5189H292.602V68.3352C292.602 72.1466 293.447 74.9754 295.138 76.8213C296.828 78.6083 299.179 79.5013 302.191 79.5013C305.519 79.5013 308.187 78.2508 310.195 75.7497C312.255 73.1889 313.285 69.5263 313.285 64.7621V42.5189H321.448V86.5584H313.444V79.9479H312.176C311.436 81.7348 310.116 83.4319 308.214 85.0399C306.312 86.5881 303.512 87.3624 299.813 87.3624ZM346.353 87.8089C341.386 87.8089 337.265 86.5584 333.99 84.0573C330.714 81.5559 328.707 77.7742 327.967 72.7123L335.575 70.6577C335.998 73.0994 336.711 75.0348 337.715 76.4643C338.718 77.8933 339.96 78.9059 341.439 79.5013C342.972 80.0971 344.609 80.3948 346.353 80.3948C348.941 80.3948 350.923 79.8291 352.296 78.6973C353.723 77.5659 354.436 76.1068 354.436 74.3203C354.436 72.5337 353.776 71.2234 352.455 70.3897C351.134 69.556 349.179 68.8712 346.59 68.3352L343.896 67.7992C341.254 67.2632 338.85 66.4893 336.684 65.4767C334.518 64.4644 332.801 63.0647 331.533 61.2781C330.265 59.4916 329.631 57.1987 329.631 54.4C329.631 50.2311 331.005 47.0151 333.752 44.7524C336.499 42.4299 340.145 41.2684 344.689 41.2684C349.074 41.2684 352.666 42.4002 355.466 44.6629C358.319 46.8663 360.169 49.8737 361.013 53.6851L353.406 56.0971C352.93 53.4175 351.927 51.5415 350.394 50.4695C348.862 49.3381 346.96 48.772 344.689 48.772C342.469 48.772 340.726 49.2486 339.458 50.2015C338.19 51.0945 337.556 52.3752 337.556 54.0425C337.556 55.8291 338.164 57.1394 339.379 57.9731C340.647 58.8068 342.337 59.4322 344.451 59.8491L347.224 60.3851C350.025 60.9211 352.587 61.6653 354.911 62.6181C357.237 63.571 359.059 64.9407 360.379 66.7272C361.753 68.5137 362.44 70.896 362.44 73.8737C362.44 78.2805 360.988 81.7047 358.08 84.1464C355.176 86.5881 351.266 87.8089 346.353 87.8089ZM382.621 86.5584C380.243 86.5584 378.343 85.7544 376.916 84.1464C375.542 82.5384 374.855 80.3948 374.855 77.7148V50.2909H364.077V42.5189H374.855V27.9585H383.016V42.5189H394.665V50.2909H383.016V76.1068C383.016 77.8933 383.756 78.7868 385.237 78.7868H393.398V86.5584H382.621ZM401.086 86.5584V24.028H409.248V86.5584H401.086ZM436.102 87.8089C432.141 87.8089 428.681 86.8858 425.72 85.0399C422.762 83.1342 420.438 80.4839 418.747 77.0893C417.11 73.6354 416.291 69.6455 416.291 65.1192V64.0476C416.291 59.4619 417.11 55.472 418.747 52.0775C420.384 48.6231 422.655 45.9732 425.563 44.1269C428.521 42.2212 431.931 41.2684 435.785 41.2684C439.537 41.2684 442.811 42.2212 445.612 44.1269C448.467 45.9732 450.684 48.5638 452.268 51.8985C453.855 55.2337 454.646 59.1345 454.646 63.6007V67.0847H424.613C424.716 70.9554 425.855 74.0523 428.019 76.3748C430.24 78.638 432.984 79.7693 436.262 79.7693C439.327 79.7693 441.622 78.995 443.156 77.4468C444.74 75.8986 445.958 74.112 446.801 72.0872L453.539 76.0177C452.798 77.6851 451.716 79.442 450.289 81.2879C448.915 83.1342 447.093 84.6824 444.819 85.9329C442.548 87.1839 439.643 87.8089 436.102 87.8089ZM424.691 60.0276H446.324C446.114 56.6928 445.057 54.1023 443.156 52.256C441.252 50.3503 438.771 49.3975 435.707 49.3975C432.642 49.3975 430.133 50.3503 428.179 52.256C426.275 54.1023 425.115 56.6928 424.691 60.0276ZM477.311 87.8089C472.346 87.8089 468.224 86.5584 464.95 84.0573C461.672 81.5559 459.664 77.7742 458.924 72.7123L466.533 70.6577C466.957 73.0994 467.669 75.0348 468.673 76.4643C469.676 77.8933 470.918 78.9059 472.399 79.5013C473.93 80.0971 475.567 80.3948 477.311 80.3948C479.898 80.3948 481.881 79.8291 483.255 78.6973C484.682 77.5659 485.394 76.1068 485.394 74.3203C485.394 72.5337 484.735 71.2234 483.411 70.3897C482.091 69.556 480.137 68.8712 477.549 68.3352L474.855 67.7992C472.214 67.2632 469.808 66.4893 467.644 65.4767C465.476 64.4644 463.761 63.0647 462.49 61.2781C461.223 59.4916 460.59 57.1987 460.59 54.4C460.59 50.2311 461.963 47.0151 464.711 44.7524C467.459 42.4299 471.104 41.2684 475.645 41.2684C480.03 41.2684 483.625 42.4002 486.426 44.6629C489.277 46.8663 491.128 49.8737 491.971 53.6851L484.365 56.0971C483.888 53.4175 482.885 51.5415 481.354 50.4695C479.82 49.3381 477.919 48.772 475.645 48.772C473.428 48.772 471.684 49.2486 470.417 50.2015C469.15 51.0945 468.516 52.3752 468.516 54.0425C468.516 55.8291 469.121 57.1394 470.338 57.9731C471.605 58.8068 473.296 59.4322 475.41 59.8491L478.183 60.3851C480.984 60.9211 483.547 61.6653 485.871 62.6181C488.195 63.571 490.017 64.9407 491.338 66.7272C492.712 68.5137 493.399 70.896 493.399 73.8737C493.399 78.2805 491.946 81.7047 489.038 84.1464C486.134 86.5881 482.223 87.8089 477.311 87.8089ZM515.779 87.8089C510.81 87.8089 506.689 86.5584 503.414 84.0573C500.14 81.5559 498.132 77.7742 497.392 72.7123L504.998 70.6577C505.422 73.0994 506.137 75.0348 507.141 76.4643C508.144 77.8933 509.383 78.9059 510.864 79.5013C512.398 80.0971 514.035 80.3948 515.779 80.3948C518.367 80.3948 520.349 79.8291 521.719 78.6973C523.147 77.5659 523.862 76.1068 523.862 74.3203C523.862 72.5337 523.2 71.2234 521.88 70.3897C520.559 69.556 518.605 68.8712 516.014 68.3352L513.32 67.7992C510.679 67.2632 508.276 66.4893 506.109 65.4767C503.945 64.4644 502.225 63.0647 500.958 61.2781C499.691 59.4916 499.054 57.1987 499.054 54.4C499.054 50.2311 500.428 47.0151 503.176 44.7524C505.923 42.4299 509.568 41.2684 514.113 41.2684C518.498 41.2684 522.09 42.4002 524.891 44.6629C527.745 46.8663 529.592 49.8737 530.439 53.6851L522.83 56.0971C522.356 53.4175 521.353 51.5415 519.819 50.4695C518.288 49.3381 516.384 48.772 514.113 48.772C511.896 48.772 510.152 49.2486 508.881 50.2015C507.614 51.0945 506.981 52.3752 506.981 54.0425C506.981 55.8291 507.589 57.1394 508.803 57.9731C510.07 58.8068 511.761 59.4322 513.875 59.8491L516.647 60.3851C519.449 60.9211 522.011 61.6653 524.335 62.6181C526.66 63.571 528.482 64.9407 529.806 66.7272C531.176 68.5137 531.863 70.896 531.863 73.8737C531.863 78.2805 530.411 81.7047 527.507 84.1464C524.599 86.5881 520.691 87.8089 515.779 87.8089ZM219.428 176.025V113.495H254.377V122.249H227.987V140.205H252.158V148.959H227.987V167.271H254.773V176.025H219.428ZM260.764 176.025V131.986H268.768V138.597H270.036C270.775 136.81 272.096 135.143 273.998 133.594C275.9 132.046 278.727 131.271 282.478 131.271C285.436 131.271 288.052 132.016 290.323 133.505C292.648 134.994 294.471 137.108 295.791 139.847C297.112 142.527 297.773 145.773 297.773 149.584V176.025H289.61V150.299C289.61 146.487 288.765 143.688 287.074 141.902C285.384 140.056 283.059 139.133 280.1 139.133C276.719 139.133 273.998 140.383 271.938 142.885C269.93 145.386 268.926 149.018 268.926 153.783V176.025H260.764ZM304.448 154.229V152.889C304.448 148.244 305.267 144.284 306.905 141.009C308.595 137.733 310.815 135.202 313.562 133.415C316.309 131.629 319.32 130.735 322.596 130.735C326.4 130.735 329.306 131.539 331.313 133.147C333.374 134.755 334.88 136.482 335.831 138.329H337.098V131.986H345.023V185.048C345.023 187.728 344.31 189.872 342.884 191.48C341.51 193.087 339.608 193.891 337.178 193.891H310.867V185.852H334.642C336.174 185.852 336.94 184.959 336.94 183.172V169.147H335.672C335.091 170.219 334.272 171.321 333.215 172.452C332.159 173.584 330.759 174.507 329.015 175.221C327.324 175.936 325.185 176.293 322.596 176.293C319.32 176.293 316.283 175.43 313.483 173.703C310.735 171.916 308.543 169.385 306.905 166.11C305.267 162.775 304.448 158.815 304.448 154.229ZM324.815 168.254C328.355 168.254 331.261 167.003 333.532 164.502C335.857 161.941 337.019 158.428 337.019 153.961V153.157C337.019 148.572 335.883 145.058 333.611 142.617C331.34 140.115 328.408 138.865 324.815 138.865C321.328 138.865 318.422 140.115 316.098 142.617C313.826 145.058 312.69 148.572 312.69 153.157V153.961C312.69 158.428 313.826 161.941 316.098 164.502C318.422 167.003 321.328 168.254 324.815 168.254ZM353.871 176.025V131.986H362.034V176.025H353.871ZM357.991 126.001C356.407 126.001 355.06 125.435 353.951 124.304C352.894 123.113 352.366 121.594 352.366 119.748C352.366 117.902 352.894 116.413 353.951 115.282C355.06 114.091 356.407 113.495 357.991 113.495C359.628 113.495 360.977 114.091 362.034 115.282C363.092 116.413 363.618 117.902 363.618 119.748C363.618 121.594 363.092 123.113 362.034 124.304C360.977 125.435 359.628 126.001 357.991 126.001ZM370.979 176.025V131.986H378.984V138.597H380.251C380.991 136.81 382.311 135.143 384.212 133.594C386.113 132.046 388.942 131.271 392.694 131.271C395.651 131.271 398.267 132.016 400.538 133.505C402.862 134.994 404.685 137.108 406.005 139.847C407.326 142.527 407.988 145.773 407.988 149.584V176.025H399.823V150.299C399.823 146.487 398.979 143.688 397.289 141.902C395.598 140.056 393.274 139.133 390.316 139.133C386.935 139.133 384.212 140.383 382.151 142.885C380.144 145.386 379.14 149.018 379.14 153.783V176.025H370.979ZM434.475 177.276C430.51 177.276 427.051 176.353 424.093 174.507C421.135 172.601 418.811 169.951 417.121 166.556C415.48 163.102 414.661 159.113 414.661 154.586V153.515C414.661 148.929 415.48 144.939 417.121 141.545C418.758 138.09 421.029 135.44 423.933 133.594C426.894 131.688 430.301 130.735 434.159 130.735C437.91 130.735 441.185 131.688 443.986 133.594C446.837 135.44 449.058 138.031 450.642 141.366C452.225 144.701 453.019 148.602 453.019 153.068V156.552H422.983C423.09 160.422 424.225 163.519 426.392 165.842C428.61 168.105 431.358 169.236 434.632 169.236C437.697 169.236 439.996 168.462 441.526 166.914C443.114 165.366 444.327 163.579 445.175 161.554L451.909 165.485C451.168 167.152 450.086 168.909 448.659 170.755C447.285 172.601 445.463 174.149 443.192 175.4C440.921 176.651 438.013 177.276 434.475 177.276ZM423.061 149.495H444.698C444.488 146.16 443.431 143.569 441.526 141.723C439.626 139.817 437.141 138.865 434.077 138.865C431.012 138.865 428.503 139.817 426.549 141.723C424.648 143.569 423.485 146.16 423.061 149.495ZM477.585 177.276C473.623 177.276 470.16 176.353 467.203 174.507C464.245 172.601 461.921 169.951 460.23 166.556C458.593 163.102 457.771 159.113 457.771 154.586V153.515C457.771 148.929 458.593 144.939 460.23 141.545C461.867 138.09 464.138 135.44 467.046 133.594C470.004 131.688 473.41 130.735 477.268 130.735C481.02 130.735 484.294 131.688 487.095 133.594C489.946 135.44 492.167 138.031 493.751 141.366C495.335 144.701 496.129 148.602 496.129 153.068V156.552H466.092C466.199 160.422 467.334 163.519 469.502 165.842C471.719 168.105 474.467 169.236 477.741 169.236C480.806 169.236 483.105 168.462 484.639 166.914C486.223 165.366 487.437 163.579 488.284 161.554L495.018 165.485C494.281 167.152 493.196 168.909 491.768 170.755C490.395 172.601 488.572 174.149 486.301 175.4C484.031 176.651 481.123 177.276 477.585 177.276ZM466.174 149.495H487.807C487.597 146.16 486.54 143.569 484.639 141.723C482.735 139.817 480.251 138.865 477.19 138.865C474.125 138.865 471.616 139.817 469.658 141.723C467.758 143.569 466.594 146.16 466.174 149.495ZM502.784 176.025V131.986H510.789V137.167H512.056C512.69 135.321 513.693 133.981 515.067 133.147C516.494 132.254 518.238 131.807 520.299 131.807H524.972V140.115H519.982C517.338 140.115 515.174 140.949 513.483 142.617C511.793 144.224 510.946 146.726 510.946 150.12V176.025H502.784ZM530.262 176.025V131.986H538.423V176.025H530.262ZM534.383 126.001C532.796 126.001 531.45 125.435 530.34 124.304C529.283 123.113 528.756 121.594 528.756 119.748C528.756 117.902 529.283 116.413 530.34 115.282C531.45 114.091 532.796 113.495 534.383 113.495C536.02 113.495 537.366 114.091 538.423 115.282C539.48 116.413 540.01 117.902 540.01 119.748C540.01 121.594 539.48 123.113 538.423 124.304C537.366 125.435 536.02 126.001 534.383 126.001ZM547.367 176.025V131.986H555.372V138.597H556.639C557.379 136.81 558.7 135.143 560.604 133.594C562.505 132.046 565.331 131.271 569.082 131.271C572.04 131.271 574.656 132.016 576.927 133.505C579.251 134.994 581.073 137.108 582.397 139.847C583.718 142.527 584.376 145.773 584.376 149.584V176.025H576.215V150.299C576.215 146.487 575.368 143.688 573.677 141.902C571.986 140.056 569.662 139.133 566.704 139.133C563.323 139.133 560.604 140.383 558.543 142.885C556.536 145.386 555.532 149.018 555.532 153.783V176.025H547.367ZM591.053 154.229V152.889C591.053 148.244 591.872 144.284 593.509 141.009C595.2 137.733 597.417 135.202 600.165 133.415C602.913 131.629 605.924 130.735 609.202 130.735C613.003 130.735 615.911 131.539 617.918 133.147C619.979 134.755 621.485 136.482 622.435 138.329H623.702V131.986H631.628V185.048C631.628 187.728 630.913 189.872 629.489 191.48C628.115 193.087 626.211 193.891 623.78 193.891H597.47V185.852H621.246C622.777 185.852 623.545 184.959 623.545 183.172V169.147H622.275C621.695 170.219 620.876 171.321 619.819 172.452C618.762 173.584 617.363 174.507 615.619 175.221C613.928 175.936 611.789 176.293 609.202 176.293C605.924 176.293 602.888 175.43 600.087 173.703C597.339 171.916 595.146 169.385 593.509 166.11C591.872 162.775 591.053 158.815 591.053 154.229ZM611.419 168.254C614.961 168.254 617.865 167.003 620.136 164.502C622.46 161.941 623.624 158.428 623.624 153.961V153.157C623.624 148.572 622.488 145.058 620.214 142.617C617.943 140.115 615.01 138.865 611.419 138.865C607.931 138.865 605.027 140.115 602.703 142.617C600.428 145.058 599.293 148.572 599.293 153.157V153.961C599.293 158.428 600.428 161.941 602.703 164.502C605.027 167.003 607.931 168.254 611.419 168.254Z" fill="black"/>
</g>
<defs>
<clipPath id="clip0_99_120">
<rect width="667" height="201" fill="white"/>
</clipPath>
</defs>
</svg>
