<svg width="95" height="21" viewBox="0 0 95 21" fill="none" xmlns="http://www.w3.org/2000/svg">
<g clip-path="url(#clip0_270_834)">
<mask id="mask0_270_834" style="mask-type:luminance" maskUnits="userSpaceOnUse" x="0" y="0" width="95" height="21">
<path d="M94.9498 0H0V20.898H94.9498V0Z" fill="white"/>
</mask>
<g mask="url(#mask0_270_834)">
<mask id="mask1_270_834" style="mask-type:luminance" maskUnits="userSpaceOnUse" x="0" y="0" width="95" height="21">
<path d="M0 0H94.9498V20.898H0V0Z" fill="white"/>
</mask>
<g mask="url(#mask1_270_834)">
<g opacity="0.5">
<mask id="mask2_270_834" style="mask-type:luminance" maskUnits="userSpaceOnUse" x="1" y="0" width="20" height="20">
<g opacity="0.5">
<path d="M1.8241 19.0751H20.6343V0H1.8241V19.0751Z" fill="white"/>
</g>
</mask>
<g mask="url(#mask2_270_834)">
<path d="M20.548 9.53754C20.548 14.7566 16.3757 18.9875 11.2292 18.9875C6.08264 18.9875 1.9104 14.7566 1.9104 9.53754C1.9104 4.31852 6.08264 0.0875397 11.2292 0.0875397C16.3757 0.0875397 20.548 4.31852 20.548 9.53754Z" stroke="white" stroke-width="2" stroke-miterlimit="10"/>
</g>
</g>
<g opacity="0.300003">
<mask id="mask3_270_834" style="mask-type:luminance" maskUnits="userSpaceOnUse" x="4" y="2" width="15" height="15">
<g opacity="0.300003">
<path d="M4.23999 16.625H18.2182V2.44999H4.23999V16.625Z" fill="white"/>
</g>
</mask>
<g mask="url(#mask3_270_834)">
<path d="M18.1319 9.53752C18.1319 13.4034 15.0414 16.5375 11.2291 16.5375C7.41668 16.5375 4.32629 13.4034 4.32629 9.53752C4.32629 5.67159 7.41668 2.53752 11.2291 2.53752C15.0414 2.53752 18.1319 5.67159 18.1319 9.53752Z" stroke="white" stroke-width="2" stroke-miterlimit="10"/>
</g>
</g>
<path d="M10.8977 8.26452C10.2795 8.26452 9.763 8.69992 9.6265 9.28442H7.59293C7.74531 7.56907 9.16643 6.22454 10.8977 6.22454L11.4005 5.81662H0.403132C0.0445305 5.81662 -0.134943 6.25604 0.118563 6.51312L3.16028 9.59767C3.34891 9.78894 3.60466 9.8964 3.87145 9.8964H4.96347H7.59293H9.6265C9.763 10.4809 10.2795 10.9163 10.8977 10.9163C11.6199 10.9163 12.205 10.3227 12.205 9.59049C12.205 8.85812 11.6199 8.26452 10.8977 8.26452Z" fill="white"/>
<path d="M9.76554 10.2534C10.0744 10.7963 10.7047 11.0322 11.2719 10.8598L12.2889 12.6458C10.7476 13.3695 8.88906 12.7939 8.02344 11.2733L7.42358 11.0357L12.9224 20.6939C13.1015 21.0085 13.5664 20.9466 13.6592 20.5956L14.7727 16.382C14.8417 16.1207 14.8054 15.8423 14.6723 15.6079L14.1262 14.6489L12.8114 12.3398L11.7946 10.5537C12.2257 10.1418 12.3391 9.47031 12.0302 8.92746C11.669 8.29343 10.8693 8.07608 10.2439 8.44217C9.61868 8.80828 9.40435 9.61924 9.76554 10.2534Z" fill="white"/>
<path d="M12.0302 10.2532C12.3391 9.7104 12.2257 9.03909 11.7946 8.62697L12.8114 6.84092C14.2002 7.83264 14.6377 9.75275 13.7723 11.2732L13.8691 11.9189L19.3681 2.26065C19.5472 1.946 19.2616 1.56853 18.9152 1.66267L14.7603 2.79159C14.5026 2.8616 14.283 3.03257 14.1495 3.2669L13.6035 4.22589L12.2889 6.53503L11.2719 8.32089C10.7047 8.14852 10.0745 8.3846 9.76555 8.92727C9.40437 9.56147 9.61871 10.3724 10.2439 10.7385C10.8693 11.1048 11.669 10.8874 12.0302 10.2532Z" fill="white"/>
<path d="M33.993 6.0824C34.1794 6.0824 34.2788 6.1706 34.2788 6.3596V7.59459C34.2788 7.78359 34.1794 7.88438 33.993 7.88438H30.0911V14.6258C30.0911 14.8148 30.0041 14.903 29.8178 14.903H28.4633C28.2769 14.903 28.19 14.8148 28.19 14.6258V7.88438H24.2884C24.102 7.88438 24.0023 7.78359 24.0023 7.59459V6.3596C24.0023 6.1706 24.102 6.0824 24.2884 6.0824H33.993Z" fill="white"/>
<path d="M37.1107 6.0824C37.2971 6.0824 37.3843 6.1706 37.3843 6.3596V11.3874C37.3843 12.7231 37.7571 13.1137 39.0369 13.1137H42.4789C43.7586 13.1137 44.1192 12.7231 44.1192 11.3874V6.3596C44.1192 6.1706 44.2062 6.0824 44.3926 6.0824H45.747C45.9334 6.0824 46.0204 6.1706 46.0204 6.3596V11.5765C46.0204 13.9958 45.0635 14.903 42.541 14.903H38.9623C36.4525 14.903 35.4829 13.9958 35.4829 11.5765V6.3596C35.4829 6.1706 35.5824 6.0824 35.7688 6.0824H37.1107Z" fill="white"/>
<path d="M49.5481 10.581H54.3073C55.1524 10.581 55.4629 10.2156 55.4629 9.45939V8.93018C55.4629 8.17418 55.1524 7.80878 54.3073 7.80878H49.7097C49.5978 7.80878 49.5481 7.85919 49.5481 7.95999V10.581ZM54.6926 6.0824C56.5937 6.0824 57.3643 6.977 57.3643 8.67818V9.39638C57.3643 10.833 56.8173 11.6773 55.5127 11.9167L57.6376 14.588C57.7122 14.6762 57.6995 14.903 57.4759 14.903H55.8729C55.6618 14.903 55.5995 14.8526 55.5251 14.7392L53.5618 12.1183H49.5481V14.6258C49.5481 14.8148 49.461 14.903 49.2747 14.903H47.9328C47.7464 14.903 47.6469 14.8148 47.6469 14.6258V6.4604C47.6469 6.2084 47.7712 6.0824 48.0197 6.0824H54.6926Z" fill="white"/>
<path d="M60.7928 11.1228V13.0004C60.7928 13.1138 60.8425 13.1641 60.9546 13.1641H66.0491C66.7076 13.1641 66.9685 12.9248 66.9685 12.3956V11.9168C66.9685 11.4 66.7076 11.1228 65.8874 11.1228H60.7928ZM60.7928 9.74921H65.8874C66.7076 9.74921 66.9561 9.49721 66.9561 9.00581V8.57741C66.9561 8.06064 66.6828 7.82141 66.0367 7.82141H60.9546C60.8425 7.82141 60.7928 7.87164 60.7928 7.98521V9.74921ZM66.4218 6.08244C68.1368 6.08244 68.7829 6.76284 68.7829 8.16161V8.76641C68.7829 9.48461 68.5095 10.014 67.9874 10.3668C68.5716 10.707 68.845 11.2488 68.845 11.9924V12.7232C68.845 14.059 68.2983 14.9032 66.6455 14.9032H59.2645C59.0158 14.9032 58.8916 14.7772 58.8916 14.5252V6.46044C58.8916 6.20844 59.0158 6.08244 59.2645 6.08244H66.4218Z" fill="white"/>
<path d="M71.9379 6.0824C72.1243 6.0824 72.2114 6.1706 72.2114 6.3596V14.6258C72.2114 14.8148 72.1243 14.903 71.9379 14.903H70.596C70.4096 14.903 70.3101 14.8148 70.3101 14.6258V6.3596C70.3101 6.1706 70.4096 6.0824 70.596 6.0824H71.9379Z" fill="white"/>
<path d="M76.0756 6.0824C76.8708 6.0824 77.0447 6.1832 77.517 6.82599L82.1395 12.9751C82.1768 13.0383 82.2265 13.0635 82.301 13.0635H82.4129C82.475 13.0635 82.5123 13.0255 82.5123 12.9373V6.3596C82.5123 6.1706 82.5993 6.0824 82.7858 6.0824H84.0904C84.2768 6.0824 84.3637 6.1706 84.3637 6.3596V13.5926C84.3637 14.6132 84.0033 14.903 83.2455 14.903H82.1768C81.4189 14.903 81.2325 14.8274 80.7352 14.1596L76.1004 8.01039C76.0505 7.94739 76.0135 7.92219 75.9389 7.92219H75.8271C75.7525 7.92219 75.7274 7.95999 75.7274 8.04819V14.6258C75.7274 14.8148 75.6404 14.903 75.4541 14.903H74.1494C73.963 14.903 73.8636 14.8148 73.8636 14.6258V7.39299C73.8636 6.3722 74.224 6.0824 74.9819 6.0824H76.0756Z" fill="white"/>
<path d="M92.5267 6.0824C94.2415 6.0824 94.8876 6.7628 94.8876 8.16158V8.76638C94.8876 9.45938 94.639 10.0014 94.1545 10.3668C94.7012 10.7196 94.9497 11.2741 94.9497 11.9923V12.7231C94.9497 14.0588 94.3906 14.903 92.7504 14.903H86.0898C85.9034 14.903 85.8164 14.8148 85.8164 14.6258V13.5044C85.8164 13.3154 85.9034 13.2272 86.0898 13.2272H92.1912C92.8373 13.2272 93.1107 12.9877 93.1107 12.4459V11.9797C93.1107 11.4631 92.8498 11.1732 92.0295 11.1732H86.1646C85.9782 11.1732 85.8788 11.085 85.8788 10.896V10.0014C85.8788 9.81236 85.9782 9.72416 86.1646 9.72416H92.0295C92.8498 9.72416 93.0983 9.45938 93.0983 8.96799V8.52698C93.0983 7.99778 92.8249 7.75839 92.1661 7.75839H86.0898C85.9034 7.75839 85.8164 7.67019 85.8164 7.48119V6.3596C85.8164 6.1706 85.9034 6.0824 86.0898 6.0824H92.5267Z" fill="white"/>
</g>
</g>
</g>
<defs>
<clipPath id="clip0_270_834">
<rect width="95" height="21" fill="white"/>
</clipPath>
</defs>
</svg>
