<svg width="734" height="160" viewBox="0 0 734 160" fill="none" xmlns="http://www.w3.org/2000/svg">
<g clip-path="url(#clip0_356_54)">
<mask id="mask0_356_54" style="mask-type:luminance" maskUnits="userSpaceOnUse" x="0" y="0" width="734" height="160">
<path d="M733.612 0H0V159.223H733.612V0Z" fill="white"/>
</mask>
<g mask="url(#mask0_356_54)">
<mask id="mask1_356_54" style="mask-type:luminance" maskUnits="userSpaceOnUse" x="0" y="0" width="734" height="160">
<path d="M0 0H733.612V159.223H0V0Z" fill="white"/>
</mask>
<g mask="url(#mask1_356_54)">
<g opacity="0.5">
<mask id="mask2_356_54" style="mask-type:luminance" maskUnits="userSpaceOnUse" x="14" y="0" width="146" height="146">
<g opacity="0.5">
<path d="M14.0933 145.334H159.427V1.52588e-05H14.0933V145.334Z" fill="white"/>
</g>
</mask>
<g mask="url(#mask2_356_54)">
<path d="M158.76 72.667C158.76 112.431 126.524 144.667 86.7603 144.667C46.9963 144.667 14.7603 112.431 14.7603 72.667C14.7603 32.903 46.9963 0.666985 86.7603 0.666985C126.524 0.666985 158.76 32.903 158.76 72.667Z" stroke="#00FF7E" stroke-width="2" stroke-miterlimit="10"/>
</g>
</g>
<g opacity="0.300003">
<mask id="mask3_356_54" style="mask-type:luminance" maskUnits="userSpaceOnUse" x="32" y="18" width="109" height="109">
<g opacity="0.300003">
<path d="M32.7598 126.667H140.76V18.6666H32.7598V126.667Z" fill="white"/>
</g>
</mask>
<g mask="url(#mask3_356_54)">
<path d="M140.093 72.6668C140.093 102.121 116.215 126 86.7601 126C57.3041 126 33.4268 102.121 33.4268 72.6668C33.4268 43.2121 57.3041 19.3335 86.7601 19.3335C116.215 19.3335 140.093 43.2121 140.093 72.6668Z" stroke="#00FF7E" stroke-width="2" stroke-miterlimit="10"/>
</g>
</g>
<path d="M84.1992 62.9678C79.4232 62.9678 75.4325 66.2851 74.3778 70.7384H58.6658C59.8432 57.6691 70.8232 47.4251 84.1992 47.4251L88.0845 44.3171H3.11518C0.344512 44.3171 -1.04216 47.6651 0.916508 49.6238L24.4178 73.1251C25.8752 74.5824 27.8512 75.4011 29.9125 75.4011H38.3498H58.6658H74.3778C75.4325 79.8544 79.4232 83.1718 84.1992 83.1718C89.7792 83.1718 94.3005 78.6491 94.3005 73.0704C94.3005 67.4904 89.7792 62.9678 84.1992 62.9678Z" fill="#00FF7E"/>
<path d="M75.4521 78.1214C77.8388 82.2574 82.7081 84.0547 87.0908 82.7413L94.9481 96.3493C83.0401 101.863 68.6801 97.4774 61.9921 85.892L57.3574 84.0813L99.8428 157.668C101.227 160.065 104.819 159.593 105.536 156.919L114.139 124.815C114.672 122.824 114.392 120.703 113.363 118.917L109.144 111.611L98.9854 94.0173L91.1294 80.4094C94.4601 77.2707 95.3361 72.1547 92.9494 68.0187C90.1588 63.188 83.9801 61.532 79.1481 64.3213C74.3174 67.1107 72.6614 73.2894 75.4521 78.1214Z" fill="#00FF7E"/>
<path d="M92.9493 78.12C95.3359 73.984 94.4599 68.8693 91.1293 65.7293L98.9853 52.1213C109.715 59.6773 113.096 74.3067 106.409 85.8907L107.157 90.8107L149.644 17.224C151.028 14.8267 148.821 11.9507 146.145 12.668L114.043 21.2693C112.052 21.8027 110.355 23.1053 109.324 24.8907L105.105 32.1973L94.9479 49.7907L87.0906 63.3973C82.7079 62.084 77.8386 63.8827 75.4519 68.0173C72.6613 72.8493 74.3173 79.028 79.1479 81.8173C83.9799 84.608 90.1586 82.952 92.9493 78.12Z" fill="#00FF7E"/>
<path d="M262.641 46.3421C264.081 46.3421 264.849 47.0141 264.849 48.4541V57.8635C264.849 59.3035 264.081 60.0715 262.641 60.0715H232.494V111.435C232.494 112.875 231.822 113.547 230.382 113.547H219.917C218.477 113.547 217.805 112.875 217.805 111.435V60.0715H187.66C186.22 60.0715 185.45 59.3035 185.45 57.8635V48.4541C185.45 47.0141 186.22 46.3421 187.66 46.3421H262.641Z" fill="#00FF7E"/>
<path d="M286.729 46.3421C288.169 46.3421 288.843 47.0141 288.843 48.4541V86.7608C288.843 96.9381 291.723 99.9142 301.611 99.9142H328.205C338.093 99.9142 340.879 96.9381 340.879 86.7608V48.4541C340.879 47.0141 341.551 46.3421 342.991 46.3421H353.456C354.896 46.3421 355.568 47.0141 355.568 48.4541V88.2022C355.568 106.635 348.175 113.547 328.685 113.547H301.035C281.643 113.547 274.152 106.635 274.152 88.2022V48.4541C274.152 47.0141 274.921 46.3421 276.361 46.3421H286.729Z" fill="#00FF7E"/>
<path d="M382.825 80.6168H419.596C426.125 80.6168 428.524 77.8328 428.524 72.0715V68.0395C428.524 62.2795 426.125 59.4955 419.596 59.4955H384.073C383.209 59.4955 382.825 59.8795 382.825 60.6475V80.6168ZM422.573 46.3421C437.261 46.3421 443.215 53.1581 443.215 66.1195V71.5915C443.215 82.5368 438.989 88.9701 428.909 90.7941L445.327 111.147C445.903 111.819 445.805 113.547 444.077 113.547H431.692C430.061 113.547 429.58 113.163 429.005 112.299L413.836 92.3301H382.825V111.435C382.825 112.875 382.152 113.547 380.712 113.547H370.344C368.904 113.547 368.135 112.875 368.135 111.435V49.2221C368.135 47.3021 369.096 46.3421 371.016 46.3421H422.573Z" fill="#00FF7E"/>
<path d="M469.704 84.7451V99.0504C469.704 99.9144 470.088 100.298 470.954 100.298H510.316C515.404 100.298 517.42 98.4744 517.42 94.4424V90.7944C517.42 86.8571 515.404 84.7451 509.067 84.7451H469.704ZM469.704 74.2797H509.067C515.404 74.2797 517.324 72.3597 517.324 68.6157V65.3517C517.324 61.4144 515.212 59.5917 510.22 59.5917H470.954C470.088 59.5917 469.704 59.9744 469.704 60.8397V74.2797ZM513.196 46.3424C526.446 46.3424 531.438 51.5264 531.438 62.1837V66.7917C531.438 72.2637 529.326 76.2971 525.292 78.9851C529.806 81.5771 531.918 85.7051 531.918 91.3704V96.9384C531.918 107.116 527.694 113.548 514.924 113.548H457.896C455.975 113.548 455.015 112.588 455.015 110.668V49.2224C455.015 47.3024 455.975 46.3424 457.896 46.3424H513.196Z" fill="#00FF7E"/>
<path d="M555.815 46.3421C557.255 46.3421 557.928 47.0141 557.928 48.4541V111.435C557.928 112.875 557.255 113.547 555.815 113.547H545.447C544.007 113.547 543.238 112.875 543.238 111.435V48.4541C543.238 47.0141 544.007 46.3421 545.447 46.3421H555.815Z" fill="#00FF7E"/>
<path d="M587.784 46.3421C593.928 46.3421 595.272 47.1101 598.921 52.0075L634.636 98.8582C634.924 99.3395 635.308 99.5315 635.884 99.5315H636.748C637.228 99.5315 637.516 99.2422 637.516 98.5702V48.4541C637.516 47.0141 638.188 46.3421 639.629 46.3421H649.709C651.149 46.3421 651.821 47.0141 651.821 48.4541V103.563C651.821 111.339 649.036 113.547 643.181 113.547H634.924C629.068 113.547 627.628 112.971 623.786 107.883L587.976 61.0315C587.59 60.5515 587.304 60.3595 586.728 60.3595H585.864C585.288 60.3595 585.094 60.6475 585.094 61.3195V111.435C585.094 112.875 584.422 113.547 582.982 113.547H572.902C571.462 113.547 570.694 112.875 570.694 111.435V56.3275C570.694 48.5501 573.478 46.3421 579.334 46.3421H587.784Z" fill="#00FF7E"/>
<path d="M714.891 46.3421C728.14 46.3421 733.132 51.5261 733.132 62.1835V66.7915C733.132 72.0715 731.211 76.2008 727.468 78.9848C731.692 81.6728 733.612 85.8981 733.612 91.3702V96.9381C733.612 107.115 729.292 113.547 716.619 113.547H665.157C663.717 113.547 663.045 112.875 663.045 111.435V102.891C663.045 101.451 663.717 100.779 665.157 100.779H712.299C717.291 100.779 719.403 98.9541 719.403 94.8261V91.2742C719.403 87.3382 717.387 85.1288 711.049 85.1288H665.735C664.295 85.1288 663.527 84.4568 663.527 83.0168V76.2008C663.527 74.7608 664.295 74.0888 665.735 74.0888H711.049C717.387 74.0888 719.307 72.0715 719.307 68.3275V64.9675C719.307 60.9355 717.195 59.1115 712.105 59.1115H665.157C663.717 59.1115 663.045 58.4395 663.045 56.9995V48.4541C663.045 47.0141 663.717 46.3421 665.157 46.3421H714.891Z" fill="#00FF7E"/>
</g>
</g>
</g>
<defs>
<clipPath id="clip0_356_54">
<rect width="734" height="160" fill="white"/>
</clipPath>
</defs>
</svg>
