<svg width="254" height="214" viewBox="0 0 254 214" fill="none" xmlns="http://www.w3.org/2000/svg">
<g clip-path="url(#clip0_99_102)">
<g opacity="0.5">
<mask id="mask0_99_102" style="mask-type:luminance" maskUnits="userSpaceOnUse" x="18" y="0" width="236" height="202">
<g opacity="0.5">
<path d="M18.6763 201.412H254V0H18.6763V201.412Z" fill="white"/>
</g>
</mask>
<g mask="url(#mask0_99_102)">
<path d="M249.539 99.3772C249.539 152.035 198.871 194.724 136.37 194.724C73.8692 194.724 23.2012 152.035 23.2012 99.3772C23.2012 46.7193 73.8692 4.03027 136.37 4.03027C198.871 4.03027 249.539 46.7193 249.539 99.3772Z" stroke="#00FF7E" stroke-miterlimit="10"/>
</g>
</g>
<g opacity="0.300003">
<mask id="mask1_99_102" style="mask-type:luminance" maskUnits="userSpaceOnUse" x="51" y="27" width="171" height="144">
<g opacity="0.300003">
<path d="M51.4927 170.888H221.246V27.8666H51.4927V170.888Z" fill="white"/>
</g>
</mask>
<g mask="url(#mask1_99_102)">
<path d="M220.199 99.3772C220.199 138.383 182.667 170.004 136.37 170.004C90.0715 170.004 52.5415 138.383 52.5415 99.3772C52.5415 60.3713 90.0715 28.7498 136.37 28.7498C182.667 28.7498 220.199 60.3713 220.199 99.3772Z" stroke="#00FF7E" stroke-width="0.561059" stroke-miterlimit="10"/>
</g>
</g>
<path d="M132.344 86.5328C124.837 86.5328 118.565 90.9261 116.907 96.8234H92.211C94.0618 79.5162 111.32 65.9504 132.344 65.9504L138.451 61.8347H4.89716C0.542268 61.8347 -1.63729 66.2683 1.44133 68.8621L38.3805 99.984C40.671 101.914 43.7769 102.998 47.0169 102.998H60.2787H92.211H116.907C118.565 108.896 124.837 113.288 132.344 113.288C141.115 113.288 148.221 107.299 148.221 99.9116C148.221 92.5223 141.115 86.5328 132.344 86.5328Z" fill="#00FF7E"/>
<path d="M118.596 106.6C122.348 112.077 130.001 114.458 136.89 112.719L149.24 130.739C130.523 138.04 107.952 132.233 97.4398 116.891L90.1553 114.493L156.933 211.941C159.108 215.116 164.754 214.491 165.882 210.949L179.403 168.435C180.242 165.798 179.802 162.989 178.184 160.625L171.553 150.949L155.586 127.651L143.238 109.63C148.473 105.474 149.85 98.699 146.098 93.2218C141.712 86.8245 132 84.6316 124.406 88.3253C116.813 92.0193 114.21 100.201 118.596 106.6Z" fill="#00FF7E"/>
<path d="M146.097 106.598C149.849 101.121 148.472 94.3482 143.237 90.1899L155.585 72.1693C172.449 82.1757 177.764 101.549 167.254 116.889L168.43 123.404L235.21 25.9561C237.385 22.7814 233.916 18.9728 229.711 19.9228L179.252 31.3132C176.123 32.0194 173.455 33.7446 171.835 36.1087L165.204 45.7846L149.239 69.0829L136.889 87.1017C130 85.3627 122.347 87.7444 118.595 93.2199C114.209 99.6189 116.812 107.801 124.405 111.495C132 115.19 141.711 112.997 146.097 106.598Z" fill="#00FF7E"/>
</g>
<defs>
<clipPath id="clip0_99_102">
<rect width="254" height="214" fill="white"/>
</clipPath>
</defs>
</svg>
