<svg width="67" height="28" viewBox="0 0 67 28" fill="none" xmlns="http://www.w3.org/2000/svg">
<path d="M29.1972 5.40051L29.3305 6.33245L29.5258 5.49268L30.8989 0.561619H31.671L33.0106 5.49268L33.2009 6.34695L33.3484 5.39539L34.4256 0.561619H35.3461L33.6636 7.62794H32.8295L31.3994 2.4784L31.2896 1.93989L31.1798 2.4784L29.6968 7.62794H28.8627L27.1844 0.561619H28.0999L29.1964 5.40051H29.1972Z" fill="white"/>
<path d="M38.2171 7.72523C37.518 7.72523 36.9488 7.49139 36.5104 7.02372C36.0719 6.55604 35.8523 5.93134 35.8523 5.1479V4.98319C35.8523 4.4626 35.9504 3.99749 36.1457 3.58785C36.341 3.17821 36.6143 2.85817 36.9656 2.6269C37.3168 2.39562 37.6974 2.27955 38.1073 2.27955C38.7779 2.27955 39.2994 2.50486 39.6707 2.95461C40.0429 3.40436 40.2282 4.04869 40.2282 4.8859V5.2597H36.7342C36.7468 5.77772 36.8951 6.1959 37.1802 6.51423C37.4643 6.83255 37.8265 6.99214 38.2649 6.99214C38.5759 6.99214 38.84 6.92728 39.0563 6.79841C39.2725 6.66869 39.4612 6.49716 39.6238 6.2838L40.1628 6.71051C39.7303 7.38642 39.0822 7.72523 38.218 7.72523H38.2171ZM38.1073 3.01776C37.751 3.01776 37.4526 3.15004 37.2112 3.41375C36.9697 3.67746 36.8205 4.04699 36.7627 4.52234H39.3463V4.45407C39.3212 3.99749 39.2004 3.64417 38.9842 3.39327C38.7679 3.14236 38.4753 3.01691 38.1073 3.01691V3.01776Z" fill="white"/>
<path d="M45.6162 5.06085C45.6162 5.86307 45.4351 6.50825 45.073 6.9947C44.7108 7.482 44.2246 7.72523 43.6143 7.72523C42.963 7.72523 42.4592 7.49054 42.1029 7.02116L42.0601 7.62794H41.2495V0.173313H42.1314V2.95461C42.4877 2.50486 42.9781 2.27955 43.6043 2.27955C44.2305 2.27955 44.7226 2.52107 45.0797 3.0024C45.4376 3.48458 45.6162 4.14428 45.6162 4.98234V5.06V5.06085ZM44.7343 4.9593C44.7343 4.34739 44.6186 3.87545 44.3864 3.54176C44.1542 3.20893 43.8206 3.04166 43.3855 3.04166C42.8037 3.04166 42.3862 3.31646 42.1314 3.86692V6.13872C42.4013 6.68918 42.823 6.96398 43.3947 6.96398C43.8172 6.96398 44.1467 6.79756 44.3814 6.46388C44.6161 6.13019 44.7343 5.62923 44.7343 4.9593Z" fill="white"/>
<path d="M47.9187 3.65782H48.5818C48.9985 3.65099 49.3254 3.54005 49.5635 3.32328C49.8015 3.10651 49.9214 2.81379 49.9214 2.44511C49.9214 1.61644 49.5165 1.20253 48.7059 1.20253C48.3245 1.20253 48.0202 1.31348 47.793 1.53537C47.5658 1.75725 47.4518 2.05083 47.4518 2.41609H46.5699C46.5699 1.85625 46.7711 1.39113 47.1727 1.02075C47.575 0.650366 48.0856 0.465176 48.7051 0.465176C49.3598 0.465176 49.8728 0.641832 50.245 0.994295C50.6172 1.34676 50.8025 1.83747 50.8025 2.46474C50.8025 2.77197 50.7044 3.06981 50.5091 3.35742C50.3137 3.64502 50.0472 3.86093 49.7102 4.0026C50.0916 4.12549 50.3867 4.32946 50.5946 4.6145C50.8025 4.89955 50.9064 5.24689 50.9064 5.65824C50.9064 6.29233 50.7027 6.79585 50.2961 7.16794C49.8896 7.54003 49.3598 7.72607 48.7084 7.72607C48.0571 7.72607 47.5273 7.54686 47.1182 7.18757C46.7099 6.82828 46.5054 6.35463 46.5054 5.76577H47.3923C47.3923 6.13786 47.5113 6.43571 47.7494 6.65845C47.9875 6.88204 48.3069 6.99299 48.7076 6.99299C49.1334 6.99299 49.4595 6.87948 49.685 6.65332C49.9105 6.42717 50.0237 6.10202 50.0237 5.67787C50.0237 5.25372 49.8996 4.95161 49.6515 4.73142C49.4034 4.51124 49.0462 4.39859 48.5785 4.39176H47.9154V3.65867L47.9187 3.65782Z" fill="white"/>
<path d="M32.5347 17.3279V10.2616H34.8039C35.5567 10.2616 36.1234 10.4203 36.5032 10.737C36.8829 11.0544 37.0732 11.523 37.0732 12.1443C37.0732 12.4745 36.981 12.7664 36.7966 13.0199C36.6121 13.2742 36.3615 13.4705 36.0438 13.6096C36.4185 13.7163 36.7152 13.9194 36.9332 14.2189C37.1512 14.5185 37.2601 14.8752 37.2601 15.2891C37.2601 15.9232 37.0581 16.4216 36.6549 16.7843C36.2508 17.147 35.6808 17.3279 34.9431 17.3279H32.5355H32.5347ZM33.4501 13.275H34.8324C35.2331 13.275 35.5534 13.1726 35.7931 12.9687C36.0329 12.7647 36.1527 12.4873 36.1527 12.1366C36.1527 11.7474 36.0413 11.4649 35.8191 11.2874C35.597 11.1108 35.2583 11.022 34.8039 11.022H33.4501V13.2742V13.275ZM33.4501 14.0226V16.5658H34.9615C35.3874 16.5658 35.7235 16.4532 35.97 16.2287C36.2165 16.0043 36.3397 15.6945 36.3397 15.2993C36.3397 14.4485 35.8853 14.0226 34.9758 14.0226H33.4501Z" fill="white"/>
<path d="M41.6594 16.809C41.3165 17.2204 40.8127 17.4252 40.148 17.4252C39.598 17.4252 39.1797 17.2622 38.8914 16.937C38.603 16.6119 38.458 16.1306 38.4554 15.4931V12.076H39.3373V15.4683C39.3373 16.2645 39.655 16.6622 40.2905 16.6622C40.9645 16.6622 41.4121 16.4071 41.6351 15.8959V12.076H42.517V17.3271H41.6779L41.6586 16.8082L41.6594 16.809Z" fill="white"/>
<path d="M43.8615 10.684C43.8615 10.5381 43.905 10.4152 43.9922 10.3154C44.0794 10.2155 44.2093 10.1652 44.3812 10.1652C44.553 10.1652 44.683 10.2155 44.7718 10.3154C44.8607 10.4161 44.9051 10.539 44.9051 10.684C44.9051 10.8291 44.8607 10.9512 44.7718 11.0485C44.683 11.1457 44.5522 11.1944 44.3812 11.1944C44.2102 11.1944 44.0802 11.1457 43.9922 11.0485C43.905 10.9512 43.8615 10.83 43.8615 10.684ZM44.8146 17.3279H43.9327V12.0768H44.8146V17.3279Z" fill="white"/>
<path d="M47.1845 17.3279H46.3026V9.87328H47.1845V17.3279Z" fill="white"/>
<path d="M48.3818 14.6584C48.3818 13.8528 48.5696 13.205 48.9443 12.7143C49.3191 12.2245 49.8103 11.9787 50.4172 11.9787C51.0241 11.9787 51.4995 12.1886 51.8524 12.6094V9.87244H52.7343V17.3271H51.9236L51.8809 16.7638C51.528 17.2042 51.0367 17.4235 50.408 17.4235C49.7793 17.4235 49.3232 17.1743 48.9468 16.6759C48.5705 16.1775 48.3818 15.5272 48.3818 14.725V14.6567V14.6584ZM49.2637 14.76C49.2637 15.3557 49.3844 15.8216 49.6259 16.1579C49.8673 16.4941 50.2009 16.6623 50.6268 16.6623C51.1859 16.6623 51.5942 16.4071 51.8524 15.8959V13.4841C51.5883 12.9891 51.1834 12.7416 50.6368 12.7416C50.2043 12.7416 49.8673 12.9115 49.6259 13.2511C49.3844 13.5908 49.2637 14.0943 49.2637 14.7608V14.76Z" fill="white"/>
<path d="M56.2422 17.4252C55.543 17.4252 54.9738 17.1914 54.5354 16.7237C54.097 16.256 53.8773 15.6313 53.8773 14.8479V14.6832C53.8773 14.1626 53.9754 13.6975 54.1707 13.2878C54.366 12.8782 54.6393 12.5582 54.9906 12.3269C55.3418 12.0956 55.7224 11.9795 56.1323 11.9795C56.803 11.9795 57.3244 12.2048 57.6958 12.6546C58.068 13.1044 58.2532 13.7487 58.2532 14.5859V14.9597H54.7592C54.7718 15.4777 54.9202 15.8959 55.2052 16.2142C55.4902 16.5325 55.8515 16.6921 56.2899 16.6921C56.6009 16.6921 56.865 16.6273 57.0813 16.4984C57.2976 16.3687 57.4862 16.1971 57.6488 15.9838L58.1878 16.4105C57.7553 17.0864 57.1073 17.4252 56.243 17.4252H56.2422ZM56.1323 12.7178C55.7761 12.7178 55.4776 12.85 55.2362 13.1137C54.9948 13.3774 54.8455 13.747 54.7877 14.2223H57.3713V14.1541C57.3462 13.6975 57.2255 13.3442 57.0092 13.0933C56.7929 12.8424 56.5003 12.7169 56.1323 12.7169V12.7178Z" fill="white"/>
<path d="M61.7685 12.8825C61.6352 12.8603 61.4902 12.8483 61.3342 12.8483C60.7558 12.8483 60.3635 13.0992 60.1564 13.601V17.3288H59.2745V12.0777H60.1329L60.1472 12.6845C60.4364 12.2151 60.8463 11.9804 61.377 11.9804C61.5488 11.9804 61.6788 12.0034 61.7676 12.0487V12.8833L61.7685 12.8825Z" fill="white"/>
<path d="M65.5816 15.9351C65.5816 15.6928 65.4919 15.5042 65.3125 15.3693C65.1331 15.2353 64.8196 15.1193 64.3736 15.022C63.9268 14.9247 63.5731 14.8086 63.3107 14.6729C63.0483 14.5372 62.8546 14.3751 62.7289 14.1873C62.6032 13.9996 62.5403 13.7768 62.5403 13.5174C62.5403 13.0873 62.7188 12.7229 63.0768 12.425C63.4347 12.1272 63.8908 11.9787 64.4474 11.9787C65.0317 11.9787 65.5062 12.1323 65.8708 12.4395C66.2347 12.7468 66.4166 13.1402 66.4166 13.619H65.5296C65.5296 13.3732 65.4274 13.1615 65.222 12.9832C65.0166 12.8056 64.7584 12.716 64.4474 12.716C64.1364 12.716 63.8757 12.7869 63.6938 12.9294C63.5127 13.0719 63.4222 13.258 63.4222 13.4875C63.4222 13.7043 63.506 13.8681 63.6745 13.9774C63.843 14.0875 64.1473 14.1924 64.5874 14.2932C65.0275 14.3939 65.3846 14.5133 65.6579 14.6524C65.9312 14.7915 66.1341 14.9588 66.2657 15.1551C66.3973 15.3505 66.4635 15.5895 66.4635 15.8711C66.4635 16.3405 66.2791 16.716 65.9102 16.9993C65.5414 17.2827 65.0636 17.4244 64.4751 17.4244C64.0618 17.4244 63.6963 17.3501 63.3786 17.2008C63.0609 17.0523 62.8119 16.844 62.6325 16.5769C62.4531 16.3098 62.3634 16.0213 62.3634 15.7107H63.2453C63.2612 16.0119 63.3794 16.25 63.6007 16.4267C63.8212 16.6034 64.1129 16.6913 64.4759 16.6913C64.8095 16.6913 65.077 16.623 65.279 16.4847C65.481 16.3473 65.5816 16.1638 65.5816 15.9334V15.9351Z" fill="white"/>
<path d="M31.5336 25.1785H28.6255L27.9725 27.0279H27.0286L29.6793 19.9616H30.4798L33.1355 27.0279H32.1967L31.5336 25.1785ZM28.9022 24.4164H31.262L30.08 21.1111L28.9022 24.4164Z" fill="white"/>
<path d="M34.8899 27.0279H34.0081V19.5733H34.8899V27.0279Z" fill="white"/>
<path d="M37.2592 27.0279H36.3773V19.5733H37.2592V27.0279Z" fill="white"/>
<path d="M38.6752 20.384C38.6752 20.2381 38.7188 20.1152 38.8059 20.0153C38.8931 19.9155 39.0231 19.8651 39.1949 19.8651C39.3668 19.8651 39.4967 19.9155 39.5856 20.0153C39.6744 20.116 39.7188 20.2389 39.7188 20.384C39.7188 20.5291 39.6744 20.6511 39.5856 20.7484C39.4967 20.8457 39.3659 20.8944 39.1949 20.8944C39.0239 20.8944 38.894 20.8457 38.8059 20.7484C38.7188 20.6511 38.6752 20.5299 38.6752 20.384ZM39.6283 27.0279H38.7464V21.7768H39.6283V27.0279Z" fill="white"/>
<path d="M44.2247 27.0279C44.1735 26.9246 44.1325 26.7403 44.1006 26.4749C43.6907 26.9084 43.2011 27.1252 42.6319 27.1252C42.1231 27.1252 41.7064 26.9784 41.3803 26.6857C41.0542 26.393 40.8916 26.0217 40.8916 25.572C40.8916 25.0249 41.0962 24.6008 41.5044 24.2978C41.9126 23.9957 42.4869 23.8438 43.2279 23.8438H44.0863V23.4316C44.0863 23.1175 43.9941 22.8675 43.8097 22.6814C43.6253 22.4954 43.3537 22.4024 42.994 22.4024C42.6797 22.4024 42.4156 22.4834 42.2027 22.6447C41.9898 22.8069 41.8833 23.0023 41.8833 23.2319H40.9964C40.9964 22.9699 41.0878 22.7164 41.2705 22.4723C41.4533 22.2283 41.7014 22.0345 42.0141 21.892C42.3268 21.7495 42.6713 21.6787 43.046 21.6787C43.6404 21.6787 44.1056 21.8297 44.4426 22.1327C44.7796 22.4348 44.954 22.8521 44.9674 23.3821V25.799C44.9674 26.2812 45.0278 26.6643 45.1485 26.9494V27.0271H44.2238L44.2247 27.0279ZM42.761 26.3435C43.0376 26.3435 43.3 26.2709 43.5473 26.125C43.7955 25.9791 43.9749 25.7904 44.0863 25.5575V24.4796H43.3948C42.3142 24.4796 41.7735 24.8013 41.7735 25.4457C41.7735 25.7273 41.8657 25.9475 42.0501 26.1054C42.2346 26.2641 42.471 26.3435 42.7602 26.3435H42.761Z" fill="white"/>
<path d="M47.1847 21.7768L47.2132 22.4365C47.6072 21.9313 48.1219 21.6795 48.7582 21.6795C49.848 21.6795 50.3979 22.3059 50.4079 23.5579V27.0279H49.526V23.5528C49.5227 23.1739 49.438 22.8948 49.2712 22.713C49.1044 22.5321 48.8445 22.4416 48.4916 22.4416C48.2057 22.4416 47.9542 22.5193 47.738 22.6746C47.5217 22.8299 47.3532 23.0339 47.2325 23.2865V27.0288H46.3506V21.7777H47.1847V21.7768Z" fill="white"/>
<path d="M53.8061 26.3921C54.1204 26.3921 54.3954 26.2948 54.6309 26.1011C54.8665 25.9074 54.9964 25.6641 55.0216 25.3731H55.8557C55.8398 25.6744 55.7383 25.9603 55.5505 26.2325C55.3628 26.5039 55.113 26.7207 54.7994 26.8828C54.4859 27.045 54.1548 27.1252 53.8052 27.1252C53.1027 27.1252 52.5444 26.8862 52.1295 26.4092C51.7145 25.9321 51.5074 25.2792 51.5074 24.4506V24.3004C51.5074 23.7892 51.5997 23.3343 51.7841 22.9366C51.9685 22.5389 52.2326 22.23 52.578 22.0098C52.9225 21.7896 53.3307 21.6795 53.801 21.6795C54.3794 21.6795 54.8598 21.8562 55.2429 22.2086C55.626 22.5611 55.8297 23.0194 55.8557 23.5818H55.0216C54.9964 23.2421 54.8698 22.9631 54.6427 22.7446C54.4155 22.5261 54.1347 22.4169 53.801 22.4169C53.3525 22.4169 53.0055 22.5807 52.759 22.9093C52.5126 23.2379 52.3893 23.7124 52.3893 24.3337V24.5035C52.3893 25.1086 52.5117 25.5745 52.7565 25.9014C53.0013 26.2282 53.3509 26.3912 53.8052 26.3912L53.8061 26.3921Z" fill="white"/>
<path d="M58.9886 27.1252C58.2895 27.1252 57.7203 26.8914 57.2818 26.4237C56.8434 25.956 56.6238 25.3313 56.6238 24.5479V24.3831C56.6238 23.8626 56.7219 23.3974 56.9172 22.9878C57.1125 22.5782 57.3858 22.2581 57.737 22.0269C58.0883 21.7956 58.4689 21.6795 58.8788 21.6795C59.5494 21.6795 60.0708 21.9048 60.4422 22.3546C60.8144 22.8043 60.9997 23.4487 60.9997 24.2859V24.6597H57.5057C57.5182 25.1777 57.6666 25.5959 57.9516 25.9142C58.2367 26.2325 58.598 26.3921 59.0364 26.3921C59.3474 26.3921 59.6115 26.3272 59.8277 26.1984C60.044 26.0687 60.2326 25.8971 60.3953 25.6838L60.9343 26.1105C60.5017 26.7864 59.8537 27.1252 58.9894 27.1252H58.9886ZM58.8788 22.4177C58.5225 22.4177 58.2241 22.55 57.9827 22.8137C57.7412 23.0774 57.592 23.4469 57.5342 23.9223H60.1178V23.854C60.0926 23.3974 59.9719 23.0441 59.7556 22.7932C59.5394 22.5423 59.2468 22.4169 58.8788 22.4169V22.4177Z" fill="white"/>
<path d="M6.06255 4.62469L11.9641 6.71556L12.1528 6.78213L12.2232 6.67972C13.3071 5.10431 13.1562 3.10218 12.1067 1.71708L7.6595 0.136548C7.40047 0.0460852 7.13054 0 6.85809 0C5.85801 0 4.98702 0.592274 4.6408 1.50885C4.40943 2.12075 4.43123 2.78386 4.702 3.37613C4.97277 3.96926 5.45646 4.41218 6.06339 4.62554L6.06255 4.62469Z" fill="white"/>
<path d="M6.06255 21.3952L11.9641 19.3044L12.1528 19.2378L12.2232 19.3402C13.3071 20.9156 13.1562 22.9177 12.1067 24.3028L7.6595 25.8834C7.40047 25.9738 7.13054 26.0199 6.85809 26.0199C5.85801 26.0199 4.98702 25.4277 4.6408 24.5111C4.40943 23.8992 4.43123 23.2361 4.702 22.6438C4.97277 22.0507 5.45646 21.6077 6.06339 21.3944L6.06255 21.3952Z" fill="white"/>
<path d="M19.1174 21.1196C19.275 20.7919 19.3589 20.4266 19.3589 20.0648C19.3589 19.5723 19.2122 19.0987 18.9347 18.6959L15.9311 14.3298C15.3879 13.5404 15.3879 12.4796 15.9311 11.6901L18.9347 7.32405C19.3547 6.71385 19.4704 5.927 19.244 5.21866C19.0177 4.50947 18.4703 3.94195 17.7787 3.69872L13.63 2.24193C13.7381 2.46211 13.8303 2.69169 13.9066 2.93064C14.3744 4.39853 14.1447 5.96626 13.2745 7.23017L12.7942 7.92827L10.2407 11.6407C9.6774 12.4591 9.6774 13.56 10.2407 14.3784L12.7942 18.0908L13.2745 18.7889C14.1447 20.0528 14.3744 21.6205 13.9066 23.0884C13.8303 23.3274 13.7381 23.557 13.63 23.7771L17.7133 22.3434C18.3362 22.1249 18.8484 21.6786 19.1166 21.1196H19.1174Z" fill="white"/>
<path d="M3.17714 16.0545C4.93182 16.0545 6.35428 14.6064 6.35428 12.8201C6.35428 11.0337 4.93182 9.58561 3.17714 9.58561C1.42245 9.58561 0 11.0337 0 12.8201C0 14.6064 1.42245 16.0545 3.17714 16.0545Z" fill="white"/>
</svg>
