<svg width="21" height="18" viewBox="0 0 21 18" fill="none" xmlns="http://www.w3.org/2000/svg">
<path d="M16.625 6H15.75V3.75C15.75 3.15326 15.4734 2.58097 14.9812 2.15901C14.4889 1.73705 13.8212 1.5 13.125 1.5H4.375C3.67881 1.5 3.01113 1.73705 2.51884 2.15901C2.02656 2.58097 1.75 3.15326 1.75 3.75V12.75C1.75086 12.8981 1.80284 13.0426 1.89938 13.1654C1.99592 13.2882 2.13271 13.3837 2.2925 13.44C2.39634 13.482 2.51022 13.5025 2.625 13.5C2.74016 13.5006 2.85431 13.4817 2.96092 13.4443C3.06753 13.407 3.16449 13.352 3.24625 13.2825L5.705 11.1675H7V12.2475C7 12.8442 7.27656 13.4165 7.76884 13.8385C8.26113 14.2604 8.92881 14.4975 9.625 14.4975H15.68L17.7537 16.2825C17.8355 16.352 17.9325 16.407 18.0391 16.4443C18.1457 16.4817 18.2598 16.5006 18.375 16.5C18.4898 16.5025 18.6037 16.482 18.7075 16.44C18.8673 16.3837 19.0041 16.2882 19.1006 16.1654C19.1972 16.0426 19.2491 15.8981 19.25 15.75V8.25C19.25 7.65326 18.9734 7.08097 18.4812 6.65901C17.9889 6.23705 17.3212 6 16.625 6ZM7 8.25V9.6675H5.34625C5.23109 9.66693 5.11694 9.68585 5.01033 9.72317C4.90372 9.7605 4.80676 9.81549 4.725 9.885L3.5 10.9425V3.75C3.5 3.55109 3.59219 3.36032 3.75628 3.21967C3.92038 3.07902 4.14294 3 4.375 3H13.125C13.3571 3 13.5796 3.07902 13.7437 3.21967C13.9078 3.36032 14 3.55109 14 3.75V6H9.625C8.92881 6 8.26113 6.23705 7.76884 6.65901C7.27656 7.08097 7 7.65326 7 8.25ZM17.5 13.9425L16.625 13.1925C16.544 13.1216 16.4473 13.0653 16.3407 13.0266C16.234 12.988 16.1195 12.9679 16.0038 12.9675H9.625C9.39294 12.9675 9.17038 12.8885 9.00628 12.7478C8.84219 12.6072 8.75 12.4164 8.75 12.2175V8.25C8.75 8.05109 8.84219 7.86032 9.00628 7.71967C9.17038 7.57902 9.39294 7.5 9.625 7.5H16.625C16.8571 7.5 17.0796 7.57902 17.2437 7.71967C17.4078 7.86032 17.5 8.05109 17.5 8.25V13.9425Z" fill="#334254"/>
</svg>

